<?xml version="1.0" encoding="UTF-8" standalone="no"?>
<!DOCTYPE svg PUBLIC "-//W3C//DTD SVG 1.1//EN"
 "http://www.w3.org/Graphics/SVG/1.1/DTD/svg11.dtd">
<!-- Generated by graphviz version 2.43.0 (0)
 -->
<!-- Title: addproductdialog.cpp Pages: 1 -->
<svg width="1221pt" height="137pt"
 viewBox="0.00 0.00 1220.50 137.00" xmlns="http://www.w3.org/2000/svg" xmlns:xlink="http://www.w3.org/1999/xlink">
<g id="graph0" class="graph" transform="scale(1 1) rotate(0) translate(4 133)">
<title>addproductdialog.cpp</title>
<!-- Node1 -->
<g id="Node000001" class="node">
<title>Node1</title>
<g id="a_Node000001"><a xlink:title=" ">
<polygon fill="#999999" stroke="#666666" points="652.5,-129 530.5,-129 530.5,-110 652.5,-110 652.5,-129"/>
<text text-anchor="middle" x="591.5" y="-117" font-family="Helvetica,sans-Serif" font-size="10.00">addproductdialog.cpp</text>
</a>
</g>
</g>
<!-- Node2 -->
<g id="Node000002" class="node">
<title>Node2</title>
<g id="a_Node000002"><a xlink:href="addproductdialog_8h.html" target="_top" xlink:title=" ">
<polygon fill="white" stroke="#666666" points="487.5,-74 377.5,-74 377.5,-55 487.5,-55 487.5,-74"/>
<text text-anchor="middle" x="432.5" y="-62" font-family="Helvetica,sans-Serif" font-size="10.00">addproductdialog.h</text>
</a>
</g>
</g>
<!-- Node1&#45;&gt;Node2 -->
<g id="edge1_Node000001_Node000002" class="edge">
<title>Node1&#45;&gt;Node2</title>
<g id="a_edge1_Node000001_Node000002"><a xlink:title=" ">
<path fill="none" stroke="#63b8ff" d="M565.95,-109.98C539.38,-101.13 497.56,-87.19 467.83,-77.28"/>
<polygon fill="#63b8ff" stroke="#63b8ff" points="468.84,-73.92 458.25,-74.08 466.63,-80.56 468.84,-73.92"/>
</a>
</g>
</g>
<!-- Node4 -->
<g id="Node000004" class="node">
<title>Node4</title>
<g id="a_Node000004"><a xlink:title=" ">
<polygon fill="#e0e0e0" stroke="#999999" points="63,-19 0,-19 0,0 63,0 63,-19"/>
<text text-anchor="middle" x="31.5" y="-7" font-family="Helvetica,sans-Serif" font-size="10.00">QLineEdit</text>
</a>
</g>
</g>
<!-- Node1&#45;&gt;Node4 -->
<g id="edge15_Node000001_Node000004" class="edge">
<title>Node1&#45;&gt;Node4</title>
<g id="a_edge15_Node000001_Node000004"><a xlink:title=" ">
<path fill="none" stroke="#63b8ff" d="M530.24,-114.44C457.95,-108.85 334.44,-96.78 230.5,-74 170.18,-60.78 102.06,-37.05 63.2,-22.64"/>
<polygon fill="#63b8ff" stroke="#63b8ff" points="64.11,-19.24 53.51,-19.02 61.65,-25.8 64.11,-19.24"/>
</a>
</g>
</g>
<!-- Node5 -->
<g id="Node000005" class="node">
<title>Node5</title>
<g id="a_Node000005"><a xlink:title=" ">
<polygon fill="#e0e0e0" stroke="#999999" points="158,-19 81,-19 81,0 158,0 158,-19"/>
<text text-anchor="middle" x="119.5" y="-7" font-family="Helvetica,sans-Serif" font-size="10.00">QComboBox</text>
</a>
</g>
</g>
<!-- Node1&#45;&gt;Node5 -->
<g id="edge16_Node000001_Node000005" class="edge">
<title>Node1&#45;&gt;Node5</title>
<g id="a_edge16_Node000001_Node000005"><a xlink:title=" ">
<path fill="none" stroke="#63b8ff" d="M530.44,-113.17C469.3,-106.97 372.86,-94.82 291.5,-74 239.58,-60.72 181.55,-37.44 147.91,-23.06"/>
<polygon fill="#63b8ff" stroke="#63b8ff" points="149.26,-19.83 138.69,-19.08 146.48,-26.25 149.26,-19.83"/>
</a>
</g>
</g>
<!-- Node6 -->
<g id="Node000006" class="node">
<title>Node6</title>
<g id="a_Node000006"><a xlink:title=" ">
<polygon fill="#e0e0e0" stroke="#999999" points="239,-19 176,-19 176,0 239,0 239,-19"/>
<text text-anchor="middle" x="207.5" y="-7" font-family="Helvetica,sans-Serif" font-size="10.00">QTextEdit</text>
</a>
</g>
</g>
<!-- Node1&#45;&gt;Node6 -->
<g id="edge17_Node000001_Node000006" class="edge">
<title>Node1&#45;&gt;Node6</title>
<g id="a_edge17_Node000001_Node000006"><a xlink:title=" ">
<path fill="none" stroke="#63b8ff" d="M530.29,-112.44C478.55,-106.2 402.93,-94.43 339.5,-74 299.79,-61.21 256.77,-38.74 230.99,-24.24"/>
<polygon fill="#63b8ff" stroke="#63b8ff" points="232.42,-21.03 221.99,-19.12 228.95,-27.11 232.42,-21.03"/>
</a>
</g>
</g>
<!-- Node7 -->
<g id="Node000007" class="node">
<title>Node7</title>
<g id="a_Node000007"><a xlink:title=" ">
<polygon fill="#e0e0e0" stroke="#999999" points="355.5,-19 257.5,-19 257.5,0 355.5,0 355.5,-19"/>
<text text-anchor="middle" x="306.5" y="-7" font-family="Helvetica,sans-Serif" font-size="10.00">QDoubleSpinBox</text>
</a>
</g>
</g>
<!-- Node1&#45;&gt;Node7 -->
<g id="edge18_Node000001_Node000007" class="edge">
<title>Node1&#45;&gt;Node7</title>
<g id="a_edge18_Node000001_Node000007"><a xlink:title=" ">
<path fill="none" stroke="#63b8ff" d="M530.46,-116.05C483.67,-111.95 418.81,-101.3 368.5,-74 347.64,-62.68 329.44,-41.99 318.25,-27.31"/>
<polygon fill="#63b8ff" stroke="#63b8ff" points="320.95,-25.08 312.22,-19.08 315.3,-29.22 320.95,-25.08"/>
</a>
</g>
</g>
<!-- Node8 -->
<g id="Node000008" class="node">
<title>Node8</title>
<g id="a_Node000008"><a xlink:title=" ">
<polygon fill="#e0e0e0" stroke="#999999" points="579.5,-19 513.5,-19 513.5,0 579.5,0 579.5,-19"/>
<text text-anchor="middle" x="546.5" y="-7" font-family="Helvetica,sans-Serif" font-size="10.00">QDateEdit</text>
</a>
</g>
</g>
<!-- Node1&#45;&gt;Node8 -->
<g id="edge19_Node000001_Node000008" class="edge">
<title>Node1&#45;&gt;Node8</title>
<g id="a_edge19_Node000001_Node000008"><a xlink:title=" ">
<path fill="none" stroke="#63b8ff" d="M587.11,-109.73C582.71,-100.82 575.84,-86.58 570.5,-74 564.1,-58.91 557.57,-41.48 552.94,-28.7"/>
<polygon fill="#63b8ff" stroke="#63b8ff" points="556.21,-27.45 549.55,-19.21 549.62,-29.81 556.21,-27.45"/>
</a>
</g>
</g>
<!-- Node9 -->
<g id="Node000009" class="node">
<title>Node9</title>
<g id="a_Node000009"><a xlink:title=" ">
<polygon fill="#e0e0e0" stroke="#999999" points="671,-19 598,-19 598,0 671,0 671,-19"/>
<text text-anchor="middle" x="634.5" y="-7" font-family="Helvetica,sans-Serif" font-size="10.00">QCheckBox</text>
</a>
</g>
</g>
<!-- Node1&#45;&gt;Node9 -->
<g id="edge20_Node000001_Node000009" class="edge">
<title>Node1&#45;&gt;Node9</title>
<g id="a_edge20_Node000001_Node000009"><a xlink:title=" ">
<path fill="none" stroke="#63b8ff" d="M586.17,-109.86C579.13,-97.24 568.59,-73.26 577.5,-55 583.8,-42.09 595.85,-31.83 607.26,-24.43"/>
<polygon fill="#63b8ff" stroke="#63b8ff" points="609.36,-27.25 616.15,-19.12 605.77,-21.25 609.36,-27.25"/>
</a>
</g>
</g>
<!-- Node11 -->
<g id="Node000011" class="node">
<title>Node11</title>
<g id="a_Node000011"><a xlink:title=" ">
<polygon fill="#e0e0e0" stroke="#999999" points="753.5,-19 689.5,-19 689.5,0 753.5,0 753.5,-19"/>
<text text-anchor="middle" x="721.5" y="-7" font-family="Helvetica,sans-Serif" font-size="10.00">QSpinBox</text>
</a>
</g>
</g>
<!-- Node1&#45;&gt;Node11 -->
<g id="edge25_Node000001_Node000011" class="edge">
<title>Node1&#45;&gt;Node11</title>
<g id="a_edge25_Node000001_Node000011"><a xlink:title=" ">
<path fill="none" stroke="#63b8ff" d="M592.55,-109.96C594.63,-96.58 600.45,-70.61 615.5,-55 632.68,-37.19 658.09,-26.19 679.72,-19.58"/>
<polygon fill="#63b8ff" stroke="#63b8ff" points="680.69,-22.95 689.36,-16.85 678.78,-16.21 680.69,-22.95"/>
</a>
</g>
</g>
<!-- Node12 -->
<g id="Node000012" class="node">
<title>Node12</title>
<g id="a_Node000012"><a xlink:title=" ">
<polygon fill="#e0e0e0" stroke="#999999" points="843.5,-19 771.5,-19 771.5,0 843.5,0 843.5,-19"/>
<text text-anchor="middle" x="807.5" y="-7" font-family="Helvetica,sans-Serif" font-size="10.00">QGroupBox</text>
</a>
</g>
</g>
<!-- Node1&#45;&gt;Node12 -->
<g id="edge23_Node000001_Node000012" class="edge">
<title>Node1&#45;&gt;Node12</title>
<g id="a_edge23_Node000001_Node000012"><a xlink:title=" ">
<path fill="none" stroke="#63b8ff" d="M597.13,-109.68C606.38,-95.92 626.12,-69.42 649.5,-55 668.19,-43.48 721.62,-29.7 761.2,-20.56"/>
<polygon fill="#63b8ff" stroke="#63b8ff" points="762.22,-23.92 771.19,-18.29 760.66,-17.1 762.22,-23.92"/>
</a>
</g>
</g>
<!-- Node13 -->
<g id="Node000013" class="node">
<title>Node13</title>
<g id="a_Node000013"><a xlink:title=" ">
<polygon fill="#e0e0e0" stroke="#999999" points="741,-74 658,-74 658,-55 741,-55 741,-74"/>
<text text-anchor="middle" x="699.5" y="-62" font-family="Helvetica,sans-Serif" font-size="10.00">QVBoxLayout</text>
</a>
</g>
</g>
<!-- Node1&#45;&gt;Node13 -->
<g id="edge12_Node000001_Node000013" class="edge">
<title>Node1&#45;&gt;Node13</title>
<g id="a_edge12_Node000001_Node000013"><a xlink:title=" ">
<path fill="none" stroke="#63b8ff" d="M608.85,-109.98C626.07,-101.54 652.7,-88.47 672.65,-78.68"/>
<polygon fill="#63b8ff" stroke="#63b8ff" points="674.4,-81.72 681.83,-74.17 671.31,-75.43 674.4,-81.72"/>
</a>
</g>
</g>
<!-- Node14 -->
<g id="Node000014" class="node">
<title>Node14</title>
<g id="a_Node000014"><a xlink:title=" ">
<polygon fill="#e0e0e0" stroke="#999999" points="842,-74 759,-74 759,-55 842,-55 842,-74"/>
<text text-anchor="middle" x="800.5" y="-62" font-family="Helvetica,sans-Serif" font-size="10.00">QHBoxLayout</text>
</a>
</g>
</g>
<!-- Node1&#45;&gt;Node14 -->
<g id="edge13_Node000001_Node000014" class="edge">
<title>Node1&#45;&gt;Node14</title>
<g id="a_edge13_Node000001_Node000014"><a xlink:title=" ">
<path fill="none" stroke="#63b8ff" d="M625.08,-109.98C660.85,-100.91 717.62,-86.52 756.84,-76.57"/>
<polygon fill="#63b8ff" stroke="#63b8ff" points="757.82,-79.93 766.66,-74.08 756.1,-73.15 757.82,-79.93"/>
</a>
</g>
</g>
<!-- Node15 -->
<g id="Node000015" class="node">
<title>Node15</title>
<g id="a_Node000015"><a xlink:title=" ">
<polygon fill="#e0e0e0" stroke="#999999" points="942.5,-74 860.5,-74 860.5,-55 942.5,-55 942.5,-74"/>
<text text-anchor="middle" x="901.5" y="-62" font-family="Helvetica,sans-Serif" font-size="10.00">QFormLayout</text>
</a>
</g>
</g>
<!-- Node1&#45;&gt;Node15 -->
<g id="edge14_Node000001_Node000015" class="edge">
<title>Node1&#45;&gt;Node15</title>
<g id="a_edge14_Node000001_Node000015"><a xlink:title=" ">
<path fill="none" stroke="#63b8ff" d="M641.31,-109.98C698.62,-100.19 792.28,-84.17 850.21,-74.27"/>
<polygon fill="#63b8ff" stroke="#63b8ff" points="850.98,-77.69 860.25,-72.55 849.8,-70.79 850.98,-77.69"/>
</a>
</g>
</g>
<!-- Node16 -->
<g id="Node000016" class="node">
<title>Node16</title>
<g id="a_Node000016"><a xlink:title=" ">
<polygon fill="#e0e0e0" stroke="#999999" points="1040.5,-74 960.5,-74 960.5,-55 1040.5,-55 1040.5,-74"/>
<text text-anchor="middle" x="1000.5" y="-62" font-family="Helvetica,sans-Serif" font-size="10.00">QPushButton</text>
</a>
</g>
</g>
<!-- Node1&#45;&gt;Node16 -->
<g id="edge21_Node000001_Node000016" class="edge">
<title>Node1&#45;&gt;Node16</title>
<g id="a_edge21_Node000001_Node000016"><a xlink:title=" ">
<path fill="none" stroke="#63b8ff" d="M652.77,-111.85C722.41,-104.08 839.72,-90.37 950.41,-74.1"/>
<polygon fill="#63b8ff" stroke="#63b8ff" points="951.03,-77.54 960.41,-72.62 950.01,-70.62 951.03,-77.54"/>
</a>
</g>
</g>
<!-- Node17 -->
<g id="Node000017" class="node">
<title>Node17</title>
<g id="a_Node000017"><a xlink:title=" ">
<polygon fill="#e0e0e0" stroke="#999999" points="1108.5,-74 1058.5,-74 1058.5,-55 1108.5,-55 1108.5,-74"/>
<text text-anchor="middle" x="1083.5" y="-62" font-family="Helvetica,sans-Serif" font-size="10.00">QLabel</text>
</a>
</g>
</g>
<!-- Node1&#45;&gt;Node17 -->
<g id="edge22_Node000001_Node000017" class="edge">
<title>Node1&#45;&gt;Node17</title>
<g id="a_edge22_Node000001_Node000017"><a xlink:title=" ">
<path fill="none" stroke="#63b8ff" d="M652.63,-115.45C738.83,-110.5 901.09,-98.86 1048.22,-73.97"/>
<polygon fill="#63b8ff" stroke="#63b8ff" points="1049.07,-77.37 1058.34,-72.23 1047.89,-70.47 1049.07,-77.37"/>
</a>
</g>
</g>
<!-- Node18 -->
<g id="Node000018" class="node">
<title>Node18</title>
<g id="a_Node000018"><a xlink:title=" ">
<polygon fill="#e0e0e0" stroke="#999999" points="1212.5,-74 1126.5,-74 1126.5,-55 1212.5,-55 1212.5,-74"/>
<text text-anchor="middle" x="1169.5" y="-62" font-family="Helvetica,sans-Serif" font-size="10.00">QMessageBox</text>
</a>
</g>
</g>
<!-- Node1&#45;&gt;Node18 -->
<g id="edge24_Node000001_Node000018" class="edge">
<title>Node1&#45;&gt;Node18</title>
<g id="a_edge24_Node000001_Node000018"><a xlink:title=" ">
<path fill="none" stroke="#63b8ff" d="M652.8,-114.86C749.22,-108.8 942.39,-95.28 1116.3,-74.05"/>
<polygon fill="#63b8ff" stroke="#63b8ff" points="1116.91,-77.5 1126.41,-72.81 1116.05,-70.56 1116.91,-77.5"/>
</a>
</g>
</g>
<!-- Node3 -->
<g id="Node000003" class="node">
<title>Node3</title>
<g id="a_Node000003"><a xlink:title=" ">
<polygon fill="#e0e0e0" stroke="#999999" points="429.5,-19 373.5,-19 373.5,0 429.5,0 429.5,-19"/>
<text text-anchor="middle" x="401.5" y="-7" font-family="Helvetica,sans-Serif" font-size="10.00">QDialog</text>
</a>
</g>
</g>
<!-- Node2&#45;&gt;Node3 -->
<g id="edge2_Node000002_Node000003" class="edge">
<title>Node2&#45;&gt;Node3</title>
<g id="a_edge2_Node000002_Node000003"><a xlink:title=" ">
<path fill="none" stroke="#63b8ff" d="M427.38,-54.75C423.14,-47.49 416.97,-36.95 411.72,-27.98"/>
<polygon fill="#63b8ff" stroke="#63b8ff" points="414.59,-25.95 406.52,-19.09 408.55,-29.49 414.59,-25.95"/>
</a>
</g>
</g>
<!-- Node2&#45;&gt;Node4 -->
<g id="edge3_Node000002_Node000004" class="edge">
<title>Node2&#45;&gt;Node4</title>
<g id="a_edge3_Node000002_Node000004"><a xlink:title=" ">
<path fill="none" stroke="#63b8ff" d="M377.24,-58.19C308.24,-51.23 186.39,-37.84 73.2,-19.17"/>
<polygon fill="#63b8ff" stroke="#63b8ff" points="73.77,-15.72 63.33,-17.52 72.62,-22.62 73.77,-15.72"/>
</a>
</g>
</g>
<!-- Node2&#45;&gt;Node5 -->
<g id="edge4_Node000002_Node000005" class="edge">
<title>Node2&#45;&gt;Node5</title>
<g id="a_edge4_Node000002_Node000005"><a xlink:title=" ">
<path fill="none" stroke="#63b8ff" d="M380.23,-54.96C328.76,-46.51 247.64,-33.07 168.38,-19.31"/>
<polygon fill="#63b8ff" stroke="#63b8ff" points="168.67,-15.81 158.22,-17.54 167.47,-22.71 168.67,-15.81"/>
</a>
</g>
</g>
<!-- Node2&#45;&gt;Node6 -->
<g id="edge5_Node000002_Node000006" class="edge">
<title>Node2&#45;&gt;Node6</title>
<g id="a_edge5_Node000002_Node000006"><a xlink:title=" ">
<path fill="none" stroke="#63b8ff" d="M396.35,-54.98C356.18,-45.52 291.43,-30.27 249.17,-20.31"/>
<polygon fill="#63b8ff" stroke="#63b8ff" points="249.73,-16.85 239.2,-17.97 248.13,-23.67 249.73,-16.85"/>
</a>
</g>
</g>
<!-- Node2&#45;&gt;Node7 -->
<g id="edge6_Node000002_Node000007" class="edge">
<title>Node2&#45;&gt;Node7</title>
<g id="a_edge6_Node000002_Node000007"><a xlink:title=" ">
<path fill="none" stroke="#63b8ff" d="M412.26,-54.98C391.8,-46.38 359.97,-32.99 336.57,-23.15"/>
<polygon fill="#63b8ff" stroke="#63b8ff" points="337.69,-19.82 327.11,-19.17 334.97,-26.27 337.69,-19.82"/>
</a>
</g>
</g>
<!-- Node2&#45;&gt;Node8 -->
<g id="edge7_Node000002_Node000008" class="edge">
<title>Node2&#45;&gt;Node8</title>
<g id="a_edge7_Node000002_Node000008"><a xlink:title=" ">
<path fill="none" stroke="#63b8ff" d="M450.82,-54.98C469.16,-46.46 497.61,-33.23 518.73,-23.41"/>
<polygon fill="#63b8ff" stroke="#63b8ff" points="520.26,-26.56 527.85,-19.17 517.31,-20.21 520.26,-26.56"/>
</a>
</g>
</g>
<!-- Node2&#45;&gt;Node9 -->
<g id="edge8_Node000002_Node000009" class="edge">
<title>Node2&#45;&gt;Node9</title>
<g id="a_edge8_Node000002_Node000009"><a xlink:title=" ">
<path fill="none" stroke="#63b8ff" d="M464.95,-54.98C499.46,-45.93 554.16,-31.58 592.06,-21.64"/>
<polygon fill="#63b8ff" stroke="#63b8ff" points="593.01,-25.01 601.79,-19.08 591.23,-18.23 593.01,-25.01"/>
</a>
</g>
</g>
<!-- Node10 -->
<g id="Node000010" class="node">
<title>Node10</title>
<g id="a_Node000010"><a xlink:title=" ">
<polygon fill="#e0e0e0" stroke="#999999" points="495,-19 448,-19 448,0 495,0 495,-19"/>
<text text-anchor="middle" x="471.5" y="-7" font-family="Helvetica,sans-Serif" font-size="10.00">QDate</text>
</a>
</g>
</g>
<!-- Node2&#45;&gt;Node10 -->
<g id="edge9_Node000002_Node000010" class="edge">
<title>Node2&#45;&gt;Node10</title>
<g id="a_edge9_Node000002_Node000010"><a xlink:title=" ">
<path fill="none" stroke="#63b8ff" d="M438.94,-54.75C444.39,-47.34 452.36,-36.5 459.06,-27.41"/>
<polygon fill="#63b8ff" stroke="#63b8ff" points="462.07,-29.22 465.18,-19.09 456.43,-25.07 462.07,-29.22"/>
</a>
</g>
</g>
<!-- Node2&#45;&gt;Node11 -->
<g id="edge10_Node000002_Node000011" class="edge">
<title>Node2&#45;&gt;Node11</title>
<g id="a_edge10_Node000002_Node000011"><a xlink:title=" ">
<path fill="none" stroke="#63b8ff" d="M482.45,-54.94C530.43,-46.63 605.23,-33.44 679.32,-19.19"/>
<polygon fill="#63b8ff" stroke="#63b8ff" points="680.13,-22.6 689.29,-17.26 678.81,-15.72 680.13,-22.6"/>
</a>
</g>
</g>
<!-- Node2&#45;&gt;Node12 -->
<g id="edge11_Node000002_Node000012" class="edge">
<title>Node2&#45;&gt;Node12</title>
<g id="a_edge11_Node000002_Node000012"><a xlink:title=" ">
<path fill="none" stroke="#63b8ff" d="M487.52,-56.98C551.08,-49.25 659.04,-35.49 761.3,-19.12"/>
<polygon fill="#63b8ff" stroke="#63b8ff" points="761.86,-22.58 771.18,-17.53 760.75,-15.67 761.86,-22.58"/>
</a>
</g>
</g>
</g>
</svg>
