<?xml version="1.0" encoding="UTF-8" standalone="no"?>
<!DOCTYPE svg PUBLIC "-//W3C//DTD SVG 1.1//EN"
 "http://www.w3.org/Graphics/SVG/1.1/DTD/svg11.dtd">
<!-- Generated by graphviz version 2.43.0 (0)
 -->
<!-- Title: addproductdialog.h Pages: 1 -->
<svg width="588pt" height="159pt"
 viewBox="0.00 0.00 588.00 159.00" xmlns="http://www.w3.org/2000/svg" xmlns:xlink="http://www.w3.org/1999/xlink">
<g id="graph0" class="graph" transform="scale(1 1) rotate(0) translate(4 155)">
<title>addproductdialog.h</title>
<!-- Node1 -->
<g id="Node000001" class="node">
<title>Node1</title>
<g id="a_Node000001"><a xlink:title=" ">
<polygon fill="#999999" stroke="#666666" points="323,-151 213,-151 213,-132 323,-132 323,-151"/>
<text text-anchor="middle" x="268" y="-139" font-family="Helvetica,sans-Serif" font-size="10.00">addproductdialog.h</text>
</a>
</g>
</g>
<!-- Node2 -->
<g id="Node000002" class="node">
<title>Node2</title>
<g id="a_Node000002"><a xlink:href="addproductdialog_8cpp.html" target="_top" xlink:title=" ">
<polygon fill="white" stroke="#666666" points="122,-90.5 0,-90.5 0,-71.5 122,-71.5 122,-90.5"/>
<text text-anchor="middle" x="61" y="-78.5" font-family="Helvetica,sans-Serif" font-size="10.00">addproductdialog.cpp</text>
</a>
</g>
</g>
<!-- Node1&#45;&gt;Node2 -->
<g id="edge1_Node000001_Node000002" class="edge">
<title>Node1&#45;&gt;Node2</title>
<g id="a_edge1_Node000001_Node000002"><a xlink:title=" ">
<path fill="none" stroke="#63b8ff" d="M228.2,-129.25C188.17,-117.94 127.33,-100.75 91.14,-90.52"/>
<polygon fill="#63b8ff" stroke="#63b8ff" points="227.33,-132.64 237.9,-131.99 229.23,-125.91 227.33,-132.64"/>
</a>
</g>
</g>
<!-- Node3 -->
<g id="Node000003" class="node">
<title>Node3</title>
<g id="a_Node000003"><a xlink:href="moc__addproductdialog_8cpp.html" target="_top" xlink:title=" ">
<polygon fill="white" stroke="#666666" points="291.5,-96 140.5,-96 140.5,-66 291.5,-66 291.5,-96"/>
<text text-anchor="start" x="148.5" y="-84" font-family="Helvetica,sans-Serif" font-size="10.00">build/Desktop&#45;Debug</text>
<text text-anchor="middle" x="216" y="-73" font-family="Helvetica,sans-Serif" font-size="10.00">/moc_addproductdialog.cpp</text>
</a>
</g>
</g>
<!-- Node1&#45;&gt;Node3 -->
<g id="edge2_Node000001_Node000003" class="edge">
<title>Node1&#45;&gt;Node3</title>
<g id="a_edge2_Node000001_Node000003"><a xlink:title=" ">
<path fill="none" stroke="#63b8ff" d="M253.47,-124.15C245.63,-115.34 236.06,-104.56 228.55,-96.11"/>
<polygon fill="#63b8ff" stroke="#63b8ff" points="251.07,-126.72 260.33,-131.87 256.3,-122.07 251.07,-126.72"/>
</a>
</g>
</g>
<!-- Node4 -->
<g id="Node000004" class="node">
<title>Node4</title>
<g id="a_Node000004"><a xlink:href="mainwindow_8cpp.html" target="_top" xlink:title=" ">
<polygon fill="white" stroke="#666666" points="354,-24.5 256,-24.5 256,-5.5 354,-5.5 354,-24.5"/>
<text text-anchor="middle" x="305" y="-12.5" font-family="Helvetica,sans-Serif" font-size="10.00">mainwindow.cpp</text>
</a>
</g>
</g>
<!-- Node1&#45;&gt;Node4 -->
<g id="edge3_Node000001_Node000004" class="edge">
<title>Node1&#45;&gt;Node4</title>
<g id="a_edge3_Node000001_Node000004"><a xlink:title=" ">
<path fill="none" stroke="#63b8ff" d="M283.15,-124.16C289.54,-116.26 296.33,-106.27 300,-96 308.8,-71.36 307.37,-39.77 305.99,-24.72"/>
<polygon fill="#63b8ff" stroke="#63b8ff" points="280.42,-121.97 276.55,-131.83 285.73,-126.54 280.42,-121.97"/>
</a>
</g>
</g>
<!-- Node5 -->
<g id="Node000005" class="node">
<title>Node5</title>
<g id="a_Node000005"><a xlink:href="mainwindow_8h.html" target="_top" xlink:title=" ">
<polygon fill="white" stroke="#666666" points="464.5,-90.5 377.5,-90.5 377.5,-71.5 464.5,-71.5 464.5,-90.5"/>
<text text-anchor="middle" x="421" y="-78.5" font-family="Helvetica,sans-Serif" font-size="10.00">mainwindow.h</text>
</a>
</g>
</g>
<!-- Node1&#45;&gt;Node5 -->
<g id="edge4_Node000001_Node000005" class="edge">
<title>Node1&#45;&gt;Node5</title>
<g id="a_edge4_Node000001_Node000005"><a xlink:title=" ">
<path fill="none" stroke="#63b8ff" d="M299.7,-128.38C329.28,-117.07 372.65,-100.49 398.73,-90.52"/>
<polygon fill="#63b8ff" stroke="#63b8ff" points="298.34,-125.15 290.25,-131.99 300.84,-131.69 298.34,-125.15"/>
</a>
</g>
</g>
<!-- Node5&#45;&gt;Node4 -->
<g id="edge7_Node000005_Node000004" class="edge">
<title>Node5&#45;&gt;Node4</title>
<g id="a_edge7_Node000005_Node000004"><a xlink:title=" ">
<path fill="none" stroke="#63b8ff" d="M396.58,-66.53C373.73,-53.92 340.28,-35.47 320.77,-24.7"/>
<polygon fill="#63b8ff" stroke="#63b8ff" points="394.91,-69.6 405.36,-71.37 398.29,-63.47 394.91,-69.6"/>
</a>
</g>
</g>
<!-- Node6 -->
<g id="Node000006" class="node">
<title>Node6</title>
<g id="a_Node000006"><a xlink:href="moc__mainwindow_8cpp.html" target="_top" xlink:title=" ">
<polygon fill="white" stroke="#666666" points="500,-30 372,-30 372,0 500,0 500,-30"/>
<text text-anchor="start" x="380" y="-18" font-family="Helvetica,sans-Serif" font-size="10.00">build/Desktop&#45;Debug</text>
<text text-anchor="middle" x="436" y="-7" font-family="Helvetica,sans-Serif" font-size="10.00">/moc_mainwindow.cpp</text>
</a>
</g>
</g>
<!-- Node5&#45;&gt;Node6 -->
<g id="edge5_Node000005_Node000006" class="edge">
<title>Node5&#45;&gt;Node6</title>
<g id="a_edge5_Node000005_Node000006"><a xlink:title=" ">
<path fill="none" stroke="#63b8ff" d="M425.37,-61.35C427.69,-51.47 430.49,-39.51 432.63,-30.36"/>
<polygon fill="#63b8ff" stroke="#63b8ff" points="421.9,-60.83 423.02,-71.37 428.71,-62.43 421.9,-60.83"/>
</a>
</g>
</g>
<!-- Node7 -->
<g id="Node000007" class="node">
<title>Node7</title>
<g id="a_Node000007"><a xlink:href="main_8cpp.html" target="_top" xlink:title=" ">
<polygon fill="white" stroke="#666666" points="580,-24.5 518,-24.5 518,-5.5 580,-5.5 580,-24.5"/>
<text text-anchor="middle" x="549" y="-12.5" font-family="Helvetica,sans-Serif" font-size="10.00">main.cpp</text>
</a>
</g>
</g>
<!-- Node5&#45;&gt;Node7 -->
<g id="edge6_Node000005_Node000007" class="edge">
<title>Node5&#45;&gt;Node7</title>
<g id="a_edge6_Node000005_Node000007"><a xlink:title=" ">
<path fill="none" stroke="#63b8ff" d="M447.28,-66.86C472.5,-54.25 509.87,-35.56 531.6,-24.7"/>
<polygon fill="#63b8ff" stroke="#63b8ff" points="445.64,-63.77 438.26,-71.37 448.77,-70.03 445.64,-63.77"/>
</a>
</g>
</g>
</g>
</svg>
