<?xml version="1.0" encoding="UTF-8" standalone="no"?>
<!DOCTYPE svg PUBLIC "-//W3C//DTD SVG 1.1//EN"
 "http://www.w3.org/Graphics/SVG/1.1/DTD/svg11.dtd">
<!-- Generated by graphviz version 2.43.0 (0)
 -->
<!-- Title: analoguesdialog.h Pages: 1 -->
<svg width="406pt" height="93pt"
 viewBox="0.00 0.00 405.50 93.00" xmlns="http://www.w3.org/2000/svg" xmlns:xlink="http://www.w3.org/1999/xlink">
<g id="graph0" class="graph" transform="scale(1 1) rotate(0) translate(4 89)">
<title>analoguesdialog.h</title>
<!-- Node1 -->
<g id="Node000001" class="node">
<title>Node1</title>
<g id="a_Node000001"><a xlink:title=" ">
<polygon fill="#999999" stroke="#666666" points="261.5,-85 155.5,-85 155.5,-66 261.5,-66 261.5,-85"/>
<text text-anchor="middle" x="208.5" y="-73" font-family="Helvetica,sans-Serif" font-size="10.00">analoguesdialog.h</text>
</a>
</g>
</g>
<!-- Node2 -->
<g id="Node000002" class="node">
<title>Node2</title>
<g id="a_Node000002"><a xlink:href="analoguesdialog_8cpp.html" target="_top" xlink:title=" ">
<polygon fill="white" stroke="#666666" points="117,-24.5 0,-24.5 0,-5.5 117,-5.5 117,-24.5"/>
<text text-anchor="middle" x="58.5" y="-12.5" font-family="Helvetica,sans-Serif" font-size="10.00">analoguesdialog.cpp</text>
</a>
</g>
</g>
<!-- Node1&#45;&gt;Node2 -->
<g id="edge1_Node000001_Node000002" class="edge">
<title>Node1&#45;&gt;Node2</title>
<g id="a_edge1_Node000001_Node000002"><a xlink:title=" ">
<path fill="none" stroke="#63b8ff" d="M177.04,-62.23C148.05,-50.92 105.79,-34.44 80.34,-24.52"/>
<polygon fill="#63b8ff" stroke="#63b8ff" points="176.1,-65.62 186.69,-65.99 178.64,-59.1 176.1,-65.62"/>
</a>
</g>
</g>
<!-- Node3 -->
<g id="Node000003" class="node">
<title>Node3</title>
<g id="a_Node000003"><a xlink:href="moc__analoguesdialog_8cpp.html" target="_top" xlink:title=" ">
<polygon fill="white" stroke="#666666" points="281.5,-30 135.5,-30 135.5,0 281.5,0 281.5,-30"/>
<text text-anchor="start" x="143.5" y="-18" font-family="Helvetica,sans-Serif" font-size="10.00">build/Desktop&#45;Debug</text>
<text text-anchor="middle" x="208.5" y="-7" font-family="Helvetica,sans-Serif" font-size="10.00">/moc_analoguesdialog.cpp</text>
</a>
</g>
</g>
<!-- Node1&#45;&gt;Node3 -->
<g id="edge2_Node000001_Node000003" class="edge">
<title>Node1&#45;&gt;Node3</title>
<g id="a_edge2_Node000001_Node000003"><a xlink:title=" ">
<path fill="none" stroke="#63b8ff" d="M208.5,-55.65C208.5,-47.36 208.5,-37.78 208.5,-30.11"/>
<polygon fill="#63b8ff" stroke="#63b8ff" points="205,-55.87 208.5,-65.87 212,-55.87 205,-55.87"/>
</a>
</g>
</g>
<!-- Node4 -->
<g id="Node000004" class="node">
<title>Node4</title>
<g id="a_Node000004"><a xlink:href="mainwindow_8cpp.html" target="_top" xlink:title=" ">
<polygon fill="white" stroke="#666666" points="397.5,-24.5 299.5,-24.5 299.5,-5.5 397.5,-5.5 397.5,-24.5"/>
<text text-anchor="middle" x="348.5" y="-12.5" font-family="Helvetica,sans-Serif" font-size="10.00">mainwindow.cpp</text>
</a>
</g>
</g>
<!-- Node1&#45;&gt;Node4 -->
<g id="edge3_Node000001_Node000004" class="edge">
<title>Node1&#45;&gt;Node4</title>
<g id="a_edge3_Node000001_Node000004"><a xlink:title=" ">
<path fill="none" stroke="#63b8ff" d="M238.22,-62.08C265.26,-50.78 304.47,-34.4 328.12,-24.52"/>
<polygon fill="#63b8ff" stroke="#63b8ff" points="236.73,-58.91 228.86,-65.99 239.43,-65.37 236.73,-58.91"/>
</a>
</g>
</g>
</g>
</svg>
