<?xml version="1.0" encoding="UTF-8" standalone="no"?>
<!DOCTYPE svg PUBLIC "-//W3C//DTD SVG 1.1//EN"
 "http://www.w3.org/Graphics/SVG/1.1/DTD/svg11.dtd">
<!-- Generated by graphviz version 2.43.0 (0)
 -->
<!-- Title: MedicalProductException Pages: 1 -->
<svg width="810pt" height="138pt"
 viewBox="0.00 0.00 810.00 138.00" xmlns="http://www.w3.org/2000/svg" xmlns:xlink="http://www.w3.org/1999/xlink">
<g id="graph0" class="graph" transform="scale(1 1) rotate(0) translate(4 134)">
<title>MedicalProductException</title>
<!-- Node1 -->
<g id="Node000001" class="node">
<title>Node1</title>
<g id="a_Node000001"><a xlink:title=" ">
<polygon fill="#999999" stroke="#666666" points="429,-74 289,-74 289,-55 429,-55 429,-74"/>
<text text-anchor="middle" x="359" y="-62" font-family="Helvetica,sans-Serif" font-size="10.00">MedicalProductException</text>
</a>
</g>
</g>
<!-- Node4 -->
<g id="Node000004" class="node">
<title>Node4</title>
<g id="a_Node000004"><a xlink:href="classDuplicateProductException.html" target="_top" xlink:title=" ">
<polygon fill="white" stroke="#666666" points="618,-130 470,-130 470,-111 618,-111 618,-130"/>
<text text-anchor="middle" x="544" y="-118" font-family="Helvetica,sans-Serif" font-size="10.00">DuplicateProductException</text>
</a>
</g>
</g>
<!-- Node1&#45;&gt;Node4 -->
<g id="edge3_Node000001_Node000004" class="edge">
<title>Node1&#45;&gt;Node4</title>
<g id="a_edge3_Node000001_Node000004"><a xlink:title=" ">
<path fill="none" stroke="#63b8ff" d="M393.41,-77.76C413.87,-85.58 440.71,-95.33 465,-102.5 475.4,-105.57 486.7,-108.44 497.39,-110.95"/>
<polygon fill="#63b8ff" stroke="#63b8ff" points="394.5,-74.43 383.91,-74.09 391.98,-80.96 394.5,-74.43"/>
</a>
</g>
</g>
<!-- Node5 -->
<g id="Node000005" class="node">
<title>Node5</title>
<g id="a_Node000005"><a xlink:href="classExpiredProductException.html" target="_top" xlink:title=" ">
<polygon fill="white" stroke="#666666" points="613,-93 475,-93 475,-74 613,-74 613,-93"/>
<text text-anchor="middle" x="544" y="-81" font-family="Helvetica,sans-Serif" font-size="10.00">ExpiredProductException</text>
</a>
</g>
</g>
<!-- Node1&#45;&gt;Node5 -->
<g id="edge4_Node000001_Node000005" class="edge">
<title>Node1&#45;&gt;Node5</title>
<g id="a_edge4_Node000001_Node000005"><a xlink:title=" ">
<path fill="none" stroke="#63b8ff" d="M439.48,-72.75C451.29,-73.98 463.38,-75.23 474.93,-76.43"/>
<polygon fill="#63b8ff" stroke="#63b8ff" points="439.49,-69.23 429.18,-71.68 438.77,-76.2 439.49,-69.23"/>
</a>
</g>
</g>
<!-- Node6 -->
<g id="Node000006" class="node">
<title>Node6</title>
<g id="a_Node000006"><a xlink:href="classInvalidProductDataException.html" target="_top" xlink:title=" ">
<polygon fill="white" stroke="#666666" points="623,-56 465,-56 465,-37 623,-37 623,-56"/>
<text text-anchor="middle" x="544" y="-44" font-family="Helvetica,sans-Serif" font-size="10.00">InvalidProductDataException</text>
</a>
</g>
</g>
<!-- Node1&#45;&gt;Node6 -->
<g id="edge5_Node000001_Node000006" class="edge">
<title>Node1&#45;&gt;Node6</title>
<g id="a_edge5_Node000001_Node000006"><a xlink:title=" ">
<path fill="none" stroke="#63b8ff" d="M439.39,-56.69C447.82,-55.86 456.4,-55.02 464.83,-54.19"/>
<polygon fill="#63b8ff" stroke="#63b8ff" points="438.79,-53.23 429.18,-57.69 439.48,-60.2 438.79,-53.23"/>
</a>
</g>
</g>
<!-- Node9 -->
<g id="Node000009" class="node">
<title>Node9</title>
<g id="a_Node000009"><a xlink:href="classProductNotFoundException.html" target="_top" xlink:title=" ">
<polygon fill="white" stroke="#666666" points="618,-19 470,-19 470,0 618,0 618,-19"/>
<text text-anchor="middle" x="544" y="-7" font-family="Helvetica,sans-Serif" font-size="10.00">ProductNotFoundException</text>
</a>
</g>
</g>
<!-- Node1&#45;&gt;Node9 -->
<g id="edge8_Node000001_Node000009" class="edge">
<title>Node1&#45;&gt;Node9</title>
<g id="a_edge8_Node000001_Node000009"><a xlink:title=" ">
<path fill="none" stroke="#63b8ff" d="M394.25,-51.34C414.62,-43.78 441.07,-34.45 465,-27.5 475.54,-24.44 487.01,-21.55 497.82,-19.02"/>
<polygon fill="#63b8ff" stroke="#63b8ff" points="392.92,-48.1 384.78,-54.88 395.37,-54.66 392.92,-48.1"/>
</a>
</g>
</g>
<!-- Node2 -->
<g id="Node000002" class="node">
<title>Node2</title>
<g id="a_Node000002"><a xlink:href="classPharmacyException.html" target="_top" xlink:title=" ">
<polygon fill="white" stroke="#666666" points="253,-74 140,-74 140,-55 253,-55 253,-74"/>
<text text-anchor="middle" x="196.5" y="-62" font-family="Helvetica,sans-Serif" font-size="10.00">PharmacyException</text>
</a>
</g>
</g>
<!-- Node2&#45;&gt;Node1 -->
<g id="edge1_Node000001_Node000002" class="edge">
<title>Node2&#45;&gt;Node1</title>
<g id="a_edge1_Node000001_Node000002"><a xlink:title=" ">
<path fill="none" stroke="#63b8ff" d="M263.32,-64.5C271.73,-64.5 280.37,-64.5 288.84,-64.5"/>
<polygon fill="#63b8ff" stroke="#63b8ff" points="263.18,-61 253.18,-64.5 263.18,-68 263.18,-61"/>
</a>
</g>
</g>
<!-- Node3 -->
<g id="Node000003" class="node">
<title>Node3</title>
<g id="a_Node000003"><a xlink:title=" ">
<polygon fill="white" stroke="#666666" points="104,-74 0,-74 0,-55 104,-55 104,-74"/>
<text text-anchor="middle" x="52" y="-62" font-family="Helvetica,sans-Serif" font-size="10.00">std::runtime_error</text>
</a>
</g>
</g>
<!-- Node3&#45;&gt;Node2 -->
<g id="edge2_Node000002_Node000003" class="edge">
<title>Node3&#45;&gt;Node2</title>
<g id="a_edge2_Node000002_Node000003"><a xlink:title=" ">
<path fill="none" stroke="#63b8ff" d="M114.32,-64.5C122.85,-64.5 131.57,-64.5 139.99,-64.5"/>
<polygon fill="#63b8ff" stroke="#63b8ff" points="114.04,-61 104.04,-64.5 114.04,-68 114.04,-61"/>
</a>
</g>
</g>
<!-- Node7 -->
<g id="Node000007" class="node">
<title>Node7</title>
<g id="a_Node000007"><a xlink:href="classInvalidPriceException.html" target="_top" xlink:title=" ">
<polygon fill="white" stroke="#666666" points="791.5,-74 669.5,-74 669.5,-55 791.5,-55 791.5,-74"/>
<text text-anchor="middle" x="730.5" y="-62" font-family="Helvetica,sans-Serif" font-size="10.00">InvalidPriceException</text>
</a>
</g>
</g>
<!-- Node6&#45;&gt;Node7 -->
<g id="edge6_Node000006_Node000007" class="edge">
<title>Node6&#45;&gt;Node7</title>
<g id="a_edge6_Node000006_Node000007"><a xlink:title=" ">
<path fill="none" stroke="#63b8ff" d="M633.42,-55.13C645.58,-56.31 657.84,-57.51 669.33,-58.63"/>
<polygon fill="#63b8ff" stroke="#63b8ff" points="633.54,-51.62 623.24,-54.13 632.86,-58.59 633.54,-51.62"/>
</a>
</g>
</g>
<!-- Node8 -->
<g id="Node000008" class="node">
<title>Node8</title>
<g id="a_Node000008"><a xlink:href="classInvalidProductIdException.html" target="_top" xlink:title=" ">
<polygon fill="white" stroke="#666666" points="802,-37 659,-37 659,-18 802,-18 802,-37"/>
<text text-anchor="middle" x="730.5" y="-25" font-family="Helvetica,sans-Serif" font-size="10.00">InvalidProductIdException</text>
</a>
</g>
</g>
<!-- Node6&#45;&gt;Node8 -->
<g id="edge7_Node000006_Node000008" class="edge">
<title>Node6&#45;&gt;Node8</title>
<g id="a_edge7_Node000006_Node000008"><a xlink:title=" ">
<path fill="none" stroke="#63b8ff" d="M633.25,-37.41C641.8,-36.53 650.4,-35.65 658.74,-34.79"/>
<polygon fill="#63b8ff" stroke="#63b8ff" points="632.83,-33.94 623.24,-38.44 633.55,-40.9 632.83,-33.94"/>
</a>
</g>
</g>
</g>
</svg>
