<?xml version="1.0" encoding="UTF-8" standalone="no"?>
<!DOCTYPE svg PUBLIC "-//W3C//DTD SVG 1.1//EN"
 "http://www.w3.org/Graphics/SVG/1.1/DTD/svg11.dtd">
<!-- Generated by graphviz version 2.43.0 (0)
 -->
<!-- Title: FileWriteException Pages: 1 -->
<svg width="138pt" height="192pt"
 viewBox="0.00 0.00 138.00 192.00" xmlns="http://www.w3.org/2000/svg" xmlns:xlink="http://www.w3.org/1999/xlink">
<g id="graph0" class="graph" transform="scale(1 1) rotate(0) translate(4 188)">
<title>FileWriteException</title>
<!-- Node1 -->
<g id="Node000001" class="node">
<title>Node1</title>
<g id="a_Node000001"><a xlink:title=" ">
<polygon fill="#999999" stroke="#666666" points="119,-19 11,-19 11,0 119,0 119,-19"/>
<text text-anchor="middle" x="65" y="-7" font-family="Helvetica,sans-Serif" font-size="10.00">FileWriteException</text>
</a>
</g>
</g>
<!-- Node2 -->
<g id="Node000002" class="node">
<title>Node2</title>
<g id="a_Node000002"><a xlink:href="classFileOperationException.html" target="_top" xlink:title=" ">
<polygon fill="white" stroke="#666666" points="130,-74 0,-74 0,-55 130,-55 130,-74"/>
<text text-anchor="middle" x="65" y="-62" font-family="Helvetica,sans-Serif" font-size="10.00">FileOperationException</text>
</a>
</g>
</g>
<!-- Node2&#45;&gt;Node1 -->
<g id="edge1_Node000001_Node000002" class="edge">
<title>Node2&#45;&gt;Node1</title>
<g id="a_edge1_Node000001_Node000002"><a xlink:title=" ">
<path fill="none" stroke="#63b8ff" d="M65,-44.66C65,-35.93 65,-25.99 65,-19.09"/>
<polygon fill="#63b8ff" stroke="#63b8ff" points="61.5,-44.75 65,-54.75 68.5,-44.75 61.5,-44.75"/>
</a>
</g>
</g>
<!-- Node3 -->
<g id="Node000003" class="node">
<title>Node3</title>
<g id="a_Node000003"><a xlink:href="classPharmacyException.html" target="_top" xlink:title=" ">
<polygon fill="white" stroke="#666666" points="121.5,-129 8.5,-129 8.5,-110 121.5,-110 121.5,-129"/>
<text text-anchor="middle" x="65" y="-117" font-family="Helvetica,sans-Serif" font-size="10.00">PharmacyException</text>
</a>
</g>
</g>
<!-- Node3&#45;&gt;Node2 -->
<g id="edge2_Node000002_Node000003" class="edge">
<title>Node3&#45;&gt;Node2</title>
<g id="a_edge2_Node000002_Node000003"><a xlink:title=" ">
<path fill="none" stroke="#63b8ff" d="M65,-99.66C65,-90.93 65,-80.99 65,-74.09"/>
<polygon fill="#63b8ff" stroke="#63b8ff" points="61.5,-99.75 65,-109.75 68.5,-99.75 61.5,-99.75"/>
</a>
</g>
</g>
<!-- Node4 -->
<g id="Node000004" class="node">
<title>Node4</title>
<g id="a_Node000004"><a xlink:title=" ">
<polygon fill="white" stroke="#666666" points="117,-184 13,-184 13,-165 117,-165 117,-184"/>
<text text-anchor="middle" x="65" y="-172" font-family="Helvetica,sans-Serif" font-size="10.00">std::runtime_error</text>
</a>
</g>
</g>
<!-- Node4&#45;&gt;Node3 -->
<g id="edge3_Node000003_Node000004" class="edge">
<title>Node4&#45;&gt;Node3</title>
<g id="a_edge3_Node000003_Node000004"><a xlink:title=" ">
<path fill="none" stroke="#63b8ff" d="M65,-154.66C65,-145.93 65,-135.99 65,-129.09"/>
<polygon fill="#63b8ff" stroke="#63b8ff" points="61.5,-154.75 65,-164.75 68.5,-154.75 61.5,-154.75"/>
</a>
</g>
</g>
</g>
</svg>
