<?xml version="1.0" encoding="UTF-8" standalone="no"?>
<!DOCTYPE svg PUBLIC "-//W3C//DTD SVG 1.1//EN"
 "http://www.w3.org/Graphics/SVG/1.1/DTD/svg11.dtd">
<!-- Generated by graphviz version 2.43.0 (0)
 -->
<!-- Title: InventoryException Pages: 1 -->
<svg width="507pt" height="192pt"
 viewBox="0.00 0.00 506.50 192.00" xmlns="http://www.w3.org/2000/svg" xmlns:xlink="http://www.w3.org/1999/xlink">
<g id="graph0" class="graph" transform="scale(1 1) rotate(0) translate(4 188)">
<title>InventoryException</title>
<!-- Node1 -->
<g id="Node000001" class="node">
<title>Node1</title>
<g id="a_Node000001"><a xlink:title=" ">
<polygon fill="#999999" stroke="#666666" points="310,-74 199,-74 199,-55 310,-55 310,-74"/>
<text text-anchor="middle" x="254.5" y="-62" font-family="Helvetica,sans-Serif" font-size="10.00">InventoryException</text>
</a>
</g>
</g>
<!-- Node4 -->
<g id="Node000004" class="node">
<title>Node4</title>
<g id="a_Node000004"><a xlink:href="classInsufficientQuantityException.html" target="_top" xlink:title=" ">
<polygon fill="white" stroke="#666666" points="161,-19 0,-19 0,0 161,0 161,-19"/>
<text text-anchor="middle" x="80.5" y="-7" font-family="Helvetica,sans-Serif" font-size="10.00">InsufficientQuantityException</text>
</a>
</g>
</g>
<!-- Node1&#45;&gt;Node4 -->
<g id="edge3_Node000001_Node000004" class="edge">
<title>Node1&#45;&gt;Node4</title>
<g id="a_edge3_Node000001_Node000004"><a xlink:title=" ">
<path fill="none" stroke="#63b8ff" d="M216.93,-52.06C184.41,-42.15 138.1,-28.04 108.68,-19.08"/>
<polygon fill="#63b8ff" stroke="#63b8ff" points="215.96,-55.42 226.54,-54.98 218,-48.72 215.96,-55.42"/>
</a>
</g>
</g>
<!-- Node5 -->
<g id="Node000005" class="node">
<title>Node5</title>
<g id="a_Node000005"><a xlink:href="classNegativeQuantityException.html" target="_top" xlink:title=" ">
<polygon fill="white" stroke="#666666" points="330,-19 179,-19 179,0 330,0 330,-19"/>
<text text-anchor="middle" x="254.5" y="-7" font-family="Helvetica,sans-Serif" font-size="10.00">NegativeQuantityException</text>
</a>
</g>
</g>
<!-- Node1&#45;&gt;Node5 -->
<g id="edge4_Node000001_Node000005" class="edge">
<title>Node1&#45;&gt;Node5</title>
<g id="a_edge4_Node000001_Node000005"><a xlink:title=" ">
<path fill="none" stroke="#63b8ff" d="M254.5,-44.66C254.5,-35.93 254.5,-25.99 254.5,-19.09"/>
<polygon fill="#63b8ff" stroke="#63b8ff" points="251,-44.75 254.5,-54.75 258,-44.75 251,-44.75"/>
</a>
</g>
</g>
<!-- Node6 -->
<g id="Node000006" class="node">
<title>Node6</title>
<g id="a_Node000006"><a xlink:href="classStorageOperationException.html" target="_top" xlink:title=" ">
<polygon fill="white" stroke="#666666" points="498.5,-19 348.5,-19 348.5,0 498.5,0 498.5,-19"/>
<text text-anchor="middle" x="423.5" y="-7" font-family="Helvetica,sans-Serif" font-size="10.00">StorageOperationException</text>
</a>
</g>
</g>
<!-- Node1&#45;&gt;Node6 -->
<g id="edge5_Node000001_Node000006" class="edge">
<title>Node1&#45;&gt;Node6</title>
<g id="a_edge5_Node000001_Node000006"><a xlink:title=" ">
<path fill="none" stroke="#63b8ff" d="M291.4,-51.93C322.97,-42.03 367.68,-28.01 396.13,-19.08"/>
<polygon fill="#63b8ff" stroke="#63b8ff" points="290.15,-48.65 281.65,-54.98 292.24,-55.33 290.15,-48.65"/>
</a>
</g>
</g>
<!-- Node2 -->
<g id="Node000002" class="node">
<title>Node2</title>
<g id="a_Node000002"><a xlink:href="classPharmacyException.html" target="_top" xlink:title=" ">
<polygon fill="white" stroke="#666666" points="311,-129 198,-129 198,-110 311,-110 311,-129"/>
<text text-anchor="middle" x="254.5" y="-117" font-family="Helvetica,sans-Serif" font-size="10.00">PharmacyException</text>
</a>
</g>
</g>
<!-- Node2&#45;&gt;Node1 -->
<g id="edge1_Node000001_Node000002" class="edge">
<title>Node2&#45;&gt;Node1</title>
<g id="a_edge1_Node000001_Node000002"><a xlink:title=" ">
<path fill="none" stroke="#63b8ff" d="M254.5,-99.66C254.5,-90.93 254.5,-80.99 254.5,-74.09"/>
<polygon fill="#63b8ff" stroke="#63b8ff" points="251,-99.75 254.5,-109.75 258,-99.75 251,-99.75"/>
</a>
</g>
</g>
<!-- Node3 -->
<g id="Node000003" class="node">
<title>Node3</title>
<g id="a_Node000003"><a xlink:title=" ">
<polygon fill="white" stroke="#666666" points="306.5,-184 202.5,-184 202.5,-165 306.5,-165 306.5,-184"/>
<text text-anchor="middle" x="254.5" y="-172" font-family="Helvetica,sans-Serif" font-size="10.00">std::runtime_error</text>
</a>
</g>
</g>
<!-- Node3&#45;&gt;Node2 -->
<g id="edge2_Node000002_Node000003" class="edge">
<title>Node3&#45;&gt;Node2</title>
<g id="a_edge2_Node000002_Node000003"><a xlink:title=" ">
<path fill="none" stroke="#63b8ff" d="M254.5,-154.66C254.5,-145.93 254.5,-135.99 254.5,-129.09"/>
<polygon fill="#63b8ff" stroke="#63b8ff" points="251,-154.75 254.5,-164.75 258,-154.75 251,-154.75"/>
</a>
</g>
</g>
</g>
</svg>
