<?xml version="1.0" encoding="UTF-8" standalone="no"?>
<!DOCTYPE svg PUBLIC "-//W3C//DTD SVG 1.1//EN"
 "http://www.w3.org/Graphics/SVG/1.1/DTD/svg11.dtd">
<!-- Generated by graphviz version 2.43.0 (0)
 -->
<!-- Title: InvalidProductDataException Pages: 1 -->
<svg width="292pt" height="247pt"
 viewBox="0.00 0.00 291.50 247.00" xmlns="http://www.w3.org/2000/svg" xmlns:xlink="http://www.w3.org/1999/xlink">
<g id="graph0" class="graph" transform="scale(1 1) rotate(0) translate(4 243)">
<title>InvalidProductDataException</title>
<!-- Node1 -->
<g id="Node000001" class="node">
<title>Node1</title>
<g id="a_Node000001"><a xlink:title=" ">
<polygon fill="#999999" stroke="#666666" points="215,-74 57,-74 57,-55 215,-55 215,-74"/>
<text text-anchor="middle" x="136" y="-62" font-family="Helvetica,sans-Serif" font-size="10.00">InvalidProductDataException</text>
</a>
</g>
</g>
<!-- Node5 -->
<g id="Node000005" class="node">
<title>Node5</title>
<g id="a_Node000005"><a xlink:href="classInvalidPriceException.html" target="_top" xlink:title=" ">
<polygon fill="white" stroke="#666666" points="122,-19 0,-19 0,0 122,0 122,-19"/>
<text text-anchor="middle" x="61" y="-7" font-family="Helvetica,sans-Serif" font-size="10.00">InvalidPriceException</text>
</a>
</g>
</g>
<!-- Node1&#45;&gt;Node5 -->
<g id="edge4_Node000001_Node000005" class="edge">
<title>Node1&#45;&gt;Node5</title>
<g id="a_edge4_Node000001_Node000005"><a xlink:title=" ">
<path fill="none" stroke="#63b8ff" d="M115.69,-49.15C102.14,-39.57 84.76,-27.29 73.27,-19.17"/>
<polygon fill="#63b8ff" stroke="#63b8ff" points="113.76,-52.07 123.95,-54.98 117.8,-46.36 113.76,-52.07"/>
</a>
</g>
</g>
<!-- Node6 -->
<g id="Node000006" class="node">
<title>Node6</title>
<g id="a_Node000006"><a xlink:href="classInvalidProductIdException.html" target="_top" xlink:title=" ">
<polygon fill="white" stroke="#666666" points="283.5,-19 140.5,-19 140.5,0 283.5,0 283.5,-19"/>
<text text-anchor="middle" x="212" y="-7" font-family="Helvetica,sans-Serif" font-size="10.00">InvalidProductIdException</text>
</a>
</g>
</g>
<!-- Node1&#45;&gt;Node6 -->
<g id="edge5_Node000001_Node000006" class="edge">
<title>Node1&#45;&gt;Node6</title>
<g id="a_edge5_Node000001_Node000006"><a xlink:title=" ">
<path fill="none" stroke="#63b8ff" d="M156.58,-49.15C170.31,-39.57 187.93,-27.29 199.57,-19.17"/>
<polygon fill="#63b8ff" stroke="#63b8ff" points="154.41,-46.39 148.21,-54.98 158.42,-52.14 154.41,-46.39"/>
</a>
</g>
</g>
<!-- Node2 -->
<g id="Node000002" class="node">
<title>Node2</title>
<g id="a_Node000002"><a xlink:href="classMedicalProductException.html" target="_top" xlink:title=" ">
<polygon fill="white" stroke="#666666" points="206,-129 66,-129 66,-110 206,-110 206,-129"/>
<text text-anchor="middle" x="136" y="-117" font-family="Helvetica,sans-Serif" font-size="10.00">MedicalProductException</text>
</a>
</g>
</g>
<!-- Node2&#45;&gt;Node1 -->
<g id="edge1_Node000001_Node000002" class="edge">
<title>Node2&#45;&gt;Node1</title>
<g id="a_edge1_Node000001_Node000002"><a xlink:title=" ">
<path fill="none" stroke="#63b8ff" d="M136,-99.66C136,-90.93 136,-80.99 136,-74.09"/>
<polygon fill="#63b8ff" stroke="#63b8ff" points="132.5,-99.75 136,-109.75 139.5,-99.75 132.5,-99.75"/>
</a>
</g>
</g>
<!-- Node3 -->
<g id="Node000003" class="node">
<title>Node3</title>
<g id="a_Node000003"><a xlink:href="classPharmacyException.html" target="_top" xlink:title=" ">
<polygon fill="white" stroke="#666666" points="192.5,-184 79.5,-184 79.5,-165 192.5,-165 192.5,-184"/>
<text text-anchor="middle" x="136" y="-172" font-family="Helvetica,sans-Serif" font-size="10.00">PharmacyException</text>
</a>
</g>
</g>
<!-- Node3&#45;&gt;Node2 -->
<g id="edge2_Node000002_Node000003" class="edge">
<title>Node3&#45;&gt;Node2</title>
<g id="a_edge2_Node000002_Node000003"><a xlink:title=" ">
<path fill="none" stroke="#63b8ff" d="M136,-154.66C136,-145.93 136,-135.99 136,-129.09"/>
<polygon fill="#63b8ff" stroke="#63b8ff" points="132.5,-154.75 136,-164.75 139.5,-154.75 132.5,-154.75"/>
</a>
</g>
</g>
<!-- Node4 -->
<g id="Node000004" class="node">
<title>Node4</title>
<g id="a_Node000004"><a xlink:title=" ">
<polygon fill="white" stroke="#666666" points="188,-239 84,-239 84,-220 188,-220 188,-239"/>
<text text-anchor="middle" x="136" y="-227" font-family="Helvetica,sans-Serif" font-size="10.00">std::runtime_error</text>
</a>
</g>
</g>
<!-- Node4&#45;&gt;Node3 -->
<g id="edge3_Node000003_Node000004" class="edge">
<title>Node4&#45;&gt;Node3</title>
<g id="a_edge3_Node000003_Node000004"><a xlink:title=" ">
<path fill="none" stroke="#63b8ff" d="M136,-209.66C136,-200.93 136,-190.99 136,-184.09"/>
<polygon fill="#63b8ff" stroke="#63b8ff" points="132.5,-209.75 136,-219.75 139.5,-209.75 132.5,-209.75"/>
</a>
</g>
</g>
</g>
</svg>
