<?xml version="1.0" encoding="UTF-8" standalone="no"?>
<!DOCTYPE svg PUBLIC "-//W3C//DTD SVG 1.1//EN"
 "http://www.w3.org/Graphics/SVG/1.1/DTD/svg11.dtd">
<!-- Generated by graphviz version 2.43.0 (0)
 -->
<!-- Title: FileOperationException Pages: 1 -->
<svg width="532pt" height="192pt"
 viewBox="0.00 0.00 531.50 192.00" xmlns="http://www.w3.org/2000/svg" xmlns:xlink="http://www.w3.org/1999/xlink">
<g id="graph0" class="graph" transform="scale(1 1) rotate(0) translate(4 188)">
<title>FileOperationException</title>
<!-- Node1 -->
<g id="Node000001" class="node">
<title>Node1</title>
<g id="a_Node000001"><a xlink:title=" ">
<polygon fill="#999999" stroke="#666666" points="328,-74 198,-74 198,-55 328,-55 328,-74"/>
<text text-anchor="middle" x="263" y="-62" font-family="Helvetica,sans-Serif" font-size="10.00">FileOperationException</text>
</a>
</g>
</g>
<!-- Node4 -->
<g id="Node000004" class="node">
<title>Node4</title>
<g id="a_Node000004"><a xlink:href="classFileNotFoundException.html" target="_top" xlink:title=" ">
<polygon fill="white" stroke="#666666" points="128,-19 0,-19 0,0 128,0 128,-19"/>
<text text-anchor="middle" x="64" y="-7" font-family="Helvetica,sans-Serif" font-size="10.00">FileNotFoundException</text>
</a>
</g>
</g>
<!-- Node1&#45;&gt;Node4 -->
<g id="edge3_Node000001_Node000004" class="edge">
<title>Node1&#45;&gt;Node4</title>
<g id="a_edge3_Node000001_Node000004"><a xlink:title=" ">
<path fill="none" stroke="#63b8ff" d="M220.99,-52.31C183.75,-42.39 130.16,-28.12 96.22,-19.08"/>
<polygon fill="#63b8ff" stroke="#63b8ff" points="220.46,-55.79 231.03,-54.98 222.26,-49.03 220.46,-55.79"/>
</a>
</g>
</g>
<!-- Node5 -->
<g id="Node000005" class="node">
<title>Node5</title>
<g id="a_Node000005"><a xlink:href="classFileParseException.html" target="_top" xlink:title=" ">
<polygon fill="white" stroke="#666666" points="254,-19 146,-19 146,0 254,0 254,-19"/>
<text text-anchor="middle" x="200" y="-7" font-family="Helvetica,sans-Serif" font-size="10.00">FileParseException</text>
</a>
</g>
</g>
<!-- Node1&#45;&gt;Node5 -->
<g id="edge4_Node000001_Node000005" class="edge">
<title>Node1&#45;&gt;Node5</title>
<g id="a_edge4_Node000001_Node000005"><a xlink:title=" ">
<path fill="none" stroke="#63b8ff" d="M244.96,-48.32C233.73,-38.87 219.68,-27.06 210.31,-19.17"/>
<polygon fill="#63b8ff" stroke="#63b8ff" points="242.97,-51.23 252.88,-54.98 247.48,-45.87 242.97,-51.23"/>
</a>
</g>
</g>
<!-- Node6 -->
<g id="Node000006" class="node">
<title>Node6</title>
<g id="a_Node000006"><a xlink:href="classFileWriteException.html" target="_top" xlink:title=" ">
<polygon fill="white" stroke="#666666" points="380,-19 272,-19 272,0 380,0 380,-19"/>
<text text-anchor="middle" x="326" y="-7" font-family="Helvetica,sans-Serif" font-size="10.00">FileWriteException</text>
</a>
</g>
</g>
<!-- Node1&#45;&gt;Node6 -->
<g id="edge5_Node000001_Node000006" class="edge">
<title>Node1&#45;&gt;Node6</title>
<g id="a_edge5_Node000001_Node000006"><a xlink:title=" ">
<path fill="none" stroke="#63b8ff" d="M281.04,-48.32C292.27,-38.87 306.32,-27.06 315.69,-19.17"/>
<polygon fill="#63b8ff" stroke="#63b8ff" points="278.52,-45.87 273.12,-54.98 283.03,-51.23 278.52,-45.87"/>
</a>
</g>
</g>
<!-- Node7 -->
<g id="Node000007" class="node">
<title>Node7</title>
<g id="a_Node000007"><a xlink:href="classSerializationException.html" target="_top" xlink:title=" ">
<polygon fill="white" stroke="#666666" points="523.5,-19 398.5,-19 398.5,0 523.5,0 523.5,-19"/>
<text text-anchor="middle" x="461" y="-7" font-family="Helvetica,sans-Serif" font-size="10.00">SerializationException</text>
</a>
</g>
</g>
<!-- Node1&#45;&gt;Node7 -->
<g id="edge6_Node000001_Node000007" class="edge">
<title>Node1&#45;&gt;Node7</title>
<g id="a_edge6_Node000001_Node000007"><a xlink:title=" ">
<path fill="none" stroke="#63b8ff" d="M304.8,-52.31C341.85,-42.39 395.17,-28.12 428.94,-19.08"/>
<polygon fill="#63b8ff" stroke="#63b8ff" points="303.57,-49.02 294.81,-54.98 305.38,-55.78 303.57,-49.02"/>
</a>
</g>
</g>
<!-- Node2 -->
<g id="Node000002" class="node">
<title>Node2</title>
<g id="a_Node000002"><a xlink:href="classPharmacyException.html" target="_top" xlink:title=" ">
<polygon fill="white" stroke="#666666" points="319.5,-129 206.5,-129 206.5,-110 319.5,-110 319.5,-129"/>
<text text-anchor="middle" x="263" y="-117" font-family="Helvetica,sans-Serif" font-size="10.00">PharmacyException</text>
</a>
</g>
</g>
<!-- Node2&#45;&gt;Node1 -->
<g id="edge1_Node000001_Node000002" class="edge">
<title>Node2&#45;&gt;Node1</title>
<g id="a_edge1_Node000001_Node000002"><a xlink:title=" ">
<path fill="none" stroke="#63b8ff" d="M263,-99.66C263,-90.93 263,-80.99 263,-74.09"/>
<polygon fill="#63b8ff" stroke="#63b8ff" points="259.5,-99.75 263,-109.75 266.5,-99.75 259.5,-99.75"/>
</a>
</g>
</g>
<!-- Node3 -->
<g id="Node000003" class="node">
<title>Node3</title>
<g id="a_Node000003"><a xlink:title=" ">
<polygon fill="white" stroke="#666666" points="315,-184 211,-184 211,-165 315,-165 315,-184"/>
<text text-anchor="middle" x="263" y="-172" font-family="Helvetica,sans-Serif" font-size="10.00">std::runtime_error</text>
</a>
</g>
</g>
<!-- Node3&#45;&gt;Node2 -->
<g id="edge2_Node000002_Node000003" class="edge">
<title>Node3&#45;&gt;Node2</title>
<g id="a_edge2_Node000002_Node000003"><a xlink:title=" ">
<path fill="none" stroke="#63b8ff" d="M263,-154.66C263,-145.93 263,-135.99 263,-129.09"/>
<polygon fill="#63b8ff" stroke="#63b8ff" points="259.5,-154.75 263,-164.75 266.5,-154.75 259.5,-154.75"/>
</a>
</g>
</g>
</g>
</svg>
