<?xml version="1.0" encoding="UTF-8" standalone="no"?>
<!DOCTYPE svg PUBLIC "-//W3C//DTD SVG 1.1//EN"
 "http://www.w3.org/Graphics/SVG/1.1/DTD/svg11.dtd">
<!-- Generated by graphviz version 2.43.0 (0)
 -->
<!-- Title: ExpiredProductException Pages: 1 -->
<svg width="259pt" height="205pt"
 viewBox="0.00 0.00 259.00 205.00" xmlns="http://www.w3.org/2000/svg" xmlns:xlink="http://www.w3.org/1999/xlink">
<g id="graph0" class="graph" transform="scale(1 1) rotate(0) translate(4 201)">
<title>ExpiredProductException</title>
<!-- Node1 -->
<g id="Node000001" class="node">
<title>Node1</title>
<g id="a_Node000001"><a xlink:title=" ">
<polygon fill="#999999" stroke="#666666" points="228,-19 90,-19 90,0 228,0 228,-19"/>
<text text-anchor="middle" x="159" y="-7" font-family="Helvetica,sans-Serif" font-size="10.00">ExpiredProductException</text>
</a>
</g>
</g>
<!-- Node2 -->
<g id="Node000002" class="node">
<title>Node2</title>
<g id="a_Node000002"><a xlink:href="classMedicalProductException.html" target="_top" xlink:title=" ">
<polygon fill="white" stroke="#666666" points="140,-85 0,-85 0,-66 140,-66 140,-85"/>
<text text-anchor="middle" x="70" y="-73" font-family="Helvetica,sans-Serif" font-size="10.00">MedicalProductException</text>
</a>
</g>
</g>
<!-- Node2&#45;&gt;Node1 -->
<g id="edge1_Node000001_Node000002" class="edge">
<title>Node2&#45;&gt;Node1</title>
<g id="a_edge1_Node000001_Node000002"><a xlink:title=" ">
<path fill="none" stroke="#63b8ff" d="M90.39,-59.83C107.85,-47.28 132.39,-29.63 146.9,-19.2"/>
<polygon fill="#63b8ff" stroke="#63b8ff" points="88.08,-57.19 82,-65.87 92.17,-62.87 88.08,-57.19"/>
</a>
</g>
</g>
<!-- Node3 -->
<g id="Node000003" class="node">
<title>Node3</title>
<g id="a_Node000003"><a xlink:href="classPharmacyException.html" target="_top" xlink:title=" ">
<polygon fill="white" stroke="#666666" points="126.5,-141 13.5,-141 13.5,-122 126.5,-122 126.5,-141"/>
<text text-anchor="middle" x="70" y="-129" font-family="Helvetica,sans-Serif" font-size="10.00">PharmacyException</text>
</a>
</g>
</g>
<!-- Node3&#45;&gt;Node2 -->
<g id="edge2_Node000002_Node000003" class="edge">
<title>Node3&#45;&gt;Node2</title>
<g id="a_edge2_Node000002_Node000003"><a xlink:title=" ">
<path fill="none" stroke="#63b8ff" d="M70,-111.3C70,-102.41 70,-92.28 70,-85.25"/>
<polygon fill="#63b8ff" stroke="#63b8ff" points="66.5,-111.58 70,-121.58 73.5,-111.58 66.5,-111.58"/>
</a>
</g>
</g>
<!-- Node4 -->
<g id="Node000004" class="node">
<title>Node4</title>
<g id="a_Node000004"><a xlink:title=" ">
<polygon fill="white" stroke="#666666" points="122,-197 18,-197 18,-178 122,-178 122,-197"/>
<text text-anchor="middle" x="70" y="-185" font-family="Helvetica,sans-Serif" font-size="10.00">std::runtime_error</text>
</a>
</g>
</g>
<!-- Node4&#45;&gt;Node3 -->
<g id="edge3_Node000003_Node000004" class="edge">
<title>Node4&#45;&gt;Node3</title>
<g id="a_edge3_Node000003_Node000004"><a xlink:title=" ">
<path fill="none" stroke="#63b8ff" d="M70,-167.3C70,-158.41 70,-148.28 70,-141.25"/>
<polygon fill="#63b8ff" stroke="#63b8ff" points="66.5,-167.58 70,-177.58 73.5,-167.58 66.5,-167.58"/>
</a>
</g>
</g>
<!-- Node5 -->
<g id="Node000005" class="node">
<title>Node5</title>
<g id="a_Node000005"><a xlink:href="classSafeDate.html" target="_top" xlink:title=" ">
<polygon fill="white" stroke="#666666" points="220,-85 158,-85 158,-66 220,-66 220,-85"/>
<text text-anchor="middle" x="189" y="-73" font-family="Helvetica,sans-Serif" font-size="10.00">SafeDate</text>
</a>
</g>
</g>
<!-- Node5&#45;&gt;Node1 -->
<g id="edge4_Node000001_Node000005" class="edge">
<title>Node5&#45;&gt;Node1</title>
<g id="a_edge4_Node000001_Node000005"><a xlink:title=" ">
<path fill="none" stroke="#9a32cd" stroke-dasharray="5,2" d="M180.65,-56.68C174.96,-44.55 167.68,-29.01 163.17,-19.41"/>
<polygon fill="#9a32cd" stroke="#9a32cd" points="177.54,-58.3 184.95,-65.87 183.88,-55.33 177.54,-58.3"/>
</a>
</g>
<text text-anchor="middle" x="213" y="-40" font-family="Helvetica,sans-Serif" font-size="10.00" fill="grey"> expirationDate</text>
</g>
</g>
</svg>
