<?xml version="1.0" encoding="UTF-8" standalone="no"?>
<!DOCTYPE svg PUBLIC "-//W3C//DTD SVG 1.1//EN"
 "http://www.w3.org/Graphics/SVG/1.1/DTD/svg11.dtd">
<!-- Generated by graphviz version 2.43.0 (0)
 -->
<!-- Title: InvalidPriceException Pages: 1 -->
<svg width="166pt" height="247pt"
 viewBox="0.00 0.00 166.00 247.00" xmlns="http://www.w3.org/2000/svg" xmlns:xlink="http://www.w3.org/1999/xlink">
<g id="graph0" class="graph" transform="scale(1 1) rotate(0) translate(4 243)">
<title>InvalidPriceException</title>
<!-- Node1 -->
<g id="Node000001" class="node">
<title>Node1</title>
<g id="a_Node000001"><a xlink:title=" ">
<polygon fill="#999999" stroke="#666666" points="140,-19 18,-19 18,0 140,0 140,-19"/>
<text text-anchor="middle" x="79" y="-7" font-family="Helvetica,sans-Serif" font-size="10.00">InvalidPriceException</text>
</a>
</g>
</g>
<!-- Node2 -->
<g id="Node000002" class="node">
<title>Node2</title>
<g id="a_Node000002"><a xlink:href="classInvalidProductDataException.html" target="_top" xlink:title=" ">
<polygon fill="white" stroke="#666666" points="158,-74 0,-74 0,-55 158,-55 158,-74"/>
<text text-anchor="middle" x="79" y="-62" font-family="Helvetica,sans-Serif" font-size="10.00">InvalidProductDataException</text>
</a>
</g>
</g>
<!-- Node2&#45;&gt;Node1 -->
<g id="edge1_Node000001_Node000002" class="edge">
<title>Node2&#45;&gt;Node1</title>
<g id="a_edge1_Node000001_Node000002"><a xlink:title=" ">
<path fill="none" stroke="#63b8ff" d="M79,-44.66C79,-35.93 79,-25.99 79,-19.09"/>
<polygon fill="#63b8ff" stroke="#63b8ff" points="75.5,-44.75 79,-54.75 82.5,-44.75 75.5,-44.75"/>
</a>
</g>
</g>
<!-- Node3 -->
<g id="Node000003" class="node">
<title>Node3</title>
<g id="a_Node000003"><a xlink:href="classMedicalProductException.html" target="_top" xlink:title=" ">
<polygon fill="white" stroke="#666666" points="149,-129 9,-129 9,-110 149,-110 149,-129"/>
<text text-anchor="middle" x="79" y="-117" font-family="Helvetica,sans-Serif" font-size="10.00">MedicalProductException</text>
</a>
</g>
</g>
<!-- Node3&#45;&gt;Node2 -->
<g id="edge2_Node000002_Node000003" class="edge">
<title>Node3&#45;&gt;Node2</title>
<g id="a_edge2_Node000002_Node000003"><a xlink:title=" ">
<path fill="none" stroke="#63b8ff" d="M79,-99.66C79,-90.93 79,-80.99 79,-74.09"/>
<polygon fill="#63b8ff" stroke="#63b8ff" points="75.5,-99.75 79,-109.75 82.5,-99.75 75.5,-99.75"/>
</a>
</g>
</g>
<!-- Node4 -->
<g id="Node000004" class="node">
<title>Node4</title>
<g id="a_Node000004"><a xlink:href="classPharmacyException.html" target="_top" xlink:title=" ">
<polygon fill="white" stroke="#666666" points="135.5,-184 22.5,-184 22.5,-165 135.5,-165 135.5,-184"/>
<text text-anchor="middle" x="79" y="-172" font-family="Helvetica,sans-Serif" font-size="10.00">PharmacyException</text>
</a>
</g>
</g>
<!-- Node4&#45;&gt;Node3 -->
<g id="edge3_Node000003_Node000004" class="edge">
<title>Node4&#45;&gt;Node3</title>
<g id="a_edge3_Node000003_Node000004"><a xlink:title=" ">
<path fill="none" stroke="#63b8ff" d="M79,-154.66C79,-145.93 79,-135.99 79,-129.09"/>
<polygon fill="#63b8ff" stroke="#63b8ff" points="75.5,-154.75 79,-164.75 82.5,-154.75 75.5,-154.75"/>
</a>
</g>
</g>
<!-- Node5 -->
<g id="Node000005" class="node">
<title>Node5</title>
<g id="a_Node000005"><a xlink:title=" ">
<polygon fill="white" stroke="#666666" points="131,-239 27,-239 27,-220 131,-220 131,-239"/>
<text text-anchor="middle" x="79" y="-227" font-family="Helvetica,sans-Serif" font-size="10.00">std::runtime_error</text>
</a>
</g>
</g>
<!-- Node5&#45;&gt;Node4 -->
<g id="edge4_Node000004_Node000005" class="edge">
<title>Node5&#45;&gt;Node4</title>
<g id="a_edge4_Node000004_Node000005"><a xlink:title=" ">
<path fill="none" stroke="#63b8ff" d="M79,-209.66C79,-200.93 79,-190.99 79,-184.09"/>
<polygon fill="#63b8ff" stroke="#63b8ff" points="75.5,-209.75 79,-219.75 82.5,-209.75 75.5,-209.75"/>
</a>
</g>
</g>
</g>
</svg>
