<?xml version="1.0" encoding="UTF-8" standalone="no"?>
<!DOCTYPE svg PUBLIC "-//W3C//DTD SVG 1.1//EN"
 "http://www.w3.org/Graphics/SVG/1.1/DTD/svg11.dtd">
<!-- Generated by graphviz version 2.43.0 (0)
 -->
<!-- Title: Medicine Pages: 1 -->
<svg width="130pt" height="149pt"
 viewBox="0.00 0.00 130.00 149.00" xmlns="http://www.w3.org/2000/svg" xmlns:xlink="http://www.w3.org/1999/xlink">
<g id="graph0" class="graph" transform="scale(1 1) rotate(0) translate(4 145)">
<title>Medicine</title>
<!-- Node1 -->
<g id="Node000001" class="node">
<title>Node1</title>
<g id="a_Node000001"><a xlink:title=" ">
<polygon fill="#999999" stroke="#666666" points="76.5,-19 15.5,-19 15.5,0 76.5,0 76.5,-19"/>
<text text-anchor="middle" x="46" y="-7" font-family="Helvetica,sans-Serif" font-size="10.00">Medicine</text>
</a>
</g>
</g>
<!-- Node2 -->
<g id="Node000002" class="node">
<title>Node2</title>
<g id="a_Node000002"><a xlink:href="classMedicalProduct.html" target="_top" xlink:title=" ">
<polygon fill="white" stroke="#666666" points="92,-75 0,-75 0,-56 92,-56 92,-75"/>
<text text-anchor="middle" x="46" y="-63" font-family="Helvetica,sans-Serif" font-size="10.00">MedicalProduct</text>
</a>
</g>
</g>
<!-- Node2&#45;&gt;Node1 -->
<g id="edge1_Node000001_Node000002" class="edge">
<title>Node2&#45;&gt;Node1</title>
<g id="a_edge1_Node000001_Node000002"><a xlink:title=" ">
<path fill="none" stroke="#63b8ff" d="M46,-45.3C46,-36.41 46,-26.28 46,-19.25"/>
<polygon fill="#63b8ff" stroke="#63b8ff" points="42.5,-45.58 46,-55.58 49.5,-45.58 42.5,-45.58"/>
</a>
</g>
</g>
<!-- Node3 -->
<g id="Node000003" class="node">
<title>Node3</title>
<g id="a_Node000003"><a xlink:href="classSafeDate.html" target="_top" xlink:title=" ">
<polygon fill="white" stroke="#666666" points="77,-141 15,-141 15,-122 77,-122 77,-141"/>
<text text-anchor="middle" x="46" y="-129" font-family="Helvetica,sans-Serif" font-size="10.00">SafeDate</text>
</a>
</g>
</g>
<!-- Node3&#45;&gt;Node2 -->
<g id="edge2_Node000002_Node000003" class="edge">
<title>Node3&#45;&gt;Node2</title>
<g id="a_edge2_Node000002_Node000003"><a xlink:title=" ">
<path fill="none" stroke="#9a32cd" stroke-dasharray="5,2" d="M46,-111.58C46,-99.63 46,-84.72 46,-75.41"/>
<polygon fill="#9a32cd" stroke="#9a32cd" points="42.5,-111.87 46,-121.87 49.5,-111.87 42.5,-111.87"/>
</a>
</g>
<text text-anchor="middle" x="84" y="-96" font-family="Helvetica,sans-Serif" font-size="10.00" fill="grey"> expirationDate</text>
</g>
</g>
</svg>
