<?xml version="1.0" encoding="UTF-8" standalone="no"?>
<!DOCTYPE svg PUBLIC "-//W3C//DTD SVG 1.1//EN"
 "http://www.w3.org/Graphics/SVG/1.1/DTD/svg11.dtd">
<!-- Generated by graphviz version 2.43.0 (0)
 -->
<!-- Title: Exception/PharmacyExceptions/DuplicateProductException.h Pages: 1 -->
<svg width="375pt" height="214pt"
 viewBox="0.00 0.00 375.00 214.00" xmlns="http://www.w3.org/2000/svg" xmlns:xlink="http://www.w3.org/1999/xlink">
<g id="graph0" class="graph" transform="scale(1 1) rotate(0) translate(4 210)">
<title>Exception/PharmacyExceptions/DuplicateProductException.h</title>
<!-- Node1 -->
<g id="Node000001" class="node">
<title>Node1</title>
<g id="a_Node000001"><a xlink:title=" ">
<polygon fill="#999999" stroke="#666666" points="265,-206 95,-206 95,-176 265,-176 265,-206"/>
<text text-anchor="start" x="103" y="-194" font-family="Helvetica,sans-Serif" font-size="10.00">Exception/PharmacyExceptions</text>
<text text-anchor="middle" x="180" y="-183" font-family="Helvetica,sans-Serif" font-size="10.00">/DuplicateProductException.h</text>
</a>
</g>
</g>
<!-- Node2 -->
<g id="Node000002" class="node">
<title>Node2</title>
<g id="a_Node000002"><a xlink:href="pharmacy_8cpp.html" target="_top" xlink:title=" ">
<polygon fill="white" stroke="#666666" points="163,-140 79,-140 79,-121 163,-121 163,-140"/>
<text text-anchor="middle" x="121" y="-128" font-family="Helvetica,sans-Serif" font-size="10.00">pharmacy.cpp</text>
</a>
</g>
</g>
<!-- Node1&#45;&gt;Node2 -->
<g id="edge1_Node000001_Node000002" class="edge">
<title>Node1&#45;&gt;Node2</title>
<g id="a_edge1_Node000001_Node000002"><a xlink:title=" ">
<path fill="none" stroke="#63b8ff" d="M158.49,-168.67C148.59,-158.86 137.4,-147.76 129.84,-140.27"/>
<polygon fill="#63b8ff" stroke="#63b8ff" points="156.15,-171.28 165.72,-175.84 161.08,-166.31 156.15,-171.28"/>
</a>
</g>
</g>
<!-- Node3 -->
<g id="Node000003" class="node">
<title>Node3</title>
<g id="a_Node000003"><a xlink:href="pharmacymanager_8h.html" target="_top" xlink:title=" ">
<polygon fill="white" stroke="#666666" points="298.5,-140 181.5,-140 181.5,-121 298.5,-121 298.5,-140"/>
<text text-anchor="middle" x="240" y="-128" font-family="Helvetica,sans-Serif" font-size="10.00">pharmacymanager.h</text>
</a>
</g>
</g>
<!-- Node1&#45;&gt;Node3 -->
<g id="edge2_Node000001_Node000003" class="edge">
<title>Node1&#45;&gt;Node3</title>
<g id="a_edge2_Node000001_Node000003"><a xlink:title=" ">
<path fill="none" stroke="#63b8ff" d="M201.88,-168.67C211.94,-158.86 223.32,-147.76 231.01,-140.27"/>
<polygon fill="#63b8ff" stroke="#63b8ff" points="199.24,-166.35 194.52,-175.84 204.13,-171.36 199.24,-166.35"/>
</a>
</g>
</g>
<!-- Node4 -->
<g id="Node000004" class="node">
<title>Node4</title>
<g id="a_Node000004"><a xlink:href="mainwindow_8h.html" target="_top" xlink:title=" ">
<polygon fill="white" stroke="#666666" points="220.5,-85 133.5,-85 133.5,-66 220.5,-66 220.5,-85"/>
<text text-anchor="middle" x="177" y="-73" font-family="Helvetica,sans-Serif" font-size="10.00">mainwindow.h</text>
</a>
</g>
</g>
<!-- Node3&#45;&gt;Node4 -->
<g id="edge3_Node000003_Node000004" class="edge">
<title>Node3&#45;&gt;Node4</title>
<g id="a_edge3_Node000003_Node000004"><a xlink:title=" ">
<path fill="none" stroke="#63b8ff" d="M221.96,-114.32C210.73,-104.87 196.68,-93.06 187.31,-85.17"/>
<polygon fill="#63b8ff" stroke="#63b8ff" points="219.97,-117.23 229.88,-120.98 224.48,-111.87 219.97,-117.23"/>
</a>
</g>
</g>
<!-- Node8 -->
<g id="Node000008" class="node">
<title>Node8</title>
<g id="a_Node000008"><a xlink:href="pharmacymanager_8cpp.html" target="_top" xlink:title=" ">
<polygon fill="white" stroke="#666666" points="367,-85 239,-85 239,-66 367,-66 367,-85"/>
<text text-anchor="middle" x="303" y="-73" font-family="Helvetica,sans-Serif" font-size="10.00">pharmacymanager.cpp</text>
</a>
</g>
</g>
<!-- Node3&#45;&gt;Node8 -->
<g id="edge7_Node000003_Node000008" class="edge">
<title>Node3&#45;&gt;Node8</title>
<g id="a_edge7_Node000003_Node000008"><a xlink:title=" ">
<path fill="none" stroke="#63b8ff" d="M258.04,-114.32C269.27,-104.87 283.32,-93.06 292.69,-85.17"/>
<polygon fill="#63b8ff" stroke="#63b8ff" points="255.52,-111.87 250.12,-120.98 260.03,-117.23 255.52,-111.87"/>
</a>
</g>
</g>
<!-- Node5 -->
<g id="Node000005" class="node">
<title>Node5</title>
<g id="a_Node000005"><a xlink:href="moc__mainwindow_8cpp.html" target="_top" xlink:title=" ">
<polygon fill="white" stroke="#666666" points="128,-30 0,-30 0,0 128,0 128,-30"/>
<text text-anchor="start" x="8" y="-18" font-family="Helvetica,sans-Serif" font-size="10.00">build/Desktop&#45;Debug</text>
<text text-anchor="middle" x="64" y="-7" font-family="Helvetica,sans-Serif" font-size="10.00">/moc_mainwindow.cpp</text>
</a>
</g>
</g>
<!-- Node4&#45;&gt;Node5 -->
<g id="edge4_Node000004_Node000005" class="edge">
<title>Node4&#45;&gt;Node5</title>
<g id="a_edge4_Node000004_Node000005"><a xlink:title=" ">
<path fill="none" stroke="#63b8ff" d="M151.06,-61.07C133.17,-51.81 109.43,-39.52 91.26,-30.11"/>
<polygon fill="#63b8ff" stroke="#63b8ff" points="149.84,-64.38 160.33,-65.87 153.06,-58.16 149.84,-64.38"/>
</a>
</g>
</g>
<!-- Node6 -->
<g id="Node000006" class="node">
<title>Node6</title>
<g id="a_Node000006"><a xlink:href="main_8cpp.html" target="_top" xlink:title=" ">
<polygon fill="white" stroke="#666666" points="208,-24.5 146,-24.5 146,-5.5 208,-5.5 208,-24.5"/>
<text text-anchor="middle" x="177" y="-12.5" font-family="Helvetica,sans-Serif" font-size="10.00">main.cpp</text>
</a>
</g>
</g>
<!-- Node4&#45;&gt;Node6 -->
<g id="edge5_Node000004_Node000006" class="edge">
<title>Node4&#45;&gt;Node6</title>
<g id="a_edge5_Node000004_Node000006"><a xlink:title=" ">
<path fill="none" stroke="#63b8ff" d="M177,-55.66C177,-45.24 177,-32.8 177,-24.67"/>
<polygon fill="#63b8ff" stroke="#63b8ff" points="173.5,-55.87 177,-65.87 180.5,-55.87 173.5,-55.87"/>
</a>
</g>
</g>
<!-- Node7 -->
<g id="Node000007" class="node">
<title>Node7</title>
<g id="a_Node000007"><a xlink:href="mainwindow_8cpp.html" target="_top" xlink:title=" ">
<polygon fill="white" stroke="#666666" points="324,-24.5 226,-24.5 226,-5.5 324,-5.5 324,-24.5"/>
<text text-anchor="middle" x="275" y="-12.5" font-family="Helvetica,sans-Serif" font-size="10.00">mainwindow.cpp</text>
</a>
</g>
</g>
<!-- Node4&#45;&gt;Node7 -->
<g id="edge6_Node000004_Node000007" class="edge">
<title>Node4&#45;&gt;Node7</title>
<g id="a_edge6_Node000004_Node000007"><a xlink:title=" ">
<path fill="none" stroke="#63b8ff" d="M200.25,-60.62C218.94,-49.46 244.61,-34.14 260.48,-24.67"/>
<polygon fill="#63b8ff" stroke="#63b8ff" points="198.25,-57.74 191.46,-65.87 201.84,-63.75 198.25,-57.74"/>
</a>
</g>
</g>
</g>
</svg>
