<?xml version="1.0" encoding="UTF-8" standalone="no"?>
<!DOCTYPE svg PUBLIC "-//W3C//DTD SVG 1.1//EN"
 "http://www.w3.org/Graphics/SVG/1.1/DTD/svg11.dtd">
<!-- Generated by graphviz version 2.43.0 (0)
 -->
<!-- Title: filemanager.cpp Pages: 1 -->
<svg width="1013pt" height="357pt"
 viewBox="0.00 0.00 1012.78 357.00" xmlns="http://www.w3.org/2000/svg" xmlns:xlink="http://www.w3.org/1999/xlink">
<g id="graph0" class="graph" transform="scale(1 1) rotate(0) translate(4 353)">
<title>filemanager.cpp</title>
<!-- Node1 -->
<g id="Node000001" class="node">
<title>Node1</title>
<g id="a_Node000001"><a xlink:title=" ">
<polygon fill="#999999" stroke="#666666" points="960.28,-349 865.28,-349 865.28,-330 960.28,-330 960.28,-349"/>
<text text-anchor="middle" x="912.78" y="-337" font-family="Helvetica,sans-Serif" font-size="10.00">filemanager.cpp</text>
</a>
</g>
</g>
<!-- Node2 -->
<g id="Node000002" class="node">
<title>Node2</title>
<g id="a_Node000002"><a xlink:href="filemanager_8h.html" target="_top" xlink:title=" ">
<polygon fill="white" stroke="#666666" points="483.28,-294 400.28,-294 400.28,-275 483.28,-275 483.28,-294"/>
<text text-anchor="middle" x="441.78" y="-282" font-family="Helvetica,sans-Serif" font-size="10.00">filemanager.h</text>
</a>
</g>
</g>
<!-- Node1&#45;&gt;Node2 -->
<g id="edge1_Node000001_Node000002" class="edge">
<title>Node1&#45;&gt;Node2</title>
<g id="a_edge1_Node000001_Node000002"><a xlink:title=" ">
<path fill="none" stroke="#63b8ff" d="M865.02,-333.13C776.07,-323.12 585.71,-301.7 493.7,-291.34"/>
<polygon fill="#63b8ff" stroke="#63b8ff" points="493.84,-287.84 483.51,-290.2 493.05,-294.79 493.84,-287.84"/>
</a>
</g>
</g>
<!-- Node4 -->
<g id="Node000004" class="node">
<title>Node4</title>
<g id="a_Node000004"><a xlink:title=" ">
<polygon fill="#e0e0e0" stroke="#999999" points="849.78,-74 789.78,-74 789.78,-55 849.78,-55 849.78,-74"/>
<text text-anchor="middle" x="819.78" y="-62" font-family="Helvetica,sans-Serif" font-size="10.00">iostream</text>
</a>
</g>
</g>
<!-- Node1&#45;&gt;Node4 -->
<g id="edge49_Node000001_Node000004" class="edge">
<title>Node1&#45;&gt;Node4</title>
<g id="a_edge49_Node000001_Node000004"><a xlink:title=" ">
<path fill="none" stroke="#63b8ff" d="M912.78,-329.82C912.78,-311.48 912.78,-267.44 912.78,-230.5 912.78,-230.5 912.78,-230.5 912.78,-173.5 912.78,-131.48 871.86,-97.69 844.31,-79.7"/>
<polygon fill="#63b8ff" stroke="#63b8ff" points="845.88,-76.56 835.55,-74.21 842.17,-82.49 845.88,-76.56"/>
</a>
</g>
</g>
<!-- Node24 -->
<g id="Node000024" class="node">
<title>Node24</title>
<g id="a_Node000024"><a xlink:title=" ">
<polygon fill="#e0e0e0" stroke="#999999" points="1004.78,-294 940.78,-294 940.78,-275 1004.78,-275 1004.78,-294"/>
<text text-anchor="middle" x="972.78" y="-282" font-family="Helvetica,sans-Serif" font-size="10.00">algorithm</text>
</a>
</g>
</g>
<!-- Node1&#45;&gt;Node24 -->
<g id="edge48_Node000001_Node000024" class="edge">
<title>Node1&#45;&gt;Node24</title>
<g id="a_edge48_Node000001_Node000024"><a xlink:title=" ">
<path fill="none" stroke="#63b8ff" d="M922.42,-329.98C931.29,-322.15 944.65,-310.34 955.38,-300.86"/>
<polygon fill="#63b8ff" stroke="#63b8ff" points="957.78,-303.41 962.96,-294.17 953.15,-298.17 957.78,-303.41"/>
</a>
</g>
</g>
<!-- Node3 -->
<g id="Node000003" class="node">
<title>Node3</title>
<g id="a_Node000003"><a xlink:href="medicalproduct_8h.html" target="_top" xlink:title=" ">
<polygon fill="white" stroke="#666666" points="419.28,-129 318.28,-129 318.28,-110 419.28,-110 419.28,-129"/>
<text text-anchor="middle" x="368.78" y="-117" font-family="Helvetica,sans-Serif" font-size="10.00">medicalproduct.h</text>
</a>
</g>
</g>
<!-- Node2&#45;&gt;Node3 -->
<g id="edge2_Node000002_Node000003" class="edge">
<title>Node2&#45;&gt;Node3</title>
<g id="a_edge2_Node000002_Node000003"><a xlink:title=" ">
<path fill="none" stroke="#63b8ff" d="M483.29,-283.81C558.44,-283.39 712.34,-277.69 745.78,-239 751.3,-232.61 750.93,-226.69 745.78,-220 707.41,-170.2 526.27,-140.29 429.72,-127.62"/>
<polygon fill="#63b8ff" stroke="#63b8ff" points="429.88,-124.11 419.52,-126.3 428.99,-131.05 429.88,-124.11"/>
</a>
</g>
</g>
<!-- Node7 -->
<g id="Node000007" class="node">
<title>Node7</title>
<g id="a_Node000007"><a xlink:href="safedate_8h.html" target="_top" xlink:title=" ">
<polygon fill="white" stroke="#666666" points="368.78,-74 300.78,-74 300.78,-55 368.78,-55 368.78,-74"/>
<text text-anchor="middle" x="334.78" y="-62" font-family="Helvetica,sans-Serif" font-size="10.00">safedate.h</text>
</a>
</g>
</g>
<!-- Node2&#45;&gt;Node7 -->
<g id="edge47_Node000002_Node000007" class="edge">
<title>Node2&#45;&gt;Node7</title>
<g id="a_edge47_Node000002_Node000007"><a xlink:title=" ">
<path fill="none" stroke="#63b8ff" d="M399.9,-282.22C297.91,-278.68 43.07,-267.08 17.78,-239 -67.96,-143.8 184.77,-90.08 290.56,-72.24"/>
<polygon fill="#63b8ff" stroke="#63b8ff" points="291.33,-75.66 300.62,-70.58 290.19,-68.76 291.33,-75.66"/>
</a>
</g>
</g>
<!-- Node9 -->
<g id="Node000009" class="node">
<title>Node9</title>
<g id="a_Node000009"><a xlink:href="medicine_8h.html" target="_top" xlink:title=" ">
<polygon fill="white" stroke="#666666" points="184.28,-184 113.28,-184 113.28,-165 184.28,-165 184.28,-184"/>
<text text-anchor="middle" x="148.78" y="-172" font-family="Helvetica,sans-Serif" font-size="10.00">medicine.h</text>
</a>
</g>
</g>
<!-- Node2&#45;&gt;Node9 -->
<g id="edge10_Node000002_Node000009" class="edge">
<title>Node2&#45;&gt;Node9</title>
<g id="a_edge10_Node000002_Node000009"><a xlink:title=" ">
<path fill="none" stroke="#63b8ff" d="M400.09,-281.94C332.39,-278.56 202.67,-268.35 168.78,-239 156.09,-228.02 151.36,-209.07 149.64,-194.72"/>
<polygon fill="#63b8ff" stroke="#63b8ff" points="153.11,-194.13 148.82,-184.44 146.13,-194.69 153.11,-194.13"/>
</a>
</g>
</g>
<!-- Node10 -->
<g id="Node000010" class="node">
<title>Node10</title>
<g id="a_Node000010"><a xlink:title=" ">
<polygon fill="#e0e0e0" stroke="#999999" points="188.28,-129 141.28,-129 141.28,-110 188.28,-110 188.28,-129"/>
<text text-anchor="middle" x="164.78" y="-117" font-family="Helvetica,sans-Serif" font-size="10.00">vector</text>
</a>
</g>
</g>
<!-- Node2&#45;&gt;Node10 -->
<g id="edge43_Node000002_Node000010" class="edge">
<title>Node2&#45;&gt;Node10</title>
<g id="a_edge43_Node000002_Node000010"><a xlink:title=" ">
<path fill="none" stroke="#63b8ff" d="M400.15,-282.12C300.07,-278.37 52.38,-266.39 27.78,-239 12.26,-221.72 25.13,-186.52 45.78,-165 68.29,-141.53 104.34,-130.34 130.87,-125.06"/>
<polygon fill="#63b8ff" stroke="#63b8ff" points="131.65,-128.47 140.87,-123.26 130.41,-121.59 131.65,-128.47"/>
</a>
</g>
</g>
<!-- Node11 -->
<g id="Node000011" class="node">
<title>Node11</title>
<g id="a_Node000011"><a xlink:title=" ">
<polygon fill="#e0e0e0" stroke="#999999" points="279.78,-129 221.78,-129 221.78,-110 279.78,-110 279.78,-129"/>
<text text-anchor="middle" x="250.78" y="-117" font-family="Helvetica,sans-Serif" font-size="10.00">memory</text>
</a>
</g>
</g>
<!-- Node2&#45;&gt;Node11 -->
<g id="edge44_Node000002_Node000011" class="edge">
<title>Node2&#45;&gt;Node11</title>
<g id="a_edge44_Node000002_Node000011"><a xlink:title=" ">
<path fill="none" stroke="#63b8ff" d="M400.12,-281.95C302.5,-277.89 65.39,-265.39 41.78,-239 -12.49,-178.37 137.31,-141.33 211.68,-127.14"/>
<polygon fill="#63b8ff" stroke="#63b8ff" points="212.45,-130.55 221.64,-125.29 211.17,-123.67 212.45,-130.55"/>
</a>
</g>
</g>
<!-- Node12 -->
<g id="Node000012" class="node">
<title>Node12</title>
<g id="a_Node000012"><a xlink:href="tablet_8h.html" target="_top" xlink:title=" ">
<polygon fill="white" stroke="#666666" points="846.78,-239 792.78,-239 792.78,-220 846.78,-220 846.78,-239"/>
<text text-anchor="middle" x="819.78" y="-227" font-family="Helvetica,sans-Serif" font-size="10.00">tablet.h</text>
</a>
</g>
</g>
<!-- Node2&#45;&gt;Node12 -->
<g id="edge15_Node000002_Node000012" class="edge">
<title>Node2&#45;&gt;Node12</title>
<g id="a_edge15_Node000002_Node000012"><a xlink:title=" ">
<path fill="none" stroke="#63b8ff" d="M483.43,-278.99C547.22,-271.87 672.88,-256.94 778.78,-239 780.03,-238.79 781.3,-238.57 782.58,-238.34"/>
<polygon fill="#63b8ff" stroke="#63b8ff" points="783.31,-241.76 792.48,-236.45 782,-234.88 783.31,-241.76"/>
</a>
</g>
</g>
<!-- Node13 -->
<g id="Node000013" class="node">
<title>Node13</title>
<g id="a_Node000013"><a xlink:href="syrup_8h.html" target="_top" xlink:title=" ">
<polygon fill="white" stroke="#666666" points="230.28,-239 177.28,-239 177.28,-220 230.28,-220 230.28,-239"/>
<text text-anchor="middle" x="203.78" y="-227" font-family="Helvetica,sans-Serif" font-size="10.00">syrup.h</text>
</a>
</g>
</g>
<!-- Node2&#45;&gt;Node13 -->
<g id="edge18_Node000002_Node000013" class="edge">
<title>Node2&#45;&gt;Node13</title>
<g id="a_edge18_Node000002_Node000013"><a xlink:title=" ">
<path fill="none" stroke="#63b8ff" d="M402.26,-274.98C363.58,-266.6 302.72,-253.3 240.5,-239.14"/>
<polygon fill="#63b8ff" stroke="#63b8ff" points="241.03,-235.67 230.5,-236.86 239.47,-242.49 241.03,-235.67"/>
</a>
</g>
</g>
<!-- Node14 -->
<g id="Node000014" class="node">
<title>Node14</title>
<g id="a_Node000014"><a xlink:href="ointment_8h.html" target="_top" xlink:title=" ">
<polygon fill="white" stroke="#666666" points="120.78,-239 50.78,-239 50.78,-220 120.78,-220 120.78,-239"/>
<text text-anchor="middle" x="85.78" y="-227" font-family="Helvetica,sans-Serif" font-size="10.00">ointment.h</text>
</a>
</g>
</g>
<!-- Node2&#45;&gt;Node14 -->
<g id="edge20_Node000002_Node000014" class="edge">
<title>Node2&#45;&gt;Node14</title>
<g id="a_edge20_Node000002_Node000014"><a xlink:title=" ">
<path fill="none" stroke="#63b8ff" d="M400.01,-277.82C340.89,-269.7 229.45,-254.07 134.78,-239 133.5,-238.8 132.22,-238.59 130.91,-238.38"/>
<polygon fill="#63b8ff" stroke="#63b8ff" points="131.26,-234.89 120.82,-236.7 130.11,-241.79 131.26,-234.89"/>
</a>
</g>
</g>
<!-- Node15 -->
<g id="Node000015" class="node">
<title>Node15</title>
<g id="a_Node000015"><a xlink:href="pharmacy_8h.html" target="_top" xlink:title=" ">
<polygon fill="white" stroke="#666666" points="321.28,-239 248.28,-239 248.28,-220 321.28,-220 321.28,-239"/>
<text text-anchor="middle" x="284.78" y="-227" font-family="Helvetica,sans-Serif" font-size="10.00">pharmacy.h</text>
</a>
</g>
</g>
<!-- Node2&#45;&gt;Node15 -->
<g id="edge22_Node000002_Node000015" class="edge">
<title>Node2&#45;&gt;Node15</title>
<g id="a_edge22_Node000002_Node000015"><a xlink:title=" ">
<path fill="none" stroke="#63b8ff" d="M416.55,-274.98C390.42,-266.16 349.38,-252.31 320.04,-242.41"/>
<polygon fill="#63b8ff" stroke="#63b8ff" points="320.79,-238.96 310.2,-239.08 318.55,-245.6 320.79,-238.96"/>
</a>
</g>
</g>
<!-- Node17 -->
<g id="Node000017" class="node">
<title>Node17</title>
<g id="a_Node000017"><a xlink:title=" ">
<polygon fill="#e0e0e0" stroke="#999999" points="655.78,-129 617.78,-129 617.78,-110 655.78,-110 655.78,-129"/>
<text text-anchor="middle" x="636.78" y="-117" font-family="Helvetica,sans-Serif" font-size="10.00">map</text>
</a>
</g>
</g>
<!-- Node2&#45;&gt;Node17 -->
<g id="edge42_Node000002_Node000017" class="edge">
<title>Node2&#45;&gt;Node17</title>
<g id="a_edge42_Node000002_Node000017"><a xlink:title=" ">
<path fill="none" stroke="#63b8ff" d="M483.4,-282.12C583.48,-278.37 831.17,-266.39 855.78,-239 914.99,-173.08 738.98,-136.75 666.46,-124.89"/>
<polygon fill="#63b8ff" stroke="#63b8ff" points="666.58,-121.37 656.16,-123.26 665.49,-128.28 666.58,-121.37"/>
</a>
</g>
</g>
<!-- Node18 -->
<g id="Node000018" class="node">
<title>Node18</title>
<g id="a_Node000018"><a xlink:href="inventoryoperation_8h.html" target="_top" xlink:title=" ">
<polygon fill="white" stroke="#666666" points="516.28,-184 397.28,-184 397.28,-165 516.28,-165 516.28,-184"/>
<text text-anchor="middle" x="456.78" y="-172" font-family="Helvetica,sans-Serif" font-size="10.00">inventoryoperation.h</text>
</a>
</g>
</g>
<!-- Node2&#45;&gt;Node18 -->
<g id="edge32_Node000002_Node000018" class="edge">
<title>Node2&#45;&gt;Node18</title>
<g id="a_edge32_Node000002_Node000018"><a xlink:title=" ">
<path fill="none" stroke="#63b8ff" d="M483.5,-279.58C510.12,-274.68 542.71,-263.67 559.78,-239 577.12,-213.92 541.67,-196.86 507.73,-186.8"/>
<polygon fill="#63b8ff" stroke="#63b8ff" points="508.35,-183.34 497.77,-184.02 506.46,-190.08 508.35,-183.34"/>
</a>
</g>
</g>
<!-- Node19 -->
<g id="Node000019" class="node">
<title>Node19</title>
<g id="a_Node000019"><a xlink:href="supply_8h.html" target="_top" xlink:title=" ">
<polygon fill="white" stroke="#666666" points="395.78,-239 339.78,-239 339.78,-220 395.78,-220 395.78,-239"/>
<text text-anchor="middle" x="367.78" y="-227" font-family="Helvetica,sans-Serif" font-size="10.00">supply.h</text>
</a>
</g>
</g>
<!-- Node2&#45;&gt;Node19 -->
<g id="edge36_Node000002_Node000019" class="edge">
<title>Node2&#45;&gt;Node19</title>
<g id="a_edge36_Node000002_Node000019"><a xlink:title=" ">
<path fill="none" stroke="#63b8ff" d="M429.89,-274.98C418.63,-266.92 401.49,-254.65 388.07,-245.03"/>
<polygon fill="#63b8ff" stroke="#63b8ff" points="390.05,-242.15 379.88,-239.17 385.97,-247.84 390.05,-242.15"/>
</a>
</g>
</g>
<!-- Node20 -->
<g id="Node000020" class="node">
<title>Node20</title>
<g id="a_Node000020"><a xlink:href="return_8h.html" target="_top" xlink:title=" ">
<polygon fill="white" stroke="#666666" points="469.28,-239 414.28,-239 414.28,-220 469.28,-220 469.28,-239"/>
<text text-anchor="middle" x="441.78" y="-227" font-family="Helvetica,sans-Serif" font-size="10.00">return.h</text>
</a>
</g>
</g>
<!-- Node2&#45;&gt;Node20 -->
<g id="edge38_Node000002_Node000020" class="edge">
<title>Node2&#45;&gt;Node20</title>
<g id="a_edge38_Node000002_Node000020"><a xlink:title=" ">
<path fill="none" stroke="#63b8ff" d="M441.78,-274.75C441.78,-267.8 441.78,-257.85 441.78,-249.13"/>
<polygon fill="#63b8ff" stroke="#63b8ff" points="445.28,-249.09 441.78,-239.09 438.28,-249.09 445.28,-249.09"/>
</a>
</g>
</g>
<!-- Node21 -->
<g id="Node000021" class="node">
<title>Node21</title>
<g id="a_Node000021"><a xlink:href="writeoff_8h.html" target="_top" xlink:title=" ">
<polygon fill="white" stroke="#666666" points="550.28,-239 487.28,-239 487.28,-220 550.28,-220 550.28,-239"/>
<text text-anchor="middle" x="518.78" y="-227" font-family="Helvetica,sans-Serif" font-size="10.00">writeoff.h</text>
</a>
</g>
</g>
<!-- Node2&#45;&gt;Node21 -->
<g id="edge40_Node000002_Node000021" class="edge">
<title>Node2&#45;&gt;Node21</title>
<g id="a_edge40_Node000002_Node000021"><a xlink:title=" ">
<path fill="none" stroke="#63b8ff" d="M454.15,-274.98C465.86,-266.92 483.7,-254.65 497.66,-245.03"/>
<polygon fill="#63b8ff" stroke="#63b8ff" points="499.93,-247.72 506.18,-239.17 495.96,-241.96 499.93,-247.72"/>
</a>
</g>
</g>
<!-- Node22 -->
<g id="Node000022" class="node">
<title>Node22</title>
<g id="a_Node000022"><a xlink:title=" ">
<polygon fill="#e0e0e0" stroke="#999999" points="662.28,-239 607.28,-239 607.28,-220 662.28,-220 662.28,-239"/>
<text text-anchor="middle" x="634.78" y="-227" font-family="Helvetica,sans-Serif" font-size="10.00">fstream</text>
</a>
</g>
</g>
<!-- Node2&#45;&gt;Node22 -->
<g id="edge45_Node000002_Node000022" class="edge">
<title>Node2&#45;&gt;Node22</title>
<g id="a_edge45_Node000002_Node000022"><a xlink:title=" ">
<path fill="none" stroke="#63b8ff" d="M472.78,-274.98C506.68,-265.68 560.98,-250.76 597.26,-240.8"/>
<polygon fill="#63b8ff" stroke="#63b8ff" points="598.26,-244.16 606.98,-238.13 596.41,-237.41 598.26,-244.16"/>
</a>
</g>
</g>
<!-- Node23 -->
<g id="Node000023" class="node">
<title>Node23</title>
<g id="a_Node000023"><a xlink:title=" ">
<polygon fill="#e0e0e0" stroke="#999999" points="736.78,-239 680.78,-239 680.78,-220 736.78,-220 736.78,-239"/>
<text text-anchor="middle" x="708.78" y="-227" font-family="Helvetica,sans-Serif" font-size="10.00">sstream</text>
</a>
</g>
</g>
<!-- Node2&#45;&gt;Node23 -->
<g id="edge46_Node000002_Node000023" class="edge">
<title>Node2&#45;&gt;Node23</title>
<g id="a_edge46_Node000002_Node000023"><a xlink:title=" ">
<path fill="none" stroke="#63b8ff" d="M483.41,-275.89C527.48,-267.74 599.3,-254.18 670.48,-239.22"/>
<polygon fill="#63b8ff" stroke="#63b8ff" points="671.46,-242.59 680.52,-237.1 670.01,-235.74 671.46,-242.59"/>
</a>
</g>
</g>
<!-- Node3&#45;&gt;Node4 -->
<g id="edge3_Node000003_Node000004" class="edge">
<title>Node3&#45;&gt;Node4</title>
<g id="a_edge3_Node000003_Node000004"><a xlink:title=" ">
<path fill="none" stroke="#63b8ff" d="M419.63,-112.52C510.21,-101.88 697.65,-79.85 779.76,-70.2"/>
<polygon fill="#63b8ff" stroke="#63b8ff" points="780.18,-73.68 789.71,-69.03 779.37,-66.72 780.18,-73.68"/>
</a>
</g>
</g>
<!-- Node5 -->
<g id="Node000005" class="node">
<title>Node5</title>
<g id="a_Node000005"><a xlink:title=" ">
<polygon fill="#e0e0e0" stroke="#999999" points="280.78,-19 236.78,-19 236.78,0 280.78,0 280.78,-19"/>
<text text-anchor="middle" x="258.78" y="-7" font-family="Helvetica,sans-Serif" font-size="10.00">string</text>
</a>
</g>
</g>
<!-- Node3&#45;&gt;Node5 -->
<g id="edge4_Node000003_Node000005" class="edge">
<title>Node3&#45;&gt;Node5</title>
<g id="a_edge4_Node000003_Node000005"><a xlink:title=" ">
<path fill="none" stroke="#63b8ff" d="M346.97,-109.94C330.21,-102.48 307.35,-90.29 291.78,-74 279.44,-61.1 270.56,-42.69 265.14,-29.01"/>
<polygon fill="#63b8ff" stroke="#63b8ff" points="268.28,-27.42 261.54,-19.25 261.72,-29.85 268.28,-27.42"/>
</a>
</g>
</g>
<!-- Node6 -->
<g id="Node000006" class="node">
<title>Node6</title>
<g id="a_Node000006"><a xlink:title=" ">
<polygon fill="#e0e0e0" stroke="#999999" points="426.78,-19 382.78,-19 382.78,0 426.78,0 426.78,-19"/>
<text text-anchor="middle" x="404.78" y="-7" font-family="Helvetica,sans-Serif" font-size="10.00">ctime</text>
</a>
</g>
</g>
<!-- Node3&#45;&gt;Node6 -->
<g id="edge5_Node000003_Node000006" class="edge">
<title>Node3&#45;&gt;Node6</title>
<g id="a_edge5_Node000003_Node000006"><a xlink:title=" ">
<path fill="none" stroke="#63b8ff" d="M371.72,-109.66C377.58,-92.09 390.79,-52.45 398.62,-28.95"/>
<polygon fill="#63b8ff" stroke="#63b8ff" points="402.05,-29.75 401.89,-19.16 395.41,-27.54 402.05,-29.75"/>
</a>
</g>
</g>
<!-- Node3&#45;&gt;Node7 -->
<g id="edge6_Node000003_Node000007" class="edge">
<title>Node3&#45;&gt;Node7</title>
<g id="a_edge6_Node000003_Node000007"><a xlink:title=" ">
<path fill="none" stroke="#63b8ff" d="M363.16,-109.75C358.46,-102.42 351.6,-91.73 345.81,-82.7"/>
<polygon fill="#63b8ff" stroke="#63b8ff" points="348.63,-80.62 340.29,-74.09 342.74,-84.4 348.63,-80.62"/>
</a>
</g>
</g>
<!-- Node7&#45;&gt;Node5 -->
<g id="edge9_Node000007_Node000005" class="edge">
<title>Node7&#45;&gt;Node5</title>
<g id="a_edge9_Node000007_Node000005"><a xlink:title=" ">
<path fill="none" stroke="#63b8ff" d="M322.56,-54.98C311,-46.92 293.4,-34.65 279.61,-25.03"/>
<polygon fill="#63b8ff" stroke="#63b8ff" points="281.41,-22.02 271.21,-19.17 277.41,-27.76 281.41,-22.02"/>
</a>
</g>
</g>
<!-- Node7&#45;&gt;Node6 -->
<g id="edge7_Node000007_Node000006" class="edge">
<title>Node7&#45;&gt;Node6</title>
<g id="a_edge7_Node000007_Node000006"><a xlink:title=" ">
<path fill="none" stroke="#63b8ff" d="M346.02,-54.98C356.57,-47 372.58,-34.88 385.22,-25.31"/>
<polygon fill="#63b8ff" stroke="#63b8ff" points="387.46,-28 393.32,-19.17 383.24,-22.42 387.46,-28"/>
</a>
</g>
</g>
<!-- Node8 -->
<g id="Node000008" class="node">
<title>Node8</title>
<g id="a_Node000008"><a xlink:title=" ">
<polygon fill="#e0e0e0" stroke="#999999" points="364.28,-19 299.28,-19 299.28,0 364.28,0 364.28,-19"/>
<text text-anchor="middle" x="331.78" y="-7" font-family="Helvetica,sans-Serif" font-size="10.00">stdexcept</text>
</a>
</g>
</g>
<!-- Node7&#45;&gt;Node8 -->
<g id="edge8_Node000007_Node000008" class="edge">
<title>Node7&#45;&gt;Node8</title>
<g id="a_edge8_Node000007_Node000008"><a xlink:title=" ">
<path fill="none" stroke="#63b8ff" d="M334.28,-54.75C333.89,-47.8 333.32,-37.85 332.83,-29.13"/>
<polygon fill="#63b8ff" stroke="#63b8ff" points="336.32,-28.88 332.26,-19.09 329.33,-29.27 336.32,-28.88"/>
</a>
</g>
</g>
<!-- Node9&#45;&gt;Node3 -->
<g id="edge11_Node000009_Node000003" class="edge">
<title>Node9&#45;&gt;Node3</title>
<g id="a_edge11_Node000009_Node000003"><a xlink:title=" ">
<path fill="none" stroke="#63b8ff" d="M184.12,-164.98C221.94,-155.87 282.04,-141.4 323.34,-131.45"/>
<polygon fill="#63b8ff" stroke="#63b8ff" points="324.25,-134.83 333.15,-129.08 322.61,-128.02 324.25,-134.83"/>
</a>
</g>
</g>
<!-- Node9&#45;&gt;Node5 -->
<g id="edge14_Node000009_Node000005" class="edge">
<title>Node9&#45;&gt;Node5</title>
<g id="a_edge14_Node000009_Node000005"><a xlink:title=" ">
<path fill="none" stroke="#63b8ff" d="M143.02,-164.9C135.39,-152.33 123.85,-128.42 132.78,-110 152.74,-68.81 198.94,-39.52 229.5,-23.81"/>
<polygon fill="#63b8ff" stroke="#63b8ff" points="231.42,-26.77 238.82,-19.19 228.31,-20.5 231.42,-26.77"/>
</a>
</g>
</g>
<!-- Node9&#45;&gt;Node10 -->
<g id="edge12_Node000009_Node000010" class="edge">
<title>Node9&#45;&gt;Node10</title>
<g id="a_edge12_Node000009_Node000010"><a xlink:title=" ">
<path fill="none" stroke="#63b8ff" d="M151.42,-164.75C153.54,-157.72 156.59,-147.62 159.24,-138.84"/>
<polygon fill="#63b8ff" stroke="#63b8ff" points="162.64,-139.67 162.18,-129.09 155.94,-137.65 162.64,-139.67"/>
</a>
</g>
</g>
<!-- Node9&#45;&gt;Node11 -->
<g id="edge13_Node000009_Node000011" class="edge">
<title>Node9&#45;&gt;Node11</title>
<g id="a_edge13_Node000009_Node000011"><a xlink:title=" ">
<path fill="none" stroke="#63b8ff" d="M165.16,-164.98C181.35,-156.57 206.35,-143.59 225.16,-133.81"/>
<polygon fill="#63b8ff" stroke="#63b8ff" points="226.83,-136.89 234.09,-129.17 223.6,-130.68 226.83,-136.89"/>
</a>
</g>
</g>
<!-- Node12&#45;&gt;Node4 -->
<g id="edge17_Node000012_Node000004" class="edge">
<title>Node12&#45;&gt;Node4</title>
<g id="a_edge17_Node000012_Node000004"><a xlink:title=" ">
<path fill="none" stroke="#63b8ff" d="M819.78,-219.74C819.78,-194.31 819.78,-120.08 819.78,-84.69"/>
<polygon fill="#63b8ff" stroke="#63b8ff" points="823.28,-84.31 819.78,-74.31 816.28,-84.31 823.28,-84.31"/>
</a>
</g>
</g>
<!-- Node12&#45;&gt;Node9 -->
<g id="edge16_Node000012_Node000009" class="edge">
<title>Node12&#45;&gt;Node9</title>
<g id="a_edge16_Node000012_Node000009"><a xlink:title=" ">
<path fill="none" stroke="#63b8ff" d="M792.74,-225.13C778.74,-223.45 761.35,-221.47 745.78,-220 691.5,-214.86 325.16,-188.25 194.75,-178.82"/>
<polygon fill="#63b8ff" stroke="#63b8ff" points="194.91,-175.32 184.69,-178.09 194.41,-182.3 194.91,-175.32"/>
</a>
</g>
</g>
<!-- Node13&#45;&gt;Node9 -->
<g id="edge19_Node000013_Node000009" class="edge">
<title>Node13&#45;&gt;Node9</title>
<g id="a_edge19_Node000013_Node000009"><a xlink:title=" ">
<path fill="none" stroke="#63b8ff" d="M194.69,-219.75C186.68,-212.03 174.82,-200.6 165.15,-191.28"/>
<polygon fill="#63b8ff" stroke="#63b8ff" points="167.32,-188.51 157.69,-184.09 162.46,-193.55 167.32,-188.51"/>
</a>
</g>
</g>
<!-- Node14&#45;&gt;Node9 -->
<g id="edge21_Node000014_Node000009" class="edge">
<title>Node14&#45;&gt;Node9</title>
<g id="a_edge21_Node000014_Node000009"><a xlink:title=" ">
<path fill="none" stroke="#63b8ff" d="M95.9,-219.98C105.21,-212.15 119.24,-200.34 130.51,-190.86"/>
<polygon fill="#63b8ff" stroke="#63b8ff" points="133.07,-193.29 138.47,-184.17 128.56,-187.93 133.07,-193.29"/>
</a>
</g>
</g>
<!-- Node15&#45;&gt;Node3 -->
<g id="edge24_Node000015_Node000003" class="edge">
<title>Node15&#45;&gt;Node3</title>
<g id="a_edge24_Node000015_Node000003"><a xlink:title=" ">
<path fill="none" stroke="#63b8ff" d="M303.65,-220C318.25,-212.5 337.92,-200.24 349.78,-184 359.42,-170.78 364.22,-152.66 366.57,-139.16"/>
<polygon fill="#63b8ff" stroke="#63b8ff" points="370.05,-139.51 368.03,-129.11 363.13,-138.5 370.05,-139.51"/>
</a>
</g>
</g>
<!-- Node15&#45;&gt;Node9 -->
<g id="edge23_Node000015_Node000009" class="edge">
<title>Node15&#45;&gt;Node9</title>
<g id="a_edge23_Node000015_Node000009"><a xlink:title=" ">
<path fill="none" stroke="#63b8ff" d="M262.92,-219.98C240.65,-211.3 205.87,-197.75 180.56,-187.88"/>
<polygon fill="#63b8ff" stroke="#63b8ff" points="181.61,-184.54 171.02,-184.17 179.07,-191.06 181.61,-184.54"/>
</a>
</g>
</g>
<!-- Node15&#45;&gt;Node10 -->
<g id="edge25_Node000015_Node000010" class="edge">
<title>Node15&#45;&gt;Node10</title>
<g id="a_edge25_Node000015_Node000010"><a xlink:title=" ">
<path fill="none" stroke="#63b8ff" d="M274.96,-219.66C254.55,-201.3 207.35,-158.81 181.85,-135.87"/>
<polygon fill="#63b8ff" stroke="#63b8ff" points="184.17,-133.25 174.4,-129.16 179.49,-138.45 184.17,-133.25"/>
</a>
</g>
</g>
<!-- Node15&#45;&gt;Node11 -->
<g id="edge26_Node000015_Node000011" class="edge">
<title>Node15&#45;&gt;Node11</title>
<g id="a_edge26_Node000015_Node000011"><a xlink:title=" ">
<path fill="none" stroke="#63b8ff" d="M281.81,-220C278.72,-211.06 273.78,-196.59 269.78,-184 264.97,-168.9 259.84,-151.68 256.12,-138.98"/>
<polygon fill="#63b8ff" stroke="#63b8ff" points="259.42,-137.78 253.26,-129.16 252.7,-139.74 259.42,-137.78"/>
</a>
</g>
</g>
<!-- Node16 -->
<g id="Node000016" class="node">
<title>Node16</title>
<g id="a_Node000016"><a xlink:href="storage_8h.html" target="_top" xlink:title=" ">
<polygon fill="white" stroke="#666666" points="340.78,-184 278.78,-184 278.78,-165 340.78,-165 340.78,-184"/>
<text text-anchor="middle" x="309.78" y="-172" font-family="Helvetica,sans-Serif" font-size="10.00">storage.h</text>
</a>
</g>
</g>
<!-- Node15&#45;&gt;Node16 -->
<g id="edge27_Node000015_Node000016" class="edge">
<title>Node15&#45;&gt;Node16</title>
<g id="a_edge27_Node000015_Node000016"><a xlink:title=" ">
<path fill="none" stroke="#63b8ff" d="M288.9,-219.75C292.29,-212.57 297.19,-202.18 301.39,-193.27"/>
<polygon fill="#63b8ff" stroke="#63b8ff" points="304.62,-194.63 305.72,-184.09 298.29,-191.64 304.62,-194.63"/>
</a>
</g>
</g>
<!-- Node16&#45;&gt;Node3 -->
<g id="edge28_Node000016_Node000003" class="edge">
<title>Node16&#45;&gt;Node3</title>
<g id="a_edge28_Node000016_Node000003"><a xlink:title=" ">
<path fill="none" stroke="#63b8ff" d="M319.25,-164.98C327.98,-157.15 341.12,-145.34 351.67,-135.86"/>
<polygon fill="#63b8ff" stroke="#63b8ff" points="354.02,-138.46 359.12,-129.17 349.35,-133.25 354.02,-138.46"/>
</a>
</g>
</g>
<!-- Node16&#45;&gt;Node10 -->
<g id="edge30_Node000016_Node000010" class="edge">
<title>Node16&#45;&gt;Node10</title>
<g id="a_edge30_Node000016_Node000010"><a xlink:title=" ">
<path fill="none" stroke="#63b8ff" d="M286.48,-164.98C262.52,-156.23 224.99,-142.51 197.94,-132.62"/>
<polygon fill="#63b8ff" stroke="#63b8ff" points="199.09,-129.32 188.5,-129.17 196.69,-135.89 199.09,-129.32"/>
</a>
</g>
</g>
<!-- Node16&#45;&gt;Node11 -->
<g id="edge31_Node000016_Node000011" class="edge">
<title>Node16&#45;&gt;Node11</title>
<g id="a_edge31_Node000016_Node000011"><a xlink:title=" ">
<path fill="none" stroke="#63b8ff" d="M300.3,-164.98C291.57,-157.15 278.43,-145.34 267.88,-135.86"/>
<polygon fill="#63b8ff" stroke="#63b8ff" points="270.21,-133.25 260.43,-129.17 265.53,-138.46 270.21,-133.25"/>
</a>
</g>
</g>
<!-- Node16&#45;&gt;Node17 -->
<g id="edge29_Node000016_Node000017" class="edge">
<title>Node16&#45;&gt;Node17</title>
<g id="a_edge29_Node000016_Node000017"><a xlink:title=" ">
<path fill="none" stroke="#63b8ff" d="M340.83,-168.47C403.85,-158.25 545.95,-135.22 607.47,-125.25"/>
<polygon fill="#63b8ff" stroke="#63b8ff" points="608.33,-128.66 617.64,-123.6 607.21,-121.75 608.33,-128.66"/>
</a>
</g>
</g>
<!-- Node18&#45;&gt;Node3 -->
<g id="edge33_Node000018_Node000003" class="edge">
<title>Node18&#45;&gt;Node3</title>
<g id="a_edge33_Node000018_Node000003"><a xlink:title=" ">
<path fill="none" stroke="#63b8ff" d="M442.64,-164.98C428.99,-156.77 408.09,-144.18 392,-134.49"/>
<polygon fill="#63b8ff" stroke="#63b8ff" points="393.54,-131.33 383.17,-129.17 389.93,-137.33 393.54,-131.33"/>
</a>
</g>
</g>
<!-- Node18&#45;&gt;Node7 -->
<g id="edge34_Node000018_Node000007" class="edge">
<title>Node18&#45;&gt;Node7</title>
<g id="a_edge34_Node000018_Node000007"><a xlink:title=" ">
<path fill="none" stroke="#63b8ff" d="M454.94,-164.59C451.77,-151.18 444.07,-125.71 428.78,-110 414.26,-95.09 393.75,-84.58 375.6,-77.54"/>
<polygon fill="#63b8ff" stroke="#63b8ff" points="376.68,-74.2 366.08,-74.07 374.28,-80.78 376.68,-74.2"/>
</a>
</g>
</g>
<!-- Node18&#45;&gt;Node11 -->
<g id="edge35_Node000018_Node000011" class="edge">
<title>Node18&#45;&gt;Node11</title>
<g id="a_edge35_Node000018_Node000011"><a xlink:title=" ">
<path fill="none" stroke="#63b8ff" d="M423.68,-164.98C387.14,-155.58 328.37,-140.46 289.66,-130.5"/>
<polygon fill="#63b8ff" stroke="#63b8ff" points="290.35,-127.07 279.8,-127.97 288.61,-133.85 290.35,-127.07"/>
</a>
</g>
</g>
<!-- Node19&#45;&gt;Node18 -->
<g id="edge37_Node000019_Node000018" class="edge">
<title>Node19&#45;&gt;Node18</title>
<g id="a_edge37_Node000019_Node000018"><a xlink:title=" ">
<path fill="none" stroke="#63b8ff" d="M382.07,-219.98C395.88,-211.77 417.02,-199.18 433.29,-189.49"/>
<polygon fill="#63b8ff" stroke="#63b8ff" points="435.41,-192.29 442.22,-184.17 431.83,-186.28 435.41,-192.29"/>
</a>
</g>
</g>
<!-- Node20&#45;&gt;Node18 -->
<g id="edge39_Node000020_Node000018" class="edge">
<title>Node20&#45;&gt;Node18</title>
<g id="a_edge39_Node000020_Node000018"><a xlink:title=" ">
<path fill="none" stroke="#63b8ff" d="M444.25,-219.75C446.24,-212.72 449.1,-202.62 451.58,-193.84"/>
<polygon fill="#63b8ff" stroke="#63b8ff" points="454.99,-194.66 454.34,-184.09 448.25,-192.76 454.99,-194.66"/>
</a>
</g>
</g>
<!-- Node21&#45;&gt;Node18 -->
<g id="edge41_Node000021_Node000018" class="edge">
<title>Node21&#45;&gt;Node18</title>
<g id="a_edge41_Node000021_Node000018"><a xlink:title=" ">
<path fill="none" stroke="#63b8ff" d="M508.81,-219.98C499.65,-212.15 485.84,-200.34 474.75,-190.86"/>
<polygon fill="#63b8ff" stroke="#63b8ff" points="476.79,-188.01 466.92,-184.17 472.25,-193.33 476.79,-188.01"/>
</a>
</g>
</g>
</g>
</svg>
