<?xml version="1.0" encoding="UTF-8" standalone="no"?>
<!DOCTYPE svg PUBLIC "-//W3C//DTD SVG 1.1//EN"
 "http://www.w3.org/Graphics/SVG/1.1/DTD/svg11.dtd">
<!-- Generated by graphviz version 2.43.0 (0)
 -->
<!-- Title: filemanager.h Pages: 1 -->
<svg width="940pt" height="302pt"
 viewBox="0.00 0.00 940.00 302.00" xmlns="http://www.w3.org/2000/svg" xmlns:xlink="http://www.w3.org/1999/xlink">
<g id="graph0" class="graph" transform="scale(1 1) rotate(0) translate(4 298)">
<title>filemanager.h</title>
<!-- Node1 -->
<g id="Node000001" class="node">
<title>Node1</title>
<g id="a_Node000001"><a xlink:title=" ">
<polygon fill="#999999" stroke="#666666" points="528.5,-294 445.5,-294 445.5,-275 528.5,-275 528.5,-294"/>
<text text-anchor="middle" x="487" y="-282" font-family="Helvetica,sans-Serif" font-size="10.00">filemanager.h</text>
</a>
</g>
</g>
<!-- Node2 -->
<g id="Node000002" class="node">
<title>Node2</title>
<g id="a_Node000002"><a xlink:href="medicalproduct_8h.html" target="_top" xlink:title=" ">
<polygon fill="white" stroke="#666666" points="392.5,-129 291.5,-129 291.5,-110 392.5,-110 392.5,-129"/>
<text text-anchor="middle" x="342" y="-117" font-family="Helvetica,sans-Serif" font-size="10.00">medicalproduct.h</text>
</a>
</g>
</g>
<!-- Node1&#45;&gt;Node2 -->
<g id="edge1_Node000001_Node000002" class="edge">
<title>Node1&#45;&gt;Node2</title>
<g id="a_edge1_Node000001_Node000002"><a xlink:title=" ">
<path fill="none" stroke="#63b8ff" d="M445.31,-278.06C401.52,-271.38 336.93,-258.49 322,-239 299.26,-209.32 318.16,-163.12 331.54,-138.08"/>
<polygon fill="#63b8ff" stroke="#63b8ff" points="334.62,-139.74 336.47,-129.31 328.52,-136.31 334.62,-139.74"/>
</a>
</g>
</g>
<!-- Node6 -->
<g id="Node000006" class="node">
<title>Node6</title>
<g id="a_Node000006"><a xlink:href="safedate_8h.html" target="_top" xlink:title=" ">
<polygon fill="white" stroke="#666666" points="475,-74 407,-74 407,-55 475,-55 475,-74"/>
<text text-anchor="middle" x="441" y="-62" font-family="Helvetica,sans-Serif" font-size="10.00">safedate.h</text>
</a>
</g>
</g>
<!-- Node1&#45;&gt;Node6 -->
<g id="edge46_Node000001_Node000006" class="edge">
<title>Node1&#45;&gt;Node6</title>
<g id="a_edge46_Node000001_Node000006"><a xlink:title=" ">
<path fill="none" stroke="#63b8ff" d="M528.53,-282.11C591.3,-279.05 705.69,-269.34 731,-239 752.07,-213.74 750.11,-191.76 731,-165 674.62,-86.05 551.54,-69.09 485.3,-65.86"/>
<polygon fill="#63b8ff" stroke="#63b8ff" points="485.31,-62.36 475.18,-65.45 485.03,-69.35 485.31,-62.36"/>
</a>
</g>
</g>
<!-- Node8 -->
<g id="Node000008" class="node">
<title>Node8</title>
<g id="a_Node000008"><a xlink:href="medicine_8h.html" target="_top" xlink:title=" ">
<polygon fill="white" stroke="#666666" points="235.5,-184 164.5,-184 164.5,-165 235.5,-165 235.5,-184"/>
<text text-anchor="middle" x="200" y="-172" font-family="Helvetica,sans-Serif" font-size="10.00">medicine.h</text>
</a>
</g>
</g>
<!-- Node1&#45;&gt;Node8 -->
<g id="edge9_Node000001_Node000008" class="edge">
<title>Node1&#45;&gt;Node8</title>
<g id="a_edge9_Node000001_Node000008"><a xlink:title=" ">
<path fill="none" stroke="#63b8ff" d="M445.44,-279.17C404.07,-273.73 339.5,-262.16 288,-239 261.07,-226.89 234.14,-205.82 217.3,-191.29"/>
<polygon fill="#63b8ff" stroke="#63b8ff" points="219.28,-188.37 209.46,-184.37 214.64,-193.61 219.28,-188.37"/>
</a>
</g>
</g>
<!-- Node9 -->
<g id="Node000009" class="node">
<title>Node9</title>
<g id="a_Node000009"><a xlink:title=" ">
<polygon fill="#e0e0e0" stroke="#999999" points="273.5,-129 226.5,-129 226.5,-110 273.5,-110 273.5,-129"/>
<text text-anchor="middle" x="250" y="-117" font-family="Helvetica,sans-Serif" font-size="10.00">vector</text>
</a>
</g>
</g>
<!-- Node1&#45;&gt;Node9 -->
<g id="edge42_Node000001_Node000009" class="edge">
<title>Node1&#45;&gt;Node9</title>
<g id="a_edge42_Node000001_Node000009"><a xlink:title=" ">
<path fill="none" stroke="#63b8ff" d="M445.12,-282.72C334.64,-280.23 41.83,-270.67 13,-239 -50.06,-169.74 137.11,-135.69 216.36,-124.66"/>
<polygon fill="#63b8ff" stroke="#63b8ff" points="216.91,-128.11 226.35,-123.31 215.97,-121.18 216.91,-128.11"/>
</a>
</g>
</g>
<!-- Node10 -->
<g id="Node000010" class="node">
<title>Node10</title>
<g id="a_Node000010"><a xlink:title=" ">
<polygon fill="#e0e0e0" stroke="#999999" points="469,-129 411,-129 411,-110 469,-110 469,-129"/>
<text text-anchor="middle" x="440" y="-117" font-family="Helvetica,sans-Serif" font-size="10.00">memory</text>
</a>
</g>
</g>
<!-- Node1&#45;&gt;Node10 -->
<g id="edge43_Node000001_Node000010" class="edge">
<title>Node1&#45;&gt;Node10</title>
<g id="a_edge43_Node000001_Node000010"><a xlink:title=" ">
<path fill="none" stroke="#63b8ff" d="M528.65,-279.81C579.38,-274.35 660.58,-262.17 679,-239 684.25,-232.39 682.52,-227.67 679,-220 663.35,-185.92 648.27,-182.3 615,-165 602.95,-158.74 527.03,-140.56 479.23,-129.47"/>
<polygon fill="#63b8ff" stroke="#63b8ff" points="479.73,-126 469.2,-127.15 478.15,-132.82 479.73,-126"/>
</a>
</g>
</g>
<!-- Node11 -->
<g id="Node000011" class="node">
<title>Node11</title>
<g id="a_Node000011"><a xlink:href="tablet_8h.html" target="_top" xlink:title=" ">
<polygon fill="white" stroke="#666666" points="76,-239 22,-239 22,-220 76,-220 76,-239"/>
<text text-anchor="middle" x="49" y="-227" font-family="Helvetica,sans-Serif" font-size="10.00">tablet.h</text>
</a>
</g>
</g>
<!-- Node1&#45;&gt;Node11 -->
<g id="edge14_Node000001_Node000011" class="edge">
<title>Node1&#45;&gt;Node11</title>
<g id="a_edge14_Node000001_Node000011"><a xlink:title=" ">
<path fill="none" stroke="#63b8ff" d="M445.39,-280.57C373.94,-275.18 223.2,-262.21 86.3,-239.02"/>
<polygon fill="#63b8ff" stroke="#63b8ff" points="86.5,-235.5 76.05,-237.26 85.32,-242.4 86.5,-235.5"/>
</a>
</g>
</g>
<!-- Node12 -->
<g id="Node000012" class="node">
<title>Node12</title>
<g id="a_Node000012"><a xlink:href="syrup_8h.html" target="_top" xlink:title=" ">
<polygon fill="white" stroke="#666666" points="147.5,-239 94.5,-239 94.5,-220 147.5,-220 147.5,-239"/>
<text text-anchor="middle" x="121" y="-227" font-family="Helvetica,sans-Serif" font-size="10.00">syrup.h</text>
</a>
</g>
</g>
<!-- Node1&#45;&gt;Node12 -->
<g id="edge17_Node000001_Node000012" class="edge">
<title>Node1&#45;&gt;Node12</title>
<g id="a_edge17_Node000001_Node000012"><a xlink:title=" ">
<path fill="none" stroke="#63b8ff" d="M445.38,-279.21C384.43,-272.64 267.16,-258.9 157.57,-238.93"/>
<polygon fill="#63b8ff" stroke="#63b8ff" points="158.14,-235.48 147.67,-237.1 156.87,-242.36 158.14,-235.48"/>
</a>
</g>
</g>
<!-- Node13 -->
<g id="Node000013" class="node">
<title>Node13</title>
<g id="a_Node000013"><a xlink:href="ointment_8h.html" target="_top" xlink:title=" ">
<polygon fill="white" stroke="#666666" points="236,-239 166,-239 166,-220 236,-220 236,-239"/>
<text text-anchor="middle" x="201" y="-227" font-family="Helvetica,sans-Serif" font-size="10.00">ointment.h</text>
</a>
</g>
</g>
<!-- Node1&#45;&gt;Node13 -->
<g id="edge19_Node000001_Node000013" class="edge">
<title>Node1&#45;&gt;Node13</title>
<g id="a_edge19_Node000001_Node000013"><a xlink:title=" ">
<path fill="none" stroke="#63b8ff" d="M445.41,-275.79C392.43,-265.98 301.19,-249.07 246.44,-238.92"/>
<polygon fill="#63b8ff" stroke="#63b8ff" points="246.79,-235.43 236.32,-237.05 245.52,-242.31 246.79,-235.43"/>
</a>
</g>
</g>
<!-- Node14 -->
<g id="Node000014" class="node">
<title>Node14</title>
<g id="a_Node000014"><a xlink:href="pharmacy_8h.html" target="_top" xlink:title=" ">
<polygon fill="white" stroke="#666666" points="403.5,-239 330.5,-239 330.5,-220 403.5,-220 403.5,-239"/>
<text text-anchor="middle" x="367" y="-227" font-family="Helvetica,sans-Serif" font-size="10.00">pharmacy.h</text>
</a>
</g>
</g>
<!-- Node1&#45;&gt;Node14 -->
<g id="edge21_Node000001_Node000014" class="edge">
<title>Node1&#45;&gt;Node14</title>
<g id="a_edge21_Node000001_Node000014"><a xlink:title=" ">
<path fill="none" stroke="#63b8ff" d="M467.72,-274.98C448.33,-266.42 418.19,-253.11 395.93,-243.28"/>
<polygon fill="#63b8ff" stroke="#63b8ff" points="397.19,-240.01 386.63,-239.17 394.36,-246.41 397.19,-240.01"/>
</a>
</g>
</g>
<!-- Node16 -->
<g id="Node000016" class="node">
<title>Node16</title>
<g id="a_Node000016"><a xlink:title=" ">
<polygon fill="#e0e0e0" stroke="#999999" points="525,-129 487,-129 487,-110 525,-110 525,-129"/>
<text text-anchor="middle" x="506" y="-117" font-family="Helvetica,sans-Serif" font-size="10.00">map</text>
</a>
</g>
</g>
<!-- Node1&#45;&gt;Node16 -->
<g id="edge41_Node000001_Node000016" class="edge">
<title>Node1&#45;&gt;Node16</title>
<g id="a_edge41_Node000001_Node000016"><a xlink:title=" ">
<path fill="none" stroke="#63b8ff" d="M528.7,-281.38C587.25,-277.44 689.25,-266.69 712,-239 732.88,-213.59 732.65,-190.59 712,-165 690.12,-137.89 586.78,-126.49 535.29,-122.43"/>
<polygon fill="#63b8ff" stroke="#63b8ff" points="535.38,-118.92 525.14,-121.67 534.85,-125.9 535.38,-118.92"/>
</a>
</g>
</g>
<!-- Node17 -->
<g id="Node000017" class="node">
<title>Node17</title>
<g id="a_Node000017"><a xlink:href="inventoryoperation_8h.html" target="_top" xlink:title=" ">
<polygon fill="white" stroke="#666666" points="605.5,-184 486.5,-184 486.5,-165 605.5,-165 605.5,-184"/>
<text text-anchor="middle" x="546" y="-172" font-family="Helvetica,sans-Serif" font-size="10.00">inventoryoperation.h</text>
</a>
</g>
</g>
<!-- Node1&#45;&gt;Node17 -->
<g id="edge31_Node000001_Node000017" class="edge">
<title>Node1&#45;&gt;Node17</title>
<g id="a_edge31_Node000001_Node000017"><a xlink:title=" ">
<path fill="none" stroke="#63b8ff" d="M518.04,-274.87C535.74,-268.18 556.45,-256.95 567,-239 575.61,-224.36 567.53,-205.72 559.01,-192.43"/>
<polygon fill="#63b8ff" stroke="#63b8ff" points="561.86,-190.39 553.25,-184.2 556.12,-194.4 561.86,-190.39"/>
</a>
</g>
</g>
<!-- Node18 -->
<g id="Node000018" class="node">
<title>Node18</title>
<g id="a_Node000018"><a xlink:href="supply_8h.html" target="_top" xlink:title=" ">
<polygon fill="white" stroke="#666666" points="670,-239 614,-239 614,-220 670,-220 670,-239"/>
<text text-anchor="middle" x="642" y="-227" font-family="Helvetica,sans-Serif" font-size="10.00">supply.h</text>
</a>
</g>
</g>
<!-- Node1&#45;&gt;Node18 -->
<g id="edge35_Node000001_Node000018" class="edge">
<title>Node1&#45;&gt;Node18</title>
<g id="a_edge35_Node000001_Node000018"><a xlink:title=" ">
<path fill="none" stroke="#63b8ff" d="M511.9,-274.98C537.7,-266.16 578.22,-252.31 607.18,-242.41"/>
<polygon fill="#63b8ff" stroke="#63b8ff" points="608.57,-245.63 616.9,-239.08 606.31,-239.01 608.57,-245.63"/>
</a>
</g>
</g>
<!-- Node19 -->
<g id="Node000019" class="node">
<title>Node19</title>
<g id="a_Node000019"><a xlink:href="return_8h.html" target="_top" xlink:title=" ">
<polygon fill="white" stroke="#666666" points="476.5,-239 421.5,-239 421.5,-220 476.5,-220 476.5,-239"/>
<text text-anchor="middle" x="449" y="-227" font-family="Helvetica,sans-Serif" font-size="10.00">return.h</text>
</a>
</g>
</g>
<!-- Node1&#45;&gt;Node19 -->
<g id="edge37_Node000001_Node000019" class="edge">
<title>Node1&#45;&gt;Node19</title>
<g id="a_edge37_Node000001_Node000019"><a xlink:title=" ">
<path fill="none" stroke="#63b8ff" d="M480.72,-274.75C475.41,-267.34 467.64,-256.5 461.12,-247.41"/>
<polygon fill="#63b8ff" stroke="#63b8ff" points="463.83,-245.18 455.16,-239.09 458.14,-249.26 463.83,-245.18"/>
</a>
</g>
</g>
<!-- Node20 -->
<g id="Node000020" class="node">
<title>Node20</title>
<g id="a_Node000020"><a xlink:href="writeoff_8h.html" target="_top" xlink:title=" ">
<polygon fill="white" stroke="#666666" points="557.5,-239 494.5,-239 494.5,-220 557.5,-220 557.5,-239"/>
<text text-anchor="middle" x="526" y="-227" font-family="Helvetica,sans-Serif" font-size="10.00">writeoff.h</text>
</a>
</g>
</g>
<!-- Node1&#45;&gt;Node20 -->
<g id="edge39_Node000001_Node000020" class="edge">
<title>Node1&#45;&gt;Node20</title>
<g id="a_edge39_Node000001_Node000020"><a xlink:title=" ">
<path fill="none" stroke="#63b8ff" d="M493.44,-274.75C498.89,-267.34 506.86,-256.5 513.55,-247.41"/>
<polygon fill="#63b8ff" stroke="#63b8ff" points="516.57,-249.22 519.68,-239.09 510.93,-245.07 516.57,-249.22"/>
</a>
</g>
</g>
<!-- Node21 -->
<g id="Node000021" class="node">
<title>Node21</title>
<g id="a_Node000021"><a xlink:title=" ">
<polygon fill="#e0e0e0" stroke="#999999" points="857.5,-239 802.5,-239 802.5,-220 857.5,-220 857.5,-239"/>
<text text-anchor="middle" x="830" y="-227" font-family="Helvetica,sans-Serif" font-size="10.00">fstream</text>
</a>
</g>
</g>
<!-- Node1&#45;&gt;Node21 -->
<g id="edge44_Node000001_Node000021" class="edge">
<title>Node1&#45;&gt;Node21</title>
<g id="a_edge44_Node000001_Node000021"><a xlink:title=" ">
<path fill="none" stroke="#63b8ff" d="M528.99,-278.01C587.26,-270.22 695.9,-255.12 788,-239 789.46,-238.74 790.96,-238.48 792.46,-238.2"/>
<polygon fill="#63b8ff" stroke="#63b8ff" points="793.31,-241.6 802.48,-236.29 792,-234.72 793.31,-241.6"/>
</a>
</g>
</g>
<!-- Node22 -->
<g id="Node000022" class="node">
<title>Node22</title>
<g id="a_Node000022"><a xlink:title=" ">
<polygon fill="#e0e0e0" stroke="#999999" points="932,-239 876,-239 876,-220 932,-220 932,-239"/>
<text text-anchor="middle" x="904" y="-227" font-family="Helvetica,sans-Serif" font-size="10.00">sstream</text>
</a>
</g>
</g>
<!-- Node1&#45;&gt;Node22 -->
<g id="edge45_Node000001_Node000022" class="edge">
<title>Node1&#45;&gt;Node22</title>
<g id="a_edge45_Node000001_Node000022"><a xlink:title=" ">
<path fill="none" stroke="#63b8ff" d="M528.54,-280.13C596.87,-274.27 737.4,-260.84 865.77,-239.04"/>
<polygon fill="#63b8ff" stroke="#63b8ff" points="866.52,-242.46 875.78,-237.32 865.33,-235.56 866.52,-242.46"/>
</a>
</g>
</g>
<!-- Node3 -->
<g id="Node000003" class="node">
<title>Node3</title>
<g id="a_Node000003"><a xlink:title=" ">
<polygon fill="#e0e0e0" stroke="#999999" points="77,-74 17,-74 17,-55 77,-55 77,-74"/>
<text text-anchor="middle" x="47" y="-62" font-family="Helvetica,sans-Serif" font-size="10.00">iostream</text>
</a>
</g>
</g>
<!-- Node2&#45;&gt;Node3 -->
<g id="edge2_Node000002_Node000003" class="edge">
<title>Node2&#45;&gt;Node3</title>
<g id="a_edge2_Node000002_Node000003"><a xlink:title=" ">
<path fill="none" stroke="#63b8ff" d="M294.6,-109.98C237.07,-99.65 141.07,-82.4 87.06,-72.7"/>
<polygon fill="#63b8ff" stroke="#63b8ff" points="87.63,-69.24 77.17,-70.92 86.39,-76.13 87.63,-69.24"/>
</a>
</g>
</g>
<!-- Node4 -->
<g id="Node000004" class="node">
<title>Node4</title>
<g id="a_Node000004"><a xlink:title=" ">
<polygon fill="#e0e0e0" stroke="#999999" points="333,-19 289,-19 289,0 333,0 333,-19"/>
<text text-anchor="middle" x="311" y="-7" font-family="Helvetica,sans-Serif" font-size="10.00">string</text>
</a>
</g>
</g>
<!-- Node2&#45;&gt;Node4 -->
<g id="edge3_Node000002_Node000004" class="edge">
<title>Node2&#45;&gt;Node4</title>
<g id="a_edge3_Node000002_Node000004"><a xlink:title=" ">
<path fill="none" stroke="#63b8ff" d="M339.46,-109.66C334.42,-92.09 323.04,-52.45 316.3,-28.95"/>
<polygon fill="#63b8ff" stroke="#63b8ff" points="319.61,-27.8 313.48,-19.16 312.88,-29.74 319.61,-27.8"/>
</a>
</g>
</g>
<!-- Node5 -->
<g id="Node000005" class="node">
<title>Node5</title>
<g id="a_Node000005"><a xlink:title=" ">
<polygon fill="#e0e0e0" stroke="#999999" points="395,-19 351,-19 351,0 395,0 395,-19"/>
<text text-anchor="middle" x="373" y="-7" font-family="Helvetica,sans-Serif" font-size="10.00">ctime</text>
</a>
</g>
</g>
<!-- Node2&#45;&gt;Node5 -->
<g id="edge4_Node000002_Node000005" class="edge">
<title>Node2&#45;&gt;Node5</title>
<g id="a_edge4_Node000002_Node000005"><a xlink:title=" ">
<path fill="none" stroke="#63b8ff" d="M344.54,-109.66C349.58,-92.09 360.96,-52.45 367.7,-28.95"/>
<polygon fill="#63b8ff" stroke="#63b8ff" points="371.12,-29.74 370.51,-19.16 364.39,-27.8 371.12,-29.74"/>
</a>
</g>
</g>
<!-- Node2&#45;&gt;Node6 -->
<g id="edge5_Node000002_Node000006" class="edge">
<title>Node2&#45;&gt;Node6</title>
<g id="a_edge5_Node000002_Node000006"><a xlink:title=" ">
<path fill="none" stroke="#63b8ff" d="M357.9,-109.98C373.54,-101.61 397.65,-88.7 415.88,-78.95"/>
<polygon fill="#63b8ff" stroke="#63b8ff" points="417.64,-81.98 424.8,-74.17 414.34,-75.8 417.64,-81.98"/>
</a>
</g>
</g>
<!-- Node6&#45;&gt;Node4 -->
<g id="edge8_Node000006_Node000004" class="edge">
<title>Node6&#45;&gt;Node4</title>
<g id="a_edge8_Node000006_Node000004"><a xlink:title=" ">
<path fill="none" stroke="#63b8ff" d="M420.11,-54.98C398.92,-46.34 365.87,-32.87 341.7,-23.02"/>
<polygon fill="#63b8ff" stroke="#63b8ff" points="342.85,-19.7 332.27,-19.17 340.2,-26.19 342.85,-19.7"/>
</a>
</g>
</g>
<!-- Node6&#45;&gt;Node5 -->
<g id="edge6_Node000006_Node000005" class="edge">
<title>Node6&#45;&gt;Node5</title>
<g id="a_edge6_Node000006_Node000005"><a xlink:title=" ">
<path fill="none" stroke="#63b8ff" d="M430.07,-54.98C419.92,-47.07 404.58,-35.11 392.35,-25.58"/>
<polygon fill="#63b8ff" stroke="#63b8ff" points="394.16,-22.56 384.12,-19.17 389.86,-28.08 394.16,-22.56"/>
</a>
</g>
</g>
<!-- Node7 -->
<g id="Node000007" class="node">
<title>Node7</title>
<g id="a_Node000007"><a xlink:title=" ">
<polygon fill="#e0e0e0" stroke="#999999" points="478.5,-19 413.5,-19 413.5,0 478.5,0 478.5,-19"/>
<text text-anchor="middle" x="446" y="-7" font-family="Helvetica,sans-Serif" font-size="10.00">stdexcept</text>
</a>
</g>
</g>
<!-- Node6&#45;&gt;Node7 -->
<g id="edge7_Node000006_Node000007" class="edge">
<title>Node6&#45;&gt;Node7</title>
<g id="a_edge7_Node000006_Node000007"><a xlink:title=" ">
<path fill="none" stroke="#63b8ff" d="M441.82,-54.75C442.48,-47.8 443.42,-37.85 444.24,-29.13"/>
<polygon fill="#63b8ff" stroke="#63b8ff" points="447.73,-29.37 445.19,-19.09 440.76,-28.72 447.73,-29.37"/>
</a>
</g>
</g>
<!-- Node8&#45;&gt;Node2 -->
<g id="edge10_Node000008_Node000002" class="edge">
<title>Node8&#45;&gt;Node2</title>
<g id="a_edge10_Node000008_Node000002"><a xlink:title=" ">
<path fill="none" stroke="#63b8ff" d="M222.81,-164.98C246.17,-156.27 282.7,-142.63 309.17,-132.75"/>
<polygon fill="#63b8ff" stroke="#63b8ff" points="310.62,-135.95 318.77,-129.17 308.18,-129.39 310.62,-135.95"/>
</a>
</g>
</g>
<!-- Node8&#45;&gt;Node4 -->
<g id="edge13_Node000008_Node000004" class="edge">
<title>Node8&#45;&gt;Node4</title>
<g id="a_edge13_Node000008_Node000004"><a xlink:title=" ">
<path fill="none" stroke="#63b8ff" d="M201.13,-164.78C203.08,-152.06 207.86,-127.96 218,-110 237.41,-75.62 271.07,-43.75 292.13,-25.75"/>
<polygon fill="#63b8ff" stroke="#63b8ff" points="294.62,-28.23 300.05,-19.13 290.13,-22.86 294.62,-28.23"/>
</a>
</g>
</g>
<!-- Node8&#45;&gt;Node9 -->
<g id="edge11_Node000008_Node000009" class="edge">
<title>Node8&#45;&gt;Node9</title>
<g id="a_edge11_Node000008_Node000009"><a xlink:title=" ">
<path fill="none" stroke="#63b8ff" d="M208.26,-164.75C215.46,-157.11 226.11,-145.82 234.84,-136.56"/>
<polygon fill="#63b8ff" stroke="#63b8ff" points="237.58,-138.76 241.9,-129.09 232.49,-133.96 237.58,-138.76"/>
</a>
</g>
</g>
<!-- Node8&#45;&gt;Node10 -->
<g id="edge12_Node000008_Node000010" class="edge">
<title>Node8&#45;&gt;Node10</title>
<g id="a_edge12_Node000008_Node000010"><a xlink:title=" ">
<path fill="none" stroke="#63b8ff" d="M235.77,-165.66C274.17,-157.23 337.26,-143.36 401.12,-129.19"/>
<polygon fill="#63b8ff" stroke="#63b8ff" points="401.95,-132.59 410.95,-127.01 400.43,-125.76 401.95,-132.59"/>
</a>
</g>
</g>
<!-- Node11&#45;&gt;Node3 -->
<g id="edge16_Node000011_Node000003" class="edge">
<title>Node11&#45;&gt;Node3</title>
<g id="a_edge16_Node000011_Node000003"><a xlink:title=" ">
<path fill="none" stroke="#63b8ff" d="M48.89,-219.74C48.58,-194.31 47.67,-120.08 47.23,-84.69"/>
<polygon fill="#63b8ff" stroke="#63b8ff" points="50.73,-84.26 47.11,-74.31 43.73,-84.35 50.73,-84.26"/>
</a>
</g>
</g>
<!-- Node11&#45;&gt;Node8 -->
<g id="edge15_Node000011_Node000008" class="edge">
<title>Node11&#45;&gt;Node8</title>
<g id="a_edge15_Node000011_Node000008"><a xlink:title=" ">
<path fill="none" stroke="#63b8ff" d="M73.26,-219.98C98.32,-211.19 137.63,-197.39 165.83,-187.49"/>
<polygon fill="#63b8ff" stroke="#63b8ff" points="167.02,-190.78 175.3,-184.17 164.7,-184.18 167.02,-190.78"/>
</a>
</g>
</g>
<!-- Node12&#45;&gt;Node8 -->
<g id="edge18_Node000012_Node000008" class="edge">
<title>Node12&#45;&gt;Node8</title>
<g id="a_edge18_Node000012_Node000008"><a xlink:title=" ">
<path fill="none" stroke="#63b8ff" d="M133.69,-219.98C145.83,-211.84 164.36,-199.41 178.75,-189.76"/>
<polygon fill="#63b8ff" stroke="#63b8ff" points="180.72,-192.65 187.07,-184.17 176.82,-186.84 180.72,-192.65"/>
</a>
</g>
</g>
<!-- Node13&#45;&gt;Node8 -->
<g id="edge20_Node000013_Node000008" class="edge">
<title>Node13&#45;&gt;Node8</title>
<g id="a_edge20_Node000013_Node000008"><a xlink:title=" ">
<path fill="none" stroke="#63b8ff" d="M200.83,-219.75C200.7,-212.8 200.51,-202.85 200.35,-194.13"/>
<polygon fill="#63b8ff" stroke="#63b8ff" points="203.85,-194.02 200.16,-184.09 196.85,-194.15 203.85,-194.02"/>
</a>
</g>
</g>
<!-- Node14&#45;&gt;Node2 -->
<g id="edge23_Node000014_Node000002" class="edge">
<title>Node14&#45;&gt;Node2</title>
<g id="a_edge23_Node000014_Node000002"><a xlink:title=" ">
<path fill="none" stroke="#63b8ff" d="M364.95,-219.66C360.89,-202.09 351.71,-162.45 346.27,-138.95"/>
<polygon fill="#63b8ff" stroke="#63b8ff" points="349.67,-138.11 344,-129.16 342.85,-139.69 349.67,-138.11"/>
</a>
</g>
</g>
<!-- Node14&#45;&gt;Node8 -->
<g id="edge22_Node000014_Node000008" class="edge">
<title>Node14&#45;&gt;Node8</title>
<g id="a_edge22_Node000014_Node000008"><a xlink:title=" ">
<path fill="none" stroke="#63b8ff" d="M340.17,-219.98C312.13,-211.09 267.95,-197.07 236.7,-187.15"/>
<polygon fill="#63b8ff" stroke="#63b8ff" points="237.63,-183.77 227.04,-184.08 235.51,-190.44 237.63,-183.77"/>
</a>
</g>
</g>
<!-- Node14&#45;&gt;Node9 -->
<g id="edge24_Node000014_Node000009" class="edge">
<title>Node14&#45;&gt;Node9</title>
<g id="a_edge24_Node000014_Node000009"><a xlink:title=" ">
<path fill="none" stroke="#63b8ff" d="M357.42,-219.66C337.61,-201.38 291.9,-159.18 266.97,-136.17"/>
<polygon fill="#63b8ff" stroke="#63b8ff" points="269.1,-133.37 259.38,-129.16 264.35,-138.51 269.1,-133.37"/>
</a>
</g>
</g>
<!-- Node14&#45;&gt;Node10 -->
<g id="edge25_Node000014_Node000010" class="edge">
<title>Node14&#45;&gt;Node10</title>
<g id="a_edge25_Node000014_Node000010"><a xlink:title=" ">
<path fill="none" stroke="#63b8ff" d="M392.76,-219.94C409.14,-213.02 429.06,-201.51 439,-184 446.66,-170.52 446.2,-152.69 444.24,-139.35"/>
<polygon fill="#63b8ff" stroke="#63b8ff" points="447.66,-138.59 442.38,-129.4 440.78,-139.88 447.66,-138.59"/>
</a>
</g>
</g>
<!-- Node15 -->
<g id="Node000015" class="node">
<title>Node15</title>
<g id="a_Node000015"><a xlink:href="storage_8h.html" target="_top" xlink:title=" ">
<polygon fill="white" stroke="#666666" points="430,-184 368,-184 368,-165 430,-165 430,-184"/>
<text text-anchor="middle" x="399" y="-172" font-family="Helvetica,sans-Serif" font-size="10.00">storage.h</text>
</a>
</g>
</g>
<!-- Node14&#45;&gt;Node15 -->
<g id="edge26_Node000014_Node000015" class="edge">
<title>Node14&#45;&gt;Node15</title>
<g id="a_edge26_Node000014_Node000015"><a xlink:title=" ">
<path fill="none" stroke="#63b8ff" d="M372.28,-219.75C376.71,-212.42 383.16,-201.73 388.62,-192.7"/>
<polygon fill="#63b8ff" stroke="#63b8ff" points="391.64,-194.46 393.81,-184.09 385.65,-190.84 391.64,-194.46"/>
</a>
</g>
</g>
<!-- Node15&#45;&gt;Node2 -->
<g id="edge27_Node000015_Node000002" class="edge">
<title>Node15&#45;&gt;Node2</title>
<g id="a_edge27_Node000015_Node000002"><a xlink:title=" ">
<path fill="none" stroke="#63b8ff" d="M389.84,-164.98C381.5,-157.23 368.97,-145.58 358.82,-136.14"/>
<polygon fill="#63b8ff" stroke="#63b8ff" points="361.03,-133.42 351.32,-129.17 356.26,-138.54 361.03,-133.42"/>
</a>
</g>
</g>
<!-- Node15&#45;&gt;Node9 -->
<g id="edge29_Node000015_Node000009" class="edge">
<title>Node15&#45;&gt;Node9</title>
<g id="a_edge29_Node000015_Node000009"><a xlink:title=" ">
<path fill="none" stroke="#63b8ff" d="M375.06,-164.98C350.3,-156.18 311.42,-142.35 283.59,-132.45"/>
<polygon fill="#63b8ff" stroke="#63b8ff" points="284.47,-129.05 273.88,-128.99 282.13,-135.64 284.47,-129.05"/>
</a>
</g>
</g>
<!-- Node15&#45;&gt;Node10 -->
<g id="edge30_Node000015_Node000010" class="edge">
<title>Node15&#45;&gt;Node10</title>
<g id="a_edge30_Node000015_Node000010"><a xlink:title=" ">
<path fill="none" stroke="#63b8ff" d="M405.77,-164.75C411.56,-157.26 420.06,-146.28 427.14,-137.13"/>
<polygon fill="#63b8ff" stroke="#63b8ff" points="430,-139.14 433.35,-129.09 424.47,-134.86 430,-139.14"/>
</a>
</g>
</g>
<!-- Node15&#45;&gt;Node16 -->
<g id="edge28_Node000015_Node000016" class="edge">
<title>Node15&#45;&gt;Node16</title>
<g id="a_edge28_Node000015_Node000016"><a xlink:title=" ">
<path fill="none" stroke="#63b8ff" d="M416.19,-164.98C433.25,-156.54 459.63,-143.47 479.39,-133.68"/>
<polygon fill="#63b8ff" stroke="#63b8ff" points="481.09,-136.75 488.49,-129.17 477.98,-130.47 481.09,-136.75"/>
</a>
</g>
</g>
<!-- Node17&#45;&gt;Node2 -->
<g id="edge32_Node000017_Node000002" class="edge">
<title>Node17&#45;&gt;Node2</title>
<g id="a_edge32_Node000017_Node000002"><a xlink:title=" ">
<path fill="none" stroke="#63b8ff" d="M513.22,-164.98C478.38,-155.93 423.13,-141.58 384.86,-131.64"/>
<polygon fill="#63b8ff" stroke="#63b8ff" points="385.59,-128.21 375.03,-129.08 383.83,-134.98 385.59,-128.21"/>
</a>
</g>
</g>
<!-- Node17&#45;&gt;Node6 -->
<g id="edge33_Node000017_Node000006" class="edge">
<title>Node17&#45;&gt;Node6</title>
<g id="a_edge33_Node000017_Node000006"><a xlink:title=" ">
<path fill="none" stroke="#63b8ff" d="M546.69,-164.71C547.26,-151.45 546.45,-126.19 534,-110 521.84,-94.2 502.66,-83.72 484.87,-76.93"/>
<polygon fill="#63b8ff" stroke="#63b8ff" points="485.78,-73.54 475.18,-73.53 483.45,-80.14 485.78,-73.54"/>
</a>
</g>
</g>
<!-- Node17&#45;&gt;Node10 -->
<g id="edge34_Node000017_Node000010" class="edge">
<title>Node17&#45;&gt;Node10</title>
<g id="a_edge34_Node000017_Node000010"><a xlink:title=" ">
<path fill="none" stroke="#63b8ff" d="M528.97,-164.98C512.07,-156.54 485.93,-143.47 466.35,-133.68"/>
<polygon fill="#63b8ff" stroke="#63b8ff" points="467.85,-130.51 457.34,-129.17 464.72,-136.77 467.85,-130.51"/>
</a>
</g>
</g>
<!-- Node18&#45;&gt;Node17 -->
<g id="edge36_Node000018_Node000017" class="edge">
<title>Node18&#45;&gt;Node17</title>
<g id="a_edge36_Node000018_Node000017"><a xlink:title=" ">
<path fill="none" stroke="#63b8ff" d="M626.57,-219.98C611.55,-211.69 588.46,-198.94 570.84,-189.22"/>
<polygon fill="#63b8ff" stroke="#63b8ff" points="572.15,-185.94 561.7,-184.17 568.77,-192.07 572.15,-185.94"/>
</a>
</g>
</g>
<!-- Node19&#45;&gt;Node17 -->
<g id="edge38_Node000019_Node000017" class="edge">
<title>Node19&#45;&gt;Node17</title>
<g id="a_edge38_Node000019_Node000017"><a xlink:title=" ">
<path fill="none" stroke="#63b8ff" d="M464.58,-219.98C479.77,-211.69 503.1,-198.94 520.9,-189.22"/>
<polygon fill="#63b8ff" stroke="#63b8ff" points="523.03,-192.04 530.13,-184.17 519.68,-185.89 523.03,-192.04"/>
</a>
</g>
</g>
<!-- Node20&#45;&gt;Node17 -->
<g id="edge40_Node000020_Node000017" class="edge">
<title>Node20&#45;&gt;Node17</title>
<g id="a_edge40_Node000020_Node000017"><a xlink:title=" ">
<path fill="none" stroke="#63b8ff" d="M529.3,-219.75C531.98,-212.65 535.85,-202.4 539.19,-193.56"/>
<polygon fill="#63b8ff" stroke="#63b8ff" points="542.5,-194.68 542.76,-184.09 535.95,-192.21 542.5,-194.68"/>
</a>
</g>
</g>
</g>
</svg>
