<?xml version="1.0" encoding="UTF-8" standalone="no"?>
<!DOCTYPE svg PUBLIC "-//W3C//DTD SVG 1.1//EN"
 "http://www.w3.org/Graphics/SVG/1.1/DTD/svg11.dtd">
<!-- Generated by graphviz version 2.43.0 (0)
 -->
<!-- Title: Exception/FileExceptions/FileOperationException.h Pages: 1 -->
<svg width="616pt" height="104pt"
 viewBox="0.00 0.00 616.00 104.00" xmlns="http://www.w3.org/2000/svg" xmlns:xlink="http://www.w3.org/1999/xlink">
<g id="graph0" class="graph" transform="scale(1 1) rotate(0) translate(4 100)">
<title>Exception/FileExceptions/FileOperationException.h</title>
<!-- Node1 -->
<g id="Node000001" class="node">
<title>Node1</title>
<g id="a_Node000001"><a xlink:title=" ">
<polygon fill="#999999" stroke="#666666" points="376,-96 234,-96 234,-66 376,-66 376,-96"/>
<text text-anchor="start" x="242" y="-84" font-family="Helvetica,sans-Serif" font-size="10.00">Exception/FileExceptions</text>
<text text-anchor="middle" x="305" y="-73" font-family="Helvetica,sans-Serif" font-size="10.00">/FileOperationException.h</text>
</a>
</g>
</g>
<!-- Node2 -->
<g id="Node000002" class="node">
<title>Node2</title>
<g id="a_Node000002"><a xlink:href="FileNotFoundException_8h.html" target="_top" xlink:title=" ">
<polygon fill="white" stroke="#666666" points="140,-30 0,-30 0,0 140,0 140,-30"/>
<text text-anchor="start" x="8" y="-18" font-family="Helvetica,sans-Serif" font-size="10.00">Exception/FileExceptions</text>
<text text-anchor="middle" x="70" y="-7" font-family="Helvetica,sans-Serif" font-size="10.00">/FileNotFoundException.h</text>
</a>
</g>
</g>
<!-- Node1&#45;&gt;Node2 -->
<g id="edge1_Node000001_Node000002" class="edge">
<title>Node1&#45;&gt;Node2</title>
<g id="a_edge1_Node000001_Node000002"><a xlink:title=" ">
<path fill="none" stroke="#63b8ff" d="M243.51,-63.25C205.54,-52.91 157.39,-39.8 121.45,-30.01"/>
<polygon fill="#63b8ff" stroke="#63b8ff" points="242.86,-66.7 253.43,-65.95 244.7,-59.95 242.86,-66.7"/>
</a>
</g>
</g>
<!-- Node3 -->
<g id="Node000003" class="node">
<title>Node3</title>
<g id="a_Node000003"><a xlink:href="FileParseException_8h.html" target="_top" xlink:title=" ">
<polygon fill="white" stroke="#666666" points="296,-30 158,-30 158,0 296,0 296,-30"/>
<text text-anchor="start" x="166" y="-18" font-family="Helvetica,sans-Serif" font-size="10.00">Exception/FileExceptions</text>
<text text-anchor="middle" x="227" y="-7" font-family="Helvetica,sans-Serif" font-size="10.00">/FileParseException.h</text>
</a>
</g>
</g>
<!-- Node1&#45;&gt;Node3 -->
<g id="edge2_Node000001_Node000003" class="edge">
<title>Node1&#45;&gt;Node3</title>
<g id="a_edge2_Node000001_Node000003"><a xlink:title=" ">
<path fill="none" stroke="#63b8ff" d="M279.65,-59.2C268.07,-49.7 254.65,-38.69 244.26,-30.16"/>
<polygon fill="#63b8ff" stroke="#63b8ff" points="277.74,-62.16 287.69,-65.8 282.18,-56.75 277.74,-62.16"/>
</a>
</g>
</g>
<!-- Node4 -->
<g id="Node000004" class="node">
<title>Node4</title>
<g id="a_Node000004"><a xlink:href="FileWriteException_8h.html" target="_top" xlink:title=" ">
<polygon fill="white" stroke="#666666" points="452,-30 314,-30 314,0 452,0 452,-30"/>
<text text-anchor="start" x="322" y="-18" font-family="Helvetica,sans-Serif" font-size="10.00">Exception/FileExceptions</text>
<text text-anchor="middle" x="383" y="-7" font-family="Helvetica,sans-Serif" font-size="10.00">/FileWriteException.h</text>
</a>
</g>
</g>
<!-- Node1&#45;&gt;Node4 -->
<g id="edge3_Node000001_Node000004" class="edge">
<title>Node1&#45;&gt;Node4</title>
<g id="a_edge3_Node000001_Node000004"><a xlink:title=" ">
<path fill="none" stroke="#63b8ff" d="M330.35,-59.2C341.93,-49.7 355.35,-38.69 365.74,-30.16"/>
<polygon fill="#63b8ff" stroke="#63b8ff" points="327.82,-56.75 322.31,-65.8 332.26,-62.16 327.82,-56.75"/>
</a>
</g>
</g>
<!-- Node5 -->
<g id="Node000005" class="node">
<title>Node5</title>
<g id="a_Node000005"><a xlink:href="SerializationException_8h.html" target="_top" xlink:title=" ">
<polygon fill="white" stroke="#666666" points="608,-30 470,-30 470,0 608,0 608,-30"/>
<text text-anchor="start" x="478" y="-18" font-family="Helvetica,sans-Serif" font-size="10.00">Exception/FileExceptions</text>
<text text-anchor="middle" x="539" y="-7" font-family="Helvetica,sans-Serif" font-size="10.00">/SerializationException.h</text>
</a>
</g>
</g>
<!-- Node1&#45;&gt;Node5 -->
<g id="edge4_Node000001_Node000005" class="edge">
<title>Node1&#45;&gt;Node5</title>
<g id="a_edge4_Node000001_Node000005"><a xlink:title=" ">
<path fill="none" stroke="#63b8ff" d="M366.23,-63.25C404.03,-52.91 451.98,-39.8 487.77,-30.01"/>
<polygon fill="#63b8ff" stroke="#63b8ff" points="365.07,-59.94 356.35,-65.95 366.92,-66.69 365.07,-59.94"/>
</a>
</g>
</g>
</g>
</svg>
