<?xml version="1.0" encoding="UTF-8" standalone="no"?>
<!DOCTYPE svg PUBLIC "-//W3C//DTD SVG 1.1//EN"
 "http://www.w3.org/Graphics/SVG/1.1/DTD/svg11.dtd">
<!-- Generated by graphviz version 2.43.0 (0)
 -->
<!-- Title: Иерархия классов. Графический вид. Pages: 1 -->
<svg width="834pt" height="397pt"
 viewBox="0.00 0.00 834.00 397.00" xmlns="http://www.w3.org/2000/svg" xmlns:xlink="http://www.w3.org/1999/xlink">
<g id="graph0" class="graph" transform="scale(1 1) rotate(0) translate(4 393)">
<title>Иерархия классов. Графический вид.</title>
<!-- Node0 -->
<g id="Node000000" class="node">
<title>Node0</title>
<g id="a_Node000000"><a xlink:title=" ">
<polygon fill="#e0e0e0" stroke="#999999" points="104,-148 0,-148 0,-129 104,-129 104,-148"/>
<text text-anchor="middle" x="52" y="-136" font-family="Helvetica,sans-Serif" font-size="10.00">std::runtime_error</text>
</a>
</g>
</g>
<!-- Node1 -->
<g id="Node000001" class="node">
<title>Node1</title>
<g id="a_Node000001"><a xlink:href="classPharmacyException.html" target="_top" xlink:title=" ">
<polygon fill="white" stroke="#666666" points="253,-148 140,-148 140,-129 253,-129 253,-148"/>
<text text-anchor="middle" x="196.5" y="-136" font-family="Helvetica,sans-Serif" font-size="10.00">PharmacyException</text>
</a>
</g>
</g>
<!-- Node0&#45;&gt;Node1 -->
<g id="edge15_Node000000_Node000001" class="edge">
<title>Node0&#45;&gt;Node1</title>
<g id="a_edge15_Node000000_Node000001"><a xlink:title=" ">
<path fill="none" stroke="#63b8ff" d="M114.32,-138.5C122.85,-138.5 131.57,-138.5 139.99,-138.5"/>
<polygon fill="#63b8ff" stroke="#63b8ff" points="114.04,-135 104.04,-138.5 114.04,-142 114.04,-135"/>
</a>
</g>
</g>
<!-- Node2 -->
<g id="Node000002" class="node">
<title>Node2</title>
<g id="a_Node000002"><a xlink:href="classFileOperationException.html" target="_top" xlink:title=" ">
<polygon fill="white" stroke="#666666" points="434.5,-315 304.5,-315 304.5,-296 434.5,-296 434.5,-315"/>
<text text-anchor="middle" x="369.5" y="-303" font-family="Helvetica,sans-Serif" font-size="10.00">FileOperationException</text>
</a>
</g>
</g>
<!-- Node1&#45;&gt;Node2 -->
<g id="edge16_Node000001_Node000002" class="edge">
<title>Node1&#45;&gt;Node2</title>
<g id="a_edge16_Node000001_Node000002"><a xlink:title=" ">
<path fill="none" stroke="#63b8ff" d="M214.66,-155.26C250.1,-189.87 330.41,-268.3 358.54,-295.77"/>
<polygon fill="#63b8ff" stroke="#63b8ff" points="217.03,-152.68 207.43,-148.2 212.14,-157.69 217.03,-152.68"/>
</a>
</g>
</g>
<!-- Node7 -->
<g id="Node000007" class="node">
<title>Node7</title>
<g id="a_Node000007"><a xlink:href="classInvalidOperationException.html" target="_top" xlink:title=" ">
<polygon fill="white" stroke="#666666" points="442.5,-204 296.5,-204 296.5,-185 442.5,-185 442.5,-204"/>
<text text-anchor="middle" x="369.5" y="-192" font-family="Helvetica,sans-Serif" font-size="10.00">InvalidOperationException</text>
</a>
</g>
</g>
<!-- Node1&#45;&gt;Node7 -->
<g id="edge21_Node000001_Node000007" class="edge">
<title>Node1&#45;&gt;Node7</title>
<g id="a_edge21_Node000001_Node000007"><a xlink:title=" ">
<path fill="none" stroke="#63b8ff" d="M227.06,-152.29C244.75,-160.16 267.84,-169.77 289,-176.5 298.98,-179.68 309.83,-182.52 320.22,-184.96"/>
<polygon fill="#63b8ff" stroke="#63b8ff" points="228.39,-149.05 217.84,-148.13 225.51,-155.43 228.39,-149.05"/>
</a>
</g>
</g>
<!-- Node8 -->
<g id="Node000008" class="node">
<title>Node8</title>
<g id="a_Node000008"><a xlink:href="classInventoryException.html" target="_top" xlink:title=" ">
<polygon fill="white" stroke="#666666" points="425,-167 314,-167 314,-148 425,-148 425,-167"/>
<text text-anchor="middle" x="369.5" y="-155" font-family="Helvetica,sans-Serif" font-size="10.00">InventoryException</text>
</a>
</g>
</g>
<!-- Node1&#45;&gt;Node8 -->
<g id="edge22_Node000001_Node000008" class="edge">
<title>Node1&#45;&gt;Node8</title>
<g id="a_edge22_Node000001_Node000008"><a xlink:title=" ">
<path fill="none" stroke="#63b8ff" d="M263.26,-145.81C279.97,-147.66 297.75,-149.64 313.84,-151.43"/>
<polygon fill="#63b8ff" stroke="#63b8ff" points="263.34,-142.29 253.02,-144.67 262.57,-149.25 263.34,-142.29"/>
</a>
</g>
</g>
<!-- Node12 -->
<g id="Node000012" class="node">
<title>Node12</title>
<g id="a_Node000012"><a xlink:href="classMedicalProductException.html" target="_top" xlink:title=" ">
<polygon fill="white" stroke="#666666" points="439.5,-130 299.5,-130 299.5,-111 439.5,-111 439.5,-130"/>
<text text-anchor="middle" x="369.5" y="-118" font-family="Helvetica,sans-Serif" font-size="10.00">MedicalProductException</text>
</a>
</g>
</g>
<!-- Node1&#45;&gt;Node12 -->
<g id="edge26_Node000001_Node000012" class="edge">
<title>Node1&#45;&gt;Node12</title>
<g id="a_edge26_Node000001_Node000012"><a xlink:title=" ">
<path fill="none" stroke="#63b8ff" d="M263.28,-131.58C275.14,-130.33 287.54,-129.02 299.49,-127.76"/>
<polygon fill="#63b8ff" stroke="#63b8ff" points="262.6,-128.13 253.02,-132.66 263.33,-135.09 262.6,-128.13"/>
</a>
</g>
</g>
<!-- Node19 -->
<g id="Node000019" class="node">
<title>Node19</title>
<g id="a_Node000019"><a xlink:href="classPharmacyOperationException.html" target="_top" xlink:title=" ">
<polygon fill="white" stroke="#666666" points="450,-93 289,-93 289,-74 450,-74 450,-93"/>
<text text-anchor="middle" x="369.5" y="-81" font-family="Helvetica,sans-Serif" font-size="10.00">PharmacyOperationException</text>
</a>
</g>
</g>
<!-- Node1&#45;&gt;Node19 -->
<g id="edge33_Node000001_Node000019" class="edge">
<title>Node1&#45;&gt;Node19</title>
<g id="a_edge33_Node000001_Node000019"><a xlink:title=" ">
<path fill="none" stroke="#63b8ff" d="M229.05,-124.82C246.51,-117.57 268.72,-108.88 289,-102.5 300.1,-99.01 312.25,-95.8 323.63,-93.06"/>
<polygon fill="#63b8ff" stroke="#63b8ff" points="227.24,-121.79 219.38,-128.89 229.95,-128.24 227.24,-121.79"/>
</a>
</g>
</g>
<!-- Node20 -->
<g id="Node000020" class="node">
<title>Node20</title>
<g id="a_Node000020"><a xlink:href="classSupplyChainException.html" target="_top" xlink:title=" ">
<polygon fill="white" stroke="#666666" points="432,-56 307,-56 307,-37 432,-37 432,-56"/>
<text text-anchor="middle" x="369.5" y="-44" font-family="Helvetica,sans-Serif" font-size="10.00">SupplyChainException</text>
</a>
</g>
</g>
<!-- Node1&#45;&gt;Node20 -->
<g id="edge34_Node000001_Node000020" class="edge">
<title>Node1&#45;&gt;Node20</title>
<g id="a_edge34_Node000001_Node000020"><a xlink:title=" ">
<path fill="none" stroke="#63b8ff" d="M214.17,-121.37C231.4,-104.66 259.81,-79.75 289,-65.5 296.91,-61.64 305.65,-58.54 314.35,-56.05"/>
<polygon fill="#63b8ff" stroke="#63b8ff" points="211.29,-119.3 206.66,-128.83 216.22,-124.27 211.29,-119.3"/>
</a>
</g>
</g>
<!-- Node3 -->
<g id="Node000003" class="node">
<title>Node3</title>
<g id="a_Node000003"><a xlink:href="classFileNotFoundException.html" target="_top" xlink:title=" ">
<polygon fill="white" stroke="#666666" points="630.5,-389 502.5,-389 502.5,-370 630.5,-370 630.5,-389"/>
<text text-anchor="middle" x="566.5" y="-377" font-family="Helvetica,sans-Serif" font-size="10.00">FileNotFoundException</text>
</a>
</g>
</g>
<!-- Node2&#45;&gt;Node3 -->
<g id="edge17_Node000002_Node000003" class="edge">
<title>Node2&#45;&gt;Node3</title>
<g id="a_edge17_Node000002_Node000003"><a xlink:title=" ">
<path fill="none" stroke="#63b8ff" d="M395.95,-319.94C418.88,-332.44 453.84,-350.23 486,-361.5 495.35,-364.78 505.53,-367.61 515.39,-369.99"/>
<polygon fill="#63b8ff" stroke="#63b8ff" points="397.64,-316.88 387.2,-315.11 394.26,-323.01 397.64,-316.88"/>
</a>
</g>
</g>
<!-- Node4 -->
<g id="Node000004" class="node">
<title>Node4</title>
<g id="a_Node000004"><a xlink:href="classFileParseException.html" target="_top" xlink:title=" ">
<polygon fill="white" stroke="#666666" points="620.5,-352 512.5,-352 512.5,-333 620.5,-333 620.5,-352"/>
<text text-anchor="middle" x="566.5" y="-340" font-family="Helvetica,sans-Serif" font-size="10.00">FileParseException</text>
</a>
</g>
</g>
<!-- Node2&#45;&gt;Node4 -->
<g id="edge18_Node000002_Node000004" class="edge">
<title>Node2&#45;&gt;Node4</title>
<g id="a_edge18_Node000002_Node000004"><a xlink:title=" ">
<path fill="none" stroke="#63b8ff" d="M430.84,-316.95C457.86,-322.08 489.37,-328.06 515.11,-332.94"/>
<polygon fill="#63b8ff" stroke="#63b8ff" points="431.19,-313.45 420.72,-315.03 429.89,-320.33 431.19,-313.45"/>
</a>
</g>
</g>
<!-- Node5 -->
<g id="Node000005" class="node">
<title>Node5</title>
<g id="a_Node000005"><a xlink:href="classFileWriteException.html" target="_top" xlink:title=" ">
<polygon fill="white" stroke="#666666" points="620.5,-315 512.5,-315 512.5,-296 620.5,-296 620.5,-315"/>
<text text-anchor="middle" x="566.5" y="-303" font-family="Helvetica,sans-Serif" font-size="10.00">FileWriteException</text>
</a>
</g>
</g>
<!-- Node2&#45;&gt;Node5 -->
<g id="edge19_Node000002_Node000005" class="edge">
<title>Node2&#45;&gt;Node5</title>
<g id="a_edge19_Node000002_Node000005"><a xlink:title=" ">
<path fill="none" stroke="#63b8ff" d="M444.82,-305.5C467.33,-305.5 491.59,-305.5 512.41,-305.5"/>
<polygon fill="#63b8ff" stroke="#63b8ff" points="444.62,-302 434.62,-305.5 444.62,-309 444.62,-302"/>
</a>
</g>
</g>
<!-- Node6 -->
<g id="Node000006" class="node">
<title>Node6</title>
<g id="a_Node000006"><a xlink:href="classSerializationException.html" target="_top" xlink:title=" ">
<polygon fill="white" stroke="#666666" points="629,-278 504,-278 504,-259 629,-259 629,-278"/>
<text text-anchor="middle" x="566.5" y="-266" font-family="Helvetica,sans-Serif" font-size="10.00">SerializationException</text>
</a>
</g>
</g>
<!-- Node2&#45;&gt;Node6 -->
<g id="edge20_Node000002_Node000006" class="edge">
<title>Node2&#45;&gt;Node6</title>
<g id="a_edge20_Node000002_Node000006"><a xlink:title=" ">
<path fill="none" stroke="#63b8ff" d="M430.84,-294.05C457.86,-288.92 489.37,-282.94 515.11,-278.06"/>
<polygon fill="#63b8ff" stroke="#63b8ff" points="429.89,-290.67 420.72,-295.97 431.19,-297.55 429.89,-290.67"/>
</a>
</g>
</g>
<!-- Node9 -->
<g id="Node000009" class="node">
<title>Node9</title>
<g id="a_Node000009"><a xlink:href="classInsufficientQuantityException.html" target="_top" xlink:title=" ">
<polygon fill="white" stroke="#666666" points="647,-241 486,-241 486,-222 647,-222 647,-241"/>
<text text-anchor="middle" x="566.5" y="-229" font-family="Helvetica,sans-Serif" font-size="10.00">InsufficientQuantityException</text>
</a>
</g>
</g>
<!-- Node8&#45;&gt;Node9 -->
<g id="edge23_Node000008_Node000009" class="edge">
<title>Node8&#45;&gt;Node9</title>
<g id="a_edge23_Node000008_Node000009"><a xlink:title=" ">
<path fill="none" stroke="#63b8ff" d="M434.76,-169.46C440.06,-171.45 445.22,-173.78 450,-176.5 469.95,-187.84 465.99,-202.28 486,-213.5 492.05,-216.89 498.69,-219.64 505.49,-221.88"/>
<polygon fill="#63b8ff" stroke="#63b8ff" points="435.69,-166.07 425.09,-166.21 433.46,-172.71 435.69,-166.07"/>
</a>
</g>
</g>
<!-- Node10 -->
<g id="Node000010" class="node">
<title>Node10</title>
<g id="a_Node000010"><a xlink:href="classNegativeQuantityException.html" target="_top" xlink:title=" ">
<polygon fill="white" stroke="#666666" points="642,-204 491,-204 491,-185 642,-185 642,-204"/>
<text text-anchor="middle" x="566.5" y="-192" font-family="Helvetica,sans-Serif" font-size="10.00">NegativeQuantityException</text>
</a>
</g>
</g>
<!-- Node8&#45;&gt;Node10 -->
<g id="edge24_Node000008_Node000010" class="edge">
<title>Node8&#45;&gt;Node10</title>
<g id="a_edge24_Node000008_Node000010"><a xlink:title=" ">
<path fill="none" stroke="#63b8ff" d="M430.84,-168.95C457.86,-174.08 489.37,-180.06 515.11,-184.94"/>
<polygon fill="#63b8ff" stroke="#63b8ff" points="431.19,-165.45 420.72,-167.03 429.89,-172.33 431.19,-165.45"/>
</a>
</g>
</g>
<!-- Node11 -->
<g id="Node000011" class="node">
<title>Node11</title>
<g id="a_Node000011"><a xlink:href="classStorageOperationException.html" target="_top" xlink:title=" ">
<polygon fill="white" stroke="#666666" points="641.5,-167 491.5,-167 491.5,-148 641.5,-148 641.5,-167"/>
<text text-anchor="middle" x="566.5" y="-155" font-family="Helvetica,sans-Serif" font-size="10.00">StorageOperationException</text>
</a>
</g>
</g>
<!-- Node8&#45;&gt;Node11 -->
<g id="edge25_Node000008_Node000011" class="edge">
<title>Node8&#45;&gt;Node11</title>
<g id="a_edge25_Node000008_Node000011"><a xlink:title=" ">
<path fill="none" stroke="#63b8ff" d="M435.15,-157.5C453.12,-157.5 472.78,-157.5 491.25,-157.5"/>
<polygon fill="#63b8ff" stroke="#63b8ff" points="435.08,-154 425.08,-157.5 435.08,-161 435.08,-154"/>
</a>
</g>
</g>
<!-- Node13 -->
<g id="Node000013" class="node">
<title>Node13</title>
<g id="a_Node000013"><a xlink:href="classDuplicateProductException.html" target="_top" xlink:title=" ">
<polygon fill="white" stroke="#666666" points="640.5,-130 492.5,-130 492.5,-111 640.5,-111 640.5,-130"/>
<text text-anchor="middle" x="566.5" y="-118" font-family="Helvetica,sans-Serif" font-size="10.00">DuplicateProductException</text>
</a>
</g>
</g>
<!-- Node12&#45;&gt;Node13 -->
<g id="edge27_Node000012_Node000013" class="edge">
<title>Node12&#45;&gt;Node13</title>
<g id="a_edge27_Node000012_Node000013"><a xlink:title=" ">
<path fill="none" stroke="#63b8ff" d="M449.67,-120.5C463.75,-120.5 478.36,-120.5 492.27,-120.5"/>
<polygon fill="#63b8ff" stroke="#63b8ff" points="449.52,-117 439.52,-120.5 449.52,-124 449.52,-117"/>
</a>
</g>
</g>
<!-- Node14 -->
<g id="Node000014" class="node">
<title>Node14</title>
<g id="a_Node000014"><a xlink:href="classExpiredProductException.html" target="_top" xlink:title=" ">
<polygon fill="white" stroke="#666666" points="635.5,-93 497.5,-93 497.5,-74 635.5,-74 635.5,-93"/>
<text text-anchor="middle" x="566.5" y="-81" font-family="Helvetica,sans-Serif" font-size="10.00">ExpiredProductException</text>
</a>
</g>
</g>
<!-- Node12&#45;&gt;Node14 -->
<g id="edge28_Node000012_Node000014" class="edge">
<title>Node12&#45;&gt;Node14</title>
<g id="a_edge28_Node000012_Node000014"><a xlink:title=" ">
<path fill="none" stroke="#63b8ff" d="M430.84,-109.05C457.86,-103.92 489.37,-97.94 515.11,-93.06"/>
<polygon fill="#63b8ff" stroke="#63b8ff" points="429.89,-105.67 420.72,-110.97 431.19,-112.55 429.89,-105.67"/>
</a>
</g>
</g>
<!-- Node15 -->
<g id="Node000015" class="node">
<title>Node15</title>
<g id="a_Node000015"><a xlink:href="classInvalidProductDataException.html" target="_top" xlink:title=" ">
<polygon fill="white" stroke="#666666" points="645.5,-56 487.5,-56 487.5,-37 645.5,-37 645.5,-56"/>
<text text-anchor="middle" x="566.5" y="-44" font-family="Helvetica,sans-Serif" font-size="10.00">InvalidProductDataException</text>
</a>
</g>
</g>
<!-- Node12&#45;&gt;Node15 -->
<g id="edge29_Node000012_Node000015" class="edge">
<title>Node12&#45;&gt;Node15</title>
<g id="a_edge29_Node000012_Node000015"><a xlink:title=" ">
<path fill="none" stroke="#63b8ff" d="M439.92,-107.38C443.4,-105.92 446.79,-104.3 450,-102.5 470.01,-91.28 466.05,-76.84 486,-65.5 492.79,-61.64 500.32,-58.57 507.98,-56.11"/>
<polygon fill="#63b8ff" stroke="#63b8ff" points="438.67,-104.11 430.51,-110.88 441.11,-110.67 438.67,-104.11"/>
</a>
</g>
</g>
<!-- Node18 -->
<g id="Node000018" class="node">
<title>Node18</title>
<g id="a_Node000018"><a xlink:href="classProductNotFoundException.html" target="_top" xlink:title=" ">
<polygon fill="white" stroke="#666666" points="640.5,-19 492.5,-19 492.5,0 640.5,0 640.5,-19"/>
<text text-anchor="middle" x="566.5" y="-7" font-family="Helvetica,sans-Serif" font-size="10.00">ProductNotFoundException</text>
</a>
</g>
</g>
<!-- Node12&#45;&gt;Node18 -->
<g id="edge32_Node000012_Node000018" class="edge">
<title>Node12&#45;&gt;Node18</title>
<g id="a_edge32_Node000012_Node000018"><a xlink:title=" ">
<path fill="none" stroke="#63b8ff" d="M445.06,-106.01C446.77,-104.92 448.42,-103.75 450,-102.5 478.66,-79.78 457.48,-51.39 486,-28.5 490.76,-24.68 496.16,-21.61 501.86,-19.14"/>
<polygon fill="#63b8ff" stroke="#63b8ff" points="443.24,-103.02 436.1,-110.84 446.56,-109.18 443.24,-103.02"/>
</a>
</g>
</g>
<!-- Node16 -->
<g id="Node000016" class="node">
<title>Node16</title>
<g id="a_Node000016"><a xlink:href="classInvalidPriceException.html" target="_top" xlink:title=" ">
<polygon fill="white" stroke="#666666" points="815.5,-74 693.5,-74 693.5,-55 815.5,-55 815.5,-74"/>
<text text-anchor="middle" x="754.5" y="-62" font-family="Helvetica,sans-Serif" font-size="10.00">InvalidPriceException</text>
</a>
</g>
</g>
<!-- Node15&#45;&gt;Node16 -->
<g id="edge30_Node000015_Node000016" class="edge">
<title>Node15&#45;&gt;Node16</title>
<g id="a_edge30_Node000015_Node000016"><a xlink:title=" ">
<path fill="none" stroke="#63b8ff" d="M655.76,-55.04C668.53,-56.28 681.41,-57.52 693.44,-58.69"/>
<polygon fill="#63b8ff" stroke="#63b8ff" points="655.86,-51.53 645.57,-54.06 655.19,-58.5 655.86,-51.53"/>
</a>
</g>
</g>
<!-- Node17 -->
<g id="Node000017" class="node">
<title>Node17</title>
<g id="a_Node000017"><a xlink:href="classInvalidProductIdException.html" target="_top" xlink:title=" ">
<polygon fill="white" stroke="#666666" points="826,-37 683,-37 683,-18 826,-18 826,-37"/>
<text text-anchor="middle" x="754.5" y="-25" font-family="Helvetica,sans-Serif" font-size="10.00">InvalidProductIdException</text>
</a>
</g>
</g>
<!-- Node15&#45;&gt;Node17 -->
<g id="edge31_Node000015_Node000017" class="edge">
<title>Node15&#45;&gt;Node17</title>
<g id="a_edge31_Node000015_Node000017"><a xlink:title=" ">
<path fill="none" stroke="#63b8ff" d="M655.75,-37.49C664.8,-36.56 673.91,-35.63 682.74,-34.73"/>
<polygon fill="#63b8ff" stroke="#63b8ff" points="655.16,-34.03 645.57,-38.52 655.88,-40.99 655.16,-34.03"/>
</a>
</g>
</g>
</g>
</svg>
