<?xml version="1.0" encoding="UTF-8" standalone="no"?>
<!DOCTYPE svg PUBLIC "-//W3C//DTD SVG 1.1//EN"
 "http://www.w3.org/Graphics/SVG/1.1/DTD/svg11.dtd">
<!-- Generated by graphviz version 2.43.0 (0)
 -->
<!-- Title: Иерархия классов. Графический вид. Pages: 1 -->
<svg width="295pt" height="101pt"
 viewBox="0.00 0.00 295.00 101.00" xmlns="http://www.w3.org/2000/svg" xmlns:xlink="http://www.w3.org/1999/xlink">
<g id="graph0" class="graph" transform="scale(1 1) rotate(0) translate(4 97)">
<title>Иерархия классов. Графический вид.</title>
<!-- Node0 -->
<g id="Node000000" class="node">
<title>Node0</title>
<g id="a_Node000000"><a xlink:href="classMedicalProduct.html" target="_top" xlink:title=" ">
<polygon fill="white" stroke="#666666" points="92,-56 0,-56 0,-37 92,-37 92,-56"/>
<text text-anchor="middle" x="46" y="-44" font-family="Helvetica,sans-Serif" font-size="10.00">MedicalProduct</text>
</a>
</g>
</g>
<!-- Node1 -->
<g id="Node000001" class="node">
<title>Node1</title>
<g id="a_Node000001"><a xlink:href="classMedicine.html" target="_top" xlink:title=" ">
<polygon fill="white" stroke="#666666" points="189,-56 128,-56 128,-37 189,-37 189,-56"/>
<text text-anchor="middle" x="158.5" y="-44" font-family="Helvetica,sans-Serif" font-size="10.00">Medicine</text>
</a>
</g>
</g>
<!-- Node0&#45;&gt;Node1 -->
<g id="edge4_Node000000_Node000001" class="edge">
<title>Node0&#45;&gt;Node1</title>
<g id="a_edge4_Node000000_Node000001"><a xlink:title=" ">
<path fill="none" stroke="#63b8ff" d="M102.52,-46.5C111.31,-46.5 120.08,-46.5 127.95,-46.5"/>
<polygon fill="#63b8ff" stroke="#63b8ff" points="102.26,-43 92.26,-46.5 102.26,-50 102.26,-43"/>
</a>
</g>
</g>
<!-- Node2 -->
<g id="Node000002" class="node">
<title>Node2</title>
<g id="a_Node000002"><a xlink:href="classOintment.html" target="_top" xlink:title=" ">
<polygon fill="white" stroke="#666666" points="287,-93 225,-93 225,-74 287,-74 287,-93"/>
<text text-anchor="middle" x="256" y="-81" font-family="Helvetica,sans-Serif" font-size="10.00">Ointment</text>
</a>
</g>
</g>
<!-- Node1&#45;&gt;Node2 -->
<g id="edge5_Node000001_Node000002" class="edge">
<title>Node1&#45;&gt;Node2</title>
<g id="a_edge5_Node000001_Node000002"><a xlink:title=" ">
<path fill="none" stroke="#63b8ff" d="M193.46,-59.66C205.56,-64.35 218.96,-69.54 230.16,-73.88"/>
<polygon fill="#63b8ff" stroke="#63b8ff" points="194.68,-56.38 184.09,-56.03 192.15,-62.9 194.68,-56.38"/>
</a>
</g>
</g>
<!-- Node3 -->
<g id="Node000003" class="node">
<title>Node3</title>
<g id="a_Node000003"><a xlink:href="classSyrup.html" target="_top" xlink:title=" ">
<polygon fill="white" stroke="#666666" points="278,-56 234,-56 234,-37 278,-37 278,-56"/>
<text text-anchor="middle" x="256" y="-44" font-family="Helvetica,sans-Serif" font-size="10.00">Syrup</text>
</a>
</g>
</g>
<!-- Node1&#45;&gt;Node3 -->
<g id="edge6_Node000001_Node000003" class="edge">
<title>Node1&#45;&gt;Node3</title>
<g id="a_edge6_Node000001_Node000003"><a xlink:title=" ">
<path fill="none" stroke="#63b8ff" d="M199.34,-46.5C211.17,-46.5 223.67,-46.5 233.81,-46.5"/>
<polygon fill="#63b8ff" stroke="#63b8ff" points="199.19,-43 189.19,-46.5 199.19,-50 199.19,-43"/>
</a>
</g>
</g>
<!-- Node4 -->
<g id="Node000004" class="node">
<title>Node4</title>
<g id="a_Node000004"><a xlink:href="classTablet.html" target="_top" xlink:title=" ">
<polygon fill="white" stroke="#666666" points="279,-19 233,-19 233,0 279,0 279,-19"/>
<text text-anchor="middle" x="256" y="-7" font-family="Helvetica,sans-Serif" font-size="10.00">Tablet</text>
</a>
</g>
</g>
<!-- Node1&#45;&gt;Node4 -->
<g id="edge7_Node000001_Node000004" class="edge">
<title>Node1&#45;&gt;Node4</title>
<g id="a_edge7_Node000001_Node000004"><a xlink:title=" ">
<path fill="none" stroke="#63b8ff" d="M193.68,-33.26C206.69,-28.22 221.16,-22.61 232.78,-18.11"/>
<polygon fill="#63b8ff" stroke="#63b8ff" points="192.15,-30.1 184.09,-36.97 194.68,-36.62 192.15,-30.1"/>
</a>
</g>
</g>
</g>
</svg>
