<?xml version="1.0" encoding="UTF-8" standalone="no"?>
<!DOCTYPE svg PUBLIC "-//W3C//DTD SVG 1.1//EN"
 "http://www.w3.org/Graphics/SVG/1.1/DTD/svg11.dtd">
<!-- Generated by graphviz version 2.43.0 (0)
 -->
<!-- Title: Иерархия классов. Графический вид. Pages: 1 -->
<svg width="204pt" height="212pt"
 viewBox="0.00 0.00 204.00 212.00" xmlns="http://www.w3.org/2000/svg" xmlns:xlink="http://www.w3.org/1999/xlink">
<g id="graph0" class="graph" transform="scale(1 1) rotate(0) translate(4 208)">
<title>Иерархия классов. Графический вид.</title>
<!-- Node0 -->
<g id="Node000000" class="node">
<title>Node0</title>
<g id="a_Node000000"><a xlink:title=" ">
<polygon fill="#e0e0e0" stroke="#999999" points="56,-111 0,-111 0,-92 56,-92 56,-111"/>
<text text-anchor="middle" x="28" y="-99" font-family="Helvetica,sans-Serif" font-size="10.00">QDialog</text>
</a>
</g>
</g>
<!-- Node1 -->
<g id="Node000001" class="node">
<title>Node1</title>
<g id="a_Node000001"><a xlink:href="classAddProductDialog.html" target="_top" xlink:title=" ">
<polygon fill="white" stroke="#666666" points="196,-204 92,-204 92,-185 196,-185 196,-204"/>
<text text-anchor="middle" x="144" y="-192" font-family="Helvetica,sans-Serif" font-size="10.00">AddProductDialog</text>
</a>
</g>
</g>
<!-- Node0&#45;&gt;Node1 -->
<g id="edge8_Node000000_Node000001" class="edge">
<title>Node0&#45;&gt;Node1</title>
<g id="a_edge8_Node000000_Node000001"><a xlink:title=" ">
<path fill="none" stroke="#63b8ff" d="M40.14,-119.67C51.34,-136.55 70.06,-161.31 92,-176.5 96.86,-179.87 102.42,-182.67 108.04,-184.98"/>
<polygon fill="#63b8ff" stroke="#63b8ff" points="43.07,-117.75 34.72,-111.22 37.17,-121.52 43.07,-117.75"/>
</a>
</g>
</g>
<!-- Node2 -->
<g id="Node000002" class="node">
<title>Node2</title>
<g id="a_Node000002"><a xlink:href="classAnaloguesDialog.html" target="_top" xlink:title=" ">
<polygon fill="white" stroke="#666666" points="193.5,-167 94.5,-167 94.5,-148 193.5,-148 193.5,-167"/>
<text text-anchor="middle" x="144" y="-155" font-family="Helvetica,sans-Serif" font-size="10.00">AnaloguesDialog</text>
</a>
</g>
</g>
<!-- Node0&#45;&gt;Node2 -->
<g id="edge9_Node000000_Node000002" class="edge">
<title>Node0&#45;&gt;Node2</title>
<g id="a_edge9_Node000000_Node000002"><a xlink:title=" ">
<path fill="none" stroke="#63b8ff" d="M51.73,-116.75C63.45,-124.21 78.15,-132.96 92,-139.5 98.54,-142.59 105.76,-145.44 112.66,-147.93"/>
<polygon fill="#63b8ff" stroke="#63b8ff" points="53.34,-113.63 43.05,-111.12 49.53,-119.5 53.34,-113.63"/>
</a>
</g>
</g>
<!-- Node3 -->
<g id="Node000003" class="node">
<title>Node3</title>
<g id="a_Node000003"><a xlink:href="classAvailabilityDialog.html" target="_top" xlink:title=" ">
<polygon fill="white" stroke="#666666" points="195.5,-130 92.5,-130 92.5,-111 195.5,-111 195.5,-130"/>
<text text-anchor="middle" x="144" y="-118" font-family="Helvetica,sans-Serif" font-size="10.00">AvailabilityDialog</text>
</a>
</g>
</g>
<!-- Node0&#45;&gt;Node3 -->
<g id="edge10_Node000000_Node000003" class="edge">
<title>Node0&#45;&gt;Node3</title>
<g id="a_edge10_Node000000_Node000003"><a xlink:title=" ">
<path fill="none" stroke="#63b8ff" d="M65.95,-107.66C74.42,-109.07 83.56,-110.59 92.49,-112.08"/>
<polygon fill="#63b8ff" stroke="#63b8ff" points="66.46,-104.19 56.02,-106 65.3,-111.1 66.46,-104.19"/>
</a>
</g>
</g>
<!-- Node4 -->
<g id="Node000004" class="node">
<title>Node4</title>
<g id="a_Node000004"><a xlink:href="classReturnsDialog.html" target="_top" xlink:title=" ">
<polygon fill="white" stroke="#666666" points="187,-93 101,-93 101,-74 187,-74 187,-93"/>
<text text-anchor="middle" x="144" y="-81" font-family="Helvetica,sans-Serif" font-size="10.00">ReturnsDialog</text>
</a>
</g>
</g>
<!-- Node0&#45;&gt;Node4 -->
<g id="edge11_Node000000_Node000004" class="edge">
<title>Node0&#45;&gt;Node4</title>
<g id="a_edge11_Node000000_Node000004"><a xlink:title=" ">
<path fill="none" stroke="#63b8ff" d="M66.15,-95.63C77.15,-93.9 89.27,-91.98 100.58,-90.2"/>
<polygon fill="#63b8ff" stroke="#63b8ff" points="65.35,-92.22 56.02,-97.23 66.44,-99.13 65.35,-92.22"/>
</a>
</g>
</g>
<!-- Node5 -->
<g id="Node000005" class="node">
<title>Node5</title>
<g id="a_Node000005"><a xlink:href="classSuppliesDialog.html" target="_top" xlink:title=" ">
<polygon fill="white" stroke="#666666" points="188.5,-56 99.5,-56 99.5,-37 188.5,-37 188.5,-56"/>
<text text-anchor="middle" x="144" y="-44" font-family="Helvetica,sans-Serif" font-size="10.00">SuppliesDialog</text>
</a>
</g>
</g>
<!-- Node0&#45;&gt;Node5 -->
<g id="edge12_Node000000_Node000005" class="edge">
<title>Node0&#45;&gt;Node5</title>
<g id="a_edge12_Node000000_Node000005"><a xlink:title=" ">
<path fill="none" stroke="#63b8ff" d="M52.81,-86.67C64.4,-79.78 78.68,-71.74 92,-65.5 99.27,-62.09 107.34,-58.86 114.87,-56.05"/>
<polygon fill="#63b8ff" stroke="#63b8ff" points="50.91,-83.73 44.16,-91.91 54.53,-89.72 50.91,-83.73"/>
</a>
</g>
</g>
<!-- Node6 -->
<g id="Node000006" class="node">
<title>Node6</title>
<g id="a_Node000006"><a xlink:href="classWriteOffsDialog.html" target="_top" xlink:title=" ">
<polygon fill="white" stroke="#666666" points="191,-19 97,-19 97,0 191,0 191,-19"/>
<text text-anchor="middle" x="144" y="-7" font-family="Helvetica,sans-Serif" font-size="10.00">WriteOffsDialog</text>
</a>
</g>
</g>
<!-- Node0&#45;&gt;Node6 -->
<g id="edge13_Node000000_Node000006" class="edge">
<title>Node0&#45;&gt;Node6</title>
<g id="a_edge13_Node000000_Node000006"><a xlink:title=" ">
<path fill="none" stroke="#63b8ff" d="M41,-82.92C52.38,-66.59 70.86,-43.2 92,-28.5 97.43,-24.72 103.7,-21.59 109.95,-19.03"/>
<polygon fill="#63b8ff" stroke="#63b8ff" points="37.83,-81.35 35.15,-91.6 43.64,-85.26 37.83,-81.35"/>
</a>
</g>
</g>
</g>
</svg>
