<?xml version="1.0" encoding="UTF-8" standalone="no"?>
<!DOCTYPE svg PUBLIC "-//W3C//DTD SVG 1.1//EN"
 "http://www.w3.org/Graphics/SVG/1.1/DTD/svg11.dtd">
<!-- Generated by graphviz version 2.43.0 (0)
 -->
<!-- Title: Иерархия классов. Графический вид. Pages: 1 -->
<svg width="212pt" height="101pt"
 viewBox="0.00 0.00 212.00 101.00" xmlns="http://www.w3.org/2000/svg" xmlns:xlink="http://www.w3.org/1999/xlink">
<g id="graph0" class="graph" transform="scale(1 1) rotate(0) translate(4 97)">
<title>Иерархия классов. Графический вид.</title>
<!-- Node0 -->
<g id="Node000000" class="node">
<title>Node0</title>
<g id="a_Node000000"><a xlink:href="classInventoryOperation.html" target="_top" xlink:title=" ">
<polygon fill="white" stroke="#666666" points="111,-56 0,-56 0,-37 111,-37 111,-56"/>
<text text-anchor="middle" x="55.5" y="-44" font-family="Helvetica,sans-Serif" font-size="10.00">InventoryOperation</text>
</a>
</g>
</g>
<!-- Node1 -->
<g id="Node000001" class="node">
<title>Node1</title>
<g id="a_Node000001"><a xlink:href="classReturn.html" target="_top" xlink:title=" ">
<polygon fill="white" stroke="#666666" points="200,-93 151,-93 151,-74 200,-74 200,-93"/>
<text text-anchor="middle" x="175.5" y="-81" font-family="Helvetica,sans-Serif" font-size="10.00">Return</text>
</a>
</g>
</g>
<!-- Node0&#45;&gt;Node1 -->
<g id="edge1_Node000000_Node000001" class="edge">
<title>Node0&#45;&gt;Node1</title>
<g id="a_edge1_Node000000_Node000001"><a xlink:title=" ">
<path fill="none" stroke="#63b8ff" d="M96.61,-59.08C114.68,-64.74 135.39,-71.24 150.92,-76.11"/>
<polygon fill="#63b8ff" stroke="#63b8ff" points="97.48,-55.68 86.89,-56.03 95.38,-62.36 97.48,-55.68"/>
</a>
</g>
</g>
<!-- Node2 -->
<g id="Node000002" class="node">
<title>Node2</title>
<g id="a_Node000002"><a xlink:href="classSupply.html" target="_top" xlink:title=" ">
<polygon fill="white" stroke="#666666" points="200.5,-56 150.5,-56 150.5,-37 200.5,-37 200.5,-56"/>
<text text-anchor="middle" x="175.5" y="-44" font-family="Helvetica,sans-Serif" font-size="10.00">Supply</text>
</a>
</g>
</g>
<!-- Node0&#45;&gt;Node2 -->
<g id="edge2_Node000000_Node000002" class="edge">
<title>Node0&#45;&gt;Node2</title>
<g id="a_edge2_Node000000_Node000002"><a xlink:title=" ">
<path fill="none" stroke="#63b8ff" d="M121.03,-46.5C131.45,-46.5 141.64,-46.5 150.28,-46.5"/>
<polygon fill="#63b8ff" stroke="#63b8ff" points="121.01,-43 111.01,-46.5 121.01,-50 121.01,-43"/>
</a>
</g>
</g>
<!-- Node3 -->
<g id="Node000003" class="node">
<title>Node3</title>
<g id="a_Node000003"><a xlink:href="classWriteOff.html" target="_top" xlink:title=" ">
<polygon fill="white" stroke="#666666" points="204,-19 147,-19 147,0 204,0 204,-19"/>
<text text-anchor="middle" x="175.5" y="-7" font-family="Helvetica,sans-Serif" font-size="10.00">WriteOff</text>
</a>
</g>
</g>
<!-- Node0&#45;&gt;Node3 -->
<g id="edge3_Node000000_Node000003" class="edge">
<title>Node0&#45;&gt;Node3</title>
<g id="a_edge3_Node000000_Node000003"><a xlink:title=" ">
<path fill="none" stroke="#63b8ff" d="M96.78,-33.87C113.19,-28.72 131.77,-22.9 146.64,-18.24"/>
<polygon fill="#63b8ff" stroke="#63b8ff" points="95.38,-30.64 86.89,-36.97 97.48,-37.32 95.38,-30.64"/>
</a>
</g>
</g>
</g>
</svg>
