<?xml version="1.0" encoding="UTF-8" standalone="no"?>
<!DOCTYPE svg PUBLIC "-//W3C//DTD SVG 1.1//EN"
 "http://www.w3.org/Graphics/SVG/1.1/DTD/svg11.dtd">
<!-- Generated by graphviz version 2.43.0 (0)
 -->
<!-- Title: Exception/PharmacyExceptions/InvalidProductIdException.h Pages: 1 -->
<svg width="1152pt" height="148pt"
 viewBox="0.00 0.00 1151.50 148.00" xmlns="http://www.w3.org/2000/svg" xmlns:xlink="http://www.w3.org/1999/xlink">
<g id="graph0" class="graph" transform="scale(1 1) rotate(0) translate(4 144)">
<title>Exception/PharmacyExceptions/InvalidProductIdException.h</title>
<!-- Node1 -->
<g id="Node000001" class="node">
<title>Node1</title>
<g id="a_Node000001"><a xlink:title=" ">
<polygon fill="#999999" stroke="#666666" points="449.5,-140 279.5,-140 279.5,-110 449.5,-110 449.5,-140"/>
<text text-anchor="start" x="287.5" y="-128" font-family="Helvetica,sans-Serif" font-size="10.00">Exception/PharmacyExceptions</text>
<text text-anchor="middle" x="364.5" y="-117" font-family="Helvetica,sans-Serif" font-size="10.00">/InvalidProductIdException.h</text>
</a>
</g>
</g>
<!-- Node2 -->
<g id="Node000002" class="node">
<title>Node2</title>
<g id="a_Node000002"><a xlink:href="safeinput_8h.html" target="_top" xlink:title=" ">
<polygon fill="white" stroke="#666666" points="683.5,-74 561.5,-74 561.5,-55 683.5,-55 683.5,-74"/>
<text text-anchor="middle" x="622.5" y="-62" font-family="Helvetica,sans-Serif" font-size="10.00">Exception/safeinput.h</text>
</a>
</g>
</g>
<!-- Node1&#45;&gt;Node2 -->
<g id="edge1_Node000001_Node000002" class="edge">
<title>Node1&#45;&gt;Node2</title>
<g id="a_edge1_Node000001_Node000002"><a xlink:title=" ">
<path fill="none" stroke="#63b8ff" d="M436.05,-107.78C484.24,-96.85 545.87,-82.88 584.78,-74.05"/>
<polygon fill="#63b8ff" stroke="#63b8ff" points="435.28,-104.36 426.3,-109.99 436.82,-111.19 435.28,-104.36"/>
</a>
</g>
</g>
<!-- Node5 -->
<g id="Node000005" class="node">
<title>Node5</title>
<g id="a_Node000005"><a xlink:href="medicalproduct_8cpp.html" target="_top" xlink:title=" ">
<polygon fill="white" stroke="#666666" points="113,-19 0,-19 0,0 113,0 113,-19"/>
<text text-anchor="middle" x="56.5" y="-7" font-family="Helvetica,sans-Serif" font-size="10.00">medicalproduct.cpp</text>
</a>
</g>
</g>
<!-- Node1&#45;&gt;Node5 -->
<g id="edge13_Node000001_Node000005" class="edge">
<title>Node1&#45;&gt;Node5</title>
<g id="a_edge13_Node000001_Node000005"><a xlink:title=" ">
<path fill="none" stroke="#63b8ff" d="M316.94,-106.47C249.96,-81.79 130.39,-37.73 79.96,-19.14"/>
<polygon fill="#63b8ff" stroke="#63b8ff" points="315.83,-109.8 326.42,-109.97 318.25,-103.23 315.83,-109.8"/>
</a>
</g>
</g>
<!-- Node3 -->
<g id="Node000003" class="node">
<title>Node3</title>
<g id="a_Node000003"><a xlink:href="safeinput_8cpp.html" target="_top" xlink:title=" ">
<polygon fill="white" stroke="#666666" points="265.5,-19 131.5,-19 131.5,0 265.5,0 265.5,-19"/>
<text text-anchor="middle" x="198.5" y="-7" font-family="Helvetica,sans-Serif" font-size="10.00">Exception/safeinput.cpp</text>
</a>
</g>
</g>
<!-- Node2&#45;&gt;Node3 -->
<g id="edge2_Node000002_Node000003" class="edge">
<title>Node2&#45;&gt;Node3</title>
<g id="a_edge2_Node000002_Node000003"><a xlink:title=" ">
<path fill="none" stroke="#63b8ff" d="M551.35,-54.61C471.7,-44.65 343.61,-28.64 265.63,-18.89"/>
<polygon fill="#63b8ff" stroke="#63b8ff" points="550.94,-58.08 561.3,-55.85 551.81,-51.14 550.94,-58.08"/>
</a>
</g>
</g>
<!-- Node4 -->
<g id="Node000004" class="node">
<title>Node4</title>
<g id="a_Node000004"><a xlink:href="inventoryoperation_8cpp.html" target="_top" xlink:title=" ">
<polygon fill="white" stroke="#666666" points="413.5,-19 283.5,-19 283.5,0 413.5,0 413.5,-19"/>
<text text-anchor="middle" x="348.5" y="-7" font-family="Helvetica,sans-Serif" font-size="10.00">inventoryoperation.cpp</text>
</a>
</g>
</g>
<!-- Node2&#45;&gt;Node4 -->
<g id="edge3_Node000002_Node000004" class="edge">
<title>Node2&#45;&gt;Node4</title>
<g id="a_edge3_Node000002_Node000004"><a xlink:title=" ">
<path fill="none" stroke="#63b8ff" d="M568.55,-53.07C517.19,-43.13 440.8,-28.35 392.87,-19.08"/>
<polygon fill="#63b8ff" stroke="#63b8ff" points="567.99,-56.52 578.48,-54.98 569.32,-49.65 567.99,-56.52"/>
</a>
</g>
</g>
<!-- Node2&#45;&gt;Node5 -->
<g id="edge4_Node000002_Node000005" class="edge">
<title>Node2&#45;&gt;Node5</title>
<g id="a_edge4_Node000002_Node000005"><a xlink:title=" ">
<path fill="none" stroke="#63b8ff" d="M551.24,-58.04C454.17,-50.41 275,-35.6 122.5,-19 119.4,-18.66 116.22,-18.3 113.01,-17.93"/>
<polygon fill="#63b8ff" stroke="#63b8ff" points="550.99,-61.54 561.23,-58.83 551.54,-54.56 550.99,-61.54"/>
</a>
</g>
</g>
<!-- Node6 -->
<g id="Node000006" class="node">
<title>Node6</title>
<g id="a_Node000006"><a xlink:href="medicine_8cpp.html" target="_top" xlink:title=" ">
<polygon fill="white" stroke="#666666" points="513.5,-19 431.5,-19 431.5,0 513.5,0 513.5,-19"/>
<text text-anchor="middle" x="472.5" y="-7" font-family="Helvetica,sans-Serif" font-size="10.00">medicine.cpp</text>
</a>
</g>
</g>
<!-- Node2&#45;&gt;Node6 -->
<g id="edge5_Node000002_Node000006" class="edge">
<title>Node2&#45;&gt;Node6</title>
<g id="a_edge5_Node000002_Node000006"><a xlink:title=" ">
<path fill="none" stroke="#63b8ff" d="M588.68,-51.55C560.82,-41.71 521.99,-27.98 497.04,-19.17"/>
<polygon fill="#63b8ff" stroke="#63b8ff" points="587.81,-54.95 598.4,-54.98 590.14,-48.35 587.81,-54.95"/>
</a>
</g>
</g>
<!-- Node7 -->
<g id="Node000007" class="node">
<title>Node7</title>
<g id="a_Node000007"><a xlink:href="ointment_8cpp.html" target="_top" xlink:title=" ">
<polygon fill="white" stroke="#666666" points="613,-19 532,-19 532,0 613,0 613,-19"/>
<text text-anchor="middle" x="572.5" y="-7" font-family="Helvetica,sans-Serif" font-size="10.00">ointment.cpp</text>
</a>
</g>
</g>
<!-- Node2&#45;&gt;Node7 -->
<g id="edge6_Node000002_Node000007" class="edge">
<title>Node2&#45;&gt;Node7</title>
<g id="a_edge6_Node000002_Node000007"><a xlink:title=" ">
<path fill="none" stroke="#63b8ff" d="M607.16,-47.24C598.4,-37.95 587.76,-26.68 580.6,-19.09"/>
<polygon fill="#63b8ff" stroke="#63b8ff" points="604.84,-49.88 614.24,-54.75 609.93,-45.07 604.84,-49.88"/>
</a>
</g>
</g>
<!-- Node8 -->
<g id="Node000008" class="node">
<title>Node8</title>
<g id="a_Node000008"><a xlink:href="pharmacy_8cpp.html" target="_top" xlink:title=" ">
<polygon fill="white" stroke="#666666" points="715.5,-19 631.5,-19 631.5,0 715.5,0 715.5,-19"/>
<text text-anchor="middle" x="673.5" y="-7" font-family="Helvetica,sans-Serif" font-size="10.00">pharmacy.cpp</text>
</a>
</g>
</g>
<!-- Node2&#45;&gt;Node8 -->
<g id="edge7_Node000002_Node000008" class="edge">
<title>Node2&#45;&gt;Node8</title>
<g id="a_edge7_Node000002_Node000008"><a xlink:title=" ">
<path fill="none" stroke="#63b8ff" d="M637.88,-47.52C646.87,-38.18 657.86,-26.75 665.24,-19.09"/>
<polygon fill="#63b8ff" stroke="#63b8ff" points="635.33,-45.12 630.92,-54.75 640.38,-49.97 635.33,-45.12"/>
</a>
</g>
</g>
<!-- Node9 -->
<g id="Node000009" class="node">
<title>Node9</title>
<g id="a_Node000009"><a xlink:href="return_8cpp.html" target="_top" xlink:title=" ">
<polygon fill="white" stroke="#666666" points="799.5,-19 733.5,-19 733.5,0 799.5,0 799.5,-19"/>
<text text-anchor="middle" x="766.5" y="-7" font-family="Helvetica,sans-Serif" font-size="10.00">return.cpp</text>
</a>
</g>
</g>
<!-- Node2&#45;&gt;Node9 -->
<g id="edge8_Node000002_Node000009" class="edge">
<title>Node2&#45;&gt;Node9</title>
<g id="a_edge8_Node000002_Node000009"><a xlink:title=" ">
<path fill="none" stroke="#63b8ff" d="M655.32,-51.42C682.03,-41.59 719.1,-27.95 742.94,-19.17"/>
<polygon fill="#63b8ff" stroke="#63b8ff" points="653.81,-48.25 645.64,-54.98 656.23,-54.82 653.81,-48.25"/>
</a>
</g>
</g>
<!-- Node10 -->
<g id="Node000010" class="node">
<title>Node10</title>
<g id="a_Node000010"><a xlink:href="supply_8cpp.html" target="_top" xlink:title=" ">
<polygon fill="white" stroke="#666666" points="885.5,-19 817.5,-19 817.5,0 885.5,0 885.5,-19"/>
<text text-anchor="middle" x="851.5" y="-7" font-family="Helvetica,sans-Serif" font-size="10.00">supply.cpp</text>
</a>
</g>
</g>
<!-- Node2&#45;&gt;Node10 -->
<g id="edge9_Node000002_Node000010" class="edge">
<title>Node2&#45;&gt;Node10</title>
<g id="a_edge9_Node000002_Node000010"><a xlink:title=" ">
<path fill="none" stroke="#63b8ff" d="M669.17,-52.7C713.18,-42.51 778.08,-27.49 817.42,-18.39"/>
<polygon fill="#63b8ff" stroke="#63b8ff" points="668.25,-49.32 659.29,-54.98 669.82,-56.14 668.25,-49.32"/>
</a>
</g>
</g>
<!-- Node11 -->
<g id="Node000011" class="node">
<title>Node11</title>
<g id="a_Node000011"><a xlink:href="syrup_8cpp.html" target="_top" xlink:title=" ">
<polygon fill="white" stroke="#666666" points="967.5,-19 903.5,-19 903.5,0 967.5,0 967.5,-19"/>
<text text-anchor="middle" x="935.5" y="-7" font-family="Helvetica,sans-Serif" font-size="10.00">syrup.cpp</text>
</a>
</g>
</g>
<!-- Node2&#45;&gt;Node11 -->
<g id="edge10_Node000002_Node000011" class="edge">
<title>Node2&#45;&gt;Node11</title>
<g id="a_edge10_Node000002_Node000011"><a xlink:title=" ">
<path fill="none" stroke="#63b8ff" d="M688.88,-53.44C744.04,-44.89 824.52,-31.97 894.5,-19 897.36,-18.47 900.33,-17.9 903.3,-17.31"/>
<polygon fill="#63b8ff" stroke="#63b8ff" points="688.23,-50 678.88,-54.99 689.3,-56.92 688.23,-50"/>
</a>
</g>
</g>
<!-- Node12 -->
<g id="Node000012" class="node">
<title>Node12</title>
<g id="a_Node000012"><a xlink:href="tablet_8cpp.html" target="_top" xlink:title=" ">
<polygon fill="white" stroke="#666666" points="1051,-19 986,-19 986,0 1051,0 1051,-19"/>
<text text-anchor="middle" x="1018.5" y="-7" font-family="Helvetica,sans-Serif" font-size="10.00">tablet.cpp</text>
</a>
</g>
</g>
<!-- Node2&#45;&gt;Node12 -->
<g id="edge11_Node000002_Node000012" class="edge">
<title>Node2&#45;&gt;Node12</title>
<g id="a_edge11_Node000002_Node000012"><a xlink:title=" ">
<path fill="none" stroke="#63b8ff" d="M694.04,-56.09C765.71,-48.3 879.06,-34.96 976.5,-19 979.58,-18.49 982.79,-17.93 985.98,-17.33"/>
<polygon fill="#63b8ff" stroke="#63b8ff" points="693.34,-52.65 683.78,-57.2 694.09,-59.61 693.34,-52.65"/>
</a>
</g>
</g>
<!-- Node13 -->
<g id="Node000013" class="node">
<title>Node13</title>
<g id="a_Node000013"><a xlink:href="writeoff_8cpp.html" target="_top" xlink:title=" ">
<polygon fill="white" stroke="#666666" points="1143.5,-19 1069.5,-19 1069.5,0 1143.5,0 1143.5,-19"/>
<text text-anchor="middle" x="1106.5" y="-7" font-family="Helvetica,sans-Serif" font-size="10.00">writeoff.cpp</text>
</a>
</g>
</g>
<!-- Node2&#45;&gt;Node13 -->
<g id="edge12_Node000002_Node000013" class="edge">
<title>Node2&#45;&gt;Node13</title>
<g id="a_edge12_Node000002_Node000013"><a xlink:title=" ">
<path fill="none" stroke="#63b8ff" d="M693.63,-58.07C780.47,-51.02 931.68,-37.42 1060.5,-19 1063.39,-18.59 1066.38,-18.12 1069.39,-17.63"/>
<polygon fill="#63b8ff" stroke="#63b8ff" points="693.31,-54.58 683.63,-58.87 693.88,-61.56 693.31,-54.58"/>
</a>
</g>
</g>
</g>
</svg>
