<?xml version="1.0" encoding="UTF-8" standalone="no"?>
<!DOCTYPE svg PUBLIC "-//W3C//DTD SVG 1.1//EN"
 "http://www.w3.org/Graphics/SVG/1.1/DTD/svg11.dtd">
<!-- Generated by graphviz version 2.43.0 (0)
 -->
<!-- Title: Exception/PharmacyExceptions/InvalidProductDataException.h Pages: 1 -->
<svg width="1494pt" height="225pt"
 viewBox="0.00 0.00 1493.50 225.00" xmlns="http://www.w3.org/2000/svg" xmlns:xlink="http://www.w3.org/1999/xlink">
<g id="graph0" class="graph" transform="scale(1 1) rotate(0) translate(4 221)">
<title>Exception/PharmacyExceptions/InvalidProductDataException.h</title>
<!-- Node1 -->
<g id="Node000001" class="node">
<title>Node1</title>
<g id="a_Node000001"><a xlink:title=" ">
<polygon fill="#999999" stroke="#666666" points="896.5,-217 726.5,-217 726.5,-187 896.5,-187 896.5,-217"/>
<text text-anchor="start" x="734.5" y="-205" font-family="Helvetica,sans-Serif" font-size="10.00">Exception/PharmacyExceptions</text>
<text text-anchor="middle" x="811.5" y="-194" font-family="Helvetica,sans-Serif" font-size="10.00">/InvalidProductDataException.h</text>
</a>
</g>
</g>
<!-- Node2 -->
<g id="Node000002" class="node">
<title>Node2</title>
<g id="a_Node000002"><a xlink:href="InvalidPriceException_8h.html" target="_top" xlink:title=" ">
<polygon fill="white" stroke="#666666" points="535.5,-151 365.5,-151 365.5,-121 535.5,-121 535.5,-151"/>
<text text-anchor="start" x="373.5" y="-139" font-family="Helvetica,sans-Serif" font-size="10.00">Exception/PharmacyExceptions</text>
<text text-anchor="middle" x="450.5" y="-128" font-family="Helvetica,sans-Serif" font-size="10.00">/InvalidPriceException.h</text>
</a>
</g>
</g>
<!-- Node1&#45;&gt;Node2 -->
<g id="edge1_Node000001_Node000002" class="edge">
<title>Node1&#45;&gt;Node2</title>
<g id="a_edge1_Node000001_Node000002"><a xlink:title=" ">
<path fill="none" stroke="#63b8ff" d="M722.21,-185.17C663.14,-174.7 586.39,-161.09 529.54,-151.01"/>
<polygon fill="#63b8ff" stroke="#63b8ff" points="721.82,-188.66 732.28,-186.95 723.04,-181.76 721.82,-188.66"/>
</a>
</g>
</g>
<!-- Node3 -->
<g id="Node000003" class="node">
<title>Node3</title>
<g id="a_Node000003"><a xlink:href="safeinput_8h.html" target="_top" xlink:title=" ">
<polygon fill="white" stroke="#666666" points="699.5,-85 577.5,-85 577.5,-66 699.5,-66 699.5,-85"/>
<text text-anchor="middle" x="638.5" y="-73" font-family="Helvetica,sans-Serif" font-size="10.00">Exception/safeinput.h</text>
</a>
</g>
</g>
<!-- Node1&#45;&gt;Node3 -->
<g id="edge18_Node000001_Node000003" class="edge">
<title>Node1&#45;&gt;Node3</title>
<g id="a_edge18_Node000001_Node000003"><a xlink:title=" ">
<path fill="none" stroke="#63b8ff" d="M793.44,-178.85C778.46,-161.5 755.9,-137.59 732.5,-121 710.41,-105.33 681.93,-92.75 662.14,-85.01"/>
<polygon fill="#63b8ff" stroke="#63b8ff" points="791.03,-181.41 800.16,-186.78 796.37,-176.89 791.03,-181.41"/>
</a>
</g>
</g>
<!-- Node6 -->
<g id="Node000006" class="node">
<title>Node6</title>
<g id="a_Node000006"><a xlink:href="medicalproduct_8cpp.html" target="_top" xlink:title=" ">
<polygon fill="white" stroke="#666666" points="113,-24.5 0,-24.5 0,-5.5 113,-5.5 113,-24.5"/>
<text text-anchor="middle" x="56.5" y="-12.5" font-family="Helvetica,sans-Serif" font-size="10.00">medicalproduct.cpp</text>
</a>
</g>
</g>
<!-- Node1&#45;&gt;Node6 -->
<g id="edge19_Node000001_Node000006" class="edge">
<title>Node1&#45;&gt;Node6</title>
<g id="a_edge19_Node000001_Node000006"><a xlink:title=" ">
<path fill="none" stroke="#63b8ff" d="M715.9,-199.15C622.7,-195.34 477.7,-184.04 356.5,-151 241.06,-119.53 113.65,-49.16 71.17,-24.63"/>
<polygon fill="#63b8ff" stroke="#63b8ff" points="716.04,-202.66 726.16,-199.55 716.31,-195.67 716.04,-202.66"/>
</a>
</g>
</g>
<!-- Node7 -->
<g id="Node000007" class="node">
<title>Node7</title>
<g id="a_Node000007"><a xlink:href="medicine_8cpp.html" target="_top" xlink:title=" ">
<polygon fill="white" stroke="#666666" points="775.5,-24.5 693.5,-24.5 693.5,-5.5 775.5,-5.5 775.5,-24.5"/>
<text text-anchor="middle" x="734.5" y="-12.5" font-family="Helvetica,sans-Serif" font-size="10.00">medicine.cpp</text>
</a>
</g>
</g>
<!-- Node1&#45;&gt;Node7 -->
<g id="edge20_Node000001_Node000007" class="edge">
<title>Node1&#45;&gt;Node7</title>
<g id="a_edge20_Node000001_Node000007"><a xlink:title=" ">
<path fill="none" stroke="#63b8ff" d="M801.7,-177.45C784.42,-135.93 749.3,-51.55 738.05,-24.53"/>
<polygon fill="#63b8ff" stroke="#63b8ff" points="798.51,-178.9 805.59,-186.79 804.97,-176.21 798.51,-178.9"/>
</a>
</g>
</g>
<!-- Node8 -->
<g id="Node000008" class="node">
<title>Node8</title>
<g id="a_Node000008"><a xlink:href="ointment_8cpp.html" target="_top" xlink:title=" ">
<polygon fill="white" stroke="#666666" points="875,-24.5 794,-24.5 794,-5.5 875,-5.5 875,-24.5"/>
<text text-anchor="middle" x="834.5" y="-12.5" font-family="Helvetica,sans-Serif" font-size="10.00">ointment.cpp</text>
</a>
</g>
</g>
<!-- Node1&#45;&gt;Node8 -->
<g id="edge21_Node000001_Node000008" class="edge">
<title>Node1&#45;&gt;Node8</title>
<g id="a_edge21_Node000001_Node000008"><a xlink:title=" ">
<path fill="none" stroke="#63b8ff" d="M814.53,-176.66C819.72,-134.87 830.1,-51.38 833.44,-24.53"/>
<polygon fill="#63b8ff" stroke="#63b8ff" points="811.03,-176.44 813.27,-186.79 817.97,-177.3 811.03,-176.44"/>
</a>
</g>
</g>
<!-- Node9 -->
<g id="Node000009" class="node">
<title>Node9</title>
<g id="a_Node000009"><a xlink:href="pharmacy_8cpp.html" target="_top" xlink:title=" ">
<polygon fill="white" stroke="#666666" points="977.5,-24.5 893.5,-24.5 893.5,-5.5 977.5,-5.5 977.5,-24.5"/>
<text text-anchor="middle" x="935.5" y="-12.5" font-family="Helvetica,sans-Serif" font-size="10.00">pharmacy.cpp</text>
</a>
</g>
</g>
<!-- Node1&#45;&gt;Node9 -->
<g id="edge22_Node000001_Node000009" class="edge">
<title>Node1&#45;&gt;Node9</title>
<g id="a_edge22_Node000001_Node000009"><a xlink:title=" ">
<path fill="none" stroke="#63b8ff" d="M826.76,-178.24C854.39,-137.01 911.56,-51.72 929.78,-24.53"/>
<polygon fill="#63b8ff" stroke="#63b8ff" points="823.68,-176.54 821.02,-186.79 829.5,-180.43 823.68,-176.54"/>
</a>
</g>
</g>
<!-- Node12 -->
<g id="Node000012" class="node">
<title>Node12</title>
<g id="a_Node000012"><a xlink:href="syrup_8cpp.html" target="_top" xlink:title=" ">
<polygon fill="white" stroke="#666666" points="1059.5,-24.5 995.5,-24.5 995.5,-5.5 1059.5,-5.5 1059.5,-24.5"/>
<text text-anchor="middle" x="1027.5" y="-12.5" font-family="Helvetica,sans-Serif" font-size="10.00">syrup.cpp</text>
</a>
</g>
</g>
<!-- Node1&#45;&gt;Node12 -->
<g id="edge29_Node000001_Node000012" class="edge">
<title>Node1&#45;&gt;Node12</title>
<g id="a_edge29_Node000001_Node000012"><a xlink:title=" ">
<path fill="none" stroke="#63b8ff" d="M835.7,-180.28C882.85,-139.89 985.26,-52.18 1017.54,-24.53"/>
<polygon fill="#63b8ff" stroke="#63b8ff" points="833.41,-177.63 828.09,-186.79 837.96,-182.94 833.41,-177.63"/>
</a>
</g>
</g>
<!-- Node13 -->
<g id="Node000013" class="node">
<title>Node13</title>
<g id="a_Node000013"><a xlink:href="tablet_8cpp.html" target="_top" xlink:title=" ">
<polygon fill="white" stroke="#666666" points="1143,-24.5 1078,-24.5 1078,-5.5 1143,-5.5 1143,-24.5"/>
<text text-anchor="middle" x="1110.5" y="-12.5" font-family="Helvetica,sans-Serif" font-size="10.00">tablet.cpp</text>
</a>
</g>
</g>
<!-- Node1&#45;&gt;Node13 -->
<g id="edge30_Node000001_Node000013" class="edge">
<title>Node1&#45;&gt;Node13</title>
<g id="a_edge30_Node000001_Node000013"><a xlink:title=" ">
<path fill="none" stroke="#63b8ff" d="M846.25,-182.11C862.81,-172.94 882.82,-161.64 900.5,-151 976.26,-105.42 1064.63,-46.76 1097.4,-24.81"/>
<polygon fill="#63b8ff" stroke="#63b8ff" points="844.51,-179.07 837.44,-186.96 847.89,-185.2 844.51,-179.07"/>
</a>
</g>
</g>
<!-- Node15 -->
<g id="Node000015" class="node">
<title>Node15</title>
<g id="a_Node000015"><a xlink:href="InvalidProductIdException_8h.html" target="_top" xlink:title=" ">
<polygon fill="white" stroke="#666666" points="723.5,-151 553.5,-151 553.5,-121 723.5,-121 723.5,-151"/>
<text text-anchor="start" x="561.5" y="-139" font-family="Helvetica,sans-Serif" font-size="10.00">Exception/PharmacyExceptions</text>
<text text-anchor="middle" x="638.5" y="-128" font-family="Helvetica,sans-Serif" font-size="10.00">/InvalidProductIdException.h</text>
</a>
</g>
</g>
<!-- Node1&#45;&gt;Node15 -->
<g id="edge15_Node000001_Node000015" class="edge">
<title>Node1&#45;&gt;Node15</title>
<g id="a_edge15_Node000001_Node000015"><a xlink:title=" ">
<path fill="none" stroke="#63b8ff" d="M764.08,-183.46C736.48,-173.25 702.16,-160.55 676.38,-151.01"/>
<polygon fill="#63b8ff" stroke="#63b8ff" points="762.94,-186.77 773.53,-186.95 765.37,-180.2 762.94,-186.77"/>
</a>
</g>
</g>
<!-- Node16 -->
<g id="Node000016" class="node">
<title>Node16</title>
<g id="a_Node000016"><a xlink:href="pharmacymanager_8h.html" target="_top" xlink:title=" ">
<polygon fill="white" stroke="#666666" points="1185,-145.5 1068,-145.5 1068,-126.5 1185,-126.5 1185,-145.5"/>
<text text-anchor="middle" x="1126.5" y="-133.5" font-family="Helvetica,sans-Serif" font-size="10.00">pharmacymanager.h</text>
</a>
</g>
</g>
<!-- Node1&#45;&gt;Node16 -->
<g id="edge23_Node000001_Node000016" class="edge">
<title>Node1&#45;&gt;Node16</title>
<g id="a_edge23_Node000001_Node000016"><a xlink:title=" ">
<path fill="none" stroke="#63b8ff" d="M890.7,-184.91C952.27,-172.4 1035.25,-155.54 1084.58,-145.52"/>
<polygon fill="#63b8ff" stroke="#63b8ff" points="889.73,-181.53 880.63,-186.95 891.12,-188.39 889.73,-181.53"/>
</a>
</g>
</g>
<!-- Node2&#45;&gt;Node3 -->
<g id="edge2_Node000002_Node000003" class="edge">
<title>Node2&#45;&gt;Node3</title>
<g id="a_edge2_Node000002_Node000003"><a xlink:title=" ">
<path fill="none" stroke="#63b8ff" d="M505.52,-117.88C540.18,-107.09 583.43,-93.64 611.01,-85.05"/>
<polygon fill="#63b8ff" stroke="#63b8ff" points="504.04,-114.67 495.53,-120.99 506.12,-121.36 504.04,-114.67"/>
</a>
</g>
</g>
<!-- Node2&#45;&gt;Node6 -->
<g id="edge14_Node000002_Node000006" class="edge">
<title>Node2&#45;&gt;Node6</title>
<g id="a_edge14_Node000002_Node000006"><a xlink:title=" ">
<path fill="none" stroke="#63b8ff" d="M394.36,-118.04C308.99,-92.26 149.62,-44.13 84.91,-24.58"/>
<polygon fill="#63b8ff" stroke="#63b8ff" points="393.56,-121.46 404.14,-121 395.58,-114.76 393.56,-121.46"/>
</a>
</g>
</g>
<!-- Node4 -->
<g id="Node000004" class="node">
<title>Node4</title>
<g id="a_Node000004"><a xlink:href="safeinput_8cpp.html" target="_top" xlink:title=" ">
<polygon fill="white" stroke="#666666" points="265.5,-24.5 131.5,-24.5 131.5,-5.5 265.5,-5.5 265.5,-24.5"/>
<text text-anchor="middle" x="198.5" y="-12.5" font-family="Helvetica,sans-Serif" font-size="10.00">Exception/safeinput.cpp</text>
</a>
</g>
</g>
<!-- Node3&#45;&gt;Node4 -->
<g id="edge3_Node000003_Node000004" class="edge">
<title>Node3&#45;&gt;Node4</title>
<g id="a_edge3_Node000003_Node000004"><a xlink:title=" ">
<path fill="none" stroke="#63b8ff" d="M567.41,-67.1C493.92,-59.14 375.93,-45.53 274.5,-30 264.02,-28.4 252.77,-26.45 242.23,-24.52"/>
<polygon fill="#63b8ff" stroke="#63b8ff" points="567.17,-70.59 577.48,-68.18 567.92,-63.63 567.17,-70.59"/>
</a>
</g>
</g>
<!-- Node5 -->
<g id="Node000005" class="node">
<title>Node5</title>
<g id="a_Node000005"><a xlink:href="inventoryoperation_8cpp.html" target="_top" xlink:title=" ">
<polygon fill="white" stroke="#666666" points="413.5,-24.5 283.5,-24.5 283.5,-5.5 413.5,-5.5 413.5,-24.5"/>
<text text-anchor="middle" x="348.5" y="-12.5" font-family="Helvetica,sans-Serif" font-size="10.00">inventoryoperation.cpp</text>
</a>
</g>
</g>
<!-- Node3&#45;&gt;Node5 -->
<g id="edge4_Node000003_Node000005" class="edge">
<title>Node3&#45;&gt;Node5</title>
<g id="a_edge4_Node000003_Node000005"><a xlink:title=" ">
<path fill="none" stroke="#63b8ff" d="M586.26,-63.96C530.28,-52.67 442.5,-34.96 390.72,-24.52"/>
<polygon fill="#63b8ff" stroke="#63b8ff" points="585.84,-67.45 596.33,-65.99 587.22,-60.59 585.84,-67.45"/>
</a>
</g>
</g>
<!-- Node3&#45;&gt;Node6 -->
<g id="edge5_Node000003_Node000006" class="edge">
<title>Node3&#45;&gt;Node6</title>
<g id="a_edge5_Node000003_Node000006"><a xlink:title=" ">
<path fill="none" stroke="#63b8ff" d="M567.08,-68.57C430.55,-57.22 144.12,-33.21 122.5,-30 112.77,-28.55 102.32,-26.55 92.67,-24.51"/>
<polygon fill="#63b8ff" stroke="#63b8ff" points="567.18,-72.09 577.43,-69.44 567.76,-65.12 567.18,-72.09"/>
</a>
</g>
</g>
<!-- Node3&#45;&gt;Node7 -->
<g id="edge6_Node000003_Node000007" class="edge">
<title>Node3&#45;&gt;Node7</title>
<g id="a_edge6_Node000003_Node000007"><a xlink:title=" ">
<path fill="none" stroke="#63b8ff" d="M661.28,-60.62C679.58,-49.46 704.73,-34.14 720.28,-24.67"/>
<polygon fill="#63b8ff" stroke="#63b8ff" points="659.38,-57.68 652.67,-65.87 663.03,-63.65 659.38,-57.68"/>
</a>
</g>
</g>
<!-- Node3&#45;&gt;Node8 -->
<g id="edge7_Node000003_Node000008" class="edge">
<title>Node3&#45;&gt;Node8</title>
<g id="a_edge7_Node000003_Node000008"><a xlink:title=" ">
<path fill="none" stroke="#63b8ff" d="M676.67,-63.11C714.58,-51.79 771.84,-34.7 805.97,-24.52"/>
<polygon fill="#63b8ff" stroke="#63b8ff" points="675.58,-59.78 667,-65.99 677.58,-66.49 675.58,-59.78"/>
</a>
</g>
</g>
<!-- Node3&#45;&gt;Node9 -->
<g id="edge8_Node000003_Node000009" class="edge">
<title>Node3&#45;&gt;Node9</title>
<g id="a_edge8_Node000003_Node000009"><a xlink:title=" ">
<path fill="none" stroke="#63b8ff" d="M702.72,-64.34C752.31,-56.13 822.54,-43.72 883.5,-30 890.61,-28.4 898.22,-26.47 905.36,-24.57"/>
<polygon fill="#63b8ff" stroke="#63b8ff" points="702.07,-60.9 692.77,-65.98 703.21,-67.81 702.07,-60.9"/>
</a>
</g>
</g>
<!-- Node10 -->
<g id="Node000010" class="node">
<title>Node10</title>
<g id="a_Node000010"><a xlink:href="return_8cpp.html" target="_top" xlink:title=" ">
<polygon fill="white" stroke="#666666" points="497.5,-24.5 431.5,-24.5 431.5,-5.5 497.5,-5.5 497.5,-24.5"/>
<text text-anchor="middle" x="464.5" y="-12.5" font-family="Helvetica,sans-Serif" font-size="10.00">return.cpp</text>
</a>
</g>
</g>
<!-- Node3&#45;&gt;Node10 -->
<g id="edge9_Node000003_Node000010" class="edge">
<title>Node3&#45;&gt;Node10</title>
<g id="a_edge9_Node000003_Node000010"><a xlink:title=" ">
<path fill="none" stroke="#63b8ff" d="M603.32,-62.67C569.67,-51.36 519.74,-34.57 489.83,-24.52"/>
<polygon fill="#63b8ff" stroke="#63b8ff" points="602.6,-66.12 613.2,-65.99 604.84,-59.49 602.6,-66.12"/>
</a>
</g>
</g>
<!-- Node11 -->
<g id="Node000011" class="node">
<title>Node11</title>
<g id="a_Node000011"><a xlink:href="supply_8cpp.html" target="_top" xlink:title=" ">
<polygon fill="white" stroke="#666666" points="583.5,-24.5 515.5,-24.5 515.5,-5.5 583.5,-5.5 583.5,-24.5"/>
<text text-anchor="middle" x="549.5" y="-12.5" font-family="Helvetica,sans-Serif" font-size="10.00">supply.cpp</text>
</a>
</g>
</g>
<!-- Node3&#45;&gt;Node11 -->
<g id="edge10_Node000003_Node000011" class="edge">
<title>Node3&#45;&gt;Node11</title>
<g id="a_edge10_Node000003_Node000011"><a xlink:title=" ">
<path fill="none" stroke="#63b8ff" d="M616.68,-60.16C599.77,-49.05 576.91,-34.01 562.69,-24.67"/>
<polygon fill="#63b8ff" stroke="#63b8ff" points="615.09,-63.3 625.37,-65.87 618.93,-57.45 615.09,-63.3"/>
</a>
</g>
</g>
<!-- Node3&#45;&gt;Node12 -->
<g id="edge11_Node000003_Node000012" class="edge">
<title>Node3&#45;&gt;Node12</title>
<g id="a_edge11_Node000003_Node000012"><a xlink:title=" ">
<path fill="none" stroke="#63b8ff" d="M709.66,-69.63C780.53,-63.79 892.06,-51.92 986.5,-30 992.65,-28.57 999.18,-26.57 1005.18,-24.53"/>
<polygon fill="#63b8ff" stroke="#63b8ff" points="709.2,-66.15 699.51,-70.44 709.76,-73.13 709.2,-66.15"/>
</a>
</g>
</g>
<!-- Node3&#45;&gt;Node13 -->
<g id="edge12_Node000003_Node000013" class="edge">
<title>Node3&#45;&gt;Node13</title>
<g id="a_edge12_Node000003_Node000013"><a xlink:title=" ">
<path fill="none" stroke="#63b8ff" d="M709.85,-71.89C795.77,-67.65 944.07,-56.84 1068.5,-30 1074.81,-28.64 1081.5,-26.66 1087.65,-24.62"/>
<polygon fill="#63b8ff" stroke="#63b8ff" points="709.51,-68.4 699.69,-72.37 709.84,-75.39 709.51,-68.4"/>
</a>
</g>
</g>
<!-- Node14 -->
<g id="Node000014" class="node">
<title>Node14</title>
<g id="a_Node000014"><a xlink:href="writeoff_8cpp.html" target="_top" xlink:title=" ">
<polygon fill="white" stroke="#666666" points="675.5,-24.5 601.5,-24.5 601.5,-5.5 675.5,-5.5 675.5,-24.5"/>
<text text-anchor="middle" x="638.5" y="-12.5" font-family="Helvetica,sans-Serif" font-size="10.00">writeoff.cpp</text>
</a>
</g>
</g>
<!-- Node3&#45;&gt;Node14 -->
<g id="edge13_Node000003_Node000014" class="edge">
<title>Node3&#45;&gt;Node14</title>
<g id="a_edge13_Node000003_Node000014"><a xlink:title=" ">
<path fill="none" stroke="#63b8ff" d="M638.5,-55.66C638.5,-45.24 638.5,-32.8 638.5,-24.67"/>
<polygon fill="#63b8ff" stroke="#63b8ff" points="635,-55.87 638.5,-65.87 642,-55.87 635,-55.87"/>
</a>
</g>
</g>
<!-- Node15&#45;&gt;Node3 -->
<g id="edge16_Node000015_Node000003" class="edge">
<title>Node15&#45;&gt;Node3</title>
<g id="a_edge16_Node000015_Node000003"><a xlink:title=" ">
<path fill="none" stroke="#63b8ff" d="M638.5,-110.75C638.5,-101.72 638.5,-92.03 638.5,-85.27"/>
<polygon fill="#63b8ff" stroke="#63b8ff" points="635,-110.84 638.5,-120.84 642,-110.84 635,-110.84"/>
</a>
</g>
</g>
<!-- Node15&#45;&gt;Node6 -->
<g id="edge17_Node000015_Node000006" class="edge">
<title>Node15&#45;&gt;Node6</title>
<g id="a_edge17_Node000015_Node000006"><a xlink:title=" ">
<path fill="none" stroke="#63b8ff" d="M558.48,-118.93C457.01,-98.5 276.69,-62.04 122.5,-30 114.13,-28.26 105.16,-26.37 96.63,-24.57"/>
<polygon fill="#63b8ff" stroke="#63b8ff" points="557.86,-122.38 568.35,-120.92 559.24,-115.51 557.86,-122.38"/>
</a>
</g>
</g>
<!-- Node17 -->
<g id="Node000017" class="node">
<title>Node17</title>
<g id="a_Node000017"><a xlink:href="mainwindow_8h.html" target="_top" xlink:title=" ">
<polygon fill="white" stroke="#666666" points="1300,-85 1213,-85 1213,-66 1300,-66 1300,-85"/>
<text text-anchor="middle" x="1256.5" y="-73" font-family="Helvetica,sans-Serif" font-size="10.00">mainwindow.h</text>
</a>
</g>
</g>
<!-- Node16&#45;&gt;Node17 -->
<g id="edge24_Node000016_Node000017" class="edge">
<title>Node16&#45;&gt;Node17</title>
<g id="a_edge24_Node000016_Node000017"><a xlink:title=" ">
<path fill="none" stroke="#63b8ff" d="M1154.76,-122.28C1179.85,-110.99 1215.81,-94.81 1237.57,-85.02"/>
<polygon fill="#63b8ff" stroke="#63b8ff" points="1153.09,-119.2 1145.4,-126.49 1155.96,-125.58 1153.09,-119.2"/>
</a>
</g>
</g>
<!-- Node21 -->
<g id="Node000021" class="node">
<title>Node21</title>
<g id="a_Node000021"><a xlink:href="pharmacymanager_8cpp.html" target="_top" xlink:title=" ">
<polygon fill="white" stroke="#666666" points="1190.5,-85 1062.5,-85 1062.5,-66 1190.5,-66 1190.5,-85"/>
<text text-anchor="middle" x="1126.5" y="-73" font-family="Helvetica,sans-Serif" font-size="10.00">pharmacymanager.cpp</text>
</a>
</g>
</g>
<!-- Node16&#45;&gt;Node21 -->
<g id="edge28_Node000016_Node000021" class="edge">
<title>Node16&#45;&gt;Node21</title>
<g id="a_edge28_Node000016_Node000021"><a xlink:title=" ">
<path fill="none" stroke="#63b8ff" d="M1126.5,-116.16C1126.5,-105.74 1126.5,-93.3 1126.5,-85.17"/>
<polygon fill="#63b8ff" stroke="#63b8ff" points="1123,-116.37 1126.5,-126.37 1130,-116.37 1123,-116.37"/>
</a>
</g>
</g>
<!-- Node18 -->
<g id="Node000018" class="node">
<title>Node18</title>
<g id="a_Node000018"><a xlink:href="moc__mainwindow_8cpp.html" target="_top" xlink:title=" ">
<polygon fill="white" stroke="#666666" points="1289.5,-30 1161.5,-30 1161.5,0 1289.5,0 1289.5,-30"/>
<text text-anchor="start" x="1169.5" y="-18" font-family="Helvetica,sans-Serif" font-size="10.00">build/Desktop&#45;Debug</text>
<text text-anchor="middle" x="1225.5" y="-7" font-family="Helvetica,sans-Serif" font-size="10.00">/moc_mainwindow.cpp</text>
</a>
</g>
</g>
<!-- Node17&#45;&gt;Node18 -->
<g id="edge25_Node000017_Node000018" class="edge">
<title>Node17&#45;&gt;Node18</title>
<g id="a_edge25_Node000017_Node000018"><a xlink:title=" ">
<path fill="none" stroke="#63b8ff" d="M1247.11,-56.78C1242.58,-48.23 1237.23,-38.13 1232.98,-30.11"/>
<polygon fill="#63b8ff" stroke="#63b8ff" points="1244.15,-58.67 1251.93,-65.87 1250.34,-55.39 1244.15,-58.67"/>
</a>
</g>
</g>
<!-- Node19 -->
<g id="Node000019" class="node">
<title>Node19</title>
<g id="a_Node000019"><a xlink:href="main_8cpp.html" target="_top" xlink:title=" ">
<polygon fill="white" stroke="#666666" points="1369.5,-24.5 1307.5,-24.5 1307.5,-5.5 1369.5,-5.5 1369.5,-24.5"/>
<text text-anchor="middle" x="1338.5" y="-12.5" font-family="Helvetica,sans-Serif" font-size="10.00">main.cpp</text>
</a>
</g>
</g>
<!-- Node17&#45;&gt;Node19 -->
<g id="edge26_Node000017_Node000019" class="edge">
<title>Node17&#45;&gt;Node19</title>
<g id="a_edge26_Node000017_Node000019"><a xlink:title=" ">
<path fill="none" stroke="#63b8ff" d="M1277.04,-59.85C1292.57,-48.77 1313.37,-33.93 1326.35,-24.67"/>
<polygon fill="#63b8ff" stroke="#63b8ff" points="1274.71,-57.21 1268.6,-65.87 1278.77,-62.91 1274.71,-57.21"/>
</a>
</g>
</g>
<!-- Node20 -->
<g id="Node000020" class="node">
<title>Node20</title>
<g id="a_Node000020"><a xlink:href="mainwindow_8cpp.html" target="_top" xlink:title=" ">
<polygon fill="white" stroke="#666666" points="1485.5,-24.5 1387.5,-24.5 1387.5,-5.5 1485.5,-5.5 1485.5,-24.5"/>
<text text-anchor="middle" x="1436.5" y="-12.5" font-family="Helvetica,sans-Serif" font-size="10.00">mainwindow.cpp</text>
</a>
</g>
</g>
<!-- Node17&#45;&gt;Node20 -->
<g id="edge27_Node000017_Node000020" class="edge">
<title>Node17&#45;&gt;Node20</title>
<g id="a_edge27_Node000017_Node000020"><a xlink:title=" ">
<path fill="none" stroke="#63b8ff" d="M1292.45,-62.82C1327.26,-51.5 1379.22,-34.62 1410.29,-24.52"/>
<polygon fill="#63b8ff" stroke="#63b8ff" points="1291.1,-59.57 1282.67,-65.99 1293.27,-66.23 1291.1,-59.57"/>
</a>
</g>
</g>
</g>
</svg>
