<?xml version="1.0" encoding="UTF-8" standalone="no"?>
<!DOCTYPE svg PUBLIC "-//W3C//DTD SVG 1.1//EN"
 "http://www.w3.org/Graphics/SVG/1.1/DTD/svg11.dtd">
<!-- Generated by graphviz version 2.43.0 (0)
 -->
<!-- Title: Exception/InventaryManipExceptions/InvalidOperationException.h Pages: 1 -->
<svg width="219pt" height="159pt"
 viewBox="0.00 0.00 219.00 159.00" xmlns="http://www.w3.org/2000/svg" xmlns:xlink="http://www.w3.org/1999/xlink">
<g id="graph0" class="graph" transform="scale(1 1) rotate(0) translate(4 155)">
<title>Exception/InventaryManipExceptions/InvalidOperationException.h</title>
<!-- Node1 -->
<g id="Node000001" class="node">
<title>Node1</title>
<g id="a_Node000001"><a xlink:title=" ">
<polygon fill="#999999" stroke="#666666" points="211,-151 0,-151 0,-121 211,-121 211,-151"/>
<text text-anchor="start" x="8" y="-139" font-family="Helvetica,sans-Serif" font-size="10.00">Exception/InventaryManip</text>
<text text-anchor="middle" x="105.5" y="-128" font-family="Helvetica,sans-Serif" font-size="10.00">Exceptions/InvalidOperationException.h</text>
</a>
</g>
</g>
<!-- Node2 -->
<g id="Node000002" class="node">
<title>Node2</title>
<g id="a_Node000002"><a xlink:href="PharmacyException_8h.html" target="_top" xlink:title=" ">
<polygon fill="white" stroke="#666666" points="190.5,-85 20.5,-85 20.5,-55 190.5,-55 190.5,-85"/>
<text text-anchor="start" x="28.5" y="-73" font-family="Helvetica,sans-Serif" font-size="10.00">Exception/PharmacyExceptions</text>
<text text-anchor="middle" x="105.5" y="-62" font-family="Helvetica,sans-Serif" font-size="10.00">/PharmacyException.h</text>
</a>
</g>
</g>
<!-- Node1&#45;&gt;Node2 -->
<g id="edge1_Node000001_Node000002" class="edge">
<title>Node1&#45;&gt;Node2</title>
<g id="a_edge1_Node000001_Node000002"><a xlink:title=" ">
<path fill="none" stroke="#63b8ff" d="M105.5,-120.8C105.5,-113.34 105.5,-103.99 105.5,-95.41"/>
<polygon fill="#63b8ff" stroke="#63b8ff" points="109,-95.16 105.5,-85.16 102,-95.16 109,-95.16"/>
</a>
</g>
</g>
<!-- Node3 -->
<g id="Node000003" class="node">
<title>Node3</title>
<g id="a_Node000003"><a xlink:title=" ">
<polygon fill="#e0e0e0" stroke="#999999" points="135.5,-19 75.5,-19 75.5,0 135.5,0 135.5,-19"/>
<text text-anchor="middle" x="105.5" y="-7" font-family="Helvetica,sans-Serif" font-size="10.00">iostream</text>
</a>
</g>
</g>
<!-- Node2&#45;&gt;Node3 -->
<g id="edge2_Node000002_Node000003" class="edge">
<title>Node2&#45;&gt;Node3</title>
<g id="a_edge2_Node000002_Node000003"><a xlink:title=" ">
<path fill="none" stroke="#63b8ff" d="M105.5,-54.84C105.5,-47.21 105.5,-37.7 105.5,-29.45"/>
<polygon fill="#63b8ff" stroke="#63b8ff" points="109,-29.27 105.5,-19.27 102,-29.27 109,-29.27"/>
</a>
</g>
</g>
</g>
</svg>
