<?xml version="1.0" encoding="UTF-8" standalone="no"?>
<!DOCTYPE svg PUBLIC "-//W3C//DTD SVG 1.1//EN"
 "http://www.w3.org/Graphics/SVG/1.1/DTD/svg11.dtd">
<!-- Generated by graphviz version 2.43.0 (0)
 -->
<!-- Title: inventoryoperation.h Pages: 1 -->
<svg width="579pt" height="258pt"
 viewBox="0.00 0.00 579.00 258.00" xmlns="http://www.w3.org/2000/svg" xmlns:xlink="http://www.w3.org/1999/xlink">
<g id="graph0" class="graph" transform="scale(1 1) rotate(0) translate(4 254)">
<title>inventoryoperation.h</title>
<!-- Node1 -->
<g id="Node000001" class="node">
<title>Node1</title>
<g id="a_Node000001"><a xlink:title=" ">
<polygon fill="#999999" stroke="#666666" points="322.5,-250 203.5,-250 203.5,-231 322.5,-231 322.5,-250"/>
<text text-anchor="middle" x="263" y="-238" font-family="Helvetica,sans-Serif" font-size="10.00">inventoryoperation.h</text>
</a>
</g>
</g>
<!-- Node2 -->
<g id="Node000002" class="node">
<title>Node2</title>
<g id="a_Node000002"><a xlink:href="filemanager_8h.html" target="_top" xlink:title=" ">
<polygon fill="white" stroke="#666666" points="169.5,-140 86.5,-140 86.5,-121 169.5,-121 169.5,-140"/>
<text text-anchor="middle" x="128" y="-128" font-family="Helvetica,sans-Serif" font-size="10.00">filemanager.h</text>
</a>
</g>
</g>
<!-- Node1&#45;&gt;Node2 -->
<g id="edge1_Node000001_Node000002" class="edge">
<title>Node1&#45;&gt;Node2</title>
<g id="a_edge1_Node000001_Node000002"><a xlink:title=" ">
<path fill="none" stroke="#63b8ff" d="M199.38,-228.9C162.47,-221.31 121.12,-209.81 110,-195 97.48,-178.32 111.86,-153.26 121.22,-140.17"/>
<polygon fill="#63b8ff" stroke="#63b8ff" points="199.16,-232.42 209.65,-230.94 200.52,-225.56 199.16,-232.42"/>
</a>
</g>
</g>
<!-- Node4 -->
<g id="Node000004" class="node">
<title>Node4</title>
<g id="a_Node000004"><a xlink:href="inventoryoperation_8cpp.html" target="_top" xlink:title=" ">
<polygon fill="white" stroke="#666666" points="516,-195 386,-195 386,-176 516,-176 516,-195"/>
<text text-anchor="middle" x="451" y="-183" font-family="Helvetica,sans-Serif" font-size="10.00">inventoryoperation.cpp</text>
</a>
</g>
</g>
<!-- Node1&#45;&gt;Node4 -->
<g id="edge3_Node000001_Node000004" class="edge">
<title>Node1&#45;&gt;Node4</title>
<g id="a_edge3_Node000001_Node000004"><a xlink:title=" ">
<path fill="none" stroke="#63b8ff" d="M303.14,-228.18C338.3,-218.27 388.63,-204.08 420.56,-195.08"/>
<polygon fill="#63b8ff" stroke="#63b8ff" points="301.88,-224.9 293.21,-230.98 303.78,-231.64 301.88,-224.9"/>
</a>
</g>
</g>
<!-- Node5 -->
<g id="Node000005" class="node">
<title>Node5</title>
<g id="a_Node000005"><a xlink:href="pharmacymanager_8h.html" target="_top" xlink:title=" ">
<polygon fill="white" stroke="#666666" points="397.5,-140 280.5,-140 280.5,-121 397.5,-121 397.5,-140"/>
<text text-anchor="middle" x="339" y="-128" font-family="Helvetica,sans-Serif" font-size="10.00">pharmacymanager.h</text>
</a>
</g>
</g>
<!-- Node1&#45;&gt;Node5 -->
<g id="edge4_Node000001_Node000005" class="edge">
<title>Node1&#45;&gt;Node5</title>
<g id="a_edge4_Node000001_Node000005"><a xlink:title=" ">
<path fill="none" stroke="#63b8ff" d="M300.83,-226.81C315.45,-219.84 330.64,-209.58 339,-195 348.87,-177.78 344.86,-153.38 341.61,-140.41"/>
<polygon fill="#63b8ff" stroke="#63b8ff" points="299.16,-223.72 291.39,-230.92 301.95,-230.14 299.16,-223.72"/>
</a>
</g>
</g>
<!-- Node11 -->
<g id="Node000011" class="node">
<title>Node11</title>
<g id="a_Node000011"><a xlink:href="return_8h.html" target="_top" xlink:title=" ">
<polygon fill="white" stroke="#666666" points="329.5,-195 274.5,-195 274.5,-176 329.5,-176 329.5,-195"/>
<text text-anchor="middle" x="302" y="-183" font-family="Helvetica,sans-Serif" font-size="10.00">return.h</text>
</a>
</g>
</g>
<!-- Node1&#45;&gt;Node11 -->
<g id="edge10_Node000001_Node000011" class="edge">
<title>Node1&#45;&gt;Node11</title>
<g id="a_edge10_Node000001_Node000011"><a xlink:title=" ">
<path fill="none" stroke="#63b8ff" d="M275.38,-222.67C282.14,-213.5 290.21,-202.52 295.68,-195.09"/>
<polygon fill="#63b8ff" stroke="#63b8ff" points="272.55,-220.62 269.44,-230.75 278.19,-224.77 272.55,-220.62"/>
</a>
</g>
</g>
<!-- Node13 -->
<g id="Node000013" class="node">
<title>Node13</title>
<g id="a_Node000013"><a xlink:href="supply_8h.html" target="_top" xlink:title=" ">
<polygon fill="white" stroke="#666666" points="175,-195 119,-195 119,-176 175,-176 175,-195"/>
<text text-anchor="middle" x="147" y="-183" font-family="Helvetica,sans-Serif" font-size="10.00">supply.h</text>
</a>
</g>
</g>
<!-- Node1&#45;&gt;Node13 -->
<g id="edge14_Node000001_Node000013" class="edge">
<title>Node1&#45;&gt;Node13</title>
<g id="a_edge14_Node000001_Node000013"><a xlink:title=" ">
<path fill="none" stroke="#63b8ff" d="M235.13,-226.77C213.73,-216.99 184.76,-203.75 165.98,-195.17"/>
<polygon fill="#63b8ff" stroke="#63b8ff" points="233.81,-230.01 244.36,-230.98 236.72,-223.65 233.81,-230.01"/>
</a>
</g>
</g>
<!-- Node15 -->
<g id="Node000015" class="node">
<title>Node15</title>
<g id="a_Node000015"><a xlink:href="writeoff_8h.html" target="_top" xlink:title=" ">
<polygon fill="white" stroke="#666666" points="256.5,-195 193.5,-195 193.5,-176 256.5,-176 256.5,-195"/>
<text text-anchor="middle" x="225" y="-183" font-family="Helvetica,sans-Serif" font-size="10.00">writeoff.h</text>
</a>
</g>
</g>
<!-- Node1&#45;&gt;Node15 -->
<g id="edge18_Node000001_Node000015" class="edge">
<title>Node1&#45;&gt;Node15</title>
<g id="a_edge18_Node000001_Node000015"><a xlink:title=" ">
<path fill="none" stroke="#63b8ff" d="M250.73,-222.39C244.19,-213.27 236.43,-202.45 231.16,-195.09"/>
<polygon fill="#63b8ff" stroke="#63b8ff" points="248.05,-224.66 256.73,-230.75 253.74,-220.58 248.05,-224.66"/>
</a>
</g>
</g>
<!-- Node3 -->
<g id="Node000003" class="node">
<title>Node3</title>
<g id="a_Node000003"><a xlink:href="filemanager_8cpp.html" target="_top" xlink:title=" ">
<polygon fill="white" stroke="#666666" points="175.5,-85 80.5,-85 80.5,-66 175.5,-66 175.5,-85"/>
<text text-anchor="middle" x="128" y="-73" font-family="Helvetica,sans-Serif" font-size="10.00">filemanager.cpp</text>
</a>
</g>
</g>
<!-- Node2&#45;&gt;Node3 -->
<g id="edge2_Node000002_Node000003" class="edge">
<title>Node2&#45;&gt;Node3</title>
<g id="a_edge2_Node000002_Node000003"><a xlink:title=" ">
<path fill="none" stroke="#63b8ff" d="M128,-110.66C128,-101.93 128,-91.99 128,-85.09"/>
<polygon fill="#63b8ff" stroke="#63b8ff" points="124.5,-110.75 128,-120.75 131.5,-110.75 124.5,-110.75"/>
</a>
</g>
</g>
<!-- Node6 -->
<g id="Node000006" class="node">
<title>Node6</title>
<g id="a_Node000006"><a xlink:href="mainwindow_8h.html" target="_top" xlink:title=" ">
<polygon fill="white" stroke="#666666" points="467.5,-85 380.5,-85 380.5,-66 467.5,-66 467.5,-85"/>
<text text-anchor="middle" x="424" y="-73" font-family="Helvetica,sans-Serif" font-size="10.00">mainwindow.h</text>
</a>
</g>
</g>
<!-- Node5&#45;&gt;Node6 -->
<g id="edge5_Node000005_Node000006" class="edge">
<title>Node5&#45;&gt;Node6</title>
<g id="a_edge5_Node000005_Node000006"><a xlink:title=" ">
<path fill="none" stroke="#63b8ff" d="M361.57,-115.42C377,-105.81 396.95,-93.37 410.09,-85.17"/>
<polygon fill="#63b8ff" stroke="#63b8ff" points="359.29,-112.72 352.66,-120.98 362.99,-118.66 359.29,-112.72"/>
</a>
</g>
</g>
<!-- Node10 -->
<g id="Node000010" class="node">
<title>Node10</title>
<g id="a_Node000010"><a xlink:href="pharmacymanager_8cpp.html" target="_top" xlink:title=" ">
<polygon fill="white" stroke="#666666" points="362,-85 234,-85 234,-66 362,-66 362,-85"/>
<text text-anchor="middle" x="298" y="-73" font-family="Helvetica,sans-Serif" font-size="10.00">pharmacymanager.cpp</text>
</a>
</g>
</g>
<!-- Node5&#45;&gt;Node10 -->
<g id="edge9_Node000005_Node000010" class="edge">
<title>Node5&#45;&gt;Node10</title>
<g id="a_edge9_Node000005_Node000010"><a xlink:title=" ">
<path fill="none" stroke="#63b8ff" d="M325.98,-112.67C318.88,-103.5 310.4,-92.52 304.64,-85.09"/>
<polygon fill="#63b8ff" stroke="#63b8ff" points="323.34,-114.98 332.23,-120.75 328.88,-110.7 323.34,-114.98"/>
</a>
</g>
</g>
<!-- Node7 -->
<g id="Node000007" class="node">
<title>Node7</title>
<g id="a_Node000007"><a xlink:href="moc__mainwindow_8cpp.html" target="_top" xlink:title=" ">
<polygon fill="white" stroke="#666666" points="375,-30 247,-30 247,0 375,0 375,-30"/>
<text text-anchor="start" x="255" y="-18" font-family="Helvetica,sans-Serif" font-size="10.00">build/Desktop&#45;Debug</text>
<text text-anchor="middle" x="311" y="-7" font-family="Helvetica,sans-Serif" font-size="10.00">/moc_mainwindow.cpp</text>
</a>
</g>
</g>
<!-- Node6&#45;&gt;Node7 -->
<g id="edge6_Node000006_Node000007" class="edge">
<title>Node6&#45;&gt;Node7</title>
<g id="a_edge6_Node000006_Node000007"><a xlink:title=" ">
<path fill="none" stroke="#63b8ff" d="M398.06,-61.07C380.17,-51.81 356.43,-39.52 338.26,-30.11"/>
<polygon fill="#63b8ff" stroke="#63b8ff" points="396.84,-64.38 407.33,-65.87 400.06,-58.16 396.84,-64.38"/>
</a>
</g>
</g>
<!-- Node8 -->
<g id="Node000008" class="node">
<title>Node8</title>
<g id="a_Node000008"><a xlink:href="main_8cpp.html" target="_top" xlink:title=" ">
<polygon fill="white" stroke="#666666" points="455,-24.5 393,-24.5 393,-5.5 455,-5.5 455,-24.5"/>
<text text-anchor="middle" x="424" y="-12.5" font-family="Helvetica,sans-Serif" font-size="10.00">main.cpp</text>
</a>
</g>
</g>
<!-- Node6&#45;&gt;Node8 -->
<g id="edge7_Node000006_Node000008" class="edge">
<title>Node6&#45;&gt;Node8</title>
<g id="a_edge7_Node000006_Node000008"><a xlink:title=" ">
<path fill="none" stroke="#63b8ff" d="M424,-55.66C424,-45.24 424,-32.8 424,-24.67"/>
<polygon fill="#63b8ff" stroke="#63b8ff" points="420.5,-55.87 424,-65.87 427.5,-55.87 420.5,-55.87"/>
</a>
</g>
</g>
<!-- Node9 -->
<g id="Node000009" class="node">
<title>Node9</title>
<g id="a_Node000009"><a xlink:href="mainwindow_8cpp.html" target="_top" xlink:title=" ">
<polygon fill="white" stroke="#666666" points="571,-24.5 473,-24.5 473,-5.5 571,-5.5 571,-24.5"/>
<text text-anchor="middle" x="522" y="-12.5" font-family="Helvetica,sans-Serif" font-size="10.00">mainwindow.cpp</text>
</a>
</g>
</g>
<!-- Node6&#45;&gt;Node9 -->
<g id="edge8_Node000006_Node000009" class="edge">
<title>Node6&#45;&gt;Node9</title>
<g id="a_edge8_Node000006_Node000009"><a xlink:title=" ">
<path fill="none" stroke="#63b8ff" d="M447.25,-60.62C465.94,-49.46 491.61,-34.14 507.48,-24.67"/>
<polygon fill="#63b8ff" stroke="#63b8ff" points="445.25,-57.74 438.46,-65.87 448.84,-63.75 445.25,-57.74"/>
</a>
</g>
</g>
<!-- Node11&#45;&gt;Node2 -->
<g id="edge11_Node000011_Node000002" class="edge">
<title>Node11&#45;&gt;Node2</title>
<g id="a_edge11_Node000011_Node000002"><a xlink:title=" ">
<path fill="none" stroke="#63b8ff" d="M264.8,-173.17C232.2,-163.24 185.55,-149.03 156.02,-140.03"/>
<polygon fill="#63b8ff" stroke="#63b8ff" points="263.84,-176.54 274.43,-176.1 265.88,-169.84 263.84,-176.54"/>
</a>
</g>
</g>
<!-- Node11&#45;&gt;Node5 -->
<g id="edge12_Node000011_Node000005" class="edge">
<title>Node11&#45;&gt;Node5</title>
<g id="a_edge12_Node000011_Node000005"><a xlink:title=" ">
<path fill="none" stroke="#63b8ff" d="M313.95,-167.39C320.31,-158.27 327.87,-147.45 333,-140.09"/>
<polygon fill="#63b8ff" stroke="#63b8ff" points="310.96,-165.55 308.11,-175.75 316.7,-169.55 310.96,-165.55"/>
</a>
</g>
</g>
<!-- Node12 -->
<g id="Node000012" class="node">
<title>Node12</title>
<g id="a_Node000012"><a xlink:href="return_8cpp.html" target="_top" xlink:title=" ">
<polygon fill="white" stroke="#666666" points="482,-140 416,-140 416,-121 482,-121 482,-140"/>
<text text-anchor="middle" x="449" y="-128" font-family="Helvetica,sans-Serif" font-size="10.00">return.cpp</text>
</a>
</g>
</g>
<!-- Node11&#45;&gt;Node12 -->
<g id="edge13_Node000011_Node000012" class="edge">
<title>Node11&#45;&gt;Node12</title>
<g id="a_edge13_Node000011_Node000012"><a xlink:title=" ">
<path fill="none" stroke="#63b8ff" d="M335.14,-172.55C362.44,-162.71 400.5,-148.98 424.95,-140.17"/>
<polygon fill="#63b8ff" stroke="#63b8ff" points="333.84,-169.3 325.62,-175.98 336.21,-175.89 333.84,-169.3"/>
</a>
</g>
</g>
<!-- Node13&#45;&gt;Node2 -->
<g id="edge15_Node000013_Node000002" class="edge">
<title>Node13&#45;&gt;Node2</title>
<g id="a_edge15_Node000013_Node000002"><a xlink:title=" ">
<path fill="none" stroke="#63b8ff" d="M140.45,-166.24C137.28,-157.37 133.61,-147.14 131.08,-140.09"/>
<polygon fill="#63b8ff" stroke="#63b8ff" points="137.19,-167.52 143.86,-175.75 143.78,-165.15 137.19,-167.52"/>
</a>
</g>
</g>
<!-- Node13&#45;&gt;Node5 -->
<g id="edge16_Node000013_Node000005" class="edge">
<title>Node13&#45;&gt;Node5</title>
<g id="a_edge16_Node000013_Node000005"><a xlink:title=" ">
<path fill="none" stroke="#63b8ff" d="M185,-174.01C221.03,-164.07 274.49,-149.31 308.01,-140.06"/>
<polygon fill="#63b8ff" stroke="#63b8ff" points="184.04,-170.64 175.33,-176.68 185.9,-177.39 184.04,-170.64"/>
</a>
</g>
</g>
<!-- Node14 -->
<g id="Node000014" class="node">
<title>Node14</title>
<g id="a_Node000014"><a xlink:href="supply_8cpp.html" target="_top" xlink:title=" ">
<polygon fill="white" stroke="#666666" points="68,-140 0,-140 0,-121 68,-121 68,-140"/>
<text text-anchor="middle" x="34" y="-128" font-family="Helvetica,sans-Serif" font-size="10.00">supply.cpp</text>
</a>
</g>
</g>
<!-- Node13&#45;&gt;Node14 -->
<g id="edge17_Node000013_Node000014" class="edge">
<title>Node13&#45;&gt;Node14</title>
<g id="a_edge17_Node000013_Node000014"><a xlink:title=" ">
<path fill="none" stroke="#63b8ff" d="M119.57,-171.63C98.75,-161.87 70.7,-148.71 52.49,-140.17"/>
<polygon fill="#63b8ff" stroke="#63b8ff" points="118.3,-174.91 128.84,-175.98 121.28,-168.57 118.3,-174.91"/>
</a>
</g>
</g>
<!-- Node15&#45;&gt;Node2 -->
<g id="edge19_Node000015_Node000002" class="edge">
<title>Node15&#45;&gt;Node2</title>
<g id="a_edge19_Node000015_Node000002"><a xlink:title=" ">
<path fill="none" stroke="#63b8ff" d="M200.23,-170.97C182.5,-161.28 159.15,-148.52 143.87,-140.17"/>
<polygon fill="#63b8ff" stroke="#63b8ff" points="198.96,-174.26 209.42,-175.98 202.32,-168.12 198.96,-174.26"/>
</a>
</g>
</g>
<!-- Node15&#45;&gt;Node5 -->
<g id="edge20_Node000015_Node000005" class="edge">
<title>Node15&#45;&gt;Node5</title>
<g id="a_edge20_Node000015_Node000005"><a xlink:title=" ">
<path fill="none" stroke="#63b8ff" d="M252.39,-171.77C273.42,-161.99 301.89,-148.75 320.35,-140.17"/>
<polygon fill="#63b8ff" stroke="#63b8ff" points="250.91,-168.6 243.32,-175.98 253.86,-174.94 250.91,-168.6"/>
</a>
</g>
</g>
<!-- Node16 -->
<g id="Node000016" class="node">
<title>Node16</title>
<g id="a_Node000016"><a xlink:href="writeoff_8cpp.html" target="_top" xlink:title=" ">
<polygon fill="white" stroke="#666666" points="262,-140 188,-140 188,-121 262,-121 262,-140"/>
<text text-anchor="middle" x="225" y="-128" font-family="Helvetica,sans-Serif" font-size="10.00">writeoff.cpp</text>
</a>
</g>
</g>
<!-- Node15&#45;&gt;Node16 -->
<g id="edge21_Node000015_Node000016" class="edge">
<title>Node15&#45;&gt;Node16</title>
<g id="a_edge21_Node000015_Node000016"><a xlink:title=" ">
<path fill="none" stroke="#63b8ff" d="M225,-165.66C225,-156.93 225,-146.99 225,-140.09"/>
<polygon fill="#63b8ff" stroke="#63b8ff" points="221.5,-165.75 225,-175.75 228.5,-165.75 221.5,-165.75"/>
</a>
</g>
</g>
</g>
</svg>
