<?xml version="1.0" encoding="UTF-8" standalone="no"?>
<!DOCTYPE svg PUBLIC "-//W3C//DTD SVG 1.1//EN"
 "http://www.w3.org/Graphics/SVG/1.1/DTD/svg11.dtd">
<!-- Generated by graphviz version 2.43.0 (0)
 -->
<!-- Title: Exception/InventoryExceptions/InventoryException.h Pages: 1 -->
<svg width="764pt" height="159pt"
 viewBox="0.00 0.00 764.09 159.00" xmlns="http://www.w3.org/2000/svg" xmlns:xlink="http://www.w3.org/1999/xlink">
<g id="graph0" class="graph" transform="scale(1 1) rotate(0) translate(4 155)">
<title>Exception/InventoryExceptions/InventoryException.h</title>
<!-- Node1 -->
<g id="Node000001" class="node">
<title>Node1</title>
<g id="a_Node000001"><a xlink:title=" ">
<polygon fill="#999999" stroke="#666666" points="466.59,-151 299.59,-151 299.59,-121 466.59,-121 466.59,-151"/>
<text text-anchor="start" x="307.59" y="-139" font-family="Helvetica,sans-Serif" font-size="10.00">Exception/InventoryExceptions</text>
<text text-anchor="middle" x="383.09" y="-128" font-family="Helvetica,sans-Serif" font-size="10.00">/InventoryException.h</text>
</a>
</g>
</g>
<!-- Node2 -->
<g id="Node000002" class="node">
<title>Node2</title>
<g id="a_Node000002"><a xlink:href="InsufficientQuantityException_8h.html" target="_top" xlink:title=" ">
<polygon fill="white" stroke="#666666" points="188.59,-85 15.59,-85 15.59,-55 188.59,-55 188.59,-85"/>
<text text-anchor="start" x="23.59" y="-73" font-family="Helvetica,sans-Serif" font-size="10.00">Exception/InventoryExceptions</text>
<text text-anchor="middle" x="102.09" y="-62" font-family="Helvetica,sans-Serif" font-size="10.00">/InsufficientQuantityException.h</text>
</a>
</g>
</g>
<!-- Node1&#45;&gt;Node2 -->
<g id="edge1_Node000001_Node000002" class="edge">
<title>Node1&#45;&gt;Node2</title>
<g id="a_edge1_Node000001_Node000002"><a xlink:title=" ">
<path fill="none" stroke="#63b8ff" d="M311.58,-118.71C265.88,-108.31 207.23,-94.95 163.61,-85.01"/>
<polygon fill="#63b8ff" stroke="#63b8ff" points="310.89,-122.15 321.42,-120.95 312.45,-115.32 310.89,-122.15"/>
</a>
</g>
</g>
<!-- Node3 -->
<g id="Node000003" class="node">
<title>Node3</title>
<g id="a_Node000003"><a xlink:href="storage_8cpp.html" target="_top" xlink:title=" ">
<polygon fill="white" stroke="#666666" points="139.09,-19 65.09,-19 65.09,0 139.09,0 139.09,-19"/>
<text text-anchor="middle" x="102.09" y="-7" font-family="Helvetica,sans-Serif" font-size="10.00">storage.cpp</text>
</a>
</g>
</g>
<!-- Node1&#45;&gt;Node3 -->
<g id="edge11_Node000001_Node000003" class="edge">
<title>Node1&#45;&gt;Node3</title>
<g id="a_edge11_Node000001_Node000003"><a xlink:title=" ">
<path fill="none" stroke="#63b8ff" d="M289.42,-128.94C183.88,-121.15 24.53,-106.05 6.09,-85 -2.7,-74.97 -1.09,-66.24 6.09,-55 19.04,-34.72 43.87,-23.54 65.04,-17.46"/>
<polygon fill="#63b8ff" stroke="#63b8ff" points="289.23,-132.44 299.46,-129.68 289.74,-125.46 289.23,-132.44"/>
</a>
</g>
</g>
<!-- Node4 -->
<g id="Node000004" class="node">
<title>Node4</title>
<g id="a_Node000004"><a xlink:href="NegativeQuantityException_8h.html" target="_top" xlink:title=" ">
<polygon fill="white" stroke="#666666" points="411.59,-85 244.59,-85 244.59,-55 411.59,-55 411.59,-85"/>
<text text-anchor="start" x="252.59" y="-73" font-family="Helvetica,sans-Serif" font-size="10.00">Exception/InventoryExceptions</text>
<text text-anchor="middle" x="328.09" y="-62" font-family="Helvetica,sans-Serif" font-size="10.00">/NegativeQuantityException.h</text>
</a>
</g>
</g>
<!-- Node1&#45;&gt;Node4 -->
<g id="edge3_Node000001_Node000004" class="edge">
<title>Node1&#45;&gt;Node4</title>
<g id="a_edge3_Node000001_Node000004"><a xlink:title=" ">
<path fill="none" stroke="#63b8ff" d="M364.26,-113.09C356.32,-103.85 347.3,-93.36 340.26,-85.16"/>
<polygon fill="#63b8ff" stroke="#63b8ff" points="361.71,-115.49 370.88,-120.8 367.02,-110.93 361.71,-115.49"/>
</a>
</g>
</g>
<!-- Node5 -->
<g id="Node000005" class="node">
<title>Node5</title>
<g id="a_Node000005"><a xlink:href="inventoryoperation_8cpp.html" target="_top" xlink:title=" ">
<polygon fill="white" stroke="#666666" points="311.09,-19 181.09,-19 181.09,0 311.09,0 311.09,-19"/>
<text text-anchor="middle" x="246.09" y="-7" font-family="Helvetica,sans-Serif" font-size="10.00">inventoryoperation.cpp</text>
</a>
</g>
</g>
<!-- Node1&#45;&gt;Node5 -->
<g id="edge9_Node000001_Node000005" class="edge">
<title>Node1&#45;&gt;Node5</title>
<g id="a_edge9_Node000001_Node000005"><a xlink:title=" ">
<path fill="none" stroke="#63b8ff" d="M289.51,-122.37C268.29,-114.92 248.18,-103.25 235.09,-85 220.76,-65.03 233.41,-34.21 241.14,-19.25"/>
<polygon fill="#63b8ff" stroke="#63b8ff" points="288.73,-125.79 299.32,-125.5 290.86,-119.12 288.73,-125.79"/>
</a>
</g>
</g>
<!-- Node6 -->
<g id="Node000006" class="node">
<title>Node6</title>
<g id="a_Node000006"><a xlink:href="supply_8cpp.html" target="_top" xlink:title=" ">
<polygon fill="white" stroke="#666666" points="409.09,-19 341.09,-19 341.09,0 409.09,0 409.09,-19"/>
<text text-anchor="middle" x="375.09" y="-7" font-family="Helvetica,sans-Serif" font-size="10.00">supply.cpp</text>
</a>
</g>
</g>
<!-- Node1&#45;&gt;Node6 -->
<g id="edge12_Node000001_Node000006" class="edge">
<title>Node1&#45;&gt;Node6</title>
<g id="a_edge12_Node000001_Node000006"><a xlink:title=" ">
<path fill="none" stroke="#63b8ff" d="M404.19,-112.85C410.58,-104.73 416.77,-95.05 420.09,-85 424.26,-72.34 425.22,-67.3 420.09,-55 413.74,-39.79 399.38,-27.13 388.58,-19.25"/>
<polygon fill="#63b8ff" stroke="#63b8ff" points="401.34,-110.8 397.58,-120.7 406.7,-115.31 401.34,-110.8"/>
</a>
</g>
</g>
<!-- Node7 -->
<g id="Node000007" class="node">
<title>Node7</title>
<g id="a_Node000007"><a xlink:href="writeoff_8cpp.html" target="_top" xlink:title=" ">
<polygon fill="white" stroke="#666666" points="507.09,-19 433.09,-19 433.09,0 507.09,0 507.09,-19"/>
<text text-anchor="middle" x="470.09" y="-7" font-family="Helvetica,sans-Serif" font-size="10.00">writeoff.cpp</text>
</a>
</g>
</g>
<!-- Node1&#45;&gt;Node7 -->
<g id="edge13_Node000001_Node000007" class="edge">
<title>Node1&#45;&gt;Node7</title>
<g id="a_edge13_Node000001_Node000007"><a xlink:title=" ">
<path fill="none" stroke="#63b8ff" d="M408.79,-113.78C417.86,-105.45 427.64,-95.39 435.09,-85 450.58,-63.4 462.03,-33.86 467.14,-19.32"/>
<polygon fill="#63b8ff" stroke="#63b8ff" points="406.24,-111.37 401.09,-120.63 410.89,-116.6 406.24,-111.37"/>
</a>
</g>
</g>
<!-- Node8 -->
<g id="Node000008" class="node">
<title>Node8</title>
<g id="a_Node000008"><a xlink:href="StorageOperationException_8h.html" target="_top" xlink:title=" ">
<polygon fill="white" stroke="#666666" points="671.59,-85 504.59,-85 504.59,-55 671.59,-55 671.59,-85"/>
<text text-anchor="start" x="512.59" y="-73" font-family="Helvetica,sans-Serif" font-size="10.00">Exception/InventoryExceptions</text>
<text text-anchor="middle" x="588.09" y="-62" font-family="Helvetica,sans-Serif" font-size="10.00">/StorageOperationException.h</text>
</a>
</g>
</g>
<!-- Node1&#45;&gt;Node8 -->
<g id="edge8_Node000001_Node000008" class="edge">
<title>Node1&#45;&gt;Node8</title>
<g id="a_edge8_Node000001_Node000008"><a xlink:title=" ">
<path fill="none" stroke="#63b8ff" d="M438,-117.86C470.92,-107.58 512.25,-94.68 543.2,-85.01"/>
<polygon fill="#63b8ff" stroke="#63b8ff" points="436.58,-114.63 428.07,-120.95 438.66,-121.32 436.58,-114.63"/>
</a>
</g>
</g>
<!-- Node9 -->
<g id="Node000009" class="node">
<title>Node9</title>
<g id="a_Node000009"><a xlink:href="return_8cpp.html" target="_top" xlink:title=" ">
<polygon fill="white" stroke="#666666" points="756.09,-79.5 690.09,-79.5 690.09,-60.5 756.09,-60.5 756.09,-79.5"/>
<text text-anchor="middle" x="723.09" y="-67.5" font-family="Helvetica,sans-Serif" font-size="10.00">return.cpp</text>
</a>
</g>
</g>
<!-- Node1&#45;&gt;Node9 -->
<g id="edge10_Node000001_Node000009" class="edge">
<title>Node1&#45;&gt;Node9</title>
<g id="a_edge10_Node000001_Node000009"><a xlink:title=" ">
<path fill="none" stroke="#63b8ff" d="M476.72,-123.1C535.81,-114.66 613.48,-101.83 681.09,-85 687.2,-83.48 693.71,-81.49 699.73,-79.5"/>
<polygon fill="#63b8ff" stroke="#63b8ff" points="476.07,-119.66 466.65,-124.52 477.04,-126.59 476.07,-119.66"/>
</a>
</g>
</g>
<!-- Node2&#45;&gt;Node3 -->
<g id="edge2_Node000002_Node000003" class="edge">
<title>Node2&#45;&gt;Node3</title>
<g id="a_edge2_Node000002_Node000003"><a xlink:title=" ">
<path fill="none" stroke="#63b8ff" d="M102.09,-44.75C102.09,-35.72 102.09,-26.03 102.09,-19.27"/>
<polygon fill="#63b8ff" stroke="#63b8ff" points="98.59,-44.84 102.09,-54.84 105.59,-44.84 98.59,-44.84"/>
</a>
</g>
</g>
<!-- Node4&#45;&gt;Node3 -->
<g id="edge5_Node000004_Node000003" class="edge">
<title>Node4&#45;&gt;Node3</title>
<g id="a_edge5_Node000004_Node000003"><a xlink:title=" ">
<path fill="none" stroke="#63b8ff" d="M264.08,-52.43C222.07,-41.56 168.86,-27.78 135.13,-19.05"/>
<polygon fill="#63b8ff" stroke="#63b8ff" points="263.4,-55.87 273.95,-54.99 265.15,-49.09 263.4,-55.87"/>
</a>
</g>
</g>
<!-- Node4&#45;&gt;Node5 -->
<g id="edge4_Node000004_Node000005" class="edge">
<title>Node4&#45;&gt;Node5</title>
<g id="a_edge4_Node000004_Node000005"><a xlink:title=" ">
<path fill="none" stroke="#63b8ff" d="M299.79,-48.82C285.66,-38.73 269.29,-27.05 258.37,-19.27"/>
<polygon fill="#63b8ff" stroke="#63b8ff" points="298.06,-51.88 308.24,-54.84 302.13,-46.18 298.06,-51.88"/>
</a>
</g>
</g>
<!-- Node4&#45;&gt;Node6 -->
<g id="edge6_Node000004_Node000006" class="edge">
<title>Node4&#45;&gt;Node6</title>
<g id="a_edge6_Node000004_Node000006"><a xlink:title=" ">
<path fill="none" stroke="#63b8ff" d="M345.92,-46.8C353.63,-37.21 362.2,-26.54 368.04,-19.27"/>
<polygon fill="#63b8ff" stroke="#63b8ff" points="343,-44.85 339.46,-54.84 348.46,-49.24 343,-44.85"/>
</a>
</g>
</g>
<!-- Node4&#45;&gt;Node7 -->
<g id="edge7_Node000004_Node000007" class="edge">
<title>Node4&#45;&gt;Node7</title>
<g id="a_edge7_Node000004_Node000007"><a xlink:title=" ">
<path fill="none" stroke="#63b8ff" d="M371.65,-51.05C397.38,-40.45 428.8,-27.51 449.12,-19.14"/>
<polygon fill="#63b8ff" stroke="#63b8ff" points="370.01,-47.94 362.1,-54.99 372.68,-54.41 370.01,-47.94"/>
</a>
</g>
</g>
</g>
</svg>
