<?xml version="1.0" encoding="UTF-8" standalone="no"?>
<!DOCTYPE svg PUBLIC "-//W3C//DTD SVG 1.1//EN"
 "http://www.w3.org/Graphics/SVG/1.1/DTD/svg11.dtd">
<!-- Generated by graphviz version 2.43.0 (0)
 -->
<!-- Title: inventoryoperation.cpp Pages: 1 -->
<svg width="1016pt" height="401pt"
 viewBox="0.00 0.00 1015.50 401.00" xmlns="http://www.w3.org/2000/svg" xmlns:xlink="http://www.w3.org/1999/xlink">
<g id="graph0" class="graph" transform="scale(1 1) rotate(0) translate(4 397)">
<title>inventoryoperation.cpp</title>
<!-- Node1 -->
<g id="Node000001" class="node">
<title>Node1</title>
<g id="a_Node000001"><a xlink:title=" ">
<polygon fill="#999999" stroke="#666666" points="539,-393 409,-393 409,-374 539,-374 539,-393"/>
<text text-anchor="middle" x="474" y="-381" font-family="Helvetica,sans-Serif" font-size="10.00">inventoryoperation.cpp</text>
</a>
</g>
</g>
<!-- Node2 -->
<g id="Node000002" class="node">
<title>Node2</title>
<g id="a_Node000002"><a xlink:href="inventoryoperation_8h.html" target="_top" xlink:title=" ">
<polygon fill="white" stroke="#666666" points="205.5,-332.5 86.5,-332.5 86.5,-313.5 205.5,-313.5 205.5,-332.5"/>
<text text-anchor="middle" x="146" y="-320.5" font-family="Helvetica,sans-Serif" font-size="10.00">inventoryoperation.h</text>
</a>
</g>
</g>
<!-- Node1&#45;&gt;Node2 -->
<g id="edge1_Node000001_Node000002" class="edge">
<title>Node1&#45;&gt;Node2</title>
<g id="a_edge1_Node000001_Node000002"><a xlink:title=" ">
<path fill="none" stroke="#63b8ff" d="M426.31,-373.99C367.4,-363.49 267.25,-345.62 203.96,-334.34"/>
<polygon fill="#63b8ff" stroke="#63b8ff" points="204.21,-330.83 193.75,-332.52 202.98,-337.72 204.21,-330.83"/>
</a>
</g>
</g>
<!-- Node8 -->
<g id="Node000008" class="node">
<title>Node8</title>
<g id="a_Node000008"><a xlink:title=" ">
<polygon fill="#e0e0e0" stroke="#999999" points="292.5,-140 227.5,-140 227.5,-121 292.5,-121 292.5,-140"/>
<text text-anchor="middle" x="260" y="-128" font-family="Helvetica,sans-Serif" font-size="10.00">stdexcept</text>
</a>
</g>
</g>
<!-- Node1&#45;&gt;Node8 -->
<g id="edge29_Node000001_Node000008" class="edge">
<title>Node1&#45;&gt;Node8</title>
<g id="a_edge29_Node000001_Node000008"><a xlink:title=" ">
<path fill="none" stroke="#63b8ff" d="M433.83,-373.94C410.24,-367.29 381.02,-356.08 360,-338 299.95,-286.36 272.85,-190.36 263.75,-150.06"/>
<polygon fill="#63b8ff" stroke="#63b8ff" points="267.12,-149.1 261.6,-140.06 260.28,-150.57 267.12,-149.1"/>
</a>
</g>
</g>
<!-- Node10 -->
<g id="Node000010" class="node">
<title>Node10</title>
<g id="a_Node000010"><a xlink:href="InventoryException_8h.html" target="_top" xlink:title=" ">
<polygon fill="white" stroke="#666666" points="1007.5,-272 840.5,-272 840.5,-242 1007.5,-242 1007.5,-272"/>
<text text-anchor="start" x="848.5" y="-260" font-family="Helvetica,sans-Serif" font-size="10.00">Exception/InventoryExceptions</text>
<text text-anchor="middle" x="924" y="-249" font-family="Helvetica,sans-Serif" font-size="10.00">/InventoryException.h</text>
</a>
</g>
</g>
<!-- Node1&#45;&gt;Node10 -->
<g id="edge12_Node000001_Node000010" class="edge">
<title>Node1&#45;&gt;Node10</title>
<g id="a_edge12_Node000001_Node000010"><a xlink:title=" ">
<path fill="none" stroke="#63b8ff" d="M478.59,-373.76C487.57,-357.63 509.14,-323.46 538,-308 650.84,-247.57 698.65,-287.7 830.32,-271.99"/>
<polygon fill="#63b8ff" stroke="#63b8ff" points="830.89,-275.44 840.36,-270.7 830,-268.5 830.89,-275.44"/>
</a>
</g>
</g>
<!-- Node12 -->
<g id="Node000012" class="node">
<title>Node12</title>
<g id="a_Node000012"><a xlink:href="NegativeQuantityException_8h.html" target="_top" xlink:title=" ">
<polygon fill="white" stroke="#666666" points="713.5,-338 546.5,-338 546.5,-308 713.5,-308 713.5,-338"/>
<text text-anchor="start" x="554.5" y="-326" font-family="Helvetica,sans-Serif" font-size="10.00">Exception/InventoryExceptions</text>
<text text-anchor="middle" x="630" y="-315" font-family="Helvetica,sans-Serif" font-size="10.00">/NegativeQuantityException.h</text>
</a>
</g>
</g>
<!-- Node1&#45;&gt;Node12 -->
<g id="edge15_Node000001_Node000012" class="edge">
<title>Node1&#45;&gt;Node12</title>
<g id="a_edge15_Node000001_Node000012"><a xlink:title=" ">
<path fill="none" stroke="#63b8ff" d="M496.68,-373.99C519.23,-365.54 554.49,-352.32 583.08,-341.59"/>
<polygon fill="#63b8ff" stroke="#63b8ff" points="584.36,-344.85 592.5,-338.06 581.9,-338.3 584.36,-344.85"/>
</a>
</g>
</g>
<!-- Node13 -->
<g id="Node000013" class="node">
<title>Node13</title>
<g id="a_Node000013"><a xlink:href="safeinput_8h.html" target="_top" xlink:title=" ">
<polygon fill="white" stroke="#666666" points="491,-332.5 369,-332.5 369,-313.5 491,-313.5 491,-332.5"/>
<text text-anchor="middle" x="430" y="-320.5" font-family="Helvetica,sans-Serif" font-size="10.00">Exception/safeinput.h</text>
</a>
</g>
</g>
<!-- Node1&#45;&gt;Node13 -->
<g id="edge17_Node000001_Node000013" class="edge">
<title>Node1&#45;&gt;Node13</title>
<g id="a_edge17_Node000001_Node000013"><a xlink:title=" ">
<path fill="none" stroke="#63b8ff" d="M467.51,-373.87C461.01,-365.23 450.84,-351.7 442.72,-340.92"/>
<polygon fill="#63b8ff" stroke="#63b8ff" points="445.33,-338.56 436.52,-332.67 439.73,-342.76 445.33,-338.56"/>
</a>
</g>
</g>
<!-- Node19 -->
<g id="Node000019" class="node">
<title>Node19</title>
<g id="a_Node000019"><a xlink:title=" ">
<polygon fill="#e0e0e0" stroke="#999999" points="787,-332.5 731,-332.5 731,-313.5 787,-313.5 787,-332.5"/>
<text text-anchor="middle" x="759" y="-320.5" font-family="Helvetica,sans-Serif" font-size="10.00">sstream</text>
</a>
</g>
</g>
<!-- Node1&#45;&gt;Node19 -->
<g id="edge28_Node000001_Node000019" class="edge">
<title>Node1&#45;&gt;Node19</title>
<g id="a_edge28_Node000001_Node000019"><a xlink:title=" ">
<path fill="none" stroke="#63b8ff" d="M539.01,-374.41C589.71,-367.25 661.59,-355.25 723,-338 725.15,-337.4 727.35,-336.71 729.55,-335.98"/>
<polygon fill="#63b8ff" stroke="#63b8ff" points="730.83,-339.24 739.05,-332.55 728.46,-332.65 730.83,-339.24"/>
</a>
</g>
</g>
<!-- Node3 -->
<g id="Node000003" class="node">
<title>Node3</title>
<g id="a_Node000003"><a xlink:href="medicalproduct_8h.html" target="_top" xlink:title=" ">
<polygon fill="white" stroke="#666666" points="177.5,-266.5 76.5,-266.5 76.5,-247.5 177.5,-247.5 177.5,-266.5"/>
<text text-anchor="middle" x="127" y="-254.5" font-family="Helvetica,sans-Serif" font-size="10.00">medicalproduct.h</text>
</a>
</g>
</g>
<!-- Node2&#45;&gt;Node3 -->
<g id="edge2_Node000002_Node000003" class="edge">
<title>Node2&#45;&gt;Node3</title>
<g id="a_edge2_Node000002_Node000003"><a xlink:title=" ">
<path fill="none" stroke="#63b8ff" d="M143.44,-313.37C140.65,-303.97 136.11,-288.67 132.5,-276.53"/>
<polygon fill="#63b8ff" stroke="#63b8ff" points="135.85,-275.5 129.64,-266.91 129.13,-277.49 135.85,-275.5"/>
</a>
</g>
</g>
<!-- Node7 -->
<g id="Node000007" class="node">
<title>Node7</title>
<g id="a_Node000007"><a xlink:href="safedate_8h.html" target="_top" xlink:title=" ">
<polygon fill="white" stroke="#666666" points="232,-200.5 164,-200.5 164,-181.5 232,-181.5 232,-200.5"/>
<text text-anchor="middle" x="198" y="-188.5" font-family="Helvetica,sans-Serif" font-size="10.00">safedate.h</text>
</a>
</g>
</g>
<!-- Node2&#45;&gt;Node7 -->
<g id="edge10_Node000002_Node000007" class="edge">
<title>Node2&#45;&gt;Node7</title>
<g id="a_edge10_Node000002_Node000007"><a xlink:title=" ">
<path fill="none" stroke="#63b8ff" d="M155.3,-313.4C164.69,-304.14 178.79,-288.5 186,-272 194.59,-252.34 197.2,-227.66 197.91,-210.95"/>
<polygon fill="#63b8ff" stroke="#63b8ff" points="201.41,-210.89 198.15,-200.81 194.41,-210.73 201.41,-210.89"/>
</a>
</g>
</g>
<!-- Node9 -->
<g id="Node000009" class="node">
<title>Node9</title>
<g id="a_Node000009"><a xlink:title=" ">
<polygon fill="#e0e0e0" stroke="#999999" points="58,-266.5 0,-266.5 0,-247.5 58,-247.5 58,-266.5"/>
<text text-anchor="middle" x="29" y="-254.5" font-family="Helvetica,sans-Serif" font-size="10.00">memory</text>
</a>
</g>
</g>
<!-- Node2&#45;&gt;Node9 -->
<g id="edge11_Node000002_Node000009" class="edge">
<title>Node2&#45;&gt;Node9</title>
<g id="a_edge11_Node000002_Node000009"><a xlink:title=" ">
<path fill="none" stroke="#63b8ff" d="M130.22,-313.37C110.59,-302.63 76.86,-284.18 53.77,-271.55"/>
<polygon fill="#63b8ff" stroke="#63b8ff" points="55.36,-268.43 44.9,-266.7 52,-274.57 55.36,-268.43"/>
</a>
</g>
</g>
<!-- Node4 -->
<g id="Node000004" class="node">
<title>Node4</title>
<g id="a_Node000004"><a xlink:title=" ">
<polygon fill="#e0e0e0" stroke="#999999" points="366,-19 306,-19 306,0 366,0 366,-19"/>
<text text-anchor="middle" x="336" y="-7" font-family="Helvetica,sans-Serif" font-size="10.00">iostream</text>
</a>
</g>
</g>
<!-- Node3&#45;&gt;Node4 -->
<g id="edge3_Node000003_Node000004" class="edge">
<title>Node3&#45;&gt;Node4</title>
<g id="a_edge3_Node000003_Node000004"><a xlink:title=" ">
<path fill="none" stroke="#63b8ff" d="M119.88,-247.39C102.18,-224.91 59.55,-163.22 87,-121 133.48,-49.52 237.98,-23.92 295.73,-15.02"/>
<polygon fill="#63b8ff" stroke="#63b8ff" points="296.55,-18.44 305.95,-13.55 295.55,-11.51 296.55,-18.44"/>
</a>
</g>
</g>
<!-- Node5 -->
<g id="Node000005" class="node">
<title>Node5</title>
<g id="a_Node000005"><a xlink:title=" ">
<polygon fill="#e0e0e0" stroke="#999999" points="209,-140 165,-140 165,-121 209,-121 209,-140"/>
<text text-anchor="middle" x="187" y="-128" font-family="Helvetica,sans-Serif" font-size="10.00">string</text>
</a>
</g>
</g>
<!-- Node3&#45;&gt;Node5 -->
<g id="edge4_Node000003_Node000005" class="edge">
<title>Node3&#45;&gt;Node5</title>
<g id="a_edge4_Node000003_Node000005"><a xlink:title=" ">
<path fill="none" stroke="#63b8ff" d="M129.17,-247.26C133.11,-232.18 142.22,-200.54 155,-176 160.1,-166.21 167.15,-156.15 173.34,-148.08"/>
<polygon fill="#63b8ff" stroke="#63b8ff" points="176.11,-150.22 179.57,-140.21 170.62,-145.87 176.11,-150.22"/>
</a>
</g>
</g>
<!-- Node6 -->
<g id="Node000006" class="node">
<title>Node6</title>
<g id="a_Node000006"><a xlink:title=" ">
<polygon fill="#e0e0e0" stroke="#999999" points="140,-140 96,-140 96,-121 140,-121 140,-140"/>
<text text-anchor="middle" x="118" y="-128" font-family="Helvetica,sans-Serif" font-size="10.00">ctime</text>
</a>
</g>
</g>
<!-- Node3&#45;&gt;Node6 -->
<g id="edge5_Node000003_Node000006" class="edge">
<title>Node3&#45;&gt;Node6</title>
<g id="a_edge5_Node000003_Node000006"><a xlink:title=" ">
<path fill="none" stroke="#63b8ff" d="M125.99,-247.16C124.88,-237.18 123.11,-220.44 122,-206 120.55,-187.06 119.45,-165.38 118.77,-150.31"/>
<polygon fill="#63b8ff" stroke="#63b8ff" points="122.26,-150.07 118.34,-140.23 115.27,-150.37 122.26,-150.07"/>
</a>
</g>
</g>
<!-- Node3&#45;&gt;Node7 -->
<g id="edge6_Node000003_Node000007" class="edge">
<title>Node3&#45;&gt;Node7</title>
<g id="a_edge6_Node000003_Node000007"><a xlink:title=" ">
<path fill="none" stroke="#63b8ff" d="M136.58,-247.37C147.84,-237.21 166.76,-220.16 180.63,-207.65"/>
<polygon fill="#63b8ff" stroke="#63b8ff" points="183.04,-210.2 188.12,-200.91 178.35,-205 183.04,-210.2"/>
</a>
</g>
</g>
<!-- Node7&#45;&gt;Node5 -->
<g id="edge9_Node000007_Node000005" class="edge">
<title>Node7&#45;&gt;Node5</title>
<g id="a_edge9_Node000007_Node000005"><a xlink:title=" ">
<path fill="none" stroke="#63b8ff" d="M196.38,-181.37C194.83,-173.16 192.46,-160.54 190.49,-150.05"/>
<polygon fill="#63b8ff" stroke="#63b8ff" points="193.92,-149.35 188.63,-140.17 187.04,-150.64 193.92,-149.35"/>
</a>
</g>
</g>
<!-- Node7&#45;&gt;Node6 -->
<g id="edge7_Node000007_Node000006" class="edge">
<title>Node7&#45;&gt;Node6</title>
<g id="a_edge7_Node000007_Node000006"><a xlink:title=" ">
<path fill="none" stroke="#63b8ff" d="M186.2,-181.37C173.55,-172.12 153.26,-157.28 138.09,-146.19"/>
<polygon fill="#63b8ff" stroke="#63b8ff" points="139.99,-143.24 129.85,-140.17 135.86,-148.9 139.99,-143.24"/>
</a>
</g>
</g>
<!-- Node7&#45;&gt;Node8 -->
<g id="edge8_Node000007_Node000008" class="edge">
<title>Node7&#45;&gt;Node8</title>
<g id="a_edge8_Node000007_Node000008"><a xlink:title=" ">
<path fill="none" stroke="#63b8ff" d="M207.15,-181.37C216.67,-172.38 231.8,-158.11 243.43,-147.14"/>
<polygon fill="#63b8ff" stroke="#63b8ff" points="245.94,-149.58 250.81,-140.17 241.14,-144.48 245.94,-149.58"/>
</a>
</g>
</g>
<!-- Node11 -->
<g id="Node000011" class="node">
<title>Node11</title>
<g id="a_Node000011"><a xlink:href="PharmacyException_8h.html" target="_top" xlink:title=" ">
<polygon fill="white" stroke="#666666" points="572,-85 402,-85 402,-55 572,-55 572,-85"/>
<text text-anchor="start" x="410" y="-73" font-family="Helvetica,sans-Serif" font-size="10.00">Exception/PharmacyExceptions</text>
<text text-anchor="middle" x="487" y="-62" font-family="Helvetica,sans-Serif" font-size="10.00">/PharmacyException.h</text>
</a>
</g>
</g>
<!-- Node10&#45;&gt;Node11 -->
<g id="edge13_Node000010_Node000011" class="edge">
<title>Node10&#45;&gt;Node11</title>
<g id="a_edge13_Node000010_Node000011"><a xlink:title=" ">
<path fill="none" stroke="#63b8ff" d="M890.8,-241.94C812.47,-208.78 616.24,-125.71 529.44,-88.97"/>
<polygon fill="#63b8ff" stroke="#63b8ff" points="530.73,-85.71 520.15,-85.04 528,-92.16 530.73,-85.71"/>
</a>
</g>
</g>
<!-- Node11&#45;&gt;Node4 -->
<g id="edge14_Node000011_Node000004" class="edge">
<title>Node11&#45;&gt;Node4</title>
<g id="a_edge14_Node000011_Node000004"><a xlink:title=" ">
<path fill="none" stroke="#63b8ff" d="M450.83,-54.99C425.53,-45.18 392.04,-32.21 367.76,-22.81"/>
<polygon fill="#63b8ff" stroke="#63b8ff" points="368.89,-19.49 358.3,-19.14 366.36,-26.02 368.89,-19.49"/>
</a>
</g>
</g>
<!-- Node12&#45;&gt;Node10 -->
<g id="edge16_Node000012_Node000010" class="edge">
<title>Node12&#45;&gt;Node10</title>
<g id="a_edge16_Node000012_Node000010"><a xlink:title=" ">
<path fill="none" stroke="#63b8ff" d="M694.52,-307.95C740.28,-297.99 801.82,-284.6 849.64,-274.19"/>
<polygon fill="#63b8ff" stroke="#63b8ff" points="850.6,-277.56 859.63,-272.01 849.12,-270.72 850.6,-277.56"/>
</a>
</g>
</g>
<!-- Node13&#45;&gt;Node4 -->
<g id="edge18_Node000013_Node000004" class="edge">
<title>Node13&#45;&gt;Node4</title>
<g id="a_edge18_Node000013_Node000004"><a xlink:title=" ">
<path fill="none" stroke="#63b8ff" d="M417.71,-313.5C392.23,-294.75 336,-247.15 336,-192 336,-192 336,-192 336,-129.5 336,-94.15 336,-52.9 336,-29.42"/>
<polygon fill="#63b8ff" stroke="#63b8ff" points="339.5,-29.16 336,-19.16 332.5,-29.16 339.5,-29.16"/>
</a>
</g>
</g>
<!-- Node13&#45;&gt;Node5 -->
<g id="edge19_Node000013_Node000005" class="edge">
<title>Node13&#45;&gt;Node5</title>
<g id="a_edge19_Node000013_Node000005"><a xlink:title=" ">
<path fill="none" stroke="#63b8ff" d="M403.37,-313.38C380.36,-305.11 346.97,-291.05 322,-272 277.62,-238.14 280.7,-215.24 241,-176 230.34,-165.46 217.4,-154.74 206.86,-146.46"/>
<polygon fill="#63b8ff" stroke="#63b8ff" points="208.73,-143.48 198.68,-140.14 204.46,-149.02 208.73,-143.48"/>
</a>
</g>
</g>
<!-- Node14 -->
<g id="Node000014" class="node">
<title>Node14</title>
<g id="a_Node000014"><a xlink:title=" ">
<polygon fill="#e0e0e0" stroke="#999999" points="634,-266.5 590,-266.5 590,-247.5 634,-247.5 634,-266.5"/>
<text text-anchor="middle" x="612" y="-254.5" font-family="Helvetica,sans-Serif" font-size="10.00">limits</text>
</a>
</g>
</g>
<!-- Node13&#45;&gt;Node14 -->
<g id="edge20_Node000013_Node000014" class="edge">
<title>Node13&#45;&gt;Node14</title>
<g id="a_edge20_Node000013_Node000014"><a xlink:title=" ">
<path fill="none" stroke="#63b8ff" d="M458.7,-313.48C489.32,-304.16 539.07,-288.36 581,-272 582.18,-271.54 583.37,-271.06 584.58,-270.57"/>
<polygon fill="#63b8ff" stroke="#63b8ff" points="585.97,-273.78 593.78,-266.61 583.21,-267.35 585.97,-273.78"/>
</a>
</g>
</g>
<!-- Node15 -->
<g id="Node000015" class="node">
<title>Node15</title>
<g id="a_Node000015"><a xlink:href="InvalidProductDataException_8h.html" target="_top" xlink:title=" ">
<polygon fill="white" stroke="#666666" points="572,-206 402,-206 402,-176 572,-176 572,-206"/>
<text text-anchor="start" x="410" y="-194" font-family="Helvetica,sans-Serif" font-size="10.00">Exception/PharmacyExceptions</text>
<text text-anchor="middle" x="487" y="-183" font-family="Helvetica,sans-Serif" font-size="10.00">/InvalidProductDataException.h</text>
</a>
</g>
</g>
<!-- Node13&#45;&gt;Node15 -->
<g id="edge21_Node000013_Node000015" class="edge">
<title>Node13&#45;&gt;Node15</title>
<g id="a_edge21_Node000013_Node000015"><a xlink:title=" ">
<path fill="none" stroke="#63b8ff" d="M420.42,-313.28C405.08,-298.25 378.19,-266.66 393,-242 401.28,-228.22 414.78,-218.04 428.99,-210.59"/>
<polygon fill="#63b8ff" stroke="#63b8ff" points="430.89,-213.56 438.39,-206.08 427.86,-207.25 430.89,-213.56"/>
</a>
</g>
</g>
<!-- Node17 -->
<g id="Node000017" class="node">
<title>Node17</title>
<g id="a_Node000017"><a xlink:href="InvalidPriceException_8h.html" target="_top" xlink:title=" ">
<polygon fill="white" stroke="#666666" points="572,-272 402,-272 402,-242 572,-242 572,-272"/>
<text text-anchor="start" x="410" y="-260" font-family="Helvetica,sans-Serif" font-size="10.00">Exception/PharmacyExceptions</text>
<text text-anchor="middle" x="487" y="-249" font-family="Helvetica,sans-Serif" font-size="10.00">/InvalidPriceException.h</text>
</a>
</g>
</g>
<!-- Node13&#45;&gt;Node17 -->
<g id="edge24_Node000013_Node000017" class="edge">
<title>Node13&#45;&gt;Node17</title>
<g id="a_edge24_Node000013_Node000017"><a xlink:title=" ">
<path fill="none" stroke="#63b8ff" d="M437.69,-313.37C445.29,-304.83 457.24,-291.41 467.48,-279.92"/>
<polygon fill="#63b8ff" stroke="#63b8ff" points="470.17,-282.16 474.21,-272.36 464.95,-277.5 470.17,-282.16"/>
</a>
</g>
</g>
<!-- Node18 -->
<g id="Node000018" class="node">
<title>Node18</title>
<g id="a_Node000018"><a xlink:href="InvalidProductIdException_8h.html" target="_top" xlink:title=" ">
<polygon fill="white" stroke="#666666" points="822,-272 652,-272 652,-242 822,-242 822,-272"/>
<text text-anchor="start" x="660" y="-260" font-family="Helvetica,sans-Serif" font-size="10.00">Exception/PharmacyExceptions</text>
<text text-anchor="middle" x="737" y="-249" font-family="Helvetica,sans-Serif" font-size="10.00">/InvalidProductIdException.h</text>
</a>
</g>
</g>
<!-- Node13&#45;&gt;Node18 -->
<g id="edge26_Node000013_Node000018" class="edge">
<title>Node13&#45;&gt;Node18</title>
<g id="a_edge26_Node000013_Node000018"><a xlink:title=" ">
<path fill="none" stroke="#63b8ff" d="M471.08,-313.44C519.22,-303.4 600,-286.56 659.92,-274.07"/>
<polygon fill="#63b8ff" stroke="#63b8ff" points="660.65,-277.49 669.72,-272.02 659.22,-270.64 660.65,-277.49"/>
</a>
</g>
</g>
<!-- Node16 -->
<g id="Node000016" class="node">
<title>Node16</title>
<g id="a_Node000016"><a xlink:href="MedicalProductException_8h.html" target="_top" xlink:title=" ">
<polygon fill="white" stroke="#666666" points="561.5,-140 412.5,-140 412.5,-121 561.5,-121 561.5,-140"/>
<text text-anchor="middle" x="487" y="-128" font-family="Helvetica,sans-Serif" font-size="10.00">MedicalProductException.h</text>
</a>
</g>
</g>
<!-- Node15&#45;&gt;Node16 -->
<g id="edge22_Node000015_Node000016" class="edge">
<title>Node15&#45;&gt;Node16</title>
<g id="a_edge22_Node000015_Node000016"><a xlink:title=" ">
<path fill="none" stroke="#63b8ff" d="M487,-175.84C487,-168.21 487,-158.7 487,-150.45"/>
<polygon fill="#63b8ff" stroke="#63b8ff" points="490.5,-150.27 487,-140.27 483.5,-150.27 490.5,-150.27"/>
</a>
</g>
</g>
<!-- Node16&#45;&gt;Node11 -->
<g id="edge23_Node000016_Node000011" class="edge">
<title>Node16&#45;&gt;Node11</title>
<g id="a_edge23_Node000016_Node000011"><a xlink:title=" ">
<path fill="none" stroke="#63b8ff" d="M487,-120.87C487,-114.11 487,-104.35 487,-95.26"/>
<polygon fill="#63b8ff" stroke="#63b8ff" points="490.5,-95.11 487,-85.11 483.5,-95.11 490.5,-95.11"/>
</a>
</g>
</g>
<!-- Node17&#45;&gt;Node15 -->
<g id="edge25_Node000017_Node000015" class="edge">
<title>Node17&#45;&gt;Node15</title>
<g id="a_edge25_Node000017_Node000015"><a xlink:title=" ">
<path fill="none" stroke="#63b8ff" d="M487,-241.8C487,-234.34 487,-224.99 487,-216.41"/>
<polygon fill="#63b8ff" stroke="#63b8ff" points="490.5,-216.16 487,-206.16 483.5,-216.16 490.5,-216.16"/>
</a>
</g>
</g>
<!-- Node18&#45;&gt;Node15 -->
<g id="edge27_Node000018_Node000015" class="edge">
<title>Node18&#45;&gt;Node15</title>
<g id="a_edge27_Node000018_Node000015"><a xlink:title=" ">
<path fill="none" stroke="#63b8ff" d="M682.14,-241.95C643.63,-232.1 591.99,-218.88 551.51,-208.51"/>
<polygon fill="#63b8ff" stroke="#63b8ff" points="552.29,-205.1 541.74,-206.01 550.56,-211.88 552.29,-205.1"/>
</a>
</g>
</g>
</g>
</svg>
