<?xml version="1.0" encoding="UTF-8" standalone="no"?>
<!DOCTYPE svg PUBLIC "-//W3C//DTD SVG 1.1//EN"
 "http://www.w3.org/Graphics/SVG/1.1/DTD/svg11.dtd">
<!-- Generated by graphviz version 2.43.0 (0)
 -->
<!-- Title: mainwindow.h Pages: 1 -->
<svg width="2162pt" height="368pt"
 viewBox="0.00 0.00 2162.00 368.00" xmlns="http://www.w3.org/2000/svg" xmlns:xlink="http://www.w3.org/1999/xlink">
<g id="graph0" class="graph" transform="scale(1 1) rotate(0) translate(4 364)">
<title>mainwindow.h</title>
<!-- Node1 -->
<g id="Node000001" class="node">
<title>Node1</title>
<g id="a_Node000001"><a xlink:title=" ">
<polygon fill="#999999" stroke="#666666" points="919.5,-360 832.5,-360 832.5,-341 919.5,-341 919.5,-360"/>
<text text-anchor="middle" x="876" y="-348" font-family="Helvetica,sans-Serif" font-size="10.00">mainwindow.h</text>
</a>
</g>
</g>
<!-- Node2 -->
<g id="Node000002" class="node">
<title>Node2</title>
<g id="a_Node000002"><a xlink:title=" ">
<polygon fill="#e0e0e0" stroke="#999999" points="367.5,-305 280.5,-305 280.5,-286 367.5,-286 367.5,-305"/>
<text text-anchor="middle" x="324" y="-293" font-family="Helvetica,sans-Serif" font-size="10.00">QMainWindow</text>
</a>
</g>
</g>
<!-- Node1&#45;&gt;Node2 -->
<g id="edge1_Node000001_Node000002" class="edge">
<title>Node1&#45;&gt;Node2</title>
<g id="a_edge1_Node000001_Node000002"><a xlink:title=" ">
<path fill="none" stroke="#63b8ff" d="M832.41,-346.7C747.08,-340.98 551.8,-326.76 377.77,-305.14"/>
<polygon fill="#63b8ff" stroke="#63b8ff" points="378.02,-301.65 367.66,-303.87 377.15,-308.59 378.02,-301.65"/>
</a>
</g>
</g>
<!-- Node3 -->
<g id="Node000003" class="node">
<title>Node3</title>
<g id="a_Node000003"><a xlink:title=" ">
<polygon fill="#e0e0e0" stroke="#999999" points="436.5,-305 385.5,-305 385.5,-286 436.5,-286 436.5,-305"/>
<text text-anchor="middle" x="411" y="-293" font-family="Helvetica,sans-Serif" font-size="10.00">QStack</text>
</a>
</g>
</g>
<!-- Node1&#45;&gt;Node3 -->
<g id="edge2_Node000001_Node000003" class="edge">
<title>Node1&#45;&gt;Node3</title>
<g id="a_edge2_Node000001_Node000003"><a xlink:title=" ">
<path fill="none" stroke="#63b8ff" d="M832.28,-347.05C755.86,-342.31 592.93,-330.23 446.6,-305.05"/>
<polygon fill="#63b8ff" stroke="#63b8ff" points="446.99,-301.57 436.54,-303.3 445.79,-308.47 446.99,-301.57"/>
</a>
</g>
</g>
<!-- Node4 -->
<g id="Node000004" class="node">
<title>Node4</title>
<g id="a_Node000004"><a xlink:title=" ">
<polygon fill="#e0e0e0" stroke="#999999" points="529.5,-305 454.5,-305 454.5,-286 529.5,-286 529.5,-305"/>
<text text-anchor="middle" x="492" y="-293" font-family="Helvetica,sans-Serif" font-size="10.00">QCompleter</text>
</a>
</g>
</g>
<!-- Node1&#45;&gt;Node4 -->
<g id="edge3_Node000001_Node000004" class="edge">
<title>Node1&#45;&gt;Node4</title>
<g id="a_edge3_Node000001_Node000004"><a xlink:title=" ">
<path fill="none" stroke="#63b8ff" d="M832.28,-344.4C769.81,-336.97 651.16,-322.3 539.75,-305.05"/>
<polygon fill="#63b8ff" stroke="#63b8ff" points="540.1,-301.56 529.68,-303.48 539.02,-308.48 540.1,-301.56"/>
</a>
</g>
</g>
<!-- Node5 -->
<g id="Node000005" class="node">
<title>Node5</title>
<g id="a_Node000005"><a xlink:href="addproductdialog_8h.html" target="_top" xlink:title=" ">
<polygon fill="white" stroke="#666666" points="658,-305 548,-305 548,-286 658,-286 658,-305"/>
<text text-anchor="middle" x="603" y="-293" font-family="Helvetica,sans-Serif" font-size="10.00">addproductdialog.h</text>
</a>
</g>
</g>
<!-- Node1&#45;&gt;Node5 -->
<g id="edge4_Node000001_Node000005" class="edge">
<title>Node1&#45;&gt;Node5</title>
<g id="a_edge4_Node000001_Node000005"><a xlink:title=" ">
<path fill="none" stroke="#63b8ff" d="M832.44,-341.04C784.74,-331.78 708.2,-316.92 656.79,-306.94"/>
<polygon fill="#63b8ff" stroke="#63b8ff" points="657.34,-303.48 646.86,-305.01 656.01,-310.36 657.34,-303.48"/>
</a>
</g>
</g>
<!-- Node16 -->
<g id="Node000016" class="node">
<title>Node16</title>
<g id="a_Node000016"><a xlink:href="medicalproduct_8h.html" target="_top" xlink:title=" ">
<polygon fill="white" stroke="#666666" points="1547.5,-129 1446.5,-129 1446.5,-110 1547.5,-110 1547.5,-129"/>
<text text-anchor="middle" x="1497" y="-117" font-family="Helvetica,sans-Serif" font-size="10.00">medicalproduct.h</text>
</a>
</g>
</g>
<!-- Node1&#45;&gt;Node16 -->
<g id="edge15_Node000001_Node000016" class="edge">
<title>Node1&#45;&gt;Node16</title>
<g id="a_edge15_Node000001_Node000016"><a xlink:title=" ">
<path fill="none" stroke="#63b8ff" d="M919.51,-349.46C1131.25,-348.83 2047.14,-340.83 2131,-250 2193.28,-182.54 2118.74,-192.29 2023,-165 1937.04,-140.49 1676.68,-127.5 1557.61,-122.7"/>
<polygon fill="#63b8ff" stroke="#63b8ff" points="1557.69,-119.2 1547.56,-122.3 1557.42,-126.19 1557.69,-119.2"/>
</a>
</g>
</g>
<!-- Node22 -->
<g id="Node000022" class="node">
<title>Node22</title>
<g id="a_Node000022"><a xlink:href="pharmacymanager_8h.html" target="_top" xlink:title=" ">
<polygon fill="white" stroke="#666666" points="1434.5,-305 1317.5,-305 1317.5,-286 1434.5,-286 1434.5,-305"/>
<text text-anchor="middle" x="1376" y="-293" font-family="Helvetica,sans-Serif" font-size="10.00">pharmacymanager.h</text>
</a>
</g>
</g>
<!-- Node1&#45;&gt;Node22 -->
<g id="edge23_Node000001_Node000022" class="edge">
<title>Node1&#45;&gt;Node22</title>
<g id="a_edge23_Node000001_Node000022"><a xlink:title=" ">
<path fill="none" stroke="#63b8ff" d="M919.93,-344.84C1007.11,-335.6 1202.53,-314.89 1307.02,-303.81"/>
<polygon fill="#63b8ff" stroke="#63b8ff" points="1307.57,-307.27 1317.14,-302.74 1306.83,-300.31 1307.57,-307.27"/>
</a>
</g>
</g>
<!-- Node38 -->
<g id="Node000038" class="node">
<title>Node38</title>
<g id="a_Node000038"><a xlink:href="tablet_8h.html" target="_top" xlink:title=" ">
<polygon fill="white" stroke="#666666" points="953,-244.5 899,-244.5 899,-225.5 953,-225.5 953,-244.5"/>
<text text-anchor="middle" x="926" y="-232.5" font-family="Helvetica,sans-Serif" font-size="10.00">tablet.h</text>
</a>
</g>
</g>
<!-- Node1&#45;&gt;Node38 -->
<g id="edge62_Node000001_Node000038" class="edge">
<title>Node1&#45;&gt;Node38</title>
<g id="a_edge62_Node000001_Node000038"><a xlink:title=" ">
<path fill="none" stroke="#63b8ff" d="M877.88,-340.61C880.69,-328.08 886.59,-304.68 895,-286 900.16,-274.54 907.51,-262.55 913.77,-253.19"/>
<polygon fill="#63b8ff" stroke="#63b8ff" points="916.74,-255.03 919.53,-244.81 910.98,-251.07 916.74,-255.03"/>
</a>
</g>
</g>
<!-- Node39 -->
<g id="Node000039" class="node">
<title>Node39</title>
<g id="a_Node000039"><a xlink:href="ointment_8h.html" target="_top" xlink:title=" ">
<polygon fill="white" stroke="#666666" points="974,-305 904,-305 904,-286 974,-286 974,-305"/>
<text text-anchor="middle" x="939" y="-293" font-family="Helvetica,sans-Serif" font-size="10.00">ointment.h</text>
</a>
</g>
</g>
<!-- Node1&#45;&gt;Node39 -->
<g id="edge65_Node000001_Node000039" class="edge">
<title>Node1&#45;&gt;Node39</title>
<g id="a_edge65_Node000001_Node000039"><a xlink:title=" ">
<path fill="none" stroke="#63b8ff" d="M886.12,-340.98C895.44,-333.15 909.47,-321.34 920.74,-311.86"/>
<polygon fill="#63b8ff" stroke="#63b8ff" points="923.29,-314.29 928.69,-305.17 918.79,-308.93 923.29,-314.29"/>
</a>
</g>
</g>
<!-- Node40 -->
<g id="Node000040" class="node">
<title>Node40</title>
<g id="a_Node000040"><a xlink:href="syrup_8h.html" target="_top" xlink:title=" ">
<polygon fill="white" stroke="#666666" points="1045.5,-305 992.5,-305 992.5,-286 1045.5,-286 1045.5,-305"/>
<text text-anchor="middle" x="1019" y="-293" font-family="Helvetica,sans-Serif" font-size="10.00">syrup.h</text>
</a>
</g>
</g>
<!-- Node1&#45;&gt;Node40 -->
<g id="edge67_Node000001_Node000040" class="edge">
<title>Node1&#45;&gt;Node40</title>
<g id="a_edge67_Node000001_Node000040"><a xlink:title=" ">
<path fill="none" stroke="#63b8ff" d="M898.98,-340.98C922.5,-332.27 959.29,-318.63 985.94,-308.75"/>
<polygon fill="#63b8ff" stroke="#63b8ff" points="987.45,-311.93 995.61,-305.17 985.01,-305.36 987.45,-311.93"/>
</a>
</g>
</g>
<!-- Node6 -->
<g id="Node000006" class="node">
<title>Node6</title>
<g id="a_Node000006"><a xlink:title=" ">
<polygon fill="#e0e0e0" stroke="#999999" points="228,-244.5 172,-244.5 172,-225.5 228,-225.5 228,-244.5"/>
<text text-anchor="middle" x="200" y="-232.5" font-family="Helvetica,sans-Serif" font-size="10.00">QDialog</text>
</a>
</g>
</g>
<!-- Node5&#45;&gt;Node6 -->
<g id="edge5_Node000005_Node000006" class="edge">
<title>Node5&#45;&gt;Node6</title>
<g id="a_edge5_Node000005_Node000006"><a xlink:title=" ">
<path fill="none" stroke="#63b8ff" d="M547.69,-287.22C544.41,-286.81 541.16,-286.4 538,-286 404.31,-269.26 367.86,-282.08 237,-250 234.55,-249.4 232.04,-248.68 229.54,-247.9"/>
<polygon fill="#63b8ff" stroke="#63b8ff" points="230.67,-244.58 220.08,-244.61 228.37,-251.2 230.67,-244.58"/>
</a>
</g>
</g>
<!-- Node7 -->
<g id="Node000007" class="node">
<title>Node7</title>
<g id="a_Node000007"><a xlink:title=" ">
<polygon fill="#e0e0e0" stroke="#999999" points="309.5,-244.5 246.5,-244.5 246.5,-225.5 309.5,-225.5 309.5,-244.5"/>
<text text-anchor="middle" x="278" y="-232.5" font-family="Helvetica,sans-Serif" font-size="10.00">QLineEdit</text>
</a>
</g>
</g>
<!-- Node5&#45;&gt;Node7 -->
<g id="edge6_Node000005_Node000007" class="edge">
<title>Node5&#45;&gt;Node7</title>
<g id="a_edge6_Node000005_Node000007"><a xlink:title=" ">
<path fill="none" stroke="#63b8ff" d="M547.92,-287.12C477.74,-277.49 360.44,-260.65 318,-250 315.35,-249.33 312.62,-248.57 309.9,-247.74"/>
<polygon fill="#63b8ff" stroke="#63b8ff" points="310.8,-244.35 300.21,-244.58 308.63,-251.01 310.8,-244.35"/>
</a>
</g>
</g>
<!-- Node8 -->
<g id="Node000008" class="node">
<title>Node8</title>
<g id="a_Node000008"><a xlink:title=" ">
<polygon fill="#e0e0e0" stroke="#999999" points="404.5,-244.5 327.5,-244.5 327.5,-225.5 404.5,-225.5 404.5,-244.5"/>
<text text-anchor="middle" x="366" y="-232.5" font-family="Helvetica,sans-Serif" font-size="10.00">QComboBox</text>
</a>
</g>
</g>
<!-- Node5&#45;&gt;Node8 -->
<g id="edge7_Node000005_Node000008" class="edge">
<title>Node5&#45;&gt;Node8</title>
<g id="a_edge7_Node000005_Node000008"><a xlink:title=" ">
<path fill="none" stroke="#63b8ff" d="M563.53,-285.97C524.98,-277.48 464.73,-263.75 413,-250 409.87,-249.17 406.64,-248.28 403.4,-247.36"/>
<polygon fill="#63b8ff" stroke="#63b8ff" points="404.34,-243.99 393.76,-244.57 402.39,-250.71 404.34,-243.99"/>
</a>
</g>
</g>
<!-- Node9 -->
<g id="Node000009" class="node">
<title>Node9</title>
<g id="a_Node000009"><a xlink:title=" ">
<polygon fill="#e0e0e0" stroke="#999999" points="485.5,-244.5 422.5,-244.5 422.5,-225.5 485.5,-225.5 485.5,-244.5"/>
<text text-anchor="middle" x="454" y="-232.5" font-family="Helvetica,sans-Serif" font-size="10.00">QTextEdit</text>
</a>
</g>
</g>
<!-- Node5&#45;&gt;Node9 -->
<g id="edge8_Node000005_Node000009" class="edge">
<title>Node5&#45;&gt;Node9</title>
<g id="a_edge8_Node000005_Node000009"><a xlink:title=" ">
<path fill="none" stroke="#63b8ff" d="M581.33,-285.99C556.06,-276.07 514.09,-259.59 485.28,-248.28"/>
<polygon fill="#63b8ff" stroke="#63b8ff" points="486.28,-244.91 475.69,-244.52 483.72,-251.43 486.28,-244.91"/>
</a>
</g>
</g>
<!-- Node10 -->
<g id="Node000010" class="node">
<title>Node10</title>
<g id="a_Node000010"><a xlink:title=" ">
<polygon fill="#e0e0e0" stroke="#999999" points="602,-244.5 504,-244.5 504,-225.5 602,-225.5 602,-244.5"/>
<text text-anchor="middle" x="553" y="-232.5" font-family="Helvetica,sans-Serif" font-size="10.00">QDoubleSpinBox</text>
</a>
</g>
</g>
<!-- Node5&#45;&gt;Node10 -->
<g id="edge9_Node000005_Node000010" class="edge">
<title>Node5&#45;&gt;Node10</title>
<g id="a_edge9_Node000005_Node000010"><a xlink:title=" ">
<path fill="none" stroke="#63b8ff" d="M595.62,-285.87C588.09,-277.05 576.21,-263.16 566.91,-252.27"/>
<polygon fill="#63b8ff" stroke="#63b8ff" points="569.57,-250 560.41,-244.67 564.24,-254.54 569.57,-250"/>
</a>
</g>
</g>
<!-- Node11 -->
<g id="Node000011" class="node">
<title>Node11</title>
<g id="a_Node000011"><a xlink:title=" ">
<polygon fill="#e0e0e0" stroke="#999999" points="686,-244.5 620,-244.5 620,-225.5 686,-225.5 686,-244.5"/>
<text text-anchor="middle" x="653" y="-232.5" font-family="Helvetica,sans-Serif" font-size="10.00">QDateEdit</text>
</a>
</g>
</g>
<!-- Node5&#45;&gt;Node11 -->
<g id="edge10_Node000005_Node000011" class="edge">
<title>Node5&#45;&gt;Node11</title>
<g id="a_edge10_Node000005_Node000011"><a xlink:title=" ">
<path fill="none" stroke="#63b8ff" d="M610.38,-285.87C617.91,-277.05 629.79,-263.16 639.09,-252.27"/>
<polygon fill="#63b8ff" stroke="#63b8ff" points="641.76,-254.54 645.59,-244.67 636.43,-250 641.76,-254.54"/>
</a>
</g>
</g>
<!-- Node12 -->
<g id="Node000012" class="node">
<title>Node12</title>
<g id="a_Node000012"><a xlink:title=" ">
<polygon fill="#e0e0e0" stroke="#999999" points="777.5,-244.5 704.5,-244.5 704.5,-225.5 777.5,-225.5 777.5,-244.5"/>
<text text-anchor="middle" x="741" y="-232.5" font-family="Helvetica,sans-Serif" font-size="10.00">QCheckBox</text>
</a>
</g>
</g>
<!-- Node5&#45;&gt;Node12 -->
<g id="edge11_Node000005_Node000012" class="edge">
<title>Node5&#45;&gt;Node12</title>
<g id="a_edge11_Node000005_Node000012"><a xlink:title=" ">
<path fill="none" stroke="#63b8ff" d="M623.07,-285.99C646.37,-276.12 685.01,-259.73 711.68,-248.43"/>
<polygon fill="#63b8ff" stroke="#63b8ff" points="713.07,-251.64 720.91,-244.52 710.34,-245.2 713.07,-251.64"/>
</a>
</g>
</g>
<!-- Node13 -->
<g id="Node000013" class="node">
<title>Node13</title>
<g id="a_Node000013"><a xlink:title=" ">
<polygon fill="#e0e0e0" stroke="#999999" points="842.5,-244.5 795.5,-244.5 795.5,-225.5 842.5,-225.5 842.5,-244.5"/>
<text text-anchor="middle" x="819" y="-232.5" font-family="Helvetica,sans-Serif" font-size="10.00">QDate</text>
</a>
</g>
</g>
<!-- Node5&#45;&gt;Node13 -->
<g id="edge12_Node000005_Node000013" class="edge">
<title>Node5&#45;&gt;Node13</title>
<g id="a_edge12_Node000005_Node000013"><a xlink:title=" ">
<path fill="none" stroke="#63b8ff" d="M646.82,-285.94C684.25,-278.13 739.29,-265.47 786,-250 787.62,-249.46 789.28,-248.88 790.94,-248.26"/>
<polygon fill="#63b8ff" stroke="#63b8ff" points="792.35,-251.47 800.36,-244.53 789.77,-244.96 792.35,-251.47"/>
</a>
</g>
</g>
<!-- Node14 -->
<g id="Node000014" class="node">
<title>Node14</title>
<g id="a_Node000014"><a xlink:title=" ">
<polygon fill="#e0e0e0" stroke="#999999" points="64,-244.5 0,-244.5 0,-225.5 64,-225.5 64,-244.5"/>
<text text-anchor="middle" x="32" y="-232.5" font-family="Helvetica,sans-Serif" font-size="10.00">QSpinBox</text>
</a>
</g>
</g>
<!-- Node5&#45;&gt;Node14 -->
<g id="edge13_Node000005_Node000014" class="edge">
<title>Node5&#45;&gt;Node14</title>
<g id="a_edge13_Node000005_Node000014"><a xlink:title=" ">
<path fill="none" stroke="#63b8ff" d="M547.7,-287.07C544.42,-286.69 541.17,-286.33 538,-286 331.83,-264.55 276.02,-291.82 73,-250 69.93,-249.37 66.78,-248.57 63.64,-247.68"/>
<polygon fill="#63b8ff" stroke="#63b8ff" points="64.44,-244.26 53.85,-244.6 62.33,-250.94 64.44,-244.26"/>
</a>
</g>
</g>
<!-- Node15 -->
<g id="Node000015" class="node">
<title>Node15</title>
<g id="a_Node000015"><a xlink:title=" ">
<polygon fill="#e0e0e0" stroke="#999999" points="154,-244.5 82,-244.5 82,-225.5 154,-225.5 154,-244.5"/>
<text text-anchor="middle" x="118" y="-232.5" font-family="Helvetica,sans-Serif" font-size="10.00">QGroupBox</text>
</a>
</g>
</g>
<!-- Node5&#45;&gt;Node15 -->
<g id="edge14_Node000005_Node000015" class="edge">
<title>Node5&#45;&gt;Node15</title>
<g id="a_edge14_Node000005_Node000015"><a xlink:title=" ">
<path fill="none" stroke="#63b8ff" d="M547.7,-287.14C544.42,-286.74 541.17,-286.36 538,-286 371.63,-267.14 327.14,-283.04 163,-250 159.53,-249.3 155.94,-248.44 152.38,-247.49"/>
<polygon fill="#63b8ff" stroke="#63b8ff" points="153.1,-244.05 142.52,-244.63 151.15,-250.77 153.1,-244.05"/>
</a>
</g>
</g>
<!-- Node17 -->
<g id="Node000017" class="node">
<title>Node17</title>
<g id="a_Node000017"><a xlink:title=" ">
<polygon fill="#e0e0e0" stroke="#999999" points="1397,-74 1337,-74 1337,-55 1397,-55 1397,-74"/>
<text text-anchor="middle" x="1367" y="-62" font-family="Helvetica,sans-Serif" font-size="10.00">iostream</text>
</a>
</g>
</g>
<!-- Node16&#45;&gt;Node17 -->
<g id="edge16_Node000016_Node000017" class="edge">
<title>Node16&#45;&gt;Node17</title>
<g id="a_edge16_Node000016_Node000017"><a xlink:title=" ">
<path fill="none" stroke="#63b8ff" d="M1476.11,-109.98C1454.92,-101.34 1421.87,-87.87 1397.7,-78.02"/>
<polygon fill="#63b8ff" stroke="#63b8ff" points="1398.85,-74.7 1388.27,-74.17 1396.21,-81.19 1398.85,-74.7"/>
</a>
</g>
</g>
<!-- Node18 -->
<g id="Node000018" class="node">
<title>Node18</title>
<g id="a_Node000018"><a xlink:title=" ">
<polygon fill="#e0e0e0" stroke="#999999" points="1284,-19 1240,-19 1240,0 1284,0 1284,-19"/>
<text text-anchor="middle" x="1262" y="-7" font-family="Helvetica,sans-Serif" font-size="10.00">string</text>
</a>
</g>
</g>
<!-- Node16&#45;&gt;Node18 -->
<g id="edge17_Node000016_Node000018" class="edge">
<title>Node16&#45;&gt;Node18</title>
<g id="a_edge17_Node000016_Node000018"><a xlink:title=" ">
<path fill="none" stroke="#63b8ff" d="M1487.01,-109.95C1470.93,-96.56 1437.85,-70.56 1406,-55 1369.41,-37.12 1324.08,-24.53 1294.17,-17.41"/>
<polygon fill="#63b8ff" stroke="#63b8ff" points="1294.8,-13.96 1284.27,-15.12 1293.22,-20.78 1294.8,-13.96"/>
</a>
</g>
</g>
<!-- Node19 -->
<g id="Node000019" class="node">
<title>Node19</title>
<g id="a_Node000019"><a xlink:title=" ">
<polygon fill="#e0e0e0" stroke="#999999" points="1510,-19 1466,-19 1466,0 1510,0 1510,-19"/>
<text text-anchor="middle" x="1488" y="-7" font-family="Helvetica,sans-Serif" font-size="10.00">ctime</text>
</a>
</g>
</g>
<!-- Node16&#45;&gt;Node19 -->
<g id="edge18_Node000016_Node000019" class="edge">
<title>Node16&#45;&gt;Node19</title>
<g id="a_edge18_Node000016_Node000019"><a xlink:title=" ">
<path fill="none" stroke="#63b8ff" d="M1496.26,-109.66C1494.81,-92.17 1491.53,-52.8 1489.56,-29.27"/>
<polygon fill="#63b8ff" stroke="#63b8ff" points="1493.04,-28.83 1488.72,-19.16 1486.06,-29.41 1493.04,-28.83"/>
</a>
</g>
</g>
<!-- Node20 -->
<g id="Node000020" class="node">
<title>Node20</title>
<g id="a_Node000020"><a xlink:href="safedate_8h.html" target="_top" xlink:title=" ">
<polygon fill="white" stroke="#666666" points="1584,-74 1516,-74 1516,-55 1584,-55 1584,-74"/>
<text text-anchor="middle" x="1550" y="-62" font-family="Helvetica,sans-Serif" font-size="10.00">safedate.h</text>
</a>
</g>
</g>
<!-- Node16&#45;&gt;Node20 -->
<g id="edge19_Node000016_Node000020" class="edge">
<title>Node16&#45;&gt;Node20</title>
<g id="a_edge19_Node000016_Node000020"><a xlink:title=" ">
<path fill="none" stroke="#63b8ff" d="M1505.75,-109.75C1513.47,-102.03 1524.9,-90.6 1534.22,-81.28"/>
<polygon fill="#63b8ff" stroke="#63b8ff" points="1536.81,-83.64 1541.41,-74.09 1531.86,-78.69 1536.81,-83.64"/>
</a>
</g>
</g>
<!-- Node20&#45;&gt;Node18 -->
<g id="edge22_Node000020_Node000018" class="edge">
<title>Node20&#45;&gt;Node18</title>
<g id="a_edge22_Node000020_Node000018"><a xlink:title=" ">
<path fill="none" stroke="#63b8ff" d="M1515.83,-57.21C1459.7,-46.88 1348.75,-26.46 1294.04,-16.4"/>
<polygon fill="#63b8ff" stroke="#63b8ff" points="1294.66,-12.95 1284.19,-14.58 1293.39,-19.84 1294.66,-12.95"/>
</a>
</g>
</g>
<!-- Node20&#45;&gt;Node19 -->
<g id="edge20_Node000020_Node000019" class="edge">
<title>Node20&#45;&gt;Node19</title>
<g id="a_edge20_Node000020_Node000019"><a xlink:title=" ">
<path fill="none" stroke="#63b8ff" d="M1540.04,-54.98C1530.87,-47.15 1517.06,-35.34 1505.97,-25.86"/>
<polygon fill="#63b8ff" stroke="#63b8ff" points="1508.02,-23.01 1498.14,-19.17 1503.47,-28.33 1508.02,-23.01"/>
</a>
</g>
</g>
<!-- Node21 -->
<g id="Node000021" class="node">
<title>Node21</title>
<g id="a_Node000021"><a xlink:title=" ">
<polygon fill="#e0e0e0" stroke="#999999" points="1593.5,-19 1528.5,-19 1528.5,0 1593.5,0 1593.5,-19"/>
<text text-anchor="middle" x="1561" y="-7" font-family="Helvetica,sans-Serif" font-size="10.00">stdexcept</text>
</a>
</g>
</g>
<!-- Node20&#45;&gt;Node21 -->
<g id="edge21_Node000020_Node000021" class="edge">
<title>Node20&#45;&gt;Node21</title>
<g id="a_edge21_Node000020_Node000021"><a xlink:title=" ">
<path fill="none" stroke="#63b8ff" d="M1551.82,-54.75C1553.26,-47.8 1555.32,-37.85 1557.13,-29.13"/>
<polygon fill="#63b8ff" stroke="#63b8ff" points="1560.61,-29.59 1559.22,-19.09 1553.76,-28.17 1560.61,-29.59"/>
</a>
</g>
</g>
<!-- Node22&#45;&gt;Node16 -->
<g id="edge38_Node000022_Node000016" class="edge">
<title>Node22&#45;&gt;Node16</title>
<g id="a_edge38_Node000022_Node000016"><a xlink:title=" ">
<path fill="none" stroke="#63b8ff" d="M1434.77,-293.13C1605.33,-288.85 2089.85,-274.59 2113,-250 2191.55,-166.57 1728.01,-132.92 1557.83,-123.49"/>
<polygon fill="#63b8ff" stroke="#63b8ff" points="1557.95,-119.99 1547.77,-122.94 1557.57,-126.98 1557.95,-119.99"/>
</a>
</g>
</g>
<!-- Node22&#45;&gt;Node18 -->
<g id="edge61_Node000022_Node000018" class="edge">
<title>Node22&#45;&gt;Node18</title>
<g id="a_edge61_Node000022_Node000018"><a xlink:title=" ">
<path fill="none" stroke="#63b8ff" d="M1317.38,-292.87C1195.19,-288.95 921.91,-277.22 890,-250 864,-227.82 871,-209.67 871,-175.5 871,-175.5 871,-175.5 871,-118.5 871,-44.25 1136.3,-19.04 1229.83,-12.46"/>
<polygon fill="#63b8ff" stroke="#63b8ff" points="1230.12,-15.95 1239.86,-11.78 1229.64,-8.97 1230.12,-15.95"/>
</a>
</g>
</g>
<!-- Node23 -->
<g id="Node000023" class="node">
<title>Node23</title>
<g id="a_Node000023"><a xlink:href="pharmacy_8h.html" target="_top" xlink:title=" ">
<polygon fill="white" stroke="#666666" points="1234.5,-244.5 1161.5,-244.5 1161.5,-225.5 1234.5,-225.5 1234.5,-244.5"/>
<text text-anchor="middle" x="1198" y="-232.5" font-family="Helvetica,sans-Serif" font-size="10.00">pharmacy.h</text>
</a>
</g>
</g>
<!-- Node22&#45;&gt;Node23 -->
<g id="edge24_Node000022_Node000023" class="edge">
<title>Node22&#45;&gt;Node23</title>
<g id="a_edge24_Node000022_Node000023"><a xlink:title=" ">
<path fill="none" stroke="#63b8ff" d="M1350.12,-285.99C1319.4,-275.9 1268.02,-259.01 1233.58,-247.69"/>
<polygon fill="#63b8ff" stroke="#63b8ff" points="1234.51,-244.31 1223.91,-244.52 1232.32,-250.96 1234.51,-244.31"/>
</a>
</g>
</g>
<!-- Node24 -->
<g id="Node000024" class="node">
<title>Node24</title>
<g id="a_Node000024"><a xlink:href="medicine_8h.html" target="_top" xlink:title=" ">
<polygon fill="white" stroke="#666666" points="1104.5,-184 1033.5,-184 1033.5,-165 1104.5,-165 1104.5,-184"/>
<text text-anchor="middle" x="1069" y="-172" font-family="Helvetica,sans-Serif" font-size="10.00">medicine.h</text>
</a>
</g>
</g>
<!-- Node22&#45;&gt;Node24 -->
<g id="edge39_Node000022_Node000024" class="edge">
<title>Node22&#45;&gt;Node24</title>
<g id="a_edge39_Node000022_Node000024"><a xlink:title=" ">
<path fill="none" stroke="#63b8ff" d="M1317.38,-289.71C1251.92,-283.44 1150.96,-270.73 1119,-250 1098.22,-236.52 1083.97,-211.04 1076.15,-193.68"/>
<polygon fill="#63b8ff" stroke="#63b8ff" points="1079.22,-191.95 1072.11,-184.09 1072.76,-194.66 1079.22,-191.95"/>
</a>
</g>
</g>
<!-- Node25 -->
<g id="Node000025" class="node">
<title>Node25</title>
<g id="a_Node000025"><a xlink:title=" ">
<polygon fill="#e0e0e0" stroke="#999999" points="1169.5,-129 1122.5,-129 1122.5,-110 1169.5,-110 1169.5,-129"/>
<text text-anchor="middle" x="1146" y="-117" font-family="Helvetica,sans-Serif" font-size="10.00">vector</text>
</a>
</g>
</g>
<!-- Node22&#45;&gt;Node25 -->
<g id="edge60_Node000022_Node000025" class="edge">
<title>Node22&#45;&gt;Node25</title>
<g id="a_edge60_Node000022_Node000025"><a xlink:title=" ">
<path fill="none" stroke="#63b8ff" d="M1317.41,-290.87C1258.39,-285.87 1173.11,-274.53 1152,-250 1125.29,-218.96 1133.52,-166.63 1140.51,-138.95"/>
<polygon fill="#63b8ff" stroke="#63b8ff" points="1143.96,-139.61 1143.24,-129.04 1137.21,-137.75 1143.96,-139.61"/>
</a>
</g>
</g>
<!-- Node26 -->
<g id="Node000026" class="node">
<title>Node26</title>
<g id="a_Node000026"><a xlink:title=" ">
<polygon fill="#e0e0e0" stroke="#999999" points="1288,-129 1230,-129 1230,-110 1288,-110 1288,-129"/>
<text text-anchor="middle" x="1259" y="-117" font-family="Helvetica,sans-Serif" font-size="10.00">memory</text>
</a>
</g>
</g>
<!-- Node22&#45;&gt;Node26 -->
<g id="edge58_Node000022_Node000026" class="edge">
<title>Node22&#45;&gt;Node26</title>
<g id="a_edge58_Node000022_Node000026"><a xlink:title=" ">
<path fill="none" stroke="#63b8ff" d="M1335.38,-285.99C1315.68,-279.59 1293.78,-268.61 1282,-250 1261.77,-218.04 1296.19,-201.42 1286,-165 1283.24,-155.12 1277.61,-145.25 1272.21,-137.32"/>
<polygon fill="#63b8ff" stroke="#63b8ff" points="1274.87,-135.04 1266.15,-129.03 1269.22,-139.17 1274.87,-135.04"/>
</a>
</g>
</g>
<!-- Node28 -->
<g id="Node000028" class="node">
<title>Node28</title>
<g id="a_Node000028"><a xlink:title=" ">
<polygon fill="#e0e0e0" stroke="#999999" points="1039,-129 1001,-129 1001,-110 1039,-110 1039,-129"/>
<text text-anchor="middle" x="1020" y="-117" font-family="Helvetica,sans-Serif" font-size="10.00">map</text>
</a>
</g>
</g>
<!-- Node22&#45;&gt;Node28 -->
<g id="edge59_Node000022_Node000028" class="edge">
<title>Node22&#45;&gt;Node28</title>
<g id="a_edge59_Node000022_Node000028"><a xlink:title=" ">
<path fill="none" stroke="#63b8ff" d="M1317.47,-289.96C1244.91,-283.57 1126.05,-270.36 1087,-250 1051.04,-231.25 1040.26,-221.15 1024,-184 1017.83,-169.91 1017.19,-152.37 1017.89,-139.29"/>
<polygon fill="#63b8ff" stroke="#63b8ff" points="1021.39,-139.41 1018.74,-129.15 1014.42,-138.82 1021.39,-139.41"/>
</a>
</g>
</g>
<!-- Node29 -->
<g id="Node000029" class="node">
<title>Node29</title>
<g id="a_Node000029"><a xlink:href="inventoryoperation_8h.html" target="_top" xlink:title=" ">
<polygon fill="white" stroke="#666666" points="1942.5,-184 1823.5,-184 1823.5,-165 1942.5,-165 1942.5,-184"/>
<text text-anchor="middle" x="1883" y="-172" font-family="Helvetica,sans-Serif" font-size="10.00">inventoryoperation.h</text>
</a>
</g>
</g>
<!-- Node22&#45;&gt;Node29 -->
<g id="edge40_Node000022_Node000029" class="edge">
<title>Node22&#45;&gt;Node29</title>
<g id="a_edge40_Node000022_Node000029"><a xlink:title=" ">
<path fill="none" stroke="#63b8ff" d="M1434.65,-294.76C1582.77,-294.81 1962.89,-290.92 2001,-250 2027.71,-221.32 1973.55,-199.14 1930.05,-186.69"/>
<polygon fill="#63b8ff" stroke="#63b8ff" points="1930.98,-183.32 1920.41,-184.04 1929.12,-190.07 1930.98,-183.32"/>
</a>
</g>
</g>
<!-- Node30 -->
<g id="Node000030" class="node">
<title>Node30</title>
<g id="a_Node000030"><a xlink:href="supply_8h.html" target="_top" xlink:title=" ">
<polygon fill="white" stroke="#666666" points="2104,-244.5 2048,-244.5 2048,-225.5 2104,-225.5 2104,-244.5"/>
<text text-anchor="middle" x="2076" y="-232.5" font-family="Helvetica,sans-Serif" font-size="10.00">supply.h</text>
</a>
</g>
</g>
<!-- Node22&#45;&gt;Node30 -->
<g id="edge44_Node000022_Node000030" class="edge">
<title>Node22&#45;&gt;Node30</title>
<g id="a_edge44_Node000022_Node000030"><a xlink:title=" ">
<path fill="none" stroke="#63b8ff" d="M1434.53,-292.45C1573.47,-287.27 1920.05,-272.46 2034,-250 2037.24,-249.36 2040.58,-248.54 2043.89,-247.62"/>
<polygon fill="#63b8ff" stroke="#63b8ff" points="2045.08,-250.91 2053.61,-244.63 2043.03,-244.22 2045.08,-250.91"/>
</a>
</g>
</g>
<!-- Node31 -->
<g id="Node000031" class="node">
<title>Node31</title>
<g id="a_Node000031"><a xlink:href="return_8h.html" target="_top" xlink:title=" ">
<polygon fill="white" stroke="#666666" points="1910.5,-244.5 1855.5,-244.5 1855.5,-225.5 1910.5,-225.5 1910.5,-244.5"/>
<text text-anchor="middle" x="1883" y="-232.5" font-family="Helvetica,sans-Serif" font-size="10.00">return.h</text>
</a>
</g>
</g>
<!-- Node22&#45;&gt;Node31 -->
<g id="edge46_Node000022_Node000031" class="edge">
<title>Node22&#45;&gt;Node31</title>
<g id="a_edge46_Node000022_Node000031"><a xlink:title=" ">
<path fill="none" stroke="#63b8ff" d="M1434.69,-293.95C1524.44,-291.99 1700.69,-283.73 1846,-250 1848.52,-249.42 1851.09,-248.7 1853.66,-247.91"/>
<polygon fill="#63b8ff" stroke="#63b8ff" points="1855.03,-251.14 1863.33,-244.55 1852.74,-244.52 1855.03,-251.14"/>
</a>
</g>
</g>
<!-- Node32 -->
<g id="Node000032" class="node">
<title>Node32</title>
<g id="a_Node000032"><a xlink:href="writeoff_8h.html" target="_top" xlink:title=" ">
<polygon fill="white" stroke="#666666" points="1991.5,-244.5 1928.5,-244.5 1928.5,-225.5 1991.5,-225.5 1991.5,-244.5"/>
<text text-anchor="middle" x="1960" y="-232.5" font-family="Helvetica,sans-Serif" font-size="10.00">writeoff.h</text>
</a>
</g>
</g>
<!-- Node22&#45;&gt;Node32 -->
<g id="edge48_Node000022_Node000032" class="edge">
<title>Node22&#45;&gt;Node32</title>
<g id="a_edge48_Node000022_Node000032"><a xlink:title=" ">
<path fill="none" stroke="#63b8ff" d="M1434.67,-294.57C1535.16,-293.61 1746.2,-286.89 1920,-250 1923,-249.36 1926.08,-248.56 1929.14,-247.67"/>
<polygon fill="#63b8ff" stroke="#63b8ff" points="1930.26,-250.99 1938.7,-244.58 1928.11,-244.33 1930.26,-250.99"/>
</a>
</g>
</g>
<!-- Node33 -->
<g id="Node000033" class="node">
<title>Node33</title>
<g id="a_Node000033"><a xlink:href="InvalidProductDataException_8h.html" target="_top" xlink:title=" ">
<polygon fill="white" stroke="#666666" points="1837,-250 1667,-250 1667,-220 1837,-220 1837,-250"/>
<text text-anchor="start" x="1675" y="-238" font-family="Helvetica,sans-Serif" font-size="10.00">Exception/PharmacyExceptions</text>
<text text-anchor="middle" x="1752" y="-227" font-family="Helvetica,sans-Serif" font-size="10.00">/InvalidProductDataException.h</text>
</a>
</g>
</g>
<!-- Node22&#45;&gt;Node33 -->
<g id="edge50_Node000022_Node000033" class="edge">
<title>Node22&#45;&gt;Node33</title>
<g id="a_edge50_Node000022_Node000033"><a xlink:title=" ">
<path fill="none" stroke="#63b8ff" d="M1430.67,-285.99C1489.81,-276.79 1585.21,-261.95 1656.72,-250.82"/>
<polygon fill="#63b8ff" stroke="#63b8ff" points="1657.31,-254.27 1666.65,-249.28 1656.23,-247.36 1657.31,-254.27"/>
</a>
</g>
</g>
<!-- Node36 -->
<g id="Node000036" class="node">
<title>Node36</title>
<g id="a_Node000036"><a xlink:href="ProductNotFoundException_8h.html" target="_top" xlink:title=" ">
<polygon fill="white" stroke="#666666" points="1461,-250 1291,-250 1291,-220 1461,-220 1461,-250"/>
<text text-anchor="start" x="1299" y="-238" font-family="Helvetica,sans-Serif" font-size="10.00">Exception/PharmacyExceptions</text>
<text text-anchor="middle" x="1376" y="-227" font-family="Helvetica,sans-Serif" font-size="10.00">/ProductNotFoundException.h</text>
</a>
</g>
</g>
<!-- Node22&#45;&gt;Node36 -->
<g id="edge54_Node000022_Node000036" class="edge">
<title>Node22&#45;&gt;Node36</title>
<g id="a_edge54_Node000022_Node000036"><a xlink:title=" ">
<path fill="none" stroke="#63b8ff" d="M1376,-285.87C1376,-279.11 1376,-269.35 1376,-260.26"/>
<polygon fill="#63b8ff" stroke="#63b8ff" points="1379.5,-260.11 1376,-250.11 1372.5,-260.11 1379.5,-260.11"/>
</a>
</g>
</g>
<!-- Node37 -->
<g id="Node000037" class="node">
<title>Node37</title>
<g id="a_Node000037"><a xlink:href="DuplicateProductException_8h.html" target="_top" xlink:title=" ">
<polygon fill="white" stroke="#666666" points="1649,-250 1479,-250 1479,-220 1649,-220 1649,-250"/>
<text text-anchor="start" x="1487" y="-238" font-family="Helvetica,sans-Serif" font-size="10.00">Exception/PharmacyExceptions</text>
<text text-anchor="middle" x="1564" y="-227" font-family="Helvetica,sans-Serif" font-size="10.00">/DuplicateProductException.h</text>
</a>
</g>
</g>
<!-- Node22&#45;&gt;Node37 -->
<g id="edge56_Node000022_Node000037" class="edge">
<title>Node22&#45;&gt;Node37</title>
<g id="a_edge56_Node000022_Node000037"><a xlink:title=" ">
<path fill="none" stroke="#63b8ff" d="M1403.34,-285.99C1430.98,-277.39 1474.48,-263.86 1509.25,-253.04"/>
<polygon fill="#63b8ff" stroke="#63b8ff" points="1510.29,-256.38 1518.8,-250.06 1508.21,-249.69 1510.29,-256.38"/>
</a>
</g>
</g>
<!-- Node23&#45;&gt;Node16 -->
<g id="edge30_Node000023_Node000016" class="edge">
<title>Node23&#45;&gt;Node16</title>
<g id="a_edge30_Node000023_Node000016"><a xlink:title=" ">
<path fill="none" stroke="#63b8ff" d="M1220.47,-225.47C1272.96,-205.54 1403.77,-155.89 1464.76,-132.74"/>
<polygon fill="#63b8ff" stroke="#63b8ff" points="1466.16,-135.95 1474.27,-129.13 1463.67,-129.41 1466.16,-135.95"/>
</a>
</g>
</g>
<!-- Node23&#45;&gt;Node24 -->
<g id="edge25_Node000023_Node000024" class="edge">
<title>Node23&#45;&gt;Node24</title>
<g id="a_edge25_Node000023_Node000024"><a xlink:title=" ">
<path fill="none" stroke="#63b8ff" d="M1179.24,-225.49C1157.65,-215.7 1121.97,-199.52 1097.07,-188.23"/>
<polygon fill="#63b8ff" stroke="#63b8ff" points="1098.33,-184.96 1087.78,-184.02 1095.44,-191.33 1098.33,-184.96"/>
</a>
</g>
</g>
<!-- Node23&#45;&gt;Node25 -->
<g id="edge31_Node000023_Node000025" class="edge">
<title>Node23&#45;&gt;Node25</title>
<g id="a_edge31_Node000023_Node000025"><a xlink:title=" ">
<path fill="none" stroke="#63b8ff" d="M1194.09,-225.47C1185.66,-207.06 1165.61,-163.29 1154.24,-138.48"/>
<polygon fill="#63b8ff" stroke="#63b8ff" points="1157.3,-136.76 1149.95,-129.13 1150.94,-139.68 1157.3,-136.76"/>
</a>
</g>
</g>
<!-- Node23&#45;&gt;Node26 -->
<g id="edge32_Node000023_Node000026" class="edge">
<title>Node23&#45;&gt;Node26</title>
<g id="a_edge32_Node000023_Node000026"><a xlink:title=" ">
<path fill="none" stroke="#63b8ff" d="M1220.06,-225.47C1237.13,-217.55 1259.56,-203.96 1270,-184 1277.37,-169.92 1273.17,-151.92 1267.98,-138.68"/>
<polygon fill="#63b8ff" stroke="#63b8ff" points="1271.05,-136.97 1263.8,-129.25 1264.65,-139.81 1271.05,-136.97"/>
</a>
</g>
</g>
<!-- Node27 -->
<g id="Node000027" class="node">
<title>Node27</title>
<g id="a_Node000027"><a xlink:href="storage_8h.html" target="_top" xlink:title=" ">
<polygon fill="white" stroke="#666666" points="1261,-184 1199,-184 1199,-165 1261,-165 1261,-184"/>
<text text-anchor="middle" x="1230" y="-172" font-family="Helvetica,sans-Serif" font-size="10.00">storage.h</text>
</a>
</g>
</g>
<!-- Node23&#45;&gt;Node27 -->
<g id="edge33_Node000023_Node000027" class="edge">
<title>Node23&#45;&gt;Node27</title>
<g id="a_edge33_Node000023_Node000027"><a xlink:title=" ">
<path fill="none" stroke="#63b8ff" d="M1202.72,-225.37C1207.35,-216.9 1214.55,-203.74 1220.39,-193.07"/>
<polygon fill="#63b8ff" stroke="#63b8ff" points="1223.53,-194.62 1225.26,-184.17 1217.39,-191.26 1223.53,-194.62"/>
</a>
</g>
</g>
<!-- Node24&#45;&gt;Node16 -->
<g id="edge26_Node000024_Node000016" class="edge">
<title>Node24&#45;&gt;Node16</title>
<g id="a_edge26_Node000024_Node000016"><a xlink:title=" ">
<path fill="none" stroke="#63b8ff" d="M1104.56,-169.44C1168.59,-162.09 1307.82,-145.85 1436.26,-129.07"/>
<polygon fill="#63b8ff" stroke="#63b8ff" points="1436.81,-132.53 1446.27,-127.76 1435.9,-125.59 1436.81,-132.53"/>
</a>
</g>
</g>
<!-- Node24&#45;&gt;Node18 -->
<g id="edge29_Node000024_Node000018" class="edge">
<title>Node24&#45;&gt;Node18</title>
<g id="a_edge29_Node000024_Node000018"><a xlink:title=" ">
<path fill="none" stroke="#63b8ff" d="M1073.54,-164.94C1080.7,-151.99 1095.59,-127.11 1113,-110 1150.79,-72.85 1204.28,-41.08 1235.83,-23.98"/>
<polygon fill="#63b8ff" stroke="#63b8ff" points="1237.7,-26.95 1244.87,-19.15 1234.4,-20.77 1237.7,-26.95"/>
</a>
</g>
</g>
<!-- Node24&#45;&gt;Node25 -->
<g id="edge27_Node000024_Node000025" class="edge">
<title>Node24&#45;&gt;Node25</title>
<g id="a_edge27_Node000024_Node000025"><a xlink:title=" ">
<path fill="none" stroke="#63b8ff" d="M1081.37,-164.98C1093.09,-156.92 1110.92,-144.65 1124.89,-135.03"/>
<polygon fill="#63b8ff" stroke="#63b8ff" points="1127.15,-137.72 1133.4,-129.17 1123.18,-131.96 1127.15,-137.72"/>
</a>
</g>
</g>
<!-- Node24&#45;&gt;Node26 -->
<g id="edge28_Node000024_Node000026" class="edge">
<title>Node24&#45;&gt;Node26</title>
<g id="a_edge28_Node000024_Node000026"><a xlink:title=" ">
<path fill="none" stroke="#63b8ff" d="M1099.53,-164.98C1132.18,-155.88 1184.07,-141.4 1219.74,-131.45"/>
<polygon fill="#63b8ff" stroke="#63b8ff" points="1221.11,-134.7 1229.8,-128.65 1219.22,-127.96 1221.11,-134.7"/>
</a>
</g>
</g>
<!-- Node27&#45;&gt;Node16 -->
<g id="edge34_Node000027_Node000016" class="edge">
<title>Node27&#45;&gt;Node16</title>
<g id="a_edge34_Node000027_Node000016"><a xlink:title=" ">
<path fill="none" stroke="#63b8ff" d="M1261.15,-167.32C1306.09,-158.4 1389.69,-141.8 1444.33,-130.96"/>
<polygon fill="#63b8ff" stroke="#63b8ff" points="1445.05,-134.38 1454.18,-129 1443.69,-127.51 1445.05,-134.38"/>
</a>
</g>
</g>
<!-- Node27&#45;&gt;Node25 -->
<g id="edge36_Node000027_Node000025" class="edge">
<title>Node27&#45;&gt;Node25</title>
<g id="a_edge36_Node000027_Node000025"><a xlink:title=" ">
<path fill="none" stroke="#63b8ff" d="M1216.5,-164.98C1203.6,-156.84 1183.9,-144.41 1168.6,-134.76"/>
<polygon fill="#63b8ff" stroke="#63b8ff" points="1170.07,-131.55 1159.74,-129.17 1166.33,-137.47 1170.07,-131.55"/>
</a>
</g>
</g>
<!-- Node27&#45;&gt;Node26 -->
<g id="edge37_Node000027_Node000026" class="edge">
<title>Node27&#45;&gt;Node26</title>
<g id="a_edge37_Node000027_Node000026"><a xlink:title=" ">
<path fill="none" stroke="#63b8ff" d="M1234.79,-164.75C1238.76,-157.49 1244.53,-146.95 1249.43,-137.98"/>
<polygon fill="#63b8ff" stroke="#63b8ff" points="1252.57,-139.54 1254.3,-129.09 1246.43,-136.18 1252.57,-139.54"/>
</a>
</g>
</g>
<!-- Node27&#45;&gt;Node28 -->
<g id="edge35_Node000027_Node000028" class="edge">
<title>Node27&#45;&gt;Node28</title>
<g id="a_edge35_Node000027_Node000028"><a xlink:title=" ">
<path fill="none" stroke="#63b8ff" d="M1198.56,-165.57C1158.02,-155.33 1088.07,-137.68 1048.83,-127.78"/>
<polygon fill="#63b8ff" stroke="#63b8ff" points="1049.65,-124.37 1039.1,-125.32 1047.93,-131.16 1049.65,-124.37"/>
</a>
</g>
</g>
<!-- Node29&#45;&gt;Node16 -->
<g id="edge41_Node000029_Node000016" class="edge">
<title>Node29&#45;&gt;Node16</title>
<g id="a_edge41_Node000029_Node000016"><a xlink:title=" ">
<path fill="none" stroke="#63b8ff" d="M1823.11,-165.28C1750.91,-155.36 1630.25,-138.8 1557.69,-128.83"/>
<polygon fill="#63b8ff" stroke="#63b8ff" points="1558.16,-125.37 1547.78,-127.47 1557.21,-132.3 1558.16,-125.37"/>
</a>
</g>
</g>
<!-- Node29&#45;&gt;Node20 -->
<g id="edge42_Node000029_Node000020" class="edge">
<title>Node29&#45;&gt;Node20</title>
<g id="a_edge42_Node000029_Node000020"><a xlink:title=" ">
<path fill="none" stroke="#63b8ff" d="M1856.59,-164.94C1797.33,-145.72 1653.69,-99.13 1586.18,-77.24"/>
<polygon fill="#63b8ff" stroke="#63b8ff" points="1587,-73.82 1576.41,-74.07 1584.84,-80.48 1587,-73.82"/>
</a>
</g>
</g>
<!-- Node29&#45;&gt;Node26 -->
<g id="edge43_Node000029_Node000026" class="edge">
<title>Node29&#45;&gt;Node26</title>
<g id="a_edge43_Node000029_Node000026"><a xlink:title=" ">
<path fill="none" stroke="#63b8ff" d="M1823.21,-171.81C1718.61,-168.22 1495.55,-157.81 1298.34,-128.99"/>
<polygon fill="#63b8ff" stroke="#63b8ff" points="1298.78,-125.51 1288.38,-127.51 1297.76,-132.44 1298.78,-125.51"/>
</a>
</g>
</g>
<!-- Node30&#45;&gt;Node29 -->
<g id="edge45_Node000030_Node000029" class="edge">
<title>Node30&#45;&gt;Node29</title>
<g id="a_edge45_Node000030_Node000029"><a xlink:title=" ">
<path fill="none" stroke="#63b8ff" d="M2050.73,-225.42C2045.23,-223.59 2039.43,-221.7 2034,-220 1996.52,-208.23 1953.52,-195.65 1923.02,-186.88"/>
<polygon fill="#63b8ff" stroke="#63b8ff" points="1923.75,-183.45 1913.18,-184.05 1921.82,-190.18 1923.75,-183.45"/>
</a>
</g>
</g>
<!-- Node31&#45;&gt;Node29 -->
<g id="edge47_Node000031_Node000029" class="edge">
<title>Node31&#45;&gt;Node29</title>
<g id="a_edge47_Node000031_Node000029"><a xlink:title=" ">
<path fill="none" stroke="#63b8ff" d="M1883,-225.37C1883,-217.25 1883,-204.81 1883,-194.39"/>
<polygon fill="#63b8ff" stroke="#63b8ff" points="1886.5,-194.17 1883,-184.17 1879.5,-194.17 1886.5,-194.17"/>
</a>
</g>
</g>
<!-- Node32&#45;&gt;Node29 -->
<g id="edge49_Node000032_Node000029" class="edge">
<title>Node32&#45;&gt;Node29</title>
<g id="a_edge49_Node000032_Node000029"><a xlink:title=" ">
<path fill="none" stroke="#63b8ff" d="M1948.64,-225.37C1936.58,-216.21 1917.3,-201.56 1902.75,-190.51"/>
<polygon fill="#63b8ff" stroke="#63b8ff" points="1904.49,-187.43 1894.41,-184.17 1900.25,-193 1904.49,-187.43"/>
</a>
</g>
</g>
<!-- Node34 -->
<g id="Node000034" class="node">
<title>Node34</title>
<g id="a_Node000034"><a xlink:href="MedicalProductException_8h.html" target="_top" xlink:title=" ">
<polygon fill="white" stroke="#666666" points="1590.5,-184 1441.5,-184 1441.5,-165 1590.5,-165 1590.5,-184"/>
<text text-anchor="middle" x="1516" y="-172" font-family="Helvetica,sans-Serif" font-size="10.00">MedicalProductException.h</text>
</a>
</g>
</g>
<!-- Node33&#45;&gt;Node34 -->
<g id="edge51_Node000033_Node000034" class="edge">
<title>Node33&#45;&gt;Node34</title>
<g id="a_edge51_Node000033_Node000034"><a xlink:title=" ">
<path fill="none" stroke="#63b8ff" d="M1695.47,-219.99C1654.04,-209.72 1598.57,-195.97 1560.33,-186.49"/>
<polygon fill="#63b8ff" stroke="#63b8ff" points="1561.06,-183.06 1550.51,-184.05 1559.37,-189.86 1561.06,-183.06"/>
</a>
</g>
</g>
<!-- Node35 -->
<g id="Node000035" class="node">
<title>Node35</title>
<g id="a_Node000035"><a xlink:href="PharmacyException_8h.html" target="_top" xlink:title=" ">
<polygon fill="white" stroke="#666666" points="1428,-129 1306,-129 1306,-110 1428,-110 1428,-129"/>
<text text-anchor="middle" x="1367" y="-117" font-family="Helvetica,sans-Serif" font-size="10.00">PharmacyException.h</text>
</a>
</g>
</g>
<!-- Node34&#45;&gt;Node35 -->
<g id="edge52_Node000034_Node000035" class="edge">
<title>Node34&#45;&gt;Node35</title>
<g id="a_edge52_Node000034_Node000035"><a xlink:title=" ">
<path fill="none" stroke="#63b8ff" d="M1492.06,-164.98C1467.44,-156.23 1428.88,-142.51 1401.08,-132.62"/>
<polygon fill="#63b8ff" stroke="#63b8ff" points="1401.97,-129.22 1391.38,-129.17 1399.62,-135.82 1401.97,-129.22"/>
</a>
</g>
</g>
<!-- Node35&#45;&gt;Node17 -->
<g id="edge53_Node000035_Node000017" class="edge">
<title>Node35&#45;&gt;Node17</title>
<g id="a_edge53_Node000035_Node000017"><a xlink:title=" ">
<path fill="none" stroke="#63b8ff" d="M1367,-109.75C1367,-102.8 1367,-92.85 1367,-84.13"/>
<polygon fill="#63b8ff" stroke="#63b8ff" points="1370.5,-84.09 1367,-74.09 1363.5,-84.09 1370.5,-84.09"/>
</a>
</g>
</g>
<!-- Node36&#45;&gt;Node34 -->
<g id="edge55_Node000036_Node000034" class="edge">
<title>Node36&#45;&gt;Node34</title>
<g id="a_edge55_Node000036_Node000034"><a xlink:title=" ">
<path fill="none" stroke="#63b8ff" d="M1409.53,-219.99C1432.79,-210.27 1463.49,-197.44 1485.95,-188.06"/>
<polygon fill="#63b8ff" stroke="#63b8ff" points="1487.45,-191.22 1495.32,-184.14 1484.75,-184.77 1487.45,-191.22"/>
</a>
</g>
</g>
<!-- Node37&#45;&gt;Node34 -->
<g id="edge57_Node000037_Node000034" class="edge">
<title>Node37&#45;&gt;Node34</title>
<g id="a_edge57_Node000037_Node000034"><a xlink:title=" ">
<path fill="none" stroke="#63b8ff" d="M1552.38,-219.84C1545.56,-211.52 1536.89,-200.96 1529.73,-192.23"/>
<polygon fill="#63b8ff" stroke="#63b8ff" points="1532.24,-189.78 1523.19,-184.27 1526.83,-194.22 1532.24,-189.78"/>
</a>
</g>
</g>
<!-- Node38&#45;&gt;Node17 -->
<g id="edge64_Node000038_Node000017" class="edge">
<title>Node38&#45;&gt;Node17</title>
<g id="a_edge64_Node000038_Node000017"><a xlink:title=" ">
<path fill="none" stroke="#63b8ff" d="M927.75,-225.24C932.9,-201.98 950.33,-138.5 992,-110 1045.7,-73.27 1241.53,-66.74 1326.84,-65.67"/>
<polygon fill="#63b8ff" stroke="#63b8ff" points="1326.95,-69.17 1336.91,-65.56 1326.88,-62.17 1326.95,-69.17"/>
</a>
</g>
</g>
<!-- Node38&#45;&gt;Node24 -->
<g id="edge63_Node000038_Node000024" class="edge">
<title>Node38&#45;&gt;Node24</title>
<g id="a_edge63_Node000038_Node000024"><a xlink:title=" ">
<path fill="none" stroke="#63b8ff" d="M946.79,-225.49C970.94,-215.62 1010.98,-199.23 1038.62,-187.93"/>
<polygon fill="#63b8ff" stroke="#63b8ff" points="1040.25,-191.04 1048.18,-184.02 1037.6,-184.56 1040.25,-191.04"/>
</a>
</g>
</g>
<!-- Node39&#45;&gt;Node24 -->
<g id="edge66_Node000039_Node000024" class="edge">
<title>Node39&#45;&gt;Node24</title>
<g id="a_edge66_Node000039_Node000024"><a xlink:title=" ">
<path fill="none" stroke="#63b8ff" d="M948.35,-285.94C970.07,-266.06 1024.22,-216.49 1051.99,-191.07"/>
<polygon fill="#63b8ff" stroke="#63b8ff" points="1054.37,-193.64 1059.38,-184.3 1049.65,-188.47 1054.37,-193.64"/>
</a>
</g>
</g>
<!-- Node40&#45;&gt;Node24 -->
<g id="edge68_Node000040_Node000024" class="edge">
<title>Node40&#45;&gt;Node24</title>
<g id="a_edge68_Node000040_Node000024"><a xlink:title=" ">
<path fill="none" stroke="#63b8ff" d="M1022.6,-285.94C1030.66,-266.74 1050.36,-219.86 1061.32,-193.77"/>
<polygon fill="#63b8ff" stroke="#63b8ff" points="1064.65,-194.88 1065.3,-184.3 1058.2,-192.17 1064.65,-194.88"/>
</a>
</g>
</g>
</g>
</svg>
