<?xml version="1.0" encoding="UTF-8" standalone="no"?>
<!DOCTYPE svg PUBLIC "-//W3C//DTD SVG 1.1//EN"
 "http://www.w3.org/Graphics/SVG/1.1/DTD/svg11.dtd">
<!-- Generated by graphviz version 2.43.0 (0)
 -->
<!-- Title: mainwindow.h Pages: 1 -->
<svg width="332pt" height="93pt"
 viewBox="0.00 0.00 332.00 93.00" xmlns="http://www.w3.org/2000/svg" xmlns:xlink="http://www.w3.org/1999/xlink">
<g id="graph0" class="graph" transform="scale(1 1) rotate(0) translate(4 89)">
<title>mainwindow.h</title>
<!-- Node1 -->
<g id="Node000001" class="node">
<title>Node1</title>
<g id="a_Node000001"><a xlink:title=" ">
<polygon fill="#999999" stroke="#666666" points="220.5,-85 133.5,-85 133.5,-66 220.5,-66 220.5,-85"/>
<text text-anchor="middle" x="177" y="-73" font-family="Helvetica,sans-Serif" font-size="10.00">mainwindow.h</text>
</a>
</g>
</g>
<!-- Node2 -->
<g id="Node000002" class="node">
<title>Node2</title>
<g id="a_Node000002"><a xlink:href="moc__mainwindow_8cpp.html" target="_top" xlink:title=" ">
<polygon fill="white" stroke="#666666" points="128,-30 0,-30 0,0 128,0 128,-30"/>
<text text-anchor="start" x="8" y="-18" font-family="Helvetica,sans-Serif" font-size="10.00">build/Desktop&#45;Debug</text>
<text text-anchor="middle" x="64" y="-7" font-family="Helvetica,sans-Serif" font-size="10.00">/moc_mainwindow.cpp</text>
</a>
</g>
</g>
<!-- Node1&#45;&gt;Node2 -->
<g id="edge1_Node000001_Node000002" class="edge">
<title>Node1&#45;&gt;Node2</title>
<g id="a_edge1_Node000001_Node000002"><a xlink:title=" ">
<path fill="none" stroke="#63b8ff" d="M151.06,-61.07C133.17,-51.81 109.43,-39.52 91.26,-30.11"/>
<polygon fill="#63b8ff" stroke="#63b8ff" points="149.84,-64.38 160.33,-65.87 153.06,-58.16 149.84,-64.38"/>
</a>
</g>
</g>
<!-- Node3 -->
<g id="Node000003" class="node">
<title>Node3</title>
<g id="a_Node000003"><a xlink:href="main_8cpp.html" target="_top" xlink:title=" ">
<polygon fill="white" stroke="#666666" points="208,-24.5 146,-24.5 146,-5.5 208,-5.5 208,-24.5"/>
<text text-anchor="middle" x="177" y="-12.5" font-family="Helvetica,sans-Serif" font-size="10.00">main.cpp</text>
</a>
</g>
</g>
<!-- Node1&#45;&gt;Node3 -->
<g id="edge2_Node000001_Node000003" class="edge">
<title>Node1&#45;&gt;Node3</title>
<g id="a_edge2_Node000001_Node000003"><a xlink:title=" ">
<path fill="none" stroke="#63b8ff" d="M177,-55.66C177,-45.24 177,-32.8 177,-24.67"/>
<polygon fill="#63b8ff" stroke="#63b8ff" points="173.5,-55.87 177,-65.87 180.5,-55.87 173.5,-55.87"/>
</a>
</g>
</g>
<!-- Node4 -->
<g id="Node000004" class="node">
<title>Node4</title>
<g id="a_Node000004"><a xlink:href="mainwindow_8cpp.html" target="_top" xlink:title=" ">
<polygon fill="white" stroke="#666666" points="324,-24.5 226,-24.5 226,-5.5 324,-5.5 324,-24.5"/>
<text text-anchor="middle" x="275" y="-12.5" font-family="Helvetica,sans-Serif" font-size="10.00">mainwindow.cpp</text>
</a>
</g>
</g>
<!-- Node1&#45;&gt;Node4 -->
<g id="edge3_Node000001_Node000004" class="edge">
<title>Node1&#45;&gt;Node4</title>
<g id="a_edge3_Node000001_Node000004"><a xlink:title=" ">
<path fill="none" stroke="#63b8ff" d="M200.25,-60.62C218.94,-49.46 244.61,-34.14 260.48,-24.67"/>
<polygon fill="#63b8ff" stroke="#63b8ff" points="198.25,-57.74 191.46,-65.87 201.84,-63.75 198.25,-57.74"/>
</a>
</g>
</g>
</g>
</svg>
