<?xml version="1.0" encoding="UTF-8" standalone="no"?>
<!DOCTYPE svg PUBLIC "-//W3C//DTD SVG 1.1//EN"
 "http://www.w3.org/Graphics/SVG/1.1/DTD/svg11.dtd">
<!-- Generated by graphviz version 2.43.0 (0)
 -->
<!-- Title: medicine.h Pages: 1 -->
<svg width="732pt" height="258pt"
 viewBox="0.00 0.00 731.50 258.00" xmlns="http://www.w3.org/2000/svg" xmlns:xlink="http://www.w3.org/1999/xlink">
<g id="graph0" class="graph" transform="scale(1 1) rotate(0) translate(4 254)">
<title>medicine.h</title>
<!-- Node1 -->
<g id="Node000001" class="node">
<title>Node1</title>
<g id="a_Node000001"><a xlink:title=" ">
<polygon fill="#999999" stroke="#666666" points="437,-250 366,-250 366,-231 437,-231 437,-250"/>
<text text-anchor="middle" x="401.5" y="-238" font-family="Helvetica,sans-Serif" font-size="10.00">medicine.h</text>
</a>
</g>
</g>
<!-- Node2 -->
<g id="Node000002" class="node">
<title>Node2</title>
<g id="a_Node000002"><a xlink:href="filemanager_8h.html" target="_top" xlink:title=" ">
<polygon fill="white" stroke="#666666" points="341,-140 258,-140 258,-121 341,-121 341,-140"/>
<text text-anchor="middle" x="299.5" y="-128" font-family="Helvetica,sans-Serif" font-size="10.00">filemanager.h</text>
</a>
</g>
</g>
<!-- Node1&#45;&gt;Node2 -->
<g id="edge1_Node000001_Node000002" class="edge">
<title>Node1&#45;&gt;Node2</title>
<g id="a_edge1_Node000001_Node000002"><a xlink:title=" ">
<path fill="none" stroke="#63b8ff" d="M385.13,-223.77C376.49,-215.35 365.78,-204.74 356.5,-195 338.31,-175.91 317.86,-152.67 307.08,-140.28"/>
<polygon fill="#63b8ff" stroke="#63b8ff" points="382.76,-226.35 392.38,-230.79 387.63,-221.32 382.76,-226.35"/>
</a>
</g>
</g>
<!-- Node4 -->
<g id="Node000004" class="node">
<title>Node4</title>
<g id="a_Node000004"><a xlink:href="medicine_8cpp.html" target="_top" xlink:title=" ">
<polygon fill="white" stroke="#666666" points="715.5,-195 633.5,-195 633.5,-176 715.5,-176 715.5,-195"/>
<text text-anchor="middle" x="674.5" y="-183" font-family="Helvetica,sans-Serif" font-size="10.00">medicine.cpp</text>
</a>
</g>
</g>
<!-- Node1&#45;&gt;Node4 -->
<g id="edge3_Node000001_Node000004" class="edge">
<title>Node1&#45;&gt;Node4</title>
<g id="a_edge3_Node000001_Node000004"><a xlink:title=" ">
<path fill="none" stroke="#63b8ff" d="M447.14,-230.64C499.16,-220.54 583.43,-204.18 633.45,-194.47"/>
<polygon fill="#63b8ff" stroke="#63b8ff" points="446.34,-227.23 437.19,-232.57 447.67,-234.1 446.34,-227.23"/>
</a>
</g>
</g>
<!-- Node5 -->
<g id="Node000005" class="node">
<title>Node5</title>
<g id="a_Node000005"><a xlink:href="ointment_8h.html" target="_top" xlink:title=" ">
<polygon fill="white" stroke="#666666" points="180.5,-195 110.5,-195 110.5,-176 180.5,-176 180.5,-195"/>
<text text-anchor="middle" x="145.5" y="-183" font-family="Helvetica,sans-Serif" font-size="10.00">ointment.h</text>
</a>
</g>
</g>
<!-- Node1&#45;&gt;Node5 -->
<g id="edge4_Node000001_Node000005" class="edge">
<title>Node1&#45;&gt;Node5</title>
<g id="a_edge4_Node000001_Node000005"><a xlink:title=" ">
<path fill="none" stroke="#63b8ff" d="M355.99,-230.08C305.88,-219.7 226.4,-203.25 180.79,-193.81"/>
<polygon fill="#63b8ff" stroke="#63b8ff" points="355.4,-233.53 365.9,-232.13 356.82,-226.68 355.4,-233.53"/>
</a>
</g>
</g>
<!-- Node11 -->
<g id="Node000011" class="node">
<title>Node11</title>
<g id="a_Node000011"><a xlink:href="pharmacy_8h.html" target="_top" xlink:title=" ">
<polygon fill="white" stroke="#666666" points="438,-195 365,-195 365,-176 438,-176 438,-195"/>
<text text-anchor="middle" x="401.5" y="-183" font-family="Helvetica,sans-Serif" font-size="10.00">pharmacy.h</text>
</a>
</g>
</g>
<!-- Node1&#45;&gt;Node11 -->
<g id="edge11_Node000001_Node000011" class="edge">
<title>Node1&#45;&gt;Node11</title>
<g id="a_edge11_Node000001_Node000011"><a xlink:title=" ">
<path fill="none" stroke="#63b8ff" d="M401.5,-220.66C401.5,-211.93 401.5,-201.99 401.5,-195.09"/>
<polygon fill="#63b8ff" stroke="#63b8ff" points="398,-220.75 401.5,-230.75 405,-220.75 398,-220.75"/>
</a>
</g>
</g>
<!-- Node13 -->
<g id="Node000013" class="node">
<title>Node13</title>
<g id="a_Node000013"><a xlink:href="pharmacymanager_8h.html" target="_top" xlink:title=" ">
<polygon fill="white" stroke="#666666" points="579,-140 462,-140 462,-121 579,-121 579,-140"/>
<text text-anchor="middle" x="520.5" y="-128" font-family="Helvetica,sans-Serif" font-size="10.00">pharmacymanager.h</text>
</a>
</g>
</g>
<!-- Node1&#45;&gt;Node13 -->
<g id="edge17_Node000001_Node000013" class="edge">
<title>Node1&#45;&gt;Node13</title>
<g id="a_edge17_Node000001_Node000013"><a xlink:title=" ">
<path fill="none" stroke="#63b8ff" d="M418.68,-223.91C444.11,-200.83 490.9,-158.37 510.96,-140.16"/>
<polygon fill="#63b8ff" stroke="#63b8ff" points="416.29,-221.35 411.24,-230.66 421,-226.53 416.29,-221.35"/>
</a>
</g>
</g>
<!-- Node15 -->
<g id="Node000015" class="node">
<title>Node15</title>
<g id="a_Node000015"><a xlink:href="syrup_8h.html" target="_top" xlink:title=" ">
<polygon fill="white" stroke="#666666" points="272,-195 219,-195 219,-176 272,-176 272,-195"/>
<text text-anchor="middle" x="245.5" y="-183" font-family="Helvetica,sans-Serif" font-size="10.00">syrup.h</text>
</a>
</g>
</g>
<!-- Node1&#45;&gt;Node15 -->
<g id="edge18_Node000001_Node000015" class="edge">
<title>Node1&#45;&gt;Node15</title>
<g id="a_edge18_Node000001_Node000015"><a xlink:title=" ">
<path fill="none" stroke="#63b8ff" d="M366.68,-227.67C337.59,-217.79 296.8,-203.93 270.76,-195.08"/>
<polygon fill="#63b8ff" stroke="#63b8ff" points="365.84,-231.08 376.44,-230.98 368.09,-224.45 365.84,-231.08"/>
</a>
</g>
</g>
<!-- Node17 -->
<g id="Node000017" class="node">
<title>Node17</title>
<g id="a_Node000017"><a xlink:href="tablet_8h.html" target="_top" xlink:title=" ">
<polygon fill="white" stroke="#666666" points="615.5,-195 561.5,-195 561.5,-176 615.5,-176 615.5,-195"/>
<text text-anchor="middle" x="588.5" y="-183" font-family="Helvetica,sans-Serif" font-size="10.00">tablet.h</text>
</a>
</g>
</g>
<!-- Node1&#45;&gt;Node17 -->
<g id="edge22_Node000001_Node000017" class="edge">
<title>Node1&#45;&gt;Node17</title>
<g id="a_edge22_Node000001_Node000017"><a xlink:title=" ">
<path fill="none" stroke="#63b8ff" d="M441.27,-228.23C477.39,-217.99 529.7,-203.17 561.27,-194.22"/>
<polygon fill="#63b8ff" stroke="#63b8ff" points="440.21,-224.89 431.54,-230.98 442.12,-231.63 440.21,-224.89"/>
</a>
</g>
</g>
<!-- Node3 -->
<g id="Node000003" class="node">
<title>Node3</title>
<g id="a_Node000003"><a xlink:href="filemanager_8cpp.html" target="_top" xlink:title=" ">
<polygon fill="white" stroke="#666666" points="347,-85 252,-85 252,-66 347,-66 347,-85"/>
<text text-anchor="middle" x="299.5" y="-73" font-family="Helvetica,sans-Serif" font-size="10.00">filemanager.cpp</text>
</a>
</g>
</g>
<!-- Node2&#45;&gt;Node3 -->
<g id="edge2_Node000002_Node000003" class="edge">
<title>Node2&#45;&gt;Node3</title>
<g id="a_edge2_Node000002_Node000003"><a xlink:title=" ">
<path fill="none" stroke="#63b8ff" d="M299.5,-110.66C299.5,-101.93 299.5,-91.99 299.5,-85.09"/>
<polygon fill="#63b8ff" stroke="#63b8ff" points="296,-110.75 299.5,-120.75 303,-110.75 296,-110.75"/>
</a>
</g>
</g>
<!-- Node5&#45;&gt;Node2 -->
<g id="edge5_Node000005_Node000002" class="edge">
<title>Node5&#45;&gt;Node2</title>
<g id="a_edge5_Node000005_Node000002"><a xlink:title=" ">
<path fill="none" stroke="#63b8ff" d="M179.88,-172.67C208.59,-162.79 248.86,-148.93 274.56,-140.08"/>
<polygon fill="#63b8ff" stroke="#63b8ff" points="178.56,-169.42 170.24,-175.98 180.84,-176.04 178.56,-169.42"/>
</a>
</g>
</g>
<!-- Node6 -->
<g id="Node000006" class="node">
<title>Node6</title>
<g id="a_Node000006"><a xlink:href="mainwindow_8h.html" target="_top" xlink:title=" ">
<polygon fill="white" stroke="#666666" points="508,-85 421,-85 421,-66 508,-66 508,-85"/>
<text text-anchor="middle" x="464.5" y="-73" font-family="Helvetica,sans-Serif" font-size="10.00">mainwindow.h</text>
</a>
</g>
</g>
<!-- Node5&#45;&gt;Node6 -->
<g id="edge6_Node000005_Node000006" class="edge">
<title>Node5&#45;&gt;Node6</title>
<g id="a_edge6_Node000005_Node000006"><a xlink:title=" ">
<path fill="none" stroke="#63b8ff" d="M133.01,-166.88C124.78,-152.91 117.38,-133.69 128.5,-121 138.05,-110.1 331.87,-89.62 420.71,-80.76"/>
<polygon fill="#63b8ff" stroke="#63b8ff" points="130.26,-169.07 138.63,-175.57 136.14,-165.27 130.26,-169.07"/>
</a>
</g>
</g>
<!-- Node10 -->
<g id="Node000010" class="node">
<title>Node10</title>
<g id="a_Node000010"><a xlink:href="ointment_8cpp.html" target="_top" xlink:title=" ">
<polygon fill="white" stroke="#666666" points="81,-140 0,-140 0,-121 81,-121 81,-140"/>
<text text-anchor="middle" x="40.5" y="-128" font-family="Helvetica,sans-Serif" font-size="10.00">ointment.cpp</text>
</a>
</g>
</g>
<!-- Node5&#45;&gt;Node10 -->
<g id="edge10_Node000005_Node000010" class="edge">
<title>Node5&#45;&gt;Node10</title>
<g id="a_edge10_Node000005_Node000010"><a xlink:title=" ">
<path fill="none" stroke="#63b8ff" d="M119.48,-171.37C100.2,-161.63 74.45,-148.64 57.68,-140.17"/>
<polygon fill="#63b8ff" stroke="#63b8ff" points="118.13,-174.6 128.63,-175.98 121.28,-168.35 118.13,-174.6"/>
</a>
</g>
</g>
<!-- Node7 -->
<g id="Node000007" class="node">
<title>Node7</title>
<g id="a_Node000007"><a xlink:href="moc__mainwindow_8cpp.html" target="_top" xlink:title=" ">
<polygon fill="white" stroke="#666666" points="415.5,-30 287.5,-30 287.5,0 415.5,0 415.5,-30"/>
<text text-anchor="start" x="295.5" y="-18" font-family="Helvetica,sans-Serif" font-size="10.00">build/Desktop&#45;Debug</text>
<text text-anchor="middle" x="351.5" y="-7" font-family="Helvetica,sans-Serif" font-size="10.00">/moc_mainwindow.cpp</text>
</a>
</g>
</g>
<!-- Node6&#45;&gt;Node7 -->
<g id="edge7_Node000006_Node000007" class="edge">
<title>Node6&#45;&gt;Node7</title>
<g id="a_edge7_Node000006_Node000007"><a xlink:title=" ">
<path fill="none" stroke="#63b8ff" d="M438.56,-61.07C420.67,-51.81 396.93,-39.52 378.76,-30.11"/>
<polygon fill="#63b8ff" stroke="#63b8ff" points="437.34,-64.38 447.83,-65.87 440.56,-58.16 437.34,-64.38"/>
</a>
</g>
</g>
<!-- Node8 -->
<g id="Node000008" class="node">
<title>Node8</title>
<g id="a_Node000008"><a xlink:href="main_8cpp.html" target="_top" xlink:title=" ">
<polygon fill="white" stroke="#666666" points="495.5,-24.5 433.5,-24.5 433.5,-5.5 495.5,-5.5 495.5,-24.5"/>
<text text-anchor="middle" x="464.5" y="-12.5" font-family="Helvetica,sans-Serif" font-size="10.00">main.cpp</text>
</a>
</g>
</g>
<!-- Node6&#45;&gt;Node8 -->
<g id="edge8_Node000006_Node000008" class="edge">
<title>Node6&#45;&gt;Node8</title>
<g id="a_edge8_Node000006_Node000008"><a xlink:title=" ">
<path fill="none" stroke="#63b8ff" d="M464.5,-55.66C464.5,-45.24 464.5,-32.8 464.5,-24.67"/>
<polygon fill="#63b8ff" stroke="#63b8ff" points="461,-55.87 464.5,-65.87 468,-55.87 461,-55.87"/>
</a>
</g>
</g>
<!-- Node9 -->
<g id="Node000009" class="node">
<title>Node9</title>
<g id="a_Node000009"><a xlink:href="mainwindow_8cpp.html" target="_top" xlink:title=" ">
<polygon fill="white" stroke="#666666" points="611.5,-24.5 513.5,-24.5 513.5,-5.5 611.5,-5.5 611.5,-24.5"/>
<text text-anchor="middle" x="562.5" y="-12.5" font-family="Helvetica,sans-Serif" font-size="10.00">mainwindow.cpp</text>
</a>
</g>
</g>
<!-- Node6&#45;&gt;Node9 -->
<g id="edge9_Node000006_Node000009" class="edge">
<title>Node6&#45;&gt;Node9</title>
<g id="a_edge9_Node000006_Node000009"><a xlink:title=" ">
<path fill="none" stroke="#63b8ff" d="M487.75,-60.62C506.44,-49.46 532.11,-34.14 547.98,-24.67"/>
<polygon fill="#63b8ff" stroke="#63b8ff" points="485.75,-57.74 478.96,-65.87 489.34,-63.75 485.75,-57.74"/>
</a>
</g>
</g>
<!-- Node11&#45;&gt;Node2 -->
<g id="edge12_Node000011_Node000002" class="edge">
<title>Node11&#45;&gt;Node2</title>
<g id="a_edge12_Node000011_Node000002"><a xlink:title=" ">
<path fill="none" stroke="#63b8ff" d="M376.23,-171.37C357.49,-161.63 332.48,-148.64 316.19,-140.17"/>
<polygon fill="#63b8ff" stroke="#63b8ff" points="374.62,-174.48 385.11,-175.98 377.85,-168.27 374.62,-174.48"/>
</a>
</g>
</g>
<!-- Node12 -->
<g id="Node000012" class="node">
<title>Node12</title>
<g id="a_Node000012"><a xlink:href="pharmacy_8cpp.html" target="_top" xlink:title=" ">
<polygon fill="white" stroke="#666666" points="443.5,-140 359.5,-140 359.5,-121 443.5,-121 443.5,-140"/>
<text text-anchor="middle" x="401.5" y="-128" font-family="Helvetica,sans-Serif" font-size="10.00">pharmacy.cpp</text>
</a>
</g>
</g>
<!-- Node11&#45;&gt;Node12 -->
<g id="edge13_Node000011_Node000012" class="edge">
<title>Node11&#45;&gt;Node12</title>
<g id="a_edge13_Node000011_Node000012"><a xlink:title=" ">
<path fill="none" stroke="#63b8ff" d="M401.5,-165.66C401.5,-156.93 401.5,-146.99 401.5,-140.09"/>
<polygon fill="#63b8ff" stroke="#63b8ff" points="398,-165.75 401.5,-175.75 405,-165.75 398,-165.75"/>
</a>
</g>
</g>
<!-- Node11&#45;&gt;Node13 -->
<g id="edge14_Node000011_Node000013" class="edge">
<title>Node11&#45;&gt;Node13</title>
<g id="a_edge14_Node000011_Node000013"><a xlink:title=" ">
<path fill="none" stroke="#63b8ff" d="M429.8,-171.9C451.78,-162.11 481.68,-148.79 501.03,-140.17"/>
<polygon fill="#63b8ff" stroke="#63b8ff" points="428.33,-168.72 420.62,-175.98 431.18,-175.11 428.33,-168.72"/>
</a>
</g>
</g>
<!-- Node13&#45;&gt;Node6 -->
<g id="edge15_Node000013_Node000006" class="edge">
<title>Node13&#45;&gt;Node6</title>
<g id="a_edge15_Node000013_Node000006"><a xlink:title=" ">
<path fill="none" stroke="#63b8ff" d="M504.17,-114.04C494.24,-104.64 481.91,-92.98 473.66,-85.17"/>
<polygon fill="#63b8ff" stroke="#63b8ff" points="501.83,-116.65 511.5,-120.98 506.65,-111.57 501.83,-116.65"/>
</a>
</g>
</g>
<!-- Node14 -->
<g id="Node000014" class="node">
<title>Node14</title>
<g id="a_Node000014"><a xlink:href="pharmacymanager_8cpp.html" target="_top" xlink:title=" ">
<polygon fill="white" stroke="#666666" points="723.5,-85 595.5,-85 595.5,-66 723.5,-66 723.5,-85"/>
<text text-anchor="middle" x="659.5" y="-73" font-family="Helvetica,sans-Serif" font-size="10.00">pharmacymanager.cpp</text>
</a>
</g>
</g>
<!-- Node13&#45;&gt;Node14 -->
<g id="edge16_Node000013_Node000014" class="edge">
<title>Node13&#45;&gt;Node14</title>
<g id="a_edge16_Node000013_Node000014"><a xlink:title=" ">
<path fill="none" stroke="#63b8ff" d="M552.18,-117.42C577.97,-107.59 613.74,-93.95 636.76,-85.17"/>
<polygon fill="#63b8ff" stroke="#63b8ff" points="550.93,-114.15 542.83,-120.98 553.42,-120.69 550.93,-114.15"/>
</a>
</g>
</g>
<!-- Node15&#45;&gt;Node2 -->
<g id="edge19_Node000015_Node000002" class="edge">
<title>Node15&#45;&gt;Node2</title>
<g id="a_edge19_Node000015_Node000002"><a xlink:title=" ">
<path fill="none" stroke="#63b8ff" d="M261.78,-168.52C271.3,-159.18 282.94,-147.75 290.75,-140.09"/>
<polygon fill="#63b8ff" stroke="#63b8ff" points="259.1,-166.25 254.42,-175.75 264.01,-171.24 259.1,-166.25"/>
</a>
</g>
</g>
<!-- Node15&#45;&gt;Node6 -->
<g id="edge20_Node000015_Node000006" class="edge">
<title>Node15&#45;&gt;Node6</title>
<g id="a_edge20_Node000015_Node000006"><a xlink:title=" ">
<path fill="none" stroke="#63b8ff" d="M241.19,-165.91C239.11,-151.91 238.99,-133.11 249.5,-121 271.42,-95.74 364.33,-84.2 420.6,-79.44"/>
<polygon fill="#63b8ff" stroke="#63b8ff" points="237.79,-166.74 243.11,-175.9 244.66,-165.42 237.79,-166.74"/>
</a>
</g>
</g>
<!-- Node16 -->
<g id="Node000016" class="node">
<title>Node16</title>
<g id="a_Node000016"><a xlink:href="syrup_8cpp.html" target="_top" xlink:title=" ">
<polygon fill="white" stroke="#666666" points="201.5,-140 137.5,-140 137.5,-121 201.5,-121 201.5,-140"/>
<text text-anchor="middle" x="169.5" y="-128" font-family="Helvetica,sans-Serif" font-size="10.00">syrup.cpp</text>
</a>
</g>
</g>
<!-- Node15&#45;&gt;Node16 -->
<g id="edge21_Node000015_Node000016" class="edge">
<title>Node15&#45;&gt;Node16</title>
<g id="a_edge21_Node000015_Node000016"><a xlink:title=" ">
<path fill="none" stroke="#63b8ff" d="M224.92,-170.15C211.19,-160.57 193.57,-148.29 181.93,-140.17"/>
<polygon fill="#63b8ff" stroke="#63b8ff" points="223.08,-173.14 233.29,-175.98 227.09,-167.39 223.08,-173.14"/>
</a>
</g>
</g>
<!-- Node17&#45;&gt;Node2 -->
<g id="edge23_Node000017_Node000002" class="edge">
<title>Node17&#45;&gt;Node2</title>
<g id="a_edge23_Node000017_Node000002"><a xlink:title=" ">
<path fill="none" stroke="#63b8ff" d="M551.14,-177.65C497.11,-167.74 397.48,-149.47 341.15,-139.14"/>
<polygon fill="#63b8ff" stroke="#63b8ff" points="550.84,-181.15 561.31,-179.51 552.11,-174.27 550.84,-181.15"/>
</a>
</g>
</g>
<!-- Node17&#45;&gt;Node6 -->
<g id="edge24_Node000017_Node000006" class="edge">
<title>Node17&#45;&gt;Node6</title>
<g id="a_edge24_Node000017_Node000006"><a xlink:title=" ">
<path fill="none" stroke="#63b8ff" d="M624.94,-173C654.73,-161.7 689.25,-142.97 671.5,-121 651.4,-96.12 563,-84.51 508.42,-79.62"/>
<polygon fill="#63b8ff" stroke="#63b8ff" points="623.72,-169.72 615.51,-176.41 626.1,-176.31 623.72,-169.72"/>
</a>
</g>
</g>
<!-- Node17&#45;&gt;Node14 -->
<g id="edge25_Node000017_Node000014" class="edge">
<title>Node17&#45;&gt;Node14</title>
<g id="a_edge25_Node000017_Node000014"><a xlink:title=" ">
<path fill="none" stroke="#63b8ff" d="M625.61,-175.17C655.91,-166.71 695.2,-153.53 704.5,-140 718.12,-120.18 691.05,-97.22 673.28,-85.07"/>
<polygon fill="#63b8ff" stroke="#63b8ff" points="624.47,-171.85 615.73,-177.85 626.3,-178.61 624.47,-171.85"/>
</a>
</g>
</g>
<!-- Node18 -->
<g id="Node000018" class="node">
<title>Node18</title>
<g id="a_Node000018"><a xlink:href="tablet_8cpp.html" target="_top" xlink:title=" ">
<polygon fill="white" stroke="#666666" points="662,-140 597,-140 597,-121 662,-121 662,-140"/>
<text text-anchor="middle" x="629.5" y="-128" font-family="Helvetica,sans-Serif" font-size="10.00">tablet.cpp</text>
</a>
</g>
</g>
<!-- Node17&#45;&gt;Node18 -->
<g id="edge26_Node000017_Node000018" class="edge">
<title>Node17&#45;&gt;Node18</title>
<g id="a_edge26_Node000017_Node000018"><a xlink:title=" ">
<path fill="none" stroke="#63b8ff" d="M601.52,-167.67C608.62,-158.5 617.1,-147.52 622.86,-140.09"/>
<polygon fill="#63b8ff" stroke="#63b8ff" points="598.62,-165.7 595.27,-175.75 604.16,-169.98 598.62,-165.7"/>
</a>
</g>
</g>
</g>
</svg>
