<?xml version="1.0" encoding="UTF-8" standalone="no"?>
<!DOCTYPE svg PUBLIC "-//W3C//DTD SVG 1.1//EN"
 "http://www.w3.org/Graphics/SVG/1.1/DTD/svg11.dtd">
<!-- Generated by graphviz version 2.43.0 (0)
 -->
<!-- Title: medicine.cpp Pages: 1 -->
<svg width="859pt" height="379pt"
 viewBox="0.00 0.00 859.18 379.00" xmlns="http://www.w3.org/2000/svg" xmlns:xlink="http://www.w3.org/1999/xlink">
<g id="graph0" class="graph" transform="scale(1 1) rotate(0) translate(4 375)">
<title>medicine.cpp</title>
<!-- Node1 -->
<g id="Node000001" class="node">
<title>Node1</title>
<g id="a_Node000001"><a xlink:title=" ">
<polygon fill="#999999" stroke="#666666" points="437.5,-371 355.5,-371 355.5,-352 437.5,-352 437.5,-371"/>
<text text-anchor="middle" x="396.5" y="-359" font-family="Helvetica,sans-Serif" font-size="10.00">medicine.cpp</text>
</a>
</g>
</g>
<!-- Node2 -->
<g id="Node000002" class="node">
<title>Node2</title>
<g id="a_Node000002"><a xlink:href="medicine_8h.html" target="_top" xlink:title=" ">
<polygon fill="white" stroke="#666666" points="249,-316 178,-316 178,-297 249,-297 249,-316"/>
<text text-anchor="middle" x="213.5" y="-304" font-family="Helvetica,sans-Serif" font-size="10.00">medicine.h</text>
</a>
</g>
</g>
<!-- Node1&#45;&gt;Node2 -->
<g id="edge1_Node000001_Node000002" class="edge">
<title>Node1&#45;&gt;Node2</title>
<g id="a_edge1_Node000001_Node000002"><a xlink:title=" ">
<path fill="none" stroke="#63b8ff" d="M367.1,-351.98C336.11,-343.01 287.12,-328.82 252.83,-318.89"/>
<polygon fill="#63b8ff" stroke="#63b8ff" points="253.71,-315.5 243.13,-316.08 251.76,-322.23 253.71,-315.5"/>
</a>
</g>
</g>
<!-- Node11 -->
<g id="Node000011" class="node">
<title>Node11</title>
<g id="a_Node000011"><a xlink:title=" ">
<polygon fill="#e0e0e0" stroke="#999999" points="350.5,-316 286.5,-316 286.5,-297 350.5,-297 350.5,-316"/>
<text text-anchor="middle" x="318.5" y="-304" font-family="Helvetica,sans-Serif" font-size="10.00">algorithm</text>
</a>
</g>
</g>
<!-- Node1&#45;&gt;Node11 -->
<g id="edge13_Node000001_Node000011" class="edge">
<title>Node1&#45;&gt;Node11</title>
<g id="a_edge13_Node000001_Node000011"><a xlink:title=" ">
<path fill="none" stroke="#63b8ff" d="M383.97,-351.98C372.1,-343.92 354.04,-331.65 339.89,-322.03"/>
<polygon fill="#63b8ff" stroke="#63b8ff" points="341.5,-318.9 331.26,-316.17 337.56,-324.69 341.5,-318.9"/>
</a>
</g>
</g>
<!-- Node12 -->
<g id="Node000012" class="node">
<title>Node12</title>
<g id="a_Node000012"><a xlink:title=" ">
<polygon fill="#e0e0e0" stroke="#999999" points="424.5,-316 368.5,-316 368.5,-297 424.5,-297 424.5,-316"/>
<text text-anchor="middle" x="396.5" y="-304" font-family="Helvetica,sans-Serif" font-size="10.00">sstream</text>
</a>
</g>
</g>
<!-- Node1&#45;&gt;Node12 -->
<g id="edge14_Node000001_Node000012" class="edge">
<title>Node1&#45;&gt;Node12</title>
<g id="a_edge14_Node000001_Node000012"><a xlink:title=" ">
<path fill="none" stroke="#63b8ff" d="M396.5,-351.75C396.5,-344.8 396.5,-334.85 396.5,-326.13"/>
<polygon fill="#63b8ff" stroke="#63b8ff" points="400,-326.09 396.5,-316.09 393,-326.09 400,-326.09"/>
</a>
</g>
</g>
<!-- Node13 -->
<g id="Node000013" class="node">
<title>Node13</title>
<g id="a_Node000013"><a xlink:href="InvalidProductDataException_8h.html" target="_top" xlink:title=" ">
<polygon fill="white" stroke="#666666" points="719.5,-195 549.5,-195 549.5,-165 719.5,-165 719.5,-195"/>
<text text-anchor="start" x="557.5" y="-183" font-family="Helvetica,sans-Serif" font-size="10.00">Exception/PharmacyExceptions</text>
<text text-anchor="middle" x="634.5" y="-172" font-family="Helvetica,sans-Serif" font-size="10.00">/InvalidProductDataException.h</text>
</a>
</g>
</g>
<!-- Node1&#45;&gt;Node13 -->
<g id="edge15_Node000001_Node000013" class="edge">
<title>Node1&#45;&gt;Node13</title>
<g id="a_edge15_Node000001_Node000013"><a xlink:title=" ">
<path fill="none" stroke="#63b8ff" d="M437.5,-357.68C537.79,-349.85 790.95,-324.1 841.5,-261 877.66,-215.86 800.23,-196.15 730,-187.57"/>
<polygon fill="#63b8ff" stroke="#63b8ff" points="730.04,-184.05 719.7,-186.38 729.24,-191.01 730.04,-184.05"/>
</a>
</g>
</g>
<!-- Node16 -->
<g id="Node000016" class="node">
<title>Node16</title>
<g id="a_Node000016"><a xlink:href="safeinput_8h.html" target="_top" xlink:title=" ">
<polygon fill="white" stroke="#666666" points="564.5,-316 442.5,-316 442.5,-297 564.5,-297 564.5,-316"/>
<text text-anchor="middle" x="503.5" y="-304" font-family="Helvetica,sans-Serif" font-size="10.00">Exception/safeinput.h</text>
</a>
</g>
</g>
<!-- Node1&#45;&gt;Node16 -->
<g id="edge19_Node000001_Node000016" class="edge">
<title>Node1&#45;&gt;Node16</title>
<g id="a_edge19_Node000001_Node000016"><a xlink:title=" ">
<path fill="none" stroke="#63b8ff" d="M413.69,-351.98C430.75,-343.54 457.13,-330.47 476.9,-320.68"/>
<polygon fill="#63b8ff" stroke="#63b8ff" points="478.59,-323.75 486,-316.17 475.48,-317.47 478.59,-323.75"/>
</a>
</g>
</g>
<!-- Node3 -->
<g id="Node000003" class="node">
<title>Node3</title>
<g id="a_Node000003"><a xlink:href="medicalproduct_8h.html" target="_top" xlink:title=" ">
<polygon fill="white" stroke="#666666" points="101,-255.5 0,-255.5 0,-236.5 101,-236.5 101,-255.5"/>
<text text-anchor="middle" x="50.5" y="-243.5" font-family="Helvetica,sans-Serif" font-size="10.00">medicalproduct.h</text>
</a>
</g>
</g>
<!-- Node2&#45;&gt;Node3 -->
<g id="edge2_Node000002_Node000003" class="edge">
<title>Node2&#45;&gt;Node3</title>
<g id="a_edge2_Node000002_Node000003"><a xlink:title=" ">
<path fill="none" stroke="#63b8ff" d="M189.8,-296.99C161.91,-286.99 115.43,-270.3 83.9,-258.99"/>
<polygon fill="#63b8ff" stroke="#63b8ff" points="84.82,-255.6 74.23,-255.52 82.46,-262.19 84.82,-255.6"/>
</a>
</g>
</g>
<!-- Node5 -->
<g id="Node000005" class="node">
<title>Node5</title>
<g id="a_Node000005"><a xlink:title=" ">
<polygon fill="#e0e0e0" stroke="#999999" points="280.5,-129 236.5,-129 236.5,-110 280.5,-110 280.5,-129"/>
<text text-anchor="middle" x="258.5" y="-117" font-family="Helvetica,sans-Serif" font-size="10.00">string</text>
</a>
</g>
</g>
<!-- Node2&#45;&gt;Node5 -->
<g id="edge12_Node000002_Node000005" class="edge">
<title>Node2&#45;&gt;Node5</title>
<g id="a_edge12_Node000002_Node000005"><a xlink:title=" ">
<path fill="none" stroke="#63b8ff" d="M224.04,-296.86C233.14,-288.69 245.72,-275.54 251.5,-261 267.76,-220.09 264.59,-167.14 261.29,-139.38"/>
<polygon fill="#63b8ff" stroke="#63b8ff" points="264.72,-138.58 259.93,-129.13 257.78,-139.51 264.72,-138.58"/>
</a>
</g>
</g>
<!-- Node9 -->
<g id="Node000009" class="node">
<title>Node9</title>
<g id="a_Node000009"><a xlink:title=" ">
<polygon fill="#e0e0e0" stroke="#999999" points="166,-255.5 119,-255.5 119,-236.5 166,-236.5 166,-255.5"/>
<text text-anchor="middle" x="142.5" y="-243.5" font-family="Helvetica,sans-Serif" font-size="10.00">vector</text>
</a>
</g>
</g>
<!-- Node2&#45;&gt;Node9 -->
<g id="edge10_Node000002_Node000009" class="edge">
<title>Node2&#45;&gt;Node9</title>
<g id="a_edge10_Node000002_Node000009"><a xlink:title=" ">
<path fill="none" stroke="#63b8ff" d="M203.02,-296.87C192.01,-287.8 174.46,-273.34 161.09,-262.32"/>
<polygon fill="#63b8ff" stroke="#63b8ff" points="162.96,-259.33 153.02,-255.67 158.51,-264.73 162.96,-259.33"/>
</a>
</g>
</g>
<!-- Node10 -->
<g id="Node000010" class="node">
<title>Node10</title>
<g id="a_Node000010"><a xlink:title=" ">
<polygon fill="#e0e0e0" stroke="#999999" points="242.5,-255.5 184.5,-255.5 184.5,-236.5 242.5,-236.5 242.5,-255.5"/>
<text text-anchor="middle" x="213.5" y="-243.5" font-family="Helvetica,sans-Serif" font-size="10.00">memory</text>
</a>
</g>
</g>
<!-- Node2&#45;&gt;Node10 -->
<g id="edge11_Node000002_Node000010" class="edge">
<title>Node2&#45;&gt;Node10</title>
<g id="a_edge11_Node000002_Node000010"><a xlink:title=" ">
<path fill="none" stroke="#63b8ff" d="M213.5,-296.87C213.5,-288.75 213.5,-276.31 213.5,-265.89"/>
<polygon fill="#63b8ff" stroke="#63b8ff" points="217,-265.67 213.5,-255.67 210,-265.67 217,-265.67"/>
</a>
</g>
</g>
<!-- Node4 -->
<g id="Node000004" class="node">
<title>Node4</title>
<g id="a_Node000004"><a xlink:title=" ">
<polygon fill="#e0e0e0" stroke="#999999" points="438.5,-19 378.5,-19 378.5,0 438.5,0 438.5,-19"/>
<text text-anchor="middle" x="408.5" y="-7" font-family="Helvetica,sans-Serif" font-size="10.00">iostream</text>
</a>
</g>
</g>
<!-- Node3&#45;&gt;Node4 -->
<g id="edge3_Node000003_Node000004" class="edge">
<title>Node3&#45;&gt;Node4</title>
<g id="a_edge3_Node000003_Node000004"><a xlink:title=" ">
<path fill="none" stroke="#63b8ff" d="M48.86,-236.47C44.89,-213.09 37.31,-147.25 69.5,-110 108.84,-64.47 286.98,-30.29 368.08,-16.8"/>
<polygon fill="#63b8ff" stroke="#63b8ff" points="369.09,-20.18 378.39,-15.11 367.96,-13.27 369.09,-20.18"/>
</a>
</g>
</g>
<!-- Node3&#45;&gt;Node5 -->
<g id="edge4_Node000003_Node000005" class="edge">
<title>Node3&#45;&gt;Node5</title>
<g id="a_edge4_Node000003_Node000005"><a xlink:title=" ">
<path fill="none" stroke="#63b8ff" d="M84.52,-236.48C123.45,-226.29 184.3,-208.86 203.5,-195 224.2,-180.05 240.39,-154.98 249.69,-138.09"/>
<polygon fill="#63b8ff" stroke="#63b8ff" points="252.79,-139.72 254.36,-129.24 246.6,-136.45 252.79,-139.72"/>
</a>
</g>
</g>
<!-- Node6 -->
<g id="Node000006" class="node">
<title>Node6</title>
<g id="a_Node000006"><a xlink:title=" ">
<polygon fill="#e0e0e0" stroke="#999999" points="122.5,-129 78.5,-129 78.5,-110 122.5,-110 122.5,-129"/>
<text text-anchor="middle" x="100.5" y="-117" font-family="Helvetica,sans-Serif" font-size="10.00">ctime</text>
</a>
</g>
</g>
<!-- Node3&#45;&gt;Node6 -->
<g id="edge5_Node000003_Node000006" class="edge">
<title>Node3&#45;&gt;Node6</title>
<g id="a_edge5_Node000003_Node000006"><a xlink:title=" ">
<path fill="none" stroke="#63b8ff" d="M53.94,-236.44C62,-216.36 82.28,-165.87 93.22,-138.62"/>
<polygon fill="#63b8ff" stroke="#63b8ff" points="96.56,-139.7 97.04,-129.12 90.06,-137.09 96.56,-139.7"/>
</a>
</g>
</g>
<!-- Node7 -->
<g id="Node000007" class="node">
<title>Node7</title>
<g id="a_Node000007"><a xlink:href="safedate_8h.html" target="_top" xlink:title=" ">
<polygon fill="white" stroke="#666666" points="194.5,-189.5 126.5,-189.5 126.5,-170.5 194.5,-170.5 194.5,-189.5"/>
<text text-anchor="middle" x="160.5" y="-177.5" font-family="Helvetica,sans-Serif" font-size="10.00">safedate.h</text>
</a>
</g>
</g>
<!-- Node3&#45;&gt;Node7 -->
<g id="edge6_Node000003_Node000007" class="edge">
<title>Node3&#45;&gt;Node7</title>
<g id="a_edge6_Node000003_Node000007"><a xlink:title=" ">
<path fill="none" stroke="#63b8ff" d="M65.34,-236.37C83.62,-225.73 114.94,-207.51 136.63,-194.89"/>
<polygon fill="#63b8ff" stroke="#63b8ff" points="138.67,-197.75 145.55,-189.7 135.14,-191.7 138.67,-197.75"/>
</a>
</g>
</g>
<!-- Node7&#45;&gt;Node5 -->
<g id="edge9_Node000007_Node000005" class="edge">
<title>Node7&#45;&gt;Node5</title>
<g id="a_edge9_Node000007_Node000005"><a xlink:title=" ">
<path fill="none" stroke="#63b8ff" d="M174.96,-170.37C190.81,-160.91 216.47,-145.59 235.18,-134.42"/>
<polygon fill="#63b8ff" stroke="#63b8ff" points="237.19,-137.3 243.98,-129.17 233.6,-131.29 237.19,-137.3"/>
</a>
</g>
</g>
<!-- Node7&#45;&gt;Node6 -->
<g id="edge7_Node000007_Node000006" class="edge">
<title>Node7&#45;&gt;Node6</title>
<g id="a_edge7_Node000007_Node000006"><a xlink:title=" ">
<path fill="none" stroke="#63b8ff" d="M151.65,-170.37C142.52,-161.47 128.08,-147.39 116.86,-136.45"/>
<polygon fill="#63b8ff" stroke="#63b8ff" points="118.99,-133.64 109.39,-129.17 114.11,-138.65 118.99,-133.64"/>
</a>
</g>
</g>
<!-- Node8 -->
<g id="Node000008" class="node">
<title>Node8</title>
<g id="a_Node000008"><a xlink:title=" ">
<polygon fill="#e0e0e0" stroke="#999999" points="206,-129 141,-129 141,-110 206,-110 206,-129"/>
<text text-anchor="middle" x="173.5" y="-117" font-family="Helvetica,sans-Serif" font-size="10.00">stdexcept</text>
</a>
</g>
</g>
<!-- Node7&#45;&gt;Node8 -->
<g id="edge8_Node000007_Node000008" class="edge">
<title>Node7&#45;&gt;Node8</title>
<g id="a_edge8_Node000007_Node000008"><a xlink:title=" ">
<path fill="none" stroke="#63b8ff" d="M162.42,-170.37C164.24,-162.16 167.05,-149.54 169.38,-139.05"/>
<polygon fill="#63b8ff" stroke="#63b8ff" points="172.82,-139.69 171.57,-129.17 165.99,-138.17 172.82,-139.69"/>
</a>
</g>
</g>
<!-- Node14 -->
<g id="Node000014" class="node">
<title>Node14</title>
<g id="a_Node000014"><a xlink:href="MedicalProductException_8h.html" target="_top" xlink:title=" ">
<polygon fill="white" stroke="#666666" points="647,-129 498,-129 498,-110 647,-110 647,-129"/>
<text text-anchor="middle" x="572.5" y="-117" font-family="Helvetica,sans-Serif" font-size="10.00">MedicalProductException.h</text>
</a>
</g>
</g>
<!-- Node13&#45;&gt;Node14 -->
<g id="edge16_Node000013_Node000014" class="edge">
<title>Node13&#45;&gt;Node14</title>
<g id="a_edge16_Node000013_Node000014"><a xlink:title=" ">
<path fill="none" stroke="#63b8ff" d="M619.49,-164.84C610.31,-156.17 598.55,-145.08 589.09,-136.15"/>
<polygon fill="#63b8ff" stroke="#63b8ff" points="591.47,-133.58 581.79,-129.27 586.66,-138.67 591.47,-133.58"/>
</a>
</g>
</g>
<!-- Node15 -->
<g id="Node000015" class="node">
<title>Node15</title>
<g id="a_Node000015"><a xlink:href="PharmacyException_8h.html" target="_top" xlink:title=" ">
<polygon fill="white" stroke="#666666" points="595.5,-74 473.5,-74 473.5,-55 595.5,-55 595.5,-74"/>
<text text-anchor="middle" x="534.5" y="-62" font-family="Helvetica,sans-Serif" font-size="10.00">PharmacyException.h</text>
</a>
</g>
</g>
<!-- Node14&#45;&gt;Node15 -->
<g id="edge17_Node000014_Node000015" class="edge">
<title>Node14&#45;&gt;Node15</title>
<g id="a_edge17_Node000014_Node000015"><a xlink:title=" ">
<path fill="none" stroke="#63b8ff" d="M566.23,-109.75C560.91,-102.34 553.14,-91.5 546.62,-82.41"/>
<polygon fill="#63b8ff" stroke="#63b8ff" points="549.33,-80.18 540.66,-74.09 543.64,-84.26 549.33,-80.18"/>
</a>
</g>
</g>
<!-- Node15&#45;&gt;Node4 -->
<g id="edge18_Node000015_Node000004" class="edge">
<title>Node15&#45;&gt;Node4</title>
<g id="a_edge18_Node000015_Node000004"><a xlink:title=" ">
<path fill="none" stroke="#63b8ff" d="M514.26,-54.98C493.8,-46.38 461.97,-32.99 438.57,-23.15"/>
<polygon fill="#63b8ff" stroke="#63b8ff" points="439.69,-19.82 429.11,-19.17 436.97,-26.27 439.69,-19.82"/>
</a>
</g>
</g>
<!-- Node16&#45;&gt;Node4 -->
<g id="edge20_Node000016_Node000004" class="edge">
<title>Node16&#45;&gt;Node4</title>
<g id="a_edge20_Node000016_Node000004"><a xlink:title=" ">
<path fill="none" stroke="#63b8ff" d="M478.67,-296.97C461.77,-289.9 440.23,-278.21 427.5,-261 405.76,-231.63 408.5,-217.54 408.5,-181 408.5,-181 408.5,-181 408.5,-118.5 408.5,-87.19 408.5,-50.77 408.5,-29.23"/>
<polygon fill="#63b8ff" stroke="#63b8ff" points="412,-29.18 408.5,-19.18 405,-29.18 412,-29.18"/>
</a>
</g>
</g>
<!-- Node16&#45;&gt;Node5 -->
<g id="edge21_Node000016_Node000005" class="edge">
<title>Node16&#45;&gt;Node5</title>
<g id="a_edge21_Node000016_Node000005"><a xlink:title=" ">
<path fill="none" stroke="#63b8ff" d="M449.61,-296.98C405.05,-289.02 346.17,-276.13 327.5,-261 322.29,-256.78 284.07,-175.5 266.86,-138.53"/>
<polygon fill="#63b8ff" stroke="#63b8ff" points="270,-136.97 262.61,-129.38 263.65,-139.92 270,-136.97"/>
</a>
</g>
</g>
<!-- Node16&#45;&gt;Node13 -->
<g id="edge23_Node000016_Node000013" class="edge">
<title>Node16&#45;&gt;Node13</title>
<g id="a_edge23_Node000016_Node000013"><a xlink:title=" ">
<path fill="none" stroke="#63b8ff" d="M551.97,-296.93C574.3,-290.59 599.35,-279.68 615.5,-261 628.8,-245.62 633.18,-222.59 634.45,-205.18"/>
<polygon fill="#63b8ff" stroke="#63b8ff" points="637.95,-205.33 634.89,-195.19 630.95,-205.02 637.95,-205.33"/>
</a>
</g>
</g>
<!-- Node17 -->
<g id="Node000017" class="node">
<title>Node17</title>
<g id="a_Node000017"><a xlink:title=" ">
<polygon fill="#e0e0e0" stroke="#999999" points="380.5,-255.5 336.5,-255.5 336.5,-236.5 380.5,-236.5 380.5,-255.5"/>
<text text-anchor="middle" x="358.5" y="-243.5" font-family="Helvetica,sans-Serif" font-size="10.00">limits</text>
</a>
</g>
</g>
<!-- Node16&#45;&gt;Node17 -->
<g id="edge22_Node000016_Node000017" class="edge">
<title>Node16&#45;&gt;Node17</title>
<g id="a_edge22_Node000016_Node000017"><a xlink:title=" ">
<path fill="none" stroke="#63b8ff" d="M482.42,-296.99C457.82,-287.07 416.97,-270.59 388.94,-259.28"/>
<polygon fill="#63b8ff" stroke="#63b8ff" points="390.19,-256.01 379.61,-255.52 387.57,-262.5 390.19,-256.01"/>
</a>
</g>
</g>
<!-- Node18 -->
<g id="Node000018" class="node">
<title>Node18</title>
<g id="a_Node000018"><a xlink:href="InvalidPriceException_8h.html" target="_top" xlink:title=" ">
<polygon fill="white" stroke="#666666" points="832.5,-261 662.5,-261 662.5,-231 832.5,-231 832.5,-261"/>
<text text-anchor="start" x="670.5" y="-249" font-family="Helvetica,sans-Serif" font-size="10.00">Exception/PharmacyExceptions</text>
<text text-anchor="middle" x="747.5" y="-238" font-family="Helvetica,sans-Serif" font-size="10.00">/InvalidPriceException.h</text>
</a>
</g>
</g>
<!-- Node16&#45;&gt;Node18 -->
<g id="edge24_Node000016_Node000018" class="edge">
<title>Node16&#45;&gt;Node18</title>
<g id="a_edge24_Node000016_Node000018"><a xlink:title=" ">
<path fill="none" stroke="#63b8ff" d="M538.98,-296.99C575.55,-288.23 633.5,-274.33 679.03,-263.42"/>
<polygon fill="#63b8ff" stroke="#63b8ff" points="679.93,-266.8 688.84,-261.06 678.3,-259.99 679.93,-266.8"/>
</a>
</g>
</g>
<!-- Node19 -->
<g id="Node000019" class="node">
<title>Node19</title>
<g id="a_Node000019"><a xlink:href="InvalidProductIdException_8h.html" target="_top" xlink:title=" ">
<polygon fill="white" stroke="#666666" points="606.5,-261 436.5,-261 436.5,-231 606.5,-231 606.5,-261"/>
<text text-anchor="start" x="444.5" y="-249" font-family="Helvetica,sans-Serif" font-size="10.00">Exception/PharmacyExceptions</text>
<text text-anchor="middle" x="521.5" y="-238" font-family="Helvetica,sans-Serif" font-size="10.00">/InvalidProductIdException.h</text>
</a>
</g>
</g>
<!-- Node16&#45;&gt;Node19 -->
<g id="edge26_Node000016_Node000019" class="edge">
<title>Node16&#45;&gt;Node19</title>
<g id="a_edge26_Node000016_Node000019"><a xlink:title=" ">
<path fill="none" stroke="#63b8ff" d="M506.16,-296.87C508.26,-290.03 511.3,-280.14 514.13,-270.97"/>
<polygon fill="#63b8ff" stroke="#63b8ff" points="517.56,-271.7 517.16,-261.11 510.87,-269.64 517.56,-271.7"/>
</a>
</g>
</g>
<!-- Node18&#45;&gt;Node13 -->
<g id="edge25_Node000018_Node000013" class="edge">
<title>Node18&#45;&gt;Node13</title>
<g id="a_edge25_Node000018_Node000013"><a xlink:title=" ">
<path fill="none" stroke="#63b8ff" d="M722.7,-230.95C706.66,-221.87 685.57,-209.93 668.04,-200"/>
<polygon fill="#63b8ff" stroke="#63b8ff" points="669.67,-196.9 659.24,-195.01 666.22,-202.99 669.67,-196.9"/>
</a>
</g>
</g>
<!-- Node19&#45;&gt;Node13 -->
<g id="edge27_Node000019_Node000013" class="edge">
<title>Node19&#45;&gt;Node13</title>
<g id="a_edge27_Node000019_Node000013"><a xlink:title=" ">
<path fill="none" stroke="#63b8ff" d="M546.3,-230.95C562.34,-221.87 583.43,-209.93 600.96,-200"/>
<polygon fill="#63b8ff" stroke="#63b8ff" points="602.78,-202.99 609.76,-195.01 599.33,-196.9 602.78,-202.99"/>
</a>
</g>
</g>
</g>
</svg>
