<?xml version="1.0" encoding="UTF-8" standalone="no"?>
<!DOCTYPE svg PUBLIC "-//W3C//DTD SVG 1.1//EN"
 "http://www.w3.org/Graphics/SVG/1.1/DTD/svg11.dtd">
<!-- Generated by graphviz version 2.43.0 (0)
 -->
<!-- Title: medicalproduct.h Pages: 1 -->
<svg width="1288pt" height="313pt"
 viewBox="0.00 0.00 1287.50 313.00" xmlns="http://www.w3.org/2000/svg" xmlns:xlink="http://www.w3.org/1999/xlink">
<g id="graph0" class="graph" transform="scale(1 1) rotate(0) translate(4 309)">
<title>medicalproduct.h</title>
<!-- Node1 -->
<g id="Node000001" class="node">
<title>Node1</title>
<g id="a_Node000001"><a xlink:title=" ">
<polygon fill="#999999" stroke="#666666" points="766.5,-305 665.5,-305 665.5,-286 766.5,-286 766.5,-305"/>
<text text-anchor="middle" x="716" y="-293" font-family="Helvetica,sans-Serif" font-size="10.00">medicalproduct.h</text>
</a>
</g>
</g>
<!-- Node2 -->
<g id="Node000002" class="node">
<title>Node2</title>
<g id="a_Node000002"><a xlink:href="filemanager_8h.html" target="_top" xlink:title=" ">
<polygon fill="white" stroke="#666666" points="589.5,-140 506.5,-140 506.5,-121 589.5,-121 589.5,-140"/>
<text text-anchor="middle" x="548" y="-128" font-family="Helvetica,sans-Serif" font-size="10.00">filemanager.h</text>
</a>
</g>
</g>
<!-- Node1&#45;&gt;Node2 -->
<g id="edge1_Node000001_Node000002" class="edge">
<title>Node1&#45;&gt;Node2</title>
<g id="a_edge1_Node000001_Node000002"><a xlink:title=" ">
<path fill="none" stroke="#63b8ff" d="M689.16,-280.91C658.56,-264.25 608.67,-233.45 577,-195 562.98,-177.97 554.24,-153.06 550.35,-140.08"/>
<polygon fill="#63b8ff" stroke="#63b8ff" points="687.9,-284.2 698.38,-285.81 691.19,-278.02 687.9,-284.2"/>
</a>
</g>
</g>
<!-- Node4 -->
<g id="Node000004" class="node">
<title>Node4</title>
<g id="a_Node000004"><a xlink:href="inventoryoperation_8h.html" target="_top" xlink:title=" ">
<polygon fill="white" stroke="#666666" points="328.5,-250 209.5,-250 209.5,-231 328.5,-231 328.5,-250"/>
<text text-anchor="middle" x="269" y="-238" font-family="Helvetica,sans-Serif" font-size="10.00">inventoryoperation.h</text>
</a>
</g>
</g>
<!-- Node1&#45;&gt;Node4 -->
<g id="edge3_Node000001_Node000004" class="edge">
<title>Node1&#45;&gt;Node4</title>
<g id="a_edge3_Node000001_Node000004"><a xlink:title=" ">
<path fill="none" stroke="#63b8ff" d="M655.05,-287.27C569.23,-277.1 413.77,-258.66 328.65,-248.57"/>
<polygon fill="#63b8ff" stroke="#63b8ff" points="654.82,-290.77 665.16,-288.47 655.64,-283.82 654.82,-290.77"/>
</a>
</g>
</g>
<!-- Node6 -->
<g id="Node000006" class="node">
<title>Node6</title>
<g id="a_Node000006"><a xlink:href="pharmacymanager_8h.html" target="_top" xlink:title=" ">
<polygon fill="white" stroke="#666666" points="401.5,-140 284.5,-140 284.5,-121 401.5,-121 401.5,-140"/>
<text text-anchor="middle" x="343" y="-128" font-family="Helvetica,sans-Serif" font-size="10.00">pharmacymanager.h</text>
</a>
</g>
</g>
<!-- Node1&#45;&gt;Node6 -->
<g id="edge48_Node000001_Node000006" class="edge">
<title>Node1&#45;&gt;Node6</title>
<g id="a_edge48_Node000001_Node000006"><a xlink:title=" ">
<path fill="none" stroke="#63b8ff" d="M655.13,-289.72C582.98,-281.28 462.31,-258.12 381,-195 362.33,-180.5 350.87,-154.04 345.9,-140.3"/>
<polygon fill="#63b8ff" stroke="#63b8ff" points="655.09,-293.24 665.41,-290.86 655.86,-286.28 655.09,-293.24"/>
</a>
</g>
</g>
<!-- Node7 -->
<g id="Node000007" class="node">
<title>Node7</title>
<g id="a_Node000007"><a xlink:href="mainwindow_8h.html" target="_top" xlink:title=" ">
<polygon fill="white" stroke="#666666" points="1005.5,-85 918.5,-85 918.5,-66 1005.5,-66 1005.5,-85"/>
<text text-anchor="middle" x="962" y="-73" font-family="Helvetica,sans-Serif" font-size="10.00">mainwindow.h</text>
</a>
</g>
</g>
<!-- Node1&#45;&gt;Node7 -->
<g id="edge24_Node000001_Node000007" class="edge">
<title>Node1&#45;&gt;Node7</title>
<g id="a_edge24_Node000001_Node000007"><a xlink:title=" ">
<path fill="none" stroke="#63b8ff" d="M776.75,-288.49C878.47,-277.02 1076.28,-248.3 1118,-195 1133.61,-175.06 1114.35,-137.56 1097,-121 1072.28,-97.4 1034.79,-86.31 1005.59,-81.1"/>
<polygon fill="#63b8ff" stroke="#63b8ff" points="776.17,-285.03 766.61,-289.61 776.94,-291.99 776.17,-285.03"/>
</a>
</g>
</g>
<!-- Node18 -->
<g id="Node000018" class="node">
<title>Node18</title>
<g id="a_Node000018"><a xlink:href="medicalproduct_8cpp.html" target="_top" xlink:title=" ">
<polygon fill="white" stroke="#666666" points="1279.5,-250 1166.5,-250 1166.5,-231 1279.5,-231 1279.5,-250"/>
<text text-anchor="middle" x="1223" y="-238" font-family="Helvetica,sans-Serif" font-size="10.00">medicalproduct.cpp</text>
</a>
</g>
</g>
<!-- Node1&#45;&gt;Node18 -->
<g id="edge25_Node000001_Node000018" class="edge">
<title>Node1&#45;&gt;Node18</title>
<g id="a_edge25_Node000001_Node000018"><a xlink:title=" ">
<path fill="none" stroke="#63b8ff" d="M776.88,-288.62C861.19,-280.41 1018.24,-264.83 1152,-250 1156.69,-249.48 1161.55,-248.93 1166.43,-248.36"/>
<polygon fill="#63b8ff" stroke="#63b8ff" points="776.33,-285.16 766.71,-289.61 777.01,-292.13 776.33,-285.16"/>
</a>
</g>
</g>
<!-- Node19 -->
<g id="Node000019" class="node">
<title>Node19</title>
<g id="a_Node000019"><a xlink:href="medicine_8h.html" target="_top" xlink:title=" ">
<polygon fill="white" stroke="#666666" points="783.5,-250 712.5,-250 712.5,-231 783.5,-231 783.5,-250"/>
<text text-anchor="middle" x="748" y="-238" font-family="Helvetica,sans-Serif" font-size="10.00">medicine.h</text>
</a>
</g>
</g>
<!-- Node1&#45;&gt;Node19 -->
<g id="edge26_Node000001_Node000019" class="edge">
<title>Node1&#45;&gt;Node19</title>
<g id="a_edge26_Node000001_Node000019"><a xlink:title=" ">
<path fill="none" stroke="#63b8ff" d="M726.5,-277.1C731.97,-268.04 738.42,-257.37 742.81,-250.09"/>
<polygon fill="#63b8ff" stroke="#63b8ff" points="723.46,-275.38 721.28,-285.75 729.45,-279 723.46,-275.38"/>
</a>
</g>
</g>
<!-- Node23 -->
<g id="Node000023" class="node">
<title>Node23</title>
<g id="a_Node000023"><a xlink:href="pharmacy_8h.html" target="_top" xlink:title=" ">
<polygon fill="white" stroke="#666666" points="784.5,-195 711.5,-195 711.5,-176 784.5,-176 784.5,-195"/>
<text text-anchor="middle" x="748" y="-183" font-family="Helvetica,sans-Serif" font-size="10.00">pharmacy.h</text>
</a>
</g>
</g>
<!-- Node1&#45;&gt;Node23 -->
<g id="edge47_Node000001_Node000023" class="edge">
<title>Node1&#45;&gt;Node23</title>
<g id="a_edge47_Node000001_Node000023"><a xlink:title=" ">
<path fill="none" stroke="#63b8ff" d="M707.38,-276.71C702.3,-263.67 697.94,-245.74 704,-231 710.28,-215.73 724.61,-202.9 735.22,-195"/>
<polygon fill="#63b8ff" stroke="#63b8ff" points="704.22,-278.21 711.43,-285.97 710.63,-275.41 704.22,-278.21"/>
</a>
</g>
</g>
<!-- Node29 -->
<g id="Node000029" class="node">
<title>Node29</title>
<g id="a_Node000029"><a xlink:href="storage_8h.html" target="_top" xlink:title=" ">
<polygon fill="white" stroke="#666666" points="864,-250 802,-250 802,-231 864,-231 864,-250"/>
<text text-anchor="middle" x="833" y="-238" font-family="Helvetica,sans-Serif" font-size="10.00">storage.h</text>
</a>
</g>
</g>
<!-- Node1&#45;&gt;Node29 -->
<g id="edge49_Node000001_Node000029" class="edge">
<title>Node1&#45;&gt;Node29</title>
<g id="a_edge49_Node000001_Node000029"><a xlink:title=" ">
<path fill="none" stroke="#63b8ff" d="M744.11,-281.77C765.69,-271.99 794.91,-258.75 813.86,-250.17"/>
<polygon fill="#63b8ff" stroke="#63b8ff" points="742.46,-278.67 734.8,-285.98 745.35,-285.05 742.46,-278.67"/>
</a>
</g>
</g>
<!-- Node3 -->
<g id="Node000003" class="node">
<title>Node3</title>
<g id="a_Node000003"><a xlink:href="filemanager_8cpp.html" target="_top" xlink:title=" ">
<polygon fill="white" stroke="#666666" points="595.5,-85 500.5,-85 500.5,-66 595.5,-66 595.5,-85"/>
<text text-anchor="middle" x="548" y="-73" font-family="Helvetica,sans-Serif" font-size="10.00">filemanager.cpp</text>
</a>
</g>
</g>
<!-- Node2&#45;&gt;Node3 -->
<g id="edge2_Node000002_Node000003" class="edge">
<title>Node2&#45;&gt;Node3</title>
<g id="a_edge2_Node000002_Node000003"><a xlink:title=" ">
<path fill="none" stroke="#63b8ff" d="M548,-110.66C548,-101.93 548,-91.99 548,-85.09"/>
<polygon fill="#63b8ff" stroke="#63b8ff" points="544.5,-110.75 548,-120.75 551.5,-110.75 544.5,-110.75"/>
</a>
</g>
</g>
<!-- Node4&#45;&gt;Node2 -->
<g id="edge4_Node000004_Node000002" class="edge">
<title>Node4&#45;&gt;Node2</title>
<g id="a_edge4_Node000004_Node000002"><a xlink:title=" ">
<path fill="none" stroke="#63b8ff" d="M338.57,-236.15C383.58,-231.46 442.12,-220.49 488,-195 512.66,-181.3 533.16,-153.99 542.53,-140.07"/>
<polygon fill="#63b8ff" stroke="#63b8ff" points="338.22,-232.67 328.6,-237.11 338.89,-239.63 338.22,-232.67"/>
</a>
</g>
</g>
<!-- Node5 -->
<g id="Node000005" class="node">
<title>Node5</title>
<g id="a_Node000005"><a xlink:href="inventoryoperation_8cpp.html" target="_top" xlink:title=" ">
<polygon fill="white" stroke="#666666" points="217,-195 87,-195 87,-176 217,-176 217,-195"/>
<text text-anchor="middle" x="152" y="-183" font-family="Helvetica,sans-Serif" font-size="10.00">inventoryoperation.cpp</text>
</a>
</g>
</g>
<!-- Node4&#45;&gt;Node5 -->
<g id="edge5_Node000004_Node000005" class="edge">
<title>Node4&#45;&gt;Node5</title>
<g id="a_edge5_Node000004_Node000005"><a xlink:title=" ">
<path fill="none" stroke="#63b8ff" d="M240.89,-226.77C219.31,-216.99 190.09,-203.75 171.14,-195.17"/>
<polygon fill="#63b8ff" stroke="#63b8ff" points="239.65,-230.05 250.2,-230.98 242.54,-223.67 239.65,-230.05"/>
</a>
</g>
</g>
<!-- Node4&#45;&gt;Node6 -->
<g id="edge6_Node000004_Node000006" class="edge">
<title>Node4&#45;&gt;Node6</title>
<g id="a_edge6_Node000004_Node000006"><a xlink:title=" ">
<path fill="none" stroke="#63b8ff" d="M280.73,-222.38C296.75,-199.01 324.86,-157.97 337.07,-140.16"/>
<polygon fill="#63b8ff" stroke="#63b8ff" points="277.82,-220.43 275.06,-230.66 283.6,-224.39 277.82,-220.43"/>
</a>
</g>
</g>
<!-- Node12 -->
<g id="Node000012" class="node">
<title>Node12</title>
<g id="a_Node000012"><a xlink:href="return_8h.html" target="_top" xlink:title=" ">
<polygon fill="white" stroke="#666666" points="290.5,-195 235.5,-195 235.5,-176 290.5,-176 290.5,-195"/>
<text text-anchor="middle" x="263" y="-183" font-family="Helvetica,sans-Serif" font-size="10.00">return.h</text>
</a>
</g>
</g>
<!-- Node4&#45;&gt;Node12 -->
<g id="edge12_Node000004_Node000012" class="edge">
<title>Node4&#45;&gt;Node12</title>
<g id="a_edge12_Node000004_Node000012"><a xlink:title=" ">
<path fill="none" stroke="#63b8ff" d="M266.87,-220.66C265.88,-211.93 264.75,-201.99 263.97,-195.09"/>
<polygon fill="#63b8ff" stroke="#63b8ff" points="263.41,-221.21 268.01,-230.75 270.36,-220.42 263.41,-221.21"/>
</a>
</g>
</g>
<!-- Node14 -->
<g id="Node000014" class="node">
<title>Node14</title>
<g id="a_Node000014"><a xlink:href="supply_8h.html" target="_top" xlink:title=" ">
<polygon fill="white" stroke="#666666" points="479,-195 423,-195 423,-176 479,-176 479,-195"/>
<text text-anchor="middle" x="451" y="-183" font-family="Helvetica,sans-Serif" font-size="10.00">supply.h</text>
</a>
</g>
</g>
<!-- Node4&#45;&gt;Node14 -->
<g id="edge16_Node000004_Node000014" class="edge">
<title>Node4&#45;&gt;Node14</title>
<g id="a_edge16_Node000004_Node000014"><a xlink:title=" ">
<path fill="none" stroke="#63b8ff" d="M307.98,-228.15C342.46,-218.11 391.93,-203.7 422.73,-194.73"/>
<polygon fill="#63b8ff" stroke="#63b8ff" points="306.86,-224.83 298.24,-230.98 308.82,-231.55 306.86,-224.83"/>
</a>
</g>
</g>
<!-- Node16 -->
<g id="Node000016" class="node">
<title>Node16</title>
<g id="a_Node000016"><a xlink:href="writeoff_8h.html" target="_top" xlink:title=" ">
<polygon fill="white" stroke="#666666" points="68.5,-195 5.5,-195 5.5,-176 68.5,-176 68.5,-195"/>
<text text-anchor="middle" x="37" y="-183" font-family="Helvetica,sans-Serif" font-size="10.00">writeoff.h</text>
</a>
</g>
</g>
<!-- Node4&#45;&gt;Node16 -->
<g id="edge20_Node000004_Node000016" class="edge">
<title>Node4&#45;&gt;Node16</title>
<g id="a_edge20_Node000004_Node000016"><a xlink:title=" ">
<path fill="none" stroke="#63b8ff" d="M221.76,-228.71C176.07,-218.27 108.09,-202.74 68.59,-193.72"/>
<polygon fill="#63b8ff" stroke="#63b8ff" points="221.2,-232.17 231.73,-230.98 222.76,-225.35 221.2,-232.17"/>
</a>
</g>
</g>
<!-- Node6&#45;&gt;Node7 -->
<g id="edge7_Node000006_Node000007" class="edge">
<title>Node6&#45;&gt;Node7</title>
<g id="a_edge7_Node000006_Node000007"><a xlink:title=" ">
<path fill="none" stroke="#63b8ff" d="M411.76,-120.97C607.22,-101.07 826.71,-85.55 918.37,-79.37"/>
<polygon fill="#63b8ff" stroke="#63b8ff" points="411.18,-117.51 401.59,-122.01 411.89,-124.47 411.18,-117.51"/>
</a>
</g>
</g>
<!-- Node11 -->
<g id="Node000011" class="node">
<title>Node11</title>
<g id="a_Node000011"><a xlink:href="pharmacymanager_8cpp.html" target="_top" xlink:title=" ">
<polygon fill="white" stroke="#666666" points="445,-85 317,-85 317,-66 445,-66 445,-85"/>
<text text-anchor="middle" x="381" y="-73" font-family="Helvetica,sans-Serif" font-size="10.00">pharmacymanager.cpp</text>
</a>
</g>
</g>
<!-- Node6&#45;&gt;Node11 -->
<g id="edge11_Node000006_Node000011" class="edge">
<title>Node6&#45;&gt;Node11</title>
<g id="a_edge11_Node000006_Node000011"><a xlink:title=" ">
<path fill="none" stroke="#63b8ff" d="M355.27,-112.39C361.81,-103.27 369.57,-92.45 374.84,-85.09"/>
<polygon fill="#63b8ff" stroke="#63b8ff" points="352.26,-110.58 349.27,-120.75 357.95,-114.66 352.26,-110.58"/>
</a>
</g>
</g>
<!-- Node8 -->
<g id="Node000008" class="node">
<title>Node8</title>
<g id="a_Node000008"><a xlink:href="moc__mainwindow_8cpp.html" target="_top" xlink:title=" ">
<polygon fill="white" stroke="#666666" points="913,-30 785,-30 785,0 913,0 913,-30"/>
<text text-anchor="start" x="793" y="-18" font-family="Helvetica,sans-Serif" font-size="10.00">build/Desktop&#45;Debug</text>
<text text-anchor="middle" x="849" y="-7" font-family="Helvetica,sans-Serif" font-size="10.00">/moc_mainwindow.cpp</text>
</a>
</g>
</g>
<!-- Node7&#45;&gt;Node8 -->
<g id="edge8_Node000007_Node000008" class="edge">
<title>Node7&#45;&gt;Node8</title>
<g id="a_edge8_Node000007_Node000008"><a xlink:title=" ">
<path fill="none" stroke="#63b8ff" d="M936.06,-61.07C918.17,-51.81 894.43,-39.52 876.26,-30.11"/>
<polygon fill="#63b8ff" stroke="#63b8ff" points="934.84,-64.38 945.33,-65.87 938.06,-58.16 934.84,-64.38"/>
</a>
</g>
</g>
<!-- Node9 -->
<g id="Node000009" class="node">
<title>Node9</title>
<g id="a_Node000009"><a xlink:href="main_8cpp.html" target="_top" xlink:title=" ">
<polygon fill="white" stroke="#666666" points="993,-24.5 931,-24.5 931,-5.5 993,-5.5 993,-24.5"/>
<text text-anchor="middle" x="962" y="-12.5" font-family="Helvetica,sans-Serif" font-size="10.00">main.cpp</text>
</a>
</g>
</g>
<!-- Node7&#45;&gt;Node9 -->
<g id="edge9_Node000007_Node000009" class="edge">
<title>Node7&#45;&gt;Node9</title>
<g id="a_edge9_Node000007_Node000009"><a xlink:title=" ">
<path fill="none" stroke="#63b8ff" d="M962,-55.66C962,-45.24 962,-32.8 962,-24.67"/>
<polygon fill="#63b8ff" stroke="#63b8ff" points="958.5,-55.87 962,-65.87 965.5,-55.87 958.5,-55.87"/>
</a>
</g>
</g>
<!-- Node10 -->
<g id="Node000010" class="node">
<title>Node10</title>
<g id="a_Node000010"><a xlink:href="mainwindow_8cpp.html" target="_top" xlink:title=" ">
<polygon fill="white" stroke="#666666" points="1109,-24.5 1011,-24.5 1011,-5.5 1109,-5.5 1109,-24.5"/>
<text text-anchor="middle" x="1060" y="-12.5" font-family="Helvetica,sans-Serif" font-size="10.00">mainwindow.cpp</text>
</a>
</g>
</g>
<!-- Node7&#45;&gt;Node10 -->
<g id="edge10_Node000007_Node000010" class="edge">
<title>Node7&#45;&gt;Node10</title>
<g id="a_edge10_Node000007_Node000010"><a xlink:title=" ">
<path fill="none" stroke="#63b8ff" d="M985.25,-60.62C1003.94,-49.46 1029.61,-34.14 1045.48,-24.67"/>
<polygon fill="#63b8ff" stroke="#63b8ff" points="983.25,-57.74 976.46,-65.87 986.84,-63.75 983.25,-57.74"/>
</a>
</g>
</g>
<!-- Node12&#45;&gt;Node2 -->
<g id="edge13_Node000012_Node000002" class="edge">
<title>Node12&#45;&gt;Node2</title>
<g id="a_edge13_Node000012_Node000002"><a xlink:title=" ">
<path fill="none" stroke="#63b8ff" d="M300.62,-177.5C353.85,-167.61 450.81,-149.57 506.21,-139.27"/>
<polygon fill="#63b8ff" stroke="#63b8ff" points="299.78,-174.1 290.59,-179.37 301.06,-180.98 299.78,-174.1"/>
</a>
</g>
</g>
<!-- Node12&#45;&gt;Node6 -->
<g id="edge14_Node000012_Node000006" class="edge">
<title>Node12&#45;&gt;Node6</title>
<g id="a_edge14_Node000012_Node000006"><a xlink:title=" ">
<path fill="none" stroke="#63b8ff" d="M284.25,-170.42C298.76,-160.81 317.54,-148.37 329.91,-140.17"/>
<polygon fill="#63b8ff" stroke="#63b8ff" points="282.26,-167.54 275.85,-175.98 286.12,-173.38 282.26,-167.54"/>
</a>
</g>
</g>
<!-- Node13 -->
<g id="Node000013" class="node">
<title>Node13</title>
<g id="a_Node000013"><a xlink:href="return_8cpp.html" target="_top" xlink:title=" ">
<polygon fill="white" stroke="#666666" points="266,-140 200,-140 200,-121 266,-121 266,-140"/>
<text text-anchor="middle" x="233" y="-128" font-family="Helvetica,sans-Serif" font-size="10.00">return.cpp</text>
</a>
</g>
</g>
<!-- Node12&#45;&gt;Node13 -->
<g id="edge15_Node000012_Node000013" class="edge">
<title>Node12&#45;&gt;Node13</title>
<g id="a_edge15_Node000012_Node000013"><a xlink:title=" ">
<path fill="none" stroke="#63b8ff" d="M252.99,-166.82C247.9,-157.82 241.94,-147.29 237.86,-140.09"/>
<polygon fill="#63b8ff" stroke="#63b8ff" points="250.07,-168.77 258.05,-175.75 256.17,-165.32 250.07,-168.77"/>
</a>
</g>
</g>
<!-- Node14&#45;&gt;Node2 -->
<g id="edge17_Node000014_Node000002" class="edge">
<title>Node14&#45;&gt;Node2</title>
<g id="a_edge17_Node000014_Node000002"><a xlink:title=" ">
<path fill="none" stroke="#63b8ff" d="M475.77,-170.97C493.5,-161.28 516.85,-148.52 532.13,-140.17"/>
<polygon fill="#63b8ff" stroke="#63b8ff" points="473.68,-168.12 466.58,-175.98 477.04,-174.26 473.68,-168.12"/>
</a>
</g>
</g>
<!-- Node14&#45;&gt;Node6 -->
<g id="edge18_Node000014_Node000006" class="edge">
<title>Node14&#45;&gt;Node6</title>
<g id="a_edge18_Node000014_Node000006"><a xlink:title=" ">
<path fill="none" stroke="#63b8ff" d="M424.51,-171.5C404.64,-161.75 378,-148.68 360.67,-140.17"/>
<polygon fill="#63b8ff" stroke="#63b8ff" points="423.13,-174.72 433.65,-175.98 426.21,-168.44 423.13,-174.72"/>
</a>
</g>
</g>
<!-- Node15 -->
<g id="Node000015" class="node">
<title>Node15</title>
<g id="a_Node000015"><a xlink:href="supply_8cpp.html" target="_top" xlink:title=" ">
<polygon fill="white" stroke="#666666" points="488,-140 420,-140 420,-121 488,-121 488,-140"/>
<text text-anchor="middle" x="454" y="-128" font-family="Helvetica,sans-Serif" font-size="10.00">supply.cpp</text>
</a>
</g>
</g>
<!-- Node14&#45;&gt;Node15 -->
<g id="edge19_Node000014_Node000015" class="edge">
<title>Node14&#45;&gt;Node15</title>
<g id="a_edge19_Node000014_Node000015"><a xlink:title=" ">
<path fill="none" stroke="#63b8ff" d="M452.07,-165.66C452.56,-156.93 453.12,-146.99 453.51,-140.09"/>
<polygon fill="#63b8ff" stroke="#63b8ff" points="448.57,-165.57 451.5,-175.75 455.56,-165.96 448.57,-165.57"/>
</a>
</g>
</g>
<!-- Node16&#45;&gt;Node2 -->
<g id="edge21_Node000016_Node000002" class="edge">
<title>Node16&#45;&gt;Node2</title>
<g id="a_edge21_Node000016_Node000002"><a xlink:title=" ">
<path fill="none" stroke="#63b8ff" d="M78.83,-176.07C264.7,-149.48 314.82,-162.97 497,-140 500.03,-139.62 503.15,-139.19 506.29,-138.73"/>
<polygon fill="#63b8ff" stroke="#63b8ff" points="78.11,-172.64 68.72,-177.54 79.12,-179.56 78.11,-172.64"/>
</a>
</g>
</g>
<!-- Node16&#45;&gt;Node6 -->
<g id="edge22_Node000016_Node000006" class="edge">
<title>Node16&#45;&gt;Node6</title>
<g id="a_edge22_Node000016_Node000006"><a xlink:title=" ">
<path fill="none" stroke="#63b8ff" d="M78.85,-175.9C157.54,-161.25 237.14,-148.21 288.59,-140.02"/>
<polygon fill="#63b8ff" stroke="#63b8ff" points="77.95,-172.51 68.76,-177.79 79.23,-179.39 77.95,-172.51"/>
</a>
</g>
</g>
<!-- Node17 -->
<g id="Node000017" class="node">
<title>Node17</title>
<g id="a_Node000017"><a xlink:href="writeoff_8cpp.html" target="_top" xlink:title=" ">
<polygon fill="white" stroke="#666666" points="74,-140 0,-140 0,-121 74,-121 74,-140"/>
<text text-anchor="middle" x="37" y="-128" font-family="Helvetica,sans-Serif" font-size="10.00">writeoff.cpp</text>
</a>
</g>
</g>
<!-- Node16&#45;&gt;Node17 -->
<g id="edge23_Node000016_Node000017" class="edge">
<title>Node16&#45;&gt;Node17</title>
<g id="a_edge23_Node000016_Node000017"><a xlink:title=" ">
<path fill="none" stroke="#63b8ff" d="M37,-165.66C37,-156.93 37,-146.99 37,-140.09"/>
<polygon fill="#63b8ff" stroke="#63b8ff" points="33.5,-165.75 37,-175.75 40.5,-165.75 33.5,-165.75"/>
</a>
</g>
</g>
<!-- Node19&#45;&gt;Node2 -->
<g id="edge27_Node000019_Node000002" class="edge">
<title>Node19&#45;&gt;Node2</title>
<g id="a_edge27_Node000019_Node000002"><a xlink:title=" ">
<path fill="none" stroke="#63b8ff" d="M702.37,-232.51C672.03,-226.27 632.35,-214.93 602,-195 579.74,-180.39 561.58,-153.98 553.13,-140.28"/>
<polygon fill="#63b8ff" stroke="#63b8ff" points="701.78,-235.96 712.27,-234.44 703.12,-229.09 701.78,-235.96"/>
</a>
</g>
</g>
<!-- Node19&#45;&gt;Node6 -->
<g id="edge37_Node000019_Node000006" class="edge">
<title>Node19&#45;&gt;Node6</title>
<g id="a_edge37_Node000019_Node000006"><a xlink:title=" ">
<path fill="none" stroke="#63b8ff" d="M702.28,-236.74C623.16,-231.41 464.35,-218.16 414,-195 386.05,-182.15 361.24,-154.45 349.75,-140.26"/>
<polygon fill="#63b8ff" stroke="#63b8ff" points="702.23,-240.24 712.44,-237.41 702.69,-233.26 702.23,-240.24"/>
</a>
</g>
</g>
<!-- Node20 -->
<g id="Node000020" class="node">
<title>Node20</title>
<g id="a_Node000020"><a xlink:href="medicine_8cpp.html" target="_top" xlink:title=" ">
<polygon fill="white" stroke="#666666" points="693,-195 611,-195 611,-176 693,-176 693,-195"/>
<text text-anchor="middle" x="652" y="-183" font-family="Helvetica,sans-Serif" font-size="10.00">medicine.cpp</text>
</a>
</g>
</g>
<!-- Node19&#45;&gt;Node20 -->
<g id="edge28_Node000019_Node000020" class="edge">
<title>Node19&#45;&gt;Node20</title>
<g id="a_edge28_Node000019_Node000020"><a xlink:title=" ">
<path fill="none" stroke="#63b8ff" d="M723.48,-225.97C705.94,-216.28 682.83,-203.52 667.7,-195.17"/>
<polygon fill="#63b8ff" stroke="#63b8ff" points="722.13,-229.22 732.58,-230.98 725.51,-223.09 722.13,-229.22"/>
</a>
</g>
</g>
<!-- Node21 -->
<g id="Node000021" class="node">
<title>Node21</title>
<g id="a_Node000021"><a xlink:href="ointment_8h.html" target="_top" xlink:title=" ">
<polygon fill="white" stroke="#666666" points="1017,-195 947,-195 947,-176 1017,-176 1017,-195"/>
<text text-anchor="middle" x="982" y="-183" font-family="Helvetica,sans-Serif" font-size="10.00">ointment.h</text>
</a>
</g>
</g>
<!-- Node19&#45;&gt;Node21 -->
<g id="edge29_Node000019_Node000021" class="edge">
<title>Node19&#45;&gt;Node21</title>
<g id="a_edge29_Node000019_Node000021"><a xlink:title=" ">
<path fill="none" stroke="#63b8ff" d="M793.31,-229.24C838.18,-219.07 905.95,-203.72 946.89,-194.45"/>
<polygon fill="#63b8ff" stroke="#63b8ff" points="792.52,-225.83 783.54,-231.45 794.07,-232.65 792.52,-225.83"/>
</a>
</g>
</g>
<!-- Node19&#45;&gt;Node23 -->
<g id="edge33_Node000019_Node000023" class="edge">
<title>Node19&#45;&gt;Node23</title>
<g id="a_edge33_Node000019_Node000023"><a xlink:title=" ">
<path fill="none" stroke="#63b8ff" d="M748,-220.66C748,-211.93 748,-201.99 748,-195.09"/>
<polygon fill="#63b8ff" stroke="#63b8ff" points="744.5,-220.75 748,-230.75 751.5,-220.75 744.5,-220.75"/>
</a>
</g>
</g>
<!-- Node25 -->
<g id="Node000025" class="node">
<title>Node25</title>
<g id="a_Node000025"><a xlink:href="syrup_8h.html" target="_top" xlink:title=" ">
<polygon fill="white" stroke="#666666" points="928.5,-195 875.5,-195 875.5,-176 928.5,-176 928.5,-195"/>
<text text-anchor="middle" x="902" y="-183" font-family="Helvetica,sans-Serif" font-size="10.00">syrup.h</text>
</a>
</g>
</g>
<!-- Node19&#45;&gt;Node25 -->
<g id="edge38_Node000019_Node000025" class="edge">
<title>Node19&#45;&gt;Node25</title>
<g id="a_edge38_Node000019_Node000025"><a xlink:title=" ">
<path fill="none" stroke="#63b8ff" d="M782.38,-227.67C811.09,-217.79 851.36,-203.93 877.06,-195.08"/>
<polygon fill="#63b8ff" stroke="#63b8ff" points="781.06,-224.42 772.74,-230.98 783.34,-231.04 781.06,-224.42"/>
</a>
</g>
</g>
<!-- Node27 -->
<g id="Node000027" class="node">
<title>Node27</title>
<g id="a_Node000027"><a xlink:href="tablet_8h.html" target="_top" xlink:title=" ">
<polygon fill="white" stroke="#666666" points="857,-195 803,-195 803,-176 857,-176 857,-195"/>
<text text-anchor="middle" x="830" y="-183" font-family="Helvetica,sans-Serif" font-size="10.00">tablet.h</text>
</a>
</g>
</g>
<!-- Node19&#45;&gt;Node27 -->
<g id="edge42_Node000019_Node000027" class="edge">
<title>Node19&#45;&gt;Node27</title>
<g id="a_edge42_Node000019_Node000027"><a xlink:title=" ">
<path fill="none" stroke="#63b8ff" d="M769.78,-225.42C784.66,-215.81 803.91,-203.37 816.59,-195.17"/>
<polygon fill="#63b8ff" stroke="#63b8ff" points="767.67,-222.62 761.17,-230.98 771.47,-228.5 767.67,-222.62"/>
</a>
</g>
</g>
<!-- Node21&#45;&gt;Node2 -->
<g id="edge30_Node000021_Node000002" class="edge">
<title>Node21&#45;&gt;Node2</title>
<g id="a_edge30_Node000021_Node000002"><a xlink:title=" ">
<path fill="none" stroke="#63b8ff" d="M936.91,-175.96C786.42,-153.89 745.9,-160.02 599,-140 595.98,-139.59 592.86,-139.14 589.72,-138.66"/>
<polygon fill="#63b8ff" stroke="#63b8ff" points="936.58,-179.45 946.98,-177.46 937.6,-172.53 936.58,-179.45"/>
</a>
</g>
</g>
<!-- Node21&#45;&gt;Node7 -->
<g id="edge31_Node000021_Node000007" class="edge">
<title>Node21&#45;&gt;Node7</title>
<g id="a_edge31_Node000021_Node000007"><a xlink:title=" ">
<path fill="none" stroke="#63b8ff" d="M1027.11,-174.02C1060.93,-163.89 1098.58,-146.35 1081,-121 1064.09,-96.62 1032.1,-85.58 1005.55,-80.58"/>
<polygon fill="#63b8ff" stroke="#63b8ff" points="1025.94,-170.71 1017.27,-176.8 1027.84,-177.45 1025.94,-170.71"/>
</a>
</g>
</g>
<!-- Node22 -->
<g id="Node000022" class="node">
<title>Node22</title>
<g id="a_Node000022"><a xlink:href="ointment_8cpp.html" target="_top" xlink:title=" ">
<polygon fill="white" stroke="#666666" points="1071.5,-140 990.5,-140 990.5,-121 1071.5,-121 1071.5,-140"/>
<text text-anchor="middle" x="1031" y="-128" font-family="Helvetica,sans-Serif" font-size="10.00">ointment.cpp</text>
</a>
</g>
</g>
<!-- Node21&#45;&gt;Node22 -->
<g id="edge32_Node000021_Node000022" class="edge">
<title>Node21&#45;&gt;Node22</title>
<g id="a_edge32_Node000021_Node000022"><a xlink:title=" ">
<path fill="none" stroke="#63b8ff" d="M997.03,-168.24C1005.62,-158.95 1016.04,-147.68 1023.06,-140.09"/>
<polygon fill="#63b8ff" stroke="#63b8ff" points="994.31,-166.03 990.09,-175.75 999.45,-170.78 994.31,-166.03"/>
</a>
</g>
</g>
<!-- Node23&#45;&gt;Node2 -->
<g id="edge34_Node000023_Node000002" class="edge">
<title>Node23&#45;&gt;Node2</title>
<g id="a_edge34_Node000023_Node000002"><a xlink:title=" ">
<path fill="none" stroke="#63b8ff" d="M705.78,-173.31C668.35,-163.39 614.5,-149.12 580.39,-140.08"/>
<polygon fill="#63b8ff" stroke="#63b8ff" points="705.3,-176.81 715.87,-175.98 707.1,-170.04 705.3,-176.81"/>
</a>
</g>
</g>
<!-- Node23&#45;&gt;Node6 -->
<g id="edge36_Node000023_Node000006" class="edge">
<title>Node23&#45;&gt;Node6</title>
<g id="a_edge36_Node000023_Node000006"><a xlink:title=" ">
<path fill="none" stroke="#63b8ff" d="M701.44,-176C571.54,-156.14 537.17,-155.69 411,-140 407.93,-139.62 404.78,-139.23 401.6,-138.83"/>
<polygon fill="#63b8ff" stroke="#63b8ff" points="700.96,-179.47 711.38,-177.53 702.02,-172.55 700.96,-179.47"/>
</a>
</g>
</g>
<!-- Node24 -->
<g id="Node000024" class="node">
<title>Node24</title>
<g id="a_Node000024"><a xlink:href="pharmacy_8cpp.html" target="_top" xlink:title=" ">
<polygon fill="white" stroke="#666666" points="692,-140 608,-140 608,-121 692,-121 692,-140"/>
<text text-anchor="middle" x="650" y="-128" font-family="Helvetica,sans-Serif" font-size="10.00">pharmacy.cpp</text>
</a>
</g>
</g>
<!-- Node23&#45;&gt;Node24 -->
<g id="edge35_Node000023_Node000024" class="edge">
<title>Node23&#45;&gt;Node24</title>
<g id="a_edge35_Node000023_Node000024"><a xlink:title=" ">
<path fill="none" stroke="#63b8ff" d="M722.97,-170.97C705.06,-161.28 681.47,-148.52 666.03,-140.17"/>
<polygon fill="#63b8ff" stroke="#63b8ff" points="721.79,-174.31 732.25,-175.98 725.12,-168.15 721.79,-174.31"/>
</a>
</g>
</g>
<!-- Node25&#45;&gt;Node2 -->
<g id="edge39_Node000025_Node000002" class="edge">
<title>Node25&#45;&gt;Node2</title>
<g id="a_edge39_Node000025_Node000002"><a xlink:title=" ">
<path fill="none" stroke="#63b8ff" d="M865.47,-176.08C746.57,-154.39 714.28,-157.37 599,-140 595.98,-139.55 592.87,-139.06 589.73,-138.56"/>
<polygon fill="#63b8ff" stroke="#63b8ff" points="864.86,-179.52 875.33,-177.9 866.13,-172.64 864.86,-179.52"/>
</a>
</g>
</g>
<!-- Node25&#45;&gt;Node7 -->
<g id="edge40_Node000025_Node000007" class="edge">
<title>Node25&#45;&gt;Node7</title>
<g id="a_edge40_Node000025_Node000007"><a xlink:title=" ">
<path fill="none" stroke="#63b8ff" d="M919.51,-169.08C927.64,-161.11 936.86,-150.79 943,-140 953.25,-122 958.48,-97.92 960.68,-85.21"/>
<polygon fill="#63b8ff" stroke="#63b8ff" points="917.08,-166.56 912.17,-175.95 921.86,-171.67 917.08,-166.56"/>
</a>
</g>
</g>
<!-- Node26 -->
<g id="Node000026" class="node">
<title>Node26</title>
<g id="a_Node000026"><a xlink:href="syrup_8cpp.html" target="_top" xlink:title=" ">
<polygon fill="white" stroke="#666666" points="934,-140 870,-140 870,-121 934,-121 934,-140"/>
<text text-anchor="middle" x="902" y="-128" font-family="Helvetica,sans-Serif" font-size="10.00">syrup.cpp</text>
</a>
</g>
</g>
<!-- Node25&#45;&gt;Node26 -->
<g id="edge41_Node000025_Node000026" class="edge">
<title>Node25&#45;&gt;Node26</title>
<g id="a_edge41_Node000025_Node000026"><a xlink:title=" ">
<path fill="none" stroke="#63b8ff" d="M902,-165.66C902,-156.93 902,-146.99 902,-140.09"/>
<polygon fill="#63b8ff" stroke="#63b8ff" points="898.5,-165.75 902,-175.75 905.5,-165.75 898.5,-165.75"/>
</a>
</g>
</g>
<!-- Node27&#45;&gt;Node2 -->
<g id="edge43_Node000027_Node000002" class="edge">
<title>Node27&#45;&gt;Node2</title>
<g id="a_edge43_Node000027_Node000002"><a xlink:title=" ">
<path fill="none" stroke="#63b8ff" d="M793.06,-175.91C742.11,-165.62 645.25,-148.49 589.56,-138.74"/>
<polygon fill="#63b8ff" stroke="#63b8ff" points="792.41,-179.35 802.91,-177.94 793.82,-172.5 792.41,-179.35"/>
</a>
</g>
</g>
<!-- Node27&#45;&gt;Node7 -->
<g id="edge44_Node000027_Node000007" class="edge">
<title>Node27&#45;&gt;Node7</title>
<g id="a_edge44_Node000027_Node000007"><a xlink:title=" ">
<path fill="none" stroke="#63b8ff" d="M805.49,-170.59C786.1,-157.81 764.4,-138.28 778,-121 795.12,-99.24 869.42,-86.85 918.21,-80.92"/>
<polygon fill="#63b8ff" stroke="#63b8ff" points="803.75,-173.64 814.09,-175.96 807.46,-167.7 803.75,-173.64"/>
</a>
</g>
</g>
<!-- Node27&#45;&gt;Node11 -->
<g id="edge45_Node000027_Node000011" class="edge">
<title>Node27&#45;&gt;Node11</title>
<g id="a_edge45_Node000027_Node000011"><a xlink:title=" ">
<path fill="none" stroke="#63b8ff" d="M807.58,-170.7C782.55,-155.95 740.36,-133.08 701,-121 654.55,-106.74 524.41,-91.4 445.13,-82.97"/>
<polygon fill="#63b8ff" stroke="#63b8ff" points="805.92,-173.78 816.3,-175.91 809.51,-167.77 805.92,-173.78"/>
</a>
</g>
</g>
<!-- Node28 -->
<g id="Node000028" class="node">
<title>Node28</title>
<g id="a_Node000028"><a xlink:href="tablet_8cpp.html" target="_top" xlink:title=" ">
<polygon fill="white" stroke="#666666" points="851.5,-140 786.5,-140 786.5,-121 851.5,-121 851.5,-140"/>
<text text-anchor="middle" x="819" y="-128" font-family="Helvetica,sans-Serif" font-size="10.00">tablet.cpp</text>
</a>
</g>
</g>
<!-- Node27&#45;&gt;Node28 -->
<g id="edge46_Node000027_Node000028" class="edge">
<title>Node27&#45;&gt;Node28</title>
<g id="a_edge46_Node000027_Node000028"><a xlink:title=" ">
<path fill="none" stroke="#63b8ff" d="M826.15,-165.95C824.32,-157.15 822.23,-147.06 820.78,-140.09"/>
<polygon fill="#63b8ff" stroke="#63b8ff" points="822.72,-166.67 828.18,-175.75 829.58,-165.25 822.72,-166.67"/>
</a>
</g>
</g>
<!-- Node29&#45;&gt;Node23 -->
<g id="edge50_Node000029_Node000023" class="edge">
<title>Node29&#45;&gt;Node23</title>
<g id="a_edge50_Node000029_Node000023"><a xlink:title=" ">
<path fill="none" stroke="#63b8ff" d="M810.43,-225.42C795,-215.81 775.05,-203.37 761.91,-195.17"/>
<polygon fill="#63b8ff" stroke="#63b8ff" points="809.01,-228.66 819.34,-230.98 812.71,-222.72 809.01,-228.66"/>
</a>
</g>
</g>
<!-- Node30 -->
<g id="Node000030" class="node">
<title>Node30</title>
<g id="a_Node000030"><a xlink:href="storage_8cpp.html" target="_top" xlink:title=" ">
<polygon fill="white" stroke="#666666" points="1109,-195 1035,-195 1035,-176 1109,-176 1109,-195"/>
<text text-anchor="middle" x="1072" y="-183" font-family="Helvetica,sans-Serif" font-size="10.00">storage.cpp</text>
</a>
</g>
</g>
<!-- Node29&#45;&gt;Node30 -->
<g id="edge51_Node000029_Node000030" class="edge">
<title>Node29&#45;&gt;Node30</title>
<g id="a_edge51_Node000029_Node000030"><a xlink:title=" ">
<path fill="none" stroke="#63b8ff" d="M874.02,-230.4C919.21,-220.38 991.27,-204.4 1034.86,-194.74"/>
<polygon fill="#63b8ff" stroke="#63b8ff" points="873.25,-226.99 864.25,-232.57 874.77,-233.82 873.25,-226.99"/>
</a>
</g>
</g>
</g>
</svg>
