<?xml version="1.0" encoding="UTF-8" standalone="no"?>
<!DOCTYPE svg PUBLIC "-//W3C//DTD SVG 1.1//EN"
 "http://www.w3.org/Graphics/SVG/1.1/DTD/svg11.dtd">
<!-- Generated by graphviz version 2.43.0 (0)
 -->
<!-- Title: Exception/PharmacyExceptions/MedicalProductException.h Pages: 1 -->
<svg width="1494pt" height="291pt"
 viewBox="0.00 0.00 1493.50 291.00" xmlns="http://www.w3.org/2000/svg" xmlns:xlink="http://www.w3.org/1999/xlink">
<g id="graph0" class="graph" transform="scale(1 1) rotate(0) translate(4 287)">
<title>Exception/PharmacyExceptions/MedicalProductException.h</title>
<!-- Node1 -->
<g id="Node000001" class="node">
<title>Node1</title>
<g id="a_Node000001"><a xlink:title=" ">
<polygon fill="#999999" stroke="#666666" points="684,-283 514,-283 514,-253 684,-253 684,-283"/>
<text text-anchor="start" x="522" y="-271" font-family="Helvetica,sans-Serif" font-size="10.00">Exception/PharmacyExceptions</text>
<text text-anchor="middle" x="599" y="-260" font-family="Helvetica,sans-Serif" font-size="10.00">/MedicalProductException.h</text>
</a>
</g>
</g>
<!-- Node2 -->
<g id="Node000002" class="node">
<title>Node2</title>
<g id="a_Node000002"><a xlink:href="DuplicateProductException_8h.html" target="_top" xlink:title=" ">
<polygon fill="white" stroke="#666666" points="590,-217 420,-217 420,-187 590,-187 590,-217"/>
<text text-anchor="start" x="428" y="-205" font-family="Helvetica,sans-Serif" font-size="10.00">Exception/PharmacyExceptions</text>
<text text-anchor="middle" x="505" y="-194" font-family="Helvetica,sans-Serif" font-size="10.00">/DuplicateProductException.h</text>
</a>
</g>
</g>
<!-- Node1&#45;&gt;Node2 -->
<g id="edge1_Node000001_Node000002" class="edge">
<title>Node1&#45;&gt;Node2</title>
<g id="a_edge1_Node000001_Node000002"><a xlink:title=" ">
<path fill="none" stroke="#63b8ff" d="M569.67,-247.03C555.44,-237.34 538.69,-225.94 525.8,-217.16"/>
<polygon fill="#63b8ff" stroke="#63b8ff" points="567.9,-250.06 578.14,-252.8 571.84,-244.28 567.9,-250.06"/>
</a>
</g>
</g>
<!-- Node10 -->
<g id="Node000010" class="node">
<title>Node10</title>
<g id="a_Node000010"><a xlink:href="ExpiredProductException_8h.html" target="_top" xlink:title=" ">
<polygon fill="white" stroke="#666666" points="1471,-151 1301,-151 1301,-121 1471,-121 1471,-151"/>
<text text-anchor="start" x="1309" y="-139" font-family="Helvetica,sans-Serif" font-size="10.00">Exception/PharmacyExceptions</text>
<text text-anchor="middle" x="1386" y="-128" font-family="Helvetica,sans-Serif" font-size="10.00">/ExpiredProductException.h</text>
</a>
</g>
</g>
<!-- Node1&#45;&gt;Node10 -->
<g id="edge9_Node000001_Node000010" class="edge">
<title>Node1&#45;&gt;Node10</title>
<g id="a_edge9_Node000001_Node000010"><a xlink:title=" ">
<path fill="none" stroke="#63b8ff" d="M693.95,-251.32C848.74,-225.75 1153.04,-175.48 1301.09,-151.03"/>
<polygon fill="#63b8ff" stroke="#63b8ff" points="693.27,-247.88 683.97,-252.96 694.41,-254.79 693.27,-247.88"/>
</a>
</g>
</g>
<!-- Node12 -->
<g id="Node000012" class="node">
<title>Node12</title>
<g id="a_Node000012"><a xlink:href="InvalidProductDataException_8h.html" target="_top" xlink:title=" ">
<polygon fill="white" stroke="#666666" points="778,-217 608,-217 608,-187 778,-187 778,-217"/>
<text text-anchor="start" x="616" y="-205" font-family="Helvetica,sans-Serif" font-size="10.00">Exception/PharmacyExceptions</text>
<text text-anchor="middle" x="693" y="-194" font-family="Helvetica,sans-Serif" font-size="10.00">/InvalidProductDataException.h</text>
</a>
</g>
</g>
<!-- Node1&#45;&gt;Node12 -->
<g id="edge11_Node000001_Node000012" class="edge">
<title>Node1&#45;&gt;Node12</title>
<g id="a_edge11_Node000001_Node000012"><a xlink:title=" ">
<path fill="none" stroke="#63b8ff" d="M628.33,-247.03C642.56,-237.34 659.31,-225.94 672.2,-217.16"/>
<polygon fill="#63b8ff" stroke="#63b8ff" points="626.16,-244.28 619.86,-252.8 630.1,-250.06 626.16,-244.28"/>
</a>
</g>
</g>
<!-- Node25 -->
<g id="Node000025" class="node">
<title>Node25</title>
<g id="a_Node000025"><a xlink:href="ProductNotFoundException_8h.html" target="_top" xlink:title=" ">
<polygon fill="white" stroke="#666666" points="402,-217 232,-217 232,-187 402,-187 402,-217"/>
<text text-anchor="start" x="240" y="-205" font-family="Helvetica,sans-Serif" font-size="10.00">Exception/PharmacyExceptions</text>
<text text-anchor="middle" x="317" y="-194" font-family="Helvetica,sans-Serif" font-size="10.00">/ProductNotFoundException.h</text>
</a>
</g>
</g>
<!-- Node1&#45;&gt;Node25 -->
<g id="edge37_Node000001_Node000025" class="edge">
<title>Node1&#45;&gt;Node25</title>
<g id="a_edge37_Node000001_Node000025"><a xlink:title=" ">
<path fill="none" stroke="#63b8ff" d="M527.24,-250.71C481.38,-240.31 422.51,-226.95 378.74,-217.01"/>
<polygon fill="#63b8ff" stroke="#63b8ff" points="526.59,-254.15 537.11,-252.95 528.14,-247.33 526.59,-254.15"/>
</a>
</g>
</g>
<!-- Node3 -->
<g id="Node000003" class="node">
<title>Node3</title>
<g id="a_Node000003"><a xlink:href="pharmacy_8cpp.html" target="_top" xlink:title=" ">
<polygon fill="white" stroke="#666666" points="426,-24.5 342,-24.5 342,-5.5 426,-5.5 426,-24.5"/>
<text text-anchor="middle" x="384" y="-12.5" font-family="Helvetica,sans-Serif" font-size="10.00">pharmacy.cpp</text>
</a>
</g>
</g>
<!-- Node2&#45;&gt;Node3 -->
<g id="edge2_Node000002_Node000003" class="edge">
<title>Node2&#45;&gt;Node3</title>
<g id="a_edge2_Node000002_Node000003"><a xlink:title=" ">
<path fill="none" stroke="#63b8ff" d="M507.29,-176.68C508.74,-147.55 506.89,-98.61 483,-66 467.41,-44.72 440.15,-31.9 418.18,-24.57"/>
<polygon fill="#63b8ff" stroke="#63b8ff" points="503.79,-176.59 506.62,-186.8 510.77,-177.06 503.79,-176.59"/>
</a>
</g>
</g>
<!-- Node4 -->
<g id="Node000004" class="node">
<title>Node4</title>
<g id="a_Node000004"><a xlink:href="pharmacymanager_8h.html" target="_top" xlink:title=" ">
<polygon fill="white" stroke="#666666" points="468.5,-145.5 351.5,-145.5 351.5,-126.5 468.5,-126.5 468.5,-145.5"/>
<text text-anchor="middle" x="410" y="-133.5" font-family="Helvetica,sans-Serif" font-size="10.00">pharmacymanager.h</text>
</a>
</g>
</g>
<!-- Node2&#45;&gt;Node4 -->
<g id="edge3_Node000002_Node000004" class="edge">
<title>Node2&#45;&gt;Node4</title>
<g id="a_edge3_Node000002_Node000004"><a xlink:title=" ">
<path fill="none" stroke="#63b8ff" d="M475.61,-181.2C457.93,-169.29 436.32,-154.73 422.85,-145.66"/>
<polygon fill="#63b8ff" stroke="#63b8ff" points="473.67,-184.11 483.92,-186.8 477.58,-178.31 473.67,-184.11"/>
</a>
</g>
</g>
<!-- Node5 -->
<g id="Node000005" class="node">
<title>Node5</title>
<g id="a_Node000005"><a xlink:href="mainwindow_8h.html" target="_top" xlink:title=" ">
<polygon fill="white" stroke="#666666" points="256.5,-85 169.5,-85 169.5,-66 256.5,-66 256.5,-85"/>
<text text-anchor="middle" x="213" y="-73" font-family="Helvetica,sans-Serif" font-size="10.00">mainwindow.h</text>
</a>
</g>
</g>
<!-- Node4&#45;&gt;Node5 -->
<g id="edge4_Node000004_Node000005" class="edge">
<title>Node4&#45;&gt;Node5</title>
<g id="a_edge4_Node000004_Node000005"><a xlink:title=" ">
<path fill="none" stroke="#63b8ff" d="M371.64,-123.61C333.53,-112.29 275.98,-95.2 241.68,-85.02"/>
<polygon fill="#63b8ff" stroke="#63b8ff" points="370.77,-127 381.35,-126.49 372.76,-120.29 370.77,-127"/>
</a>
</g>
</g>
<!-- Node9 -->
<g id="Node000009" class="node">
<title>Node9</title>
<g id="a_Node000009"><a xlink:href="pharmacymanager_8cpp.html" target="_top" xlink:title=" ">
<polygon fill="white" stroke="#666666" points="474,-85 346,-85 346,-66 474,-66 474,-85"/>
<text text-anchor="middle" x="410" y="-73" font-family="Helvetica,sans-Serif" font-size="10.00">pharmacymanager.cpp</text>
</a>
</g>
</g>
<!-- Node4&#45;&gt;Node9 -->
<g id="edge8_Node000004_Node000009" class="edge">
<title>Node4&#45;&gt;Node9</title>
<g id="a_edge8_Node000004_Node000009"><a xlink:title=" ">
<path fill="none" stroke="#63b8ff" d="M410,-116.16C410,-105.74 410,-93.3 410,-85.17"/>
<polygon fill="#63b8ff" stroke="#63b8ff" points="406.5,-116.37 410,-126.37 413.5,-116.37 406.5,-116.37"/>
</a>
</g>
</g>
<!-- Node6 -->
<g id="Node000006" class="node">
<title>Node6</title>
<g id="a_Node000006"><a xlink:href="moc__mainwindow_8cpp.html" target="_top" xlink:title=" ">
<polygon fill="white" stroke="#666666" points="244,-30 116,-30 116,0 244,0 244,-30"/>
<text text-anchor="start" x="124" y="-18" font-family="Helvetica,sans-Serif" font-size="10.00">build/Desktop&#45;Debug</text>
<text text-anchor="middle" x="180" y="-7" font-family="Helvetica,sans-Serif" font-size="10.00">/moc_mainwindow.cpp</text>
</a>
</g>
</g>
<!-- Node5&#45;&gt;Node6 -->
<g id="edge5_Node000005_Node000006" class="edge">
<title>Node5&#45;&gt;Node6</title>
<g id="a_edge5_Node000005_Node000006"><a xlink:title=" ">
<path fill="none" stroke="#63b8ff" d="M203.16,-57.05C198.31,-48.45 192.53,-38.21 187.96,-30.11"/>
<polygon fill="#63b8ff" stroke="#63b8ff" points="200.17,-58.88 208.13,-65.87 206.27,-55.44 200.17,-58.88"/>
</a>
</g>
</g>
<!-- Node7 -->
<g id="Node000007" class="node">
<title>Node7</title>
<g id="a_Node000007"><a xlink:href="main_8cpp.html" target="_top" xlink:title=" ">
<polygon fill="white" stroke="#666666" points="324,-24.5 262,-24.5 262,-5.5 324,-5.5 324,-24.5"/>
<text text-anchor="middle" x="293" y="-12.5" font-family="Helvetica,sans-Serif" font-size="10.00">main.cpp</text>
</a>
</g>
</g>
<!-- Node5&#45;&gt;Node7 -->
<g id="edge6_Node000005_Node000007" class="edge">
<title>Node5&#45;&gt;Node7</title>
<g id="a_edge6_Node000005_Node000007"><a xlink:title=" ">
<path fill="none" stroke="#63b8ff" d="M233.04,-59.85C248.19,-48.77 268.48,-33.93 281.15,-24.67"/>
<polygon fill="#63b8ff" stroke="#63b8ff" points="230.81,-57.14 224.8,-65.87 234.94,-62.79 230.81,-57.14"/>
</a>
</g>
</g>
<!-- Node8 -->
<g id="Node000008" class="node">
<title>Node8</title>
<g id="a_Node000008"><a xlink:href="mainwindow_8cpp.html" target="_top" xlink:title=" ">
<polygon fill="white" stroke="#666666" points="98,-24.5 0,-24.5 0,-5.5 98,-5.5 98,-24.5"/>
<text text-anchor="middle" x="49" y="-12.5" font-family="Helvetica,sans-Serif" font-size="10.00">mainwindow.cpp</text>
</a>
</g>
</g>
<!-- Node5&#45;&gt;Node8 -->
<g id="edge7_Node000005_Node000008" class="edge">
<title>Node5&#45;&gt;Node8</title>
<g id="a_edge7_Node000005_Node000008"><a xlink:title=" ">
<path fill="none" stroke="#63b8ff" d="M179.43,-62.52C147.72,-51.21 100.95,-34.53 72.88,-24.52"/>
<polygon fill="#63b8ff" stroke="#63b8ff" points="178.56,-65.93 189.15,-65.99 180.91,-59.34 178.56,-65.93"/>
</a>
</g>
</g>
<!-- Node11 -->
<g id="Node000011" class="node">
<title>Node11</title>
<g id="a_Node000011"><a xlink:href="medicalproduct_8cpp.html" target="_top" xlink:title=" ">
<polygon fill="white" stroke="#666666" points="1485.5,-24.5 1372.5,-24.5 1372.5,-5.5 1485.5,-5.5 1485.5,-24.5"/>
<text text-anchor="middle" x="1429" y="-12.5" font-family="Helvetica,sans-Serif" font-size="10.00">medicalproduct.cpp</text>
</a>
</g>
</g>
<!-- Node10&#45;&gt;Node11 -->
<g id="edge10_Node000010_Node000011" class="edge">
<title>Node10&#45;&gt;Node11</title>
<g id="a_edge10_Node000010_Node000011"><a xlink:title=" ">
<path fill="none" stroke="#63b8ff" d="M1394.62,-111.16C1404.25,-84.49 1419.35,-42.7 1425.85,-24.71"/>
<polygon fill="#63b8ff" stroke="#63b8ff" points="1391.21,-110.29 1391.1,-120.88 1397.79,-112.67 1391.21,-110.29"/>
</a>
</g>
</g>
<!-- Node12&#45;&gt;Node3 -->
<g id="edge33_Node000012_Node000003" class="edge">
<title>Node12&#45;&gt;Node3</title>
<g id="a_edge33_Node000012_Node000003"><a xlink:title=" ">
<path fill="none" stroke="#63b8ff" d="M654.86,-181.96C638.46,-173.23 619.34,-162.32 603,-151 555.05,-117.79 552.69,-96.55 503,-66 473.22,-47.69 435.54,-33.13 410.65,-24.55"/>
<polygon fill="#63b8ff" stroke="#63b8ff" points="653.69,-185.3 664.17,-186.84 656.94,-179.1 653.69,-185.3"/>
</a>
</g>
</g>
<!-- Node12&#45;&gt;Node4 -->
<g id="edge34_Node000012_Node000004" class="edge">
<title>Node12&#45;&gt;Node4</title>
<g id="a_edge34_Node000012_Node000004"><a xlink:title=" ">
<path fill="none" stroke="#63b8ff" d="M620.82,-184.68C565.61,-172.19 491.71,-155.48 447.66,-145.52"/>
<polygon fill="#63b8ff" stroke="#63b8ff" points="620.37,-188.16 630.89,-186.95 621.91,-181.34 620.37,-188.16"/>
</a>
</g>
</g>
<!-- Node12&#45;&gt;Node11 -->
<g id="edge30_Node000012_Node000011" class="edge">
<title>Node12&#45;&gt;Node11</title>
<g id="a_edge30_Node000012_Node000011"><a xlink:title=" ">
<path fill="none" stroke="#63b8ff" d="M788.5,-193.38C896.25,-184.17 1064.48,-167.83 1126,-151 1242.37,-119.16 1371.2,-49.02 1414.16,-24.59"/>
<polygon fill="#63b8ff" stroke="#63b8ff" points="787.94,-189.91 778.27,-194.24 788.53,-196.89 787.94,-189.91"/>
</a>
</g>
</g>
<!-- Node13 -->
<g id="Node000013" class="node">
<title>Node13</title>
<g id="a_Node000013"><a xlink:href="InvalidPriceException_8h.html" target="_top" xlink:title=" ">
<polygon fill="white" stroke="#666666" points="1117,-151 947,-151 947,-121 1117,-121 1117,-151"/>
<text text-anchor="start" x="955" y="-139" font-family="Helvetica,sans-Serif" font-size="10.00">Exception/PharmacyExceptions</text>
<text text-anchor="middle" x="1032" y="-128" font-family="Helvetica,sans-Serif" font-size="10.00">/InvalidPriceException.h</text>
</a>
</g>
</g>
<!-- Node12&#45;&gt;Node13 -->
<g id="edge12_Node000012_Node000013" class="edge">
<title>Node12&#45;&gt;Node13</title>
<g id="a_edge12_Node000012_Node000013"><a xlink:title=" ">
<path fill="none" stroke="#63b8ff" d="M777.54,-185.04C832.91,-174.59 904.61,-161.05 957.78,-151.01"/>
<polygon fill="#63b8ff" stroke="#63b8ff" points="776.57,-181.66 767.39,-186.95 777.87,-188.54 776.57,-181.66"/>
</a>
</g>
</g>
<!-- Node14 -->
<g id="Node000014" class="node">
<title>Node14</title>
<g id="a_Node000014"><a xlink:href="safeinput_8h.html" target="_top" xlink:title=" ">
<polygon fill="white" stroke="#666666" points="905,-85 783,-85 783,-66 905,-66 905,-85"/>
<text text-anchor="middle" x="844" y="-73" font-family="Helvetica,sans-Serif" font-size="10.00">Exception/safeinput.h</text>
</a>
</g>
</g>
<!-- Node12&#45;&gt;Node14 -->
<g id="edge29_Node000012_Node000014" class="edge">
<title>Node12&#45;&gt;Node14</title>
<g id="a_edge29_Node000012_Node000014"><a xlink:title=" ">
<path fill="none" stroke="#63b8ff" d="M705.13,-177.92C715.24,-160.47 731.02,-136.89 750,-121 769.94,-104.31 797.19,-92.32 817.21,-85.02"/>
<polygon fill="#63b8ff" stroke="#63b8ff" points="701.94,-176.46 700.12,-186.89 708.05,-179.87 701.94,-176.46"/>
</a>
</g>
</g>
<!-- Node17 -->
<g id="Node000017" class="node">
<title>Node17</title>
<g id="a_Node000017"><a xlink:href="medicine_8cpp.html" target="_top" xlink:title=" ">
<polygon fill="white" stroke="#666666" points="692,-24.5 610,-24.5 610,-5.5 692,-5.5 692,-24.5"/>
<text text-anchor="middle" x="651" y="-12.5" font-family="Helvetica,sans-Serif" font-size="10.00">medicine.cpp</text>
</a>
</g>
</g>
<!-- Node12&#45;&gt;Node17 -->
<g id="edge31_Node000012_Node000017" class="edge">
<title>Node12&#45;&gt;Node17</title>
<g id="a_edge31_Node000012_Node000017"><a xlink:title=" ">
<path fill="none" stroke="#63b8ff" d="M685.9,-176.94C683.58,-168.74 681.07,-159.5 679,-151 667.45,-103.56 656.53,-46 652.57,-24.57"/>
<polygon fill="#63b8ff" stroke="#63b8ff" points="682.56,-177.99 688.69,-186.63 689.29,-176.05 682.56,-177.99"/>
</a>
</g>
</g>
<!-- Node18 -->
<g id="Node000018" class="node">
<title>Node18</title>
<g id="a_Node000018"><a xlink:href="ointment_8cpp.html" target="_top" xlink:title=" ">
<polygon fill="white" stroke="#666666" points="791.5,-24.5 710.5,-24.5 710.5,-5.5 791.5,-5.5 791.5,-24.5"/>
<text text-anchor="middle" x="751" y="-12.5" font-family="Helvetica,sans-Serif" font-size="10.00">ointment.cpp</text>
</a>
</g>
</g>
<!-- Node12&#45;&gt;Node18 -->
<g id="edge32_Node000012_Node000018" class="edge">
<title>Node12&#45;&gt;Node18</title>
<g id="a_edge32_Node000012_Node000018"><a xlink:title=" ">
<path fill="none" stroke="#63b8ff" d="M700.47,-177.19C713.51,-135.58 739.87,-51.49 748.33,-24.53"/>
<polygon fill="#63b8ff" stroke="#63b8ff" points="697.11,-176.2 697.45,-186.79 703.79,-178.3 697.11,-176.2"/>
</a>
</g>
</g>
<!-- Node21 -->
<g id="Node000021" class="node">
<title>Node21</title>
<g id="a_Node000021"><a xlink:href="syrup_8cpp.html" target="_top" xlink:title=" ">
<polygon fill="white" stroke="#666666" points="508,-24.5 444,-24.5 444,-5.5 508,-5.5 508,-24.5"/>
<text text-anchor="middle" x="476" y="-12.5" font-family="Helvetica,sans-Serif" font-size="10.00">syrup.cpp</text>
</a>
</g>
</g>
<!-- Node12&#45;&gt;Node21 -->
<g id="edge35_Node000012_Node000021" class="edge">
<title>Node12&#45;&gt;Node21</title>
<g id="a_edge35_Node000012_Node000021"><a xlink:title=" ">
<path fill="none" stroke="#63b8ff" d="M667.53,-180.48C656.92,-171.67 644.63,-161.09 634,-151 596.37,-115.28 593.92,-99.14 554,-66 533.95,-49.36 508.04,-33.75 491.72,-24.54"/>
<polygon fill="#63b8ff" stroke="#63b8ff" points="665.31,-183.19 675.25,-186.84 669.76,-177.78 665.31,-183.19"/>
</a>
</g>
</g>
<!-- Node22 -->
<g id="Node000022" class="node">
<title>Node22</title>
<g id="a_Node000022"><a xlink:href="tablet_8cpp.html" target="_top" xlink:title=" ">
<polygon fill="white" stroke="#666666" points="591.5,-24.5 526.5,-24.5 526.5,-5.5 591.5,-5.5 591.5,-24.5"/>
<text text-anchor="middle" x="559" y="-12.5" font-family="Helvetica,sans-Serif" font-size="10.00">tablet.cpp</text>
</a>
</g>
</g>
<!-- Node12&#45;&gt;Node22 -->
<g id="edge36_Node000012_Node000022" class="edge">
<title>Node12&#45;&gt;Node22</title>
<g id="a_edge36_Node000012_Node000022"><a xlink:title=" ">
<path fill="none" stroke="#63b8ff" d="M676.7,-178.5C646.91,-137.37 584.92,-51.78 565.18,-24.53"/>
<polygon fill="#63b8ff" stroke="#63b8ff" points="674.01,-180.74 682.71,-186.79 679.68,-176.64 674.01,-180.74"/>
</a>
</g>
</g>
<!-- Node24 -->
<g id="Node000024" class="node">
<title>Node24</title>
<g id="a_Node000024"><a xlink:href="InvalidProductIdException_8h.html" target="_top" xlink:title=" ">
<polygon fill="white" stroke="#666666" points="929,-151 759,-151 759,-121 929,-121 929,-151"/>
<text text-anchor="start" x="767" y="-139" font-family="Helvetica,sans-Serif" font-size="10.00">Exception/PharmacyExceptions</text>
<text text-anchor="middle" x="844" y="-128" font-family="Helvetica,sans-Serif" font-size="10.00">/InvalidProductIdException.h</text>
</a>
</g>
</g>
<!-- Node12&#45;&gt;Node24 -->
<g id="edge26_Node000012_Node000024" class="edge">
<title>Node12&#45;&gt;Node24</title>
<g id="a_edge26_Node000012_Node000024"><a xlink:title=" ">
<path fill="none" stroke="#63b8ff" d="M735.66,-182.92C759.53,-172.8 788.83,-160.38 810.94,-151.01"/>
<polygon fill="#63b8ff" stroke="#63b8ff" points="733.98,-179.83 726.14,-186.95 736.71,-186.28 733.98,-179.83"/>
</a>
</g>
</g>
<!-- Node13&#45;&gt;Node11 -->
<g id="edge25_Node000013_Node000011" class="edge">
<title>Node13&#45;&gt;Node11</title>
<g id="a_edge25_Node000013_Node000011"><a xlink:title=" ">
<path fill="none" stroke="#63b8ff" d="M1074.92,-117.11C1111.88,-102.15 1166.85,-80.92 1216,-66 1248.17,-56.24 1337.68,-36.07 1389.86,-24.56"/>
<polygon fill="#63b8ff" stroke="#63b8ff" points="1073.41,-113.95 1065.47,-120.97 1076.05,-120.44 1073.41,-113.95"/>
</a>
</g>
</g>
<!-- Node13&#45;&gt;Node14 -->
<g id="edge13_Node000013_Node000014" class="edge">
<title>Node13&#45;&gt;Node14</title>
<g id="a_edge13_Node000013_Node000014"><a xlink:title=" ">
<path fill="none" stroke="#63b8ff" d="M976.98,-117.88C942.32,-107.09 899.07,-93.64 871.49,-85.05"/>
<polygon fill="#63b8ff" stroke="#63b8ff" points="976.38,-121.36 986.97,-120.99 978.46,-114.67 976.38,-121.36"/>
</a>
</g>
</g>
<!-- Node14&#45;&gt;Node3 -->
<g id="edge19_Node000014_Node000003" class="edge">
<title>Node14&#45;&gt;Node3</title>
<g id="a_edge19_Node000014_Node000003"><a xlink:title=" ">
<path fill="none" stroke="#63b8ff" d="M772.71,-70.2C690.7,-64.46 552.25,-52.32 435,-30 427.42,-28.56 419.33,-26.55 411.87,-24.51"/>
<polygon fill="#63b8ff" stroke="#63b8ff" points="772.7,-73.71 782.92,-70.91 773.18,-66.73 772.7,-73.71"/>
</a>
</g>
</g>
<!-- Node14&#45;&gt;Node11 -->
<g id="edge16_Node000014_Node000011" class="edge">
<title>Node14&#45;&gt;Node11</title>
<g id="a_edge16_Node000014_Node000011"><a xlink:title=" ">
<path fill="none" stroke="#63b8ff" d="M915.02,-71.19C1015.28,-65.89 1203.87,-53.61 1363,-30 1372.73,-28.56 1383.18,-26.55 1392.83,-24.51"/>
<polygon fill="#63b8ff" stroke="#63b8ff" points="914.81,-67.7 905.01,-71.71 915.18,-74.69 914.81,-67.7"/>
</a>
</g>
</g>
<!-- Node15 -->
<g id="Node000015" class="node">
<title>Node15</title>
<g id="a_Node000015"><a xlink:href="safeinput_8cpp.html" target="_top" xlink:title=" ">
<polygon fill="white" stroke="#666666" points="1122,-24.5 988,-24.5 988,-5.5 1122,-5.5 1122,-24.5"/>
<text text-anchor="middle" x="1055" y="-12.5" font-family="Helvetica,sans-Serif" font-size="10.00">Exception/safeinput.cpp</text>
</a>
</g>
</g>
<!-- Node14&#45;&gt;Node15 -->
<g id="edge14_Node000014_Node000015" class="edge">
<title>Node14&#45;&gt;Node15</title>
<g id="a_edge14_Node000014_Node000015"><a xlink:title=" ">
<path fill="none" stroke="#63b8ff" d="M884.57,-63.25C925.38,-51.94 987.39,-34.75 1024.28,-24.52"/>
<polygon fill="#63b8ff" stroke="#63b8ff" points="883.38,-59.95 874.68,-65.99 885.25,-66.69 883.38,-59.95"/>
</a>
</g>
</g>
<!-- Node16 -->
<g id="Node000016" class="node">
<title>Node16</title>
<g id="a_Node000016"><a xlink:href="inventoryoperation_8cpp.html" target="_top" xlink:title=" ">
<polygon fill="white" stroke="#666666" points="1270,-24.5 1140,-24.5 1140,-5.5 1270,-5.5 1270,-24.5"/>
<text text-anchor="middle" x="1205" y="-12.5" font-family="Helvetica,sans-Serif" font-size="10.00">inventoryoperation.cpp</text>
</a>
</g>
</g>
<!-- Node14&#45;&gt;Node16 -->
<g id="edge15_Node000014_Node000016" class="edge">
<title>Node14&#45;&gt;Node16</title>
<g id="a_edge15_Node000014_Node000016"><a xlink:title=" ">
<path fill="none" stroke="#63b8ff" d="M912.81,-64.48C971.02,-55.86 1056.58,-42.81 1131,-30 1140.79,-28.31 1151.29,-26.4 1161.22,-24.53"/>
<polygon fill="#63b8ff" stroke="#63b8ff" points="912.01,-61.07 902.63,-65.99 913.04,-67.99 912.01,-61.07"/>
</a>
</g>
</g>
<!-- Node14&#45;&gt;Node17 -->
<g id="edge17_Node000014_Node000017" class="edge">
<title>Node14&#45;&gt;Node17</title>
<g id="a_edge17_Node000014_Node000017"><a xlink:title=" ">
<path fill="none" stroke="#63b8ff" d="M805.94,-62.96C768.61,-51.65 712.56,-34.66 679.1,-24.52"/>
<polygon fill="#63b8ff" stroke="#63b8ff" points="805.35,-66.44 815.94,-65.99 807.38,-59.74 805.35,-66.44"/>
</a>
</g>
</g>
<!-- Node14&#45;&gt;Node18 -->
<g id="edge18_Node000014_Node000018" class="edge">
<title>Node14&#45;&gt;Node18</title>
<g id="a_edge18_Node000014_Node000018"><a xlink:title=" ">
<path fill="none" stroke="#63b8ff" d="M821.69,-60.47C803.98,-49.32 779.78,-34.1 764.78,-24.67"/>
<polygon fill="#63b8ff" stroke="#63b8ff" points="819.95,-63.51 830.28,-65.87 823.68,-57.58 819.95,-63.51"/>
</a>
</g>
</g>
<!-- Node19 -->
<g id="Node000019" class="node">
<title>Node19</title>
<g id="a_Node000019"><a xlink:href="return_8cpp.html" target="_top" xlink:title=" ">
<polygon fill="white" stroke="#666666" points="1354,-24.5 1288,-24.5 1288,-5.5 1354,-5.5 1354,-24.5"/>
<text text-anchor="middle" x="1321" y="-12.5" font-family="Helvetica,sans-Serif" font-size="10.00">return.cpp</text>
</a>
</g>
</g>
<!-- Node14&#45;&gt;Node19 -->
<g id="edge20_Node000014_Node000019" class="edge">
<title>Node14&#45;&gt;Node19</title>
<g id="a_edge20_Node000014_Node000019"><a xlink:title=" ">
<path fill="none" stroke="#63b8ff" d="M915.18,-72.01C1001.95,-67.89 1152.64,-57.18 1279,-30 1285.31,-28.64 1292,-26.67 1298.15,-24.63"/>
<polygon fill="#63b8ff" stroke="#63b8ff" points="915.01,-68.52 905.18,-72.47 915.33,-75.51 915.01,-68.52"/>
</a>
</g>
</g>
<!-- Node20 -->
<g id="Node000020" class="node">
<title>Node20</title>
<g id="a_Node000020"><a xlink:href="supply_8cpp.html" target="_top" xlink:title=" ">
<polygon fill="white" stroke="#666666" points="878,-24.5 810,-24.5 810,-5.5 878,-5.5 878,-24.5"/>
<text text-anchor="middle" x="844" y="-12.5" font-family="Helvetica,sans-Serif" font-size="10.00">supply.cpp</text>
</a>
</g>
</g>
<!-- Node14&#45;&gt;Node20 -->
<g id="edge21_Node000014_Node000020" class="edge">
<title>Node14&#45;&gt;Node20</title>
<g id="a_edge21_Node000014_Node000020"><a xlink:title=" ">
<path fill="none" stroke="#63b8ff" d="M844,-55.66C844,-45.24 844,-32.8 844,-24.67"/>
<polygon fill="#63b8ff" stroke="#63b8ff" points="840.5,-55.87 844,-65.87 847.5,-55.87 840.5,-55.87"/>
</a>
</g>
</g>
<!-- Node14&#45;&gt;Node21 -->
<g id="edge22_Node000014_Node000021" class="edge">
<title>Node14&#45;&gt;Node21</title>
<g id="a_edge22_Node000014_Node000021"><a xlink:title=" ">
<path fill="none" stroke="#63b8ff" d="M772.79,-68.82C706.06,-62.55 603.84,-50.53 517,-30 511,-28.58 504.63,-26.63 498.76,-24.64"/>
<polygon fill="#63b8ff" stroke="#63b8ff" points="772.51,-72.31 782.78,-69.74 773.15,-65.34 772.51,-72.31"/>
</a>
</g>
</g>
<!-- Node14&#45;&gt;Node22 -->
<g id="edge23_Node000014_Node000022" class="edge">
<title>Node14&#45;&gt;Node22</title>
<g id="a_edge23_Node000014_Node000022"><a xlink:title=" ">
<path fill="none" stroke="#63b8ff" d="M773.92,-64.35C725.07,-56.62 658.59,-44.79 601,-30 595.04,-28.47 588.71,-26.53 582.81,-24.58"/>
<polygon fill="#63b8ff" stroke="#63b8ff" points="773.65,-67.84 784.07,-65.93 774.73,-60.93 773.65,-67.84"/>
</a>
</g>
</g>
<!-- Node23 -->
<g id="Node000023" class="node">
<title>Node23</title>
<g id="a_Node000023"><a xlink:href="writeoff_8cpp.html" target="_top" xlink:title=" ">
<polygon fill="white" stroke="#666666" points="970,-24.5 896,-24.5 896,-5.5 970,-5.5 970,-24.5"/>
<text text-anchor="middle" x="933" y="-12.5" font-family="Helvetica,sans-Serif" font-size="10.00">writeoff.cpp</text>
</a>
</g>
</g>
<!-- Node14&#45;&gt;Node23 -->
<g id="edge24_Node000014_Node000023" class="edge">
<title>Node14&#45;&gt;Node23</title>
<g id="a_edge24_Node000014_Node000023"><a xlink:title=" ">
<path fill="none" stroke="#63b8ff" d="M865.82,-60.16C882.73,-49.05 905.59,-34.01 919.81,-24.67"/>
<polygon fill="#63b8ff" stroke="#63b8ff" points="863.57,-57.45 857.13,-65.87 867.41,-63.3 863.57,-57.45"/>
</a>
</g>
</g>
<!-- Node24&#45;&gt;Node11 -->
<g id="edge28_Node000024_Node000011" class="edge">
<title>Node24&#45;&gt;Node11</title>
<g id="a_edge28_Node000024_Node000011"><a xlink:title=" ">
<path fill="none" stroke="#63b8ff" d="M913.25,-118.66C976.15,-104.05 1071.56,-82.47 1155,-66 1247.04,-47.83 1270.87,-47.74 1363,-30 1371.74,-28.32 1381.11,-26.4 1389.96,-24.53"/>
<polygon fill="#63b8ff" stroke="#63b8ff" points="912.39,-115.26 903.45,-120.94 913.98,-122.08 912.39,-115.26"/>
</a>
</g>
</g>
<!-- Node24&#45;&gt;Node14 -->
<g id="edge27_Node000024_Node000014" class="edge">
<title>Node24&#45;&gt;Node14</title>
<g id="a_edge27_Node000024_Node000014"><a xlink:title=" ">
<path fill="none" stroke="#63b8ff" d="M844,-110.75C844,-101.72 844,-92.03 844,-85.27"/>
<polygon fill="#63b8ff" stroke="#63b8ff" points="840.5,-110.84 844,-120.84 847.5,-110.84 840.5,-110.84"/>
</a>
</g>
</g>
<!-- Node25&#45;&gt;Node3 -->
<g id="edge38_Node000025_Node000003" class="edge">
<title>Node25&#45;&gt;Node3</title>
<g id="a_edge38_Node000025_Node000003"><a xlink:title=" ">
<path fill="none" stroke="#63b8ff" d="M316.32,-176.68C316.47,-148.62 319.69,-101.77 337,-66 345.3,-48.84 361.59,-33.6 372.63,-24.58"/>
<polygon fill="#63b8ff" stroke="#63b8ff" points="312.82,-176.81 316.39,-186.79 319.82,-176.76 312.82,-176.81"/>
</a>
</g>
</g>
<!-- Node25&#45;&gt;Node4 -->
<g id="edge39_Node000025_Node000004" class="edge">
<title>Node25&#45;&gt;Node4</title>
<g id="a_edge39_Node000025_Node000004"><a xlink:title=" ">
<path fill="none" stroke="#63b8ff" d="M346.25,-180.87C363.46,-169.03 384.36,-154.65 397.42,-145.66"/>
<polygon fill="#63b8ff" stroke="#63b8ff" points="343.89,-178.24 337.64,-186.8 347.86,-184.01 343.89,-178.24"/>
</a>
</g>
</g>
</g>
</svg>
