<?xml version="1.0" encoding="UTF-8" standalone="no"?>
<!DOCTYPE svg PUBLIC "-//W3C//DTD SVG 1.1//EN"
 "http://www.w3.org/Graphics/SVG/1.1/DTD/svg11.dtd">
<!-- Generated by graphviz version 2.43.0 (0)
 -->
<!-- Title: medicalproduct.cpp Pages: 1 -->
<svg width="857pt" height="390pt"
 viewBox="0.00 0.00 856.50 390.00" xmlns="http://www.w3.org/2000/svg" xmlns:xlink="http://www.w3.org/1999/xlink">
<g id="graph0" class="graph" transform="scale(1 1) rotate(0) translate(4 386)">
<title>medicalproduct.cpp</title>
<!-- Node1 -->
<g id="Node000001" class="node">
<title>Node1</title>
<g id="a_Node000001"><a xlink:title=" ">
<polygon fill="#999999" stroke="#666666" points="412,-382 299,-382 299,-363 412,-363 412,-382"/>
<text text-anchor="middle" x="355.5" y="-370" font-family="Helvetica,sans-Serif" font-size="10.00">medicalproduct.cpp</text>
</a>
</g>
</g>
<!-- Node2 -->
<g id="Node000002" class="node">
<title>Node2</title>
<g id="a_Node000002"><a xlink:href="medicalproduct_8h.html" target="_top" xlink:title=" ">
<polygon fill="white" stroke="#666666" points="101,-321.5 0,-321.5 0,-302.5 101,-302.5 101,-321.5"/>
<text text-anchor="middle" x="50.5" y="-309.5" font-family="Helvetica,sans-Serif" font-size="10.00">medicalproduct.h</text>
</a>
</g>
</g>
<!-- Node1&#45;&gt;Node2 -->
<g id="edge1_Node000001_Node000002" class="edge">
<title>Node1&#45;&gt;Node2</title>
<g id="a_edge1_Node000001_Node000002"><a xlink:title=" ">
<path fill="none" stroke="#63b8ff" d="M307.15,-362.96C258.63,-354.29 181.77,-340.28 115.5,-327 110.19,-325.94 104.65,-324.79 99.14,-323.64"/>
<polygon fill="#63b8ff" stroke="#63b8ff" points="99.81,-320.2 89.3,-321.55 98.36,-327.05 99.81,-320.2"/>
</a>
</g>
</g>
<!-- Node6 -->
<g id="Node000006" class="node">
<title>Node6</title>
<g id="a_Node000006"><a xlink:href="safedate_8h.html" target="_top" xlink:title=" ">
<polygon fill="white" stroke="#666666" points="176.5,-255.5 108.5,-255.5 108.5,-236.5 176.5,-236.5 176.5,-255.5"/>
<text text-anchor="middle" x="142.5" y="-243.5" font-family="Helvetica,sans-Serif" font-size="10.00">safedate.h</text>
</a>
</g>
</g>
<!-- Node1&#45;&gt;Node6 -->
<g id="edge20_Node000001_Node000006" class="edge">
<title>Node1&#45;&gt;Node6</title>
<g id="a_edge20_Node000001_Node000006"><a xlink:title=" ">
<path fill="none" stroke="#63b8ff" d="M298.92,-366.85C244.57,-361.12 167.91,-349.27 148.5,-327 133.95,-310.31 135.16,-283.49 138.16,-265.56"/>
<polygon fill="#63b8ff" stroke="#63b8ff" points="141.6,-266.21 140.14,-255.72 134.74,-264.83 141.6,-266.21"/>
</a>
</g>
</g>
<!-- Node8 -->
<g id="Node000008" class="node">
<title>Node8</title>
<g id="a_Node000008"><a xlink:href="InvalidProductDataException_8h.html" target="_top" xlink:title=" ">
<polygon fill="white" stroke="#666666" points="484.5,-195 314.5,-195 314.5,-165 484.5,-165 484.5,-195"/>
<text text-anchor="start" x="322.5" y="-183" font-family="Helvetica,sans-Serif" font-size="10.00">Exception/PharmacyExceptions</text>
<text text-anchor="middle" x="399.5" y="-172" font-family="Helvetica,sans-Serif" font-size="10.00">/InvalidProductDataException.h</text>
</a>
</g>
</g>
<!-- Node1&#45;&gt;Node8 -->
<g id="edge9_Node000001_Node000008" class="edge">
<title>Node1&#45;&gt;Node8</title>
<g id="a_edge9_Node000001_Node000008"><a xlink:title=" ">
<path fill="none" stroke="#63b8ff" d="M354.59,-362.77C352.8,-348.37 347.97,-319.02 336.5,-297 326.74,-278.27 312.85,-280.79 305.5,-261 300.86,-248.5 298.63,-242.43 305.5,-231 313.78,-217.22 327.28,-207.04 341.49,-199.59"/>
<polygon fill="#63b8ff" stroke="#63b8ff" points="343.39,-202.56 350.89,-195.08 340.36,-196.25 343.39,-202.56"/>
</a>
</g>
</g>
<!-- Node11 -->
<g id="Node000011" class="node">
<title>Node11</title>
<g id="a_Node000011"><a xlink:href="ExpiredProductException_8h.html" target="_top" xlink:title=" ">
<polygon fill="white" stroke="#666666" points="327.5,-327 157.5,-327 157.5,-297 327.5,-297 327.5,-327"/>
<text text-anchor="start" x="165.5" y="-315" font-family="Helvetica,sans-Serif" font-size="10.00">Exception/PharmacyExceptions</text>
<text text-anchor="middle" x="242.5" y="-304" font-family="Helvetica,sans-Serif" font-size="10.00">/ExpiredProductException.h</text>
</a>
</g>
</g>
<!-- Node1&#45;&gt;Node11 -->
<g id="edge13_Node000001_Node000011" class="edge">
<title>Node1&#45;&gt;Node11</title>
<g id="a_edge13_Node000001_Node000011"><a xlink:title=" ">
<path fill="none" stroke="#63b8ff" d="M338.83,-362.87C323.07,-354.71 298.9,-342.2 278.71,-331.75"/>
<polygon fill="#63b8ff" stroke="#63b8ff" points="280.25,-328.6 269.76,-327.11 277.04,-334.82 280.25,-328.6"/>
</a>
</g>
</g>
<!-- Node12 -->
<g id="Node000012" class="node">
<title>Node12</title>
<g id="a_Node000012"><a xlink:href="InvalidPriceException_8h.html" target="_top" xlink:title=" ">
<polygon fill="white" stroke="#666666" points="848.5,-261 678.5,-261 678.5,-231 848.5,-231 848.5,-261"/>
<text text-anchor="start" x="686.5" y="-249" font-family="Helvetica,sans-Serif" font-size="10.00">Exception/PharmacyExceptions</text>
<text text-anchor="middle" x="763.5" y="-238" font-family="Helvetica,sans-Serif" font-size="10.00">/InvalidPriceException.h</text>
</a>
</g>
</g>
<!-- Node1&#45;&gt;Node12 -->
<g id="edge16_Node000001_Node000012" class="edge">
<title>Node1&#45;&gt;Node12</title>
<g id="a_edge16_Node000001_Node000012"><a xlink:title=" ">
<path fill="none" stroke="#63b8ff" d="M412.22,-367.63C466.86,-362.6 551.19,-351.38 620.5,-327 662.63,-312.18 706.88,-285.45 734.79,-266.99"/>
<polygon fill="#63b8ff" stroke="#63b8ff" points="736.9,-269.79 743.26,-261.31 733,-263.97 736.9,-269.79"/>
</a>
</g>
</g>
<!-- Node13 -->
<g id="Node000013" class="node">
<title>Node13</title>
<g id="a_Node000013"><a xlink:href="InvalidProductIdException_8h.html" target="_top" xlink:title=" ">
<polygon fill="white" stroke="#666666" points="484.5,-261 314.5,-261 314.5,-231 484.5,-231 484.5,-261"/>
<text text-anchor="start" x="322.5" y="-249" font-family="Helvetica,sans-Serif" font-size="10.00">Exception/PharmacyExceptions</text>
<text text-anchor="middle" x="399.5" y="-238" font-family="Helvetica,sans-Serif" font-size="10.00">/InvalidProductIdException.h</text>
</a>
</g>
</g>
<!-- Node1&#45;&gt;Node13 -->
<g id="edge18_Node000001_Node000013" class="edge">
<title>Node1&#45;&gt;Node13</title>
<g id="a_edge18_Node000001_Node000013"><a xlink:title=" ">
<path fill="none" stroke="#63b8ff" d="M358.52,-362.94C365.16,-344.15 381.22,-298.73 391.14,-270.64"/>
<polygon fill="#63b8ff" stroke="#63b8ff" points="394.46,-271.76 394.5,-261.16 387.86,-269.42 394.46,-271.76"/>
</a>
</g>
</g>
<!-- Node14 -->
<g id="Node000014" class="node">
<title>Node14</title>
<g id="a_Node000014"><a xlink:href="safeinput_8h.html" target="_top" xlink:title=" ">
<polygon fill="white" stroke="#666666" points="611.5,-321.5 489.5,-321.5 489.5,-302.5 611.5,-302.5 611.5,-321.5"/>
<text text-anchor="middle" x="550.5" y="-309.5" font-family="Helvetica,sans-Serif" font-size="10.00">Exception/safeinput.h</text>
</a>
</g>
</g>
<!-- Node1&#45;&gt;Node14 -->
<g id="edge21_Node000001_Node000014" class="edge">
<title>Node1&#45;&gt;Node14</title>
<g id="a_edge21_Node000001_Node000014"><a xlink:title=" ">
<path fill="none" stroke="#63b8ff" d="M383.85,-362.99C417.79,-352.81 474.76,-335.72 512.49,-324.4"/>
<polygon fill="#63b8ff" stroke="#63b8ff" points="513.54,-327.74 522.11,-321.52 511.53,-321.04 513.54,-327.74"/>
</a>
</g>
</g>
<!-- Node3 -->
<g id="Node000003" class="node">
<title>Node3</title>
<g id="a_Node000003"><a xlink:title=" ">
<polygon fill="#e0e0e0" stroke="#999999" points="353.5,-19 293.5,-19 293.5,0 353.5,0 353.5,-19"/>
<text text-anchor="middle" x="323.5" y="-7" font-family="Helvetica,sans-Serif" font-size="10.00">iostream</text>
</a>
</g>
</g>
<!-- Node2&#45;&gt;Node3 -->
<g id="edge2_Node000002_Node000003" class="edge">
<title>Node2&#45;&gt;Node3</title>
<g id="a_edge2_Node000002_Node000003"><a xlink:title=" ">
<path fill="none" stroke="#63b8ff" d="M44.81,-302.27C32.09,-281.92 2.5,-229.36 2.5,-181 2.5,-181 2.5,-181 2.5,-118.5 2.5,-59.88 197.24,-27.06 283.36,-15.41"/>
<polygon fill="#63b8ff" stroke="#63b8ff" points="283.85,-18.87 293.3,-14.09 282.93,-11.93 283.85,-18.87"/>
</a>
</g>
</g>
<!-- Node4 -->
<g id="Node000004" class="node">
<title>Node4</title>
<g id="a_Node000004"><a xlink:title=" ">
<polygon fill="#e0e0e0" stroke="#999999" points="136.5,-189.5 92.5,-189.5 92.5,-170.5 136.5,-170.5 136.5,-189.5"/>
<text text-anchor="middle" x="114.5" y="-177.5" font-family="Helvetica,sans-Serif" font-size="10.00">string</text>
</a>
</g>
</g>
<!-- Node2&#45;&gt;Node4 -->
<g id="edge3_Node000002_Node000004" class="edge">
<title>Node2&#45;&gt;Node4</title>
<g id="a_edge3_Node000002_Node000004"><a xlink:title=" ">
<path fill="none" stroke="#63b8ff" d="M54.7,-302.47C65,-281.54 91.71,-227.3 105.68,-198.91"/>
<polygon fill="#63b8ff" stroke="#63b8ff" points="108.92,-200.25 110.2,-189.73 102.64,-197.16 108.92,-200.25"/>
</a>
</g>
</g>
<!-- Node5 -->
<g id="Node000005" class="node">
<title>Node5</title>
<g id="a_Node000005"><a xlink:title=" ">
<polygon fill="#e0e0e0" stroke="#999999" points="74.5,-189.5 30.5,-189.5 30.5,-170.5 74.5,-170.5 74.5,-189.5"/>
<text text-anchor="middle" x="52.5" y="-177.5" font-family="Helvetica,sans-Serif" font-size="10.00">ctime</text>
</a>
</g>
</g>
<!-- Node2&#45;&gt;Node5 -->
<g id="edge4_Node000002_Node000005" class="edge">
<title>Node2&#45;&gt;Node5</title>
<g id="a_edge4_Node000002_Node000005"><a xlink:title=" ">
<path fill="none" stroke="#63b8ff" d="M50.63,-302.47C50.95,-281.82 51.77,-228.72 52.21,-200.04"/>
<polygon fill="#63b8ff" stroke="#63b8ff" points="55.71,-199.78 52.37,-189.73 48.71,-199.68 55.71,-199.78"/>
</a>
</g>
</g>
<!-- Node2&#45;&gt;Node6 -->
<g id="edge5_Node000002_Node000006" class="edge">
<title>Node2&#45;&gt;Node6</title>
<g id="a_edge5_Node000002_Node000006"><a xlink:title=" ">
<path fill="none" stroke="#63b8ff" d="M62.91,-302.37C77.86,-291.97 103.22,-274.32 121.3,-261.75"/>
<polygon fill="#63b8ff" stroke="#63b8ff" points="123.78,-264.28 130,-255.7 119.79,-258.54 123.78,-264.28"/>
</a>
</g>
</g>
<!-- Node6&#45;&gt;Node4 -->
<g id="edge8_Node000006_Node000004" class="edge">
<title>Node6&#45;&gt;Node4</title>
<g id="a_edge8_Node000006_Node000004"><a xlink:title=" ">
<path fill="none" stroke="#63b8ff" d="M138.72,-236.37C134.57,-226.88 127.78,-211.36 122.45,-199.16"/>
<polygon fill="#63b8ff" stroke="#63b8ff" points="125.61,-197.66 118.4,-189.91 119.2,-200.47 125.61,-197.66"/>
</a>
</g>
</g>
<!-- Node6&#45;&gt;Node5 -->
<g id="edge6_Node000006_Node000005" class="edge">
<title>Node6&#45;&gt;Node5</title>
<g id="a_edge6_Node000006_Node000005"><a xlink:title=" ">
<path fill="none" stroke="#63b8ff" d="M130.36,-236.37C115.73,-225.97 90.92,-208.32 73.24,-195.75"/>
<polygon fill="#63b8ff" stroke="#63b8ff" points="74.91,-192.64 64.73,-189.7 70.85,-198.35 74.91,-192.64"/>
</a>
</g>
</g>
<!-- Node7 -->
<g id="Node000007" class="node">
<title>Node7</title>
<g id="a_Node000007"><a xlink:title=" ">
<polygon fill="#e0e0e0" stroke="#999999" points="220,-189.5 155,-189.5 155,-170.5 220,-170.5 220,-189.5"/>
<text text-anchor="middle" x="187.5" y="-177.5" font-family="Helvetica,sans-Serif" font-size="10.00">stdexcept</text>
</a>
</g>
</g>
<!-- Node6&#45;&gt;Node7 -->
<g id="edge7_Node000006_Node000007" class="edge">
<title>Node6&#45;&gt;Node7</title>
<g id="a_edge7_Node000006_Node000007"><a xlink:title=" ">
<path fill="none" stroke="#63b8ff" d="M148.57,-236.37C155.37,-226.69 166.59,-210.74 175.24,-198.44"/>
<polygon fill="#63b8ff" stroke="#63b8ff" points="178.35,-200.1 181.24,-189.91 172.62,-196.07 178.35,-200.1"/>
</a>
</g>
</g>
<!-- Node9 -->
<g id="Node000009" class="node">
<title>Node9</title>
<g id="a_Node000009"><a xlink:href="MedicalProductException_8h.html" target="_top" xlink:title=" ">
<polygon fill="white" stroke="#666666" points="398,-129 249,-129 249,-110 398,-110 398,-129"/>
<text text-anchor="middle" x="323.5" y="-117" font-family="Helvetica,sans-Serif" font-size="10.00">MedicalProductException.h</text>
</a>
</g>
</g>
<!-- Node8&#45;&gt;Node9 -->
<g id="edge10_Node000008_Node000009" class="edge">
<title>Node8&#45;&gt;Node9</title>
<g id="a_edge10_Node000008_Node000009"><a xlink:title=" ">
<path fill="none" stroke="#63b8ff" d="M381.1,-164.84C369.62,-156 354.85,-144.63 343.14,-135.62"/>
<polygon fill="#63b8ff" stroke="#63b8ff" points="344.95,-132.59 334.89,-129.27 340.68,-138.14 344.95,-132.59"/>
</a>
</g>
</g>
<!-- Node10 -->
<g id="Node000010" class="node">
<title>Node10</title>
<g id="a_Node000010"><a xlink:href="PharmacyException_8h.html" target="_top" xlink:title=" ">
<polygon fill="white" stroke="#666666" points="384.5,-74 262.5,-74 262.5,-55 384.5,-55 384.5,-74"/>
<text text-anchor="middle" x="323.5" y="-62" font-family="Helvetica,sans-Serif" font-size="10.00">PharmacyException.h</text>
</a>
</g>
</g>
<!-- Node9&#45;&gt;Node10 -->
<g id="edge11_Node000009_Node000010" class="edge">
<title>Node9&#45;&gt;Node10</title>
<g id="a_edge11_Node000009_Node000010"><a xlink:title=" ">
<path fill="none" stroke="#63b8ff" d="M323.5,-109.75C323.5,-102.8 323.5,-92.85 323.5,-84.13"/>
<polygon fill="#63b8ff" stroke="#63b8ff" points="327,-84.09 323.5,-74.09 320,-84.09 327,-84.09"/>
</a>
</g>
</g>
<!-- Node10&#45;&gt;Node3 -->
<g id="edge12_Node000010_Node000003" class="edge">
<title>Node10&#45;&gt;Node3</title>
<g id="a_edge12_Node000010_Node000003"><a xlink:title=" ">
<path fill="none" stroke="#63b8ff" d="M323.5,-54.75C323.5,-47.8 323.5,-37.85 323.5,-29.13"/>
<polygon fill="#63b8ff" stroke="#63b8ff" points="327,-29.09 323.5,-19.09 320,-29.09 327,-29.09"/>
</a>
</g>
</g>
<!-- Node11&#45;&gt;Node6 -->
<g id="edge15_Node000011_Node000006" class="edge">
<title>Node11&#45;&gt;Node6</title>
<g id="a_edge15_Node000011_Node000006"><a xlink:title=" ">
<path fill="none" stroke="#63b8ff" d="M220.31,-296.8C203.7,-286.17 181.1,-271.7 164.53,-261.1"/>
<polygon fill="#63b8ff" stroke="#63b8ff" points="166.34,-258.1 156.03,-255.66 162.56,-264 166.34,-258.1"/>
</a>
</g>
</g>
<!-- Node11&#45;&gt;Node9 -->
<g id="edge14_Node000011_Node000009" class="edge">
<title>Node11&#45;&gt;Node9</title>
<g id="a_edge14_Node000011_Node000009"><a xlink:title=" ">
<path fill="none" stroke="#63b8ff" d="M248.46,-296.99C262.88,-263.06 299.69,-176.49 315.78,-138.66"/>
<polygon fill="#63b8ff" stroke="#63b8ff" points="319.04,-139.93 319.73,-129.36 312.6,-137.19 319.04,-139.93"/>
</a>
</g>
</g>
<!-- Node12&#45;&gt;Node8 -->
<g id="edge17_Node000012_Node000008" class="edge">
<title>Node12&#45;&gt;Node8</title>
<g id="a_edge17_Node000012_Node000008"><a xlink:title=" ">
<path fill="none" stroke="#63b8ff" d="M683.62,-230.95C626.25,-220.87 548.86,-207.26 489.34,-196.8"/>
<polygon fill="#63b8ff" stroke="#63b8ff" points="489.65,-193.3 479.2,-195.01 488.44,-200.19 489.65,-193.3"/>
</a>
</g>
</g>
<!-- Node13&#45;&gt;Node8 -->
<g id="edge19_Node000013_Node000008" class="edge">
<title>Node13&#45;&gt;Node8</title>
<g id="a_edge19_Node000013_Node000008"><a xlink:title=" ">
<path fill="none" stroke="#63b8ff" d="M399.5,-230.8C399.5,-223.34 399.5,-213.99 399.5,-205.41"/>
<polygon fill="#63b8ff" stroke="#63b8ff" points="403,-205.16 399.5,-195.16 396,-205.16 403,-205.16"/>
</a>
</g>
</g>
<!-- Node14&#45;&gt;Node3 -->
<g id="edge22_Node000014_Node000003" class="edge">
<title>Node14&#45;&gt;Node3</title>
<g id="a_edge22_Node000014_Node000003"><a xlink:title=" ">
<path fill="none" stroke="#63b8ff" d="M573.94,-302.4C592.35,-294.44 617.18,-280.83 631.5,-261 652.9,-231.37 650.5,-217.54 650.5,-181 650.5,-181 650.5,-181 650.5,-118.5 650.5,-58.75 451.16,-26.47 363.76,-15.18"/>
<polygon fill="#63b8ff" stroke="#63b8ff" points="364.04,-11.69 353.68,-13.91 363.16,-18.63 364.04,-11.69"/>
</a>
</g>
</g>
<!-- Node14&#45;&gt;Node4 -->
<g id="edge23_Node000014_Node000004" class="edge">
<title>Node14&#45;&gt;Node4</title>
<g id="a_edge23_Node000014_Node000004"><a xlink:title=" ">
<path fill="none" stroke="#63b8ff" d="M547.23,-302.39C540.27,-285.39 522.24,-247.74 493.5,-231 359.14,-152.74 295.62,-235.52 145.5,-195 143.81,-194.55 142.1,-194.01 140.4,-193.42"/>
<polygon fill="#63b8ff" stroke="#63b8ff" points="141.45,-190.07 130.87,-189.57 138.83,-196.56 141.45,-190.07"/>
</a>
</g>
</g>
<!-- Node14&#45;&gt;Node8 -->
<g id="edge25_Node000014_Node000008" class="edge">
<title>Node14&#45;&gt;Node8</title>
<g id="a_edge25_Node000014_Node000008"><a xlink:title=" ">
<path fill="none" stroke="#63b8ff" d="M550.28,-302.34C549.42,-286.25 545.35,-251.49 526.5,-231 513.11,-216.44 494.96,-206.07 476.57,-198.69"/>
<polygon fill="#63b8ff" stroke="#63b8ff" points="477.54,-195.32 466.95,-195.1 475.09,-201.87 477.54,-195.32"/>
</a>
</g>
</g>
<!-- Node14&#45;&gt;Node12 -->
<g id="edge26_Node000014_Node000012" class="edge">
<title>Node14&#45;&gt;Node12</title>
<g id="a_edge26_Node000014_Node000012"><a xlink:title=" ">
<path fill="none" stroke="#63b8ff" d="M579.23,-302.37C611.82,-292.58 665.77,-276.37 706.9,-264.01"/>
<polygon fill="#63b8ff" stroke="#63b8ff" points="707.95,-267.35 716.52,-261.12 705.94,-260.64 707.95,-267.35"/>
</a>
</g>
</g>
<!-- Node14&#45;&gt;Node13 -->
<g id="edge27_Node000014_Node000013" class="edge">
<title>Node14&#45;&gt;Node13</title>
<g id="a_edge27_Node000014_Node000013"><a xlink:title=" ">
<path fill="none" stroke="#63b8ff" d="M530.14,-302.37C507.71,-292.87 471.03,-277.32 442.23,-265.11"/>
<polygon fill="#63b8ff" stroke="#63b8ff" points="443.38,-261.8 432.8,-261.12 440.65,-268.24 443.38,-261.8"/>
</a>
</g>
</g>
<!-- Node15 -->
<g id="Node000015" class="node">
<title>Node15</title>
<g id="a_Node000015"><a xlink:title=" ">
<polygon fill="#e0e0e0" stroke="#999999" points="622.5,-255.5 578.5,-255.5 578.5,-236.5 622.5,-236.5 622.5,-255.5"/>
<text text-anchor="middle" x="600.5" y="-243.5" font-family="Helvetica,sans-Serif" font-size="10.00">limits</text>
</a>
</g>
</g>
<!-- Node14&#45;&gt;Node15 -->
<g id="edge24_Node000014_Node000015" class="edge">
<title>Node14&#45;&gt;Node15</title>
<g id="a_edge24_Node000014_Node000015"><a xlink:title=" ">
<path fill="none" stroke="#63b8ff" d="M557.24,-302.37C564.88,-292.59 577.51,-276.42 587.16,-264.08"/>
<polygon fill="#63b8ff" stroke="#63b8ff" points="590.14,-265.94 593.54,-255.91 584.63,-261.63 590.14,-265.94"/>
</a>
</g>
</g>
</g>
</svg>
