<?xml version="1.0" encoding="UTF-8" standalone="no"?>
<!DOCTYPE svg PUBLIC "-//W3C//DTD SVG 1.1//EN"
 "http://www.w3.org/Graphics/SVG/1.1/DTD/svg11.dtd">
<!-- Generated by graphviz version 2.43.0 (0)
 -->
<!-- Title: build/Desktop&#45;Debug/moc_mainwindow.cpp Pages: 1 -->
<svg width="2491pt" height="434pt"
 viewBox="0.00 0.00 2491.00 434.00" xmlns="http://www.w3.org/2000/svg" xmlns:xlink="http://www.w3.org/1999/xlink">
<g id="graph0" class="graph" transform="scale(1 1) rotate(0) translate(4 430)">
<title>build/Desktop&#45;Debug/moc_mainwindow.cpp</title>
<!-- Node1 -->
<g id="Node000001" class="node">
<title>Node1</title>
<g id="a_Node000001"><a xlink:title=" ">
<polygon fill="#999999" stroke="#666666" points="2315,-426 2187,-426 2187,-396 2315,-396 2315,-426"/>
<text text-anchor="start" x="2195" y="-414" font-family="Helvetica,sans-Serif" font-size="10.00">build/Desktop&#45;Debug</text>
<text text-anchor="middle" x="2251" y="-403" font-family="Helvetica,sans-Serif" font-size="10.00">/moc_mainwindow.cpp</text>
</a>
</g>
</g>
<!-- Node2 -->
<g id="Node000002" class="node">
<title>Node2</title>
<g id="a_Node000002"><a xlink:title=" ">
<polygon fill="#e0e0e0" stroke="#999999" points="1413,-129 1355,-129 1355,-110 1413,-110 1413,-129"/>
<text text-anchor="middle" x="1384" y="-117" font-family="Helvetica,sans-Serif" font-size="10.00">memory</text>
</a>
</g>
</g>
<!-- Node1&#45;&gt;Node2 -->
<g id="edge1_Node000001_Node000002" class="edge">
<title>Node1&#45;&gt;Node2</title>
<g id="a_edge1_Node000001_Node000002"><a xlink:title=" ">
<path fill="none" stroke="#63b8ff" d="M2242.09,-395.93C2229.76,-375.07 2209,-334.32 2209,-296.5 2209,-296.5 2209,-296.5 2209,-234 2209,-117.45 2070.93,-184.35 1956,-165 1724.64,-126.05 1659.2,-162.05 1423.29,-128.95"/>
<polygon fill="#63b8ff" stroke="#63b8ff" points="1423.77,-125.49 1413.38,-127.54 1422.78,-132.42 1423.77,-125.49"/>
</a>
</g>
</g>
<!-- Node3 -->
<g id="Node000003" class="node">
<title>Node3</title>
<g id="a_Node000003"><a xlink:href="mainwindow_8h.html" target="_top" xlink:title=" ">
<polygon fill="white" stroke="#666666" points="604.5,-360 499.5,-360 499.5,-341 604.5,-341 604.5,-360"/>
<text text-anchor="middle" x="552" y="-348" font-family="Helvetica,sans-Serif" font-size="10.00">../../mainwindow.h</text>
</a>
</g>
</g>
<!-- Node1&#45;&gt;Node3 -->
<g id="edge2_Node000001_Node000003" class="edge">
<title>Node1&#45;&gt;Node3</title>
<g id="a_edge2_Node000001_Node000003"><a xlink:title=" ">
<path fill="none" stroke="#63b8ff" d="M2186.99,-407.8C1918.2,-398.54 882.43,-362.88 615.2,-353.68"/>
<polygon fill="#63b8ff" stroke="#63b8ff" points="615.02,-350.17 604.9,-353.32 614.78,-357.16 615.02,-350.17"/>
</a>
</g>
</g>
<!-- Node42 -->
<g id="Node000042" class="node">
<title>Node42</title>
<g id="a_Node000042"><a xlink:title=" ">
<polygon fill="#e0e0e0" stroke="#999999" points="2348.5,-360 2237.5,-360 2237.5,-341 2348.5,-341 2348.5,-360"/>
<text text-anchor="middle" x="2293" y="-348" font-family="Helvetica,sans-Serif" font-size="10.00">QtGui/qtextcursor.h</text>
</a>
</g>
</g>
<!-- Node1&#45;&gt;Node42 -->
<g id="edge71_Node000001_Node000042" class="edge">
<title>Node1&#45;&gt;Node42</title>
<g id="a_edge71_Node000001_Node000042"><a xlink:title=" ">
<path fill="none" stroke="#63b8ff" d="M2261.17,-395.84C2267.08,-387.61 2274.56,-377.18 2280.79,-368.51"/>
<polygon fill="#63b8ff" stroke="#63b8ff" points="2283.72,-370.43 2286.71,-360.27 2278.03,-366.35 2283.72,-370.43"/>
</a>
</g>
</g>
<!-- Node43 -->
<g id="Node000043" class="node">
<title>Node43</title>
<g id="a_Node000043"><a xlink:title=" ">
<polygon fill="#e0e0e0" stroke="#999999" points="2483,-360 2367,-360 2367,-341 2483,-341 2483,-360"/>
<text text-anchor="middle" x="2425" y="-348" font-family="Helvetica,sans-Serif" font-size="10.00">QtCore/qmetatype.h</text>
</a>
</g>
</g>
<!-- Node1&#45;&gt;Node43 -->
<g id="edge72_Node000001_Node000043" class="edge">
<title>Node1&#45;&gt;Node43</title>
<g id="a_edge72_Node000001_Node000043"><a xlink:title=" ">
<path fill="none" stroke="#63b8ff" d="M2292.68,-395.99C2322.32,-386.02 2361.69,-372.78 2389.77,-363.35"/>
<polygon fill="#63b8ff" stroke="#63b8ff" points="2391.2,-366.56 2399.56,-360.05 2388.96,-359.92 2391.2,-366.56"/>
</a>
</g>
</g>
<!-- Node4 -->
<g id="Node000004" class="node">
<title>Node4</title>
<g id="a_Node000004"><a xlink:title=" ">
<polygon fill="#e0e0e0" stroke="#999999" points="1482.5,-305 1395.5,-305 1395.5,-286 1482.5,-286 1482.5,-305"/>
<text text-anchor="middle" x="1439" y="-293" font-family="Helvetica,sans-Serif" font-size="10.00">QMainWindow</text>
</a>
</g>
</g>
<!-- Node3&#45;&gt;Node4 -->
<g id="edge3_Node000003_Node000004" class="edge">
<title>Node3&#45;&gt;Node4</title>
<g id="a_edge3_Node000003_Node000004"><a xlink:title=" ">
<path fill="none" stroke="#63b8ff" d="M604.91,-348.68C735.67,-346.21 1084.61,-337.02 1385.13,-305.09"/>
<polygon fill="#63b8ff" stroke="#63b8ff" points="1385.78,-308.54 1395.35,-303.99 1385.04,-301.58 1385.78,-308.54"/>
</a>
</g>
</g>
<!-- Node5 -->
<g id="Node000005" class="node">
<title>Node5</title>
<g id="a_Node000005"><a xlink:title=" ">
<polygon fill="#e0e0e0" stroke="#999999" points="237.5,-305 186.5,-305 186.5,-286 237.5,-286 237.5,-305"/>
<text text-anchor="middle" x="212" y="-293" font-family="Helvetica,sans-Serif" font-size="10.00">QStack</text>
</a>
</g>
</g>
<!-- Node3&#45;&gt;Node5 -->
<g id="edge4_Node000003_Node000005" class="edge">
<title>Node3&#45;&gt;Node5</title>
<g id="a_edge4_Node000003_Node000005"><a xlink:title=" ">
<path fill="none" stroke="#63b8ff" d="M499.4,-343.34C440.5,-336.11 342.01,-323 247.56,-304.93"/>
<polygon fill="#63b8ff" stroke="#63b8ff" points="248.04,-301.46 237.55,-303 246.71,-308.33 248.04,-301.46"/>
</a>
</g>
</g>
<!-- Node6 -->
<g id="Node000006" class="node">
<title>Node6</title>
<g id="a_Node000006"><a xlink:title=" ">
<polygon fill="#e0e0e0" stroke="#999999" points="330.5,-305 255.5,-305 255.5,-286 330.5,-286 330.5,-305"/>
<text text-anchor="middle" x="293" y="-293" font-family="Helvetica,sans-Serif" font-size="10.00">QCompleter</text>
</a>
</g>
</g>
<!-- Node3&#45;&gt;Node6 -->
<g id="edge5_Node000003_Node000006" class="edge">
<title>Node3&#45;&gt;Node6</title>
<g id="a_edge5_Node000003_Node000006"><a xlink:title=" ">
<path fill="none" stroke="#63b8ff" d="M510.39,-340.98C464.06,-331.51 389.33,-316.21 340.68,-306.26"/>
<polygon fill="#63b8ff" stroke="#63b8ff" points="341.22,-302.79 330.72,-304.22 339.81,-309.65 341.22,-302.79"/>
</a>
</g>
</g>
<!-- Node7 -->
<g id="Node000007" class="node">
<title>Node7</title>
<g id="a_Node000007"><a xlink:href="addproductdialog_8h.html" target="_top" xlink:title=" ">
<polygon fill="white" stroke="#666666" points="657,-305 547,-305 547,-286 657,-286 657,-305"/>
<text text-anchor="middle" x="602" y="-293" font-family="Helvetica,sans-Serif" font-size="10.00">addproductdialog.h</text>
</a>
</g>
</g>
<!-- Node3&#45;&gt;Node7 -->
<g id="edge6_Node000003_Node000007" class="edge">
<title>Node3&#45;&gt;Node7</title>
<g id="a_edge6_Node000003_Node000007"><a xlink:title=" ">
<path fill="none" stroke="#63b8ff" d="M560.26,-340.75C567.46,-333.11 578.11,-321.82 586.85,-312.56"/>
<polygon fill="#63b8ff" stroke="#63b8ff" points="589.58,-314.76 593.9,-305.09 584.49,-309.96 589.58,-314.76"/>
</a>
</g>
</g>
<!-- Node18 -->
<g id="Node000018" class="node">
<title>Node18</title>
<g id="a_Node000018"><a xlink:href="medicalproduct_8h.html" target="_top" xlink:title=" ">
<polygon fill="white" stroke="#666666" points="1672.5,-129 1571.5,-129 1571.5,-110 1672.5,-110 1672.5,-129"/>
<text text-anchor="middle" x="1622" y="-117" font-family="Helvetica,sans-Serif" font-size="10.00">medicalproduct.h</text>
</a>
</g>
</g>
<!-- Node3&#45;&gt;Node18 -->
<g id="edge17_Node000003_Node000018" class="edge">
<title>Node3&#45;&gt;Node18</title>
<g id="a_edge17_Node000003_Node000018"><a xlink:title=" ">
<path fill="none" stroke="#63b8ff" d="M604.79,-348.23C874.67,-341.48 2089.74,-307.95 2143,-250 2213.1,-173.73 2157.81,-202.81 2016,-165 1900.78,-134.28 1761.09,-124.76 1682.8,-121.81"/>
<polygon fill="#63b8ff" stroke="#63b8ff" points="1682.75,-118.31 1672.64,-121.45 1682.51,-125.3 1682.75,-118.31"/>
</a>
</g>
</g>
<!-- Node24 -->
<g id="Node000024" class="node">
<title>Node24</title>
<g id="a_Node000024"><a xlink:href="pharmacymanager_8h.html" target="_top" xlink:title=" ">
<polygon fill="white" stroke="#666666" points="1377.5,-305 1260.5,-305 1260.5,-286 1377.5,-286 1377.5,-305"/>
<text text-anchor="middle" x="1319" y="-293" font-family="Helvetica,sans-Serif" font-size="10.00">pharmacymanager.h</text>
</a>
</g>
</g>
<!-- Node3&#45;&gt;Node24 -->
<g id="edge25_Node000003_Node000024" class="edge">
<title>Node3&#45;&gt;Node24</title>
<g id="a_edge25_Node000003_Node000024"><a xlink:title=" ">
<path fill="none" stroke="#63b8ff" d="M604.72,-345.86C739.95,-336.51 1099.14,-311.69 1250.36,-301.24"/>
<polygon fill="#63b8ff" stroke="#63b8ff" points="1250.72,-304.73 1260.45,-300.55 1250.23,-297.74 1250.72,-304.73"/>
</a>
</g>
</g>
<!-- Node39 -->
<g id="Node000039" class="node">
<title>Node39</title>
<g id="a_Node000039"><a xlink:href="tablet_8h.html" target="_top" xlink:title=" ">
<polygon fill="white" stroke="#666666" points="54,-244.5 0,-244.5 0,-225.5 54,-225.5 54,-244.5"/>
<text text-anchor="middle" x="27" y="-232.5" font-family="Helvetica,sans-Serif" font-size="10.00">tablet.h</text>
</a>
</g>
</g>
<!-- Node3&#45;&gt;Node39 -->
<g id="edge64_Node000003_Node000039" class="edge">
<title>Node3&#45;&gt;Node39</title>
<g id="a_edge64_Node000003_Node000039"><a xlink:title=" ">
<path fill="none" stroke="#63b8ff" d="M507.95,-340.96C472.29,-333.4 421.09,-321.07 378,-305 360.31,-298.4 358.05,-291.54 340,-286 223.42,-250.24 186.72,-277.84 68,-250 65.02,-249.3 61.95,-248.47 58.9,-247.57"/>
<polygon fill="#63b8ff" stroke="#63b8ff" points="59.91,-244.22 49.32,-244.51 57.79,-250.89 59.91,-244.22"/>
</a>
</g>
</g>
<!-- Node40 -->
<g id="Node000040" class="node">
<title>Node40</title>
<g id="a_Node000040"><a xlink:href="ointment_8h.html" target="_top" xlink:title=" ">
<polygon fill="white" stroke="#666666" points="457,-305 387,-305 387,-286 457,-286 457,-305"/>
<text text-anchor="middle" x="422" y="-293" font-family="Helvetica,sans-Serif" font-size="10.00">ointment.h</text>
</a>
</g>
</g>
<!-- Node3&#45;&gt;Node40 -->
<g id="edge67_Node000003_Node000040" class="edge">
<title>Node3&#45;&gt;Node40</title>
<g id="a_edge67_Node000003_Node000040"><a xlink:title=" ">
<path fill="none" stroke="#63b8ff" d="M531.11,-340.98C509.92,-332.34 476.87,-318.87 452.7,-309.02"/>
<polygon fill="#63b8ff" stroke="#63b8ff" points="453.85,-305.7 443.27,-305.17 451.21,-312.19 453.85,-305.7"/>
</a>
</g>
</g>
<!-- Node41 -->
<g id="Node000041" class="node">
<title>Node41</title>
<g id="a_Node000041"><a xlink:href="syrup_8h.html" target="_top" xlink:title=" ">
<polygon fill="white" stroke="#666666" points="528.5,-305 475.5,-305 475.5,-286 528.5,-286 528.5,-305"/>
<text text-anchor="middle" x="502" y="-293" font-family="Helvetica,sans-Serif" font-size="10.00">syrup.h</text>
</a>
</g>
</g>
<!-- Node3&#45;&gt;Node41 -->
<g id="edge69_Node000003_Node000041" class="edge">
<title>Node3&#45;&gt;Node41</title>
<g id="a_edge69_Node000003_Node000041"><a xlink:title=" ">
<path fill="none" stroke="#63b8ff" d="M543.74,-340.75C536.54,-333.11 525.89,-321.82 517.15,-312.56"/>
<polygon fill="#63b8ff" stroke="#63b8ff" points="519.51,-309.96 510.1,-305.09 514.42,-314.76 519.51,-309.96"/>
</a>
</g>
</g>
<!-- Node8 -->
<g id="Node000008" class="node">
<title>Node8</title>
<g id="a_Node000008"><a xlink:title=" ">
<polygon fill="#e0e0e0" stroke="#999999" points="376,-244.5 320,-244.5 320,-225.5 376,-225.5 376,-244.5"/>
<text text-anchor="middle" x="348" y="-232.5" font-family="Helvetica,sans-Serif" font-size="10.00">QDialog</text>
</a>
</g>
</g>
<!-- Node7&#45;&gt;Node8 -->
<g id="edge7_Node000007_Node000008" class="edge">
<title>Node7&#45;&gt;Node8</title>
<g id="a_edge7_Node000007_Node000008"><a xlink:title=" ">
<path fill="none" stroke="#63b8ff" d="M549.53,-285.96C505.46,-278.25 441.04,-265.71 386,-250 383.72,-249.35 381.38,-248.63 379.03,-247.86"/>
<polygon fill="#63b8ff" stroke="#63b8ff" points="380.11,-244.53 369.52,-244.56 377.82,-251.15 380.11,-244.53"/>
</a>
</g>
</g>
<!-- Node9 -->
<g id="Node000009" class="node">
<title>Node9</title>
<g id="a_Node000009"><a xlink:title=" ">
<polygon fill="#e0e0e0" stroke="#999999" points="457.5,-244.5 394.5,-244.5 394.5,-225.5 457.5,-225.5 457.5,-244.5"/>
<text text-anchor="middle" x="426" y="-232.5" font-family="Helvetica,sans-Serif" font-size="10.00">QLineEdit</text>
</a>
</g>
</g>
<!-- Node7&#45;&gt;Node9 -->
<g id="edge8_Node000007_Node000009" class="edge">
<title>Node7&#45;&gt;Node9</title>
<g id="a_edge8_Node000007_Node000009"><a xlink:title=" ">
<path fill="none" stroke="#63b8ff" d="M575.84,-285.97C548.62,-277.07 504.78,-262.68 467,-250 464.91,-249.3 462.77,-248.58 460.61,-247.85"/>
<polygon fill="#63b8ff" stroke="#63b8ff" points="461.73,-244.53 451.14,-244.63 459.48,-251.16 461.73,-244.53"/>
</a>
</g>
</g>
<!-- Node10 -->
<g id="Node000010" class="node">
<title>Node10</title>
<g id="a_Node000010"><a xlink:title=" ">
<polygon fill="#e0e0e0" stroke="#999999" points="552.5,-244.5 475.5,-244.5 475.5,-225.5 552.5,-225.5 552.5,-244.5"/>
<text text-anchor="middle" x="514" y="-232.5" font-family="Helvetica,sans-Serif" font-size="10.00">QComboBox</text>
</a>
</g>
</g>
<!-- Node7&#45;&gt;Node10 -->
<g id="edge9_Node000007_Node000010" class="edge">
<title>Node7&#45;&gt;Node10</title>
<g id="a_edge9_Node000007_Node000010"><a xlink:title=" ">
<path fill="none" stroke="#63b8ff" d="M589.02,-285.87C574.98,-276.54 552.37,-261.51 535.64,-250.38"/>
<polygon fill="#63b8ff" stroke="#63b8ff" points="537.3,-247.29 527.04,-244.67 533.43,-253.12 537.3,-247.29"/>
</a>
</g>
</g>
<!-- Node11 -->
<g id="Node000011" class="node">
<title>Node11</title>
<g id="a_Node000011"><a xlink:title=" ">
<polygon fill="#e0e0e0" stroke="#999999" points="633.5,-244.5 570.5,-244.5 570.5,-225.5 633.5,-225.5 633.5,-244.5"/>
<text text-anchor="middle" x="602" y="-232.5" font-family="Helvetica,sans-Serif" font-size="10.00">QTextEdit</text>
</a>
</g>
</g>
<!-- Node7&#45;&gt;Node11 -->
<g id="edge10_Node000007_Node000011" class="edge">
<title>Node7&#45;&gt;Node11</title>
<g id="a_edge10_Node000007_Node000011"><a xlink:title=" ">
<path fill="none" stroke="#63b8ff" d="M602,-285.87C602,-277.75 602,-265.31 602,-254.89"/>
<polygon fill="#63b8ff" stroke="#63b8ff" points="605.5,-254.67 602,-244.67 598.5,-254.67 605.5,-254.67"/>
</a>
</g>
</g>
<!-- Node12 -->
<g id="Node000012" class="node">
<title>Node12</title>
<g id="a_Node000012"><a xlink:title=" ">
<polygon fill="#e0e0e0" stroke="#999999" points="750,-244.5 652,-244.5 652,-225.5 750,-225.5 750,-244.5"/>
<text text-anchor="middle" x="701" y="-232.5" font-family="Helvetica,sans-Serif" font-size="10.00">QDoubleSpinBox</text>
</a>
</g>
</g>
<!-- Node7&#45;&gt;Node12 -->
<g id="edge11_Node000007_Node000012" class="edge">
<title>Node7&#45;&gt;Node12</title>
<g id="a_edge11_Node000007_Node000012"><a xlink:title=" ">
<path fill="none" stroke="#63b8ff" d="M616.61,-285.87C632.69,-276.36 658.78,-260.95 677.7,-249.77"/>
<polygon fill="#63b8ff" stroke="#63b8ff" points="679.5,-252.77 686.33,-244.67 675.94,-246.74 679.5,-252.77"/>
</a>
</g>
</g>
<!-- Node13 -->
<g id="Node000013" class="node">
<title>Node13</title>
<g id="a_Node000013"><a xlink:title=" ">
<polygon fill="#e0e0e0" stroke="#999999" points="834,-244.5 768,-244.5 768,-225.5 834,-225.5 834,-244.5"/>
<text text-anchor="middle" x="801" y="-232.5" font-family="Helvetica,sans-Serif" font-size="10.00">QDateEdit</text>
</a>
</g>
</g>
<!-- Node7&#45;&gt;Node13 -->
<g id="edge12_Node000007_Node000013" class="edge">
<title>Node7&#45;&gt;Node13</title>
<g id="a_edge12_Node000007_Node000013"><a xlink:title=" ">
<path fill="none" stroke="#63b8ff" d="M633.7,-285.97C665.5,-277.31 715.82,-263.31 759,-250 761.29,-249.29 763.65,-248.55 766.03,-247.79"/>
<polygon fill="#63b8ff" stroke="#63b8ff" points="767.32,-251.05 775.74,-244.63 765.15,-244.4 767.32,-251.05"/>
</a>
</g>
</g>
<!-- Node14 -->
<g id="Node000014" class="node">
<title>Node14</title>
<g id="a_Node000014"><a xlink:title=" ">
<polygon fill="#e0e0e0" stroke="#999999" points="925.5,-244.5 852.5,-244.5 852.5,-225.5 925.5,-225.5 925.5,-244.5"/>
<text text-anchor="middle" x="889" y="-232.5" font-family="Helvetica,sans-Serif" font-size="10.00">QCheckBox</text>
</a>
</g>
</g>
<!-- Node7&#45;&gt;Node14 -->
<g id="edge13_Node000007_Node000014" class="edge">
<title>Node7&#45;&gt;Node14</title>
<g id="a_edge13_Node000007_Node000014"><a xlink:title=" ">
<path fill="none" stroke="#63b8ff" d="M657.41,-286.09C706.5,-278.21 779.96,-265.36 843,-250 846.35,-249.18 849.81,-248.27 853.26,-247.31"/>
<polygon fill="#63b8ff" stroke="#63b8ff" points="854.24,-250.66 862.87,-244.51 852.29,-243.94 854.24,-250.66"/>
</a>
</g>
</g>
<!-- Node15 -->
<g id="Node000015" class="node">
<title>Node15</title>
<g id="a_Node000015"><a xlink:title=" ">
<polygon fill="#e0e0e0" stroke="#999999" points="990.5,-244.5 943.5,-244.5 943.5,-225.5 990.5,-225.5 990.5,-244.5"/>
<text text-anchor="middle" x="967" y="-232.5" font-family="Helvetica,sans-Serif" font-size="10.00">QDate</text>
</a>
</g>
</g>
<!-- Node7&#45;&gt;Node15 -->
<g id="edge14_Node000007_Node000015" class="edge">
<title>Node7&#45;&gt;Node15</title>
<g id="a_edge14_Node000007_Node000015"><a xlink:title=" ">
<path fill="none" stroke="#63b8ff" d="M657.16,-291.85C723.99,-287.56 839.51,-276.7 935,-250 936.69,-249.53 938.4,-248.99 940.11,-248.39"/>
<polygon fill="#63b8ff" stroke="#63b8ff" points="941.7,-251.53 949.72,-244.61 939.13,-245.02 941.7,-251.53"/>
</a>
</g>
</g>
<!-- Node16 -->
<g id="Node000016" class="node">
<title>Node16</title>
<g id="a_Node000016"><a xlink:title=" ">
<polygon fill="#e0e0e0" stroke="#999999" points="212,-244.5 148,-244.5 148,-225.5 212,-225.5 212,-244.5"/>
<text text-anchor="middle" x="180" y="-232.5" font-family="Helvetica,sans-Serif" font-size="10.00">QSpinBox</text>
</a>
</g>
</g>
<!-- Node7&#45;&gt;Node16 -->
<g id="edge15_Node000007_Node000016" class="edge">
<title>Node7&#45;&gt;Node16</title>
<g id="a_edge15_Node000007_Node000016"><a xlink:title=" ">
<path fill="none" stroke="#63b8ff" d="M546.85,-287.11C543.86,-286.73 540.89,-286.36 538,-286 397.27,-268.67 359.34,-281.09 221,-250 218.01,-249.33 214.94,-248.52 211.89,-247.63"/>
<polygon fill="#63b8ff" stroke="#63b8ff" points="212.9,-244.28 202.31,-244.59 210.78,-250.95 212.9,-244.28"/>
</a>
</g>
</g>
<!-- Node17 -->
<g id="Node000017" class="node">
<title>Node17</title>
<g id="a_Node000017"><a xlink:title=" ">
<polygon fill="#e0e0e0" stroke="#999999" points="302,-244.5 230,-244.5 230,-225.5 302,-225.5 302,-244.5"/>
<text text-anchor="middle" x="266" y="-232.5" font-family="Helvetica,sans-Serif" font-size="10.00">QGroupBox</text>
</a>
</g>
</g>
<!-- Node7&#45;&gt;Node17 -->
<g id="edge16_Node000007_Node000017" class="edge">
<title>Node7&#45;&gt;Node17</title>
<g id="a_edge16_Node000007_Node000017"><a xlink:title=" ">
<path fill="none" stroke="#63b8ff" d="M546.74,-287.06C475.25,-277.25 354.7,-260.08 311,-250 307.63,-249.22 304.14,-248.32 300.67,-247.35"/>
<polygon fill="#63b8ff" stroke="#63b8ff" points="301.63,-243.99 291.05,-244.52 299.65,-250.7 301.63,-243.99"/>
</a>
</g>
</g>
<!-- Node19 -->
<g id="Node000019" class="node">
<title>Node19</title>
<g id="a_Node000019"><a xlink:title=" ">
<polygon fill="#e0e0e0" stroke="#999999" points="1522,-74 1462,-74 1462,-55 1522,-55 1522,-74"/>
<text text-anchor="middle" x="1492" y="-62" font-family="Helvetica,sans-Serif" font-size="10.00">iostream</text>
</a>
</g>
</g>
<!-- Node18&#45;&gt;Node19 -->
<g id="edge18_Node000018_Node000019" class="edge">
<title>Node18&#45;&gt;Node19</title>
<g id="a_edge18_Node000018_Node000019"><a xlink:title=" ">
<path fill="none" stroke="#63b8ff" d="M1601.11,-109.98C1579.92,-101.34 1546.87,-87.87 1522.7,-78.02"/>
<polygon fill="#63b8ff" stroke="#63b8ff" points="1523.85,-74.7 1513.27,-74.17 1521.21,-81.19 1523.85,-74.7"/>
</a>
</g>
</g>
<!-- Node20 -->
<g id="Node000020" class="node">
<title>Node20</title>
<g id="a_Node000020"><a xlink:title=" ">
<polygon fill="#e0e0e0" stroke="#999999" points="1461,-19 1417,-19 1417,0 1461,0 1461,-19"/>
<text text-anchor="middle" x="1439" y="-7" font-family="Helvetica,sans-Serif" font-size="10.00">string</text>
</a>
</g>
</g>
<!-- Node18&#45;&gt;Node20 -->
<g id="edge19_Node000018_Node000020" class="edge">
<title>Node18&#45;&gt;Node20</title>
<g id="a_edge19_Node000018_Node000020"><a xlink:title=" ">
<path fill="none" stroke="#63b8ff" d="M1610.89,-109.88C1594.12,-97.07 1561.09,-72.62 1531,-55 1510.63,-43.07 1486.57,-31.51 1468.17,-23.17"/>
<polygon fill="#63b8ff" stroke="#63b8ff" points="1469.41,-19.89 1458.85,-19 1466.55,-26.28 1469.41,-19.89"/>
</a>
</g>
</g>
<!-- Node21 -->
<g id="Node000021" class="node">
<title>Node21</title>
<g id="a_Node000021"><a xlink:title=" ">
<polygon fill="#e0e0e0" stroke="#999999" points="1635,-19 1591,-19 1591,0 1635,0 1635,-19"/>
<text text-anchor="middle" x="1613" y="-7" font-family="Helvetica,sans-Serif" font-size="10.00">ctime</text>
</a>
</g>
</g>
<!-- Node18&#45;&gt;Node21 -->
<g id="edge20_Node000018_Node000021" class="edge">
<title>Node18&#45;&gt;Node21</title>
<g id="a_edge20_Node000018_Node000021"><a xlink:title=" ">
<path fill="none" stroke="#63b8ff" d="M1621.26,-109.66C1619.81,-92.17 1616.53,-52.8 1614.56,-29.27"/>
<polygon fill="#63b8ff" stroke="#63b8ff" points="1618.04,-28.83 1613.72,-19.16 1611.06,-29.41 1618.04,-28.83"/>
</a>
</g>
</g>
<!-- Node22 -->
<g id="Node000022" class="node">
<title>Node22</title>
<g id="a_Node000022"><a xlink:href="safedate_8h.html" target="_top" xlink:title=" ">
<polygon fill="white" stroke="#666666" points="1709,-74 1641,-74 1641,-55 1709,-55 1709,-74"/>
<text text-anchor="middle" x="1675" y="-62" font-family="Helvetica,sans-Serif" font-size="10.00">safedate.h</text>
</a>
</g>
</g>
<!-- Node18&#45;&gt;Node22 -->
<g id="edge21_Node000018_Node000022" class="edge">
<title>Node18&#45;&gt;Node22</title>
<g id="a_edge21_Node000018_Node000022"><a xlink:title=" ">
<path fill="none" stroke="#63b8ff" d="M1630.75,-109.75C1638.47,-102.03 1649.9,-90.6 1659.22,-81.28"/>
<polygon fill="#63b8ff" stroke="#63b8ff" points="1661.81,-83.64 1666.41,-74.09 1656.86,-78.69 1661.81,-83.64"/>
</a>
</g>
</g>
<!-- Node22&#45;&gt;Node20 -->
<g id="edge24_Node000022_Node000020" class="edge">
<title>Node22&#45;&gt;Node20</title>
<g id="a_edge24_Node000022_Node000020"><a xlink:title=" ">
<path fill="none" stroke="#63b8ff" d="M1640.94,-55.85C1595.44,-45.63 1515.43,-27.66 1471,-17.69"/>
<polygon fill="#63b8ff" stroke="#63b8ff" points="1471.56,-14.23 1461.04,-15.45 1470.03,-21.06 1471.56,-14.23"/>
</a>
</g>
</g>
<!-- Node22&#45;&gt;Node21 -->
<g id="edge22_Node000022_Node000021" class="edge">
<title>Node22&#45;&gt;Node21</title>
<g id="a_edge22_Node000022_Node000021"><a xlink:title=" ">
<path fill="none" stroke="#63b8ff" d="M1665.04,-54.98C1655.87,-47.15 1642.06,-35.34 1630.97,-25.86"/>
<polygon fill="#63b8ff" stroke="#63b8ff" points="1633.02,-23.01 1623.14,-19.17 1628.47,-28.33 1633.02,-23.01"/>
</a>
</g>
</g>
<!-- Node23 -->
<g id="Node000023" class="node">
<title>Node23</title>
<g id="a_Node000023"><a xlink:title=" ">
<polygon fill="#e0e0e0" stroke="#999999" points="1718.5,-19 1653.5,-19 1653.5,0 1718.5,0 1718.5,-19"/>
<text text-anchor="middle" x="1686" y="-7" font-family="Helvetica,sans-Serif" font-size="10.00">stdexcept</text>
</a>
</g>
</g>
<!-- Node22&#45;&gt;Node23 -->
<g id="edge23_Node000022_Node000023" class="edge">
<title>Node22&#45;&gt;Node23</title>
<g id="a_edge23_Node000022_Node000023"><a xlink:title=" ">
<path fill="none" stroke="#63b8ff" d="M1676.82,-54.75C1678.26,-47.8 1680.32,-37.85 1682.13,-29.13"/>
<polygon fill="#63b8ff" stroke="#63b8ff" points="1685.61,-29.59 1684.22,-19.09 1678.76,-28.17 1685.61,-29.59"/>
</a>
</g>
</g>
<!-- Node24&#45;&gt;Node2 -->
<g id="edge60_Node000024_Node000002" class="edge">
<title>Node24&#45;&gt;Node2</title>
<g id="a_edge60_Node000024_Node000002"><a xlink:title=" ">
<path fill="none" stroke="#63b8ff" d="M1308.78,-285.63C1293.8,-271.52 1268.99,-243.17 1282,-220 1297.04,-193.21 1318.77,-205.2 1341,-184 1355.11,-170.54 1367.15,-151.7 1374.87,-138.04"/>
<polygon fill="#63b8ff" stroke="#63b8ff" points="1378,-139.62 1379.69,-129.16 1371.84,-136.27 1378,-139.62"/>
</a>
</g>
</g>
<!-- Node24&#45;&gt;Node18 -->
<g id="edge40_Node000024_Node000018" class="edge">
<title>Node24&#45;&gt;Node18</title>
<g id="a_edge40_Node000024_Node000018"><a xlink:title=" ">
<path fill="none" stroke="#63b8ff" d="M1377.58,-286.9C1380.76,-286.57 1383.92,-286.27 1387,-286 1427.29,-282.49 2086.12,-279.29 2114,-250 2199.31,-160.36 2208.49,-225.11 1956,-165 1861.95,-142.61 1750.13,-130.58 1682.69,-124.87"/>
<polygon fill="#63b8ff" stroke="#63b8ff" points="1682.91,-121.38 1672.66,-124.04 1682.34,-128.35 1682.91,-121.38"/>
</a>
</g>
</g>
<!-- Node24&#45;&gt;Node20 -->
<g id="edge63_Node000024_Node000020" class="edge">
<title>Node24&#45;&gt;Node20</title>
<g id="a_edge63_Node000024_Node000020"><a xlink:title=" ">
<path fill="none" stroke="#63b8ff" d="M1305.51,-285.75C1294.71,-277.87 1280.35,-265.21 1274,-250 1268.86,-237.7 1270.19,-232.78 1274,-220 1299.72,-133.74 1381.54,-57.67 1419.41,-26.06"/>
<polygon fill="#63b8ff" stroke="#63b8ff" points="1422.11,-28.38 1427.62,-19.34 1417.67,-22.97 1422.11,-28.38"/>
</a>
</g>
</g>
<!-- Node25 -->
<g id="Node000025" class="node">
<title>Node25</title>
<g id="a_Node000025"><a xlink:href="pharmacy_8h.html" target="_top" xlink:title=" ">
<polygon fill="white" stroke="#666666" points="1196.5,-244.5 1123.5,-244.5 1123.5,-225.5 1196.5,-225.5 1196.5,-244.5"/>
<text text-anchor="middle" x="1160" y="-232.5" font-family="Helvetica,sans-Serif" font-size="10.00">pharmacy.h</text>
</a>
</g>
</g>
<!-- Node24&#45;&gt;Node25 -->
<g id="edge26_Node000024_Node000025" class="edge">
<title>Node24&#45;&gt;Node25</title>
<g id="a_edge26_Node000024_Node000025"><a xlink:title=" ">
<path fill="none" stroke="#63b8ff" d="M1295.88,-285.99C1268.68,-275.99 1223.33,-259.3 1192.58,-247.99"/>
<polygon fill="#63b8ff" stroke="#63b8ff" points="1193.74,-244.68 1183.15,-244.52 1191.32,-251.25 1193.74,-244.68"/>
</a>
</g>
</g>
<!-- Node26 -->
<g id="Node000026" class="node">
<title>Node26</title>
<g id="a_Node000026"><a xlink:href="medicine_8h.html" target="_top" xlink:title=" ">
<polygon fill="white" stroke="#666666" points="1028.5,-184 957.5,-184 957.5,-165 1028.5,-165 1028.5,-184"/>
<text text-anchor="middle" x="993" y="-172" font-family="Helvetica,sans-Serif" font-size="10.00">medicine.h</text>
</a>
</g>
</g>
<!-- Node24&#45;&gt;Node26 -->
<g id="edge41_Node000024_Node000026" class="edge">
<title>Node24&#45;&gt;Node26</title>
<g id="a_edge41_Node000024_Node000026"><a xlink:title=" ">
<path fill="none" stroke="#63b8ff" d="M1260.4,-290.52C1190.33,-284.83 1078.1,-272.48 1043,-250 1022.15,-236.64 1007.91,-211.14 1000.11,-193.73"/>
<polygon fill="#63b8ff" stroke="#63b8ff" points="1003.18,-191.99 996.09,-184.12 996.72,-194.69 1003.18,-191.99"/>
</a>
</g>
</g>
<!-- Node27 -->
<g id="Node000027" class="node">
<title>Node27</title>
<g id="a_Node000027"><a xlink:title=" ">
<polygon fill="#e0e0e0" stroke="#999999" points="1122.5,-129 1075.5,-129 1075.5,-110 1122.5,-110 1122.5,-129"/>
<text text-anchor="middle" x="1099" y="-117" font-family="Helvetica,sans-Serif" font-size="10.00">vector</text>
</a>
</g>
</g>
<!-- Node24&#45;&gt;Node27 -->
<g id="edge62_Node000024_Node000027" class="edge">
<title>Node24&#45;&gt;Node27</title>
<g id="a_edge62_Node000024_Node000027"><a xlink:title=" ">
<path fill="none" stroke="#63b8ff" d="M1260.49,-290.65C1202.97,-285.51 1120.98,-274.08 1101,-250 1074.89,-218.53 1084.87,-166.42 1092.84,-138.87"/>
<polygon fill="#63b8ff" stroke="#63b8ff" points="1096.18,-139.9 1095.81,-129.31 1089.5,-137.82 1096.18,-139.9"/>
</a>
</g>
</g>
<!-- Node29 -->
<g id="Node000029" class="node">
<title>Node29</title>
<g id="a_Node000029"><a xlink:title=" ">
<polygon fill="#e0e0e0" stroke="#999999" points="1200,-129 1162,-129 1162,-110 1200,-110 1200,-129"/>
<text text-anchor="middle" x="1181" y="-117" font-family="Helvetica,sans-Serif" font-size="10.00">map</text>
</a>
</g>
</g>
<!-- Node24&#45;&gt;Node29 -->
<g id="edge61_Node000024_Node000029" class="edge">
<title>Node24&#45;&gt;Node29</title>
<g id="a_edge61_Node000024_Node000029"><a xlink:title=" ">
<path fill="none" stroke="#63b8ff" d="M1260.35,-289.76C1206.69,-284.06 1132.99,-272.34 1115,-250 1085.47,-213.33 1134.04,-161.32 1162.56,-135.81"/>
<polygon fill="#63b8ff" stroke="#63b8ff" points="1165.06,-138.27 1170.32,-129.07 1160.48,-132.99 1165.06,-138.27"/>
</a>
</g>
</g>
<!-- Node30 -->
<g id="Node000030" class="node">
<title>Node30</title>
<g id="a_Node000030"><a xlink:href="inventoryoperation_8h.html" target="_top" xlink:title=" ">
<polygon fill="white" stroke="#666666" points="1946.5,-184 1827.5,-184 1827.5,-165 1946.5,-165 1946.5,-184"/>
<text text-anchor="middle" x="1887" y="-172" font-family="Helvetica,sans-Serif" font-size="10.00">inventoryoperation.h</text>
</a>
</g>
</g>
<!-- Node24&#45;&gt;Node30 -->
<g id="edge42_Node000024_Node000030" class="edge">
<title>Node24&#45;&gt;Node30</title>
<g id="a_edge42_Node000024_Node000030"><a xlink:title=" ">
<path fill="none" stroke="#63b8ff" d="M1377.58,-286.96C1380.77,-286.62 1383.92,-286.29 1387,-286 1446.97,-280.26 1886.84,-293.99 1928,-250 1944.44,-232.42 1923.32,-207.02 1905.8,-190.89"/>
<polygon fill="#63b8ff" stroke="#63b8ff" points="1907.98,-188.15 1898.16,-184.19 1903.37,-193.41 1907.98,-188.15"/>
</a>
</g>
</g>
<!-- Node31 -->
<g id="Node000031" class="node">
<title>Node31</title>
<g id="a_Node000031"><a xlink:href="supply_8h.html" target="_top" xlink:title=" ">
<polygon fill="white" stroke="#666666" points="2031,-244.5 1975,-244.5 1975,-225.5 2031,-225.5 2031,-244.5"/>
<text text-anchor="middle" x="2003" y="-232.5" font-family="Helvetica,sans-Serif" font-size="10.00">supply.h</text>
</a>
</g>
</g>
<!-- Node24&#45;&gt;Node31 -->
<g id="edge46_Node000024_Node000031" class="edge">
<title>Node24&#45;&gt;Node31</title>
<g id="a_edge46_Node000024_Node000031"><a xlink:title=" ">
<path fill="none" stroke="#63b8ff" d="M1377.58,-286.94C1380.76,-286.61 1383.92,-286.29 1387,-286 1641.5,-262.14 1710.09,-298.83 1961,-250 1964.42,-249.33 1967.95,-248.46 1971.44,-247.48"/>
<polygon fill="#63b8ff" stroke="#63b8ff" points="1972.54,-250.81 1981.05,-244.51 1970.47,-244.12 1972.54,-250.81"/>
</a>
</g>
</g>
<!-- Node32 -->
<g id="Node000032" class="node">
<title>Node32</title>
<g id="a_Node000032"><a xlink:href="return_8h.html" target="_top" xlink:title=" ">
<polygon fill="white" stroke="#666666" points="2104.5,-244.5 2049.5,-244.5 2049.5,-225.5 2104.5,-225.5 2104.5,-244.5"/>
<text text-anchor="middle" x="2077" y="-232.5" font-family="Helvetica,sans-Serif" font-size="10.00">return.h</text>
</a>
</g>
</g>
<!-- Node24&#45;&gt;Node32 -->
<g id="edge48_Node000024_Node000032" class="edge">
<title>Node24&#45;&gt;Node32</title>
<g id="a_edge48_Node000024_Node000032"><a xlink:title=" ">
<path fill="none" stroke="#63b8ff" d="M1377.58,-286.92C1380.76,-286.59 1383.92,-286.28 1387,-286 1676.49,-259.96 1755.63,-310.14 2040,-250 2042.68,-249.43 2045.42,-248.7 2048.14,-247.88"/>
<polygon fill="#63b8ff" stroke="#63b8ff" points="2049.44,-251.13 2057.75,-244.56 2047.16,-244.51 2049.44,-251.13"/>
</a>
</g>
</g>
<!-- Node33 -->
<g id="Node000033" class="node">
<title>Node33</title>
<g id="a_Node000033"><a xlink:href="writeoff_8h.html" target="_top" xlink:title=" ">
<polygon fill="white" stroke="#666666" points="1918.5,-244.5 1855.5,-244.5 1855.5,-225.5 1918.5,-225.5 1918.5,-244.5"/>
<text text-anchor="middle" x="1887" y="-232.5" font-family="Helvetica,sans-Serif" font-size="10.00">writeoff.h</text>
</a>
</g>
</g>
<!-- Node24&#45;&gt;Node33 -->
<g id="edge50_Node000024_Node000033" class="edge">
<title>Node24&#45;&gt;Node33</title>
<g id="a_edge50_Node000024_Node000033"><a xlink:title=" ">
<path fill="none" stroke="#63b8ff" d="M1377.59,-287C1380.77,-286.65 1383.92,-286.31 1387,-286 1590.58,-265.3 1645.6,-291.39 1846,-250 1849.07,-249.37 1852.22,-248.57 1855.36,-247.68"/>
<polygon fill="#63b8ff" stroke="#63b8ff" points="1856.67,-250.93 1865.15,-244.59 1854.56,-244.26 1856.67,-250.93"/>
</a>
</g>
</g>
<!-- Node34 -->
<g id="Node000034" class="node">
<title>Node34</title>
<g id="a_Node000034"><a xlink:href="InvalidProductDataException_8h.html" target="_top" xlink:title=" ">
<polygon fill="white" stroke="#666666" points="1649,-250 1479,-250 1479,-220 1649,-220 1649,-250"/>
<text text-anchor="start" x="1487" y="-238" font-family="Helvetica,sans-Serif" font-size="10.00">Exception/PharmacyExceptions</text>
<text text-anchor="middle" x="1564" y="-227" font-family="Helvetica,sans-Serif" font-size="10.00">/InvalidProductDataException.h</text>
</a>
</g>
</g>
<!-- Node24&#45;&gt;Node34 -->
<g id="edge52_Node000024_Node000034" class="edge">
<title>Node24&#45;&gt;Node34</title>
<g id="a_edge52_Node000024_Node000034"><a xlink:title=" ">
<path fill="none" stroke="#63b8ff" d="M1354.63,-285.99C1391.35,-277.23 1449.53,-263.33 1495.25,-252.42"/>
<polygon fill="#63b8ff" stroke="#63b8ff" points="1496.18,-255.79 1505.1,-250.06 1494.56,-248.98 1496.18,-255.79"/>
</a>
</g>
</g>
<!-- Node37 -->
<g id="Node000037" class="node">
<title>Node37</title>
<g id="a_Node000037"><a xlink:href="ProductNotFoundException_8h.html" target="_top" xlink:title=" ">
<polygon fill="white" stroke="#666666" points="1837,-250 1667,-250 1667,-220 1837,-220 1837,-250"/>
<text text-anchor="start" x="1675" y="-238" font-family="Helvetica,sans-Serif" font-size="10.00">Exception/PharmacyExceptions</text>
<text text-anchor="middle" x="1752" y="-227" font-family="Helvetica,sans-Serif" font-size="10.00">/ProductNotFoundException.h</text>
</a>
</g>
</g>
<!-- Node24&#45;&gt;Node37 -->
<g id="edge56_Node000024_Node000037" class="edge">
<title>Node24&#45;&gt;Node37</title>
<g id="a_edge56_Node000024_Node000037"><a xlink:title=" ">
<path fill="none" stroke="#63b8ff" d="M1377.53,-287.13C1443.02,-278.81 1552.57,-264.69 1656.88,-250.14"/>
<polygon fill="#63b8ff" stroke="#63b8ff" points="1657.54,-253.58 1666.96,-248.73 1656.57,-246.65 1657.54,-253.58"/>
</a>
</g>
</g>
<!-- Node38 -->
<g id="Node000038" class="node">
<title>Node38</title>
<g id="a_Node000038"><a xlink:href="DuplicateProductException_8h.html" target="_top" xlink:title=" ">
<polygon fill="white" stroke="#666666" points="1461,-250 1291,-250 1291,-220 1461,-220 1461,-250"/>
<text text-anchor="start" x="1299" y="-238" font-family="Helvetica,sans-Serif" font-size="10.00">Exception/PharmacyExceptions</text>
<text text-anchor="middle" x="1376" y="-227" font-family="Helvetica,sans-Serif" font-size="10.00">/DuplicateProductException.h</text>
</a>
</g>
</g>
<!-- Node24&#45;&gt;Node38 -->
<g id="edge58_Node000024_Node000038" class="edge">
<title>Node24&#45;&gt;Node38</title>
<g id="a_edge58_Node000024_Node000038"><a xlink:title=" ">
<path fill="none" stroke="#63b8ff" d="M1327.41,-285.87C1334.72,-278.37 1345.6,-267.2 1355.22,-257.33"/>
<polygon fill="#63b8ff" stroke="#63b8ff" points="1357.78,-259.72 1362.25,-250.11 1352.76,-254.83 1357.78,-259.72"/>
</a>
</g>
</g>
<!-- Node25&#45;&gt;Node2 -->
<g id="edge34_Node000025_Node000002" class="edge">
<title>Node25&#45;&gt;Node2</title>
<g id="a_edge34_Node000025_Node000002"><a xlink:title=" ">
<path fill="none" stroke="#63b8ff" d="M1172.74,-225.47C1193.58,-211.73 1236.48,-184.28 1275,-165 1299.73,-152.62 1328.76,-140.9 1350.64,-132.6"/>
<polygon fill="#63b8ff" stroke="#63b8ff" points="1352.02,-135.82 1360.15,-129.03 1349.56,-129.27 1352.02,-135.82"/>
</a>
</g>
</g>
<!-- Node25&#45;&gt;Node18 -->
<g id="edge32_Node000025_Node000018" class="edge">
<title>Node25&#45;&gt;Node18</title>
<g id="a_edge32_Node000025_Node000018"><a xlink:title=" ">
<path fill="none" stroke="#63b8ff" d="M1194.73,-225.47C1277.35,-205.17 1485.58,-154.01 1577.37,-131.46"/>
<polygon fill="#63b8ff" stroke="#63b8ff" points="1578.31,-134.84 1587.19,-129.05 1576.64,-128.04 1578.31,-134.84"/>
</a>
</g>
</g>
<!-- Node25&#45;&gt;Node26 -->
<g id="edge27_Node000025_Node000026" class="edge">
<title>Node25&#45;&gt;Node26</title>
<g id="a_edge27_Node000025_Node000026"><a xlink:title=" ">
<path fill="none" stroke="#63b8ff" d="M1135.72,-225.49C1107.02,-215.44 1059.11,-198.66 1026.8,-187.34"/>
<polygon fill="#63b8ff" stroke="#63b8ff" points="1027.91,-184.02 1017.31,-184.02 1025.59,-190.63 1027.91,-184.02"/>
</a>
</g>
</g>
<!-- Node25&#45;&gt;Node27 -->
<g id="edge33_Node000025_Node000027" class="edge">
<title>Node25&#45;&gt;Node27</title>
<g id="a_edge33_Node000025_Node000027"><a xlink:title=" ">
<path fill="none" stroke="#63b8ff" d="M1155.42,-225.47C1145.48,-206.98 1121.79,-162.9 1108.48,-138.14"/>
<polygon fill="#63b8ff" stroke="#63b8ff" points="1111.46,-136.28 1103.64,-129.13 1105.29,-139.6 1111.46,-136.28"/>
</a>
</g>
</g>
<!-- Node28 -->
<g id="Node000028" class="node">
<title>Node28</title>
<g id="a_Node000028"><a xlink:href="storage_8h.html" target="_top" xlink:title=" ">
<polygon fill="white" stroke="#666666" points="1223,-184 1161,-184 1161,-165 1223,-165 1223,-184"/>
<text text-anchor="middle" x="1192" y="-172" font-family="Helvetica,sans-Serif" font-size="10.00">storage.h</text>
</a>
</g>
</g>
<!-- Node25&#45;&gt;Node28 -->
<g id="edge35_Node000025_Node000028" class="edge">
<title>Node25&#45;&gt;Node28</title>
<g id="a_edge35_Node000025_Node000028"><a xlink:title=" ">
<path fill="none" stroke="#63b8ff" d="M1164.72,-225.37C1169.35,-216.9 1176.55,-203.74 1182.39,-193.07"/>
<polygon fill="#63b8ff" stroke="#63b8ff" points="1185.53,-194.62 1187.26,-184.17 1179.39,-191.26 1185.53,-194.62"/>
</a>
</g>
</g>
<!-- Node26&#45;&gt;Node2 -->
<g id="edge30_Node000026_Node000002" class="edge">
<title>Node26&#45;&gt;Node2</title>
<g id="a_edge30_Node000026_Node000002"><a xlink:title=" ">
<path fill="none" stroke="#63b8ff" d="M1028.74,-168.66C1102.02,-158.72 1268.8,-136.12 1344.87,-125.8"/>
<polygon fill="#63b8ff" stroke="#63b8ff" points="1345.55,-129.24 1354.99,-124.43 1344.61,-122.31 1345.55,-129.24"/>
</a>
</g>
</g>
<!-- Node26&#45;&gt;Node18 -->
<g id="edge28_Node000026_Node000018" class="edge">
<title>Node26&#45;&gt;Node18</title>
<g id="a_edge28_Node000026_Node000018"><a xlink:title=" ">
<path fill="none" stroke="#63b8ff" d="M1028.69,-171.49C1117.01,-166.34 1353.05,-151.58 1561.09,-129.03"/>
<polygon fill="#63b8ff" stroke="#63b8ff" points="1561.73,-132.48 1571.29,-127.91 1560.97,-125.52 1561.73,-132.48"/>
</a>
</g>
</g>
<!-- Node26&#45;&gt;Node20 -->
<g id="edge31_Node000026_Node000020" class="edge">
<title>Node26&#45;&gt;Node20</title>
<g id="a_edge31_Node000026_Node000020"><a xlink:title=" ">
<path fill="none" stroke="#63b8ff" d="M1000.73,-164.7C1013.27,-150.98 1039.45,-124.53 1067,-110 1182.95,-48.85 1339.52,-23 1406.46,-14.25"/>
<polygon fill="#63b8ff" stroke="#63b8ff" points="1407.3,-17.67 1416.79,-12.95 1406.42,-10.73 1407.3,-17.67"/>
</a>
</g>
</g>
<!-- Node26&#45;&gt;Node27 -->
<g id="edge29_Node000026_Node000027" class="edge">
<title>Node26&#45;&gt;Node27</title>
<g id="a_edge29_Node000026_Node000027"><a xlink:title=" ">
<path fill="none" stroke="#63b8ff" d="M1010.03,-164.98C1026.93,-156.54 1053.06,-143.47 1072.64,-133.68"/>
<polygon fill="#63b8ff" stroke="#63b8ff" points="1074.28,-136.77 1081.66,-129.17 1071.15,-130.51 1074.28,-136.77"/>
</a>
</g>
</g>
<!-- Node28&#45;&gt;Node2 -->
<g id="edge39_Node000028_Node000002" class="edge">
<title>Node28&#45;&gt;Node2</title>
<g id="a_edge39_Node000028_Node000002"><a xlink:title=" ">
<path fill="none" stroke="#63b8ff" d="M1222.85,-164.98C1256.08,-155.81 1309.04,-141.19 1345.11,-131.24"/>
<polygon fill="#63b8ff" stroke="#63b8ff" points="1346.09,-134.59 1354.8,-128.56 1344.23,-127.85 1346.09,-134.59"/>
</a>
</g>
</g>
<!-- Node28&#45;&gt;Node18 -->
<g id="edge36_Node000028_Node000018" class="edge">
<title>Node28&#45;&gt;Node18</title>
<g id="a_edge36_Node000028_Node000018"><a xlink:title=" ">
<path fill="none" stroke="#63b8ff" d="M1223.21,-169.97C1285.32,-162.9 1429.04,-146.3 1560.98,-129.11"/>
<polygon fill="#63b8ff" stroke="#63b8ff" points="1561.81,-132.53 1571.27,-127.76 1560.9,-125.59 1561.81,-132.53"/>
</a>
</g>
</g>
<!-- Node28&#45;&gt;Node27 -->
<g id="edge38_Node000028_Node000027" class="edge">
<title>Node28&#45;&gt;Node27</title>
<g id="a_edge38_Node000028_Node000027"><a xlink:title=" ">
<path fill="none" stroke="#63b8ff" d="M1177.06,-164.98C1162.5,-156.69 1140.13,-143.94 1123.07,-134.22"/>
<polygon fill="#63b8ff" stroke="#63b8ff" points="1124.64,-131.08 1114.21,-129.17 1121.17,-137.16 1124.64,-131.08"/>
</a>
</g>
</g>
<!-- Node28&#45;&gt;Node29 -->
<g id="edge37_Node000028_Node000029" class="edge">
<title>Node28&#45;&gt;Node29</title>
<g id="a_edge37_Node000028_Node000029"><a xlink:title=" ">
<path fill="none" stroke="#63b8ff" d="M1190.18,-164.75C1188.74,-157.8 1186.68,-147.85 1184.87,-139.13"/>
<polygon fill="#63b8ff" stroke="#63b8ff" points="1188.24,-138.17 1182.78,-129.09 1181.39,-139.59 1188.24,-138.17"/>
</a>
</g>
</g>
<!-- Node30&#45;&gt;Node2 -->
<g id="edge45_Node000030_Node000002" class="edge">
<title>Node30&#45;&gt;Node2</title>
<g id="a_edge45_Node000030_Node000002"><a xlink:title=" ">
<path fill="none" stroke="#63b8ff" d="M1827.24,-170.17C1740.35,-164.8 1573.91,-152.54 1423.29,-129.02"/>
<polygon fill="#63b8ff" stroke="#63b8ff" points="1423.81,-125.56 1413.39,-127.45 1422.72,-132.47 1423.81,-125.56"/>
</a>
</g>
</g>
<!-- Node30&#45;&gt;Node18 -->
<g id="edge43_Node000030_Node000018" class="edge">
<title>Node30&#45;&gt;Node18</title>
<g id="a_edge43_Node000030_Node000018"><a xlink:title=" ">
<path fill="none" stroke="#63b8ff" d="M1844.42,-164.98C1798.3,-155.76 1724.64,-141.03 1674.84,-131.07"/>
<polygon fill="#63b8ff" stroke="#63b8ff" points="1675.4,-127.61 1664.91,-129.08 1674.03,-134.48 1675.4,-127.61"/>
</a>
</g>
</g>
<!-- Node30&#45;&gt;Node22 -->
<g id="edge44_Node000030_Node000022" class="edge">
<title>Node30&#45;&gt;Node22</title>
<g id="a_edge44_Node000030_Node000022"><a xlink:title=" ">
<path fill="none" stroke="#63b8ff" d="M1870.01,-164.84C1832.94,-145.96 1744.6,-100.96 1700.69,-78.59"/>
<polygon fill="#63b8ff" stroke="#63b8ff" points="1702.28,-75.47 1691.78,-74.05 1699.1,-81.7 1702.28,-75.47"/>
</a>
</g>
</g>
<!-- Node31&#45;&gt;Node30 -->
<g id="edge47_Node000031_Node000030" class="edge">
<title>Node31&#45;&gt;Node30</title>
<g id="a_edge47_Node000031_Node000030"><a xlink:title=" ">
<path fill="none" stroke="#63b8ff" d="M1985.88,-225.37C1966.78,-215.73 1935.63,-200.03 1913.4,-188.81"/>
<polygon fill="#63b8ff" stroke="#63b8ff" points="1914.69,-185.55 1904.19,-184.17 1911.54,-191.8 1914.69,-185.55"/>
</a>
</g>
</g>
<!-- Node32&#45;&gt;Node30 -->
<g id="edge49_Node000032_Node000030" class="edge">
<title>Node32&#45;&gt;Node30</title>
<g id="a_edge49_Node000032_Node000030"><a xlink:title=" ">
<path fill="none" stroke="#63b8ff" d="M2055.19,-225.42C2050.22,-223.56 2044.95,-221.65 2040,-220 2002.87,-207.6 1960.04,-195.31 1929.16,-186.8"/>
<polygon fill="#63b8ff" stroke="#63b8ff" points="1929.74,-183.33 1919.17,-184.06 1927.89,-190.08 1929.74,-183.33"/>
</a>
</g>
</g>
<!-- Node33&#45;&gt;Node30 -->
<g id="edge51_Node000033_Node000030" class="edge">
<title>Node33&#45;&gt;Node30</title>
<g id="a_edge51_Node000033_Node000030"><a xlink:title=" ">
<path fill="none" stroke="#63b8ff" d="M1887,-225.37C1887,-217.25 1887,-204.81 1887,-194.39"/>
<polygon fill="#63b8ff" stroke="#63b8ff" points="1890.5,-194.17 1887,-184.17 1883.5,-194.17 1890.5,-194.17"/>
</a>
</g>
</g>
<!-- Node35 -->
<g id="Node000035" class="node">
<title>Node35</title>
<g id="a_Node000035"><a xlink:href="MedicalProductException_8h.html" target="_top" xlink:title=" ">
<polygon fill="white" stroke="#666666" points="1602.5,-184 1453.5,-184 1453.5,-165 1602.5,-165 1602.5,-184"/>
<text text-anchor="middle" x="1528" y="-172" font-family="Helvetica,sans-Serif" font-size="10.00">MedicalProductException.h</text>
</a>
</g>
</g>
<!-- Node34&#45;&gt;Node35 -->
<g id="edge53_Node000034_Node000035" class="edge">
<title>Node34&#45;&gt;Node35</title>
<g id="a_edge53_Node000034_Node000035"><a xlink:title=" ">
<path fill="none" stroke="#63b8ff" d="M1555.29,-219.84C1550.33,-211.78 1544.07,-201.62 1538.8,-193.06"/>
<polygon fill="#63b8ff" stroke="#63b8ff" points="1541.62,-190.95 1533.39,-184.27 1535.65,-194.62 1541.62,-190.95"/>
</a>
</g>
</g>
<!-- Node36 -->
<g id="Node000036" class="node">
<title>Node36</title>
<g id="a_Node000036"><a xlink:href="PharmacyException_8h.html" target="_top" xlink:title=" ">
<polygon fill="white" stroke="#666666" points="1553,-129 1431,-129 1431,-110 1553,-110 1553,-129"/>
<text text-anchor="middle" x="1492" y="-117" font-family="Helvetica,sans-Serif" font-size="10.00">PharmacyException.h</text>
</a>
</g>
</g>
<!-- Node35&#45;&gt;Node36 -->
<g id="edge54_Node000035_Node000036" class="edge">
<title>Node35&#45;&gt;Node36</title>
<g id="a_edge54_Node000035_Node000036"><a xlink:title=" ">
<path fill="none" stroke="#63b8ff" d="M1522.06,-164.75C1517.02,-157.34 1509.66,-146.5 1503.49,-137.41"/>
<polygon fill="#63b8ff" stroke="#63b8ff" points="1506.35,-135.39 1497.83,-129.09 1500.56,-139.33 1506.35,-135.39"/>
</a>
</g>
</g>
<!-- Node36&#45;&gt;Node19 -->
<g id="edge55_Node000036_Node000019" class="edge">
<title>Node36&#45;&gt;Node19</title>
<g id="a_edge55_Node000036_Node000019"><a xlink:title=" ">
<path fill="none" stroke="#63b8ff" d="M1492,-109.75C1492,-102.8 1492,-92.85 1492,-84.13"/>
<polygon fill="#63b8ff" stroke="#63b8ff" points="1495.5,-84.09 1492,-74.09 1488.5,-84.09 1495.5,-84.09"/>
</a>
</g>
</g>
<!-- Node37&#45;&gt;Node35 -->
<g id="edge57_Node000037_Node000035" class="edge">
<title>Node37&#45;&gt;Node35</title>
<g id="a_edge57_Node000037_Node000035"><a xlink:title=" ">
<path fill="none" stroke="#63b8ff" d="M1698.35,-219.99C1659.19,-209.76 1606.82,-196.09 1570.54,-186.61"/>
<polygon fill="#63b8ff" stroke="#63b8ff" points="1571.31,-183.19 1560.75,-184.05 1569.54,-189.97 1571.31,-183.19"/>
</a>
</g>
</g>
<!-- Node38&#45;&gt;Node35 -->
<g id="edge59_Node000038_Node000035" class="edge">
<title>Node38&#45;&gt;Node35</title>
<g id="a_edge59_Node000038_Node000035"><a xlink:title=" ">
<path fill="none" stroke="#63b8ff" d="M1412.41,-219.99C1437.88,-210.18 1471.59,-197.21 1496.03,-187.81"/>
<polygon fill="#63b8ff" stroke="#63b8ff" points="1497.48,-191 1505.55,-184.14 1494.96,-184.46 1497.48,-191"/>
</a>
</g>
</g>
<!-- Node39&#45;&gt;Node19 -->
<g id="edge66_Node000039_Node000019" class="edge">
<title>Node39&#45;&gt;Node19</title>
<g id="a_edge66_Node000039_Node000019"><a xlink:title=" ">
<path fill="none" stroke="#63b8ff" d="M54.03,-227.85C66.46,-225.17 81.43,-222.16 95,-220 524.35,-151.65 634.8,-157.08 1067,-110 1208.41,-94.6 1376.39,-77.3 1451.83,-69.59"/>
<polygon fill="#63b8ff" stroke="#63b8ff" points="1452.25,-73.07 1461.85,-68.57 1451.54,-66.1 1452.25,-73.07"/>
</a>
</g>
</g>
<!-- Node39&#45;&gt;Node26 -->
<g id="edge65_Node000039_Node000026" class="edge">
<title>Node39&#45;&gt;Node26</title>
<g id="a_edge65_Node000039_Node000026"><a xlink:title=" ">
<path fill="none" stroke="#63b8ff" d="M48.4,-225.43C54.62,-223.28 61.5,-221.24 68,-220 239.44,-187.29 785.38,-178.05 947.31,-176"/>
<polygon fill="#63b8ff" stroke="#63b8ff" points="947.46,-179.5 957.41,-175.88 947.37,-172.5 947.46,-179.5"/>
</a>
</g>
</g>
<!-- Node40&#45;&gt;Node26 -->
<g id="edge68_Node000040_Node000026" class="edge">
<title>Node40&#45;&gt;Node26</title>
<g id="a_edge68_Node000040_Node000026"><a xlink:title=" ">
<path fill="none" stroke="#63b8ff" d="M386.96,-288.28C382.27,-287.49 377.52,-286.71 373,-286 256.49,-267.74 34.75,-305.47 116,-220 144.85,-189.65 770.45,-178.61 946.99,-176.1"/>
<polygon fill="#63b8ff" stroke="#63b8ff" points="947.29,-179.59 957.24,-175.95 947.19,-172.59 947.29,-179.59"/>
</a>
</g>
</g>
<!-- Node41&#45;&gt;Node26 -->
<g id="edge70_Node000041_Node000026" class="edge">
<title>Node41&#45;&gt;Node26</title>
<g id="a_edge70_Node000041_Node000026"><a xlink:title=" ">
<path fill="none" stroke="#63b8ff" d="M475.34,-287.82C472.2,-287.15 469.04,-286.52 466,-286 319.89,-260.81 36.93,-327.53 139,-220 167.03,-190.47 774.24,-178.87 947.33,-176.16"/>
<polygon fill="#63b8ff" stroke="#63b8ff" points="947.44,-179.66 957.38,-176 947.33,-172.66 947.44,-179.66"/>
</a>
</g>
</g>
</g>
</svg>
