<?xml version="1.0" encoding="UTF-8" standalone="no"?>
<!DOCTYPE svg PUBLIC "-//W3C//DTD SVG 1.1//EN"
 "http://www.w3.org/Graphics/SVG/1.1/DTD/svg11.dtd">
<!-- Generated by graphviz version 2.43.0 (0)
 -->
<!-- Title: build/Desktop&#45;Debug/moc_writeoffsdialog.cpp Pages: 1 -->
<svg width="334pt" height="148pt"
 viewBox="0.00 0.00 334.00 148.00" xmlns="http://www.w3.org/2000/svg" xmlns:xlink="http://www.w3.org/1999/xlink">
<g id="graph0" class="graph" transform="scale(1 1) rotate(0) translate(4 144)">
<title>build/Desktop&#45;Debug/moc_writeoffsdialog.cpp</title>
<!-- Node1 -->
<g id="Node000001" class="node">
<title>Node1</title>
<g id="a_Node000001"><a xlink:title=" ">
<polygon fill="#999999" stroke="#666666" points="203.5,-140 64.5,-140 64.5,-110 203.5,-110 203.5,-140"/>
<text text-anchor="start" x="72.5" y="-128" font-family="Helvetica,sans-Serif" font-size="10.00">build/Desktop&#45;Debug</text>
<text text-anchor="middle" x="134" y="-117" font-family="Helvetica,sans-Serif" font-size="10.00">/moc_writeoffsdialog.cpp</text>
</a>
</g>
</g>
<!-- Node2 -->
<g id="Node000002" class="node">
<title>Node2</title>
<g id="a_Node000002"><a xlink:title=" ">
<polygon fill="#e0e0e0" stroke="#999999" points="58,-74 0,-74 0,-55 58,-55 58,-74"/>
<text text-anchor="middle" x="29" y="-62" font-family="Helvetica,sans-Serif" font-size="10.00">memory</text>
</a>
</g>
</g>
<!-- Node1&#45;&gt;Node2 -->
<g id="edge1_Node000001_Node000002" class="edge">
<title>Node1&#45;&gt;Node2</title>
<g id="a_edge1_Node000001_Node000002"><a xlink:title=" ">
<path fill="none" stroke="#63b8ff" d="M108.85,-109.99C92.11,-100.66 70.23,-88.47 53.61,-79.21"/>
<polygon fill="#63b8ff" stroke="#63b8ff" points="54.95,-75.95 44.51,-74.14 51.54,-82.06 54.95,-75.95"/>
</a>
</g>
</g>
<!-- Node3 -->
<g id="Node000003" class="node">
<title>Node3</title>
<g id="a_Node000003"><a xlink:href="writeoffsdialog_8h.html" target="_top" xlink:title=" ">
<polygon fill="white" stroke="#666666" points="192,-74 76,-74 76,-55 192,-55 192,-74"/>
<text text-anchor="middle" x="134" y="-62" font-family="Helvetica,sans-Serif" font-size="10.00">../../writeoffsdialog.h</text>
</a>
</g>
</g>
<!-- Node1&#45;&gt;Node3 -->
<g id="edge2_Node000001_Node000003" class="edge">
<title>Node1&#45;&gt;Node3</title>
<g id="a_edge2_Node000001_Node000003"><a xlink:title=" ">
<path fill="none" stroke="#63b8ff" d="M134,-109.84C134,-102.21 134,-92.7 134,-84.45"/>
<polygon fill="#63b8ff" stroke="#63b8ff" points="137.5,-84.27 134,-74.27 130.5,-84.27 137.5,-84.27"/>
</a>
</g>
</g>
<!-- Node5 -->
<g id="Node000005" class="node">
<title>Node5</title>
<g id="a_Node000005"><a xlink:title=" ">
<polygon fill="#e0e0e0" stroke="#999999" points="326,-74 210,-74 210,-55 326,-55 326,-74"/>
<text text-anchor="middle" x="268" y="-62" font-family="Helvetica,sans-Serif" font-size="10.00">QtCore/qmetatype.h</text>
</a>
</g>
</g>
<!-- Node1&#45;&gt;Node5 -->
<g id="edge4_Node000001_Node000005" class="edge">
<title>Node1&#45;&gt;Node5</title>
<g id="a_edge4_Node000001_Node000005"><a xlink:title=" ">
<path fill="none" stroke="#63b8ff" d="M166.1,-109.99C188.25,-100.31 217.48,-87.56 238.95,-78.18"/>
<polygon fill="#63b8ff" stroke="#63b8ff" points="240.45,-81.35 248.21,-74.14 237.65,-74.93 240.45,-81.35"/>
</a>
</g>
</g>
<!-- Node4 -->
<g id="Node000004" class="node">
<title>Node4</title>
<g id="a_Node000004"><a xlink:title=" ">
<polygon fill="#e0e0e0" stroke="#999999" points="162,-19 106,-19 106,0 162,0 162,-19"/>
<text text-anchor="middle" x="134" y="-7" font-family="Helvetica,sans-Serif" font-size="10.00">QDialog</text>
</a>
</g>
</g>
<!-- Node3&#45;&gt;Node4 -->
<g id="edge3_Node000003_Node000004" class="edge">
<title>Node3&#45;&gt;Node4</title>
<g id="a_edge3_Node000003_Node000004"><a xlink:title=" ">
<path fill="none" stroke="#63b8ff" d="M134,-54.75C134,-47.8 134,-37.85 134,-29.13"/>
<polygon fill="#63b8ff" stroke="#63b8ff" points="137.5,-29.09 134,-19.09 130.5,-29.09 137.5,-29.09"/>
</a>
</g>
</g>
</g>
</svg>
