<?xml version="1.0" encoding="UTF-8" standalone="no"?>
<!DOCTYPE svg PUBLIC "-//W3C//DTD SVG 1.1//EN"
 "http://www.w3.org/Graphics/SVG/1.1/DTD/svg11.dtd">
<!-- Generated by graphviz version 2.43.0 (0)
 -->
<!-- Title: ointment.cpp Pages: 1 -->
<svg width="972pt" height="379pt"
 viewBox="0.00 0.00 972.10 379.00" xmlns="http://www.w3.org/2000/svg" xmlns:xlink="http://www.w3.org/1999/xlink">
<g id="graph0" class="graph" transform="scale(1 1) rotate(0) translate(4 375)">
<title>ointment.cpp</title>
<!-- Node1 -->
<g id="Node000001" class="node">
<title>Node1</title>
<g id="a_Node000001"><a xlink:title=" ">
<polygon fill="#999999" stroke="#666666" points="746.6,-371 665.6,-371 665.6,-352 746.6,-352 746.6,-371"/>
<text text-anchor="middle" x="706.1" y="-359" font-family="Helvetica,sans-Serif" font-size="10.00">ointment.cpp</text>
</a>
</g>
</g>
<!-- Node2 -->
<g id="Node000002" class="node">
<title>Node2</title>
<g id="a_Node000002"><a xlink:href="ointment_8h.html" target="_top" xlink:title=" ">
<polygon fill="white" stroke="#666666" points="741.1,-316 671.1,-316 671.1,-297 741.1,-297 741.1,-316"/>
<text text-anchor="middle" x="706.1" y="-304" font-family="Helvetica,sans-Serif" font-size="10.00">ointment.h</text>
</a>
</g>
</g>
<!-- Node1&#45;&gt;Node2 -->
<g id="edge1_Node000001_Node000002" class="edge">
<title>Node1&#45;&gt;Node2</title>
<g id="a_edge1_Node000001_Node000002"><a xlink:title=" ">
<path fill="none" stroke="#63b8ff" d="M706.1,-351.75C706.1,-344.8 706.1,-334.85 706.1,-326.13"/>
<polygon fill="#63b8ff" stroke="#63b8ff" points="709.6,-326.09 706.1,-316.09 702.6,-326.09 709.6,-326.09"/>
</a>
</g>
</g>
<!-- Node9 -->
<g id="Node000009" class="node">
<title>Node9</title>
<g id="a_Node000009"><a xlink:title=" ">
<polygon fill="#e0e0e0" stroke="#999999" points="893.6,-74 828.6,-74 828.6,-55 893.6,-55 893.6,-74"/>
<text text-anchor="middle" x="861.1" y="-62" font-family="Helvetica,sans-Serif" font-size="10.00">stdexcept</text>
</a>
</g>
</g>
<!-- Node1&#45;&gt;Node9 -->
<g id="edge15_Node000001_Node000009" class="edge">
<title>Node1&#45;&gt;Node9</title>
<g id="a_edge15_Node000001_Node000009"><a xlink:title=" ">
<path fill="none" stroke="#63b8ff" d="M746.9,-352.67C798.33,-340.15 880.1,-310.3 880.1,-247 880.1,-247 880.1,-247 880.1,-179 880.1,-145.16 871.78,-106.41 866.15,-84.07"/>
<polygon fill="#63b8ff" stroke="#63b8ff" points="869.5,-83.03 863.58,-74.25 862.73,-84.81 869.5,-83.03"/>
</a>
</g>
</g>
<!-- Node12 -->
<g id="Node000012" class="node">
<title>Node12</title>
<g id="a_Node000012"><a xlink:title=" ">
<polygon fill="#e0e0e0" stroke="#999999" points="964.1,-316 908.1,-316 908.1,-297 964.1,-297 964.1,-316"/>
<text text-anchor="middle" x="936.1" y="-304" font-family="Helvetica,sans-Serif" font-size="10.00">sstream</text>
</a>
</g>
</g>
<!-- Node1&#45;&gt;Node12 -->
<g id="edge14_Node000001_Node000012" class="edge">
<title>Node1&#45;&gt;Node12</title>
<g id="a_edge14_Node000001_Node000012"><a xlink:title=" ">
<path fill="none" stroke="#63b8ff" d="M743.05,-351.98C785.61,-342.18 855.17,-326.15 898.14,-316.25"/>
<polygon fill="#63b8ff" stroke="#63b8ff" points="898.98,-319.65 907.94,-313.99 897.41,-312.82 898.98,-319.65"/>
</a>
</g>
</g>
<!-- Node13 -->
<g id="Node000013" class="node">
<title>Node13</title>
<g id="a_Node000013"><a xlink:href="safeinput_8h.html" target="_top" xlink:title=" ">
<polygon fill="white" stroke="#666666" points="453.1,-316 331.1,-316 331.1,-297 453.1,-297 453.1,-316"/>
<text text-anchor="middle" x="392.1" y="-304" font-family="Helvetica,sans-Serif" font-size="10.00">Exception/safeinput.h</text>
</a>
</g>
</g>
<!-- Node1&#45;&gt;Node13 -->
<g id="edge16_Node000001_Node000013" class="edge">
<title>Node1&#45;&gt;Node13</title>
<g id="a_edge16_Node000001_Node000013"><a xlink:title=" ">
<path fill="none" stroke="#63b8ff" d="M665.37,-353.63C611.3,-344.5 515.36,-328.31 452.75,-317.74"/>
<polygon fill="#63b8ff" stroke="#63b8ff" points="453.06,-314.24 442.62,-316.03 451.9,-321.14 453.06,-314.24"/>
</a>
</g>
</g>
<!-- Node15 -->
<g id="Node000015" class="node">
<title>Node15</title>
<g id="a_Node000015"><a xlink:href="InvalidProductDataException_8h.html" target="_top" xlink:title=" ">
<polygon fill="white" stroke="#666666" points="302.1,-195 132.1,-195 132.1,-165 302.1,-165 302.1,-195"/>
<text text-anchor="start" x="140.1" y="-183" font-family="Helvetica,sans-Serif" font-size="10.00">Exception/PharmacyExceptions</text>
<text text-anchor="middle" x="217.1" y="-172" font-family="Helvetica,sans-Serif" font-size="10.00">/InvalidProductDataException.h</text>
</a>
</g>
</g>
<!-- Node1&#45;&gt;Node15 -->
<g id="edge28_Node000001_Node000015" class="edge">
<title>Node1&#45;&gt;Node15</title>
<g id="a_edge28_Node000001_Node000015"><a xlink:title=" ">
<path fill="none" stroke="#63b8ff" d="M665.53,-357.81C523.16,-347.95 52.67,-311.73 10.1,-261 -27.14,-216.62 50.77,-196.78 121.42,-187.96"/>
<polygon fill="#63b8ff" stroke="#63b8ff" points="122.25,-191.38 131.77,-186.73 121.43,-184.43 122.25,-191.38"/>
</a>
</g>
</g>
<!-- Node3 -->
<g id="Node000003" class="node">
<title>Node3</title>
<g id="a_Node000003"><a xlink:href="medicine_8h.html" target="_top" xlink:title=" ">
<polygon fill="white" stroke="#666666" points="741.6,-255.5 670.6,-255.5 670.6,-236.5 741.6,-236.5 741.6,-255.5"/>
<text text-anchor="middle" x="706.1" y="-243.5" font-family="Helvetica,sans-Serif" font-size="10.00">medicine.h</text>
</a>
</g>
</g>
<!-- Node2&#45;&gt;Node3 -->
<g id="edge2_Node000002_Node000003" class="edge">
<title>Node2&#45;&gt;Node3</title>
<g id="a_edge2_Node000002_Node000003"><a xlink:title=" ">
<path fill="none" stroke="#63b8ff" d="M706.1,-296.87C706.1,-288.75 706.1,-276.31 706.1,-265.89"/>
<polygon fill="#63b8ff" stroke="#63b8ff" points="709.6,-265.67 706.1,-255.67 702.6,-265.67 709.6,-265.67"/>
</a>
</g>
</g>
<!-- Node4 -->
<g id="Node000004" class="node">
<title>Node4</title>
<g id="a_Node000004"><a xlink:href="medicalproduct_8h.html" target="_top" xlink:title=" ">
<polygon fill="white" stroke="#666666" points="710.6,-189.5 609.6,-189.5 609.6,-170.5 710.6,-170.5 710.6,-189.5"/>
<text text-anchor="middle" x="660.1" y="-177.5" font-family="Helvetica,sans-Serif" font-size="10.00">medicalproduct.h</text>
</a>
</g>
</g>
<!-- Node3&#45;&gt;Node4 -->
<g id="edge3_Node000003_Node000004" class="edge">
<title>Node3&#45;&gt;Node4</title>
<g id="a_edge3_Node000003_Node000004"><a xlink:title=" ">
<path fill="none" stroke="#63b8ff" d="M699.9,-236.37C692.87,-226.59 681.25,-210.42 672.37,-198.08"/>
<polygon fill="#63b8ff" stroke="#63b8ff" points="675.18,-195.98 666.5,-189.91 669.5,-200.07 675.18,-195.98"/>
</a>
</g>
</g>
<!-- Node6 -->
<g id="Node000006" class="node">
<title>Node6</title>
<g id="a_Node000006"><a xlink:title=" ">
<polygon fill="#e0e0e0" stroke="#999999" points="610.1,-74 566.1,-74 566.1,-55 610.1,-55 610.1,-74"/>
<text text-anchor="middle" x="588.1" y="-62" font-family="Helvetica,sans-Serif" font-size="10.00">string</text>
</a>
</g>
</g>
<!-- Node3&#45;&gt;Node6 -->
<g id="edge13_Node000003_Node000006" class="edge">
<title>Node3&#45;&gt;Node6</title>
<g id="a_edge13_Node000003_Node000006"><a xlink:title=" ">
<path fill="none" stroke="#63b8ff" d="M670.47,-237.6C646.82,-230.72 617.25,-217.95 601.1,-195 577.66,-161.69 580.78,-111.09 584.69,-84.06"/>
<polygon fill="#63b8ff" stroke="#63b8ff" points="588.16,-84.47 586.33,-74.03 581.26,-83.34 588.16,-84.47"/>
</a>
</g>
</g>
<!-- Node10 -->
<g id="Node000010" class="node">
<title>Node10</title>
<g id="a_Node000010"><a xlink:title=" ">
<polygon fill="#e0e0e0" stroke="#999999" points="775.6,-189.5 728.6,-189.5 728.6,-170.5 775.6,-170.5 775.6,-189.5"/>
<text text-anchor="middle" x="752.1" y="-177.5" font-family="Helvetica,sans-Serif" font-size="10.00">vector</text>
</a>
</g>
</g>
<!-- Node3&#45;&gt;Node10 -->
<g id="edge11_Node000003_Node000010" class="edge">
<title>Node3&#45;&gt;Node10</title>
<g id="a_edge11_Node000003_Node000010"><a xlink:title=" ">
<path fill="none" stroke="#63b8ff" d="M712.3,-236.37C719.33,-226.59 730.95,-210.42 739.83,-198.08"/>
<polygon fill="#63b8ff" stroke="#63b8ff" points="742.71,-200.07 745.7,-189.91 737.02,-195.98 742.71,-200.07"/>
</a>
</g>
</g>
<!-- Node11 -->
<g id="Node000011" class="node">
<title>Node11</title>
<g id="a_Node000011"><a xlink:title=" ">
<polygon fill="#e0e0e0" stroke="#999999" points="852.1,-189.5 794.1,-189.5 794.1,-170.5 852.1,-170.5 852.1,-189.5"/>
<text text-anchor="middle" x="823.1" y="-177.5" font-family="Helvetica,sans-Serif" font-size="10.00">memory</text>
</a>
</g>
</g>
<!-- Node3&#45;&gt;Node11 -->
<g id="edge12_Node000003_Node000011" class="edge">
<title>Node3&#45;&gt;Node11</title>
<g id="a_edge12_Node000003_Node000011"><a xlink:title=" ">
<path fill="none" stroke="#63b8ff" d="M721.88,-236.37C741.51,-225.63 775.24,-207.18 798.33,-194.55"/>
<polygon fill="#63b8ff" stroke="#63b8ff" points="800.1,-197.57 807.2,-189.7 796.75,-191.43 800.1,-197.57"/>
</a>
</g>
</g>
<!-- Node5 -->
<g id="Node000005" class="node">
<title>Node5</title>
<g id="a_Node000005"><a xlink:title=" ">
<polygon fill="#e0e0e0" stroke="#999999" points="535.1,-19 475.1,-19 475.1,0 535.1,0 535.1,-19"/>
<text text-anchor="middle" x="505.1" y="-7" font-family="Helvetica,sans-Serif" font-size="10.00">iostream</text>
</a>
</g>
</g>
<!-- Node4&#45;&gt;Node5 -->
<g id="edge4_Node000004_Node000005" class="edge">
<title>Node4&#45;&gt;Node5</title>
<g id="a_edge4_Node000004_Node000005"><a xlink:title=" ">
<path fill="none" stroke="#63b8ff" d="M698.34,-170.45C731.67,-160.74 773.1,-141.94 762.1,-110 733.09,-25.8 610.4,-11.44 545.59,-9.87"/>
<polygon fill="#63b8ff" stroke="#63b8ff" points="545.38,-6.37 535.33,-9.72 545.28,-13.37 545.38,-6.37"/>
</a>
</g>
</g>
<!-- Node4&#45;&gt;Node6 -->
<g id="edge5_Node000004_Node000006" class="edge">
<title>Node4&#45;&gt;Node6</title>
<g id="a_edge5_Node000004_Node000006"><a xlink:title=" ">
<path fill="none" stroke="#63b8ff" d="M654.69,-170.47C642.91,-151.9 614.75,-107.51 599.09,-82.82"/>
<polygon fill="#63b8ff" stroke="#63b8ff" points="601.89,-80.7 593.58,-74.13 595.98,-84.45 601.89,-80.7"/>
</a>
</g>
</g>
<!-- Node7 -->
<g id="Node000007" class="node">
<title>Node7</title>
<g id="a_Node000007"><a xlink:title=" ">
<polygon fill="#e0e0e0" stroke="#999999" points="710.1,-74 666.1,-74 666.1,-55 710.1,-55 710.1,-74"/>
<text text-anchor="middle" x="688.1" y="-62" font-family="Helvetica,sans-Serif" font-size="10.00">ctime</text>
</a>
</g>
</g>
<!-- Node4&#45;&gt;Node7 -->
<g id="edge6_Node000004_Node000007" class="edge">
<title>Node4&#45;&gt;Node7</title>
<g id="a_edge6_Node000004_Node000007"><a xlink:title=" ">
<path fill="none" stroke="#63b8ff" d="M661.97,-170.48C664.87,-157.43 670.66,-131.71 676.1,-110 678.27,-101.36 680.82,-91.81 683.01,-83.78"/>
<polygon fill="#63b8ff" stroke="#63b8ff" points="686.42,-84.58 685.71,-74.01 679.68,-82.72 686.42,-84.58"/>
</a>
</g>
</g>
<!-- Node8 -->
<g id="Node000008" class="node">
<title>Node8</title>
<g id="a_Node000008"><a xlink:href="safedate_8h.html" target="_top" xlink:title=" ">
<polygon fill="white" stroke="#666666" points="753.1,-129 685.1,-129 685.1,-110 753.1,-110 753.1,-129"/>
<text text-anchor="middle" x="719.1" y="-117" font-family="Helvetica,sans-Serif" font-size="10.00">safedate.h</text>
</a>
</g>
</g>
<!-- Node4&#45;&gt;Node8 -->
<g id="edge7_Node000004_Node000008" class="edge">
<title>Node4&#45;&gt;Node8</title>
<g id="a_edge7_Node000004_Node000008"><a xlink:title=" ">
<path fill="none" stroke="#63b8ff" d="M668.81,-170.37C677.78,-161.47 691.99,-147.39 703.01,-136.45"/>
<polygon fill="#63b8ff" stroke="#63b8ff" points="705.72,-138.69 710.36,-129.17 700.79,-133.72 705.72,-138.69"/>
</a>
</g>
</g>
<!-- Node8&#45;&gt;Node6 -->
<g id="edge10_Node000008_Node000006" class="edge">
<title>Node8&#45;&gt;Node6</title>
<g id="a_edge10_Node000008_Node000006"><a xlink:title=" ">
<path fill="none" stroke="#63b8ff" d="M698.05,-109.98C676.69,-101.34 643.4,-87.87 619.04,-78.02"/>
<polygon fill="#63b8ff" stroke="#63b8ff" points="620.11,-74.68 609.53,-74.17 617.49,-81.17 620.11,-74.68"/>
</a>
</g>
</g>
<!-- Node8&#45;&gt;Node7 -->
<g id="edge8_Node000008_Node000007" class="edge">
<title>Node8&#45;&gt;Node7</title>
<g id="a_edge8_Node000008_Node000007"><a xlink:title=" ">
<path fill="none" stroke="#63b8ff" d="M713.98,-109.75C709.74,-102.49 703.57,-91.95 698.33,-82.98"/>
<polygon fill="#63b8ff" stroke="#63b8ff" points="701.19,-80.95 693.12,-74.09 695.15,-84.49 701.19,-80.95"/>
</a>
</g>
</g>
<!-- Node8&#45;&gt;Node9 -->
<g id="edge9_Node000008_Node000009" class="edge">
<title>Node8&#45;&gt;Node9</title>
<g id="a_edge9_Node000008_Node000009"><a xlink:title=" ">
<path fill="none" stroke="#63b8ff" d="M741.92,-109.98C765.27,-101.27 801.81,-87.63 828.27,-77.75"/>
<polygon fill="#63b8ff" stroke="#63b8ff" points="829.73,-80.95 837.87,-74.17 827.28,-74.39 829.73,-80.95"/>
</a>
</g>
</g>
<!-- Node13&#45;&gt;Node5 -->
<g id="edge17_Node000013_Node000005" class="edge">
<title>Node13&#45;&gt;Node5</title>
<g id="a_edge17_Node000013_Node000005"><a xlink:title=" ">
<path fill="none" stroke="#63b8ff" d="M427.72,-296.87C447.68,-290.26 471.44,-279.1 486.1,-261 509.11,-232.6 505.1,-217.54 505.1,-181 505.1,-181 505.1,-181 505.1,-118.5 505.1,-87.19 505.1,-50.77 505.1,-29.23"/>
<polygon fill="#63b8ff" stroke="#63b8ff" points="508.6,-29.18 505.1,-19.18 501.6,-29.18 508.6,-29.18"/>
</a>
</g>
</g>
<!-- Node13&#45;&gt;Node6 -->
<g id="edge18_Node000013_Node000006" class="edge">
<title>Node13&#45;&gt;Node6</title>
<g id="a_edge18_Node000013_Node000006"><a xlink:title=" ">
<path fill="none" stroke="#63b8ff" d="M448.57,-296.98C473,-290.69 500.25,-279.81 519.1,-261 532.19,-247.94 568.74,-129.84 582.64,-83.78"/>
<polygon fill="#63b8ff" stroke="#63b8ff" points="586,-84.77 585.52,-74.18 579.29,-82.75 586,-84.77"/>
</a>
</g>
</g>
<!-- Node14 -->
<g id="Node000014" class="node">
<title>Node14</title>
<g id="a_Node000014"><a xlink:title=" ">
<polygon fill="#e0e0e0" stroke="#999999" points="289.1,-255.5 245.1,-255.5 245.1,-236.5 289.1,-236.5 289.1,-255.5"/>
<text text-anchor="middle" x="267.1" y="-243.5" font-family="Helvetica,sans-Serif" font-size="10.00">limits</text>
</a>
</g>
</g>
<!-- Node13&#45;&gt;Node14 -->
<g id="edge19_Node000013_Node000014" class="edge">
<title>Node13&#45;&gt;Node14</title>
<g id="a_edge19_Node000013_Node000014"><a xlink:title=" ">
<path fill="none" stroke="#63b8ff" d="M373.92,-296.99C353.1,-287.25 318.73,-271.16 294.62,-259.88"/>
<polygon fill="#63b8ff" stroke="#63b8ff" points="295.84,-256.59 285.3,-255.52 292.87,-262.93 295.84,-256.59"/>
</a>
</g>
</g>
<!-- Node13&#45;&gt;Node15 -->
<g id="edge20_Node000013_Node000015" class="edge">
<title>Node13&#45;&gt;Node15</title>
<g id="a_edge20_Node000013_Node000015"><a xlink:title=" ">
<path fill="none" stroke="#63b8ff" d="M330.86,-302.51C298.5,-297.74 260.53,-286.55 236.1,-261 221.97,-246.22 217.7,-222.93 216.69,-205.28"/>
<polygon fill="#63b8ff" stroke="#63b8ff" points="220.18,-205.05 216.42,-195.15 213.18,-205.24 220.18,-205.05"/>
</a>
</g>
</g>
<!-- Node18 -->
<g id="Node000018" class="node">
<title>Node18</title>
<g id="a_Node000018"><a xlink:href="InvalidPriceException_8h.html" target="_top" xlink:title=" ">
<polygon fill="white" stroke="#666666" points="477.1,-261 307.1,-261 307.1,-231 477.1,-231 477.1,-261"/>
<text text-anchor="start" x="315.1" y="-249" font-family="Helvetica,sans-Serif" font-size="10.00">Exception/PharmacyExceptions</text>
<text text-anchor="middle" x="392.1" y="-238" font-family="Helvetica,sans-Serif" font-size="10.00">/InvalidPriceException.h</text>
</a>
</g>
</g>
<!-- Node13&#45;&gt;Node18 -->
<g id="edge24_Node000013_Node000018" class="edge">
<title>Node13&#45;&gt;Node18</title>
<g id="a_edge24_Node000013_Node000018"><a xlink:title=" ">
<path fill="none" stroke="#63b8ff" d="M392.1,-296.87C392.1,-290.11 392.1,-280.35 392.1,-271.26"/>
<polygon fill="#63b8ff" stroke="#63b8ff" points="395.6,-271.11 392.1,-261.11 388.6,-271.11 395.6,-271.11"/>
</a>
</g>
</g>
<!-- Node19 -->
<g id="Node000019" class="node">
<title>Node19</title>
<g id="a_Node000019"><a xlink:href="InvalidProductIdException_8h.html" target="_top" xlink:title=" ">
<polygon fill="white" stroke="#666666" points="189.1,-261 19.1,-261 19.1,-231 189.1,-231 189.1,-261"/>
<text text-anchor="start" x="27.1" y="-249" font-family="Helvetica,sans-Serif" font-size="10.00">Exception/PharmacyExceptions</text>
<text text-anchor="middle" x="104.1" y="-238" font-family="Helvetica,sans-Serif" font-size="10.00">/InvalidProductIdException.h</text>
</a>
</g>
</g>
<!-- Node13&#45;&gt;Node19 -->
<g id="edge26_Node000013_Node000019" class="edge">
<title>Node13&#45;&gt;Node19</title>
<g id="a_edge26_Node000013_Node000019"><a xlink:title=" ">
<path fill="none" stroke="#63b8ff" d="M350.22,-296.99C306.53,-288.12 236.99,-273.99 182.96,-263.02"/>
<polygon fill="#63b8ff" stroke="#63b8ff" points="183.56,-259.57 173.06,-261.01 182.17,-266.43 183.56,-259.57"/>
</a>
</g>
</g>
<!-- Node16 -->
<g id="Node000016" class="node">
<title>Node16</title>
<g id="a_Node000016"><a xlink:href="MedicalProductException_8h.html" target="_top" xlink:title=" ">
<polygon fill="white" stroke="#666666" points="384.6,-129 235.6,-129 235.6,-110 384.6,-110 384.6,-129"/>
<text text-anchor="middle" x="310.1" y="-117" font-family="Helvetica,sans-Serif" font-size="10.00">MedicalProductException.h</text>
</a>
</g>
</g>
<!-- Node15&#45;&gt;Node16 -->
<g id="edge21_Node000015_Node000016" class="edge">
<title>Node15&#45;&gt;Node16</title>
<g id="a_edge21_Node000015_Node000016"><a xlink:title=" ">
<path fill="none" stroke="#63b8ff" d="M239.61,-164.84C254.17,-155.68 273.03,-143.82 287.59,-134.66"/>
<polygon fill="#63b8ff" stroke="#63b8ff" points="289.84,-137.38 296.44,-129.09 286.11,-131.46 289.84,-137.38"/>
</a>
</g>
</g>
<!-- Node17 -->
<g id="Node000017" class="node">
<title>Node17</title>
<g id="a_Node000017"><a xlink:href="PharmacyException_8h.html" target="_top" xlink:title=" ">
<polygon fill="white" stroke="#666666" points="471.1,-74 349.1,-74 349.1,-55 471.1,-55 471.1,-74"/>
<text text-anchor="middle" x="410.1" y="-62" font-family="Helvetica,sans-Serif" font-size="10.00">PharmacyException.h</text>
</a>
</g>
</g>
<!-- Node16&#45;&gt;Node17 -->
<g id="edge22_Node000016_Node000017" class="edge">
<title>Node16&#45;&gt;Node17</title>
<g id="a_edge22_Node000016_Node000017"><a xlink:title=" ">
<path fill="none" stroke="#63b8ff" d="M326.17,-109.98C341.96,-101.61 366.32,-88.7 384.73,-78.95"/>
<polygon fill="#63b8ff" stroke="#63b8ff" points="386.55,-81.95 393.74,-74.17 383.27,-75.76 386.55,-81.95"/>
</a>
</g>
</g>
<!-- Node17&#45;&gt;Node5 -->
<g id="edge23_Node000017_Node000005" class="edge">
<title>Node17&#45;&gt;Node5</title>
<g id="a_edge23_Node000017_Node000005"><a xlink:title=" ">
<path fill="none" stroke="#63b8ff" d="M425.36,-54.98C440.23,-46.69 463.08,-33.94 480.52,-24.22"/>
<polygon fill="#63b8ff" stroke="#63b8ff" points="482.53,-27.1 489.56,-19.17 479.12,-20.99 482.53,-27.1"/>
</a>
</g>
</g>
<!-- Node18&#45;&gt;Node15 -->
<g id="edge25_Node000018_Node000015" class="edge">
<title>Node18&#45;&gt;Node15</title>
<g id="a_edge25_Node000018_Node000015"><a xlink:title=" ">
<path fill="none" stroke="#63b8ff" d="M353.7,-230.95C327.6,-221.41 292.88,-208.71 264.98,-198.51"/>
<polygon fill="#63b8ff" stroke="#63b8ff" points="266.01,-195.16 255.42,-195.01 263.61,-201.73 266.01,-195.16"/>
</a>
</g>
</g>
<!-- Node19&#45;&gt;Node15 -->
<g id="edge27_Node000019_Node000015" class="edge">
<title>Node19&#45;&gt;Node15</title>
<g id="a_edge27_Node000019_Node000015"><a xlink:title=" ">
<path fill="none" stroke="#63b8ff" d="M128.9,-230.95C144.94,-221.87 166.03,-209.93 183.56,-200"/>
<polygon fill="#63b8ff" stroke="#63b8ff" points="185.38,-202.99 192.36,-195.01 181.93,-196.9 185.38,-202.99"/>
</a>
</g>
</g>
</g>
</svg>
