<?xml version="1.0" encoding="UTF-8" standalone="no"?>
<!DOCTYPE svg PUBLIC "-//W3C//DTD SVG 1.1//EN"
 "http://www.w3.org/Graphics/SVG/1.1/DTD/svg11.dtd">
<!-- Generated by graphviz version 2.43.0 (0)
 -->
<!-- Title: pharmacy.cpp Pages: 1 -->
<svg width="1199pt" height="390pt"
 viewBox="0.00 0.00 1199.00 390.00" xmlns="http://www.w3.org/2000/svg" xmlns:xlink="http://www.w3.org/1999/xlink">
<g id="graph0" class="graph" transform="scale(1 1) rotate(0) translate(4 386)">
<title>pharmacy.cpp</title>
<!-- Node1 -->
<g id="Node000001" class="node">
<title>Node1</title>
<g id="a_Node000001"><a xlink:title=" ">
<polygon fill="#999999" stroke="#666666" points="805,-382 721,-382 721,-363 805,-363 805,-382"/>
<text text-anchor="middle" x="763" y="-370" font-family="Helvetica,sans-Serif" font-size="10.00">pharmacy.cpp</text>
</a>
</g>
</g>
<!-- Node2 -->
<g id="Node000002" class="node">
<title>Node2</title>
<g id="a_Node000002"><a xlink:href="pharmacy_8h.html" target="_top" xlink:title=" ">
<polygon fill="white" stroke="#666666" points="953.5,-321.5 880.5,-321.5 880.5,-302.5 953.5,-302.5 953.5,-321.5"/>
<text text-anchor="middle" x="917" y="-309.5" font-family="Helvetica,sans-Serif" font-size="10.00">pharmacy.h</text>
</a>
</g>
</g>
<!-- Node1&#45;&gt;Node2 -->
<g id="edge1_Node000001_Node000002" class="edge">
<title>Node1&#45;&gt;Node2</title>
<g id="a_edge1_Node000001_Node000002"><a xlink:title=" ">
<path fill="none" stroke="#63b8ff" d="M785.39,-362.99C811.62,-353.03 855.28,-336.45 885.06,-325.13"/>
<polygon fill="#63b8ff" stroke="#63b8ff" points="886.47,-328.34 894.58,-321.52 883.99,-321.8 886.47,-328.34"/>
</a>
</g>
</g>
<!-- Node9 -->
<g id="Node000009" class="node">
<title>Node9</title>
<g id="a_Node000009"><a xlink:title=" ">
<polygon fill="#e0e0e0" stroke="#999999" points="944.5,-74 879.5,-74 879.5,-55 944.5,-55 944.5,-74"/>
<text text-anchor="middle" x="912" y="-62" font-family="Helvetica,sans-Serif" font-size="10.00">stdexcept</text>
</a>
</g>
</g>
<!-- Node1&#45;&gt;Node9 -->
<g id="edge24_Node000001_Node000009" class="edge">
<title>Node1&#45;&gt;Node9</title>
<g id="a_edge24_Node000001_Node000009"><a xlink:title=" ">
<path fill="none" stroke="#63b8ff" d="M767.14,-363C787.27,-321.65 875.11,-141.27 903.27,-83.42"/>
<polygon fill="#63b8ff" stroke="#63b8ff" points="906.58,-84.63 907.81,-74.11 900.28,-81.57 906.58,-84.63"/>
</a>
</g>
</g>
<!-- Node14 -->
<g id="Node000014" class="node">
<title>Node14</title>
<g id="a_Node000014"><a xlink:title=" ">
<polygon fill="#e0e0e0" stroke="#999999" points="1036,-321.5 972,-321.5 972,-302.5 1036,-302.5 1036,-321.5"/>
<text text-anchor="middle" x="1004" y="-309.5" font-family="Helvetica,sans-Serif" font-size="10.00">algorithm</text>
</a>
</g>
</g>
<!-- Node1&#45;&gt;Node14 -->
<g id="edge22_Node000001_Node000014" class="edge">
<title>Node1&#45;&gt;Node14</title>
<g id="a_edge22_Node000001_Node000014"><a xlink:title=" ">
<path fill="none" stroke="#63b8ff" d="M805.24,-363.35C845.73,-355.24 908.45,-341.87 962,-327 964.62,-326.27 967.31,-325.48 970.01,-324.65"/>
<polygon fill="#63b8ff" stroke="#63b8ff" points="971.23,-327.94 979.7,-321.57 969.11,-321.27 971.23,-327.94"/>
</a>
</g>
</g>
<!-- Node15 -->
<g id="Node000015" class="node">
<title>Node15</title>
<g id="a_Node000015"><a xlink:title=" ">
<polygon fill="#e0e0e0" stroke="#999999" points="1110,-321.5 1054,-321.5 1054,-302.5 1110,-302.5 1110,-321.5"/>
<text text-anchor="middle" x="1082" y="-309.5" font-family="Helvetica,sans-Serif" font-size="10.00">sstream</text>
</a>
</g>
</g>
<!-- Node1&#45;&gt;Node15 -->
<g id="edge23_Node000001_Node000015" class="edge">
<title>Node1&#45;&gt;Node15</title>
<g id="a_edge23_Node000001_Node000015"><a xlink:title=" ">
<path fill="none" stroke="#63b8ff" d="M805.13,-367.58C860.74,-361.79 961.4,-349.16 1045,-327 1047.3,-326.39 1049.65,-325.69 1052,-324.94"/>
<polygon fill="#63b8ff" stroke="#63b8ff" points="1053.22,-328.22 1061.5,-321.61 1050.91,-321.61 1053.22,-328.22"/>
</a>
</g>
</g>
<!-- Node16 -->
<g id="Node000016" class="node">
<title>Node16</title>
<g id="a_Node000016"><a xlink:href="safeinput_8h.html" target="_top" xlink:title=" ">
<polygon fill="white" stroke="#666666" points="761,-321.5 639,-321.5 639,-302.5 761,-302.5 761,-321.5"/>
<text text-anchor="middle" x="700" y="-309.5" font-family="Helvetica,sans-Serif" font-size="10.00">Exception/safeinput.h</text>
</a>
</g>
</g>
<!-- Node1&#45;&gt;Node16 -->
<g id="edge25_Node000001_Node000016" class="edge">
<title>Node1&#45;&gt;Node16</title>
<g id="a_edge25_Node000001_Node000016"><a xlink:title=" ">
<path fill="none" stroke="#63b8ff" d="M753.7,-362.87C744.03,-353.88 728.66,-339.61 716.84,-328.64"/>
<polygon fill="#63b8ff" stroke="#63b8ff" points="719.04,-325.91 709.33,-321.67 714.28,-331.04 719.04,-325.91"/>
</a>
</g>
</g>
<!-- Node18 -->
<g id="Node000018" class="node">
<title>Node18</title>
<g id="a_Node000018"><a xlink:href="InvalidProductDataException_8h.html" target="_top" xlink:title=" ">
<polygon fill="white" stroke="#666666" points="434,-195 264,-195 264,-165 434,-165 434,-195"/>
<text text-anchor="start" x="272" y="-183" font-family="Helvetica,sans-Serif" font-size="10.00">Exception/PharmacyExceptions</text>
<text text-anchor="middle" x="349" y="-172" font-family="Helvetica,sans-Serif" font-size="10.00">/InvalidProductDataException.h</text>
</a>
</g>
</g>
<!-- Node1&#45;&gt;Node18 -->
<g id="edge37_Node000001_Node000018" class="edge">
<title>Node1&#45;&gt;Node18</title>
<g id="a_edge37_Node000001_Node000018"><a xlink:title=" ">
<path fill="none" stroke="#63b8ff" d="M720.73,-368.9C609.58,-361.09 313.62,-333.74 255,-261 235.42,-236.7 268.53,-214.16 300.73,-199.24"/>
<polygon fill="#63b8ff" stroke="#63b8ff" points="302.46,-202.3 310.18,-195.05 299.62,-195.9 302.46,-202.3"/>
</a>
</g>
</g>
<!-- Node23 -->
<g id="Node000023" class="node">
<title>Node23</title>
<g id="a_Node000023"><a xlink:href="ProductNotFoundException_8h.html" target="_top" xlink:title=" ">
<polygon fill="white" stroke="#666666" points="170,-261 0,-261 0,-231 170,-231 170,-261"/>
<text text-anchor="start" x="8" y="-249" font-family="Helvetica,sans-Serif" font-size="10.00">Exception/PharmacyExceptions</text>
<text text-anchor="middle" x="85" y="-238" font-family="Helvetica,sans-Serif" font-size="10.00">/ProductNotFoundException.h</text>
</a>
</g>
</g>
<!-- Node1&#45;&gt;Node23 -->
<g id="edge38_Node000001_Node000023" class="edge">
<title>Node1&#45;&gt;Node23</title>
<g id="a_edge38_Node000001_Node000023"><a xlink:title=" ">
<path fill="none" stroke="#63b8ff" d="M720.84,-371.5C582.88,-371.13 150.99,-366.78 104,-327 88.14,-313.57 84.17,-289.54 83.7,-271.31"/>
<polygon fill="#63b8ff" stroke="#63b8ff" points="87.2,-271.14 83.78,-261.11 80.2,-271.09 87.2,-271.14"/>
</a>
</g>
</g>
<!-- Node24 -->
<g id="Node000024" class="node">
<title>Node24</title>
<g id="a_Node000024"><a xlink:href="DuplicateProductException_8h.html" target="_top" xlink:title=" ">
<polygon fill="white" stroke="#666666" points="283,-327 113,-327 113,-297 283,-297 283,-327"/>
<text text-anchor="start" x="121" y="-315" font-family="Helvetica,sans-Serif" font-size="10.00">Exception/PharmacyExceptions</text>
<text text-anchor="middle" x="198" y="-304" font-family="Helvetica,sans-Serif" font-size="10.00">/DuplicateProductException.h</text>
</a>
</g>
</g>
<!-- Node1&#45;&gt;Node24 -->
<g id="edge40_Node000001_Node000024" class="edge">
<title>Node1&#45;&gt;Node24</title>
<g id="a_edge40_Node000001_Node000024"><a xlink:title=" ">
<path fill="none" stroke="#63b8ff" d="M720.84,-368.12C639.01,-361.41 452.97,-345.47 297,-327 295.72,-326.85 294.42,-326.69 293.12,-326.53"/>
<polygon fill="#63b8ff" stroke="#63b8ff" points="293.38,-323.04 283.02,-325.28 292.51,-329.99 293.38,-323.04"/>
</a>
</g>
</g>
<!-- Node3 -->
<g id="Node000003" class="node">
<title>Node3</title>
<g id="a_Node000003"><a xlink:href="medicine_8h.html" target="_top" xlink:title=" ">
<polygon fill="white" stroke="#666666" points="987.5,-255.5 916.5,-255.5 916.5,-236.5 987.5,-236.5 987.5,-255.5"/>
<text text-anchor="middle" x="952" y="-243.5" font-family="Helvetica,sans-Serif" font-size="10.00">medicine.h</text>
</a>
</g>
</g>
<!-- Node2&#45;&gt;Node3 -->
<g id="edge2_Node000002_Node000003" class="edge">
<title>Node2&#45;&gt;Node3</title>
<g id="a_edge2_Node000002_Node000003"><a xlink:title=" ">
<path fill="none" stroke="#63b8ff" d="M921.72,-302.37C926.96,-292.78 935.57,-277.05 942.27,-264.8"/>
<polygon fill="#63b8ff" stroke="#63b8ff" points="945.4,-266.36 947.13,-255.91 939.26,-263 945.4,-266.36"/>
</a>
</g>
</g>
<!-- Node4 -->
<g id="Node000004" class="node">
<title>Node4</title>
<g id="a_Node000004"><a xlink:href="medicalproduct_8h.html" target="_top" xlink:title=" ">
<polygon fill="white" stroke="#666666" points="993.5,-189.5 892.5,-189.5 892.5,-170.5 993.5,-170.5 993.5,-189.5"/>
<text text-anchor="middle" x="943" y="-177.5" font-family="Helvetica,sans-Serif" font-size="10.00">medicalproduct.h</text>
</a>
</g>
</g>
<!-- Node2&#45;&gt;Node4 -->
<g id="edge14_Node000002_Node000004" class="edge">
<title>Node2&#45;&gt;Node4</title>
<g id="a_edge14_Node000002_Node000004"><a xlink:title=" ">
<path fill="none" stroke="#63b8ff" d="M913.55,-302.37C908.1,-287.45 898.92,-256.04 907,-231 911.07,-218.37 919.65,-206.25 927.41,-197.1"/>
<polygon fill="#63b8ff" stroke="#63b8ff" points="930.07,-199.38 934.15,-189.6 924.86,-194.69 930.07,-199.38"/>
</a>
</g>
</g>
<!-- Node10 -->
<g id="Node000010" class="node">
<title>Node10</title>
<g id="a_Node000010"><a xlink:title=" ">
<polygon fill="#e0e0e0" stroke="#999999" points="1058.5,-189.5 1011.5,-189.5 1011.5,-170.5 1058.5,-170.5 1058.5,-189.5"/>
<text text-anchor="middle" x="1035" y="-177.5" font-family="Helvetica,sans-Serif" font-size="10.00">vector</text>
</a>
</g>
</g>
<!-- Node2&#45;&gt;Node10 -->
<g id="edge15_Node000002_Node000010" class="edge">
<title>Node2&#45;&gt;Node10</title>
<g id="a_edge15_Node000002_Node000010"><a xlink:title=" ">
<path fill="none" stroke="#63b8ff" d="M936.69,-302.38C954.13,-293.94 979.33,-279.63 996,-261 1012.3,-242.79 1023.35,-216.54 1029.41,-199.14"/>
<polygon fill="#63b8ff" stroke="#63b8ff" points="1032.75,-200.19 1032.54,-189.6 1026.1,-198.01 1032.75,-200.19"/>
</a>
</g>
</g>
<!-- Node11 -->
<g id="Node000011" class="node">
<title>Node11</title>
<g id="a_Node000011"><a xlink:title=" ">
<polygon fill="#e0e0e0" stroke="#999999" points="1191,-189.5 1133,-189.5 1133,-170.5 1191,-170.5 1191,-189.5"/>
<text text-anchor="middle" x="1162" y="-177.5" font-family="Helvetica,sans-Serif" font-size="10.00">memory</text>
</a>
</g>
</g>
<!-- Node2&#45;&gt;Node11 -->
<g id="edge16_Node000002_Node000011" class="edge">
<title>Node2&#45;&gt;Node11</title>
<g id="a_edge16_Node000002_Node000011"><a xlink:title=" ">
<path fill="none" stroke="#63b8ff" d="M944.16,-302.42C950.33,-300.56 956.88,-298.66 963,-297 1030.02,-278.88 1059.15,-302.24 1115,-261 1136.01,-245.48 1149.27,-217.52 1156.16,-199.11"/>
<polygon fill="#63b8ff" stroke="#63b8ff" points="1159.51,-200.13 1159.49,-189.54 1152.89,-197.83 1159.51,-200.13"/>
</a>
</g>
</g>
<!-- Node12 -->
<g id="Node000012" class="node">
<title>Node12</title>
<g id="a_Node000012"><a xlink:href="storage_8h.html" target="_top" xlink:title=" ">
<polygon fill="white" stroke="#666666" points="1106,-255.5 1044,-255.5 1044,-236.5 1106,-236.5 1106,-255.5"/>
<text text-anchor="middle" x="1075" y="-243.5" font-family="Helvetica,sans-Serif" font-size="10.00">storage.h</text>
</a>
</g>
</g>
<!-- Node2&#45;&gt;Node12 -->
<g id="edge17_Node000002_Node000012" class="edge">
<title>Node2&#45;&gt;Node12</title>
<g id="a_edge17_Node000002_Node000012"><a xlink:title=" ">
<path fill="none" stroke="#63b8ff" d="M938.31,-302.37C965.6,-291.32 1013.07,-272.08 1044.27,-259.45"/>
<polygon fill="#63b8ff" stroke="#63b8ff" points="1045.82,-262.59 1053.78,-255.6 1043.19,-256.11 1045.82,-262.59"/>
</a>
</g>
</g>
<!-- Node3&#45;&gt;Node4 -->
<g id="edge3_Node000003_Node000004" class="edge">
<title>Node3&#45;&gt;Node4</title>
<g id="a_edge3_Node000003_Node000004"><a xlink:title=" ">
<path fill="none" stroke="#63b8ff" d="M950.79,-236.37C949.48,-227.07 947.36,-211.98 945.66,-199.9"/>
<polygon fill="#63b8ff" stroke="#63b8ff" points="949.11,-199.32 944.25,-189.91 942.18,-200.3 949.11,-199.32"/>
</a>
</g>
</g>
<!-- Node6 -->
<g id="Node000006" class="node">
<title>Node6</title>
<g id="a_Node000006"><a xlink:title=" ">
<polygon fill="#e0e0e0" stroke="#999999" points="849,-74 805,-74 805,-55 849,-55 849,-74"/>
<text text-anchor="middle" x="827" y="-62" font-family="Helvetica,sans-Serif" font-size="10.00">string</text>
</a>
</g>
</g>
<!-- Node3&#45;&gt;Node6 -->
<g id="edge13_Node000003_Node000006" class="edge">
<title>Node3&#45;&gt;Node6</title>
<g id="a_edge13_Node000003_Node000006"><a xlink:title=" ">
<path fill="none" stroke="#63b8ff" d="M935.54,-236.48C920.19,-227.82 897.53,-213.12 883,-195 855.51,-160.72 839.05,-110.9 831.66,-84.15"/>
<polygon fill="#63b8ff" stroke="#63b8ff" points="834.97,-82.99 829.04,-74.21 828.2,-84.77 834.97,-82.99"/>
</a>
</g>
</g>
<!-- Node3&#45;&gt;Node10 -->
<g id="edge11_Node000003_Node000010" class="edge">
<title>Node3&#45;&gt;Node10</title>
<g id="a_edge11_Node000003_Node000010"><a xlink:title=" ">
<path fill="none" stroke="#63b8ff" d="M963.19,-236.37C976.56,-226.06 999.15,-208.65 1015.42,-196.09"/>
<polygon fill="#63b8ff" stroke="#63b8ff" points="1017.94,-198.58 1023.72,-189.7 1013.66,-193.03 1017.94,-198.58"/>
</a>
</g>
</g>
<!-- Node3&#45;&gt;Node11 -->
<g id="edge12_Node000003_Node000011" class="edge">
<title>Node3&#45;&gt;Node11</title>
<g id="a_edge12_Node000003_Node000011"><a xlink:title=" ">
<path fill="none" stroke="#63b8ff" d="M983.91,-236.45C1018.59,-226.98 1075.56,-210.94 1124,-195 1125.9,-194.37 1127.85,-193.71 1129.82,-193.03"/>
<polygon fill="#63b8ff" stroke="#63b8ff" points="1131.34,-196.21 1139.59,-189.55 1128.99,-189.61 1131.34,-196.21"/>
</a>
</g>
</g>
<!-- Node5 -->
<g id="Node000005" class="node">
<title>Node5</title>
<g id="a_Node000005"><a xlink:title=" ">
<polygon fill="#e0e0e0" stroke="#999999" points="780,-19 720,-19 720,0 780,0 780,-19"/>
<text text-anchor="middle" x="750" y="-7" font-family="Helvetica,sans-Serif" font-size="10.00">iostream</text>
</a>
</g>
</g>
<!-- Node4&#45;&gt;Node5 -->
<g id="edge4_Node000004_Node000005" class="edge">
<title>Node4&#45;&gt;Node5</title>
<g id="a_edge4_Node000004_Node000005"><a xlink:title=" ">
<path fill="none" stroke="#63b8ff" d="M968.27,-170.49C986.86,-162.78 1010.93,-149.45 1023,-129 1039.73,-100.66 1047.34,-80.06 1026,-55 996.22,-20.03 859.59,-12.44 790.4,-10.87"/>
<polygon fill="#63b8ff" stroke="#63b8ff" points="790.37,-7.37 780.3,-10.67 790.23,-14.36 790.37,-7.37"/>
</a>
</g>
</g>
<!-- Node4&#45;&gt;Node6 -->
<g id="edge5_Node000004_Node000006" class="edge">
<title>Node4&#45;&gt;Node6</title>
<g id="a_edge5_Node000004_Node000006"><a xlink:title=" ">
<path fill="none" stroke="#63b8ff" d="M934.28,-170.47C914.88,-151.49 867.91,-105.53 843.05,-81.21"/>
<polygon fill="#63b8ff" stroke="#63b8ff" points="845.42,-78.62 835.82,-74.13 840.52,-83.63 845.42,-78.62"/>
</a>
</g>
</g>
<!-- Node7 -->
<g id="Node000007" class="node">
<title>Node7</title>
<g id="a_Node000007"><a xlink:title=" ">
<polygon fill="#e0e0e0" stroke="#999999" points="1017,-74 973,-74 973,-55 1017,-55 1017,-74"/>
<text text-anchor="middle" x="995" y="-62" font-family="Helvetica,sans-Serif" font-size="10.00">ctime</text>
</a>
</g>
</g>
<!-- Node4&#45;&gt;Node7 -->
<g id="edge6_Node000004_Node000007" class="edge">
<title>Node4&#45;&gt;Node7</title>
<g id="a_edge6_Node000004_Node000007"><a xlink:title=" ">
<path fill="none" stroke="#63b8ff" d="M961.45,-170.49C976.8,-162.28 997.6,-148.26 1007,-129 1013.99,-114.68 1009.53,-96.7 1004.17,-83.53"/>
<polygon fill="#63b8ff" stroke="#63b8ff" points="1007.23,-81.81 999.89,-74.17 1000.86,-84.72 1007.23,-81.81"/>
</a>
</g>
</g>
<!-- Node8 -->
<g id="Node000008" class="node">
<title>Node8</title>
<g id="a_Node000008"><a xlink:href="safedate_8h.html" target="_top" xlink:title=" ">
<polygon fill="white" stroke="#666666" points="998,-129 930,-129 930,-110 998,-110 998,-129"/>
<text text-anchor="middle" x="964" y="-117" font-family="Helvetica,sans-Serif" font-size="10.00">safedate.h</text>
</a>
</g>
</g>
<!-- Node4&#45;&gt;Node8 -->
<g id="edge7_Node000004_Node000008" class="edge">
<title>Node4&#45;&gt;Node8</title>
<g id="a_edge7_Node000004_Node000008"><a xlink:title=" ">
<path fill="none" stroke="#63b8ff" d="M946.1,-170.37C949.08,-162.07 953.67,-149.28 957.46,-138.72"/>
<polygon fill="#63b8ff" stroke="#63b8ff" points="960.8,-139.76 960.89,-129.17 954.22,-137.4 960.8,-139.76"/>
</a>
</g>
</g>
<!-- Node8&#45;&gt;Node6 -->
<g id="edge10_Node000008_Node000006" class="edge">
<title>Node8&#45;&gt;Node6</title>
<g id="a_edge10_Node000008_Node000006"><a xlink:title=" ">
<path fill="none" stroke="#63b8ff" d="M941.99,-109.98C919.55,-101.3 884.52,-87.75 859.01,-77.88"/>
<polygon fill="#63b8ff" stroke="#63b8ff" points="860,-74.51 849.41,-74.17 857.48,-81.04 860,-74.51"/>
</a>
</g>
</g>
<!-- Node8&#45;&gt;Node7 -->
<g id="edge8_Node000008_Node000007" class="edge">
<title>Node8&#45;&gt;Node7</title>
<g id="a_edge8_Node000008_Node000007"><a xlink:title=" ">
<path fill="none" stroke="#63b8ff" d="M969.12,-109.75C973.36,-102.49 979.53,-91.95 984.78,-82.98"/>
<polygon fill="#63b8ff" stroke="#63b8ff" points="987.95,-84.49 989.98,-74.09 981.91,-80.95 987.95,-84.49"/>
</a>
</g>
</g>
<!-- Node8&#45;&gt;Node9 -->
<g id="edge9_Node000008_Node000009" class="edge">
<title>Node8&#45;&gt;Node9</title>
<g id="a_edge9_Node000008_Node000009"><a xlink:title=" ">
<path fill="none" stroke="#63b8ff" d="M955.41,-109.75C947.84,-102.03 936.62,-90.6 927.49,-81.28"/>
<polygon fill="#63b8ff" stroke="#63b8ff" points="929.93,-78.78 920.43,-74.09 924.93,-83.68 929.93,-78.78"/>
</a>
</g>
</g>
<!-- Node12&#45;&gt;Node4 -->
<g id="edge18_Node000012_Node000004" class="edge">
<title>Node12&#45;&gt;Node4</title>
<g id="a_edge18_Node000012_Node000004"><a xlink:title=" ">
<path fill="none" stroke="#63b8ff" d="M1057.2,-236.37C1034.86,-225.54 996.32,-206.85 970.26,-194.22"/>
<polygon fill="#63b8ff" stroke="#63b8ff" points="971.47,-190.91 960.94,-189.7 968.41,-197.21 971.47,-190.91"/>
</a>
</g>
</g>
<!-- Node12&#45;&gt;Node10 -->
<g id="edge20_Node000012_Node000010" class="edge">
<title>Node12&#45;&gt;Node10</title>
<g id="a_edge20_Node000012_Node000010"><a xlink:title=" ">
<path fill="none" stroke="#63b8ff" d="M1069.61,-236.37C1063.56,-226.69 1053.59,-210.74 1045.9,-198.44"/>
<polygon fill="#63b8ff" stroke="#63b8ff" points="1048.83,-196.53 1040.57,-189.91 1042.9,-200.24 1048.83,-196.53"/>
</a>
</g>
</g>
<!-- Node12&#45;&gt;Node11 -->
<g id="edge21_Node000012_Node000011" class="edge">
<title>Node12&#45;&gt;Node11</title>
<g id="a_edge21_Node000012_Node000011"><a xlink:title=" ">
<path fill="none" stroke="#63b8ff" d="M1086.73,-236.37C1100.87,-225.97 1124.86,-208.32 1141.95,-195.75"/>
<polygon fill="#63b8ff" stroke="#63b8ff" points="1144.19,-198.44 1150.17,-189.7 1140.05,-192.81 1144.19,-198.44"/>
</a>
</g>
</g>
<!-- Node13 -->
<g id="Node000013" class="node">
<title>Node13</title>
<g id="a_Node000013"><a xlink:title=" ">
<polygon fill="#e0e0e0" stroke="#999999" points="1115,-189.5 1077,-189.5 1077,-170.5 1115,-170.5 1115,-189.5"/>
<text text-anchor="middle" x="1096" y="-177.5" font-family="Helvetica,sans-Serif" font-size="10.00">map</text>
</a>
</g>
</g>
<!-- Node12&#45;&gt;Node13 -->
<g id="edge19_Node000012_Node000013" class="edge">
<title>Node12&#45;&gt;Node13</title>
<g id="a_edge19_Node000012_Node000013"><a xlink:title=" ">
<path fill="none" stroke="#63b8ff" d="M1077.83,-236.37C1080.91,-226.97 1085.94,-211.67 1089.92,-199.53"/>
<polygon fill="#63b8ff" stroke="#63b8ff" points="1093.29,-200.5 1093.08,-189.91 1086.63,-198.32 1093.29,-200.5"/>
</a>
</g>
</g>
<!-- Node16&#45;&gt;Node5 -->
<g id="edge26_Node000016_Node000005" class="edge">
<title>Node16&#45;&gt;Node5</title>
<g id="a_edge26_Node000016_Node000005"><a xlink:title=" ">
<path fill="none" stroke="#63b8ff" d="M706.64,-302.26C713.65,-292.64 724.57,-276.47 731,-261 745.03,-227.26 750,-217.54 750,-181 750,-181 750,-181 750,-118.5 750,-87.19 750,-50.77 750,-29.23"/>
<polygon fill="#63b8ff" stroke="#63b8ff" points="753.5,-29.18 750,-19.18 746.5,-29.18 753.5,-29.18"/>
</a>
</g>
</g>
<!-- Node16&#45;&gt;Node6 -->
<g id="edge27_Node000016_Node000006" class="edge">
<title>Node16&#45;&gt;Node6</title>
<g id="a_edge27_Node000016_Node000006"><a xlink:title=" ">
<path fill="none" stroke="#63b8ff" d="M715.62,-302.49C730.12,-293.84 751.32,-279.15 764,-261 803.61,-204.28 819.37,-121.25 824.67,-84.36"/>
<polygon fill="#63b8ff" stroke="#63b8ff" points="828.19,-84.48 826.05,-74.1 821.25,-83.55 828.19,-84.48"/>
</a>
</g>
</g>
<!-- Node17 -->
<g id="Node000017" class="node">
<title>Node17</title>
<g id="a_Node000017"><a xlink:title=" ">
<polygon fill="#e0e0e0" stroke="#999999" points="722,-255.5 678,-255.5 678,-236.5 722,-236.5 722,-255.5"/>
<text text-anchor="middle" x="700" y="-243.5" font-family="Helvetica,sans-Serif" font-size="10.00">limits</text>
</a>
</g>
</g>
<!-- Node16&#45;&gt;Node17 -->
<g id="edge28_Node000016_Node000017" class="edge">
<title>Node16&#45;&gt;Node17</title>
<g id="a_edge28_Node000016_Node000017"><a xlink:title=" ">
<path fill="none" stroke="#63b8ff" d="M700,-302.37C700,-293.16 700,-278.29 700,-266.27"/>
<polygon fill="#63b8ff" stroke="#63b8ff" points="703.5,-265.91 700,-255.91 696.5,-265.91 703.5,-265.91"/>
</a>
</g>
</g>
<!-- Node16&#45;&gt;Node18 -->
<g id="edge29_Node000016_Node000018" class="edge">
<title>Node16&#45;&gt;Node18</title>
<g id="a_edge29_Node000016_Node000018"><a xlink:title=" ">
<path fill="none" stroke="#63b8ff" d="M695.26,-302.29C685.61,-285.47 661.93,-248.6 631,-231 599.64,-213.16 513.22,-199.48 444.24,-190.97"/>
<polygon fill="#63b8ff" stroke="#63b8ff" points="444.55,-187.49 434.2,-189.76 443.71,-194.44 444.55,-187.49"/>
</a>
</g>
</g>
<!-- Node21 -->
<g id="Node000021" class="node">
<title>Node21</title>
<g id="a_Node000021"><a xlink:href="InvalidPriceException_8h.html" target="_top" xlink:title=" ">
<polygon fill="white" stroke="#666666" points="434,-261 264,-261 264,-231 434,-231 434,-261"/>
<text text-anchor="start" x="272" y="-249" font-family="Helvetica,sans-Serif" font-size="10.00">Exception/PharmacyExceptions</text>
<text text-anchor="middle" x="349" y="-238" font-family="Helvetica,sans-Serif" font-size="10.00">/InvalidPriceException.h</text>
</a>
</g>
</g>
<!-- Node16&#45;&gt;Node21 -->
<g id="edge33_Node000016_Node000021" class="edge">
<title>Node16&#45;&gt;Node21</title>
<g id="a_edge33_Node000016_Node000021"><a xlink:title=" ">
<path fill="none" stroke="#63b8ff" d="M653.03,-302.44C597.65,-292.34 504.49,-275.35 435.86,-262.84"/>
<polygon fill="#63b8ff" stroke="#63b8ff" points="436.38,-259.38 425.92,-261.02 435.13,-266.26 436.38,-259.38"/>
</a>
</g>
</g>
<!-- Node22 -->
<g id="Node000022" class="node">
<title>Node22</title>
<g id="a_Node000022"><a xlink:href="InvalidProductIdException_8h.html" target="_top" xlink:title=" ">
<polygon fill="white" stroke="#666666" points="622,-261 452,-261 452,-231 622,-231 622,-261"/>
<text text-anchor="start" x="460" y="-249" font-family="Helvetica,sans-Serif" font-size="10.00">Exception/PharmacyExceptions</text>
<text text-anchor="middle" x="537" y="-238" font-family="Helvetica,sans-Serif" font-size="10.00">/InvalidProductIdException.h</text>
</a>
</g>
</g>
<!-- Node16&#45;&gt;Node22 -->
<g id="edge35_Node000016_Node000022" class="edge">
<title>Node16&#45;&gt;Node22</title>
<g id="a_edge35_Node000016_Node000022"><a xlink:title=" ">
<path fill="none" stroke="#63b8ff" d="M678.02,-302.37C653.6,-292.78 613.52,-277.05 582.32,-264.8"/>
<polygon fill="#63b8ff" stroke="#63b8ff" points="583.54,-261.51 572.95,-261.12 580.98,-268.03 583.54,-261.51"/>
</a>
</g>
</g>
<!-- Node19 -->
<g id="Node000019" class="node">
<title>Node19</title>
<g id="a_Node000019"><a xlink:href="MedicalProductException_8h.html" target="_top" xlink:title=" ">
<polygon fill="white" stroke="#666666" points="348.5,-129 199.5,-129 199.5,-110 348.5,-110 348.5,-129"/>
<text text-anchor="middle" x="274" y="-117" font-family="Helvetica,sans-Serif" font-size="10.00">MedicalProductException.h</text>
</a>
</g>
</g>
<!-- Node18&#45;&gt;Node19 -->
<g id="edge30_Node000018_Node000019" class="edge">
<title>Node18&#45;&gt;Node19</title>
<g id="a_edge30_Node000018_Node000019"><a xlink:title=" ">
<path fill="none" stroke="#63b8ff" d="M330.84,-164.84C319.51,-156 304.94,-144.63 293.38,-135.62"/>
<polygon fill="#63b8ff" stroke="#63b8ff" points="295.28,-132.66 285.24,-129.27 290.97,-138.18 295.28,-132.66"/>
</a>
</g>
</g>
<!-- Node20 -->
<g id="Node000020" class="node">
<title>Node20</title>
<g id="a_Node000020"><a xlink:href="PharmacyException_8h.html" target="_top" xlink:title=" ">
<polygon fill="white" stroke="#666666" points="566,-74 444,-74 444,-55 566,-55 566,-74"/>
<text text-anchor="middle" x="505" y="-62" font-family="Helvetica,sans-Serif" font-size="10.00">PharmacyException.h</text>
</a>
</g>
</g>
<!-- Node19&#45;&gt;Node20 -->
<g id="edge31_Node000019_Node000020" class="edge">
<title>Node19&#45;&gt;Node20</title>
<g id="a_edge31_Node000019_Node000020"><a xlink:title=" ">
<path fill="none" stroke="#63b8ff" d="M311.11,-109.98C350.99,-100.84 414.46,-86.27 457.84,-76.32"/>
<polygon fill="#63b8ff" stroke="#63b8ff" points="458.63,-79.73 467.59,-74.08 457.07,-72.91 458.63,-79.73"/>
</a>
</g>
</g>
<!-- Node20&#45;&gt;Node5 -->
<g id="edge32_Node000020_Node000005" class="edge">
<title>Node20&#45;&gt;Node5</title>
<g id="a_edge32_Node000020_Node000005"><a xlink:title=" ">
<path fill="none" stroke="#63b8ff" d="M544.36,-54.98C589.76,-45.16 664,-29.1 709.76,-19.2"/>
<polygon fill="#63b8ff" stroke="#63b8ff" points="710.6,-22.6 719.63,-17.07 709.12,-15.76 710.6,-22.6"/>
</a>
</g>
</g>
<!-- Node21&#45;&gt;Node18 -->
<g id="edge34_Node000021_Node000018" class="edge">
<title>Node21&#45;&gt;Node18</title>
<g id="a_edge34_Node000021_Node000018"><a xlink:title=" ">
<path fill="none" stroke="#63b8ff" d="M349,-230.8C349,-223.34 349,-213.99 349,-205.41"/>
<polygon fill="#63b8ff" stroke="#63b8ff" points="352.5,-205.16 349,-195.16 345.5,-205.16 352.5,-205.16"/>
</a>
</g>
</g>
<!-- Node22&#45;&gt;Node18 -->
<g id="edge36_Node000022_Node000018" class="edge">
<title>Node22&#45;&gt;Node18</title>
<g id="a_edge36_Node000022_Node000018"><a xlink:title=" ">
<path fill="none" stroke="#63b8ff" d="M495.74,-230.95C467.46,-221.33 429.75,-208.49 399.65,-198.24"/>
<polygon fill="#63b8ff" stroke="#63b8ff" points="400.76,-194.92 390.16,-195.01 398.5,-201.55 400.76,-194.92"/>
</a>
</g>
</g>
<!-- Node23&#45;&gt;Node19 -->
<g id="edge39_Node000023_Node000019" class="edge">
<title>Node23&#45;&gt;Node19</title>
<g id="a_edge39_Node000023_Node000019"><a xlink:title=" ">
<path fill="none" stroke="#63b8ff" d="M100.3,-230.84C119.09,-213.89 152.36,-185.25 184,-165 203.2,-152.71 226.27,-141.36 244.25,-133.2"/>
<polygon fill="#63b8ff" stroke="#63b8ff" points="245.94,-136.28 253.65,-129.01 243.09,-129.89 245.94,-136.28"/>
</a>
</g>
</g>
<!-- Node24&#45;&gt;Node19 -->
<g id="edge41_Node000024_Node000019" class="edge">
<title>Node24&#45;&gt;Node19</title>
<g id="a_edge41_Node000024_Node000019"><a xlink:title=" ">
<path fill="none" stroke="#63b8ff" d="M201.55,-296.92C205.77,-280.77 213.34,-253.61 222,-231 234.89,-197.33 253.6,-159.63 264.71,-138.11"/>
<polygon fill="#63b8ff" stroke="#63b8ff" points="267.85,-139.67 269.37,-129.19 261.64,-136.44 267.85,-139.67"/>
</a>
</g>
</g>
</g>
</svg>
