<?xml version="1.0" encoding="UTF-8" standalone="no"?>
<!DOCTYPE svg PUBLIC "-//W3C//DTD SVG 1.1//EN"
 "http://www.w3.org/Graphics/SVG/1.1/DTD/svg11.dtd">
<!-- Generated by graphviz version 2.43.0 (0)
 -->
<!-- Title: pharmacymanager.h Pages: 1 -->
<svg width="1125pt" height="313pt"
 viewBox="0.00 0.00 1124.77 313.00" xmlns="http://www.w3.org/2000/svg" xmlns:xlink="http://www.w3.org/1999/xlink">
<g id="graph0" class="graph" transform="scale(1 1) rotate(0) translate(4 309)">
<title>pharmacymanager.h</title>
<!-- Node1 -->
<g id="Node000001" class="node">
<title>Node1</title>
<g id="a_Node000001"><a xlink:title=" ">
<polygon fill="#999999" stroke="#666666" points="447.44,-305 330.44,-305 330.44,-286 447.44,-286 447.44,-305"/>
<text text-anchor="middle" x="388.94" y="-293" font-family="Helvetica,sans-Serif" font-size="10.00">pharmacymanager.h</text>
</a>
</g>
</g>
<!-- Node2 -->
<g id="Node000002" class="node">
<title>Node2</title>
<g id="a_Node000002"><a xlink:href="pharmacy_8h.html" target="_top" xlink:title=" ">
<polygon fill="white" stroke="#666666" points="393.44,-244.5 320.44,-244.5 320.44,-225.5 393.44,-225.5 393.44,-244.5"/>
<text text-anchor="middle" x="356.94" y="-232.5" font-family="Helvetica,sans-Serif" font-size="10.00">pharmacy.h</text>
</a>
</g>
</g>
<!-- Node1&#45;&gt;Node2 -->
<g id="edge1_Node000001_Node000002" class="edge">
<title>Node1&#45;&gt;Node2</title>
<g id="a_edge1_Node000001_Node000002"><a xlink:title=" ">
<path fill="none" stroke="#63b8ff" d="M384.22,-285.87C379.59,-277.4 372.39,-264.24 366.55,-253.57"/>
<polygon fill="#63b8ff" stroke="#63b8ff" points="369.55,-251.76 361.68,-244.67 363.41,-255.12 369.55,-251.76"/>
</a>
</g>
</g>
<!-- Node3 -->
<g id="Node000003" class="node">
<title>Node3</title>
<g id="a_Node000003"><a xlink:href="medicine_8h.html" target="_top" xlink:title=" ">
<polygon fill="white" stroke="#666666" points="268.44,-184 197.44,-184 197.44,-165 268.44,-165 268.44,-184"/>
<text text-anchor="middle" x="232.94" y="-172" font-family="Helvetica,sans-Serif" font-size="10.00">medicine.h</text>
</a>
</g>
</g>
<!-- Node1&#45;&gt;Node3 -->
<g id="edge23_Node000001_Node000003" class="edge">
<title>Node1&#45;&gt;Node3</title>
<g id="a_edge23_Node000001_Node000003"><a xlink:title=" ">
<path fill="none" stroke="#63b8ff" d="M371.41,-285.86C355.32,-277.59 331.14,-264.29 311.94,-250 287.99,-232.17 263.44,-207.88 248.2,-191.96"/>
<polygon fill="#63b8ff" stroke="#63b8ff" points="250.54,-189.34 241.12,-184.47 245.45,-194.14 250.54,-189.34"/>
</a>
</g>
</g>
<!-- Node4 -->
<g id="Node000004" class="node">
<title>Node4</title>
<g id="a_Node000004"><a xlink:href="medicalproduct_8h.html" target="_top" xlink:title=" ">
<polygon fill="white" stroke="#666666" points="217.44,-129 116.44,-129 116.44,-110 217.44,-110 217.44,-129"/>
<text text-anchor="middle" x="166.94" y="-117" font-family="Helvetica,sans-Serif" font-size="10.00">medicalproduct.h</text>
</a>
</g>
</g>
<!-- Node1&#45;&gt;Node4 -->
<g id="edge22_Node000001_Node000004" class="edge">
<title>Node1&#45;&gt;Node4</title>
<g id="a_edge22_Node000001_Node000004"><a xlink:title=" ">
<path fill="none" stroke="#63b8ff" d="M330.12,-294.41C241.41,-293.09 79.06,-285.7 34.94,-250 4.52,-225.38 -11.6,-196.26 11.94,-165 23.58,-149.55 67.8,-137.82 106.04,-130.29"/>
<polygon fill="#63b8ff" stroke="#63b8ff" points="106.96,-133.68 116.13,-128.37 105.65,-126.8 106.96,-133.68"/>
</a>
</g>
</g>
<!-- Node6 -->
<g id="Node000006" class="node">
<title>Node6</title>
<g id="a_Node000006"><a xlink:title=" ">
<polygon fill="#e0e0e0" stroke="#999999" points="259.94,-19 215.94,-19 215.94,0 259.94,0 259.94,-19"/>
<text text-anchor="middle" x="237.94" y="-7" font-family="Helvetica,sans-Serif" font-size="10.00">string</text>
</a>
</g>
</g>
<!-- Node1&#45;&gt;Node6 -->
<g id="edge45_Node000001_Node000006" class="edge">
<title>Node1&#45;&gt;Node6</title>
<g id="a_edge45_Node000001_Node000006"><a xlink:title=" ">
<path fill="none" stroke="#63b8ff" d="M447.54,-294.7C608.12,-294.7 1046.55,-290.93 1095.94,-250 1122.25,-228.2 1114.94,-209.67 1114.94,-175.5 1114.94,-175.5 1114.94,-175.5 1114.94,-118.5 1114.94,-31.62 428.15,-13.93 270.1,-11.01"/>
<polygon fill="#63b8ff" stroke="#63b8ff" points="270.12,-7.51 260.06,-10.83 270,-14.51 270.12,-7.51"/>
</a>
</g>
</g>
<!-- Node10 -->
<g id="Node000010" class="node">
<title>Node10</title>
<g id="a_Node000010"><a xlink:title=" ">
<polygon fill="#e0e0e0" stroke="#999999" points="435.44,-129 388.44,-129 388.44,-110 435.44,-110 435.44,-129"/>
<text text-anchor="middle" x="411.94" y="-117" font-family="Helvetica,sans-Serif" font-size="10.00">vector</text>
</a>
</g>
</g>
<!-- Node1&#45;&gt;Node10 -->
<g id="edge44_Node000001_Node000010" class="edge">
<title>Node1&#45;&gt;Node10</title>
<g id="a_edge44_Node000001_Node000010"><a xlink:title=" ">
<path fill="none" stroke="#63b8ff" d="M401.83,-285.84C412.68,-277.84 427.7,-264.96 435.94,-250 450.37,-223.81 446.04,-213.76 448.94,-184 449.76,-175.6 451.81,-172.94 448.94,-165 445,-154.09 437.08,-143.96 429.58,-136.14"/>
<polygon fill="#63b8ff" stroke="#63b8ff" points="431.99,-133.6 422.38,-129.13 427.11,-138.61 431.99,-133.6"/>
</a>
</g>
</g>
<!-- Node11 -->
<g id="Node000011" class="node">
<title>Node11</title>
<g id="a_Node000011"><a xlink:title=" ">
<polygon fill="#e0e0e0" stroke="#999999" points="331.94,-129 273.94,-129 273.94,-110 331.94,-110 331.94,-129"/>
<text text-anchor="middle" x="302.94" y="-117" font-family="Helvetica,sans-Serif" font-size="10.00">memory</text>
</a>
</g>
</g>
<!-- Node1&#45;&gt;Node11 -->
<g id="edge42_Node000001_Node000011" class="edge">
<title>Node1&#45;&gt;Node11</title>
<g id="a_edge42_Node000001_Node000011"><a xlink:title=" ">
<path fill="none" stroke="#63b8ff" d="M393.99,-285.73C401.6,-271.27 414,-241.84 402.94,-220 390.74,-195.89 373.46,-202.69 353.94,-184 339.01,-169.7 324.49,-151.01 314.79,-137.62"/>
<polygon fill="#63b8ff" stroke="#63b8ff" points="317.54,-135.44 308.9,-129.31 311.83,-139.49 317.54,-135.44"/>
</a>
</g>
</g>
<!-- Node13 -->
<g id="Node000013" class="node">
<title>Node13</title>
<g id="a_Node000013"><a xlink:title=" ">
<polygon fill="#e0e0e0" stroke="#999999" points="510.94,-129 472.94,-129 472.94,-110 510.94,-110 510.94,-129"/>
<text text-anchor="middle" x="491.94" y="-117" font-family="Helvetica,sans-Serif" font-size="10.00">map</text>
</a>
</g>
</g>
<!-- Node1&#45;&gt;Node13 -->
<g id="edge43_Node000001_Node000013" class="edge">
<title>Node1&#45;&gt;Node13</title>
<g id="a_edge43_Node000001_Node000013"><a xlink:title=" ">
<path fill="none" stroke="#63b8ff" d="M408.46,-285.96C423.29,-278.51 443.09,-266.33 454.94,-250 479.58,-216.06 487.86,-166.1 490.61,-139.24"/>
<polygon fill="#63b8ff" stroke="#63b8ff" points="494.09,-139.52 491.48,-129.25 487.12,-138.91 494.09,-139.52"/>
</a>
</g>
</g>
<!-- Node14 -->
<g id="Node000014" class="node">
<title>Node14</title>
<g id="a_Node000014"><a xlink:href="inventoryoperation_8h.html" target="_top" xlink:title=" ">
<polygon fill="white" stroke="#666666" points="140.44,-184 21.44,-184 21.44,-165 140.44,-165 140.44,-184"/>
<text text-anchor="middle" x="80.94" y="-172" font-family="Helvetica,sans-Serif" font-size="10.00">inventoryoperation.h</text>
</a>
</g>
</g>
<!-- Node1&#45;&gt;Node14 -->
<g id="edge24_Node000001_Node000014" class="edge">
<title>Node1&#45;&gt;Node14</title>
<g id="a_edge24_Node000001_Node000014"><a xlink:title=" ">
<path fill="none" stroke="#63b8ff" d="M330.2,-291.09C236.67,-285.06 62.51,-271.12 43.94,-250 28.54,-232.48 47.31,-207.4 63.26,-191.28"/>
<polygon fill="#63b8ff" stroke="#63b8ff" points="65.9,-193.6 70.7,-184.16 61.06,-188.55 65.9,-193.6"/>
</a>
</g>
</g>
<!-- Node15 -->
<g id="Node000015" class="node">
<title>Node15</title>
<g id="a_Node000015"><a xlink:href="supply_8h.html" target="_top" xlink:title=" ">
<polygon fill="white" stroke="#666666" points="108.94,-244.5 52.94,-244.5 52.94,-225.5 108.94,-225.5 108.94,-244.5"/>
<text text-anchor="middle" x="80.94" y="-232.5" font-family="Helvetica,sans-Serif" font-size="10.00">supply.h</text>
</a>
</g>
</g>
<!-- Node1&#45;&gt;Node15 -->
<g id="edge28_Node000001_Node000015" class="edge">
<title>Node1&#45;&gt;Node15</title>
<g id="a_edge28_Node000001_Node000015"><a xlink:title=" ">
<path fill="none" stroke="#63b8ff" d="M330.34,-288.1C275.19,-281.31 190.6,-268.92 118.94,-250 116.5,-249.36 114,-248.62 111.5,-247.82"/>
<polygon fill="#63b8ff" stroke="#63b8ff" points="112.61,-244.5 102.02,-244.57 110.34,-251.13 112.61,-244.5"/>
</a>
</g>
</g>
<!-- Node16 -->
<g id="Node000016" class="node">
<title>Node16</title>
<g id="a_Node000016"><a xlink:href="return_8h.html" target="_top" xlink:title=" ">
<polygon fill="white" stroke="#666666" points="182.44,-244.5 127.44,-244.5 127.44,-225.5 182.44,-225.5 182.44,-244.5"/>
<text text-anchor="middle" x="154.94" y="-232.5" font-family="Helvetica,sans-Serif" font-size="10.00">return.h</text>
</a>
</g>
</g>
<!-- Node1&#45;&gt;Node16 -->
<g id="edge30_Node000001_Node000016" class="edge">
<title>Node1&#45;&gt;Node16</title>
<g id="a_edge30_Node000001_Node000016"><a xlink:title=" ">
<path fill="none" stroke="#63b8ff" d="M342.7,-285.95C302.47,-278.07 242.82,-265.29 191.94,-250 189.81,-249.36 187.61,-248.65 185.42,-247.91"/>
<polygon fill="#63b8ff" stroke="#63b8ff" points="186.5,-244.58 175.9,-244.51 184.14,-251.17 186.5,-244.58"/>
</a>
</g>
</g>
<!-- Node17 -->
<g id="Node000017" class="node">
<title>Node17</title>
<g id="a_Node000017"><a xlink:href="writeoff_8h.html" target="_top" xlink:title=" ">
<polygon fill="white" stroke="#666666" points="263.44,-244.5 200.44,-244.5 200.44,-225.5 263.44,-225.5 263.44,-244.5"/>
<text text-anchor="middle" x="231.94" y="-232.5" font-family="Helvetica,sans-Serif" font-size="10.00">writeoff.h</text>
</a>
</g>
</g>
<!-- Node1&#45;&gt;Node17 -->
<g id="edge32_Node000001_Node000017" class="edge">
<title>Node1&#45;&gt;Node17</title>
<g id="a_edge32_Node000001_Node000017"><a xlink:title=" ">
<path fill="none" stroke="#63b8ff" d="M366.11,-285.99C339.37,-276.03 294.87,-259.45 264.51,-248.13"/>
<polygon fill="#63b8ff" stroke="#63b8ff" points="265.39,-244.73 254.8,-244.52 262.95,-251.29 265.39,-244.73"/>
</a>
</g>
</g>
<!-- Node18 -->
<g id="Node000018" class="node">
<title>Node18</title>
<g id="a_Node000018"><a xlink:href="InvalidProductDataException_8h.html" target="_top" xlink:title=" ">
<polygon fill="white" stroke="#666666" points="898.94,-250 728.94,-250 728.94,-220 898.94,-220 898.94,-250"/>
<text text-anchor="start" x="736.94" y="-238" font-family="Helvetica,sans-Serif" font-size="10.00">Exception/PharmacyExceptions</text>
<text text-anchor="middle" x="813.94" y="-227" font-family="Helvetica,sans-Serif" font-size="10.00">/InvalidProductDataException.h</text>
</a>
</g>
</g>
<!-- Node1&#45;&gt;Node18 -->
<g id="edge34_Node000001_Node000018" class="edge">
<title>Node1&#45;&gt;Node18</title>
<g id="a_edge34_Node000001_Node000018"><a xlink:title=" ">
<path fill="none" stroke="#63b8ff" d="M447.57,-286.87C511.63,-278.48 617.54,-264.44 718.8,-250.15"/>
<polygon fill="#63b8ff" stroke="#63b8ff" points="719.49,-253.59 728.9,-248.72 718.51,-246.66 719.49,-253.59"/>
</a>
</g>
</g>
<!-- Node21 -->
<g id="Node000021" class="node">
<title>Node21</title>
<g id="a_Node000021"><a xlink:href="ProductNotFoundException_8h.html" target="_top" xlink:title=" ">
<polygon fill="white" stroke="#666666" points="1086.94,-250 916.94,-250 916.94,-220 1086.94,-220 1086.94,-250"/>
<text text-anchor="start" x="924.94" y="-238" font-family="Helvetica,sans-Serif" font-size="10.00">Exception/PharmacyExceptions</text>
<text text-anchor="middle" x="1001.94" y="-227" font-family="Helvetica,sans-Serif" font-size="10.00">/ProductNotFoundException.h</text>
</a>
</g>
</g>
<!-- Node1&#45;&gt;Node21 -->
<g id="edge38_Node000001_Node000021" class="edge">
<title>Node1&#45;&gt;Node21</title>
<g id="a_edge38_Node000001_Node000021"><a xlink:title=" ">
<path fill="none" stroke="#63b8ff" d="M447.83,-290.65C542.37,-284.21 734.07,-270.06 906.88,-250.08"/>
<polygon fill="#63b8ff" stroke="#63b8ff" points="907.39,-253.54 916.92,-248.91 906.58,-246.59 907.39,-253.54"/>
</a>
</g>
</g>
<!-- Node22 -->
<g id="Node000022" class="node">
<title>Node22</title>
<g id="a_Node000022"><a xlink:href="DuplicateProductException_8h.html" target="_top" xlink:title=" ">
<polygon fill="white" stroke="#666666" points="710.94,-250 540.94,-250 540.94,-220 710.94,-220 710.94,-250"/>
<text text-anchor="start" x="548.94" y="-238" font-family="Helvetica,sans-Serif" font-size="10.00">Exception/PharmacyExceptions</text>
<text text-anchor="middle" x="625.94" y="-227" font-family="Helvetica,sans-Serif" font-size="10.00">/DuplicateProductException.h</text>
</a>
</g>
</g>
<!-- Node1&#45;&gt;Node22 -->
<g id="edge40_Node000001_Node000022" class="edge">
<title>Node1&#45;&gt;Node22</title>
<g id="a_edge40_Node000001_Node000022"><a xlink:title=" ">
<path fill="none" stroke="#63b8ff" d="M423.41,-285.99C458.85,-277.24 514.97,-263.39 559.16,-252.48"/>
<polygon fill="#63b8ff" stroke="#63b8ff" points="560.1,-255.86 568.97,-250.06 558.42,-249.06 560.1,-255.86"/>
</a>
</g>
</g>
<!-- Node2&#45;&gt;Node3 -->
<g id="edge2_Node000002_Node000003" class="edge">
<title>Node2&#45;&gt;Node3</title>
<g id="a_edge2_Node000002_Node000003"><a xlink:title=" ">
<path fill="none" stroke="#63b8ff" d="M338.91,-225.49C318.25,-215.75 284.16,-199.66 260.24,-188.38"/>
<polygon fill="#63b8ff" stroke="#63b8ff" points="261.53,-185.12 251,-184.02 258.55,-191.45 261.53,-185.12"/>
</a>
</g>
</g>
<!-- Node2&#45;&gt;Node4 -->
<g id="edge14_Node000002_Node000004" class="edge">
<title>Node2&#45;&gt;Node4</title>
<g id="a_edge14_Node000002_Node000004"><a xlink:title=" ">
<path fill="none" stroke="#63b8ff" d="M320.28,-227.15C276.79,-218.35 207.8,-202.04 188.94,-184 176.7,-172.29 171.27,-153.44 168.86,-139.31"/>
<polygon fill="#63b8ff" stroke="#63b8ff" points="172.31,-138.67 167.5,-129.22 165.37,-139.6 172.31,-138.67"/>
</a>
</g>
</g>
<!-- Node2&#45;&gt;Node10 -->
<g id="edge15_Node000002_Node000010" class="edge">
<title>Node2&#45;&gt;Node10</title>
<g id="a_edge15_Node000002_Node000010"><a xlink:title=" ">
<path fill="none" stroke="#63b8ff" d="M381.6,-225.41C399.68,-217.65 422.92,-204.31 433.94,-184 442.09,-169 433.74,-150.42 425.1,-137.24"/>
<polygon fill="#63b8ff" stroke="#63b8ff" points="427.93,-135.18 419.26,-129.09 422.24,-139.25 427.93,-135.18"/>
</a>
</g>
</g>
<!-- Node2&#45;&gt;Node11 -->
<g id="edge16_Node000002_Node000011" class="edge">
<title>Node2&#45;&gt;Node11</title>
<g id="a_edge16_Node000002_Node000011"><a xlink:title=" ">
<path fill="none" stroke="#63b8ff" d="M349.29,-225.39C341.2,-215.87 328.58,-199.79 320.94,-184 314,-169.64 309.29,-152.12 306.43,-139.12"/>
<polygon fill="#63b8ff" stroke="#63b8ff" points="309.81,-138.16 304.39,-129.06 302.95,-139.55 309.81,-138.16"/>
</a>
</g>
</g>
<!-- Node12 -->
<g id="Node000012" class="node">
<title>Node12</title>
<g id="a_Node000012"><a xlink:href="storage_8h.html" target="_top" xlink:title=" ">
<polygon fill="white" stroke="#666666" points="424.94,-184 362.94,-184 362.94,-165 424.94,-165 424.94,-184"/>
<text text-anchor="middle" x="393.94" y="-172" font-family="Helvetica,sans-Serif" font-size="10.00">storage.h</text>
</a>
</g>
</g>
<!-- Node2&#45;&gt;Node12 -->
<g id="edge17_Node000002_Node000012" class="edge">
<title>Node2&#45;&gt;Node12</title>
<g id="a_edge17_Node000002_Node000012"><a xlink:title=" ">
<path fill="none" stroke="#63b8ff" d="M362.4,-225.37C367.81,-216.81 376.25,-203.47 383.04,-192.74"/>
<polygon fill="#63b8ff" stroke="#63b8ff" points="386.07,-194.49 388.46,-184.17 380.16,-190.75 386.07,-194.49"/>
</a>
</g>
</g>
<!-- Node3&#45;&gt;Node4 -->
<g id="edge3_Node000003_Node000004" class="edge">
<title>Node3&#45;&gt;Node4</title>
<g id="a_edge3_Node000003_Node000004"><a xlink:title=" ">
<path fill="none" stroke="#63b8ff" d="M222.34,-164.98C212.49,-157.07 197.59,-145.11 185.73,-135.58"/>
<polygon fill="#63b8ff" stroke="#63b8ff" points="187.73,-132.7 177.74,-129.17 183.35,-138.16 187.73,-132.7"/>
</a>
</g>
</g>
<!-- Node3&#45;&gt;Node6 -->
<g id="edge13_Node000003_Node000006" class="edge">
<title>Node3&#45;&gt;Node6</title>
<g id="a_edge13_Node000003_Node000006"><a xlink:title=" ">
<path fill="none" stroke="#63b8ff" d="M233.21,-164.74C233.99,-139.31 236.27,-65.08 237.35,-29.69"/>
<polygon fill="#63b8ff" stroke="#63b8ff" points="240.86,-29.41 237.67,-19.31 233.87,-29.19 240.86,-29.41"/>
</a>
</g>
</g>
<!-- Node3&#45;&gt;Node10 -->
<g id="edge11_Node000003_Node000010" class="edge">
<title>Node3&#45;&gt;Node10</title>
<g id="a_edge11_Node000003_Node000010"><a xlink:title=" ">
<path fill="none" stroke="#63b8ff" d="M261.7,-164.98C293.59,-155.54 344.94,-140.34 378.57,-130.38"/>
<polygon fill="#63b8ff" stroke="#63b8ff" points="379.8,-133.67 388.4,-127.47 377.82,-126.95 379.8,-133.67"/>
</a>
</g>
</g>
<!-- Node3&#45;&gt;Node11 -->
<g id="edge12_Node000003_Node000011" class="edge">
<title>Node3&#45;&gt;Node11</title>
<g id="a_edge12_Node000003_Node000011"><a xlink:title=" ">
<path fill="none" stroke="#63b8ff" d="M244.19,-164.98C254.74,-157 270.74,-144.88 283.39,-135.31"/>
<polygon fill="#63b8ff" stroke="#63b8ff" points="285.63,-138 291.49,-129.17 281.41,-132.42 285.63,-138"/>
</a>
</g>
</g>
<!-- Node5 -->
<g id="Node000005" class="node">
<title>Node5</title>
<g id="a_Node000005"><a xlink:title=" ">
<polygon fill="#e0e0e0" stroke="#999999" points="478.94,-74 418.94,-74 418.94,-55 478.94,-55 478.94,-74"/>
<text text-anchor="middle" x="448.94" y="-62" font-family="Helvetica,sans-Serif" font-size="10.00">iostream</text>
</a>
</g>
</g>
<!-- Node4&#45;&gt;Node5 -->
<g id="edge4_Node000004_Node000005" class="edge">
<title>Node4&#45;&gt;Node5</title>
<g id="a_edge4_Node000004_Node000005"><a xlink:title=" ">
<path fill="none" stroke="#63b8ff" d="M212.25,-109.98C266.7,-99.75 357.18,-82.75 409.08,-72.99"/>
<polygon fill="#63b8ff" stroke="#63b8ff" points="409.74,-76.43 418.92,-71.14 408.45,-69.55 409.74,-76.43"/>
</a>
</g>
</g>
<!-- Node4&#45;&gt;Node6 -->
<g id="edge5_Node000004_Node000006" class="edge">
<title>Node4&#45;&gt;Node6</title>
<g id="a_edge5_Node000004_Node000006"><a xlink:title=" ">
<path fill="none" stroke="#63b8ff" d="M172.75,-109.66C184.51,-91.77 211.32,-51 226.64,-27.69"/>
<polygon fill="#63b8ff" stroke="#63b8ff" points="229.68,-29.44 232.25,-19.16 223.83,-25.59 229.68,-29.44"/>
</a>
</g>
</g>
<!-- Node7 -->
<g id="Node000007" class="node">
<title>Node7</title>
<g id="a_Node000007"><a xlink:title=" ">
<polygon fill="#e0e0e0" stroke="#999999" points="189.94,-19 145.94,-19 145.94,0 189.94,0 189.94,-19"/>
<text text-anchor="middle" x="167.94" y="-7" font-family="Helvetica,sans-Serif" font-size="10.00">ctime</text>
</a>
</g>
</g>
<!-- Node4&#45;&gt;Node7 -->
<g id="edge6_Node000004_Node000007" class="edge">
<title>Node4&#45;&gt;Node7</title>
<g id="a_edge6_Node000004_Node000007"><a xlink:title=" ">
<path fill="none" stroke="#63b8ff" d="M167.03,-109.66C167.19,-92.17 167.55,-52.8 167.77,-29.27"/>
<polygon fill="#63b8ff" stroke="#63b8ff" points="171.27,-29.19 167.86,-19.16 164.27,-29.13 171.27,-29.19"/>
</a>
</g>
</g>
<!-- Node8 -->
<g id="Node000008" class="node">
<title>Node8</title>
<g id="a_Node000008"><a xlink:href="safedate_8h.html" target="_top" xlink:title=" ">
<polygon fill="white" stroke="#666666" points="139.94,-74 71.94,-74 71.94,-55 139.94,-55 139.94,-74"/>
<text text-anchor="middle" x="105.94" y="-62" font-family="Helvetica,sans-Serif" font-size="10.00">safedate.h</text>
</a>
</g>
</g>
<!-- Node4&#45;&gt;Node8 -->
<g id="edge7_Node000004_Node000008" class="edge">
<title>Node4&#45;&gt;Node8</title>
<g id="a_edge7_Node000004_Node000008"><a xlink:title=" ">
<path fill="none" stroke="#63b8ff" d="M157.14,-109.98C148.13,-102.15 134.54,-90.34 123.63,-80.86"/>
<polygon fill="#63b8ff" stroke="#63b8ff" points="125.77,-78.09 115.92,-74.17 121.18,-83.37 125.77,-78.09"/>
</a>
</g>
</g>
<!-- Node8&#45;&gt;Node6 -->
<g id="edge10_Node000008_Node000006" class="edge">
<title>Node8&#45;&gt;Node6</title>
<g id="a_edge10_Node000008_Node000006"><a xlink:title=" ">
<path fill="none" stroke="#63b8ff" d="M127.15,-54.98C148.67,-46.34 182.23,-32.87 206.77,-23.02"/>
<polygon fill="#63b8ff" stroke="#63b8ff" points="208.37,-26.14 216.35,-19.17 205.77,-19.65 208.37,-26.14"/>
</a>
</g>
</g>
<!-- Node8&#45;&gt;Node7 -->
<g id="edge8_Node000008_Node000007" class="edge">
<title>Node8&#45;&gt;Node7</title>
<g id="a_edge8_Node000008_Node000007"><a xlink:title=" ">
<path fill="none" stroke="#63b8ff" d="M115.9,-54.98C125.07,-47.15 138.88,-35.34 149.97,-25.86"/>
<polygon fill="#63b8ff" stroke="#63b8ff" points="152.47,-28.33 157.8,-19.17 147.93,-23.01 152.47,-28.33"/>
</a>
</g>
</g>
<!-- Node9 -->
<g id="Node000009" class="node">
<title>Node9</title>
<g id="a_Node000009"><a xlink:title=" ">
<polygon fill="#e0e0e0" stroke="#999999" points="127.44,-19 62.44,-19 62.44,0 127.44,0 127.44,-19"/>
<text text-anchor="middle" x="94.94" y="-7" font-family="Helvetica,sans-Serif" font-size="10.00">stdexcept</text>
</a>
</g>
</g>
<!-- Node8&#45;&gt;Node9 -->
<g id="edge9_Node000008_Node000009" class="edge">
<title>Node8&#45;&gt;Node9</title>
<g id="a_edge9_Node000008_Node000009"><a xlink:title=" ">
<path fill="none" stroke="#63b8ff" d="M104.13,-54.75C102.69,-47.8 100.62,-37.85 98.81,-29.13"/>
<polygon fill="#63b8ff" stroke="#63b8ff" points="102.19,-28.17 96.73,-19.09 95.33,-29.59 102.19,-28.17"/>
</a>
</g>
</g>
<!-- Node12&#45;&gt;Node4 -->
<g id="edge18_Node000012_Node000004" class="edge">
<title>Node12&#45;&gt;Node4</title>
<g id="a_edge18_Node000012_Node000004"><a xlink:title=" ">
<path fill="none" stroke="#63b8ff" d="M362.86,-166.24C324.33,-157.25 258.32,-141.83 213.68,-131.41"/>
<polygon fill="#63b8ff" stroke="#63b8ff" points="214.2,-127.94 203.66,-129.07 212.6,-134.75 214.2,-127.94"/>
</a>
</g>
</g>
<!-- Node12&#45;&gt;Node10 -->
<g id="edge20_Node000012_Node000010" class="edge">
<title>Node12&#45;&gt;Node10</title>
<g id="a_edge20_Node000012_Node000010"><a xlink:title=" ">
<path fill="none" stroke="#63b8ff" d="M396.92,-164.75C399.3,-157.72 402.73,-147.62 405.71,-138.84"/>
<polygon fill="#63b8ff" stroke="#63b8ff" points="409.12,-139.68 409.03,-129.09 402.5,-137.43 409.12,-139.68"/>
</a>
</g>
</g>
<!-- Node12&#45;&gt;Node11 -->
<g id="edge21_Node000012_Node000011" class="edge">
<title>Node12&#45;&gt;Node11</title>
<g id="a_edge21_Node000012_Node000011"><a xlink:title=" ">
<path fill="none" stroke="#63b8ff" d="M379.32,-164.98C365.08,-156.69 343.19,-143.94 326.49,-134.22"/>
<polygon fill="#63b8ff" stroke="#63b8ff" points="328.23,-131.18 317.83,-129.17 324.71,-137.23 328.23,-131.18"/>
</a>
</g>
</g>
<!-- Node12&#45;&gt;Node13 -->
<g id="edge19_Node000012_Node000013" class="edge">
<title>Node12&#45;&gt;Node13</title>
<g id="a_edge19_Node000012_Node000013"><a xlink:title=" ">
<path fill="none" stroke="#63b8ff" d="M409.69,-164.98C425.17,-156.61 449.04,-143.7 467.08,-133.95"/>
<polygon fill="#63b8ff" stroke="#63b8ff" points="468.78,-137.01 475.91,-129.17 465.45,-130.85 468.78,-137.01"/>
</a>
</g>
</g>
<!-- Node14&#45;&gt;Node4 -->
<g id="edge25_Node000014_Node000004" class="edge">
<title>Node14&#45;&gt;Node4</title>
<g id="a_edge25_Node000014_Node000004"><a xlink:title=" ">
<path fill="none" stroke="#63b8ff" d="M94.76,-164.98C108.1,-156.77 128.52,-144.18 144.25,-134.49"/>
<polygon fill="#63b8ff" stroke="#63b8ff" points="146.2,-137.4 152.87,-129.17 142.53,-131.44 146.2,-137.4"/>
</a>
</g>
</g>
<!-- Node14&#45;&gt;Node8 -->
<g id="edge26_Node000014_Node000008" class="edge">
<title>Node14&#45;&gt;Node8</title>
<g id="a_edge26_Node000014_Node000008"><a xlink:title=" ">
<path fill="none" stroke="#63b8ff" d="M82.99,-164.66C87.06,-147.09 96.23,-107.45 101.67,-83.95"/>
<polygon fill="#63b8ff" stroke="#63b8ff" points="105.09,-84.69 103.94,-74.16 98.27,-83.11 105.09,-84.69"/>
</a>
</g>
</g>
<!-- Node14&#45;&gt;Node11 -->
<g id="edge27_Node000014_Node000011" class="edge">
<title>Node14&#45;&gt;Node11</title>
<g id="a_edge27_Node000014_Node000011"><a xlink:title=" ">
<path fill="none" stroke="#63b8ff" d="M116.61,-164.98C156.92,-155.36 222.33,-139.75 263.96,-129.81"/>
<polygon fill="#63b8ff" stroke="#63b8ff" points="264.83,-133.2 273.74,-127.47 263.2,-126.39 264.83,-133.2"/>
</a>
</g>
</g>
<!-- Node15&#45;&gt;Node14 -->
<g id="edge29_Node000015_Node000014" class="edge">
<title>Node15&#45;&gt;Node14</title>
<g id="a_edge29_Node000015_Node000014"><a xlink:title=" ">
<path fill="none" stroke="#63b8ff" d="M80.94,-225.37C80.94,-217.25 80.94,-204.81 80.94,-194.39"/>
<polygon fill="#63b8ff" stroke="#63b8ff" points="84.44,-194.17 80.94,-184.17 77.44,-194.17 84.44,-194.17"/>
</a>
</g>
</g>
<!-- Node16&#45;&gt;Node14 -->
<g id="edge31_Node000016_Node000014" class="edge">
<title>Node16&#45;&gt;Node14</title>
<g id="a_edge31_Node000016_Node000014"><a xlink:title=" ">
<path fill="none" stroke="#63b8ff" d="M144.02,-225.37C132.44,-216.21 113.91,-201.56 99.92,-190.51"/>
<polygon fill="#63b8ff" stroke="#63b8ff" points="101.92,-187.62 91.91,-184.17 97.58,-193.11 101.92,-187.62"/>
</a>
</g>
</g>
<!-- Node17&#45;&gt;Node14 -->
<g id="edge33_Node000017_Node000014" class="edge">
<title>Node17&#45;&gt;Node14</title>
<g id="a_edge33_Node000017_Node000014"><a xlink:title=" ">
<path fill="none" stroke="#63b8ff" d="M209.99,-225.49C184.27,-215.53 141.46,-198.95 112.26,-187.63"/>
<polygon fill="#63b8ff" stroke="#63b8ff" points="113.52,-184.37 102.93,-184.02 110.99,-190.89 113.52,-184.37"/>
</a>
</g>
</g>
<!-- Node19 -->
<g id="Node000019" class="node">
<title>Node19</title>
<g id="a_Node000019"><a xlink:href="MedicalProductException_8h.html" target="_top" xlink:title=" ">
<polygon fill="white" stroke="#666666" points="797.44,-184 648.44,-184 648.44,-165 797.44,-165 797.44,-184"/>
<text text-anchor="middle" x="722.94" y="-172" font-family="Helvetica,sans-Serif" font-size="10.00">MedicalProductException.h</text>
</a>
</g>
</g>
<!-- Node18&#45;&gt;Node19 -->
<g id="edge35_Node000018_Node000019" class="edge">
<title>Node18&#45;&gt;Node19</title>
<g id="a_edge35_Node000018_Node000019"><a xlink:title=" ">
<path fill="none" stroke="#63b8ff" d="M791.91,-219.84C777.68,-210.68 759.21,-198.82 744.97,-189.66"/>
<polygon fill="#63b8ff" stroke="#63b8ff" points="746.62,-186.56 736.31,-184.09 742.83,-192.45 746.62,-186.56"/>
</a>
</g>
</g>
<!-- Node20 -->
<g id="Node000020" class="node">
<title>Node20</title>
<g id="a_Node000020"><a xlink:href="PharmacyException_8h.html" target="_top" xlink:title=" ">
<polygon fill="white" stroke="#666666" points="717.94,-129 595.94,-129 595.94,-110 717.94,-110 717.94,-129"/>
<text text-anchor="middle" x="656.94" y="-117" font-family="Helvetica,sans-Serif" font-size="10.00">PharmacyException.h</text>
</a>
</g>
</g>
<!-- Node19&#45;&gt;Node20 -->
<g id="edge36_Node000019_Node000020" class="edge">
<title>Node19&#45;&gt;Node20</title>
<g id="a_edge36_Node000019_Node000020"><a xlink:title=" ">
<path fill="none" stroke="#63b8ff" d="M712.34,-164.98C702.49,-157.07 687.59,-145.11 675.73,-135.58"/>
<polygon fill="#63b8ff" stroke="#63b8ff" points="677.73,-132.7 667.74,-129.17 673.35,-138.16 677.73,-132.7"/>
</a>
</g>
</g>
<!-- Node20&#45;&gt;Node5 -->
<g id="edge37_Node000020_Node000005" class="edge">
<title>Node20&#45;&gt;Node5</title>
<g id="a_edge37_Node000020_Node000005"><a xlink:title=" ">
<path fill="none" stroke="#63b8ff" d="M623.52,-109.98C586.87,-100.64 528.06,-85.66 488.97,-75.7"/>
<polygon fill="#63b8ff" stroke="#63b8ff" points="489.79,-72.3 479.24,-73.22 488.06,-79.08 489.79,-72.3"/>
</a>
</g>
</g>
<!-- Node21&#45;&gt;Node19 -->
<g id="edge39_Node000021_Node000019" class="edge">
<title>Node21&#45;&gt;Node19</title>
<g id="a_edge39_Node000021_Node000019"><a xlink:title=" ">
<path fill="none" stroke="#63b8ff" d="M935.12,-219.99C885.51,-209.59 818.89,-195.62 773.62,-186.13"/>
<polygon fill="#63b8ff" stroke="#63b8ff" points="774.24,-182.68 763.74,-184.05 772.81,-189.53 774.24,-182.68"/>
</a>
</g>
</g>
<!-- Node22&#45;&gt;Node19 -->
<g id="edge41_Node000022_Node000019" class="edge">
<title>Node22&#45;&gt;Node19</title>
<g id="a_edge41_Node000022_Node000019"><a xlink:title=" ">
<path fill="none" stroke="#63b8ff" d="M649.42,-219.84C664.75,-210.6 684.66,-198.59 699.89,-189.4"/>
<polygon fill="#63b8ff" stroke="#63b8ff" points="701.94,-192.26 708.69,-184.09 698.32,-186.26 701.94,-192.26"/>
</a>
</g>
</g>
</g>
</svg>
