<?xml version="1.0" encoding="UTF-8" standalone="no"?>
<!DOCTYPE svg PUBLIC "-//W3C//DTD SVG 1.1//EN"
 "http://www.w3.org/Graphics/SVG/1.1/DTD/svg11.dtd">
<!-- Generated by graphviz version 2.43.0 (0)
 -->
<!-- Title: Exception/PharmacyExceptions/PharmacyException.h Pages: 1 -->
<svg width="2243pt" height="379pt"
 viewBox="0.00 0.00 2243.00 379.00" xmlns="http://www.w3.org/2000/svg" xmlns:xlink="http://www.w3.org/1999/xlink">
<g id="graph0" class="graph" transform="scale(1 1) rotate(0) translate(4 375)">
<title>Exception/PharmacyExceptions/PharmacyException.h</title>
<!-- Node1 -->
<g id="Node000001" class="node">
<title>Node1</title>
<g id="a_Node000001"><a xlink:title=" ">
<polygon fill="#999999" stroke="#666666" points="891,-371 721,-371 721,-341 891,-341 891,-371"/>
<text text-anchor="start" x="729" y="-359" font-family="Helvetica,sans-Serif" font-size="10.00">Exception/PharmacyExceptions</text>
<text text-anchor="middle" x="806" y="-348" font-family="Helvetica,sans-Serif" font-size="10.00">/PharmacyException.h</text>
</a>
</g>
</g>
<!-- Node2 -->
<g id="Node000002" class="node">
<title>Node2</title>
<g id="a_Node000002"><a xlink:href="FileOperationException_8h.html" target="_top" xlink:title=" ">
<polygon fill="white" stroke="#666666" points="374,-299.5 232,-299.5 232,-269.5 374,-269.5 374,-299.5"/>
<text text-anchor="start" x="240" y="-287.5" font-family="Helvetica,sans-Serif" font-size="10.00">Exception/FileExceptions</text>
<text text-anchor="middle" x="303" y="-276.5" font-family="Helvetica,sans-Serif" font-size="10.00">/FileOperationException.h</text>
</a>
</g>
</g>
<!-- Node1&#45;&gt;Node2 -->
<g id="edge1_Node000001_Node000002" class="edge">
<title>Node1&#45;&gt;Node2</title>
<g id="a_edge1_Node000001_Node000002"><a xlink:title=" ">
<path fill="none" stroke="#63b8ff" d="M710.87,-347.08C624.82,-339.13 494.83,-325.16 383,-305 374.42,-303.45 365.38,-301.54 356.6,-299.51"/>
<polygon fill="#63b8ff" stroke="#63b8ff" points="710.6,-350.57 720.88,-348 711.24,-343.6 710.6,-350.57"/>
</a>
</g>
</g>
<!-- Node7 -->
<g id="Node000007" class="node">
<title>Node7</title>
<g id="a_Node000007"><a xlink:href="InvalidOperationException_8h.html" target="_top" xlink:title=" ">
<polygon fill="white" stroke="#666666" points="603.5,-299.5 392.5,-299.5 392.5,-269.5 603.5,-269.5 603.5,-299.5"/>
<text text-anchor="start" x="400.5" y="-287.5" font-family="Helvetica,sans-Serif" font-size="10.00">Exception/InventaryManip</text>
<text text-anchor="middle" x="498" y="-276.5" font-family="Helvetica,sans-Serif" font-size="10.00">Exceptions/InvalidOperationException.h</text>
</a>
</g>
</g>
<!-- Node1&#45;&gt;Node7 -->
<g id="edge6_Node000001_Node000007" class="edge">
<title>Node1&#45;&gt;Node7</title>
<g id="a_edge6_Node000001_Node000007"><a xlink:title=" ">
<path fill="none" stroke="#63b8ff" d="M733.72,-338.69C681.05,-326.8 610.41,-310.87 560.24,-299.54"/>
<polygon fill="#63b8ff" stroke="#63b8ff" points="733.15,-342.15 743.67,-340.94 734.69,-335.32 733.15,-342.15"/>
</a>
</g>
</g>
<!-- Node8 -->
<g id="Node000008" class="node">
<title>Node8</title>
<g id="a_Node000008"><a xlink:href="PharmacyOperationException_8h.html" target="_top" xlink:title=" ">
<polygon fill="white" stroke="#666666" points="792,-305 622,-305 622,-264 792,-264 792,-305"/>
<text text-anchor="start" x="630" y="-293" font-family="Helvetica,sans-Serif" font-size="10.00">Exception/InventaryManip</text>
<text text-anchor="start" x="630" y="-282" font-family="Helvetica,sans-Serif" font-size="10.00">Exceptions/PharmacyOperation</text>
<text text-anchor="middle" x="707" y="-271" font-family="Helvetica,sans-Serif" font-size="10.00">Exception.h</text>
</a>
</g>
</g>
<!-- Node1&#45;&gt;Node8 -->
<g id="edge7_Node000001_Node000008" class="edge">
<title>Node1&#45;&gt;Node8</title>
<g id="a_edge7_Node000001_Node000008"><a xlink:title=" ">
<path fill="none" stroke="#63b8ff" d="M777.57,-335.04C764.17,-325.63 748.22,-314.44 734.88,-305.07"/>
<polygon fill="#63b8ff" stroke="#63b8ff" points="775.77,-338.05 785.97,-340.94 779.79,-332.33 775.77,-338.05"/>
</a>
</g>
</g>
<!-- Node9 -->
<g id="Node000009" class="node">
<title>Node9</title>
<g id="a_Node000009"><a xlink:href="SupplyChainException_8h.html" target="_top" xlink:title=" ">
<polygon fill="white" stroke="#666666" points="1001.5,-299.5 810.5,-299.5 810.5,-269.5 1001.5,-269.5 1001.5,-299.5"/>
<text text-anchor="start" x="818.5" y="-287.5" font-family="Helvetica,sans-Serif" font-size="10.00">Exception/InventaryManip</text>
<text text-anchor="middle" x="906" y="-276.5" font-family="Helvetica,sans-Serif" font-size="10.00">Exceptions/SupplyChainException.h</text>
</a>
</g>
</g>
<!-- Node1&#45;&gt;Node9 -->
<g id="edge8_Node000001_Node000009" class="edge">
<title>Node1&#45;&gt;Node9</title>
<g id="a_edge8_Node000001_Node000009"><a xlink:title=" ">
<path fill="none" stroke="#63b8ff" d="M834.86,-334.94C851.17,-323.6 871.16,-309.71 885.79,-299.54"/>
<polygon fill="#63b8ff" stroke="#63b8ff" points="832.45,-332.35 826.24,-340.94 836.45,-338.1 832.45,-332.35"/>
</a>
</g>
</g>
<!-- Node10 -->
<g id="Node000010" class="node">
<title>Node10</title>
<g id="a_Node000010"><a xlink:href="InventoryException_8h.html" target="_top" xlink:title=" ">
<polygon fill="white" stroke="#666666" points="839.5,-162 672.5,-162 672.5,-132 839.5,-132 839.5,-162"/>
<text text-anchor="start" x="680.5" y="-150" font-family="Helvetica,sans-Serif" font-size="10.00">Exception/InventoryExceptions</text>
<text text-anchor="middle" x="756" y="-139" font-family="Helvetica,sans-Serif" font-size="10.00">/InventoryException.h</text>
</a>
</g>
</g>
<!-- Node1&#45;&gt;Node10 -->
<g id="edge9_Node000001_Node000010" class="edge">
<title>Node1&#45;&gt;Node10</title>
<g id="a_edge9_Node000001_Node000010"><a xlink:title=" ">
<path fill="none" stroke="#63b8ff" d="M901.23,-343.09C947.46,-335.15 996,-322.84 1010,-305 1021.25,-290.66 1019.85,-279.33 1010,-264 972.72,-205.99 898.44,-176.63 839.8,-161.99"/>
<polygon fill="#63b8ff" stroke="#63b8ff" points="900.4,-339.68 891.11,-344.77 901.55,-346.58 900.4,-339.68"/>
</a>
</g>
</g>
<!-- Node19 -->
<g id="Node000019" class="node">
<title>Node19</title>
<g id="a_Node000019"><a xlink:href="MedicalProductException_8h.html" target="_top" xlink:title=" ">
<polygon fill="white" stroke="#666666" points="1800,-299.5 1630,-299.5 1630,-269.5 1800,-269.5 1800,-299.5"/>
<text text-anchor="start" x="1638" y="-287.5" font-family="Helvetica,sans-Serif" font-size="10.00">Exception/PharmacyExceptions</text>
<text text-anchor="middle" x="1715" y="-276.5" font-family="Helvetica,sans-Serif" font-size="10.00">/MedicalProductException.h</text>
</a>
</g>
</g>
<!-- Node1&#45;&gt;Node19 -->
<g id="edge23_Node000001_Node000019" class="edge">
<title>Node1&#45;&gt;Node19</title>
<g id="a_edge23_Node000001_Node000019"><a xlink:title=" ">
<path fill="none" stroke="#63b8ff" d="M901.25,-347.72C1079.31,-334.1 1459.95,-305 1629.95,-292"/>
<polygon fill="#63b8ff" stroke="#63b8ff" points="900.81,-344.24 891.11,-348.49 901.35,-351.22 900.81,-344.24"/>
</a>
</g>
</g>
<!-- Node3 -->
<g id="Node000003" class="node">
<title>Node3</title>
<g id="a_Node000003"><a xlink:href="FileNotFoundException_8h.html" target="_top" xlink:title=" ">
<polygon fill="white" stroke="#666666" points="608,-228 468,-228 468,-198 608,-198 608,-228"/>
<text text-anchor="start" x="476" y="-216" font-family="Helvetica,sans-Serif" font-size="10.00">Exception/FileExceptions</text>
<text text-anchor="middle" x="538" y="-205" font-family="Helvetica,sans-Serif" font-size="10.00">/FileNotFoundException.h</text>
</a>
</g>
</g>
<!-- Node2&#45;&gt;Node3 -->
<g id="edge2_Node000002_Node000003" class="edge">
<title>Node2&#45;&gt;Node3</title>
<g id="a_edge2_Node000002_Node000003"><a xlink:title=" ">
<path fill="none" stroke="#63b8ff" d="M360.16,-266.59C400.13,-254.78 452.87,-239.18 490.51,-228.04"/>
<polygon fill="#63b8ff" stroke="#63b8ff" points="359.15,-263.24 350.56,-269.44 361.14,-269.96 359.15,-263.24"/>
</a>
</g>
</g>
<!-- Node4 -->
<g id="Node000004" class="node">
<title>Node4</title>
<g id="a_Node000004"><a xlink:href="FileParseException_8h.html" target="_top" xlink:title=" ">
<polygon fill="white" stroke="#666666" points="138,-228 0,-228 0,-198 138,-198 138,-228"/>
<text text-anchor="start" x="8" y="-216" font-family="Helvetica,sans-Serif" font-size="10.00">Exception/FileExceptions</text>
<text text-anchor="middle" x="69" y="-205" font-family="Helvetica,sans-Serif" font-size="10.00">/FileParseException.h</text>
</a>
</g>
</g>
<!-- Node2&#45;&gt;Node4 -->
<g id="edge3_Node000002_Node000004" class="edge">
<title>Node2&#45;&gt;Node4</title>
<g id="a_edge3_Node000002_Node000004"><a xlink:title=" ">
<path fill="none" stroke="#63b8ff" d="M245.83,-266.52C206.06,-254.71 153.69,-239.15 116.28,-228.04"/>
<polygon fill="#63b8ff" stroke="#63b8ff" points="245.06,-269.94 255.65,-269.44 247.06,-263.23 245.06,-269.94"/>
</a>
</g>
</g>
<!-- Node5 -->
<g id="Node000005" class="node">
<title>Node5</title>
<g id="a_Node000005"><a xlink:href="FileWriteException_8h.html" target="_top" xlink:title=" ">
<polygon fill="white" stroke="#666666" points="294,-228 156,-228 156,-198 294,-198 294,-228"/>
<text text-anchor="start" x="164" y="-216" font-family="Helvetica,sans-Serif" font-size="10.00">Exception/FileExceptions</text>
<text text-anchor="middle" x="225" y="-205" font-family="Helvetica,sans-Serif" font-size="10.00">/FileWriteException.h</text>
</a>
</g>
</g>
<!-- Node2&#45;&gt;Node5 -->
<g id="edge4_Node000002_Node000005" class="edge">
<title>Node2&#45;&gt;Node5</title>
<g id="a_edge4_Node000002_Node000005"><a xlink:title=" ">
<path fill="none" stroke="#63b8ff" d="M279.42,-262.49C266.9,-251.34 251.86,-237.93 240.76,-228.04"/>
<polygon fill="#63b8ff" stroke="#63b8ff" points="277.42,-265.4 287.22,-269.44 282.08,-260.17 277.42,-265.4"/>
</a>
</g>
</g>
<!-- Node6 -->
<g id="Node000006" class="node">
<title>Node6</title>
<g id="a_Node000006"><a xlink:href="SerializationException_8h.html" target="_top" xlink:title=" ">
<polygon fill="white" stroke="#666666" points="450,-228 312,-228 312,-198 450,-198 450,-228"/>
<text text-anchor="start" x="320" y="-216" font-family="Helvetica,sans-Serif" font-size="10.00">Exception/FileExceptions</text>
<text text-anchor="middle" x="381" y="-205" font-family="Helvetica,sans-Serif" font-size="10.00">/SerializationException.h</text>
</a>
</g>
</g>
<!-- Node2&#45;&gt;Node6 -->
<g id="edge5_Node000002_Node000006" class="edge">
<title>Node2&#45;&gt;Node6</title>
<g id="a_edge5_Node000002_Node000006"><a xlink:title=" ">
<path fill="none" stroke="#63b8ff" d="M326.58,-262.49C339.1,-251.34 354.14,-237.93 365.24,-228.04"/>
<polygon fill="#63b8ff" stroke="#63b8ff" points="323.92,-260.17 318.78,-269.44 328.58,-265.4 323.92,-260.17"/>
</a>
</g>
</g>
<!-- Node11 -->
<g id="Node000011" class="node">
<title>Node11</title>
<g id="a_Node000011"><a xlink:href="InsufficientQuantityException_8h.html" target="_top" xlink:title=" ">
<polygon fill="white" stroke="#666666" points="578.5,-96 405.5,-96 405.5,-66 578.5,-66 578.5,-96"/>
<text text-anchor="start" x="413.5" y="-84" font-family="Helvetica,sans-Serif" font-size="10.00">Exception/InventoryExceptions</text>
<text text-anchor="middle" x="492" y="-73" font-family="Helvetica,sans-Serif" font-size="10.00">/InsufficientQuantityException.h</text>
</a>
</g>
</g>
<!-- Node10&#45;&gt;Node11 -->
<g id="edge10_Node000010_Node000011" class="edge">
<title>Node10&#45;&gt;Node11</title>
<g id="a_edge10_Node000010_Node000011"><a xlink:title=" ">
<path fill="none" stroke="#63b8ff" d="M688.28,-129.58C645.42,-119.19 590.61,-105.9 549.8,-96.01"/>
<polygon fill="#63b8ff" stroke="#63b8ff" points="687.52,-133 698.06,-131.95 689.17,-126.2 687.52,-133"/>
</a>
</g>
</g>
<!-- Node12 -->
<g id="Node000012" class="node">
<title>Node12</title>
<g id="a_Node000012"><a xlink:href="storage_8cpp.html" target="_top" xlink:title=" ">
<polygon fill="white" stroke="#666666" points="566,-24.5 492,-24.5 492,-5.5 566,-5.5 566,-24.5"/>
<text text-anchor="middle" x="529" y="-12.5" font-family="Helvetica,sans-Serif" font-size="10.00">storage.cpp</text>
</a>
</g>
</g>
<!-- Node10&#45;&gt;Node12 -->
<g id="edge20_Node000010_Node000012" class="edge">
<title>Node10&#45;&gt;Node12</title>
<g id="a_edge20_Node000010_Node000012"><a xlink:title=" ">
<path fill="none" stroke="#63b8ff" d="M712.55,-127.77C692.53,-118.89 668.67,-107.64 648,-96 606.78,-72.8 561.2,-39.97 540.43,-24.58"/>
<polygon fill="#63b8ff" stroke="#63b8ff" points="711.18,-130.99 721.75,-131.8 713.99,-124.58 711.18,-130.99"/>
</a>
</g>
</g>
<!-- Node13 -->
<g id="Node000013" class="node">
<title>Node13</title>
<g id="a_Node000013"><a xlink:href="NegativeQuantityException_8h.html" target="_top" xlink:title=" ">
<polygon fill="white" stroke="#666666" points="839.5,-96 672.5,-96 672.5,-66 839.5,-66 839.5,-96"/>
<text text-anchor="start" x="680.5" y="-84" font-family="Helvetica,sans-Serif" font-size="10.00">Exception/InventoryExceptions</text>
<text text-anchor="middle" x="756" y="-73" font-family="Helvetica,sans-Serif" font-size="10.00">/NegativeQuantityException.h</text>
</a>
</g>
</g>
<!-- Node10&#45;&gt;Node13 -->
<g id="edge12_Node000010_Node000013" class="edge">
<title>Node10&#45;&gt;Node13</title>
<g id="a_edge12_Node000010_Node000013"><a xlink:title=" ">
<path fill="none" stroke="#63b8ff" d="M756,-121.54C756,-112.96 756,-103.61 756,-96.16"/>
<polygon fill="#63b8ff" stroke="#63b8ff" points="752.5,-121.8 756,-131.8 759.5,-121.8 752.5,-121.8"/>
</a>
</g>
</g>
<!-- Node14 -->
<g id="Node000014" class="node">
<title>Node14</title>
<g id="a_Node000014"><a xlink:href="inventoryoperation_8cpp.html" target="_top" xlink:title=" ">
<polygon fill="white" stroke="#666666" points="714,-24.5 584,-24.5 584,-5.5 714,-5.5 714,-24.5"/>
<text text-anchor="middle" x="649" y="-12.5" font-family="Helvetica,sans-Serif" font-size="10.00">inventoryoperation.cpp</text>
</a>
</g>
</g>
<!-- Node10&#45;&gt;Node14 -->
<g id="edge18_Node000010_Node000014" class="edge">
<title>Node10&#45;&gt;Node14</title>
<g id="a_edge18_Node000010_Node000014"><a xlink:title=" ">
<path fill="none" stroke="#63b8ff" d="M702.52,-127.55C687.64,-119.96 672.86,-109.66 663,-96 647.23,-74.17 647.2,-40.38 648.2,-24.63"/>
<polygon fill="#63b8ff" stroke="#63b8ff" points="701.22,-130.8 711.76,-131.93 704.22,-124.48 701.22,-130.8"/>
</a>
</g>
</g>
<!-- Node15 -->
<g id="Node000015" class="node">
<title>Node15</title>
<g id="a_Node000015"><a xlink:href="supply_8cpp.html" target="_top" xlink:title=" ">
<polygon fill="white" stroke="#666666" points="800,-24.5 732,-24.5 732,-5.5 800,-5.5 800,-24.5"/>
<text text-anchor="middle" x="766" y="-12.5" font-family="Helvetica,sans-Serif" font-size="10.00">supply.cpp</text>
</a>
</g>
</g>
<!-- Node10&#45;&gt;Node15 -->
<g id="edge21_Node000010_Node000015" class="edge">
<title>Node10&#45;&gt;Node15</title>
<g id="a_edge21_Node000010_Node000015"><a xlink:title=" ">
<path fill="none" stroke="#63b8ff" d="M812.41,-127.37C826.47,-119.9 839.84,-109.71 848,-96 854.81,-84.54 854.53,-77.63 848,-66 836.41,-45.35 812.45,-32.23 793.4,-24.63"/>
<polygon fill="#63b8ff" stroke="#63b8ff" points="810.57,-124.37 803.12,-131.89 813.64,-130.66 810.57,-124.37"/>
</a>
</g>
</g>
<!-- Node16 -->
<g id="Node000016" class="node">
<title>Node16</title>
<g id="a_Node000016"><a xlink:href="writeoff_8cpp.html" target="_top" xlink:title=" ">
<polygon fill="white" stroke="#666666" points="892,-24.5 818,-24.5 818,-5.5 892,-5.5 892,-24.5"/>
<text text-anchor="middle" x="855" y="-12.5" font-family="Helvetica,sans-Serif" font-size="10.00">writeoff.cpp</text>
</a>
</g>
</g>
<!-- Node10&#45;&gt;Node16 -->
<g id="edge22_Node000010_Node000016" class="edge">
<title>Node10&#45;&gt;Node16</title>
<g id="a_edge22_Node000010_Node000016"><a xlink:title=" ">
<path fill="none" stroke="#63b8ff" d="M826.32,-127.79C841.58,-120.45 855.88,-110.22 865,-96 879.36,-73.62 866.9,-40.39 859.51,-24.75"/>
<polygon fill="#63b8ff" stroke="#63b8ff" points="824.47,-124.78 816.72,-132 827.28,-131.19 824.47,-124.78"/>
</a>
</g>
</g>
<!-- Node17 -->
<g id="Node000017" class="node">
<title>Node17</title>
<g id="a_Node000017"><a xlink:href="StorageOperationException_8h.html" target="_top" xlink:title=" ">
<polygon fill="white" stroke="#666666" points="387.5,-96 220.5,-96 220.5,-66 387.5,-66 387.5,-96"/>
<text text-anchor="start" x="228.5" y="-84" font-family="Helvetica,sans-Serif" font-size="10.00">Exception/InventoryExceptions</text>
<text text-anchor="middle" x="304" y="-73" font-family="Helvetica,sans-Serif" font-size="10.00">/StorageOperationException.h</text>
</a>
</g>
</g>
<!-- Node10&#45;&gt;Node17 -->
<g id="edge17_Node000010_Node000017" class="edge">
<title>Node10&#45;&gt;Node17</title>
<g id="a_edge17_Node000010_Node000017"><a xlink:title=" ">
<path fill="none" stroke="#63b8ff" d="M662.25,-133.32C589.57,-123.41 486.35,-109.15 396,-96 393.28,-95.6 390.52,-95.2 387.73,-94.79"/>
<polygon fill="#63b8ff" stroke="#63b8ff" points="661.92,-136.81 672.3,-134.69 662.87,-129.87 661.92,-136.81"/>
</a>
</g>
</g>
<!-- Node18 -->
<g id="Node000018" class="node">
<title>Node18</title>
<g id="a_Node000018"><a xlink:href="return_8cpp.html" target="_top" xlink:title=" ">
<polygon fill="white" stroke="#666666" points="976,-24.5 910,-24.5 910,-5.5 976,-5.5 976,-24.5"/>
<text text-anchor="middle" x="943" y="-12.5" font-family="Helvetica,sans-Serif" font-size="10.00">return.cpp</text>
</a>
</g>
</g>
<!-- Node10&#45;&gt;Node18 -->
<g id="edge19_Node000010_Node000018" class="edge">
<title>Node10&#45;&gt;Node18</title>
<g id="a_edge19_Node000010_Node000018"><a xlink:title=" ">
<path fill="none" stroke="#63b8ff" d="M820.03,-128.56C841.39,-120.79 864.45,-110.14 883,-96 909.51,-75.8 930.01,-40.9 938.6,-24.71"/>
<polygon fill="#63b8ff" stroke="#63b8ff" points="818.65,-125.33 810.36,-131.92 820.95,-131.94 818.65,-125.33"/>
</a>
</g>
</g>
<!-- Node11&#45;&gt;Node12 -->
<g id="edge11_Node000011_Node000012" class="edge">
<title>Node11&#45;&gt;Node12</title>
<g id="a_edge11_Node000011_Node000012"><a xlink:title=" ">
<path fill="none" stroke="#63b8ff" d="M505.33,-56.95C511.76,-45.81 519.11,-33.11 523.89,-24.84"/>
<polygon fill="#63b8ff" stroke="#63b8ff" points="502.19,-55.39 500.21,-65.8 508.25,-58.89 502.19,-55.39"/>
</a>
</g>
</g>
<!-- Node13&#45;&gt;Node12 -->
<g id="edge14_Node000013_Node000012" class="edge">
<title>Node13&#45;&gt;Node12</title>
<g id="a_edge14_Node000013_Node000012"><a xlink:title=" ">
<path fill="none" stroke="#63b8ff" d="M693.57,-63.18C658.63,-53.66 614.32,-41.41 575,-30 569.07,-28.28 562.72,-26.38 556.7,-24.56"/>
<polygon fill="#63b8ff" stroke="#63b8ff" points="693.05,-66.67 703.62,-65.92 694.89,-59.91 693.05,-66.67"/>
</a>
</g>
</g>
<!-- Node13&#45;&gt;Node14 -->
<g id="edge13_Node000013_Node000014" class="edge">
<title>Node13&#45;&gt;Node14</title>
<g id="a_edge13_Node000013_Node000014"><a xlink:title=" ">
<path fill="none" stroke="#63b8ff" d="M723.92,-60.81C703.72,-48.73 678.65,-33.73 663.24,-24.52"/>
<polygon fill="#63b8ff" stroke="#63b8ff" points="722.14,-63.83 732.52,-65.95 725.73,-57.82 722.14,-63.83"/>
</a>
</g>
</g>
<!-- Node13&#45;&gt;Node15 -->
<g id="edge15_Node000013_Node000015" class="edge">
<title>Node13&#45;&gt;Node15</title>
<g id="a_edge15_Node000013_Node000015"><a xlink:title=" ">
<path fill="none" stroke="#63b8ff" d="M759.81,-55.6C761.5,-44.8 763.38,-32.78 764.62,-24.84"/>
<polygon fill="#63b8ff" stroke="#63b8ff" points="756.31,-55.38 758.22,-65.8 763.22,-56.46 756.31,-55.38"/>
</a>
</g>
</g>
<!-- Node13&#45;&gt;Node16 -->
<g id="edge16_Node000013_Node000016" class="edge">
<title>Node13&#45;&gt;Node16</title>
<g id="a_edge16_Node000013_Node000016"><a xlink:title=" ">
<path fill="none" stroke="#63b8ff" d="M786.38,-60.36C804.85,-48.42 827.51,-33.77 841.61,-24.66"/>
<polygon fill="#63b8ff" stroke="#63b8ff" points="784.47,-57.43 777.97,-65.8 788.27,-63.31 784.47,-57.43"/>
</a>
</g>
</g>
<!-- Node20 -->
<g id="Node000020" class="node">
<title>Node20</title>
<g id="a_Node000020"><a xlink:href="DuplicateProductException_8h.html" target="_top" xlink:title=" ">
<polygon fill="white" stroke="#666666" points="2101,-228 1931,-228 1931,-198 2101,-198 2101,-228"/>
<text text-anchor="start" x="1939" y="-216" font-family="Helvetica,sans-Serif" font-size="10.00">Exception/PharmacyExceptions</text>
<text text-anchor="middle" x="2016" y="-205" font-family="Helvetica,sans-Serif" font-size="10.00">/DuplicateProductException.h</text>
</a>
</g>
</g>
<!-- Node19&#45;&gt;Node20 -->
<g id="edge24_Node000019_Node000020" class="edge">
<title>Node19&#45;&gt;Node20</title>
<g id="a_edge24_Node000019_Node000020"><a xlink:title=" ">
<path fill="none" stroke="#63b8ff" d="M1785.96,-267.12C1837.4,-255.24 1906.25,-239.34 1955.18,-228.04"/>
<polygon fill="#63b8ff" stroke="#63b8ff" points="1784.87,-263.78 1775.91,-269.44 1786.44,-270.6 1784.87,-263.78"/>
</a>
</g>
</g>
<!-- Node28 -->
<g id="Node000028" class="node">
<title>Node28</title>
<g id="a_Node000028"><a xlink:href="ExpiredProductException_8h.html" target="_top" xlink:title=" ">
<polygon fill="white" stroke="#666666" points="1804,-162 1634,-162 1634,-132 1804,-132 1804,-162"/>
<text text-anchor="start" x="1642" y="-150" font-family="Helvetica,sans-Serif" font-size="10.00">Exception/PharmacyExceptions</text>
<text text-anchor="middle" x="1719" y="-139" font-family="Helvetica,sans-Serif" font-size="10.00">/ExpiredProductException.h</text>
</a>
</g>
</g>
<!-- Node19&#45;&gt;Node28 -->
<g id="edge32_Node000019_Node000028" class="edge">
<title>Node19&#45;&gt;Node28</title>
<g id="a_edge32_Node000019_Node000028"><a xlink:title=" ">
<path fill="none" stroke="#63b8ff" d="M1715.72,-258.98C1716.56,-230.64 1717.91,-184.96 1718.59,-162.05"/>
<polygon fill="#63b8ff" stroke="#63b8ff" points="1712.22,-259.16 1715.42,-269.26 1719.21,-259.36 1712.22,-259.16"/>
</a>
</g>
</g>
<!-- Node30 -->
<g id="Node000030" class="node">
<title>Node30</title>
<g id="a_Node000030"><a xlink:href="InvalidProductDataException_8h.html" target="_top" xlink:title=" ">
<polygon fill="white" stroke="#666666" points="1502,-228 1332,-228 1332,-198 1502,-198 1502,-228"/>
<text text-anchor="start" x="1340" y="-216" font-family="Helvetica,sans-Serif" font-size="10.00">Exception/PharmacyExceptions</text>
<text text-anchor="middle" x="1417" y="-205" font-family="Helvetica,sans-Serif" font-size="10.00">/InvalidProductDataException.h</text>
</a>
</g>
</g>
<!-- Node19&#45;&gt;Node30 -->
<g id="edge34_Node000019_Node000030" class="edge">
<title>Node19&#45;&gt;Node30</title>
<g id="a_edge34_Node000019_Node000030"><a xlink:title=" ">
<path fill="none" stroke="#63b8ff" d="M1644.75,-267.12C1593.82,-255.24 1525.66,-239.34 1477.22,-228.04"/>
<polygon fill="#63b8ff" stroke="#63b8ff" points="1644.16,-270.57 1654.7,-269.44 1645.75,-263.76 1644.16,-270.57"/>
</a>
</g>
</g>
<!-- Node39 -->
<g id="Node000039" class="node">
<title>Node39</title>
<g id="a_Node000039"><a xlink:href="ProductNotFoundException_8h.html" target="_top" xlink:title=" ">
<polygon fill="white" stroke="#666666" points="1913,-228 1743,-228 1743,-198 1913,-198 1913,-228"/>
<text text-anchor="start" x="1751" y="-216" font-family="Helvetica,sans-Serif" font-size="10.00">Exception/PharmacyExceptions</text>
<text text-anchor="middle" x="1828" y="-205" font-family="Helvetica,sans-Serif" font-size="10.00">/ProductNotFoundException.h</text>
</a>
</g>
</g>
<!-- Node19&#45;&gt;Node39 -->
<g id="edge60_Node000019_Node000039" class="edge">
<title>Node19&#45;&gt;Node39</title>
<g id="a_edge60_Node000019_Node000039"><a xlink:title=" ">
<path fill="none" stroke="#63b8ff" d="M1746.59,-264.07C1765.21,-252.62 1788.33,-238.4 1805.17,-228.04"/>
<polygon fill="#63b8ff" stroke="#63b8ff" points="1744.55,-261.22 1737.87,-269.44 1748.22,-267.18 1744.55,-261.22"/>
</a>
</g>
</g>
<!-- Node21 -->
<g id="Node000021" class="node">
<title>Node21</title>
<g id="a_Node000021"><a xlink:href="pharmacy_8cpp.html" target="_top" xlink:title=" ">
<polygon fill="white" stroke="#666666" points="1800,-24.5 1716,-24.5 1716,-5.5 1800,-5.5 1800,-24.5"/>
<text text-anchor="middle" x="1758" y="-12.5" font-family="Helvetica,sans-Serif" font-size="10.00">pharmacy.cpp</text>
</a>
</g>
</g>
<!-- Node20&#45;&gt;Node21 -->
<g id="edge25_Node000020_Node000021" class="edge">
<title>Node20&#45;&gt;Node21</title>
<g id="a_edge25_Node000020_Node000021"><a xlink:title=" ">
<path fill="none" stroke="#63b8ff" d="M2020.54,-187.86C2025.08,-155.7 2027.58,-99.03 1997,-66 1970.83,-37.73 1861.35,-24.4 1800.05,-19.05"/>
<polygon fill="#63b8ff" stroke="#63b8ff" points="2017.08,-187.33 2018.97,-197.76 2023.99,-188.43 2017.08,-187.33"/>
</a>
</g>
</g>
<!-- Node22 -->
<g id="Node000022" class="node">
<title>Node22</title>
<g id="a_Node000022"><a xlink:href="pharmacymanager_8h.html" target="_top" xlink:title=" ">
<polygon fill="white" stroke="#666666" points="1982.5,-156.5 1865.5,-156.5 1865.5,-137.5 1982.5,-137.5 1982.5,-156.5"/>
<text text-anchor="middle" x="1924" y="-144.5" font-family="Helvetica,sans-Serif" font-size="10.00">pharmacymanager.h</text>
</a>
</g>
</g>
<!-- Node20&#45;&gt;Node22 -->
<g id="edge26_Node000020_Node000022" class="edge">
<title>Node20&#45;&gt;Node22</title>
<g id="a_edge26_Node000020_Node000022"><a xlink:title=" ">
<path fill="none" stroke="#63b8ff" d="M1987.07,-191.87C1970.04,-180.03 1949.37,-165.65 1936.45,-156.66"/>
<polygon fill="#63b8ff" stroke="#63b8ff" points="1985.37,-194.96 1995.58,-197.8 1989.37,-189.21 1985.37,-194.96"/>
</a>
</g>
</g>
<!-- Node23 -->
<g id="Node000023" class="node">
<title>Node23</title>
<g id="a_Node000023"><a xlink:href="mainwindow_8h.html" target="_top" xlink:title=" ">
<polygon fill="white" stroke="#666666" points="2131.5,-90.5 2044.5,-90.5 2044.5,-71.5 2131.5,-71.5 2131.5,-90.5"/>
<text text-anchor="middle" x="2088" y="-78.5" font-family="Helvetica,sans-Serif" font-size="10.00">mainwindow.h</text>
</a>
</g>
</g>
<!-- Node22&#45;&gt;Node23 -->
<g id="edge27_Node000022_Node000023" class="edge">
<title>Node22&#45;&gt;Node23</title>
<g id="a_edge27_Node000022_Node000023"><a xlink:title=" ">
<path fill="none" stroke="#63b8ff" d="M1955.58,-133.68C1987.99,-121.03 2037.57,-101.68 2065.97,-90.6"/>
<polygon fill="#63b8ff" stroke="#63b8ff" points="1954.16,-130.47 1946.12,-137.37 1956.71,-136.99 1954.16,-130.47"/>
</a>
</g>
</g>
<!-- Node27 -->
<g id="Node000027" class="node">
<title>Node27</title>
<g id="a_Node000027"><a xlink:href="pharmacymanager_8cpp.html" target="_top" xlink:title=" ">
<polygon fill="white" stroke="#666666" points="1988,-90.5 1860,-90.5 1860,-71.5 1988,-71.5 1988,-90.5"/>
<text text-anchor="middle" x="1924" y="-78.5" font-family="Helvetica,sans-Serif" font-size="10.00">pharmacymanager.cpp</text>
</a>
</g>
</g>
<!-- Node22&#45;&gt;Node27 -->
<g id="edge31_Node000022_Node000027" class="edge">
<title>Node22&#45;&gt;Node27</title>
<g id="a_edge31_Node000022_Node000027"><a xlink:title=" ">
<path fill="none" stroke="#63b8ff" d="M1924,-127.08C1924,-115.13 1924,-100.22 1924,-90.91"/>
<polygon fill="#63b8ff" stroke="#63b8ff" points="1920.5,-127.37 1924,-137.37 1927.5,-127.37 1920.5,-127.37"/>
</a>
</g>
</g>
<!-- Node24 -->
<g id="Node000024" class="node">
<title>Node24</title>
<g id="a_Node000024"><a xlink:href="moc__mainwindow_8cpp.html" target="_top" xlink:title=" ">
<polygon fill="white" stroke="#666666" points="2039,-30 1911,-30 1911,0 2039,0 2039,-30"/>
<text text-anchor="start" x="1919" y="-18" font-family="Helvetica,sans-Serif" font-size="10.00">build/Desktop&#45;Debug</text>
<text text-anchor="middle" x="1975" y="-7" font-family="Helvetica,sans-Serif" font-size="10.00">/moc_mainwindow.cpp</text>
</a>
</g>
</g>
<!-- Node23&#45;&gt;Node24 -->
<g id="edge28_Node000023_Node000024" class="edge">
<title>Node23&#45;&gt;Node24</title>
<g id="a_edge28_Node000023_Node000024"><a xlink:title=" ">
<path fill="none" stroke="#63b8ff" d="M2063.9,-66.35C2045.07,-55.68 2018.97,-40.9 1999.92,-30.12"/>
<polygon fill="#63b8ff" stroke="#63b8ff" points="2062.33,-69.49 2072.76,-71.37 2065.78,-63.39 2062.33,-69.49"/>
</a>
</g>
</g>
<!-- Node25 -->
<g id="Node000025" class="node">
<title>Node25</title>
<g id="a_Node000025"><a xlink:href="main_8cpp.html" target="_top" xlink:title=" ">
<polygon fill="white" stroke="#666666" points="2119,-24.5 2057,-24.5 2057,-5.5 2119,-5.5 2119,-24.5"/>
<text text-anchor="middle" x="2088" y="-12.5" font-family="Helvetica,sans-Serif" font-size="10.00">main.cpp</text>
</a>
</g>
</g>
<!-- Node23&#45;&gt;Node25 -->
<g id="edge29_Node000023_Node000025" class="edge">
<title>Node23&#45;&gt;Node25</title>
<g id="a_edge29_Node000023_Node000025"><a xlink:title=" ">
<path fill="none" stroke="#63b8ff" d="M2088,-61.08C2088,-49.13 2088,-34.22 2088,-24.91"/>
<polygon fill="#63b8ff" stroke="#63b8ff" points="2084.5,-61.37 2088,-71.37 2091.5,-61.37 2084.5,-61.37"/>
</a>
</g>
</g>
<!-- Node26 -->
<g id="Node000026" class="node">
<title>Node26</title>
<g id="a_Node000026"><a xlink:href="mainwindow_8cpp.html" target="_top" xlink:title=" ">
<polygon fill="white" stroke="#666666" points="2235,-24.5 2137,-24.5 2137,-5.5 2235,-5.5 2235,-24.5"/>
<text text-anchor="middle" x="2186" y="-12.5" font-family="Helvetica,sans-Serif" font-size="10.00">mainwindow.cpp</text>
</a>
</g>
</g>
<!-- Node23&#45;&gt;Node26 -->
<g id="edge30_Node000023_Node000026" class="edge">
<title>Node23&#45;&gt;Node26</title>
<g id="a_edge30_Node000023_Node000026"><a xlink:title=" ">
<path fill="none" stroke="#63b8ff" d="M2109.67,-65.85C2128.93,-53.27 2156.48,-35.28 2172.68,-24.7"/>
<polygon fill="#63b8ff" stroke="#63b8ff" points="2107.68,-62.97 2101.22,-71.37 2111.5,-68.83 2107.68,-62.97"/>
</a>
</g>
</g>
<!-- Node29 -->
<g id="Node000029" class="node">
<title>Node29</title>
<g id="a_Node000029"><a xlink:href="medicalproduct_8cpp.html" target="_top" xlink:title=" ">
<polygon fill="white" stroke="#666666" points="1624.5,-24.5 1511.5,-24.5 1511.5,-5.5 1624.5,-5.5 1624.5,-24.5"/>
<text text-anchor="middle" x="1568" y="-12.5" font-family="Helvetica,sans-Serif" font-size="10.00">medicalproduct.cpp</text>
</a>
</g>
</g>
<!-- Node28&#45;&gt;Node29 -->
<g id="edge33_Node000028_Node000029" class="edge">
<title>Node28&#45;&gt;Node29</title>
<g id="a_edge33_Node000028_Node000029"><a xlink:title=" ">
<path fill="none" stroke="#63b8ff" d="M1694.58,-124.98C1660.93,-96.01 1601.78,-45.08 1578.16,-24.75"/>
<polygon fill="#63b8ff" stroke="#63b8ff" points="1692.69,-127.97 1702.55,-131.84 1697.26,-122.66 1692.69,-127.97"/>
</a>
</g>
</g>
<!-- Node30&#45;&gt;Node21 -->
<g id="edge56_Node000030_Node000021" class="edge">
<title>Node30&#45;&gt;Node21</title>
<g id="a_edge56_Node000030_Node000021"><a xlink:title=" ">
<path fill="none" stroke="#63b8ff" d="M1473.51,-194.77C1498.25,-186.29 1527.22,-175.08 1552,-162 1633.02,-119.24 1719.05,-48.99 1747.91,-24.63"/>
<polygon fill="#63b8ff" stroke="#63b8ff" points="1472.27,-191.49 1463.91,-197.99 1474.5,-198.13 1472.27,-191.49"/>
</a>
</g>
</g>
<!-- Node30&#45;&gt;Node22 -->
<g id="edge57_Node000030_Node000022" class="edge">
<title>Node30&#45;&gt;Node22</title>
<g id="a_edge57_Node000030_Node000022"><a xlink:title=" ">
<path fill="none" stroke="#63b8ff" d="M1512.32,-199.97C1616.17,-186.86 1779,-166.3 1865.47,-155.39"/>
<polygon fill="#63b8ff" stroke="#63b8ff" points="1511.63,-196.53 1502.15,-201.25 1512.51,-203.47 1511.63,-196.53"/>
</a>
</g>
</g>
<!-- Node30&#45;&gt;Node29 -->
<g id="edge53_Node000030_Node000029" class="edge">
<title>Node30&#45;&gt;Node29</title>
<g id="a_edge53_Node000030_Node000029"><a xlink:title=" ">
<path fill="none" stroke="#63b8ff" d="M1482.59,-194.13C1499.74,-186.66 1516.82,-176.29 1529,-162 1564.57,-120.27 1568.06,-49.37 1568.14,-24.74"/>
<polygon fill="#63b8ff" stroke="#63b8ff" points="1481.03,-190.98 1473.08,-197.98 1483.66,-197.47 1481.03,-190.98"/>
</a>
</g>
</g>
<!-- Node31 -->
<g id="Node000031" class="node">
<title>Node31</title>
<g id="a_Node000031"><a xlink:href="InvalidPriceException_8h.html" target="_top" xlink:title=" ">
<polygon fill="white" stroke="#666666" points="1276,-162 1106,-162 1106,-132 1276,-132 1276,-162"/>
<text text-anchor="start" x="1114" y="-150" font-family="Helvetica,sans-Serif" font-size="10.00">Exception/PharmacyExceptions</text>
<text text-anchor="middle" x="1191" y="-139" font-family="Helvetica,sans-Serif" font-size="10.00">/InvalidPriceException.h</text>
</a>
</g>
</g>
<!-- Node30&#45;&gt;Node31 -->
<g id="edge35_Node000030_Node000031" class="edge">
<title>Node30&#45;&gt;Node31</title>
<g id="a_edge35_Node000030_Node000031"><a xlink:title=" ">
<path fill="none" stroke="#63b8ff" d="M1357.4,-195.12C1320.96,-184.8 1274.9,-171.76 1240.48,-162.01"/>
<polygon fill="#63b8ff" stroke="#63b8ff" points="1356.83,-198.6 1367.4,-197.95 1358.74,-191.86 1356.83,-198.6"/>
</a>
</g>
</g>
<!-- Node32 -->
<g id="Node000032" class="node">
<title>Node32</title>
<g id="a_Node000032"><a xlink:href="safeinput_8h.html" target="_top" xlink:title=" ">
<polygon fill="white" stroke="#666666" points="1207,-90.5 1085,-90.5 1085,-71.5 1207,-71.5 1207,-90.5"/>
<text text-anchor="middle" x="1146" y="-78.5" font-family="Helvetica,sans-Serif" font-size="10.00">Exception/safeinput.h</text>
</a>
</g>
</g>
<!-- Node30&#45;&gt;Node32 -->
<g id="edge52_Node000030_Node000032" class="edge">
<title>Node30&#45;&gt;Node32</title>
<g id="a_edge52_Node000030_Node000032"><a xlink:title=" ">
<path fill="none" stroke="#63b8ff" d="M1321.58,-210.32C1237.98,-206.59 1125.5,-195.3 1097,-162 1076.88,-138.49 1113.62,-105.81 1133.9,-90.52"/>
<polygon fill="#63b8ff" stroke="#63b8ff" points="1321.48,-213.82 1331.62,-210.74 1321.77,-206.82 1321.48,-213.82"/>
</a>
</g>
</g>
<!-- Node34 -->
<g id="Node000034" class="node">
<title>Node34</title>
<g id="a_Node000034"><a xlink:href="medicine_8cpp.html" target="_top" xlink:title=" ">
<polygon fill="white" stroke="#666666" points="1076,-24.5 994,-24.5 994,-5.5 1076,-5.5 1076,-24.5"/>
<text text-anchor="middle" x="1035" y="-12.5" font-family="Helvetica,sans-Serif" font-size="10.00">medicine.cpp</text>
</a>
</g>
</g>
<!-- Node30&#45;&gt;Node34 -->
<g id="edge54_Node000030_Node000034" class="edge">
<title>Node30&#45;&gt;Node34</title>
<g id="a_edge54_Node000030_Node000034"><a xlink:title=" ">
<path fill="none" stroke="#63b8ff" d="M1321.73,-210.58C1230.04,-207.15 1100.13,-196.19 1064,-162 1024.58,-124.7 1030.32,-50.35 1033.65,-24.84"/>
<polygon fill="#63b8ff" stroke="#63b8ff" points="1321.75,-214.09 1331.87,-210.94 1322,-207.09 1321.75,-214.09"/>
</a>
</g>
</g>
<!-- Node35 -->
<g id="Node000035" class="node">
<title>Node35</title>
<g id="a_Node000035"><a xlink:href="ointment_8cpp.html" target="_top" xlink:title=" ">
<polygon fill="white" stroke="#666666" points="1175.5,-24.5 1094.5,-24.5 1094.5,-5.5 1175.5,-5.5 1175.5,-24.5"/>
<text text-anchor="middle" x="1135" y="-12.5" font-family="Helvetica,sans-Serif" font-size="10.00">ointment.cpp</text>
</a>
</g>
</g>
<!-- Node30&#45;&gt;Node35 -->
<g id="edge55_Node000030_Node000035" class="edge">
<title>Node30&#45;&gt;Node35</title>
<g id="a_edge55_Node000030_Node000035"><a xlink:title=" ">
<path fill="none" stroke="#63b8ff" d="M1321.45,-209.5C1236.36,-205.19 1120.46,-193.53 1088,-162 1057.16,-132.04 1057.92,-105.01 1076,-66 1084.69,-47.24 1104.28,-32.96 1118.5,-24.55"/>
<polygon fill="#63b8ff" stroke="#63b8ff" points="1321.51,-213 1331.66,-209.99 1321.84,-206.01 1321.51,-213"/>
</a>
</g>
</g>
<!-- Node36 -->
<g id="Node000036" class="node">
<title>Node36</title>
<g id="a_Node000036"><a xlink:href="syrup_8cpp.html" target="_top" xlink:title=" ">
<polygon fill="white" stroke="#666666" points="1410,-24.5 1346,-24.5 1346,-5.5 1410,-5.5 1410,-24.5"/>
<text text-anchor="middle" x="1378" y="-12.5" font-family="Helvetica,sans-Serif" font-size="10.00">syrup.cpp</text>
</a>
</g>
</g>
<!-- Node30&#45;&gt;Node36 -->
<g id="edge58_Node000030_Node000036" class="edge">
<title>Node30&#45;&gt;Node36</title>
<g id="a_edge58_Node000030_Node000036"><a xlink:title=" ">
<path fill="none" stroke="#63b8ff" d="M1358.99,-193.41C1344.78,-185.96 1331.28,-175.78 1323,-162 1294.13,-113.94 1347.91,-48.14 1369.55,-24.72"/>
<polygon fill="#63b8ff" stroke="#63b8ff" points="1357.86,-196.75 1368.39,-197.92 1360.89,-190.44 1357.86,-196.75"/>
</a>
</g>
</g>
<!-- Node37 -->
<g id="Node000037" class="node">
<title>Node37</title>
<g id="a_Node000037"><a xlink:href="tablet_8cpp.html" target="_top" xlink:title=" ">
<polygon fill="white" stroke="#666666" points="1493.5,-24.5 1428.5,-24.5 1428.5,-5.5 1493.5,-5.5 1493.5,-24.5"/>
<text text-anchor="middle" x="1461" y="-12.5" font-family="Helvetica,sans-Serif" font-size="10.00">tablet.cpp</text>
</a>
</g>
</g>
<!-- Node30&#45;&gt;Node37 -->
<g id="edge59_Node000030_Node000037" class="edge">
<title>Node30&#45;&gt;Node37</title>
<g id="a_edge59_Node000030_Node000037"><a xlink:title=" ">
<path fill="none" stroke="#63b8ff" d="M1475.01,-193.41C1489.22,-185.96 1502.72,-175.78 1511,-162 1539.56,-114.46 1489.24,-48.34 1468.93,-24.77"/>
<polygon fill="#63b8ff" stroke="#63b8ff" points="1473.11,-190.44 1465.61,-197.92 1476.14,-196.75 1473.11,-190.44"/>
</a>
</g>
</g>
<!-- Node38 -->
<g id="Node000038" class="node">
<title>Node38</title>
<g id="a_Node000038"><a xlink:href="InvalidProductIdException_8h.html" target="_top" xlink:title=" ">
<polygon fill="white" stroke="#666666" points="1502,-162 1332,-162 1332,-132 1502,-132 1502,-162"/>
<text text-anchor="start" x="1340" y="-150" font-family="Helvetica,sans-Serif" font-size="10.00">Exception/PharmacyExceptions</text>
<text text-anchor="middle" x="1417" y="-139" font-family="Helvetica,sans-Serif" font-size="10.00">/InvalidProductIdException.h</text>
</a>
</g>
</g>
<!-- Node30&#45;&gt;Node38 -->
<g id="edge49_Node000030_Node000038" class="edge">
<title>Node30&#45;&gt;Node38</title>
<g id="a_edge49_Node000030_Node000038"><a xlink:title=" ">
<path fill="none" stroke="#63b8ff" d="M1417,-187.54C1417,-178.96 1417,-169.61 1417,-162.16"/>
<polygon fill="#63b8ff" stroke="#63b8ff" points="1413.5,-187.8 1417,-197.8 1420.5,-187.8 1413.5,-187.8"/>
</a>
</g>
</g>
<!-- Node31&#45;&gt;Node29 -->
<g id="edge48_Node000031_Node000029" class="edge">
<title>Node31&#45;&gt;Node29</title>
<g id="a_edge48_Node000031_Node000029"><a xlink:title=" ">
<path fill="none" stroke="#63b8ff" d="M1241.28,-128.66C1323.02,-100.47 1481.77,-45.73 1543.04,-24.61"/>
<polygon fill="#63b8ff" stroke="#63b8ff" points="1240.02,-125.4 1231.7,-131.96 1242.3,-132.01 1240.02,-125.4"/>
</a>
</g>
</g>
<!-- Node31&#45;&gt;Node32 -->
<g id="edge36_Node000031_Node000032" class="edge">
<title>Node31&#45;&gt;Node32</title>
<g id="a_edge36_Node000031_Node000032"><a xlink:title=" ">
<path fill="none" stroke="#63b8ff" d="M1175.26,-123.61C1167.32,-112.32 1158.15,-99.28 1152.22,-90.84"/>
<polygon fill="#63b8ff" stroke="#63b8ff" points="1172.4,-125.63 1181.01,-131.8 1178.12,-121.6 1172.4,-125.63"/>
</a>
</g>
</g>
<!-- Node32&#45;&gt;Node14 -->
<g id="edge38_Node000032_Node000014" class="edge">
<title>Node32&#45;&gt;Node14</title>
<g id="a_edge38_Node000032_Node000014"><a xlink:title=" ">
<path fill="none" stroke="#63b8ff" d="M1074.91,-73.12C990.7,-64.61 846.27,-48.92 723,-30 712.66,-28.41 701.56,-26.45 691.18,-24.5"/>
<polygon fill="#63b8ff" stroke="#63b8ff" points="1074.58,-76.6 1084.88,-74.12 1075.28,-69.64 1074.58,-76.6"/>
</a>
</g>
</g>
<!-- Node32&#45;&gt;Node15 -->
<g id="edge44_Node000032_Node000015" class="edge">
<title>Node32&#45;&gt;Node15</title>
<g id="a_edge44_Node000032_Node000015"><a xlink:title=" ">
<path fill="none" stroke="#63b8ff" d="M1074.58,-72.92C1005.91,-65.28 899.5,-51.29 809,-30 802.73,-28.53 796.07,-26.56 789.91,-24.57"/>
<polygon fill="#63b8ff" stroke="#63b8ff" points="1074.52,-76.43 1084.85,-74.04 1075.29,-69.47 1074.52,-76.43"/>
</a>
</g>
</g>
<!-- Node32&#45;&gt;Node16 -->
<g id="edge47_Node000032_Node000016" class="edge">
<title>Node32&#45;&gt;Node16</title>
<g id="a_edge47_Node000032_Node000016"><a xlink:title=" ">
<path fill="none" stroke="#63b8ff" d="M1087.39,-69.64C1037.54,-60.45 964.18,-46.02 901,-30 894.69,-28.4 887.95,-26.47 881.64,-24.57"/>
<polygon fill="#63b8ff" stroke="#63b8ff" points="1086.88,-73.11 1097.35,-71.47 1088.14,-66.22 1086.88,-73.11"/>
</a>
</g>
</g>
<!-- Node32&#45;&gt;Node18 -->
<g id="edge43_Node000032_Node000018" class="edge">
<title>Node32&#45;&gt;Node18</title>
<g id="a_edge43_Node000032_Node000018"><a xlink:title=" ">
<path fill="none" stroke="#63b8ff" d="M1108.12,-68.48C1075.45,-58.48 1027.04,-43.53 985,-30 979.59,-28.26 973.79,-26.35 968.29,-24.52"/>
<polygon fill="#63b8ff" stroke="#63b8ff" points="1107.15,-71.84 1117.73,-71.41 1109.19,-65.15 1107.15,-71.84"/>
</a>
</g>
</g>
<!-- Node32&#45;&gt;Node21 -->
<g id="edge42_Node000032_Node000021" class="edge">
<title>Node32&#45;&gt;Node21</title>
<g id="a_edge42_Node000032_Node000021"><a xlink:title=" ">
<path fill="none" stroke="#63b8ff" d="M1217.34,-72.92C1312.43,-63.44 1485.92,-45.95 1634,-30 1661.25,-27.07 1691.85,-23.61 1715.83,-20.87"/>
<polygon fill="#63b8ff" stroke="#63b8ff" points="1216.87,-69.45 1207.27,-73.93 1217.56,-76.42 1216.87,-69.45"/>
</a>
</g>
</g>
<!-- Node32&#45;&gt;Node29 -->
<g id="edge39_Node000032_Node000029" class="edge">
<title>Node32&#45;&gt;Node29</title>
<g id="a_edge39_Node000032_Node000029"><a xlink:title=" ">
<path fill="none" stroke="#63b8ff" d="M1213.99,-70.02C1223.4,-68.66 1232.94,-67.29 1242,-66 1357.94,-49.55 1387.68,-50.34 1503,-30 1511.98,-28.42 1521.61,-26.48 1530.63,-24.55"/>
<polygon fill="#63b8ff" stroke="#63b8ff" points="1213.26,-66.59 1203.86,-71.49 1214.26,-73.52 1213.26,-66.59"/>
</a>
</g>
</g>
<!-- Node33 -->
<g id="Node000033" class="node">
<title>Node33</title>
<g id="a_Node000033"><a xlink:href="safeinput_8cpp.html" target="_top" xlink:title=" ">
<polygon fill="white" stroke="#666666" points="1328,-24.5 1194,-24.5 1194,-5.5 1328,-5.5 1328,-24.5"/>
<text text-anchor="middle" x="1261" y="-12.5" font-family="Helvetica,sans-Serif" font-size="10.00">Exception/safeinput.cpp</text>
</a>
</g>
</g>
<!-- Node32&#45;&gt;Node33 -->
<g id="edge37_Node000032_Node000033" class="edge">
<title>Node32&#45;&gt;Node33</title>
<g id="a_edge37_Node000032_Node000033"><a xlink:title=" ">
<path fill="none" stroke="#63b8ff" d="M1170.51,-66.36C1193.15,-53.76 1226.11,-35.42 1245.37,-24.7"/>
<polygon fill="#63b8ff" stroke="#63b8ff" points="1168.55,-63.45 1161.51,-71.37 1171.95,-69.56 1168.55,-63.45"/>
</a>
</g>
</g>
<!-- Node32&#45;&gt;Node34 -->
<g id="edge40_Node000032_Node000034" class="edge">
<title>Node32&#45;&gt;Node34</title>
<g id="a_edge40_Node000032_Node000034"><a xlink:title=" ">
<path fill="none" stroke="#63b8ff" d="M1122.34,-66.36C1100.49,-53.76 1068.68,-35.42 1050.09,-24.7"/>
<polygon fill="#63b8ff" stroke="#63b8ff" points="1120.62,-69.41 1131.03,-71.37 1124.12,-63.34 1120.62,-69.41"/>
</a>
</g>
</g>
<!-- Node32&#45;&gt;Node35 -->
<g id="edge41_Node000032_Node000035" class="edge">
<title>Node32&#45;&gt;Node35</title>
<g id="a_edge41_Node000032_Node000035"><a xlink:title=" ">
<path fill="none" stroke="#63b8ff" d="M1142.81,-61.45C1140.75,-49.43 1138.15,-34.32 1136.53,-24.91"/>
<polygon fill="#63b8ff" stroke="#63b8ff" points="1139.37,-62.11 1144.52,-71.37 1146.27,-60.92 1139.37,-62.11"/>
</a>
</g>
</g>
<!-- Node32&#45;&gt;Node36 -->
<g id="edge45_Node000032_Node000036" class="edge">
<title>Node32&#45;&gt;Node36</title>
<g id="a_edge45_Node000032_Node000036"><a xlink:title=" ">
<path fill="none" stroke="#63b8ff" d="M1191.73,-69.03C1230.59,-59.46 1287.74,-44.84 1337,-30 1342.47,-28.35 1348.31,-26.45 1353.81,-24.59"/>
<polygon fill="#63b8ff" stroke="#63b8ff" points="1190.65,-65.69 1181.77,-71.46 1192.32,-72.49 1190.65,-65.69"/>
</a>
</g>
</g>
<!-- Node32&#45;&gt;Node37 -->
<g id="edge46_Node000032_Node000037" class="edge">
<title>Node32&#45;&gt;Node37</title>
<g id="a_edge46_Node000032_Node000037"><a xlink:title=" ">
<path fill="none" stroke="#63b8ff" d="M1216.25,-69.92C1271.74,-61.29 1350.9,-47.49 1419,-30 1424.96,-28.47 1431.29,-26.53 1437.19,-24.58"/>
<polygon fill="#63b8ff" stroke="#63b8ff" points="1215.52,-66.49 1206.17,-71.47 1216.59,-73.41 1215.52,-66.49"/>
</a>
</g>
</g>
<!-- Node38&#45;&gt;Node29 -->
<g id="edge51_Node000038_Node000029" class="edge">
<title>Node38&#45;&gt;Node29</title>
<g id="a_edge51_Node000038_Node000029"><a xlink:title=" ">
<path fill="none" stroke="#63b8ff" d="M1441.42,-124.98C1475.07,-96.01 1534.22,-45.08 1557.84,-24.75"/>
<polygon fill="#63b8ff" stroke="#63b8ff" points="1438.74,-122.66 1433.45,-131.84 1443.31,-127.97 1438.74,-122.66"/>
</a>
</g>
</g>
<!-- Node38&#45;&gt;Node32 -->
<g id="edge50_Node000038_Node000032" class="edge">
<title>Node38&#45;&gt;Node32</title>
<g id="a_edge50_Node000038_Node000032"><a xlink:title=" ">
<path fill="none" stroke="#63b8ff" d="M1347.55,-129.6C1294.72,-117.12 1224.15,-100.46 1182.07,-90.52"/>
<polygon fill="#63b8ff" stroke="#63b8ff" points="1346.99,-133.06 1357.53,-131.95 1348.6,-126.25 1346.99,-133.06"/>
</a>
</g>
</g>
<!-- Node39&#45;&gt;Node21 -->
<g id="edge61_Node000039_Node000021" class="edge">
<title>Node39&#45;&gt;Node21</title>
<g id="a_edge61_Node000039_Node000021"><a xlink:title=" ">
<path fill="none" stroke="#63b8ff" d="M1825.1,-187.68C1822.78,-171.62 1818.92,-150.24 1813,-132 1799.37,-90.03 1773.92,-43.59 1763.09,-24.7"/>
<polygon fill="#63b8ff" stroke="#63b8ff" points="1821.67,-188.41 1826.46,-197.85 1828.6,-187.48 1821.67,-188.41"/>
</a>
</g>
</g>
<!-- Node39&#45;&gt;Node22 -->
<g id="edge62_Node000039_Node000022" class="edge">
<title>Node39&#45;&gt;Node22</title>
<g id="a_edge62_Node000039_Node000022"><a xlink:title=" ">
<path fill="none" stroke="#63b8ff" d="M1857.7,-192.2C1875.57,-180.29 1897.4,-165.73 1911.01,-156.66"/>
<polygon fill="#63b8ff" stroke="#63b8ff" points="1855.68,-189.34 1849.31,-197.8 1859.57,-195.16 1855.68,-189.34"/>
</a>
</g>
</g>
</g>
</svg>
