<?xml version="1.0" encoding="UTF-8" standalone="no"?>
<!DOCTYPE svg PUBLIC "-//W3C//DTD SVG 1.1//EN"
 "http://www.w3.org/Graphics/SVG/1.1/DTD/svg11.dtd">
<!-- Generated by graphviz version 2.43.0 (0)
 -->
<!-- Title: pharmacy.h Pages: 1 -->
<svg width="356pt" height="247pt"
 viewBox="0.00 0.00 355.78 247.00" xmlns="http://www.w3.org/2000/svg" xmlns:xlink="http://www.w3.org/1999/xlink">
<g id="graph0" class="graph" transform="scale(1 1) rotate(0) translate(4 243)">
<title>pharmacy.h</title>
<!-- Node1 -->
<g id="Node000001" class="node">
<title>Node1</title>
<g id="a_Node000001"><a xlink:title=" ">
<polygon fill="#999999" stroke="#666666" points="230.28,-239 157.28,-239 157.28,-220 230.28,-220 230.28,-239"/>
<text text-anchor="middle" x="193.78" y="-227" font-family="Helvetica,sans-Serif" font-size="10.00">pharmacy.h</text>
</a>
</g>
</g>
<!-- Node2 -->
<g id="Node000002" class="node">
<title>Node2</title>
<g id="a_Node000002"><a xlink:href="medicine_8h.html" target="_top" xlink:title=" ">
<polygon fill="white" stroke="#666666" points="165.28,-184 94.28,-184 94.28,-165 165.28,-165 165.28,-184"/>
<text text-anchor="middle" x="129.78" y="-172" font-family="Helvetica,sans-Serif" font-size="10.00">medicine.h</text>
</a>
</g>
</g>
<!-- Node1&#45;&gt;Node2 -->
<g id="edge1_Node000001_Node000002" class="edge">
<title>Node1&#45;&gt;Node2</title>
<g id="a_edge1_Node000001_Node000002"><a xlink:title=" ">
<path fill="none" stroke="#63b8ff" d="M183.5,-219.98C173.95,-212.07 159.5,-200.11 148,-190.58"/>
<polygon fill="#63b8ff" stroke="#63b8ff" points="150.19,-187.85 140.25,-184.17 145.72,-193.24 150.19,-187.85"/>
</a>
</g>
</g>
<!-- Node3 -->
<g id="Node000003" class="node">
<title>Node3</title>
<g id="a_Node000003"><a xlink:href="medicalproduct_8h.html" target="_top" xlink:title=" ">
<polygon fill="white" stroke="#666666" points="150.28,-129 49.28,-129 49.28,-110 150.28,-110 150.28,-129"/>
<text text-anchor="middle" x="99.78" y="-117" font-family="Helvetica,sans-Serif" font-size="10.00">medicalproduct.h</text>
</a>
</g>
</g>
<!-- Node1&#45;&gt;Node3 -->
<g id="edge13_Node000001_Node000003" class="edge">
<title>Node1&#45;&gt;Node3</title>
<g id="a_edge13_Node000001_Node000003"><a xlink:title=" ">
<path fill="none" stroke="#63b8ff" d="M157.02,-224.06C132.07,-218.91 100.8,-207.84 84.78,-184 75.53,-170.23 81.78,-151.43 88.81,-137.87"/>
<polygon fill="#63b8ff" stroke="#63b8ff" points="91.92,-139.48 93.87,-129.06 85.85,-135.99 91.92,-139.48"/>
</a>
</g>
</g>
<!-- Node9 -->
<g id="Node000009" class="node">
<title>Node9</title>
<g id="a_Node000009"><a xlink:title=" ">
<polygon fill="#e0e0e0" stroke="#999999" points="215.28,-129 168.28,-129 168.28,-110 215.28,-110 215.28,-129"/>
<text text-anchor="middle" x="191.78" y="-117" font-family="Helvetica,sans-Serif" font-size="10.00">vector</text>
</a>
</g>
</g>
<!-- Node1&#45;&gt;Node9 -->
<g id="edge14_Node000001_Node000009" class="edge">
<title>Node1&#45;&gt;Node9</title>
<g id="a_edge14_Node000001_Node000009"><a xlink:title=" ">
<path fill="none" stroke="#63b8ff" d="M193.62,-219.66C193.3,-202.17 192.57,-162.8 192.13,-139.27"/>
<polygon fill="#63b8ff" stroke="#63b8ff" points="195.63,-139.09 191.94,-129.16 188.63,-139.22 195.63,-139.09"/>
</a>
</g>
</g>
<!-- Node10 -->
<g id="Node000010" class="node">
<title>Node10</title>
<g id="a_Node000010"><a xlink:title=" ">
<polygon fill="#e0e0e0" stroke="#999999" points="347.78,-129 289.78,-129 289.78,-110 347.78,-110 347.78,-129"/>
<text text-anchor="middle" x="318.78" y="-117" font-family="Helvetica,sans-Serif" font-size="10.00">memory</text>
</a>
</g>
</g>
<!-- Node1&#45;&gt;Node10 -->
<g id="edge15_Node000001_Node000010" class="edge">
<title>Node1&#45;&gt;Node10</title>
<g id="a_edge15_Node000001_Node000010"><a xlink:title=" ">
<path fill="none" stroke="#63b8ff" d="M228.8,-219.88C249.71,-213.16 275.5,-201.88 292.78,-184 304.81,-171.57 311.55,-152.81 315.14,-138.9"/>
<polygon fill="#63b8ff" stroke="#63b8ff" points="318.59,-139.53 317.39,-129 311.76,-137.98 318.59,-139.53"/>
</a>
</g>
</g>
<!-- Node11 -->
<g id="Node000011" class="node">
<title>Node11</title>
<g id="a_Node000011"><a xlink:href="storage_8h.html" target="_top" xlink:title=" ">
<polygon fill="white" stroke="#666666" points="283.78,-184 221.78,-184 221.78,-165 283.78,-165 283.78,-184"/>
<text text-anchor="middle" x="252.78" y="-172" font-family="Helvetica,sans-Serif" font-size="10.00">storage.h</text>
</a>
</g>
</g>
<!-- Node1&#45;&gt;Node11 -->
<g id="edge16_Node000001_Node000011" class="edge">
<title>Node1&#45;&gt;Node11</title>
<g id="a_edge16_Node000001_Node000011"><a xlink:title=" ">
<path fill="none" stroke="#63b8ff" d="M203.26,-219.98C211.99,-212.15 225.13,-200.34 235.68,-190.86"/>
<polygon fill="#63b8ff" stroke="#63b8ff" points="238.03,-193.46 243.13,-184.17 233.35,-188.25 238.03,-193.46"/>
</a>
</g>
</g>
<!-- Node2&#45;&gt;Node3 -->
<g id="edge2_Node000002_Node000003" class="edge">
<title>Node2&#45;&gt;Node3</title>
<g id="a_edge2_Node000002_Node000003"><a xlink:title=" ">
<path fill="none" stroke="#63b8ff" d="M124.83,-164.75C120.72,-157.49 114.76,-146.95 109.68,-137.98"/>
<polygon fill="#63b8ff" stroke="#63b8ff" points="112.62,-136.07 104.65,-129.09 106.53,-139.52 112.62,-136.07"/>
</a>
</g>
</g>
<!-- Node5 -->
<g id="Node000005" class="node">
<title>Node5</title>
<g id="a_Node000005"><a xlink:title=" ">
<polygon fill="#e0e0e0" stroke="#999999" points="107.78,-19 63.78,-19 63.78,0 107.78,0 107.78,-19"/>
<text text-anchor="middle" x="85.78" y="-7" font-family="Helvetica,sans-Serif" font-size="10.00">string</text>
</a>
</g>
</g>
<!-- Node2&#45;&gt;Node5 -->
<g id="edge12_Node000002_Node000005" class="edge">
<title>Node2&#45;&gt;Node5</title>
<g id="a_edge12_Node000002_Node000005"><a xlink:title=" ">
<path fill="none" stroke="#63b8ff" d="M104.02,-164.89C84.79,-157.54 58.67,-145.53 39.78,-129 17.61,-109.6 11.38,-102.18 2.78,-74 0.32,-65.92 -1.55,-62.25 2.78,-55 13.89,-36.45 35.67,-25.19 54.13,-18.64"/>
<polygon fill="#63b8ff" stroke="#63b8ff" points="55.24,-21.96 63.68,-15.55 53.09,-15.3 55.24,-21.96"/>
</a>
</g>
</g>
<!-- Node2&#45;&gt;Node9 -->
<g id="edge10_Node000002_Node000009" class="edge">
<title>Node2&#45;&gt;Node9</title>
<g id="a_edge10_Node000002_Node000009"><a xlink:title=" ">
<path fill="none" stroke="#63b8ff" d="M139.75,-164.98C148.91,-157.15 162.72,-145.34 173.81,-135.86"/>
<polygon fill="#63b8ff" stroke="#63b8ff" points="176.31,-138.33 181.64,-129.17 171.77,-133.01 176.31,-138.33"/>
</a>
</g>
</g>
<!-- Node2&#45;&gt;Node10 -->
<g id="edge11_Node000002_Node000010" class="edge">
<title>Node2&#45;&gt;Node10</title>
<g id="a_edge11_Node000002_Node000010"><a xlink:title=" ">
<path fill="none" stroke="#63b8ff" d="M160.15,-164.98C192.63,-155.88 244.25,-141.4 279.73,-131.45"/>
<polygon fill="#63b8ff" stroke="#63b8ff" points="281.05,-134.72 289.74,-128.65 279.16,-127.98 281.05,-134.72"/>
</a>
</g>
</g>
<!-- Node4 -->
<g id="Node000004" class="node">
<title>Node4</title>
<g id="a_Node000004"><a xlink:title=" ">
<polygon fill="#e0e0e0" stroke="#999999" points="71.78,-74 11.78,-74 11.78,-55 71.78,-55 71.78,-74"/>
<text text-anchor="middle" x="41.78" y="-62" font-family="Helvetica,sans-Serif" font-size="10.00">iostream</text>
</a>
</g>
</g>
<!-- Node3&#45;&gt;Node4 -->
<g id="edge3_Node000003_Node000004" class="edge">
<title>Node3&#45;&gt;Node4</title>
<g id="a_edge3_Node000003_Node000004"><a xlink:title=" ">
<path fill="none" stroke="#63b8ff" d="M90.47,-109.98C81.98,-102.23 69.23,-90.58 58.9,-81.14"/>
<polygon fill="#63b8ff" stroke="#63b8ff" points="61.02,-78.33 51.27,-74.17 56.29,-83.5 61.02,-78.33"/>
</a>
</g>
</g>
<!-- Node3&#45;&gt;Node5 -->
<g id="edge4_Node000003_Node000005" class="edge">
<title>Node3&#45;&gt;Node5</title>
<g id="a_edge4_Node000003_Node000005"><a xlink:title=" ">
<path fill="none" stroke="#63b8ff" d="M98.64,-109.66C96.37,-92.17 91.27,-52.8 88.22,-29.27"/>
<polygon fill="#63b8ff" stroke="#63b8ff" points="91.66,-28.63 86.91,-19.16 84.72,-29.53 91.66,-28.63"/>
</a>
</g>
</g>
<!-- Node6 -->
<g id="Node000006" class="node">
<title>Node6</title>
<g id="a_Node000006"><a xlink:title=" ">
<polygon fill="#e0e0e0" stroke="#999999" points="253.78,-19 209.78,-19 209.78,0 253.78,0 253.78,-19"/>
<text text-anchor="middle" x="231.78" y="-7" font-family="Helvetica,sans-Serif" font-size="10.00">ctime</text>
</a>
</g>
</g>
<!-- Node3&#45;&gt;Node6 -->
<g id="edge5_Node000003_Node000006" class="edge">
<title>Node3&#45;&gt;Node6</title>
<g id="a_edge5_Node000003_Node000006"><a xlink:title=" ">
<path fill="none" stroke="#63b8ff" d="M137.82,-109.99C159.78,-103.38 186.57,-92.19 204.78,-74 217.09,-61.71 224.12,-42.93 227.9,-28.98"/>
<polygon fill="#63b8ff" stroke="#63b8ff" points="231.36,-29.59 230.28,-19.05 224.55,-27.96 231.36,-29.59"/>
</a>
</g>
</g>
<!-- Node7 -->
<g id="Node000007" class="node">
<title>Node7</title>
<g id="a_Node000007"><a xlink:href="safedate_8h.html" target="_top" xlink:title=" ">
<polygon fill="white" stroke="#666666" points="195.78,-74 127.78,-74 127.78,-55 195.78,-55 195.78,-74"/>
<text text-anchor="middle" x="161.78" y="-62" font-family="Helvetica,sans-Serif" font-size="10.00">safedate.h</text>
</a>
</g>
</g>
<!-- Node3&#45;&gt;Node7 -->
<g id="edge6_Node000003_Node000007" class="edge">
<title>Node3&#45;&gt;Node7</title>
<g id="a_edge6_Node000003_Node000007"><a xlink:title=" ">
<path fill="none" stroke="#63b8ff" d="M109.75,-109.98C118.91,-102.15 132.72,-90.34 143.81,-80.86"/>
<polygon fill="#63b8ff" stroke="#63b8ff" points="146.31,-83.33 151.64,-74.17 141.77,-78.01 146.31,-83.33"/>
</a>
</g>
</g>
<!-- Node7&#45;&gt;Node5 -->
<g id="edge9_Node000007_Node000005" class="edge">
<title>Node7&#45;&gt;Node5</title>
<g id="a_edge9_Node000007_Node000005"><a xlink:title=" ">
<path fill="none" stroke="#63b8ff" d="M149.57,-54.98C138.01,-46.92 120.41,-34.65 106.62,-25.03"/>
<polygon fill="#63b8ff" stroke="#63b8ff" points="108.42,-22.02 98.22,-19.17 104.42,-27.76 108.42,-22.02"/>
</a>
</g>
</g>
<!-- Node7&#45;&gt;Node6 -->
<g id="edge7_Node000007_Node000006" class="edge">
<title>Node7&#45;&gt;Node6</title>
<g id="a_edge7_Node000007_Node000006"><a xlink:title=" ">
<path fill="none" stroke="#63b8ff" d="M173.03,-54.98C183.58,-47 199.59,-34.88 212.23,-25.31"/>
<polygon fill="#63b8ff" stroke="#63b8ff" points="214.47,-28 220.33,-19.17 210.25,-22.42 214.47,-28"/>
</a>
</g>
</g>
<!-- Node8 -->
<g id="Node000008" class="node">
<title>Node8</title>
<g id="a_Node000008"><a xlink:title=" ">
<polygon fill="#e0e0e0" stroke="#999999" points="191.28,-19 126.28,-19 126.28,0 191.28,0 191.28,-19"/>
<text text-anchor="middle" x="158.78" y="-7" font-family="Helvetica,sans-Serif" font-size="10.00">stdexcept</text>
</a>
</g>
</g>
<!-- Node7&#45;&gt;Node8 -->
<g id="edge8_Node000007_Node000008" class="edge">
<title>Node7&#45;&gt;Node8</title>
<g id="a_edge8_Node000007_Node000008"><a xlink:title=" ">
<path fill="none" stroke="#63b8ff" d="M161.29,-54.75C160.9,-47.8 160.33,-37.85 159.84,-29.13"/>
<polygon fill="#63b8ff" stroke="#63b8ff" points="163.33,-28.88 159.27,-19.09 156.34,-29.27 163.33,-28.88"/>
</a>
</g>
</g>
<!-- Node11&#45;&gt;Node3 -->
<g id="edge17_Node000011_Node000003" class="edge">
<title>Node11&#45;&gt;Node3</title>
<g id="a_edge17_Node000011_Node000003"><a xlink:title=" ">
<path fill="none" stroke="#63b8ff" d="M228.2,-164.98C202.74,-156.16 162.74,-142.31 134.15,-132.41"/>
<polygon fill="#63b8ff" stroke="#63b8ff" points="135.15,-129.05 124.56,-129.08 132.86,-135.66 135.15,-129.05"/>
</a>
</g>
</g>
<!-- Node11&#45;&gt;Node9 -->
<g id="edge19_Node000011_Node000009" class="edge">
<title>Node11&#45;&gt;Node9</title>
<g id="a_edge19_Node000011_Node000009"><a xlink:title=" ">
<path fill="none" stroke="#63b8ff" d="M242.98,-164.98C233.97,-157.15 220.38,-145.34 209.47,-135.86"/>
<polygon fill="#63b8ff" stroke="#63b8ff" points="211.61,-133.09 201.76,-129.17 207.02,-138.37 211.61,-133.09"/>
</a>
</g>
</g>
<!-- Node11&#45;&gt;Node10 -->
<g id="edge20_Node000011_Node000010" class="edge">
<title>Node11&#45;&gt;Node10</title>
<g id="a_edge20_Node000011_Node000010"><a xlink:title=" ">
<path fill="none" stroke="#63b8ff" d="M263.39,-164.98C273.24,-157.07 288.14,-145.11 300,-135.58"/>
<polygon fill="#63b8ff" stroke="#63b8ff" points="302.38,-138.16 307.99,-129.17 298,-132.7 302.38,-138.16"/>
</a>
</g>
</g>
<!-- Node12 -->
<g id="Node000012" class="node">
<title>Node12</title>
<g id="a_Node000012"><a xlink:title=" ">
<polygon fill="#e0e0e0" stroke="#999999" points="271.78,-129 233.78,-129 233.78,-110 271.78,-110 271.78,-129"/>
<text text-anchor="middle" x="252.78" y="-117" font-family="Helvetica,sans-Serif" font-size="10.00">map</text>
</a>
</g>
</g>
<!-- Node11&#45;&gt;Node12 -->
<g id="edge18_Node000011_Node000012" class="edge">
<title>Node11&#45;&gt;Node12</title>
<g id="a_edge18_Node000011_Node000012"><a xlink:title=" ">
<path fill="none" stroke="#63b8ff" d="M252.78,-164.75C252.78,-157.8 252.78,-147.85 252.78,-139.13"/>
<polygon fill="#63b8ff" stroke="#63b8ff" points="256.28,-139.09 252.78,-129.09 249.28,-139.09 256.28,-139.09"/>
</a>
</g>
</g>
</g>
</svg>
