<?xml version="1.0" encoding="UTF-8" standalone="no"?>
<!DOCTYPE svg PUBLIC "-//W3C//DTD SVG 1.1//EN"
 "http://www.w3.org/Graphics/SVG/1.1/DTD/svg11.dtd">
<!-- Generated by graphviz version 2.43.0 (0)
 -->
<!-- Title: pharmacymanager.cpp Pages: 1 -->
<svg width="1597pt" height="368pt"
 viewBox="0.00 0.00 1596.50 368.00" xmlns="http://www.w3.org/2000/svg" xmlns:xlink="http://www.w3.org/1999/xlink">
<g id="graph0" class="graph" transform="scale(1 1) rotate(0) translate(4 364)">
<title>pharmacymanager.cpp</title>
<!-- Node1 -->
<g id="Node000001" class="node">
<title>Node1</title>
<g id="a_Node000001"><a xlink:title=" ">
<polygon fill="#999999" stroke="#666666" points="1442.5,-360 1314.5,-360 1314.5,-341 1442.5,-341 1442.5,-360"/>
<text text-anchor="middle" x="1378.5" y="-348" font-family="Helvetica,sans-Serif" font-size="10.00">pharmacymanager.cpp</text>
</a>
</g>
</g>
<!-- Node2 -->
<g id="Node000002" class="node">
<title>Node2</title>
<g id="a_Node000002"><a xlink:href="pharmacymanager_8h.html" target="_top" xlink:title=" ">
<polygon fill="white" stroke="#666666" points="540,-305 423,-305 423,-286 540,-286 540,-305"/>
<text text-anchor="middle" x="481.5" y="-293" font-family="Helvetica,sans-Serif" font-size="10.00">pharmacymanager.h</text>
</a>
</g>
</g>
<!-- Node1&#45;&gt;Node2 -->
<g id="edge1_Node000001_Node000002" class="edge">
<title>Node1&#45;&gt;Node2</title>
<g id="a_edge1_Node000001_Node000002"><a xlink:title=" ">
<path fill="none" stroke="#63b8ff" d="M1314.35,-345.71C1150.69,-336.04 718.68,-310.51 550.18,-300.56"/>
<polygon fill="#63b8ff" stroke="#63b8ff" points="550.38,-297.06 540.19,-299.97 549.96,-304.05 550.38,-297.06"/>
</a>
</g>
</g>
<!-- Node6 -->
<g id="Node000006" class="node">
<title>Node6</title>
<g id="a_Node000006"><a xlink:title=" ">
<polygon fill="#e0e0e0" stroke="#999999" points="1216.5,-74 1156.5,-74 1156.5,-55 1216.5,-55 1216.5,-74"/>
<text text-anchor="middle" x="1186.5" y="-62" font-family="Helvetica,sans-Serif" font-size="10.00">iostream</text>
</a>
</g>
</g>
<!-- Node1&#45;&gt;Node6 -->
<g id="edge48_Node000001_Node000006" class="edge">
<title>Node1&#45;&gt;Node6</title>
<g id="a_edge48_Node000001_Node000006"><a xlink:title=" ">
<path fill="none" stroke="#63b8ff" d="M1374.58,-340.88C1366.45,-322.18 1348.5,-276.36 1348.5,-236 1348.5,-236 1348.5,-236 1348.5,-173.5 1348.5,-114.96 1274.36,-86.2 1226.39,-73.72"/>
<polygon fill="#63b8ff" stroke="#63b8ff" points="1227.14,-70.3 1216.59,-71.29 1225.46,-77.09 1227.14,-70.3"/>
</a>
</g>
</g>
<!-- Node24 -->
<g id="Node000024" class="node">
<title>Node24</title>
<g id="a_Node000024"><a xlink:title=" ">
<polygon fill="#e0e0e0" stroke="#999999" points="1440.5,-305 1376.5,-305 1376.5,-286 1440.5,-286 1440.5,-305"/>
<text text-anchor="middle" x="1408.5" y="-293" font-family="Helvetica,sans-Serif" font-size="10.00">algorithm</text>
</a>
</g>
</g>
<!-- Node1&#45;&gt;Node24 -->
<g id="edge47_Node000001_Node000024" class="edge">
<title>Node1&#45;&gt;Node24</title>
<g id="a_edge47_Node000001_Node000024"><a xlink:title=" ">
<path fill="none" stroke="#63b8ff" d="M1383.45,-340.75C1387.56,-333.49 1393.53,-322.95 1398.6,-313.98"/>
<polygon fill="#63b8ff" stroke="#63b8ff" points="1401.76,-315.52 1403.64,-305.09 1395.67,-312.07 1401.76,-315.52"/>
</a>
</g>
</g>
<!-- Node25 -->
<g id="Node000025" class="node">
<title>Node25</title>
<g id="a_Node000025"><a xlink:href="tablet_8h.html" target="_top" xlink:title=" ">
<polygon fill="white" stroke="#666666" points="1320.5,-244.5 1266.5,-244.5 1266.5,-225.5 1320.5,-225.5 1320.5,-244.5"/>
<text text-anchor="middle" x="1293.5" y="-232.5" font-family="Helvetica,sans-Serif" font-size="10.00">tablet.h</text>
</a>
</g>
</g>
<!-- Node1&#45;&gt;Node25 -->
<g id="edge49_Node000001_Node000025" class="edge">
<title>Node1&#45;&gt;Node25</title>
<g id="a_edge49_Node000001_Node000025"><a xlink:title=" ">
<path fill="none" stroke="#63b8ff" d="M1368.71,-340.9C1359.3,-332.35 1345,-318.58 1334.5,-305 1322.02,-288.85 1310.4,-268.6 1302.74,-254.22"/>
<polygon fill="#63b8ff" stroke="#63b8ff" points="1305.63,-252.19 1297.91,-244.93 1299.42,-255.42 1305.63,-252.19"/>
</a>
</g>
</g>
<!-- Node26 -->
<g id="Node000026" class="node">
<title>Node26</title>
<g id="a_Node000026"><a xlink:title=" ">
<polygon fill="#e0e0e0" stroke="#999999" points="1514,-305 1459,-305 1459,-286 1514,-286 1514,-305"/>
<text text-anchor="middle" x="1486.5" y="-293" font-family="Helvetica,sans-Serif" font-size="10.00">fstream</text>
</a>
</g>
</g>
<!-- Node1&#45;&gt;Node26 -->
<g id="edge52_Node000001_Node000026" class="edge">
<title>Node1&#45;&gt;Node26</title>
<g id="a_edge52_Node000001_Node000026"><a xlink:title=" ">
<path fill="none" stroke="#63b8ff" d="M1395.85,-340.98C1413.07,-332.54 1439.7,-319.47 1459.65,-309.68"/>
<polygon fill="#63b8ff" stroke="#63b8ff" points="1461.4,-312.72 1468.83,-305.17 1458.31,-306.43 1461.4,-312.72"/>
</a>
</g>
</g>
<!-- Node27 -->
<g id="Node000027" class="node">
<title>Node27</title>
<g id="a_Node000027"><a xlink:title=" ">
<polygon fill="#e0e0e0" stroke="#999999" points="1588.5,-305 1532.5,-305 1532.5,-286 1588.5,-286 1588.5,-305"/>
<text text-anchor="middle" x="1560.5" y="-293" font-family="Helvetica,sans-Serif" font-size="10.00">sstream</text>
</a>
</g>
</g>
<!-- Node1&#45;&gt;Node27 -->
<g id="edge53_Node000001_Node000027" class="edge">
<title>Node1&#45;&gt;Node27</title>
<g id="a_edge53_Node000001_Node000027"><a xlink:title=" ">
<path fill="none" stroke="#63b8ff" d="M1407.74,-340.98C1438.93,-331.9 1488.44,-317.49 1522.59,-307.54"/>
<polygon fill="#63b8ff" stroke="#63b8ff" points="1523.61,-310.89 1532.23,-304.73 1521.65,-304.17 1523.61,-310.89"/>
</a>
</g>
</g>
<!-- Node3 -->
<g id="Node000003" class="node">
<title>Node3</title>
<g id="a_Node000003"><a xlink:href="pharmacy_8h.html" target="_top" xlink:title=" ">
<polygon fill="white" stroke="#666666" points="453,-244.5 380,-244.5 380,-225.5 453,-225.5 453,-244.5"/>
<text text-anchor="middle" x="416.5" y="-232.5" font-family="Helvetica,sans-Serif" font-size="10.00">pharmacy.h</text>
</a>
</g>
</g>
<!-- Node2&#45;&gt;Node3 -->
<g id="edge2_Node000002_Node000003" class="edge">
<title>Node2&#45;&gt;Node3</title>
<g id="a_edge2_Node000002_Node000003"><a xlink:title=" ">
<path fill="none" stroke="#63b8ff" d="M471.91,-285.87C461.92,-276.88 446.07,-262.61 433.87,-251.64"/>
<polygon fill="#63b8ff" stroke="#63b8ff" points="435.9,-248.76 426.13,-244.67 431.22,-253.96 435.9,-248.76"/>
</a>
</g>
</g>
<!-- Node4 -->
<g id="Node000004" class="node">
<title>Node4</title>
<g id="a_Node000004"><a xlink:href="medicine_8h.html" target="_top" xlink:title=" ">
<polygon fill="white" stroke="#666666" points="452,-184 381,-184 381,-165 452,-165 452,-184"/>
<text text-anchor="middle" x="416.5" y="-172" font-family="Helvetica,sans-Serif" font-size="10.00">medicine.h</text>
</a>
</g>
</g>
<!-- Node2&#45;&gt;Node4 -->
<g id="edge24_Node000002_Node000004" class="edge">
<title>Node2&#45;&gt;Node4</title>
<g id="a_edge24_Node000002_Node000004"><a xlink:title=" ">
<path fill="none" stroke="#63b8ff" d="M480.81,-285.65C479.35,-271.07 474.96,-241.47 462.5,-220 455.92,-208.67 445.65,-198.34 436.47,-190.48"/>
<polygon fill="#63b8ff" stroke="#63b8ff" points="438.47,-187.6 428.5,-184.02 434.06,-193.03 438.47,-187.6"/>
</a>
</g>
</g>
<!-- Node5 -->
<g id="Node000005" class="node">
<title>Node5</title>
<g id="a_Node000005"><a xlink:href="medicalproduct_8h.html" target="_top" xlink:title=" ">
<polygon fill="white" stroke="#666666" points="320,-129 219,-129 219,-110 320,-110 320,-129"/>
<text text-anchor="middle" x="269.5" y="-117" font-family="Helvetica,sans-Serif" font-size="10.00">medicalproduct.h</text>
</a>
</g>
</g>
<!-- Node2&#45;&gt;Node5 -->
<g id="edge23_Node000002_Node000005" class="edge">
<title>Node2&#45;&gt;Node5</title>
<g id="a_edge23_Node000002_Node000005"><a xlink:title=" ">
<path fill="none" stroke="#63b8ff" d="M434.35,-285.96C408.45,-279.45 376.92,-268.36 353.5,-250 314.79,-219.65 288.41,-166.25 276.57,-138.45"/>
<polygon fill="#63b8ff" stroke="#63b8ff" points="279.79,-137.08 272.76,-129.15 273.32,-139.73 279.79,-137.08"/>
</a>
</g>
</g>
<!-- Node7 -->
<g id="Node000007" class="node">
<title>Node7</title>
<g id="a_Node000007"><a xlink:title=" ">
<polygon fill="#e0e0e0" stroke="#999999" points="390.5,-19 346.5,-19 346.5,0 390.5,0 390.5,-19"/>
<text text-anchor="middle" x="368.5" y="-7" font-family="Helvetica,sans-Serif" font-size="10.00">string</text>
</a>
</g>
</g>
<!-- Node2&#45;&gt;Node7 -->
<g id="edge46_Node000002_Node000007" class="edge">
<title>Node2&#45;&gt;Node7</title>
<g id="a_edge46_Node000002_Node000007"><a xlink:title=" ">
<path fill="none" stroke="#63b8ff" d="M531.96,-285.95C589.14,-273.03 674.5,-242.52 674.5,-175.5 674.5,-175.5 674.5,-175.5 674.5,-118.5 674.5,-60.93 479.45,-26.44 400.8,-14.88"/>
<polygon fill="#63b8ff" stroke="#63b8ff" points="400.9,-11.36 390.51,-13.4 399.91,-18.29 400.9,-11.36"/>
</a>
</g>
</g>
<!-- Node11 -->
<g id="Node000011" class="node">
<title>Node11</title>
<g id="a_Node000011"><a xlink:title=" ">
<polygon fill="#e0e0e0" stroke="#999999" points="541,-129 494,-129 494,-110 541,-110 541,-129"/>
<text text-anchor="middle" x="517.5" y="-117" font-family="Helvetica,sans-Serif" font-size="10.00">vector</text>
</a>
</g>
</g>
<!-- Node2&#45;&gt;Node11 -->
<g id="edge45_Node000002_Node000011" class="edge">
<title>Node2&#45;&gt;Node11</title>
<g id="a_edge45_Node000002_Node000011"><a xlink:title=" ">
<path fill="none" stroke="#63b8ff" d="M490.36,-285.79C507.36,-268.35 544.1,-227.14 557.5,-184 560.01,-175.94 560.52,-172.88 557.5,-165 553.26,-153.94 544.86,-143.91 536.86,-136.18"/>
<polygon fill="#63b8ff" stroke="#63b8ff" points="538.92,-133.33 529.14,-129.27 534.25,-138.55 538.92,-133.33"/>
</a>
</g>
</g>
<!-- Node12 -->
<g id="Node000012" class="node">
<title>Node12</title>
<g id="a_Node000012"><a xlink:title=" ">
<polygon fill="#e0e0e0" stroke="#999999" points="396.5,-129 338.5,-129 338.5,-110 396.5,-110 396.5,-129"/>
<text text-anchor="middle" x="367.5" y="-117" font-family="Helvetica,sans-Serif" font-size="10.00">memory</text>
</a>
</g>
</g>
<!-- Node2&#45;&gt;Node12 -->
<g id="edge43_Node000002_Node000012" class="edge">
<title>Node2&#45;&gt;Node12</title>
<g id="a_edge43_Node000002_Node000012"><a xlink:title=" ">
<path fill="none" stroke="#63b8ff" d="M431.67,-285.97C409.92,-279.68 386.11,-268.78 371.5,-250 346.5,-217.85 354.86,-166.4 361.9,-139.03"/>
<polygon fill="#63b8ff" stroke="#63b8ff" points="365.33,-139.78 364.64,-129.2 358.58,-137.9 365.33,-139.78"/>
</a>
</g>
</g>
<!-- Node14 -->
<g id="Node000014" class="node">
<title>Node14</title>
<g id="a_Node000014"><a xlink:title=" ">
<polygon fill="#e0e0e0" stroke="#999999" points="614.5,-129 576.5,-129 576.5,-110 614.5,-110 614.5,-129"/>
<text text-anchor="middle" x="595.5" y="-117" font-family="Helvetica,sans-Serif" font-size="10.00">map</text>
</a>
</g>
</g>
<!-- Node2&#45;&gt;Node14 -->
<g id="edge44_Node000002_Node000014" class="edge">
<title>Node2&#45;&gt;Node14</title>
<g id="a_edge44_Node000002_Node000014"><a xlink:title=" ">
<path fill="none" stroke="#63b8ff" d="M498.47,-285.97C512.43,-278.23 531.89,-265.64 544.5,-250 571.7,-216.26 585.82,-166.22 591.84,-139.29"/>
<polygon fill="#63b8ff" stroke="#63b8ff" points="595.31,-139.78 593.94,-129.28 588.46,-138.35 595.31,-139.78"/>
</a>
</g>
</g>
<!-- Node15 -->
<g id="Node000015" class="node">
<title>Node15</title>
<g id="a_Node000015"><a xlink:href="inventoryoperation_8h.html" target="_top" xlink:title=" ">
<polygon fill="white" stroke="#666666" points="210,-184 91,-184 91,-165 210,-165 210,-184"/>
<text text-anchor="middle" x="150.5" y="-172" font-family="Helvetica,sans-Serif" font-size="10.00">inventoryoperation.h</text>
</a>
</g>
</g>
<!-- Node2&#45;&gt;Node15 -->
<g id="edge25_Node000002_Node000015" class="edge">
<title>Node2&#45;&gt;Node15</title>
<g id="a_edge25_Node000002_Node000015"><a xlink:title=" ">
<path fill="none" stroke="#63b8ff" d="M422.79,-292.33C346.88,-288.44 220.07,-277.86 183.5,-250 165.78,-236.5 157.37,-211.41 153.53,-194.1"/>
<polygon fill="#63b8ff" stroke="#63b8ff" points="156.92,-193.22 151.61,-184.05 150.04,-194.53 156.92,-193.22"/>
</a>
</g>
</g>
<!-- Node16 -->
<g id="Node000016" class="node">
<title>Node16</title>
<g id="a_Node000016"><a xlink:href="supply_8h.html" target="_top" xlink:title=" ">
<polygon fill="white" stroke="#666666" points="248.5,-244.5 192.5,-244.5 192.5,-225.5 248.5,-225.5 248.5,-244.5"/>
<text text-anchor="middle" x="220.5" y="-232.5" font-family="Helvetica,sans-Serif" font-size="10.00">supply.h</text>
</a>
</g>
</g>
<!-- Node2&#45;&gt;Node16 -->
<g id="edge29_Node000002_Node000016" class="edge">
<title>Node2&#45;&gt;Node16</title>
<g id="a_edge29_Node000002_Node000016"><a xlink:title=" ">
<path fill="none" stroke="#63b8ff" d="M430.64,-285.97C386,-278.06 319.47,-265.22 262.5,-250 259.72,-249.26 256.85,-248.43 253.97,-247.56"/>
<polygon fill="#63b8ff" stroke="#63b8ff" points="254.93,-244.19 244.34,-244.5 252.81,-250.86 254.93,-244.19"/>
</a>
</g>
</g>
<!-- Node17 -->
<g id="Node000017" class="node">
<title>Node17</title>
<g id="a_Node000017"><a xlink:href="return_8h.html" target="_top" xlink:title=" ">
<polygon fill="white" stroke="#666666" points="55,-244.5 0,-244.5 0,-225.5 55,-225.5 55,-244.5"/>
<text text-anchor="middle" x="27.5" y="-232.5" font-family="Helvetica,sans-Serif" font-size="10.00">return.h</text>
</a>
</g>
</g>
<!-- Node2&#45;&gt;Node17 -->
<g id="edge31_Node000002_Node000017" class="edge">
<title>Node2&#45;&gt;Node17</title>
<g id="a_edge31_Node000002_Node000017"><a xlink:title=" ">
<path fill="none" stroke="#63b8ff" d="M422.85,-293.13C341.22,-290.13 189.2,-280.56 63.5,-250 61.14,-249.43 58.72,-248.73 56.31,-247.97"/>
<polygon fill="#63b8ff" stroke="#63b8ff" points="57.22,-244.58 46.63,-244.52 54.88,-251.17 57.22,-244.58"/>
</a>
</g>
</g>
<!-- Node18 -->
<g id="Node000018" class="node">
<title>Node18</title>
<g id="a_Node000018"><a xlink:href="writeoff_8h.html" target="_top" xlink:title=" ">
<polygon fill="white" stroke="#666666" points="136,-244.5 73,-244.5 73,-225.5 136,-225.5 136,-244.5"/>
<text text-anchor="middle" x="104.5" y="-232.5" font-family="Helvetica,sans-Serif" font-size="10.00">writeoff.h</text>
</a>
</g>
</g>
<!-- Node2&#45;&gt;Node18 -->
<g id="edge33_Node000002_Node000018" class="edge">
<title>Node2&#45;&gt;Node18</title>
<g id="a_edge33_Node000002_Node000018"><a xlink:title=" ">
<path fill="none" stroke="#63b8ff" d="M422.71,-289.49C356.14,-283.16 244.69,-270.52 150.5,-250 147.05,-249.25 143.49,-248.36 139.94,-247.41"/>
<polygon fill="#63b8ff" stroke="#63b8ff" points="140.67,-243.98 130.1,-244.59 138.75,-250.71 140.67,-243.98"/>
</a>
</g>
</g>
<!-- Node19 -->
<g id="Node000019" class="node">
<title>Node19</title>
<g id="a_Node000019"><a xlink:href="InvalidProductDataException_8h.html" target="_top" xlink:title=" ">
<polygon fill="white" stroke="#666666" points="1060.5,-250 890.5,-250 890.5,-220 1060.5,-220 1060.5,-250"/>
<text text-anchor="start" x="898.5" y="-238" font-family="Helvetica,sans-Serif" font-size="10.00">Exception/PharmacyExceptions</text>
<text text-anchor="middle" x="975.5" y="-227" font-family="Helvetica,sans-Serif" font-size="10.00">/InvalidProductDataException.h</text>
</a>
</g>
</g>
<!-- Node2&#45;&gt;Node19 -->
<g id="edge35_Node000002_Node000019" class="edge">
<title>Node2&#45;&gt;Node19</title>
<g id="a_edge35_Node000002_Node000019"><a xlink:title=" ">
<path fill="none" stroke="#63b8ff" d="M540.21,-288.66C616.27,-280.93 753.24,-266.5 880.54,-250.1"/>
<polygon fill="#63b8ff" stroke="#63b8ff" points="881,-253.56 890.47,-248.81 880.1,-246.62 881,-253.56"/>
</a>
</g>
</g>
<!-- Node22 -->
<g id="Node000022" class="node">
<title>Node22</title>
<g id="a_Node000022"><a xlink:href="ProductNotFoundException_8h.html" target="_top" xlink:title=" ">
<polygon fill="white" stroke="#666666" points="1248.5,-250 1078.5,-250 1078.5,-220 1248.5,-220 1248.5,-250"/>
<text text-anchor="start" x="1086.5" y="-238" font-family="Helvetica,sans-Serif" font-size="10.00">Exception/PharmacyExceptions</text>
<text text-anchor="middle" x="1163.5" y="-227" font-family="Helvetica,sans-Serif" font-size="10.00">/ProductNotFoundException.h</text>
</a>
</g>
</g>
<!-- Node2&#45;&gt;Node22 -->
<g id="edge39_Node000002_Node000022" class="edge">
<title>Node2&#45;&gt;Node22</title>
<g id="a_edge39_Node000002_Node000022"><a xlink:title=" ">
<path fill="none" stroke="#63b8ff" d="M540.05,-291.47C644.18,-285.79 868.59,-272.14 1068.38,-250.07"/>
<polygon fill="#63b8ff" stroke="#63b8ff" points="1068.93,-253.53 1078.48,-248.94 1068.16,-246.57 1068.93,-253.53"/>
</a>
</g>
</g>
<!-- Node23 -->
<g id="Node000023" class="node">
<title>Node23</title>
<g id="a_Node000023"><a xlink:href="DuplicateProductException_8h.html" target="_top" xlink:title=" ">
<polygon fill="white" stroke="#666666" points="872.5,-250 702.5,-250 702.5,-220 872.5,-220 872.5,-250"/>
<text text-anchor="start" x="710.5" y="-238" font-family="Helvetica,sans-Serif" font-size="10.00">Exception/PharmacyExceptions</text>
<text text-anchor="middle" x="787.5" y="-227" font-family="Helvetica,sans-Serif" font-size="10.00">/DuplicateProductException.h</text>
</a>
</g>
</g>
<!-- Node2&#45;&gt;Node23 -->
<g id="edge41_Node000002_Node000023" class="edge">
<title>Node2&#45;&gt;Node23</title>
<g id="a_edge41_Node000002_Node000023"><a xlink:title=" ">
<path fill="none" stroke="#63b8ff" d="M526,-285.99C572.52,-277.1 646.61,-262.94 704.07,-251.95"/>
<polygon fill="#63b8ff" stroke="#63b8ff" points="705.06,-255.32 714.23,-250.01 703.75,-248.45 705.06,-255.32"/>
</a>
</g>
</g>
<!-- Node3&#45;&gt;Node4 -->
<g id="edge3_Node000003_Node000004" class="edge">
<title>Node3&#45;&gt;Node4</title>
<g id="a_edge3_Node000003_Node000004"><a xlink:title=" ">
<path fill="none" stroke="#63b8ff" d="M416.5,-225.37C416.5,-217.25 416.5,-204.81 416.5,-194.39"/>
<polygon fill="#63b8ff" stroke="#63b8ff" points="420,-194.17 416.5,-184.17 413,-194.17 420,-194.17"/>
</a>
</g>
</g>
<!-- Node3&#45;&gt;Node5 -->
<g id="edge15_Node000003_Node000005" class="edge">
<title>Node3&#45;&gt;Node5</title>
<g id="a_edge15_Node000003_Node000005"><a xlink:title=" ">
<path fill="none" stroke="#63b8ff" d="M405.45,-225.47C380.55,-206.24 319.79,-159.33 288.63,-135.27"/>
<polygon fill="#63b8ff" stroke="#63b8ff" points="290.73,-132.47 280.68,-129.13 286.45,-138.01 290.73,-132.47"/>
</a>
</g>
</g>
<!-- Node3&#45;&gt;Node11 -->
<g id="edge16_Node000003_Node000011" class="edge">
<title>Node3&#45;&gt;Node11</title>
<g id="a_edge16_Node000003_Node000011"><a xlink:title=" ">
<path fill="none" stroke="#63b8ff" d="M453.23,-230.26C482.57,-225.13 521.91,-212.93 541.5,-184 551.26,-169.59 541.77,-150.68 532,-137.25"/>
<polygon fill="#63b8ff" stroke="#63b8ff" points="534.68,-135 525.73,-129.32 529.19,-139.34 534.68,-135"/>
</a>
</g>
</g>
<!-- Node3&#45;&gt;Node12 -->
<g id="edge17_Node000003_Node000012" class="edge">
<title>Node3&#45;&gt;Node12</title>
<g id="a_edge17_Node000003_Node000012"><a xlink:title=" ">
<path fill="none" stroke="#63b8ff" d="M405.62,-225.37C395.09,-216.31 379.71,-201.04 372.5,-184 366.5,-169.82 365.55,-152.28 365.93,-139.23"/>
<polygon fill="#63b8ff" stroke="#63b8ff" points="369.43,-139.3 366.51,-129.12 362.44,-138.9 369.43,-139.3"/>
</a>
</g>
</g>
<!-- Node13 -->
<g id="Node000013" class="node">
<title>Node13</title>
<g id="a_Node000013"><a xlink:href="storage_8h.html" target="_top" xlink:title=" ">
<polygon fill="white" stroke="#666666" points="532.5,-184 470.5,-184 470.5,-165 532.5,-165 532.5,-184"/>
<text text-anchor="middle" x="501.5" y="-172" font-family="Helvetica,sans-Serif" font-size="10.00">storage.h</text>
</a>
</g>
</g>
<!-- Node3&#45;&gt;Node13 -->
<g id="edge18_Node000003_Node000013" class="edge">
<title>Node3&#45;&gt;Node13</title>
<g id="a_edge18_Node000003_Node000013"><a xlink:title=" ">
<path fill="none" stroke="#63b8ff" d="M429.04,-225.37C442.6,-216.04 464.44,-201.01 480.6,-189.88"/>
<polygon fill="#63b8ff" stroke="#63b8ff" points="482.65,-192.72 488.91,-184.17 478.68,-186.95 482.65,-192.72"/>
</a>
</g>
</g>
<!-- Node4&#45;&gt;Node5 -->
<g id="edge4_Node000004_Node000005" class="edge">
<title>Node4&#45;&gt;Node5</title>
<g id="a_edge4_Node000004_Node000005"><a xlink:title=" ">
<path fill="none" stroke="#63b8ff" d="M392.88,-164.98C368.6,-156.23 330.55,-142.51 303.13,-132.62"/>
<polygon fill="#63b8ff" stroke="#63b8ff" points="304.14,-129.27 293.55,-129.17 301.77,-135.85 304.14,-129.27"/>
</a>
</g>
</g>
<!-- Node4&#45;&gt;Node7 -->
<g id="edge14_Node000004_Node000007" class="edge">
<title>Node4&#45;&gt;Node7</title>
<g id="a_edge14_Node000004_Node000007"><a xlink:title=" ">
<path fill="none" stroke="#63b8ff" d="M415.5,-164.76C413.98,-152.42 410.69,-129.23 405.5,-110 397.6,-80.74 384.58,-48.01 376.28,-28.35"/>
<polygon fill="#63b8ff" stroke="#63b8ff" points="379.48,-26.92 372.32,-19.11 373.04,-29.68 379.48,-26.92"/>
</a>
</g>
</g>
<!-- Node4&#45;&gt;Node11 -->
<g id="edge12_Node000004_Node000011" class="edge">
<title>Node4&#45;&gt;Node11</title>
<g id="a_edge12_Node000004_Node000011"><a xlink:title=" ">
<path fill="none" stroke="#63b8ff" d="M432.73,-164.98C448.68,-156.61 473.28,-143.7 491.88,-133.95"/>
<polygon fill="#63b8ff" stroke="#63b8ff" points="493.75,-136.92 500.98,-129.17 490.5,-130.72 493.75,-136.92"/>
</a>
</g>
</g>
<!-- Node4&#45;&gt;Node12 -->
<g id="edge13_Node000004_Node000012" class="edge">
<title>Node4&#45;&gt;Node12</title>
<g id="a_edge13_Node000004_Node000012"><a xlink:title=" ">
<path fill="none" stroke="#63b8ff" d="M408.41,-164.75C401.34,-157.11 390.91,-145.82 382.35,-136.56"/>
<polygon fill="#63b8ff" stroke="#63b8ff" points="384.8,-134.06 375.44,-129.09 379.66,-138.81 384.8,-134.06"/>
</a>
</g>
</g>
<!-- Node5&#45;&gt;Node6 -->
<g id="edge5_Node000005_Node000006" class="edge">
<title>Node5&#45;&gt;Node6</title>
<g id="a_edge5_Node000005_Node000006"><a xlink:title=" ">
<path fill="none" stroke="#63b8ff" d="M320.2,-110.99C323.34,-110.63 326.46,-110.29 329.5,-110 643.27,-79.69 1023.79,-69.08 1146.39,-66.32"/>
<polygon fill="#63b8ff" stroke="#63b8ff" points="1146.53,-69.81 1156.45,-66.09 1146.37,-62.82 1146.53,-69.81"/>
</a>
</g>
</g>
<!-- Node5&#45;&gt;Node7 -->
<g id="edge6_Node000005_Node000007" class="edge">
<title>Node5&#45;&gt;Node7</title>
<g id="a_edge6_Node000005_Node000007"><a xlink:title=" ">
<path fill="none" stroke="#63b8ff" d="M277.6,-109.66C294.22,-91.54 332.37,-49.91 353.59,-26.77"/>
<polygon fill="#63b8ff" stroke="#63b8ff" points="356.39,-28.89 360.56,-19.16 351.23,-24.16 356.39,-28.89"/>
</a>
</g>
</g>
<!-- Node8 -->
<g id="Node000008" class="node">
<title>Node8</title>
<g id="a_Node000008"><a xlink:title=" ">
<polygon fill="#e0e0e0" stroke="#999999" points="309.5,-19 265.5,-19 265.5,0 309.5,0 309.5,-19"/>
<text text-anchor="middle" x="287.5" y="-7" font-family="Helvetica,sans-Serif" font-size="10.00">ctime</text>
</a>
</g>
</g>
<!-- Node5&#45;&gt;Node8 -->
<g id="edge7_Node000005_Node000008" class="edge">
<title>Node5&#45;&gt;Node8</title>
<g id="a_edge7_Node000005_Node000008"><a xlink:title=" ">
<path fill="none" stroke="#63b8ff" d="M270.97,-109.66C273.89,-92.17 280.45,-52.8 284.37,-29.27"/>
<polygon fill="#63b8ff" stroke="#63b8ff" points="287.87,-29.6 286.06,-19.16 280.96,-28.45 287.87,-29.6"/>
</a>
</g>
</g>
<!-- Node9 -->
<g id="Node000009" class="node">
<title>Node9</title>
<g id="a_Node000009"><a xlink:href="safedate_8h.html" target="_top" xlink:title=" ">
<polygon fill="white" stroke="#666666" points="259.5,-74 191.5,-74 191.5,-55 259.5,-55 259.5,-74"/>
<text text-anchor="middle" x="225.5" y="-62" font-family="Helvetica,sans-Serif" font-size="10.00">safedate.h</text>
</a>
</g>
</g>
<!-- Node5&#45;&gt;Node9 -->
<g id="edge8_Node000005_Node000009" class="edge">
<title>Node5&#45;&gt;Node9</title>
<g id="a_edge8_Node000005_Node000009"><a xlink:title=" ">
<path fill="none" stroke="#63b8ff" d="M262.23,-109.75C255.96,-102.18 246.71,-91.05 239.07,-81.84"/>
<polygon fill="#63b8ff" stroke="#63b8ff" points="241.71,-79.55 232.63,-74.09 236.33,-84.02 241.71,-79.55"/>
</a>
</g>
</g>
<!-- Node9&#45;&gt;Node7 -->
<g id="edge11_Node000009_Node000007" class="edge">
<title>Node9&#45;&gt;Node7</title>
<g id="a_edge11_Node000009_Node000007"><a xlink:title=" ">
<path fill="none" stroke="#63b8ff" d="M248.48,-54.98C272.28,-46.16 309.66,-32.31 336.39,-22.4"/>
<polygon fill="#63b8ff" stroke="#63b8ff" points="337.89,-25.58 346.05,-18.82 335.46,-19.01 337.89,-25.58"/>
</a>
</g>
</g>
<!-- Node9&#45;&gt;Node8 -->
<g id="edge9_Node000009_Node000008" class="edge">
<title>Node9&#45;&gt;Node8</title>
<g id="a_edge9_Node000009_Node000008"><a xlink:title=" ">
<path fill="none" stroke="#63b8ff" d="M235.46,-54.98C244.63,-47.15 258.44,-35.34 269.53,-25.86"/>
<polygon fill="#63b8ff" stroke="#63b8ff" points="272.03,-28.33 277.36,-19.17 267.48,-23.01 272.03,-28.33"/>
</a>
</g>
</g>
<!-- Node10 -->
<g id="Node000010" class="node">
<title>Node10</title>
<g id="a_Node000010"><a xlink:title=" ">
<polygon fill="#e0e0e0" stroke="#999999" points="247,-19 182,-19 182,0 247,0 247,-19"/>
<text text-anchor="middle" x="214.5" y="-7" font-family="Helvetica,sans-Serif" font-size="10.00">stdexcept</text>
</a>
</g>
</g>
<!-- Node9&#45;&gt;Node10 -->
<g id="edge10_Node000009_Node000010" class="edge">
<title>Node9&#45;&gt;Node10</title>
<g id="a_edge10_Node000009_Node000010"><a xlink:title=" ">
<path fill="none" stroke="#63b8ff" d="M223.68,-54.75C222.24,-47.8 220.18,-37.85 218.37,-29.13"/>
<polygon fill="#63b8ff" stroke="#63b8ff" points="221.74,-28.17 216.28,-19.09 214.89,-29.59 221.74,-28.17"/>
</a>
</g>
</g>
<!-- Node13&#45;&gt;Node5 -->
<g id="edge19_Node000013_Node000005" class="edge">
<title>Node13&#45;&gt;Node5</title>
<g id="a_edge19_Node000013_Node000005"><a xlink:title=" ">
<path fill="none" stroke="#63b8ff" d="M470.21,-166.35C430.77,-157.34 362.6,-141.77 316.79,-131.3"/>
<polygon fill="#63b8ff" stroke="#63b8ff" points="317.33,-127.84 306.8,-129.02 315.77,-134.66 317.33,-127.84"/>
</a>
</g>
</g>
<!-- Node13&#45;&gt;Node11 -->
<g id="edge21_Node000013_Node000011" class="edge">
<title>Node13&#45;&gt;Node11</title>
<g id="a_edge21_Node000013_Node000011"><a xlink:title=" ">
<path fill="none" stroke="#63b8ff" d="M504.14,-164.75C506.26,-157.72 509.31,-147.62 511.96,-138.84"/>
<polygon fill="#63b8ff" stroke="#63b8ff" points="515.37,-139.67 514.91,-129.09 508.67,-137.65 515.37,-139.67"/>
</a>
</g>
</g>
<!-- Node13&#45;&gt;Node12 -->
<g id="edge22_Node000013_Node000012" class="edge">
<title>Node13&#45;&gt;Node12</title>
<g id="a_edge22_Node000013_Node000012"><a xlink:title=" ">
<path fill="none" stroke="#63b8ff" d="M479.97,-164.98C458.03,-156.3 423.76,-142.75 398.81,-132.88"/>
<polygon fill="#63b8ff" stroke="#63b8ff" points="400.01,-129.59 389.42,-129.17 397.43,-136.1 400.01,-129.59"/>
</a>
</g>
</g>
<!-- Node13&#45;&gt;Node14 -->
<g id="edge20_Node000013_Node000014" class="edge">
<title>Node13&#45;&gt;Node14</title>
<g id="a_edge20_Node000013_Node000014"><a xlink:title=" ">
<path fill="none" stroke="#63b8ff" d="M516.6,-164.98C531.32,-156.69 553.92,-143.94 571.17,-134.22"/>
<polygon fill="#63b8ff" stroke="#63b8ff" points="573.13,-137.13 580.12,-129.17 569.69,-131.03 573.13,-137.13"/>
</a>
</g>
</g>
<!-- Node15&#45;&gt;Node5 -->
<g id="edge26_Node000015_Node000005" class="edge">
<title>Node15&#45;&gt;Node5</title>
<g id="a_edge26_Node000015_Node000005"><a xlink:title=" ">
<path fill="none" stroke="#63b8ff" d="M169.62,-164.98C188.85,-156.42 218.73,-143.11 240.81,-133.28"/>
<polygon fill="#63b8ff" stroke="#63b8ff" points="242.32,-136.44 250.03,-129.17 239.47,-130.04 242.32,-136.44"/>
</a>
</g>
</g>
<!-- Node15&#45;&gt;Node9 -->
<g id="edge27_Node000015_Node000009" class="edge">
<title>Node15&#45;&gt;Node9</title>
<g id="a_edge27_Node000015_Node000009"><a xlink:title=" ">
<path fill="none" stroke="#63b8ff" d="M156.64,-164.66C169.12,-146.69 197.62,-105.64 213.78,-82.38"/>
<polygon fill="#63b8ff" stroke="#63b8ff" points="216.66,-84.37 219.49,-74.16 210.91,-80.38 216.66,-84.37"/>
</a>
</g>
</g>
<!-- Node15&#45;&gt;Node12 -->
<g id="edge28_Node000015_Node000012" class="edge">
<title>Node15&#45;&gt;Node12</title>
<g id="a_edge28_Node000015_Node000012"><a xlink:title=" ">
<path fill="none" stroke="#63b8ff" d="M185.36,-164.98C224.46,-155.44 287.71,-139.99 328.45,-130.04"/>
<polygon fill="#63b8ff" stroke="#63b8ff" points="329.4,-133.41 338.29,-127.63 327.74,-126.61 329.4,-133.41"/>
</a>
</g>
</g>
<!-- Node16&#45;&gt;Node15 -->
<g id="edge30_Node000016_Node000015" class="edge">
<title>Node16&#45;&gt;Node15</title>
<g id="a_edge30_Node000016_Node000015"><a xlink:title=" ">
<path fill="none" stroke="#63b8ff" d="M210.17,-225.37C199.31,-216.3 182.01,-201.84 168.83,-190.82"/>
<polygon fill="#63b8ff" stroke="#63b8ff" points="170.79,-187.89 160.87,-184.17 166.3,-193.27 170.79,-187.89"/>
</a>
</g>
</g>
<!-- Node17&#45;&gt;Node15 -->
<g id="edge32_Node000017_Node000015" class="edge">
<title>Node17&#45;&gt;Node15</title>
<g id="a_edge32_Node000017_Node000015"><a xlink:title=" ">
<path fill="none" stroke="#63b8ff" d="M45.39,-225.49C65.88,-215.75 99.69,-199.66 123.42,-188.38"/>
<polygon fill="#63b8ff" stroke="#63b8ff" points="125.07,-191.47 132.59,-184.02 122.06,-185.15 125.07,-191.47"/>
</a>
</g>
</g>
<!-- Node18&#45;&gt;Node15 -->
<g id="edge34_Node000018_Node000015" class="edge">
<title>Node18&#45;&gt;Node15</title>
<g id="a_edge34_Node000018_Node000015"><a xlink:title=" ">
<path fill="none" stroke="#63b8ff" d="M111.29,-225.37C118.15,-216.64 128.93,-202.93 137.45,-192.09"/>
<polygon fill="#63b8ff" stroke="#63b8ff" points="140.25,-194.19 143.68,-184.17 134.75,-189.86 140.25,-194.19"/>
</a>
</g>
</g>
<!-- Node20 -->
<g id="Node000020" class="node">
<title>Node20</title>
<g id="a_Node000020"><a xlink:href="MedicalProductException_8h.html" target="_top" xlink:title=" ">
<polygon fill="white" stroke="#666666" points="1104,-184 955,-184 955,-165 1104,-165 1104,-184"/>
<text text-anchor="middle" x="1029.5" y="-172" font-family="Helvetica,sans-Serif" font-size="10.00">MedicalProductException.h</text>
</a>
</g>
</g>
<!-- Node19&#45;&gt;Node20 -->
<g id="edge36_Node000019_Node000020" class="edge">
<title>Node19&#45;&gt;Node20</title>
<g id="a_edge36_Node000019_Node000020"><a xlink:title=" ">
<path fill="none" stroke="#63b8ff" d="M988.57,-219.84C996.41,-211.35 1006.41,-200.52 1014.56,-191.69"/>
<polygon fill="#63b8ff" stroke="#63b8ff" points="1017.2,-193.99 1021.41,-184.27 1012.05,-189.24 1017.2,-193.99"/>
</a>
</g>
</g>
<!-- Node21 -->
<g id="Node000021" class="node">
<title>Node21</title>
<g id="a_Node000021"><a xlink:href="PharmacyException_8h.html" target="_top" xlink:title=" ">
<polygon fill="white" stroke="#666666" points="1142.5,-129 1020.5,-129 1020.5,-110 1142.5,-110 1142.5,-129"/>
<text text-anchor="middle" x="1081.5" y="-117" font-family="Helvetica,sans-Serif" font-size="10.00">PharmacyException.h</text>
</a>
</g>
</g>
<!-- Node20&#45;&gt;Node21 -->
<g id="edge37_Node000020_Node000021" class="edge">
<title>Node20&#45;&gt;Node21</title>
<g id="a_edge37_Node000020_Node000021"><a xlink:title=" ">
<path fill="none" stroke="#63b8ff" d="M1038.09,-164.75C1045.66,-157.03 1056.88,-145.6 1066.01,-136.28"/>
<polygon fill="#63b8ff" stroke="#63b8ff" points="1068.57,-138.68 1073.07,-129.09 1063.57,-133.78 1068.57,-138.68"/>
</a>
</g>
</g>
<!-- Node21&#45;&gt;Node6 -->
<g id="edge38_Node000021_Node000006" class="edge">
<title>Node21&#45;&gt;Node6</title>
<g id="a_edge38_Node000021_Node000006"><a xlink:title=" ">
<path fill="none" stroke="#63b8ff" d="M1098.37,-109.98C1115.11,-101.54 1141,-88.47 1160.39,-78.68"/>
<polygon fill="#63b8ff" stroke="#63b8ff" points="1161.97,-81.8 1169.32,-74.17 1158.82,-75.55 1161.97,-81.8"/>
</a>
</g>
</g>
<!-- Node22&#45;&gt;Node20 -->
<g id="edge40_Node000022_Node000020" class="edge">
<title>Node22&#45;&gt;Node20</title>
<g id="a_edge40_Node000022_Node000020"><a xlink:title=" ">
<path fill="none" stroke="#63b8ff" d="M1131.4,-219.99C1109.25,-210.31 1080.02,-197.56 1058.55,-188.18"/>
<polygon fill="#63b8ff" stroke="#63b8ff" points="1059.85,-184.93 1049.29,-184.14 1057.05,-191.35 1059.85,-184.93"/>
</a>
</g>
</g>
<!-- Node23&#45;&gt;Node20 -->
<g id="edge42_Node000023_Node000020" class="edge">
<title>Node23&#45;&gt;Node20</title>
<g id="a_edge42_Node000023_Node000020"><a xlink:title=" ">
<path fill="none" stroke="#63b8ff" d="M845.47,-219.99C888.04,-209.7 945.07,-195.91 984.3,-186.43"/>
<polygon fill="#63b8ff" stroke="#63b8ff" points="985.22,-189.81 994.12,-184.05 983.57,-183 985.22,-189.81"/>
</a>
</g>
</g>
<!-- Node25&#45;&gt;Node4 -->
<g id="edge50_Node000025_Node000004" class="edge">
<title>Node25&#45;&gt;Node4</title>
<g id="a_edge50_Node000025_Node000004"><a xlink:title=" ">
<path fill="none" stroke="#63b8ff" d="M1274.8,-225.4C1269.33,-223.25 1263.27,-221.22 1257.5,-220 914.21,-147.53 815.1,-223.53 462.27,-183.88"/>
<polygon fill="#63b8ff" stroke="#63b8ff" points="462.63,-180.4 452.29,-182.73 461.83,-187.35 462.63,-180.4"/>
</a>
</g>
</g>
<!-- Node25&#45;&gt;Node6 -->
<g id="edge51_Node000025_Node000006" class="edge">
<title>Node25&#45;&gt;Node6</title>
<g id="a_edge51_Node000025_Node000006"><a xlink:title=" ">
<path fill="none" stroke="#63b8ff" d="M1288.05,-225.41C1271.31,-199.05 1220.43,-118.93 1197.69,-83.12"/>
<polygon fill="#63b8ff" stroke="#63b8ff" points="1200.39,-80.84 1192.07,-74.27 1194.48,-84.59 1200.39,-80.84"/>
</a>
</g>
</g>
</g>
</svg>
