<?xml version="1.0" encoding="UTF-8" standalone="no"?>
<!DOCTYPE svg PUBLIC "-//W3C//DTD SVG 1.1//EN"
 "http://www.w3.org/Graphics/SVG/1.1/DTD/svg11.dtd">
<!-- Generated by graphviz version 2.43.0 (0)
 -->
<!-- Title: return.cpp Pages: 1 -->
<svg width="1000pt" height="401pt"
 viewBox="0.00 0.00 999.50 401.00" xmlns="http://www.w3.org/2000/svg" xmlns:xlink="http://www.w3.org/1999/xlink">
<g id="graph0" class="graph" transform="scale(1 1) rotate(0) translate(4 397)">
<title>return.cpp</title>
<!-- Node1 -->
<g id="Node000001" class="node">
<title>Node1</title>
<g id="a_Node000001"><a xlink:title=" ">
<polygon fill="#999999" stroke="#666666" points="823.5,-393 757.5,-393 757.5,-374 823.5,-374 823.5,-393"/>
<text text-anchor="middle" x="790.5" y="-381" font-family="Helvetica,sans-Serif" font-size="10.00">return.cpp</text>
</a>
</g>
</g>
<!-- Node2 -->
<g id="Node000002" class="node">
<title>Node2</title>
<g id="a_Node000002"><a xlink:href="return_8h.html" target="_top" xlink:title=" ">
<polygon fill="white" stroke="#666666" points="818,-338 763,-338 763,-319 818,-319 818,-338"/>
<text text-anchor="middle" x="790.5" y="-326" font-family="Helvetica,sans-Serif" font-size="10.00">return.h</text>
</a>
</g>
</g>
<!-- Node1&#45;&gt;Node2 -->
<g id="edge1_Node000001_Node000002" class="edge">
<title>Node1&#45;&gt;Node2</title>
<g id="a_edge1_Node000001_Node000002"><a xlink:title=" ">
<path fill="none" stroke="#63b8ff" d="M790.5,-373.75C790.5,-366.8 790.5,-356.85 790.5,-348.13"/>
<polygon fill="#63b8ff" stroke="#63b8ff" points="794,-348.09 790.5,-338.09 787,-348.09 794,-348.09"/>
</a>
</g>
</g>
<!-- Node9 -->
<g id="Node000009" class="node">
<title>Node9</title>
<g id="a_Node000009"><a xlink:title=" ">
<polygon fill="#e0e0e0" stroke="#999999" points="930,-79.5 865,-79.5 865,-60.5 930,-60.5 930,-79.5"/>
<text text-anchor="middle" x="897.5" y="-67.5" font-family="Helvetica,sans-Serif" font-size="10.00">stdexcept</text>
</a>
</g>
</g>
<!-- Node1&#45;&gt;Node9 -->
<g id="edge28_Node000001_Node000009" class="edge">
<title>Node1&#45;&gt;Node9</title>
<g id="a_edge28_Node000001_Node000009"><a xlink:title=" ">
<path fill="none" stroke="#63b8ff" d="M810.88,-373.99C844.4,-358.48 907.5,-322.2 907.5,-269 907.5,-269 907.5,-269 907.5,-201 907.5,-161.15 902.77,-114.63 899.82,-89.46"/>
<polygon fill="#63b8ff" stroke="#63b8ff" points="903.29,-89.01 898.61,-79.5 896.34,-89.85 903.29,-89.01"/>
</a>
</g>
</g>
<!-- Node11 -->
<g id="Node000011" class="node">
<title>Node11</title>
<g id="a_Node000011"><a xlink:href="InventoryException_8h.html" target="_top" xlink:title=" ">
<polygon fill="white" stroke="#666666" points="167,-151 0,-151 0,-121 167,-121 167,-151"/>
<text text-anchor="start" x="8" y="-139" font-family="Helvetica,sans-Serif" font-size="10.00">Exception/InventoryExceptions</text>
<text text-anchor="middle" x="83.5" y="-128" font-family="Helvetica,sans-Serif" font-size="10.00">/InventoryException.h</text>
</a>
</g>
</g>
<!-- Node1&#45;&gt;Node11 -->
<g id="edge13_Node000001_Node000011" class="edge">
<title>Node1&#45;&gt;Node11</title>
<g id="a_edge13_Node000001_Node000011"><a xlink:title=" ">
<path fill="none" stroke="#63b8ff" d="M757.44,-382.11C637.16,-380.03 225.01,-366.79 130.5,-283 95.23,-251.74 86.27,-193.91 84.09,-161.2"/>
<polygon fill="#63b8ff" stroke="#63b8ff" points="87.58,-160.96 83.58,-151.15 80.59,-161.31 87.58,-160.96"/>
</a>
</g>
</g>
<!-- Node13 -->
<g id="Node000013" class="node">
<title>Node13</title>
<g id="a_Node000013"><a xlink:href="safeinput_8h.html" target="_top" xlink:title=" ">
<polygon fill="white" stroke="#666666" points="545.5,-338 423.5,-338 423.5,-319 545.5,-319 545.5,-338"/>
<text text-anchor="middle" x="484.5" y="-326" font-family="Helvetica,sans-Serif" font-size="10.00">Exception/safeinput.h</text>
</a>
</g>
</g>
<!-- Node1&#45;&gt;Node13 -->
<g id="edge16_Node000001_Node000013" class="edge">
<title>Node1&#45;&gt;Node13</title>
<g id="a_edge16_Node000001_Node000013"><a xlink:title=" ">
<path fill="none" stroke="#63b8ff" d="M757.46,-376.78C706.34,-367.92 607.33,-350.77 543.66,-339.75"/>
<polygon fill="#63b8ff" stroke="#63b8ff" points="544.2,-336.29 533.75,-338.03 543.01,-343.19 544.2,-336.29"/>
</a>
</g>
</g>
<!-- Node19 -->
<g id="Node000019" class="node">
<title>Node19</title>
<g id="a_Node000019"><a xlink:title=" ">
<polygon fill="#e0e0e0" stroke="#999999" points="991.5,-338 935.5,-338 935.5,-319 991.5,-319 991.5,-338"/>
<text text-anchor="middle" x="963.5" y="-326" font-family="Helvetica,sans-Serif" font-size="10.00">sstream</text>
</a>
</g>
</g>
<!-- Node1&#45;&gt;Node19 -->
<g id="edge27_Node000001_Node000019" class="edge">
<title>Node1&#45;&gt;Node19</title>
<g id="a_edge27_Node000001_Node000019"><a xlink:title=" ">
<path fill="none" stroke="#63b8ff" d="M818.3,-373.98C847.47,-365.05 893.5,-350.94 925.9,-341.02"/>
<polygon fill="#63b8ff" stroke="#63b8ff" points="926.95,-344.36 935.49,-338.08 924.9,-337.66 926.95,-344.36"/>
</a>
</g>
</g>
<!-- Node3 -->
<g id="Node000003" class="node">
<title>Node3</title>
<g id="a_Node000003"><a xlink:href="inventoryoperation_8h.html" target="_top" xlink:title=" ">
<polygon fill="white" stroke="#666666" points="850,-277.5 731,-277.5 731,-258.5 850,-258.5 850,-277.5"/>
<text text-anchor="middle" x="790.5" y="-265.5" font-family="Helvetica,sans-Serif" font-size="10.00">inventoryoperation.h</text>
</a>
</g>
</g>
<!-- Node2&#45;&gt;Node3 -->
<g id="edge2_Node000002_Node000003" class="edge">
<title>Node2&#45;&gt;Node3</title>
<g id="a_edge2_Node000002_Node000003"><a xlink:title=" ">
<path fill="none" stroke="#63b8ff" d="M790.5,-318.87C790.5,-310.75 790.5,-298.31 790.5,-287.89"/>
<polygon fill="#63b8ff" stroke="#63b8ff" points="794,-287.67 790.5,-277.67 787,-287.67 794,-287.67"/>
</a>
</g>
</g>
<!-- Node4 -->
<g id="Node000004" class="node">
<title>Node4</title>
<g id="a_Node000004"><a xlink:href="medicalproduct_8h.html" target="_top" xlink:title=" ">
<polygon fill="white" stroke="#666666" points="841,-211.5 740,-211.5 740,-192.5 841,-192.5 841,-211.5"/>
<text text-anchor="middle" x="790.5" y="-199.5" font-family="Helvetica,sans-Serif" font-size="10.00">medicalproduct.h</text>
</a>
</g>
</g>
<!-- Node3&#45;&gt;Node4 -->
<g id="edge3_Node000003_Node000004" class="edge">
<title>Node3&#45;&gt;Node4</title>
<g id="a_edge3_Node000003_Node000004"><a xlink:title=" ">
<path fill="none" stroke="#63b8ff" d="M790.5,-258.37C790.5,-249.16 790.5,-234.29 790.5,-222.27"/>
<polygon fill="#63b8ff" stroke="#63b8ff" points="794,-221.91 790.5,-211.91 787,-221.91 794,-221.91"/>
</a>
</g>
</g>
<!-- Node8 -->
<g id="Node000008" class="node">
<title>Node8</title>
<g id="a_Node000008"><a xlink:href="safedate_8h.html" target="_top" xlink:title=" ">
<polygon fill="white" stroke="#666666" points="879.5,-145.5 811.5,-145.5 811.5,-126.5 879.5,-126.5 879.5,-145.5"/>
<text text-anchor="middle" x="845.5" y="-133.5" font-family="Helvetica,sans-Serif" font-size="10.00">safedate.h</text>
</a>
</g>
</g>
<!-- Node3&#45;&gt;Node8 -->
<g id="edge11_Node000003_Node000008" class="edge">
<title>Node3&#45;&gt;Node8</title>
<g id="a_edge11_Node000003_Node000008"><a xlink:title=" ">
<path fill="none" stroke="#63b8ff" d="M807.55,-258.35C821.99,-249.98 841.7,-235.79 850.5,-217 859.6,-197.57 855.92,-172.51 851.56,-155.67"/>
<polygon fill="#63b8ff" stroke="#63b8ff" points="854.88,-154.54 848.72,-145.92 848.16,-156.5 854.88,-154.54"/>
</a>
</g>
</g>
<!-- Node10 -->
<g id="Node000010" class="node">
<title>Node10</title>
<g id="a_Node000010"><a xlink:title=" ">
<polygon fill="#e0e0e0" stroke="#999999" points="721.5,-211.5 663.5,-211.5 663.5,-192.5 721.5,-192.5 721.5,-211.5"/>
<text text-anchor="middle" x="692.5" y="-199.5" font-family="Helvetica,sans-Serif" font-size="10.00">memory</text>
</a>
</g>
</g>
<!-- Node3&#45;&gt;Node10 -->
<g id="edge12_Node000003_Node000010" class="edge">
<title>Node3&#45;&gt;Node10</title>
<g id="a_edge12_Node000003_Node000010"><a xlink:title=" ">
<path fill="none" stroke="#63b8ff" d="M777.28,-258.37C761.14,-247.82 733.59,-229.84 714.29,-217.23"/>
<polygon fill="#63b8ff" stroke="#63b8ff" points="716.11,-214.24 705.82,-211.7 712.28,-220.1 716.11,-214.24"/>
</a>
</g>
</g>
<!-- Node5 -->
<g id="Node000005" class="node">
<title>Node5</title>
<g id="a_Node000005"><a xlink:title=" ">
<polygon fill="#e0e0e0" stroke="#999999" points="627.5,-19 567.5,-19 567.5,0 627.5,0 627.5,-19"/>
<text text-anchor="middle" x="597.5" y="-7" font-family="Helvetica,sans-Serif" font-size="10.00">iostream</text>
</a>
</g>
</g>
<!-- Node4&#45;&gt;Node5 -->
<g id="edge4_Node000004_Node000005" class="edge">
<title>Node4&#45;&gt;Node5</title>
<g id="a_edge4_Node000004_Node000005"><a xlink:title=" ">
<path fill="none" stroke="#63b8ff" d="M789.18,-192.37C784.92,-167.4 769.23,-94.4 726.5,-55 701.99,-32.4 665.45,-21.2 637.51,-15.7"/>
<polygon fill="#63b8ff" stroke="#63b8ff" points="638.1,-12.25 627.64,-13.91 636.86,-19.14 638.1,-12.25"/>
</a>
</g>
</g>
<!-- Node6 -->
<g id="Node000006" class="node">
<title>Node6</title>
<g id="a_Node000006"><a xlink:title=" ">
<polygon fill="#e0e0e0" stroke="#999999" points="717.5,-79.5 673.5,-79.5 673.5,-60.5 717.5,-60.5 717.5,-79.5"/>
<text text-anchor="middle" x="695.5" y="-67.5" font-family="Helvetica,sans-Serif" font-size="10.00">string</text>
</a>
</g>
</g>
<!-- Node4&#45;&gt;Node6 -->
<g id="edge5_Node000004_Node000006" class="edge">
<title>Node4&#45;&gt;Node6</title>
<g id="a_edge5_Node000004_Node000006"><a xlink:title=" ">
<path fill="none" stroke="#63b8ff" d="M777.28,-192.42C764.24,-183.4 744.42,-168.16 731.5,-151 717.22,-132.04 706.99,-106.51 701.16,-89.44"/>
<polygon fill="#63b8ff" stroke="#63b8ff" points="704.39,-88.04 697.97,-79.6 697.73,-90.19 704.39,-88.04"/>
</a>
</g>
</g>
<!-- Node7 -->
<g id="Node000007" class="node">
<title>Node7</title>
<g id="a_Node000007"><a xlink:title=" ">
<polygon fill="#e0e0e0" stroke="#999999" points="836.5,-79.5 792.5,-79.5 792.5,-60.5 836.5,-60.5 836.5,-79.5"/>
<text text-anchor="middle" x="814.5" y="-67.5" font-family="Helvetica,sans-Serif" font-size="10.00">ctime</text>
</a>
</g>
</g>
<!-- Node4&#45;&gt;Node7 -->
<g id="edge6_Node000004_Node000007" class="edge">
<title>Node4&#45;&gt;Node7</title>
<g id="a_edge6_Node000004_Node000007"><a xlink:title=" ">
<path fill="none" stroke="#63b8ff" d="M791.58,-192.08C793.44,-177.25 797.51,-146.64 802.5,-121 804.53,-110.55 807.28,-98.97 809.63,-89.6"/>
<polygon fill="#63b8ff" stroke="#63b8ff" points="813.05,-90.36 812.14,-79.8 806.27,-88.62 813.05,-90.36"/>
</a>
</g>
</g>
<!-- Node4&#45;&gt;Node8 -->
<g id="edge7_Node000004_Node000008" class="edge">
<title>Node4&#45;&gt;Node8</title>
<g id="a_edge7_Node000004_Node000008"><a xlink:title=" ">
<path fill="none" stroke="#63b8ff" d="M797.92,-192.37C806.4,-182.5 820.48,-166.11 831.13,-153.72"/>
<polygon fill="#63b8ff" stroke="#63b8ff" points="833.98,-155.77 837.85,-145.91 828.67,-151.21 833.98,-155.77"/>
</a>
</g>
</g>
<!-- Node8&#45;&gt;Node6 -->
<g id="edge10_Node000008_Node000006" class="edge">
<title>Node8&#45;&gt;Node6</title>
<g id="a_edge10_Node000008_Node000006"><a xlink:title=" ">
<path fill="none" stroke="#63b8ff" d="M825.27,-126.37C799.55,-115.39 754.93,-96.36 725.31,-83.72"/>
<polygon fill="#63b8ff" stroke="#63b8ff" points="726.46,-80.4 715.89,-79.7 723.71,-86.84 726.46,-80.4"/>
</a>
</g>
</g>
<!-- Node8&#45;&gt;Node7 -->
<g id="edge8_Node000008_Node000007" class="edge">
<title>Node8&#45;&gt;Node7</title>
<g id="a_edge8_Node000008_Node000007"><a xlink:title=" ">
<path fill="none" stroke="#63b8ff" d="M841.32,-126.37C836.72,-116.88 829.21,-101.36 823.3,-89.16"/>
<polygon fill="#63b8ff" stroke="#63b8ff" points="826.32,-87.38 818.81,-79.91 820.02,-90.43 826.32,-87.38"/>
</a>
</g>
</g>
<!-- Node8&#45;&gt;Node9 -->
<g id="edge9_Node000008_Node000009" class="edge">
<title>Node8&#45;&gt;Node9</title>
<g id="a_edge9_Node000008_Node000009"><a xlink:title=" ">
<path fill="none" stroke="#63b8ff" d="M852.51,-126.37C860.53,-116.5 873.85,-100.11 883.92,-87.72"/>
<polygon fill="#63b8ff" stroke="#63b8ff" points="886.67,-89.87 890.26,-79.91 881.24,-85.46 886.67,-89.87"/>
</a>
</g>
</g>
<!-- Node12 -->
<g id="Node000012" class="node">
<title>Node12</title>
<g id="a_Node000012"><a xlink:href="PharmacyException_8h.html" target="_top" xlink:title=" ">
<polygon fill="white" stroke="#666666" points="344.5,-85 174.5,-85 174.5,-55 344.5,-55 344.5,-85"/>
<text text-anchor="start" x="182.5" y="-73" font-family="Helvetica,sans-Serif" font-size="10.00">Exception/PharmacyExceptions</text>
<text text-anchor="middle" x="259.5" y="-62" font-family="Helvetica,sans-Serif" font-size="10.00">/PharmacyException.h</text>
</a>
</g>
</g>
<!-- Node11&#45;&gt;Node12 -->
<g id="edge14_Node000011_Node000012" class="edge">
<title>Node11&#45;&gt;Node12</title>
<g id="a_edge14_Node000011_Node000012"><a xlink:title=" ">
<path fill="none" stroke="#63b8ff" d="M122.12,-120.95C148.37,-111.41 183.29,-98.71 211.35,-88.51"/>
<polygon fill="#63b8ff" stroke="#63b8ff" points="212.76,-91.72 220.97,-85.01 210.37,-85.14 212.76,-91.72"/>
</a>
</g>
</g>
<!-- Node12&#45;&gt;Node5 -->
<g id="edge15_Node000012_Node000005" class="edge">
<title>Node12&#45;&gt;Node5</title>
<g id="a_edge15_Node000012_Node000005"><a xlink:title=" ">
<path fill="none" stroke="#63b8ff" d="M340.46,-54.99C408.94,-43.14 504.17,-26.65 557.4,-17.44"/>
<polygon fill="#63b8ff" stroke="#63b8ff" points="558.21,-20.85 567.47,-15.7 557.01,-13.96 558.21,-20.85"/>
</a>
</g>
</g>
<!-- Node13&#45;&gt;Node5 -->
<g id="edge17_Node000013_Node000005" class="edge">
<title>Node13&#45;&gt;Node5</title>
<g id="a_edge17_Node000013_Node000005"><a xlink:title=" ">
<path fill="none" stroke="#63b8ff" d="M520.12,-318.87C540.08,-312.26 563.84,-301.1 578.5,-283 601.5,-254.6 597.5,-239.54 597.5,-203 597.5,-203 597.5,-203 597.5,-135 597.5,-97.49 597.5,-53.63 597.5,-29.26"/>
<polygon fill="#63b8ff" stroke="#63b8ff" points="601,-29.25 597.5,-19.25 594,-29.25 601,-29.25"/>
</a>
</g>
</g>
<!-- Node13&#45;&gt;Node6 -->
<g id="edge18_Node000013_Node000006" class="edge">
<title>Node13&#45;&gt;Node6</title>
<g id="a_edge18_Node000013_Node000006"><a xlink:title=" ">
<path fill="none" stroke="#63b8ff" d="M539.37,-318.97C564.05,-312.67 591.96,-301.77 611.5,-283 626.33,-268.75 672.43,-137.97 689.26,-89.21"/>
<polygon fill="#63b8ff" stroke="#63b8ff" points="692.61,-90.24 692.55,-79.64 685.99,-87.96 692.61,-90.24"/>
</a>
</g>
</g>
<!-- Node14 -->
<g id="Node000014" class="node">
<title>Node14</title>
<g id="a_Node000014"><a xlink:title=" ">
<polygon fill="#e0e0e0" stroke="#999999" points="381.5,-277.5 337.5,-277.5 337.5,-258.5 381.5,-258.5 381.5,-277.5"/>
<text text-anchor="middle" x="359.5" y="-265.5" font-family="Helvetica,sans-Serif" font-size="10.00">limits</text>
</a>
</g>
</g>
<!-- Node13&#45;&gt;Node14 -->
<g id="edge19_Node000013_Node000014" class="edge">
<title>Node13&#45;&gt;Node14</title>
<g id="a_edge19_Node000013_Node000014"><a xlink:title=" ">
<path fill="none" stroke="#63b8ff" d="M466.32,-318.99C445.49,-309.25 411.13,-293.16 387.02,-281.88"/>
<polygon fill="#63b8ff" stroke="#63b8ff" points="388.24,-278.59 377.7,-277.52 385.27,-284.93 388.24,-278.59"/>
</a>
</g>
</g>
<!-- Node15 -->
<g id="Node000015" class="node">
<title>Node15</title>
<g id="a_Node000015"><a xlink:href="InvalidProductDataException_8h.html" target="_top" xlink:title=" ">
<polygon fill="white" stroke="#666666" points="331.5,-217 161.5,-217 161.5,-187 331.5,-187 331.5,-217"/>
<text text-anchor="start" x="169.5" y="-205" font-family="Helvetica,sans-Serif" font-size="10.00">Exception/PharmacyExceptions</text>
<text text-anchor="middle" x="246.5" y="-194" font-family="Helvetica,sans-Serif" font-size="10.00">/InvalidProductDataException.h</text>
</a>
</g>
</g>
<!-- Node13&#45;&gt;Node15 -->
<g id="edge20_Node000013_Node000015" class="edge">
<title>Node13&#45;&gt;Node15</title>
<g id="a_edge20_Node000013_Node000015"><a xlink:title=" ">
<path fill="none" stroke="#63b8ff" d="M423.28,-323.91C329.42,-317.77 158.84,-303.86 140.5,-283 118.35,-257.8 155.62,-235.41 191.92,-220.77"/>
<polygon fill="#63b8ff" stroke="#63b8ff" points="193.52,-223.9 201.59,-217.03 191,-217.37 193.52,-223.9"/>
</a>
</g>
</g>
<!-- Node17 -->
<g id="Node000017" class="node">
<title>Node17</title>
<g id="a_Node000017"><a xlink:href="InvalidPriceException_8h.html" target="_top" xlink:title=" ">
<polygon fill="white" stroke="#666666" points="569.5,-283 399.5,-283 399.5,-253 569.5,-253 569.5,-283"/>
<text text-anchor="start" x="407.5" y="-271" font-family="Helvetica,sans-Serif" font-size="10.00">Exception/PharmacyExceptions</text>
<text text-anchor="middle" x="484.5" y="-260" font-family="Helvetica,sans-Serif" font-size="10.00">/InvalidPriceException.h</text>
</a>
</g>
</g>
<!-- Node13&#45;&gt;Node17 -->
<g id="edge23_Node000013_Node000017" class="edge">
<title>Node13&#45;&gt;Node17</title>
<g id="a_edge23_Node000013_Node000017"><a xlink:title=" ">
<path fill="none" stroke="#63b8ff" d="M484.5,-318.87C484.5,-312.11 484.5,-302.35 484.5,-293.26"/>
<polygon fill="#63b8ff" stroke="#63b8ff" points="488,-293.11 484.5,-283.11 481,-293.11 488,-293.11"/>
</a>
</g>
</g>
<!-- Node18 -->
<g id="Node000018" class="node">
<title>Node18</title>
<g id="a_Node000018"><a xlink:href="InvalidProductIdException_8h.html" target="_top" xlink:title=" ">
<polygon fill="white" stroke="#666666" points="319.5,-283 149.5,-283 149.5,-253 319.5,-253 319.5,-283"/>
<text text-anchor="start" x="157.5" y="-271" font-family="Helvetica,sans-Serif" font-size="10.00">Exception/PharmacyExceptions</text>
<text text-anchor="middle" x="234.5" y="-260" font-family="Helvetica,sans-Serif" font-size="10.00">/InvalidProductIdException.h</text>
</a>
</g>
</g>
<!-- Node13&#45;&gt;Node18 -->
<g id="edge25_Node000013_Node000018" class="edge">
<title>Node13&#45;&gt;Node18</title>
<g id="a_edge25_Node000013_Node000018"><a xlink:title=" ">
<path fill="none" stroke="#63b8ff" d="M448.15,-318.99C410.6,-310.21 351.06,-296.27 304.36,-285.35"/>
<polygon fill="#63b8ff" stroke="#63b8ff" points="305.14,-281.93 294.6,-283.06 303.54,-288.75 305.14,-281.93"/>
</a>
</g>
</g>
<!-- Node16 -->
<g id="Node000016" class="node">
<title>Node16</title>
<g id="a_Node000016"><a xlink:href="MedicalProductException_8h.html" target="_top" xlink:title=" ">
<polygon fill="white" stroke="#666666" points="334,-145.5 185,-145.5 185,-126.5 334,-126.5 334,-145.5"/>
<text text-anchor="middle" x="259.5" y="-133.5" font-family="Helvetica,sans-Serif" font-size="10.00">MedicalProductException.h</text>
</a>
</g>
</g>
<!-- Node15&#45;&gt;Node16 -->
<g id="edge21_Node000015_Node000016" class="edge">
<title>Node15&#45;&gt;Node16</title>
<g id="a_edge21_Node000015_Node000016"><a xlink:title=" ">
<path fill="none" stroke="#63b8ff" d="M249.39,-186.8C251.23,-177.7 253.65,-165.79 255.66,-155.9"/>
<polygon fill="#63b8ff" stroke="#63b8ff" points="259.14,-156.34 257.7,-145.84 252.28,-154.95 259.14,-156.34"/>
</a>
</g>
</g>
<!-- Node16&#45;&gt;Node12 -->
<g id="edge22_Node000016_Node000012" class="edge">
<title>Node16&#45;&gt;Node12</title>
<g id="a_edge22_Node000016_Node000012"><a xlink:title=" ">
<path fill="none" stroke="#63b8ff" d="M259.5,-126.37C259.5,-118.49 259.5,-106.45 259.5,-95.6"/>
<polygon fill="#63b8ff" stroke="#63b8ff" points="263,-95.36 259.5,-85.36 256,-95.36 263,-95.36"/>
</a>
</g>
</g>
<!-- Node17&#45;&gt;Node15 -->
<g id="edge24_Node000017_Node000015" class="edge">
<title>Node17&#45;&gt;Node15</title>
<g id="a_edge24_Node000017_Node000015"><a xlink:title=" ">
<path fill="none" stroke="#63b8ff" d="M432.27,-252.95C395.84,-243.16 347.07,-230.05 308.65,-219.71"/>
<polygon fill="#63b8ff" stroke="#63b8ff" points="309.17,-216.23 298.61,-217.01 307.36,-222.99 309.17,-216.23"/>
</a>
</g>
</g>
<!-- Node18&#45;&gt;Node15 -->
<g id="edge26_Node000018_Node000015" class="edge">
<title>Node18&#45;&gt;Node15</title>
<g id="a_edge26_Node000018_Node000015"><a xlink:title=" ">
<path fill="none" stroke="#63b8ff" d="M237.16,-252.8C238.58,-245.26 240.35,-235.78 241.98,-227.13"/>
<polygon fill="#63b8ff" stroke="#63b8ff" points="245.44,-227.64 243.84,-217.16 238.56,-226.35 245.44,-227.64"/>
</a>
</g>
</g>
</g>
</svg>
