<?xml version="1.0" encoding="UTF-8" standalone="no"?>
<!DOCTYPE svg PUBLIC "-//W3C//DTD SVG 1.1//EN"
 "http://www.w3.org/Graphics/SVG/1.1/DTD/svg11.dtd">
<!-- Generated by graphviz version 2.43.0 (0)
 -->
<!-- Title: Exception/safeinput.cpp Pages: 1 -->
<svg width="557pt" height="379pt"
 viewBox="0.00 0.00 557.29 379.00" xmlns="http://www.w3.org/2000/svg" xmlns:xlink="http://www.w3.org/1999/xlink">
<g id="graph0" class="graph" transform="scale(1 1) rotate(0) translate(4 375)">
<title>Exception/safeinput.cpp</title>
<!-- Node1 -->
<g id="Node000001" class="node">
<title>Node1</title>
<g id="a_Node000001"><a xlink:title=" ">
<polygon fill="#999999" stroke="#666666" points="248.29,-371 114.29,-371 114.29,-352 248.29,-352 248.29,-371"/>
<text text-anchor="middle" x="181.29" y="-359" font-family="Helvetica,sans-Serif" font-size="10.00">Exception/safeinput.cpp</text>
</a>
</g>
</g>
<!-- Node2 -->
<g id="Node000002" class="node">
<title>Node2</title>
<g id="a_Node000002"><a xlink:href="safeinput_8h.html" target="_top" xlink:title=" ">
<polygon fill="white" stroke="#666666" points="173.79,-316 102.79,-316 102.79,-297 173.79,-297 173.79,-316"/>
<text text-anchor="middle" x="138.29" y="-304" font-family="Helvetica,sans-Serif" font-size="10.00">safeinput.h</text>
</a>
</g>
</g>
<!-- Node1&#45;&gt;Node2 -->
<g id="edge1_Node000001_Node000002" class="edge">
<title>Node1&#45;&gt;Node2</title>
<g id="a_edge1_Node000001_Node000002"><a xlink:title=" ">
<path fill="none" stroke="#63b8ff" d="M174.19,-351.75C168.11,-344.26 159.2,-333.28 151.78,-324.13"/>
<polygon fill="#63b8ff" stroke="#63b8ff" points="154.27,-321.65 145.25,-316.09 148.84,-326.06 154.27,-321.65"/>
</a>
</g>
</g>
<!-- Node11 -->
<g id="Node000011" class="node">
<title>Node11</title>
<g id="a_Node000011"><a xlink:title=" ">
<polygon fill="#e0e0e0" stroke="#999999" points="256.29,-316 192.29,-316 192.29,-297 256.29,-297 256.29,-316"/>
<text text-anchor="middle" x="224.29" y="-304" font-family="Helvetica,sans-Serif" font-size="10.00">algorithm</text>
</a>
</g>
</g>
<!-- Node1&#45;&gt;Node11 -->
<g id="edge13_Node000001_Node000011" class="edge">
<title>Node1&#45;&gt;Node11</title>
<g id="a_edge13_Node000001_Node000011"><a xlink:title=" ">
<path fill="none" stroke="#63b8ff" d="M188.39,-351.75C194.46,-344.26 203.37,-333.28 210.8,-324.13"/>
<polygon fill="#63b8ff" stroke="#63b8ff" points="213.73,-326.06 217.32,-316.09 208.3,-321.65 213.73,-326.06"/>
</a>
</g>
</g>
<!-- Node3 -->
<g id="Node000003" class="node">
<title>Node3</title>
<g id="a_Node000003"><a xlink:title=" ">
<polygon fill="#e0e0e0" stroke="#999999" points="75.29,-19 15.29,-19 15.29,0 75.29,0 75.29,-19"/>
<text text-anchor="middle" x="45.29" y="-7" font-family="Helvetica,sans-Serif" font-size="10.00">iostream</text>
</a>
</g>
</g>
<!-- Node2&#45;&gt;Node3 -->
<g id="edge2_Node000002_Node000003" class="edge">
<title>Node2&#45;&gt;Node3</title>
<g id="a_edge2_Node000002_Node000003"><a xlink:title=" ">
<path fill="none" stroke="#63b8ff" d="M102.53,-301.04C76.09,-295.87 41.19,-284.75 20.29,-261 -3.86,-233.57 1.29,-217.54 1.29,-181 1.29,-181 1.29,-181 1.29,-118.5 1.29,-84.42 20.31,-48.46 33.34,-27.83"/>
<polygon fill="#63b8ff" stroke="#63b8ff" points="36.41,-29.53 38.98,-19.25 30.56,-25.68 36.41,-29.53"/>
</a>
</g>
</g>
<!-- Node4 -->
<g id="Node000004" class="node">
<title>Node4</title>
<g id="a_Node000004"><a xlink:title=" ">
<polygon fill="#e0e0e0" stroke="#999999" points="73.29,-255.5 29.29,-255.5 29.29,-236.5 73.29,-236.5 73.29,-255.5"/>
<text text-anchor="middle" x="51.29" y="-243.5" font-family="Helvetica,sans-Serif" font-size="10.00">string</text>
</a>
</g>
</g>
<!-- Node2&#45;&gt;Node4 -->
<g id="edge3_Node000002_Node000004" class="edge">
<title>Node2&#45;&gt;Node4</title>
<g id="a_edge3_Node000002_Node000004"><a xlink:title=" ">
<path fill="none" stroke="#63b8ff" d="M125.45,-296.87C111.57,-287.54 89.22,-272.51 72.68,-261.38"/>
<polygon fill="#63b8ff" stroke="#63b8ff" points="74.43,-258.34 64.18,-255.67 70.52,-264.15 74.43,-258.34"/>
</a>
</g>
</g>
<!-- Node5 -->
<g id="Node000005" class="node">
<title>Node5</title>
<g id="a_Node000005"><a xlink:title=" ">
<polygon fill="#e0e0e0" stroke="#999999" points="135.29,-255.5 91.29,-255.5 91.29,-236.5 135.29,-236.5 135.29,-255.5"/>
<text text-anchor="middle" x="113.29" y="-243.5" font-family="Helvetica,sans-Serif" font-size="10.00">limits</text>
</a>
</g>
</g>
<!-- Node2&#45;&gt;Node5 -->
<g id="edge4_Node000002_Node000005" class="edge">
<title>Node2&#45;&gt;Node5</title>
<g id="a_edge4_Node000002_Node000005"><a xlink:title=" ">
<path fill="none" stroke="#63b8ff" d="M134.6,-296.87C131.01,-288.49 125.47,-275.51 120.93,-264.89"/>
<polygon fill="#63b8ff" stroke="#63b8ff" points="124.14,-263.49 116.99,-255.67 117.7,-266.24 124.14,-263.49"/>
</a>
</g>
</g>
<!-- Node6 -->
<g id="Node000006" class="node">
<title>Node6</title>
<g id="a_Node000006"><a xlink:href="InvalidProductDataException_8h.html" target="_top" xlink:title=" ">
<polygon fill="white" stroke="#666666" points="304.29,-195 134.29,-195 134.29,-165 304.29,-165 304.29,-195"/>
<text text-anchor="start" x="142.29" y="-183" font-family="Helvetica,sans-Serif" font-size="10.00">Exception/PharmacyExceptions</text>
<text text-anchor="middle" x="219.29" y="-172" font-family="Helvetica,sans-Serif" font-size="10.00">/InvalidProductDataException.h</text>
</a>
</g>
</g>
<!-- Node2&#45;&gt;Node6 -->
<g id="edge5_Node000002_Node000006" class="edge">
<title>Node2&#45;&gt;Node6</title>
<g id="a_edge5_Node000002_Node000006"><a xlink:title=" ">
<path fill="none" stroke="#63b8ff" d="M143.15,-296.6C150.97,-282.45 167.02,-254.04 182.29,-231 188.46,-221.68 195.69,-211.73 202.11,-203.17"/>
<polygon fill="#63b8ff" stroke="#63b8ff" points="204.94,-205.24 208.2,-195.16 199.36,-201.01 204.94,-205.24"/>
</a>
</g>
</g>
<!-- Node9 -->
<g id="Node000009" class="node">
<title>Node9</title>
<g id="a_Node000009"><a xlink:href="InvalidPriceException_8h.html" target="_top" xlink:title=" ">
<polygon fill="white" stroke="#666666" points="361.29,-261 191.29,-261 191.29,-231 361.29,-231 361.29,-261"/>
<text text-anchor="start" x="199.29" y="-249" font-family="Helvetica,sans-Serif" font-size="10.00">Exception/PharmacyExceptions</text>
<text text-anchor="middle" x="276.29" y="-238" font-family="Helvetica,sans-Serif" font-size="10.00">/InvalidPriceException.h</text>
</a>
</g>
</g>
<!-- Node2&#45;&gt;Node9 -->
<g id="edge9_Node000002_Node000009" class="edge">
<title>Node2&#45;&gt;Node9</title>
<g id="a_edge9_Node000002_Node000009"><a xlink:title=" ">
<path fill="none" stroke="#63b8ff" d="M158.35,-296.99C178.04,-288.65 208.68,-275.66 233.79,-265.02"/>
<polygon fill="#63b8ff" stroke="#63b8ff" points="235.27,-268.19 243.11,-261.06 232.54,-261.74 235.27,-268.19"/>
</a>
</g>
</g>
<!-- Node10 -->
<g id="Node000010" class="node">
<title>Node10</title>
<g id="a_Node000010"><a xlink:href="InvalidProductIdException_8h.html" target="_top" xlink:title=" ">
<polygon fill="white" stroke="#666666" points="549.29,-261 379.29,-261 379.29,-231 549.29,-231 549.29,-261"/>
<text text-anchor="start" x="387.29" y="-249" font-family="Helvetica,sans-Serif" font-size="10.00">Exception/PharmacyExceptions</text>
<text text-anchor="middle" x="464.29" y="-238" font-family="Helvetica,sans-Serif" font-size="10.00">/InvalidProductIdException.h</text>
</a>
</g>
</g>
<!-- Node2&#45;&gt;Node10 -->
<g id="edge11_Node000002_Node000010" class="edge">
<title>Node2&#45;&gt;Node10</title>
<g id="a_edge11_Node000002_Node000010"><a xlink:title=" ">
<path fill="none" stroke="#63b8ff" d="M174.14,-298.69C177.23,-298.12 180.31,-297.55 183.29,-297 246.95,-285.32 318.8,-272.55 373.91,-262.83"/>
<polygon fill="#63b8ff" stroke="#63b8ff" points="374.76,-266.23 384,-261.05 373.54,-259.34 374.76,-266.23"/>
</a>
</g>
</g>
<!-- Node7 -->
<g id="Node000007" class="node">
<title>Node7</title>
<g id="a_Node000007"><a xlink:href="MedicalProductException_8h.html" target="_top" xlink:title=" ">
<polygon fill="white" stroke="#666666" points="207.79,-129 58.79,-129 58.79,-110 207.79,-110 207.79,-129"/>
<text text-anchor="middle" x="133.29" y="-117" font-family="Helvetica,sans-Serif" font-size="10.00">MedicalProductException.h</text>
</a>
</g>
</g>
<!-- Node6&#45;&gt;Node7 -->
<g id="edge6_Node000006_Node000007" class="edge">
<title>Node6&#45;&gt;Node7</title>
<g id="a_edge6_Node000006_Node000007"><a xlink:title=" ">
<path fill="none" stroke="#63b8ff" d="M198.47,-164.84C185.14,-155.77 167.89,-144.04 154.49,-134.92"/>
<polygon fill="#63b8ff" stroke="#63b8ff" points="156.16,-131.83 145.92,-129.09 152.22,-137.61 156.16,-131.83"/>
</a>
</g>
</g>
<!-- Node8 -->
<g id="Node000008" class="node">
<title>Node8</title>
<g id="a_Node000008"><a xlink:href="PharmacyException_8h.html" target="_top" xlink:title=" ">
<polygon fill="white" stroke="#666666" points="172.29,-74 50.29,-74 50.29,-55 172.29,-55 172.29,-74"/>
<text text-anchor="middle" x="111.29" y="-62" font-family="Helvetica,sans-Serif" font-size="10.00">PharmacyException.h</text>
</a>
</g>
</g>
<!-- Node7&#45;&gt;Node8 -->
<g id="edge7_Node000007_Node000008" class="edge">
<title>Node7&#45;&gt;Node8</title>
<g id="a_edge7_Node000007_Node000008"><a xlink:title=" ">
<path fill="none" stroke="#63b8ff" d="M129.65,-109.75C126.71,-102.65 122.45,-92.4 118.78,-83.56"/>
<polygon fill="#63b8ff" stroke="#63b8ff" points="121.92,-81.98 114.85,-74.09 115.45,-84.67 121.92,-81.98"/>
</a>
</g>
</g>
<!-- Node8&#45;&gt;Node3 -->
<g id="edge8_Node000008_Node000003" class="edge">
<title>Node8&#45;&gt;Node3</title>
<g id="a_edge8_Node000008_Node000003"><a xlink:title=" ">
<path fill="none" stroke="#63b8ff" d="M100.68,-54.98C90.83,-47.07 75.93,-35.11 64.07,-25.58"/>
<polygon fill="#63b8ff" stroke="#63b8ff" points="66.07,-22.7 56.08,-19.17 61.69,-28.16 66.07,-22.7"/>
</a>
</g>
</g>
<!-- Node9&#45;&gt;Node6 -->
<g id="edge10_Node000009_Node000006" class="edge">
<title>Node9&#45;&gt;Node6</title>
<g id="a_edge10_Node000009_Node000006"><a xlink:title=" ">
<path fill="none" stroke="#63b8ff" d="M263.64,-230.8C256.33,-222.59 246.99,-212.1 238.76,-202.87"/>
<polygon fill="#63b8ff" stroke="#63b8ff" points="241.17,-200.3 231.9,-195.16 235.94,-204.96 241.17,-200.3"/>
</a>
</g>
</g>
<!-- Node10&#45;&gt;Node6 -->
<g id="edge12_Node000010_Node000006" class="edge">
<title>Node10&#45;&gt;Node6</title>
<g id="a_edge12_Node000010_Node000006"><a xlink:title=" ">
<path fill="none" stroke="#63b8ff" d="M410.52,-230.95C372.86,-221.12 322.39,-207.93 282.76,-197.58"/>
<polygon fill="#63b8ff" stroke="#63b8ff" points="283.49,-194.15 272.93,-195.01 281.72,-200.93 283.49,-194.15"/>
</a>
</g>
</g>
</g>
</svg>
