<?xml version="1.0" encoding="UTF-8" standalone="no"?>
<!DOCTYPE svg PUBLIC "-//W3C//DTD SVG 1.1//EN"
 "http://www.w3.org/Graphics/SVG/1.1/DTD/svg11.dtd">
<!-- Generated by graphviz version 2.43.0 (0)
 -->
<!-- Title: Exception/safeinput.h Pages: 1 -->
<svg width="557pt" height="324pt"
 viewBox="0.00 0.00 557.29 324.00" xmlns="http://www.w3.org/2000/svg" xmlns:xlink="http://www.w3.org/1999/xlink">
<g id="graph0" class="graph" transform="scale(1 1) rotate(0) translate(4 320)">
<title>Exception/safeinput.h</title>
<!-- Node1 -->
<g id="Node000001" class="node">
<title>Node1</title>
<g id="a_Node000001"><a xlink:title=" ">
<polygon fill="#999999" stroke="#666666" points="199.29,-316 77.29,-316 77.29,-297 199.29,-297 199.29,-316"/>
<text text-anchor="middle" x="138.29" y="-304" font-family="Helvetica,sans-Serif" font-size="10.00">Exception/safeinput.h</text>
</a>
</g>
</g>
<!-- Node2 -->
<g id="Node000002" class="node">
<title>Node2</title>
<g id="a_Node000002"><a xlink:title=" ">
<polygon fill="#e0e0e0" stroke="#999999" points="75.29,-19 15.29,-19 15.29,0 75.29,0 75.29,-19"/>
<text text-anchor="middle" x="45.29" y="-7" font-family="Helvetica,sans-Serif" font-size="10.00">iostream</text>
</a>
</g>
</g>
<!-- Node1&#45;&gt;Node2 -->
<g id="edge1_Node000001_Node000002" class="edge">
<title>Node1&#45;&gt;Node2</title>
<g id="a_edge1_Node000001_Node000002"><a xlink:title=" ">
<path fill="none" stroke="#63b8ff" d="M85.17,-296.99C62.2,-290.71 36.85,-279.82 20.29,-261 -3.86,-233.57 1.29,-217.54 1.29,-181 1.29,-181 1.29,-181 1.29,-118.5 1.29,-84.42 20.31,-48.46 33.34,-27.83"/>
<polygon fill="#63b8ff" stroke="#63b8ff" points="36.41,-29.53 38.98,-19.25 30.56,-25.68 36.41,-29.53"/>
</a>
</g>
</g>
<!-- Node3 -->
<g id="Node000003" class="node">
<title>Node3</title>
<g id="a_Node000003"><a xlink:title=" ">
<polygon fill="#e0e0e0" stroke="#999999" points="73.29,-255.5 29.29,-255.5 29.29,-236.5 73.29,-236.5 73.29,-255.5"/>
<text text-anchor="middle" x="51.29" y="-243.5" font-family="Helvetica,sans-Serif" font-size="10.00">string</text>
</a>
</g>
</g>
<!-- Node1&#45;&gt;Node3 -->
<g id="edge2_Node000001_Node000003" class="edge">
<title>Node1&#45;&gt;Node3</title>
<g id="a_edge2_Node000001_Node000003"><a xlink:title=" ">
<path fill="none" stroke="#63b8ff" d="M125.45,-296.87C111.57,-287.54 89.22,-272.51 72.68,-261.38"/>
<polygon fill="#63b8ff" stroke="#63b8ff" points="74.43,-258.34 64.18,-255.67 70.52,-264.15 74.43,-258.34"/>
</a>
</g>
</g>
<!-- Node4 -->
<g id="Node000004" class="node">
<title>Node4</title>
<g id="a_Node000004"><a xlink:title=" ">
<polygon fill="#e0e0e0" stroke="#999999" points="135.29,-255.5 91.29,-255.5 91.29,-236.5 135.29,-236.5 135.29,-255.5"/>
<text text-anchor="middle" x="113.29" y="-243.5" font-family="Helvetica,sans-Serif" font-size="10.00">limits</text>
</a>
</g>
</g>
<!-- Node1&#45;&gt;Node4 -->
<g id="edge3_Node000001_Node000004" class="edge">
<title>Node1&#45;&gt;Node4</title>
<g id="a_edge3_Node000001_Node000004"><a xlink:title=" ">
<path fill="none" stroke="#63b8ff" d="M134.6,-296.87C131.01,-288.49 125.47,-275.51 120.93,-264.89"/>
<polygon fill="#63b8ff" stroke="#63b8ff" points="124.14,-263.49 116.99,-255.67 117.7,-266.24 124.14,-263.49"/>
</a>
</g>
</g>
<!-- Node5 -->
<g id="Node000005" class="node">
<title>Node5</title>
<g id="a_Node000005"><a xlink:href="InvalidProductDataException_8h.html" target="_top" xlink:title=" ">
<polygon fill="white" stroke="#666666" points="304.29,-195 134.29,-195 134.29,-165 304.29,-165 304.29,-195"/>
<text text-anchor="start" x="142.29" y="-183" font-family="Helvetica,sans-Serif" font-size="10.00">Exception/PharmacyExceptions</text>
<text text-anchor="middle" x="219.29" y="-172" font-family="Helvetica,sans-Serif" font-size="10.00">/InvalidProductDataException.h</text>
</a>
</g>
</g>
<!-- Node1&#45;&gt;Node5 -->
<g id="edge4_Node000001_Node000005" class="edge">
<title>Node1&#45;&gt;Node5</title>
<g id="a_edge4_Node000001_Node000005"><a xlink:title=" ">
<path fill="none" stroke="#63b8ff" d="M143.15,-296.6C150.97,-282.45 167.02,-254.04 182.29,-231 188.46,-221.68 195.69,-211.73 202.11,-203.17"/>
<polygon fill="#63b8ff" stroke="#63b8ff" points="204.94,-205.24 208.2,-195.16 199.36,-201.01 204.94,-205.24"/>
</a>
</g>
</g>
<!-- Node8 -->
<g id="Node000008" class="node">
<title>Node8</title>
<g id="a_Node000008"><a xlink:href="InvalidPriceException_8h.html" target="_top" xlink:title=" ">
<polygon fill="white" stroke="#666666" points="361.29,-261 191.29,-261 191.29,-231 361.29,-231 361.29,-261"/>
<text text-anchor="start" x="199.29" y="-249" font-family="Helvetica,sans-Serif" font-size="10.00">Exception/PharmacyExceptions</text>
<text text-anchor="middle" x="276.29" y="-238" font-family="Helvetica,sans-Serif" font-size="10.00">/InvalidPriceException.h</text>
</a>
</g>
</g>
<!-- Node1&#45;&gt;Node8 -->
<g id="edge8_Node000001_Node000008" class="edge">
<title>Node1&#45;&gt;Node8</title>
<g id="a_edge8_Node000001_Node000008"><a xlink:title=" ">
<path fill="none" stroke="#63b8ff" d="M158.35,-296.99C178.04,-288.65 208.68,-275.66 233.79,-265.02"/>
<polygon fill="#63b8ff" stroke="#63b8ff" points="235.27,-268.19 243.11,-261.06 232.54,-261.74 235.27,-268.19"/>
</a>
</g>
</g>
<!-- Node9 -->
<g id="Node000009" class="node">
<title>Node9</title>
<g id="a_Node000009"><a xlink:href="InvalidProductIdException_8h.html" target="_top" xlink:title=" ">
<polygon fill="white" stroke="#666666" points="549.29,-261 379.29,-261 379.29,-231 549.29,-231 549.29,-261"/>
<text text-anchor="start" x="387.29" y="-249" font-family="Helvetica,sans-Serif" font-size="10.00">Exception/PharmacyExceptions</text>
<text text-anchor="middle" x="464.29" y="-238" font-family="Helvetica,sans-Serif" font-size="10.00">/InvalidProductIdException.h</text>
</a>
</g>
</g>
<!-- Node1&#45;&gt;Node9 -->
<g id="edge10_Node000001_Node000009" class="edge">
<title>Node1&#45;&gt;Node9</title>
<g id="a_edge10_Node000001_Node000009"><a xlink:title=" ">
<path fill="none" stroke="#63b8ff" d="M185.69,-296.99C235.45,-288.06 314.84,-273.82 376.16,-262.81"/>
<polygon fill="#63b8ff" stroke="#63b8ff" points="377,-266.22 386.23,-261.01 375.76,-259.33 377,-266.22"/>
</a>
</g>
</g>
<!-- Node6 -->
<g id="Node000006" class="node">
<title>Node6</title>
<g id="a_Node000006"><a xlink:href="MedicalProductException_8h.html" target="_top" xlink:title=" ">
<polygon fill="white" stroke="#666666" points="207.79,-129 58.79,-129 58.79,-110 207.79,-110 207.79,-129"/>
<text text-anchor="middle" x="133.29" y="-117" font-family="Helvetica,sans-Serif" font-size="10.00">MedicalProductException.h</text>
</a>
</g>
</g>
<!-- Node5&#45;&gt;Node6 -->
<g id="edge5_Node000005_Node000006" class="edge">
<title>Node5&#45;&gt;Node6</title>
<g id="a_edge5_Node000005_Node000006"><a xlink:title=" ">
<path fill="none" stroke="#63b8ff" d="M198.47,-164.84C185.14,-155.77 167.89,-144.04 154.49,-134.92"/>
<polygon fill="#63b8ff" stroke="#63b8ff" points="156.16,-131.83 145.92,-129.09 152.22,-137.61 156.16,-131.83"/>
</a>
</g>
</g>
<!-- Node7 -->
<g id="Node000007" class="node">
<title>Node7</title>
<g id="a_Node000007"><a xlink:href="PharmacyException_8h.html" target="_top" xlink:title=" ">
<polygon fill="white" stroke="#666666" points="157.29,-74 35.29,-74 35.29,-55 157.29,-55 157.29,-74"/>
<text text-anchor="middle" x="96.29" y="-62" font-family="Helvetica,sans-Serif" font-size="10.00">PharmacyException.h</text>
</a>
</g>
</g>
<!-- Node6&#45;&gt;Node7 -->
<g id="edge6_Node000006_Node000007" class="edge">
<title>Node6&#45;&gt;Node7</title>
<g id="a_edge6_Node000006_Node000007"><a xlink:title=" ">
<path fill="none" stroke="#63b8ff" d="M127.18,-109.75C122,-102.34 114.44,-91.5 108.09,-82.41"/>
<polygon fill="#63b8ff" stroke="#63b8ff" points="110.88,-80.29 102.28,-74.09 105.14,-84.29 110.88,-80.29"/>
</a>
</g>
</g>
<!-- Node7&#45;&gt;Node2 -->
<g id="edge7_Node000007_Node000002" class="edge">
<title>Node7&#45;&gt;Node2</title>
<g id="a_edge7_Node000007_Node000002"><a xlink:title=" ">
<path fill="none" stroke="#63b8ff" d="M87.86,-54.75C80.51,-47.11 69.65,-35.82 60.74,-26.56"/>
<polygon fill="#63b8ff" stroke="#63b8ff" points="63.01,-23.87 53.55,-19.09 57.96,-28.72 63.01,-23.87"/>
</a>
</g>
</g>
<!-- Node8&#45;&gt;Node5 -->
<g id="edge9_Node000008_Node000005" class="edge">
<title>Node8&#45;&gt;Node5</title>
<g id="a_edge9_Node000008_Node000005"><a xlink:title=" ">
<path fill="none" stroke="#63b8ff" d="M263.64,-230.8C256.33,-222.59 246.99,-212.1 238.76,-202.87"/>
<polygon fill="#63b8ff" stroke="#63b8ff" points="241.17,-200.3 231.9,-195.16 235.94,-204.96 241.17,-200.3"/>
</a>
</g>
</g>
<!-- Node9&#45;&gt;Node5 -->
<g id="edge11_Node000009_Node000005" class="edge">
<title>Node9&#45;&gt;Node5</title>
<g id="a_edge11_Node000009_Node000005"><a xlink:title=" ">
<path fill="none" stroke="#63b8ff" d="M410.52,-230.95C372.86,-221.12 322.39,-207.93 282.76,-197.58"/>
<polygon fill="#63b8ff" stroke="#63b8ff" points="283.49,-194.15 272.93,-195.01 281.72,-200.93 283.49,-194.15"/>
</a>
</g>
</g>
</g>
</svg>
