<?xml version="1.0" encoding="UTF-8" standalone="no"?>
<!DOCTYPE svg PUBLIC "-//W3C//DTD SVG 1.1//EN"
 "http://www.w3.org/Graphics/SVG/1.1/DTD/svg11.dtd">
<!-- Generated by graphviz version 2.43.0 (0)
 -->
<!-- Title: safedate.h Pages: 1 -->
<svg width="1195pt" height="379pt"
 viewBox="0.00 0.00 1195.00 379.00" xmlns="http://www.w3.org/2000/svg" xmlns:xlink="http://www.w3.org/1999/xlink">
<g id="graph0" class="graph" transform="scale(1 1) rotate(0) translate(4 375)">
<title>safedate.h</title>
<!-- Node1 -->
<g id="Node000001" class="node">
<title>Node1</title>
<g id="a_Node000001"><a xlink:title=" ">
<polygon fill="#999999" stroke="#666666" points="591,-371 523,-371 523,-352 591,-352 591,-371"/>
<text text-anchor="middle" x="557" y="-359" font-family="Helvetica,sans-Serif" font-size="10.00">safedate.h</text>
</a>
</g>
</g>
<!-- Node2 -->
<g id="Node000002" class="node">
<title>Node2</title>
<g id="a_Node000002"><a xlink:href="ExpiredProductException_8h.html" target="_top" xlink:title=" ">
<polygon fill="white" stroke="#666666" points="487,-316 317,-316 317,-286 487,-286 487,-316"/>
<text text-anchor="start" x="325" y="-304" font-family="Helvetica,sans-Serif" font-size="10.00">Exception/PharmacyExceptions</text>
<text text-anchor="middle" x="402" y="-293" font-family="Helvetica,sans-Serif" font-size="10.00">/ExpiredProductException.h</text>
</a>
</g>
</g>
<!-- Node1&#45;&gt;Node2 -->
<g id="edge1_Node000001_Node000002" class="edge">
<title>Node1&#45;&gt;Node2</title>
<g id="a_edge1_Node000001_Node000002"><a xlink:title=" ">
<path fill="none" stroke="#63b8ff" d="M525.09,-348.46C500.16,-339.05 465.47,-325.95 439.26,-316.06"/>
<polygon fill="#63b8ff" stroke="#63b8ff" points="523.87,-351.74 534.46,-351.99 526.34,-345.19 523.87,-351.74"/>
</a>
</g>
</g>
<!-- Node3 -->
<g id="Node000003" class="node">
<title>Node3</title>
<g id="a_Node000003"><a xlink:href="medicalproduct_8cpp.html" target="_top" xlink:title=" ">
<polygon fill="white" stroke="#666666" points="292.5,-250 179.5,-250 179.5,-231 292.5,-231 292.5,-250"/>
<text text-anchor="middle" x="236" y="-238" font-family="Helvetica,sans-Serif" font-size="10.00">medicalproduct.cpp</text>
</a>
</g>
</g>
<!-- Node1&#45;&gt;Node3 -->
<g id="edge26_Node000001_Node000003" class="edge">
<title>Node1&#45;&gt;Node3</title>
<g id="a_edge26_Node000001_Node000003"><a xlink:title=" ">
<path fill="none" stroke="#63b8ff" d="M512.41,-360.65C460.41,-359.06 373.26,-350.78 308,-316 277.52,-299.76 252.26,-265.97 241.54,-250.1"/>
<polygon fill="#63b8ff" stroke="#63b8ff" points="512.56,-364.16 522.64,-360.89 512.72,-357.16 512.56,-364.16"/>
</a>
</g>
</g>
<!-- Node4 -->
<g id="Node000004" class="node">
<title>Node4</title>
<g id="a_Node000004"><a xlink:href="filemanager_8h.html" target="_top" xlink:title=" ">
<polygon fill="white" stroke="#666666" points="754.5,-140 671.5,-140 671.5,-121 754.5,-121 754.5,-140"/>
<text text-anchor="middle" x="713" y="-128" font-family="Helvetica,sans-Serif" font-size="10.00">filemanager.h</text>
</a>
</g>
</g>
<!-- Node1&#45;&gt;Node4 -->
<g id="edge3_Node000001_Node000004" class="edge">
<title>Node1&#45;&gt;Node4</title>
<g id="a_edge3_Node000001_Node000004"><a xlink:title=" ">
<path fill="none" stroke="#63b8ff" d="M599.05,-348.57C618.6,-341.47 641.18,-330.88 658,-316 704.86,-274.52 713.41,-255.34 730,-195 735.39,-175.41 725.06,-152.36 718.27,-140.14"/>
<polygon fill="#63b8ff" stroke="#63b8ff" points="597.76,-345.31 589.44,-351.87 600.03,-351.93 597.76,-345.31"/>
</a>
</g>
</g>
<!-- Node6 -->
<g id="Node000006" class="node">
<title>Node6</title>
<g id="a_Node000006"><a xlink:href="inventoryoperation_8h.html" target="_top" xlink:title=" ">
<polygon fill="white" stroke="#666666" points="429.5,-250 310.5,-250 310.5,-231 429.5,-231 429.5,-250"/>
<text text-anchor="middle" x="370" y="-238" font-family="Helvetica,sans-Serif" font-size="10.00">inventoryoperation.h</text>
</a>
</g>
</g>
<!-- Node1&#45;&gt;Node6 -->
<g id="edge5_Node000001_Node000006" class="edge">
<title>Node1&#45;&gt;Node6</title>
<g id="a_edge5_Node000001_Node000006"><a xlink:title=" ">
<path fill="none" stroke="#63b8ff" d="M546.7,-343.04C535.98,-326.26 517.73,-301.26 496,-286 470.56,-268.14 437.23,-256.78 411.24,-250.02"/>
<polygon fill="#63b8ff" stroke="#63b8ff" points="543.89,-345.15 552.11,-351.84 549.85,-341.49 543.89,-345.15"/>
</a>
</g>
</g>
<!-- Node20 -->
<g id="Node000020" class="node">
<title>Node20</title>
<g id="a_Node000020"><a xlink:href="medicalproduct_8h.html" target="_top" xlink:title=" ">
<polygon fill="white" stroke="#666666" points="648.5,-310.5 547.5,-310.5 547.5,-291.5 648.5,-291.5 648.5,-310.5"/>
<text text-anchor="middle" x="598" y="-298.5" font-family="Helvetica,sans-Serif" font-size="10.00">medicalproduct.h</text>
</a>
</g>
</g>
<!-- Node1&#45;&gt;Node20 -->
<g id="edge27_Node000001_Node000020" class="edge">
<title>Node1&#45;&gt;Node20</title>
<g id="a_edge27_Node000001_Node000020"><a xlink:title=" ">
<path fill="none" stroke="#63b8ff" d="M568.82,-343.63C576.38,-332.85 585.86,-319.32 591.93,-310.67"/>
<polygon fill="#63b8ff" stroke="#63b8ff" points="565.92,-341.67 563.05,-351.87 571.66,-345.69 565.92,-341.67"/>
</a>
</g>
</g>
<!-- Node33 -->
<g id="Node000033" class="node">
<title>Node33</title>
<g id="a_Node000033"><a xlink:href="safedate_8cpp.html" target="_top" xlink:title=" ">
<polygon fill="white" stroke="#666666" points="879,-310.5 799,-310.5 799,-291.5 879,-291.5 879,-310.5"/>
<text text-anchor="middle" x="839" y="-298.5" font-family="Helvetica,sans-Serif" font-size="10.00">safedate.cpp</text>
</a>
</g>
</g>
<!-- Node1&#45;&gt;Node33 -->
<g id="edge58_Node000001_Node000033" class="edge">
<title>Node1&#45;&gt;Node33</title>
<g id="a_edge58_Node000001_Node000033"><a xlink:title=" ">
<path fill="none" stroke="#63b8ff" d="M601.08,-352.72C647.12,-344.4 721.38,-330.44 785,-316 792.27,-314.35 800.06,-312.42 807.38,-310.54"/>
<polygon fill="#63b8ff" stroke="#63b8ff" points="600.35,-349.29 591.13,-354.51 601.59,-356.18 600.35,-349.29"/>
</a>
</g>
</g>
<!-- Node2&#45;&gt;Node3 -->
<g id="edge2_Node000002_Node000003" class="edge">
<title>Node2&#45;&gt;Node3</title>
<g id="a_edge2_Node000002_Node000003"><a xlink:title=" ">
<path fill="none" stroke="#63b8ff" d="M352.66,-282.61C322.29,-271.91 284.68,-258.65 260.51,-250.14"/>
<polygon fill="#63b8ff" stroke="#63b8ff" points="351.64,-285.97 362.24,-285.99 353.97,-279.36 351.64,-285.97"/>
</a>
</g>
</g>
<!-- Node5 -->
<g id="Node000005" class="node">
<title>Node5</title>
<g id="a_Node000005"><a xlink:href="filemanager_8cpp.html" target="_top" xlink:title=" ">
<polygon fill="white" stroke="#666666" points="760.5,-85 665.5,-85 665.5,-66 760.5,-66 760.5,-85"/>
<text text-anchor="middle" x="713" y="-73" font-family="Helvetica,sans-Serif" font-size="10.00">filemanager.cpp</text>
</a>
</g>
</g>
<!-- Node4&#45;&gt;Node5 -->
<g id="edge4_Node000004_Node000005" class="edge">
<title>Node4&#45;&gt;Node5</title>
<g id="a_edge4_Node000004_Node000005"><a xlink:title=" ">
<path fill="none" stroke="#63b8ff" d="M713,-110.66C713,-101.93 713,-91.99 713,-85.09"/>
<polygon fill="#63b8ff" stroke="#63b8ff" points="709.5,-110.75 713,-120.75 716.5,-110.75 709.5,-110.75"/>
</a>
</g>
</g>
<!-- Node6&#45;&gt;Node4 -->
<g id="edge6_Node000006_Node000004" class="edge">
<title>Node6&#45;&gt;Node4</title>
<g id="a_edge6_Node000006_Node000004"><a xlink:title=" ">
<path fill="none" stroke="#63b8ff" d="M395.02,-226.25C429.22,-208.17 486.96,-177.78 492,-176 524.48,-164.54 616.76,-147.8 671.26,-138.46"/>
<polygon fill="#63b8ff" stroke="#63b8ff" points="393.26,-223.22 386.05,-230.99 396.53,-229.41 393.26,-223.22"/>
</a>
</g>
</g>
<!-- Node7 -->
<g id="Node000007" class="node">
<title>Node7</title>
<g id="a_Node000007"><a xlink:href="inventoryoperation_8cpp.html" target="_top" xlink:title=" ">
<polygon fill="white" stroke="#666666" points="295,-195 165,-195 165,-176 295,-176 295,-195"/>
<text text-anchor="middle" x="230" y="-183" font-family="Helvetica,sans-Serif" font-size="10.00">inventoryoperation.cpp</text>
</a>
</g>
</g>
<!-- Node6&#45;&gt;Node7 -->
<g id="edge7_Node000006_Node000007" class="edge">
<title>Node6&#45;&gt;Node7</title>
<g id="a_edge7_Node000006_Node000007"><a xlink:title=" ">
<path fill="none" stroke="#63b8ff" d="M338.09,-227.42C312.12,-217.59 276.08,-203.95 252.9,-195.17"/>
<polygon fill="#63b8ff" stroke="#63b8ff" points="336.92,-230.72 347.51,-230.98 339.39,-224.17 336.92,-230.72"/>
</a>
</g>
</g>
<!-- Node8 -->
<g id="Node000008" class="node">
<title>Node8</title>
<g id="a_Node000008"><a xlink:href="pharmacymanager_8h.html" target="_top" xlink:title=" ">
<polygon fill="white" stroke="#666666" points="447.5,-140 330.5,-140 330.5,-121 447.5,-121 447.5,-140"/>
<text text-anchor="middle" x="389" y="-128" font-family="Helvetica,sans-Serif" font-size="10.00">pharmacymanager.h</text>
</a>
</g>
</g>
<!-- Node6&#45;&gt;Node8 -->
<g id="edge8_Node000006_Node000008" class="edge">
<title>Node6&#45;&gt;Node8</title>
<g id="a_edge8_Node000006_Node000008"><a xlink:title=" ">
<path fill="none" stroke="#63b8ff" d="M356.93,-222.48C348.74,-209.63 340.8,-191.61 347,-176 352.96,-160.99 366.65,-148.12 376.79,-140.14"/>
<polygon fill="#63b8ff" stroke="#63b8ff" points="354.16,-224.61 362.75,-230.81 359.9,-220.61 354.16,-224.61"/>
</a>
</g>
</g>
<!-- Node14 -->
<g id="Node000014" class="node">
<title>Node14</title>
<g id="a_Node000014"><a xlink:href="return_8h.html" target="_top" xlink:title=" ">
<polygon fill="white" stroke="#666666" points="146.5,-195 91.5,-195 91.5,-176 146.5,-176 146.5,-195"/>
<text text-anchor="middle" x="119" y="-183" font-family="Helvetica,sans-Serif" font-size="10.00">return.h</text>
</a>
</g>
</g>
<!-- Node6&#45;&gt;Node14 -->
<g id="edge14_Node000006_Node000014" class="edge">
<title>Node6&#45;&gt;Node14</title>
<g id="a_edge14_Node000006_Node000014"><a xlink:title=" ">
<path fill="none" stroke="#63b8ff" d="M317.68,-228.94C274.32,-220.11 211.08,-207.05 156,-195 153.04,-194.35 149.95,-193.66 146.87,-192.97"/>
<polygon fill="#63b8ff" stroke="#63b8ff" points="317.22,-232.41 327.72,-230.98 318.61,-225.55 317.22,-232.41"/>
</a>
</g>
</g>
<!-- Node16 -->
<g id="Node000016" class="node">
<title>Node16</title>
<g id="a_Node000016"><a xlink:href="supply_8h.html" target="_top" xlink:title=" ">
<polygon fill="white" stroke="#666666" points="445,-195 389,-195 389,-176 445,-176 445,-195"/>
<text text-anchor="middle" x="417" y="-183" font-family="Helvetica,sans-Serif" font-size="10.00">supply.h</text>
</a>
</g>
</g>
<!-- Node6&#45;&gt;Node16 -->
<g id="edge18_Node000006_Node000016" class="edge">
<title>Node6&#45;&gt;Node16</title>
<g id="a_edge18_Node000006_Node000016"><a xlink:title=" ">
<path fill="none" stroke="#63b8ff" d="M384.42,-223.24C392.66,-213.95 402.65,-202.68 409.38,-195.09"/>
<polygon fill="#63b8ff" stroke="#63b8ff" points="381.78,-220.94 377.76,-230.75 387.01,-225.59 381.78,-220.94"/>
</a>
</g>
</g>
<!-- Node18 -->
<g id="Node000018" class="node">
<title>Node18</title>
<g id="a_Node000018"><a xlink:href="writeoff_8h.html" target="_top" xlink:title=" ">
<polygon fill="white" stroke="#666666" points="73.5,-195 10.5,-195 10.5,-176 73.5,-176 73.5,-195"/>
<text text-anchor="middle" x="42" y="-183" font-family="Helvetica,sans-Serif" font-size="10.00">writeoff.h</text>
</a>
</g>
</g>
<!-- Node6&#45;&gt;Node18 -->
<g id="edge22_Node000006_Node000018" class="edge">
<title>Node6&#45;&gt;Node18</title>
<g id="a_edge22_Node000006_Node000018"><a xlink:title=" ">
<path fill="none" stroke="#63b8ff" d="M300.04,-229.81C241.6,-221.45 156.17,-208.6 82,-195 79.35,-194.51 76.6,-193.98 73.84,-193.44"/>
<polygon fill="#63b8ff" stroke="#63b8ff" points="299.87,-233.32 310.27,-231.27 300.86,-226.39 299.87,-233.32"/>
</a>
</g>
</g>
<!-- Node9 -->
<g id="Node000009" class="node">
<title>Node9</title>
<g id="a_Node000009"><a xlink:href="mainwindow_8h.html" target="_top" xlink:title=" ">
<polygon fill="white" stroke="#666666" points="1083.5,-85 996.5,-85 996.5,-66 1083.5,-66 1083.5,-85"/>
<text text-anchor="middle" x="1040" y="-73" font-family="Helvetica,sans-Serif" font-size="10.00">mainwindow.h</text>
</a>
</g>
</g>
<!-- Node8&#45;&gt;Node9 -->
<g id="edge9_Node000008_Node000009" class="edge">
<title>Node8&#45;&gt;Node9</title>
<g id="a_edge9_Node000008_Node000009"><a xlink:title=" ">
<path fill="none" stroke="#63b8ff" d="M457.79,-120.97C665.98,-100.25 900.96,-84.97 996.42,-79.11"/>
<polygon fill="#63b8ff" stroke="#63b8ff" points="457.19,-117.52 447.59,-122 457.88,-124.48 457.19,-117.52"/>
</a>
</g>
</g>
<!-- Node13 -->
<g id="Node000013" class="node">
<title>Node13</title>
<g id="a_Node000013"><a xlink:href="pharmacymanager_8cpp.html" target="_top" xlink:title=" ">
<polygon fill="white" stroke="#666666" points="550,-85 422,-85 422,-66 550,-66 550,-85"/>
<text text-anchor="middle" x="486" y="-73" font-family="Helvetica,sans-Serif" font-size="10.00">pharmacymanager.cpp</text>
</a>
</g>
</g>
<!-- Node8&#45;&gt;Node13 -->
<g id="edge13_Node000008_Node000013" class="edge">
<title>Node8&#45;&gt;Node13</title>
<g id="a_edge13_Node000008_Node000013"><a xlink:title=" ">
<path fill="none" stroke="#63b8ff" d="M413.77,-115.97C431.5,-106.28 454.85,-93.52 470.13,-85.17"/>
<polygon fill="#63b8ff" stroke="#63b8ff" points="411.68,-113.12 404.58,-120.98 415.04,-119.26 411.68,-113.12"/>
</a>
</g>
</g>
<!-- Node10 -->
<g id="Node000010" class="node">
<title>Node10</title>
<g id="a_Node000010"><a xlink:href="moc__mainwindow_8cpp.html" target="_top" xlink:title=" ">
<polygon fill="white" stroke="#666666" points="991,-30 863,-30 863,0 991,0 991,-30"/>
<text text-anchor="start" x="871" y="-18" font-family="Helvetica,sans-Serif" font-size="10.00">build/Desktop&#45;Debug</text>
<text text-anchor="middle" x="927" y="-7" font-family="Helvetica,sans-Serif" font-size="10.00">/moc_mainwindow.cpp</text>
</a>
</g>
</g>
<!-- Node9&#45;&gt;Node10 -->
<g id="edge10_Node000009_Node000010" class="edge">
<title>Node9&#45;&gt;Node10</title>
<g id="a_edge10_Node000009_Node000010"><a xlink:title=" ">
<path fill="none" stroke="#63b8ff" d="M1014.06,-61.07C996.17,-51.81 972.43,-39.52 954.26,-30.11"/>
<polygon fill="#63b8ff" stroke="#63b8ff" points="1012.84,-64.38 1023.33,-65.87 1016.06,-58.16 1012.84,-64.38"/>
</a>
</g>
</g>
<!-- Node11 -->
<g id="Node000011" class="node">
<title>Node11</title>
<g id="a_Node000011"><a xlink:href="main_8cpp.html" target="_top" xlink:title=" ">
<polygon fill="white" stroke="#666666" points="1071,-24.5 1009,-24.5 1009,-5.5 1071,-5.5 1071,-24.5"/>
<text text-anchor="middle" x="1040" y="-12.5" font-family="Helvetica,sans-Serif" font-size="10.00">main.cpp</text>
</a>
</g>
</g>
<!-- Node9&#45;&gt;Node11 -->
<g id="edge11_Node000009_Node000011" class="edge">
<title>Node9&#45;&gt;Node11</title>
<g id="a_edge11_Node000009_Node000011"><a xlink:title=" ">
<path fill="none" stroke="#63b8ff" d="M1040,-55.66C1040,-45.24 1040,-32.8 1040,-24.67"/>
<polygon fill="#63b8ff" stroke="#63b8ff" points="1036.5,-55.87 1040,-65.87 1043.5,-55.87 1036.5,-55.87"/>
</a>
</g>
</g>
<!-- Node12 -->
<g id="Node000012" class="node">
<title>Node12</title>
<g id="a_Node000012"><a xlink:href="mainwindow_8cpp.html" target="_top" xlink:title=" ">
<polygon fill="white" stroke="#666666" points="1187,-24.5 1089,-24.5 1089,-5.5 1187,-5.5 1187,-24.5"/>
<text text-anchor="middle" x="1138" y="-12.5" font-family="Helvetica,sans-Serif" font-size="10.00">mainwindow.cpp</text>
</a>
</g>
</g>
<!-- Node9&#45;&gt;Node12 -->
<g id="edge12_Node000009_Node000012" class="edge">
<title>Node9&#45;&gt;Node12</title>
<g id="a_edge12_Node000009_Node000012"><a xlink:title=" ">
<path fill="none" stroke="#63b8ff" d="M1063.25,-60.62C1081.94,-49.46 1107.61,-34.14 1123.48,-24.67"/>
<polygon fill="#63b8ff" stroke="#63b8ff" points="1061.25,-57.74 1054.46,-65.87 1064.84,-63.75 1061.25,-57.74"/>
</a>
</g>
</g>
<!-- Node14&#45;&gt;Node4 -->
<g id="edge15_Node000014_Node000004" class="edge">
<title>Node14&#45;&gt;Node4</title>
<g id="a_edge15_Node000014_Node000004"><a xlink:title=" ">
<path fill="none" stroke="#63b8ff" d="M156.89,-176.13C380.75,-143.35 441.39,-166.17 662,-140 665.03,-139.64 668.16,-139.23 671.3,-138.78"/>
<polygon fill="#63b8ff" stroke="#63b8ff" points="156.17,-172.7 146.79,-177.63 157.2,-179.62 156.17,-172.7"/>
</a>
</g>
</g>
<!-- Node14&#45;&gt;Node8 -->
<g id="edge16_Node000014_Node000008" class="edge">
<title>Node14&#45;&gt;Node8</title>
<g id="a_edge16_Node000014_Node000008"><a xlink:title=" ">
<path fill="none" stroke="#63b8ff" d="M156.73,-175.91C226.7,-161.29 296.56,-148.24 341.59,-140.02"/>
<polygon fill="#63b8ff" stroke="#63b8ff" points="155.92,-172.5 146.86,-177.98 157.36,-179.35 155.92,-172.5"/>
</a>
</g>
</g>
<!-- Node15 -->
<g id="Node000015" class="node">
<title>Node15</title>
<g id="a_Node000015"><a xlink:href="return_8cpp.html" target="_top" xlink:title=" ">
<polygon fill="white" stroke="#666666" points="158,-140 92,-140 92,-121 158,-121 158,-140"/>
<text text-anchor="middle" x="125" y="-128" font-family="Helvetica,sans-Serif" font-size="10.00">return.cpp</text>
</a>
</g>
</g>
<!-- Node14&#45;&gt;Node15 -->
<g id="edge17_Node000014_Node000015" class="edge">
<title>Node14&#45;&gt;Node15</title>
<g id="a_edge17_Node000014_Node000015"><a xlink:title=" ">
<path fill="none" stroke="#63b8ff" d="M121.13,-165.66C122.12,-156.93 123.25,-146.99 124.03,-140.09"/>
<polygon fill="#63b8ff" stroke="#63b8ff" points="117.64,-165.42 119.99,-175.75 124.59,-166.21 117.64,-165.42"/>
</a>
</g>
</g>
<!-- Node16&#45;&gt;Node4 -->
<g id="edge19_Node000016_Node000004" class="edge">
<title>Node16&#45;&gt;Node4</title>
<g id="a_edge19_Node000016_Node000004"><a xlink:title=" ">
<path fill="none" stroke="#63b8ff" d="M455.67,-176.63C456.79,-176.42 457.9,-176.21 459,-176 533.57,-161.93 620.74,-146.98 671.14,-138.49"/>
<polygon fill="#63b8ff" stroke="#63b8ff" points="454.59,-173.28 445.45,-178.64 455.93,-180.15 454.59,-173.28"/>
</a>
</g>
</g>
<!-- Node16&#45;&gt;Node8 -->
<g id="edge20_Node000016_Node000008" class="edge">
<title>Node16&#45;&gt;Node8</title>
<g id="a_edge20_Node000016_Node000008"><a xlink:title=" ">
<path fill="none" stroke="#63b8ff" d="M407.66,-166.82C402.91,-157.82 397.34,-147.29 393.54,-140.09"/>
<polygon fill="#63b8ff" stroke="#63b8ff" points="404.61,-168.54 412.38,-175.75 410.8,-165.27 404.61,-168.54"/>
</a>
</g>
</g>
<!-- Node17 -->
<g id="Node000017" class="node">
<title>Node17</title>
<g id="a_Node000017"><a xlink:href="supply_8cpp.html" target="_top" xlink:title=" ">
<polygon fill="white" stroke="#666666" points="534,-140 466,-140 466,-121 534,-121 534,-140"/>
<text text-anchor="middle" x="500" y="-128" font-family="Helvetica,sans-Serif" font-size="10.00">supply.cpp</text>
</a>
</g>
</g>
<!-- Node16&#45;&gt;Node17 -->
<g id="edge21_Node000016_Node000017" class="edge">
<title>Node16&#45;&gt;Node17</title>
<g id="a_edge21_Node000016_Node000017"><a xlink:title=" ">
<path fill="none" stroke="#63b8ff" d="M439.04,-170.42C454.11,-160.81 473.59,-148.37 486.42,-140.17"/>
<polygon fill="#63b8ff" stroke="#63b8ff" points="436.88,-167.65 430.34,-175.98 440.65,-173.55 436.88,-167.65"/>
</a>
</g>
</g>
<!-- Node18&#45;&gt;Node4 -->
<g id="edge23_Node000018_Node000004" class="edge">
<title>Node18&#45;&gt;Node4</title>
<g id="a_edge23_Node000018_Node000004"><a xlink:title=" ">
<path fill="none" stroke="#63b8ff" d="M83.77,-175.95C339.64,-141.77 408.65,-168.9 662,-140 665.03,-139.65 668.16,-139.25 671.3,-138.81"/>
<polygon fill="#63b8ff" stroke="#63b8ff" points="83.24,-172.49 73.8,-177.3 84.18,-179.43 83.24,-172.49"/>
</a>
</g>
</g>
<!-- Node18&#45;&gt;Node8 -->
<g id="edge24_Node000018_Node000008" class="edge">
<title>Node18&#45;&gt;Node8</title>
<g id="a_edge24_Node000018_Node000008"><a xlink:title=" ">
<path fill="none" stroke="#63b8ff" d="M83.79,-175.77C175.03,-159.68 270.5,-146.59 330.25,-138.85"/>
<polygon fill="#63b8ff" stroke="#63b8ff" points="83.07,-172.34 73.84,-177.54 84.3,-179.23 83.07,-172.34"/>
</a>
</g>
</g>
<!-- Node19 -->
<g id="Node000019" class="node">
<title>Node19</title>
<g id="a_Node000019"><a xlink:href="writeoff_8cpp.html" target="_top" xlink:title=" ">
<polygon fill="white" stroke="#666666" points="74,-140 0,-140 0,-121 74,-121 74,-140"/>
<text text-anchor="middle" x="37" y="-128" font-family="Helvetica,sans-Serif" font-size="10.00">writeoff.cpp</text>
</a>
</g>
</g>
<!-- Node18&#45;&gt;Node19 -->
<g id="edge25_Node000018_Node000019" class="edge">
<title>Node18&#45;&gt;Node19</title>
<g id="a_edge25_Node000018_Node000019"><a xlink:title=" ">
<path fill="none" stroke="#63b8ff" d="M40.22,-165.66C39.4,-156.93 38.46,-146.99 37.81,-140.09"/>
<polygon fill="#63b8ff" stroke="#63b8ff" points="36.75,-166.12 41.17,-175.75 43.72,-165.46 36.75,-166.12"/>
</a>
</g>
</g>
<!-- Node20&#45;&gt;Node3 -->
<g id="edge31_Node000020_Node000003" class="edge">
<title>Node20&#45;&gt;Node3</title>
<g id="a_edge31_Node000020_Node000003"><a xlink:title=" ">
<path fill="none" stroke="#63b8ff" d="M537.34,-290.2C467.76,-278.95 354.79,-260.7 288.72,-250.02"/>
<polygon fill="#63b8ff" stroke="#63b8ff" points="536.85,-293.66 547.28,-291.8 537.97,-286.75 536.85,-293.66"/>
</a>
</g>
</g>
<!-- Node20&#45;&gt;Node4 -->
<g id="edge28_Node000020_Node000004" class="edge">
<title>Node20&#45;&gt;Node4</title>
<g id="a_edge28_Node000020_Node000004"><a xlink:title=" ">
<path fill="none" stroke="#63b8ff" d="M623.37,-286.2C651.77,-269.1 696.16,-237.01 714,-195 721.76,-176.73 718.11,-152.76 715.26,-140.14"/>
<polygon fill="#63b8ff" stroke="#63b8ff" points="621.29,-283.36 614.41,-291.42 624.81,-289.41 621.29,-283.36"/>
</a>
</g>
</g>
<!-- Node20&#45;&gt;Node6 -->
<g id="edge29_Node000020_Node000006" class="edge">
<title>Node20&#45;&gt;Node6</title>
<g id="a_edge29_Node000020_Node000006"><a xlink:title=" ">
<path fill="none" stroke="#63b8ff" d="M555,-288.97C510.92,-277.66 443.31,-260.31 403.19,-250.02"/>
<polygon fill="#63b8ff" stroke="#63b8ff" points="554.29,-292.4 564.85,-291.49 556.03,-285.62 554.29,-292.4"/>
</a>
</g>
</g>
<!-- Node20&#45;&gt;Node8 -->
<g id="edge54_Node000020_Node000008" class="edge">
<title>Node20&#45;&gt;Node8</title>
<g id="a_edge54_Node000020_Node000008"><a xlink:title=" ">
<path fill="none" stroke="#63b8ff" d="M567.97,-287.64C510.77,-263.79 390.85,-212.27 380,-195 369.22,-177.84 378.32,-152.99 384.48,-140.05"/>
<polygon fill="#63b8ff" stroke="#63b8ff" points="566.66,-290.88 577.24,-291.49 569.35,-284.42 566.66,-290.88"/>
</a>
</g>
</g>
<!-- Node20&#45;&gt;Node9 -->
<g id="edge30_Node000020_Node000009" class="edge">
<title>Node20&#45;&gt;Node9</title>
<g id="a_edge30_Node000020_Node000009"><a xlink:title=" ">
<path fill="none" stroke="#63b8ff" d="M658.87,-293.08C797.74,-276.67 1128.47,-233.87 1160,-195 1168.41,-184.63 1181.87,-153.33 1159,-121 1141.93,-96.87 1110.13,-85.81 1083.69,-80.75"/>
<polygon fill="#63b8ff" stroke="#63b8ff" points="658.33,-289.62 648.81,-294.26 659.15,-296.57 658.33,-289.62"/>
</a>
</g>
</g>
<!-- Node21 -->
<g id="Node000021" class="node">
<title>Node21</title>
<g id="a_Node000021"><a xlink:href="medicine_8h.html" target="_top" xlink:title=" ">
<polygon fill="white" stroke="#666666" points="889.5,-250 818.5,-250 818.5,-231 889.5,-231 889.5,-250"/>
<text text-anchor="middle" x="854" y="-238" font-family="Helvetica,sans-Serif" font-size="10.00">medicine.h</text>
</a>
</g>
</g>
<!-- Node20&#45;&gt;Node21 -->
<g id="edge32_Node000020_Node000021" class="edge">
<title>Node20&#45;&gt;Node21</title>
<g id="a_edge32_Node000020_Node000021"><a xlink:title=" ">
<path fill="none" stroke="#63b8ff" d="M645.15,-289.22C695.22,-277.78 773.22,-259.96 818.38,-249.64"/>
<polygon fill="#63b8ff" stroke="#63b8ff" points="644.19,-285.85 635.22,-291.49 645.75,-292.68 644.19,-285.85"/>
</a>
</g>
</g>
<!-- Node25 -->
<g id="Node000025" class="node">
<title>Node25</title>
<g id="a_Node000025"><a xlink:href="pharmacy_8h.html" target="_top" xlink:title=" ">
<polygon fill="white" stroke="#666666" points="704.5,-195 631.5,-195 631.5,-176 704.5,-176 704.5,-195"/>
<text text-anchor="middle" x="668" y="-183" font-family="Helvetica,sans-Serif" font-size="10.00">pharmacy.h</text>
</a>
</g>
</g>
<!-- Node20&#45;&gt;Node25 -->
<g id="edge53_Node000020_Node000025" class="edge">
<title>Node20&#45;&gt;Node25</title>
<g id="a_edge53_Node000020_Node000025"><a xlink:title=" ">
<path fill="none" stroke="#63b8ff" d="M612.81,-283.51C620.85,-274.09 630.61,-261.84 638,-250 649.62,-231.38 659.73,-207.55 664.71,-195.04"/>
<polygon fill="#63b8ff" stroke="#63b8ff" points="609.99,-281.43 606.04,-291.26 615.26,-286.03 609.99,-281.43"/>
</a>
</g>
</g>
<!-- Node31 -->
<g id="Node000031" class="node">
<title>Node31</title>
<g id="a_Node000031"><a xlink:href="storage_8h.html" target="_top" xlink:title=" ">
<polygon fill="white" stroke="#666666" points="629,-250 567,-250 567,-231 629,-231 629,-250"/>
<text text-anchor="middle" x="598" y="-238" font-family="Helvetica,sans-Serif" font-size="10.00">storage.h</text>
</a>
</g>
</g>
<!-- Node20&#45;&gt;Node31 -->
<g id="edge55_Node000020_Node000031" class="edge">
<title>Node20&#45;&gt;Node31</title>
<g id="a_edge55_Node000020_Node000031"><a xlink:title=" ">
<path fill="none" stroke="#63b8ff" d="M598,-281.16C598,-270.74 598,-258.3 598,-250.17"/>
<polygon fill="#63b8ff" stroke="#63b8ff" points="594.5,-281.37 598,-291.37 601.5,-281.37 594.5,-281.37"/>
</a>
</g>
</g>
<!-- Node21&#45;&gt;Node4 -->
<g id="edge33_Node000021_Node000004" class="edge">
<title>Node21&#45;&gt;Node4</title>
<g id="a_edge33_Node000021_Node000004"><a xlink:title=" ">
<path fill="none" stroke="#63b8ff" d="M838.44,-223.57C824.93,-210.14 804.52,-190.8 785,-176 766.62,-162.06 743.7,-148.48 728.73,-140.06"/>
<polygon fill="#63b8ff" stroke="#63b8ff" points="836.01,-226.09 845.54,-230.71 840.98,-221.15 836.01,-226.09"/>
</a>
</g>
</g>
<!-- Node21&#45;&gt;Node8 -->
<g id="edge43_Node000021_Node000008" class="edge">
<title>Node21&#45;&gt;Node8</title>
<g id="a_edge43_Node000021_Node000008"><a xlink:title=" ">
<path fill="none" stroke="#63b8ff" d="M808.51,-234.33C761.26,-228.13 685.63,-215.88 623,-195 604.71,-188.9 602.18,-182.41 584,-176 536.84,-159.38 481.04,-147.38 441.23,-140.06"/>
<polygon fill="#63b8ff" stroke="#63b8ff" points="808.07,-237.8 818.44,-235.6 808.96,-230.86 808.07,-237.8"/>
</a>
</g>
</g>
<!-- Node22 -->
<g id="Node000022" class="node">
<title>Node22</title>
<g id="a_Node000022"><a xlink:href="medicine_8cpp.html" target="_top" xlink:title=" ">
<polygon fill="white" stroke="#666666" points="1079,-195 997,-195 997,-176 1079,-176 1079,-195"/>
<text text-anchor="middle" x="1038" y="-183" font-family="Helvetica,sans-Serif" font-size="10.00">medicine.cpp</text>
</a>
</g>
</g>
<!-- Node21&#45;&gt;Node22 -->
<g id="edge34_Node000021_Node000022" class="edge">
<title>Node21&#45;&gt;Node22</title>
<g id="a_edge34_Node000021_Node000022"><a xlink:title=" ">
<path fill="none" stroke="#63b8ff" d="M893.29,-228.18C927.7,-218.27 976.96,-204.08 1008.21,-195.08"/>
<polygon fill="#63b8ff" stroke="#63b8ff" points="892.2,-224.85 883.56,-230.98 894.14,-231.58 892.2,-224.85"/>
</a>
</g>
</g>
<!-- Node23 -->
<g id="Node000023" class="node">
<title>Node23</title>
<g id="a_Node000023"><a xlink:href="ointment_8h.html" target="_top" xlink:title=" ">
<polygon fill="white" stroke="#666666" points="907,-195 837,-195 837,-176 907,-176 907,-195"/>
<text text-anchor="middle" x="872" y="-183" font-family="Helvetica,sans-Serif" font-size="10.00">ointment.h</text>
</a>
</g>
</g>
<!-- Node21&#45;&gt;Node23 -->
<g id="edge35_Node000021_Node000023" class="edge">
<title>Node21&#45;&gt;Node23</title>
<g id="a_edge35_Node000021_Node000023"><a xlink:title=" ">
<path fill="none" stroke="#63b8ff" d="M860.2,-221.24C863.21,-212.37 866.69,-202.14 869.08,-195.09"/>
<polygon fill="#63b8ff" stroke="#63b8ff" points="856.87,-220.15 856.97,-230.75 863.5,-222.4 856.87,-220.15"/>
</a>
</g>
</g>
<!-- Node21&#45;&gt;Node25 -->
<g id="edge39_Node000021_Node000025" class="edge">
<title>Node21&#45;&gt;Node25</title>
<g id="a_edge39_Node000021_Node000025"><a xlink:title=" ">
<path fill="none" stroke="#63b8ff" d="M814.29,-228.18C779.5,-218.27 729.71,-204.08 698.12,-195.08"/>
<polygon fill="#63b8ff" stroke="#63b8ff" points="813.54,-231.61 824.12,-230.98 815.46,-224.88 813.54,-231.61"/>
</a>
</g>
</g>
<!-- Node27 -->
<g id="Node000027" class="node">
<title>Node27</title>
<g id="a_Node000027"><a xlink:href="syrup_8h.html" target="_top" xlink:title=" ">
<polygon fill="white" stroke="#666666" points="978.5,-195 925.5,-195 925.5,-176 978.5,-176 978.5,-195"/>
<text text-anchor="middle" x="952" y="-183" font-family="Helvetica,sans-Serif" font-size="10.00">syrup.h</text>
</a>
</g>
</g>
<!-- Node21&#45;&gt;Node27 -->
<g id="edge44_Node000021_Node000027" class="edge">
<title>Node21&#45;&gt;Node27</title>
<g id="a_edge44_Node000021_Node000027"><a xlink:title=" ">
<path fill="none" stroke="#63b8ff" d="M879.03,-225.97C896.94,-216.28 920.53,-203.52 935.97,-195.17"/>
<polygon fill="#63b8ff" stroke="#63b8ff" points="876.88,-223.15 869.75,-230.98 880.21,-229.31 876.88,-223.15"/>
</a>
</g>
</g>
<!-- Node29 -->
<g id="Node000029" class="node">
<title>Node29</title>
<g id="a_Node000029"><a xlink:href="tablet_8h.html" target="_top" xlink:title=" ">
<polygon fill="white" stroke="#666666" points="1151,-195 1097,-195 1097,-176 1151,-176 1151,-195"/>
<text text-anchor="middle" x="1124" y="-183" font-family="Helvetica,sans-Serif" font-size="10.00">tablet.h</text>
</a>
</g>
</g>
<!-- Node21&#45;&gt;Node29 -->
<g id="edge48_Node000021_Node000029" class="edge">
<title>Node21&#45;&gt;Node29</title>
<g id="a_edge48_Node000021_Node000029"><a xlink:title=" ">
<path fill="none" stroke="#63b8ff" d="M899.7,-231.42C946.95,-222.93 1022.81,-208.89 1088,-195 1090.89,-194.38 1093.9,-193.72 1096.9,-193.03"/>
<polygon fill="#63b8ff" stroke="#63b8ff" points="899,-227.99 889.78,-233.2 900.24,-234.88 899,-227.99"/>
</a>
</g>
</g>
<!-- Node23&#45;&gt;Node4 -->
<g id="edge36_Node000023_Node000004" class="edge">
<title>Node23&#45;&gt;Node4</title>
<g id="a_edge36_Node000023_Node000004"><a xlink:title=" ">
<path fill="none" stroke="#63b8ff" d="M836.9,-172.8C807.22,-162.91 765.4,-148.97 738.75,-140.08"/>
<polygon fill="#63b8ff" stroke="#63b8ff" points="835.86,-176.14 846.45,-175.98 838.07,-169.5 835.86,-176.14"/>
</a>
</g>
</g>
<!-- Node23&#45;&gt;Node9 -->
<g id="edge37_Node000023_Node000009" class="edge">
<title>Node23&#45;&gt;Node9</title>
<g id="a_edge37_Node000023_Node000009"><a xlink:title=" ">
<path fill="none" stroke="#63b8ff" d="M876.2,-165.67C880.28,-151.54 887.84,-132.68 901,-121 927.43,-97.53 966.33,-86.43 996.26,-81.18"/>
<polygon fill="#63b8ff" stroke="#63b8ff" points="872.71,-165.22 873.63,-175.77 879.49,-166.94 872.71,-165.22"/>
</a>
</g>
</g>
<!-- Node24 -->
<g id="Node000024" class="node">
<title>Node24</title>
<g id="a_Node000024"><a xlink:href="ointment_8cpp.html" target="_top" xlink:title=" ">
<polygon fill="white" stroke="#666666" points="853.5,-140 772.5,-140 772.5,-121 853.5,-121 853.5,-140"/>
<text text-anchor="middle" x="813" y="-128" font-family="Helvetica,sans-Serif" font-size="10.00">ointment.cpp</text>
</a>
</g>
</g>
<!-- Node23&#45;&gt;Node24 -->
<g id="edge38_Node000023_Node000024" class="edge">
<title>Node23&#45;&gt;Node24</title>
<g id="a_edge38_Node000023_Node000024"><a xlink:title=" ">
<path fill="none" stroke="#63b8ff" d="M854.8,-169.04C844.33,-159.64 831.35,-147.98 822.65,-140.17"/>
<polygon fill="#63b8ff" stroke="#63b8ff" points="852.74,-171.91 862.52,-175.98 857.42,-166.7 852.74,-171.91"/>
</a>
</g>
</g>
<!-- Node25&#45;&gt;Node4 -->
<g id="edge40_Node000025_Node000004" class="edge">
<title>Node25&#45;&gt;Node4</title>
<g id="a_edge40_Node000025_Node000004"><a xlink:title=" ">
<path fill="none" stroke="#63b8ff" d="M682.05,-167.96C689.89,-158.72 699.33,-147.6 705.71,-140.09"/>
<polygon fill="#63b8ff" stroke="#63b8ff" points="679.24,-165.86 675.43,-175.75 684.57,-170.39 679.24,-165.86"/>
</a>
</g>
</g>
<!-- Node25&#45;&gt;Node8 -->
<g id="edge42_Node000025_Node000008" class="edge">
<title>Node25&#45;&gt;Node8</title>
<g id="a_edge42_Node000025_Node000008"><a xlink:title=" ">
<path fill="none" stroke="#63b8ff" d="M621.26,-175.62C569.19,-165.73 485.59,-149.85 434.16,-140.08"/>
<polygon fill="#63b8ff" stroke="#63b8ff" points="620.76,-179.09 631.24,-177.52 622.07,-172.21 620.76,-179.09"/>
</a>
</g>
</g>
<!-- Node26 -->
<g id="Node000026" class="node">
<title>Node26</title>
<g id="a_Node000026"><a xlink:href="pharmacy_8cpp.html" target="_top" xlink:title=" ">
<polygon fill="white" stroke="#666666" points="653,-140 569,-140 569,-121 653,-121 653,-140"/>
<text text-anchor="middle" x="611" y="-128" font-family="Helvetica,sans-Serif" font-size="10.00">pharmacy.cpp</text>
</a>
</g>
</g>
<!-- Node25&#45;&gt;Node26 -->
<g id="edge41_Node000025_Node000026" class="edge">
<title>Node25&#45;&gt;Node26</title>
<g id="a_edge41_Node000025_Node000026"><a xlink:title=" ">
<path fill="none" stroke="#63b8ff" d="M651.38,-169.04C641.27,-159.64 628.72,-147.98 620.32,-140.17"/>
<polygon fill="#63b8ff" stroke="#63b8ff" points="649.14,-171.74 658.84,-175.98 653.9,-166.61 649.14,-171.74"/>
</a>
</g>
</g>
<!-- Node27&#45;&gt;Node4 -->
<g id="edge45_Node000027_Node000004" class="edge">
<title>Node27&#45;&gt;Node4</title>
<g id="a_edge45_Node000027_Node000004"><a xlink:title=" ">
<path fill="none" stroke="#63b8ff" d="M915.24,-175.86C852.75,-161.67 791.59,-148.38 752.72,-140.01"/>
<polygon fill="#63b8ff" stroke="#63b8ff" points="914.75,-179.33 925.27,-178.14 916.3,-172.51 914.75,-179.33"/>
</a>
</g>
</g>
<!-- Node27&#45;&gt;Node9 -->
<g id="edge46_Node000027_Node000009" class="edge">
<title>Node27&#45;&gt;Node9</title>
<g id="a_edge46_Node000027_Node000009"><a xlink:title=" ">
<path fill="none" stroke="#63b8ff" d="M965.7,-167.69C984.7,-144.37 1018.37,-103.05 1032.95,-85.16"/>
<polygon fill="#63b8ff" stroke="#63b8ff" points="962.8,-165.7 959.2,-175.66 968.23,-170.12 962.8,-165.7"/>
</a>
</g>
</g>
<!-- Node28 -->
<g id="Node000028" class="node">
<title>Node28</title>
<g id="a_Node000028"><a xlink:href="syrup_8cpp.html" target="_top" xlink:title=" ">
<polygon fill="white" stroke="#666666" points="974,-140 910,-140 910,-121 974,-121 974,-140"/>
<text text-anchor="middle" x="942" y="-128" font-family="Helvetica,sans-Serif" font-size="10.00">syrup.cpp</text>
</a>
</g>
</g>
<!-- Node27&#45;&gt;Node28 -->
<g id="edge47_Node000027_Node000028" class="edge">
<title>Node27&#45;&gt;Node28</title>
<g id="a_edge47_Node000027_Node000028"><a xlink:title=" ">
<path fill="none" stroke="#63b8ff" d="M948.45,-165.66C946.8,-156.93 944.92,-146.99 943.62,-140.09"/>
<polygon fill="#63b8ff" stroke="#63b8ff" points="945.06,-166.57 950.35,-175.75 951.93,-165.27 945.06,-166.57"/>
</a>
</g>
</g>
<!-- Node29&#45;&gt;Node4 -->
<g id="edge49_Node000029_Node000004" class="edge">
<title>Node29&#45;&gt;Node4</title>
<g id="a_edge49_Node000029_Node000004"><a xlink:title=" ">
<path fill="none" stroke="#63b8ff" d="M1086.89,-176.01C943.49,-151.68 904.29,-159.47 764,-140 760.98,-139.58 757.86,-139.12 754.72,-138.64"/>
<polygon fill="#63b8ff" stroke="#63b8ff" points="1086.5,-179.5 1096.95,-177.74 1087.68,-172.6 1086.5,-179.5"/>
</a>
</g>
</g>
<!-- Node29&#45;&gt;Node9 -->
<g id="edge50_Node000029_Node000009" class="edge">
<title>Node29&#45;&gt;Node9</title>
<g id="a_edge50_Node000029_Node000009"><a xlink:title=" ">
<path fill="none" stroke="#63b8ff" d="M1136.58,-167.25C1144.72,-153.78 1152.24,-135.06 1143,-121 1129.79,-100.9 1105.35,-89.83 1083.6,-83.77"/>
<polygon fill="#63b8ff" stroke="#63b8ff" points="1133.64,-165.34 1131.04,-175.61 1139.48,-169.21 1133.64,-165.34"/>
</a>
</g>
</g>
<!-- Node29&#45;&gt;Node13 -->
<g id="edge51_Node000029_Node000013" class="edge">
<title>Node29&#45;&gt;Node13</title>
<g id="a_edge51_Node000029_Node000013"><a xlink:title=" ">
<path fill="none" stroke="#63b8ff" d="M1100.59,-171.01C1073.31,-156 1026.44,-132.38 983,-121 902.97,-100.03 665.7,-85.58 550.37,-79.59"/>
<polygon fill="#63b8ff" stroke="#63b8ff" points="1098.94,-174.1 1109.38,-175.92 1102.36,-167.99 1098.94,-174.1"/>
</a>
</g>
</g>
<!-- Node30 -->
<g id="Node000030" class="node">
<title>Node30</title>
<g id="a_Node000030"><a xlink:href="tablet_8cpp.html" target="_top" xlink:title=" ">
<polygon fill="white" stroke="#666666" points="1133.5,-140 1068.5,-140 1068.5,-121 1133.5,-121 1133.5,-140"/>
<text text-anchor="middle" x="1101" y="-128" font-family="Helvetica,sans-Serif" font-size="10.00">tablet.cpp</text>
</a>
</g>
</g>
<!-- Node29&#45;&gt;Node30 -->
<g id="edge52_Node000029_Node000030" class="edge">
<title>Node29&#45;&gt;Node30</title>
<g id="a_edge52_Node000029_Node000030"><a xlink:title=" ">
<path fill="none" stroke="#63b8ff" d="M1116.2,-166.53C1112.32,-157.6 1107.82,-147.22 1104.73,-140.09"/>
<polygon fill="#63b8ff" stroke="#63b8ff" points="1113.01,-167.97 1120.2,-175.75 1119.43,-165.18 1113.01,-167.97"/>
</a>
</g>
</g>
<!-- Node31&#45;&gt;Node25 -->
<g id="edge56_Node000031_Node000025" class="edge">
<title>Node31&#45;&gt;Node25</title>
<g id="a_edge56_Node000031_Node000025"><a xlink:title=" ">
<path fill="none" stroke="#63b8ff" d="M617.31,-224.88C629.91,-215.34 645.93,-203.21 656.55,-195.17"/>
<polygon fill="#63b8ff" stroke="#63b8ff" points="615.11,-222.16 609.25,-230.98 619.33,-227.74 615.11,-222.16"/>
</a>
</g>
</g>
<!-- Node32 -->
<g id="Node000032" class="node">
<title>Node32</title>
<g id="a_Node000032"><a xlink:href="storage_8cpp.html" target="_top" xlink:title=" ">
<polygon fill="white" stroke="#666666" points="575,-195 501,-195 501,-176 575,-176 575,-195"/>
<text text-anchor="middle" x="538" y="-183" font-family="Helvetica,sans-Serif" font-size="10.00">storage.cpp</text>
</a>
</g>
</g>
<!-- Node31&#45;&gt;Node32 -->
<g id="edge57_Node000031_Node000032" class="edge">
<title>Node31&#45;&gt;Node32</title>
<g id="a_edge57_Node000031_Node000032"><a xlink:title=" ">
<path fill="none" stroke="#63b8ff" d="M580.82,-224.32C570.12,-214.87 556.74,-203.06 547.82,-195.17"/>
<polygon fill="#63b8ff" stroke="#63b8ff" points="578.55,-226.99 588.36,-230.98 583.18,-221.74 578.55,-226.99"/>
</a>
</g>
</g>
</g>
</svg>
