<?xml version="1.0" encoding="UTF-8" standalone="no"?>
<!DOCTYPE svg PUBLIC "-//W3C//DTD SVG 1.1//EN"
 "http://www.w3.org/Graphics/SVG/1.1/DTD/svg11.dtd">
<!-- Generated by graphviz version 2.43.0 (0)
 -->
<!-- Title: storage.cpp Pages: 1 -->
<svg width="740pt" height="280pt"
 viewBox="0.00 0.00 739.92 280.00" xmlns="http://www.w3.org/2000/svg" xmlns:xlink="http://www.w3.org/1999/xlink">
<g id="graph0" class="graph" transform="scale(1 1) rotate(0) translate(4 276)">
<title>storage.cpp</title>
<!-- Node1 -->
<g id="Node000001" class="node">
<title>Node1</title>
<g id="a_Node000001"><a xlink:title=" ">
<polygon fill="#999999" stroke="#666666" points="382.92,-272 308.92,-272 308.92,-253 382.92,-253 382.92,-272"/>
<text text-anchor="middle" x="345.92" y="-260" font-family="Helvetica,sans-Serif" font-size="10.00">storage.cpp</text>
</a>
</g>
</g>
<!-- Node2 -->
<g id="Node000002" class="node">
<title>Node2</title>
<g id="a_Node000002"><a xlink:href="storage_8h.html" target="_top" xlink:title=" ">
<polygon fill="white" stroke="#666666" points="525.92,-211.5 463.92,-211.5 463.92,-192.5 525.92,-192.5 525.92,-211.5"/>
<text text-anchor="middle" x="494.92" y="-199.5" font-family="Helvetica,sans-Serif" font-size="10.00">storage.h</text>
</a>
</g>
</g>
<!-- Node1&#45;&gt;Node2 -->
<g id="edge1_Node000001_Node000002" class="edge">
<title>Node1&#45;&gt;Node2</title>
<g id="a_edge1_Node000001_Node000002"><a xlink:title=" ">
<path fill="none" stroke="#63b8ff" d="M367.58,-252.99C392.85,-243.07 434.83,-226.59 463.64,-215.28"/>
<polygon fill="#63b8ff" stroke="#63b8ff" points="465.2,-218.43 473.23,-211.52 462.64,-211.91 465.2,-218.43"/>
</a>
</g>
</g>
<!-- Node8 -->
<g id="Node000008" class="node">
<title>Node8</title>
<g id="a_Node000008"><a xlink:title=" ">
<polygon fill="#e0e0e0" stroke="#999999" points="474.42,-19 409.42,-19 409.42,0 474.42,0 474.42,-19"/>
<text text-anchor="middle" x="441.92" y="-7" font-family="Helvetica,sans-Serif" font-size="10.00">stdexcept</text>
</a>
</g>
</g>
<!-- Node1&#45;&gt;Node8 -->
<g id="edge21_Node000001_Node000008" class="edge">
<title>Node1&#45;&gt;Node8</title>
<g id="a_edge21_Node000001_Node000008"><a xlink:title=" ">
<path fill="none" stroke="#63b8ff" d="M355.37,-252.83C363.98,-244.45 376.45,-230.98 383.92,-217 418.08,-152.99 433.84,-66.8 439.42,-29.27"/>
<polygon fill="#63b8ff" stroke="#63b8ff" points="442.9,-29.65 440.83,-19.26 435.97,-28.67 442.9,-29.65"/>
</a>
</g>
</g>
<!-- Node12 -->
<g id="Node000012" class="node">
<title>Node12</title>
<g id="a_Node000012"><a xlink:href="InventoryException_8h.html" target="_top" xlink:title=" ">
<polygon fill="white" stroke="#666666" points="231.42,-151 64.42,-151 64.42,-121 231.42,-121 231.42,-151"/>
<text text-anchor="start" x="72.42" y="-139" font-family="Helvetica,sans-Serif" font-size="10.00">Exception/InventoryExceptions</text>
<text text-anchor="middle" x="147.92" y="-128" font-family="Helvetica,sans-Serif" font-size="10.00">/InventoryException.h</text>
</a>
</g>
</g>
<!-- Node1&#45;&gt;Node12 -->
<g id="edge13_Node000001_Node000012" class="edge">
<title>Node1&#45;&gt;Node12</title>
<g id="a_edge13_Node000001_Node000012"><a xlink:title=" ">
<path fill="none" stroke="#63b8ff" d="M308.84,-259.34C225.2,-254.08 27.55,-239.39 7.92,-217 -17.53,-187.98 25.05,-167.01 69.75,-153.84"/>
<polygon fill="#63b8ff" stroke="#63b8ff" points="70.93,-157.15 79.6,-151.07 69.03,-150.41 70.93,-157.15"/>
</a>
</g>
</g>
<!-- Node14 -->
<g id="Node000014" class="node">
<title>Node14</title>
<g id="a_Node000014"><a xlink:href="NegativeQuantityException_8h.html" target="_top" xlink:title=" ">
<polygon fill="white" stroke="#666666" points="184.42,-217 17.42,-217 17.42,-187 184.42,-187 184.42,-217"/>
<text text-anchor="start" x="25.42" y="-205" font-family="Helvetica,sans-Serif" font-size="10.00">Exception/InventoryExceptions</text>
<text text-anchor="middle" x="100.92" y="-194" font-family="Helvetica,sans-Serif" font-size="10.00">/NegativeQuantityException.h</text>
</a>
</g>
</g>
<!-- Node1&#45;&gt;Node14 -->
<g id="edge16_Node000001_Node000014" class="edge">
<title>Node1&#45;&gt;Node14</title>
<g id="a_edge16_Node000001_Node000014"><a xlink:title=" ">
<path fill="none" stroke="#63b8ff" d="M310.29,-252.99C273.57,-244.23 215.39,-230.33 169.67,-219.42"/>
<polygon fill="#63b8ff" stroke="#63b8ff" points="170.36,-215.98 159.82,-217.06 168.73,-222.79 170.36,-215.98"/>
</a>
</g>
</g>
<!-- Node15 -->
<g id="Node000015" class="node">
<title>Node15</title>
<g id="a_Node000015"><a xlink:href="InsufficientQuantityException_8h.html" target="_top" xlink:title=" ">
<polygon fill="white" stroke="#666666" points="375.42,-217 202.42,-217 202.42,-187 375.42,-187 375.42,-217"/>
<text text-anchor="start" x="210.42" y="-205" font-family="Helvetica,sans-Serif" font-size="10.00">Exception/InventoryExceptions</text>
<text text-anchor="middle" x="288.92" y="-194" font-family="Helvetica,sans-Serif" font-size="10.00">/InsufficientQuantityException.h</text>
</a>
</g>
</g>
<!-- Node1&#45;&gt;Node15 -->
<g id="edge18_Node000001_Node000015" class="edge">
<title>Node1&#45;&gt;Node15</title>
<g id="a_edge18_Node000001_Node000015"><a xlink:title=" ">
<path fill="none" stroke="#63b8ff" d="M337.51,-252.87C330.2,-245.37 319.32,-234.2 309.7,-224.33"/>
<polygon fill="#63b8ff" stroke="#63b8ff" points="312.16,-221.83 302.67,-217.11 307.14,-226.72 312.16,-221.83"/>
</a>
</g>
</g>
<!-- Node16 -->
<g id="Node000016" class="node">
<title>Node16</title>
<g id="a_Node000016"><a xlink:title=" ">
<polygon fill="#e0e0e0" stroke="#999999" points="607.92,-211.5 543.92,-211.5 543.92,-192.5 607.92,-192.5 607.92,-211.5"/>
<text text-anchor="middle" x="575.92" y="-199.5" font-family="Helvetica,sans-Serif" font-size="10.00">algorithm</text>
</a>
</g>
</g>
<!-- Node1&#45;&gt;Node16 -->
<g id="edge20_Node000001_Node000016" class="edge">
<title>Node1&#45;&gt;Node16</title>
<g id="a_edge20_Node000001_Node000016"><a xlink:title=" ">
<path fill="none" stroke="#63b8ff" d="M383.13,-253.86C421.45,-245.74 482.76,-232.01 534.92,-217 537.38,-216.29 539.92,-215.52 542.47,-214.72"/>
<polygon fill="#63b8ff" stroke="#63b8ff" points="543.78,-217.97 552.19,-211.54 541.6,-211.32 543.78,-217.97"/>
</a>
</g>
</g>
<!-- Node3 -->
<g id="Node000003" class="node">
<title>Node3</title>
<g id="a_Node000003"><a xlink:href="medicalproduct_8h.html" target="_top" xlink:title=" ">
<polygon fill="white" stroke="#666666" points="675.42,-145.5 574.42,-145.5 574.42,-126.5 675.42,-126.5 675.42,-145.5"/>
<text text-anchor="middle" x="624.92" y="-133.5" font-family="Helvetica,sans-Serif" font-size="10.00">medicalproduct.h</text>
</a>
</g>
</g>
<!-- Node2&#45;&gt;Node3 -->
<g id="edge2_Node000002_Node000003" class="edge">
<title>Node2&#45;&gt;Node3</title>
<g id="a_edge2_Node000002_Node000003"><a xlink:title=" ">
<path fill="none" stroke="#63b8ff" d="M512.45,-192.37C534.45,-181.54 572.4,-162.85 598.07,-150.22"/>
<polygon fill="#63b8ff" stroke="#63b8ff" points="599.82,-153.26 607.25,-145.7 596.73,-146.98 599.82,-153.26"/>
</a>
</g>
</g>
<!-- Node9 -->
<g id="Node000009" class="node">
<title>Node9</title>
<g id="a_Node000009"><a xlink:title=" ">
<polygon fill="#e0e0e0" stroke="#999999" points="731.92,-145.5 693.92,-145.5 693.92,-126.5 731.92,-126.5 731.92,-145.5"/>
<text text-anchor="middle" x="712.92" y="-133.5" font-family="Helvetica,sans-Serif" font-size="10.00">map</text>
</a>
</g>
</g>
<!-- Node2&#45;&gt;Node9 -->
<g id="edge10_Node000002_Node000009" class="edge">
<title>Node2&#45;&gt;Node9</title>
<g id="a_edge10_Node000002_Node000009"><a xlink:title=" ">
<path fill="none" stroke="#63b8ff" d="M518.06,-192.46C523.55,-190.55 529.41,-188.62 534.92,-187 600.69,-167.65 620.5,-174.48 684.92,-151 685.94,-150.63 686.97,-150.23 688.01,-149.81"/>
<polygon fill="#63b8ff" stroke="#63b8ff" points="689.54,-152.96 697.2,-145.64 686.65,-146.58 689.54,-152.96"/>
</a>
</g>
</g>
<!-- Node10 -->
<g id="Node000010" class="node">
<title>Node10</title>
<g id="a_Node000010"><a xlink:title=" ">
<polygon fill="#e0e0e0" stroke="#999999" points="479.42,-145.5 432.42,-145.5 432.42,-126.5 479.42,-126.5 479.42,-145.5"/>
<text text-anchor="middle" x="455.92" y="-133.5" font-family="Helvetica,sans-Serif" font-size="10.00">vector</text>
</a>
</g>
</g>
<!-- Node2&#45;&gt;Node10 -->
<g id="edge11_Node000002_Node000010" class="edge">
<title>Node2&#45;&gt;Node10</title>
<g id="a_edge11_Node000002_Node000010"><a xlink:title=" ">
<path fill="none" stroke="#63b8ff" d="M489.66,-192.37C483.82,-182.78 474.23,-167.05 466.76,-154.8"/>
<polygon fill="#63b8ff" stroke="#63b8ff" points="469.54,-152.62 461.34,-145.91 463.56,-156.27 469.54,-152.62"/>
</a>
</g>
</g>
<!-- Node11 -->
<g id="Node000011" class="node">
<title>Node11</title>
<g id="a_Node000011"><a xlink:title=" ">
<polygon fill="#e0e0e0" stroke="#999999" points="555.92,-145.5 497.92,-145.5 497.92,-126.5 555.92,-126.5 555.92,-145.5"/>
<text text-anchor="middle" x="526.92" y="-133.5" font-family="Helvetica,sans-Serif" font-size="10.00">memory</text>
</a>
</g>
</g>
<!-- Node2&#45;&gt;Node11 -->
<g id="edge12_Node000002_Node000011" class="edge">
<title>Node2&#45;&gt;Node11</title>
<g id="a_edge12_Node000002_Node000011"><a xlink:title=" ">
<path fill="none" stroke="#63b8ff" d="M499.23,-192.37C503.98,-182.88 511.74,-167.36 517.84,-155.16"/>
<polygon fill="#63b8ff" stroke="#63b8ff" points="521.12,-156.41 522.46,-145.91 514.86,-153.28 521.12,-156.41"/>
</a>
</g>
</g>
<!-- Node4 -->
<g id="Node000004" class="node">
<title>Node4</title>
<g id="a_Node000004"><a xlink:title=" ">
<polygon fill="#e0e0e0" stroke="#999999" points="374.92,-19 314.92,-19 314.92,0 374.92,0 374.92,-19"/>
<text text-anchor="middle" x="344.92" y="-7" font-family="Helvetica,sans-Serif" font-size="10.00">iostream</text>
</a>
</g>
</g>
<!-- Node3&#45;&gt;Node4 -->
<g id="edge3_Node000003_Node000004" class="edge">
<title>Node3&#45;&gt;Node4</title>
<g id="a_edge3_Node000003_Node000004"><a xlink:title=" ">
<path fill="none" stroke="#63b8ff" d="M602.34,-126.38C577.35,-116.73 535.98,-100.42 500.92,-85 454.81,-64.72 402.11,-39.01 371.27,-23.71"/>
<polygon fill="#63b8ff" stroke="#63b8ff" points="372.58,-20.45 362.07,-19.12 369.46,-26.71 372.58,-20.45"/>
</a>
</g>
</g>
<!-- Node5 -->
<g id="Node000005" class="node">
<title>Node5</title>
<g id="a_Node000005"><a xlink:title=" ">
<polygon fill="#e0e0e0" stroke="#999999" points="574.92,-19 530.92,-19 530.92,0 574.92,0 574.92,-19"/>
<text text-anchor="middle" x="552.92" y="-7" font-family="Helvetica,sans-Serif" font-size="10.00">string</text>
</a>
</g>
</g>
<!-- Node3&#45;&gt;Node5 -->
<g id="edge4_Node000003_Node000005" class="edge">
<title>Node3&#45;&gt;Node5</title>
<g id="a_edge4_Node000003_Node000005"><a xlink:title=" ">
<path fill="none" stroke="#63b8ff" d="M621.49,-126.29C615.41,-111.25 601.98,-79.68 586.92,-55 581.04,-45.37 573.51,-35.33 567.02,-27.23"/>
<polygon fill="#63b8ff" stroke="#63b8ff" points="569.58,-24.82 560.53,-19.31 564.17,-29.26 569.58,-24.82"/>
</a>
</g>
</g>
<!-- Node6 -->
<g id="Node000006" class="node">
<title>Node6</title>
<g id="a_Node000006"><a xlink:title=" ">
<polygon fill="#e0e0e0" stroke="#999999" points="655.92,-19 611.92,-19 611.92,0 655.92,0 655.92,-19"/>
<text text-anchor="middle" x="633.92" y="-7" font-family="Helvetica,sans-Serif" font-size="10.00">ctime</text>
</a>
</g>
</g>
<!-- Node3&#45;&gt;Node6 -->
<g id="edge5_Node000003_Node000006" class="edge">
<title>Node3&#45;&gt;Node6</title>
<g id="a_edge5_Node000003_Node000006"><a xlink:title=" ">
<path fill="none" stroke="#63b8ff" d="M625.54,-126.44C626.97,-106.54 630.57,-56.76 632.56,-29.35"/>
<polygon fill="#63b8ff" stroke="#63b8ff" points="636.06,-29.34 633.29,-19.12 629.08,-28.84 636.06,-29.34"/>
</a>
</g>
</g>
<!-- Node7 -->
<g id="Node000007" class="node">
<title>Node7</title>
<g id="a_Node000007"><a xlink:href="safedate_8h.html" target="_top" xlink:title=" ">
<polygon fill="white" stroke="#666666" points="577.92,-79.5 509.92,-79.5 509.92,-60.5 577.92,-60.5 577.92,-79.5"/>
<text text-anchor="middle" x="543.92" y="-67.5" font-family="Helvetica,sans-Serif" font-size="10.00">safedate.h</text>
</a>
</g>
</g>
<!-- Node3&#45;&gt;Node7 -->
<g id="edge6_Node000003_Node000007" class="edge">
<title>Node3&#45;&gt;Node7</title>
<g id="a_edge6_Node000003_Node000007"><a xlink:title=" ">
<path fill="none" stroke="#63b8ff" d="M613.99,-126.37C600.95,-116.06 578.91,-98.65 563.02,-86.09"/>
<polygon fill="#63b8ff" stroke="#63b8ff" points="564.94,-83.15 554.93,-79.7 560.6,-88.64 564.94,-83.15"/>
</a>
</g>
</g>
<!-- Node7&#45;&gt;Node5 -->
<g id="edge9_Node000007_Node000005" class="edge">
<title>Node7&#45;&gt;Node5</title>
<g id="a_edge9_Node000007_Node000005"><a xlink:title=" ">
<path fill="none" stroke="#63b8ff" d="M545.25,-60.37C546.51,-52.16 548.45,-39.54 550.06,-29.05"/>
<polygon fill="#63b8ff" stroke="#63b8ff" points="553.52,-29.58 551.58,-19.17 546.6,-28.52 553.52,-29.58"/>
</a>
</g>
</g>
<!-- Node7&#45;&gt;Node6 -->
<g id="edge7_Node000007_Node000006" class="edge">
<title>Node7&#45;&gt;Node6</title>
<g id="a_edge7_Node000007_Node000006"><a xlink:title=" ">
<path fill="none" stroke="#63b8ff" d="M557.2,-60.37C571.55,-51.04 594.68,-36.01 611.79,-24.88"/>
<polygon fill="#63b8ff" stroke="#63b8ff" points="614.11,-27.55 620.58,-19.17 610.29,-21.68 614.11,-27.55"/>
</a>
</g>
</g>
<!-- Node7&#45;&gt;Node8 -->
<g id="edge8_Node000007_Node000008" class="edge">
<title>Node7&#45;&gt;Node8</title>
<g id="a_edge8_Node000007_Node000008"><a xlink:title=" ">
<path fill="none" stroke="#63b8ff" d="M528.87,-60.37C512.29,-50.86 485.42,-35.45 465.93,-24.27"/>
<polygon fill="#63b8ff" stroke="#63b8ff" points="467.45,-21.11 457.03,-19.17 463.96,-27.18 467.45,-21.11"/>
</a>
</g>
</g>
<!-- Node13 -->
<g id="Node000013" class="node">
<title>Node13</title>
<g id="a_Node000013"><a xlink:href="PharmacyException_8h.html" target="_top" xlink:title=" ">
<polygon fill="white" stroke="#666666" points="280.92,-85 110.92,-85 110.92,-55 280.92,-55 280.92,-85"/>
<text text-anchor="start" x="118.92" y="-73" font-family="Helvetica,sans-Serif" font-size="10.00">Exception/PharmacyExceptions</text>
<text text-anchor="middle" x="195.92" y="-62" font-family="Helvetica,sans-Serif" font-size="10.00">/PharmacyException.h</text>
</a>
</g>
</g>
<!-- Node12&#45;&gt;Node13 -->
<g id="edge14_Node000012_Node000013" class="edge">
<title>Node12&#45;&gt;Node13</title>
<g id="a_edge14_Node000012_Node000013"><a xlink:title=" ">
<path fill="none" stroke="#63b8ff" d="M158.57,-120.8C164.6,-112.76 172.27,-102.53 179.1,-93.43"/>
<polygon fill="#63b8ff" stroke="#63b8ff" points="182.09,-95.26 185.29,-85.16 176.49,-91.06 182.09,-95.26"/>
</a>
</g>
</g>
<!-- Node13&#45;&gt;Node4 -->
<g id="edge15_Node000013_Node000004" class="edge">
<title>Node13&#45;&gt;Node4</title>
<g id="a_edge15_Node000013_Node000004"><a xlink:title=" ">
<path fill="none" stroke="#63b8ff" d="M231.61,-54.99C256.58,-45.18 289.62,-32.21 313.57,-22.81"/>
<polygon fill="#63b8ff" stroke="#63b8ff" points="314.88,-26.05 322.91,-19.14 312.33,-19.54 314.88,-26.05"/>
</a>
</g>
</g>
<!-- Node14&#45;&gt;Node12 -->
<g id="edge17_Node000014_Node000012" class="edge">
<title>Node14&#45;&gt;Node12</title>
<g id="a_edge17_Node000014_Node000012"><a xlink:title=" ">
<path fill="none" stroke="#63b8ff" d="M111.35,-186.8C117.25,-178.76 124.77,-168.53 131.45,-159.43"/>
<polygon fill="#63b8ff" stroke="#63b8ff" points="134.42,-161.3 137.52,-151.16 128.78,-157.15 134.42,-161.3"/>
</a>
</g>
</g>
<!-- Node15&#45;&gt;Node12 -->
<g id="edge19_Node000015_Node000012" class="edge">
<title>Node15&#45;&gt;Node12</title>
<g id="a_edge19_Node000015_Node000012"><a xlink:title=" ">
<path fill="none" stroke="#63b8ff" d="M257.97,-186.95C237.4,-177.62 210.19,-165.27 187.97,-155.18"/>
<polygon fill="#63b8ff" stroke="#63b8ff" points="189.34,-151.96 178.79,-151.01 186.45,-158.33 189.34,-151.96"/>
</a>
</g>
</g>
</g>
</svg>
