<?xml version="1.0" encoding="UTF-8" standalone="no"?>
<!DOCTYPE svg PUBLIC "-//W3C//DTD SVG 1.1//EN"
 "http://www.w3.org/Graphics/SVG/1.1/DTD/svg11.dtd">
<!-- Generated by graphviz version 2.43.0 (0)
 -->
<!-- Title: storage.h Pages: 1 -->
<svg width="411pt" height="258pt"
 viewBox="0.00 0.00 410.50 258.00" xmlns="http://www.w3.org/2000/svg" xmlns:xlink="http://www.w3.org/1999/xlink">
<g id="graph0" class="graph" transform="scale(1 1) rotate(0) translate(4 254)">
<title>storage.h</title>
<!-- Node1 -->
<g id="Node000001" class="node">
<title>Node1</title>
<g id="a_Node000001"><a xlink:title=" ">
<polygon fill="#999999" stroke="#666666" points="226.5,-250 164.5,-250 164.5,-231 226.5,-231 226.5,-250"/>
<text text-anchor="middle" x="195.5" y="-238" font-family="Helvetica,sans-Serif" font-size="10.00">storage.h</text>
</a>
</g>
</g>
<!-- Node2 -->
<g id="Node000002" class="node">
<title>Node2</title>
<g id="a_Node000002"><a xlink:href="pharmacy_8h.html" target="_top" xlink:title=" ">
<polygon fill="white" stroke="#666666" points="186,-195 113,-195 113,-176 186,-176 186,-195"/>
<text text-anchor="middle" x="149.5" y="-183" font-family="Helvetica,sans-Serif" font-size="10.00">pharmacy.h</text>
</a>
</g>
</g>
<!-- Node1&#45;&gt;Node2 -->
<g id="edge1_Node000001_Node000002" class="edge">
<title>Node1&#45;&gt;Node2</title>
<g id="a_edge1_Node000001_Node000002"><a xlink:title=" ">
<path fill="none" stroke="#63b8ff" d="M181.14,-222.96C173.13,-213.72 163.47,-202.6 156.95,-195.09"/>
<polygon fill="#63b8ff" stroke="#63b8ff" points="178.71,-225.49 187.9,-230.75 183.99,-220.9 178.71,-225.49"/>
</a>
</g>
</g>
<!-- Node12 -->
<g id="Node000012" class="node">
<title>Node12</title>
<g id="a_Node000012"><a xlink:href="storage_8cpp.html" target="_top" xlink:title=" ">
<polygon fill="white" stroke="#666666" points="278.5,-195 204.5,-195 204.5,-176 278.5,-176 278.5,-195"/>
<text text-anchor="middle" x="241.5" y="-183" font-family="Helvetica,sans-Serif" font-size="10.00">storage.cpp</text>
</a>
</g>
</g>
<!-- Node1&#45;&gt;Node12 -->
<g id="edge11_Node000001_Node000012" class="edge">
<title>Node1&#45;&gt;Node12</title>
<g id="a_edge11_Node000001_Node000012"><a xlink:title=" ">
<path fill="none" stroke="#63b8ff" d="M209.86,-222.96C217.87,-213.72 227.53,-202.6 234.05,-195.09"/>
<polygon fill="#63b8ff" stroke="#63b8ff" points="207.01,-220.9 203.1,-230.75 212.29,-225.49 207.01,-220.9"/>
</a>
</g>
</g>
<!-- Node3 -->
<g id="Node000003" class="node">
<title>Node3</title>
<g id="a_Node000003"><a xlink:href="filemanager_8h.html" target="_top" xlink:title=" ">
<polygon fill="white" stroke="#666666" points="89,-140 6,-140 6,-121 89,-121 89,-140"/>
<text text-anchor="middle" x="47.5" y="-128" font-family="Helvetica,sans-Serif" font-size="10.00">filemanager.h</text>
</a>
</g>
</g>
<!-- Node2&#45;&gt;Node3 -->
<g id="edge2_Node000002_Node000003" class="edge">
<title>Node2&#45;&gt;Node3</title>
<g id="a_edge2_Node000002_Node000003"><a xlink:title=" ">
<path fill="none" stroke="#63b8ff" d="M124.23,-171.37C105.49,-161.63 80.48,-148.64 64.19,-140.17"/>
<polygon fill="#63b8ff" stroke="#63b8ff" points="122.62,-174.48 133.11,-175.98 125.85,-168.27 122.62,-174.48"/>
</a>
</g>
</g>
<!-- Node5 -->
<g id="Node000005" class="node">
<title>Node5</title>
<g id="a_Node000005"><a xlink:href="pharmacy_8cpp.html" target="_top" xlink:title=" ">
<polygon fill="white" stroke="#666666" points="191.5,-140 107.5,-140 107.5,-121 191.5,-121 191.5,-140"/>
<text text-anchor="middle" x="149.5" y="-128" font-family="Helvetica,sans-Serif" font-size="10.00">pharmacy.cpp</text>
</a>
</g>
</g>
<!-- Node2&#45;&gt;Node5 -->
<g id="edge4_Node000002_Node000005" class="edge">
<title>Node2&#45;&gt;Node5</title>
<g id="a_edge4_Node000002_Node000005"><a xlink:title=" ">
<path fill="none" stroke="#63b8ff" d="M149.5,-165.66C149.5,-156.93 149.5,-146.99 149.5,-140.09"/>
<polygon fill="#63b8ff" stroke="#63b8ff" points="146,-165.75 149.5,-175.75 153,-165.75 146,-165.75"/>
</a>
</g>
</g>
<!-- Node6 -->
<g id="Node000006" class="node">
<title>Node6</title>
<g id="a_Node000006"><a xlink:href="pharmacymanager_8h.html" target="_top" xlink:title=" ">
<polygon fill="white" stroke="#666666" points="327,-140 210,-140 210,-121 327,-121 327,-140"/>
<text text-anchor="middle" x="268.5" y="-128" font-family="Helvetica,sans-Serif" font-size="10.00">pharmacymanager.h</text>
</a>
</g>
</g>
<!-- Node2&#45;&gt;Node6 -->
<g id="edge5_Node000002_Node000006" class="edge">
<title>Node2&#45;&gt;Node6</title>
<g id="a_edge5_Node000002_Node000006"><a xlink:title=" ">
<path fill="none" stroke="#63b8ff" d="M177.8,-171.9C199.78,-162.11 229.68,-148.79 249.03,-140.17"/>
<polygon fill="#63b8ff" stroke="#63b8ff" points="176.33,-168.72 168.62,-175.98 179.18,-175.11 176.33,-168.72"/>
</a>
</g>
</g>
<!-- Node4 -->
<g id="Node000004" class="node">
<title>Node4</title>
<g id="a_Node000004"><a xlink:href="filemanager_8cpp.html" target="_top" xlink:title=" ">
<polygon fill="white" stroke="#666666" points="95,-85 0,-85 0,-66 95,-66 95,-85"/>
<text text-anchor="middle" x="47.5" y="-73" font-family="Helvetica,sans-Serif" font-size="10.00">filemanager.cpp</text>
</a>
</g>
</g>
<!-- Node3&#45;&gt;Node4 -->
<g id="edge3_Node000003_Node000004" class="edge">
<title>Node3&#45;&gt;Node4</title>
<g id="a_edge3_Node000003_Node000004"><a xlink:title=" ">
<path fill="none" stroke="#63b8ff" d="M47.5,-110.66C47.5,-101.93 47.5,-91.99 47.5,-85.09"/>
<polygon fill="#63b8ff" stroke="#63b8ff" points="44,-110.75 47.5,-120.75 51,-110.75 44,-110.75"/>
</a>
</g>
</g>
<!-- Node7 -->
<g id="Node000007" class="node">
<title>Node7</title>
<g id="a_Node000007"><a xlink:href="mainwindow_8h.html" target="_top" xlink:title=" ">
<polygon fill="white" stroke="#666666" points="256,-85 169,-85 169,-66 256,-66 256,-85"/>
<text text-anchor="middle" x="212.5" y="-73" font-family="Helvetica,sans-Serif" font-size="10.00">mainwindow.h</text>
</a>
</g>
</g>
<!-- Node6&#45;&gt;Node7 -->
<g id="edge6_Node000006_Node000007" class="edge">
<title>Node6&#45;&gt;Node7</title>
<g id="a_edge6_Node000006_Node000007"><a xlink:title=" ">
<path fill="none" stroke="#63b8ff" d="M252.17,-114.04C242.24,-104.64 229.91,-92.98 221.66,-85.17"/>
<polygon fill="#63b8ff" stroke="#63b8ff" points="249.83,-116.65 259.5,-120.98 254.65,-111.57 249.83,-116.65"/>
</a>
</g>
</g>
<!-- Node11 -->
<g id="Node000011" class="node">
<title>Node11</title>
<g id="a_Node000011"><a xlink:href="pharmacymanager_8cpp.html" target="_top" xlink:title=" ">
<polygon fill="white" stroke="#666666" points="402.5,-85 274.5,-85 274.5,-66 402.5,-66 402.5,-85"/>
<text text-anchor="middle" x="338.5" y="-73" font-family="Helvetica,sans-Serif" font-size="10.00">pharmacymanager.cpp</text>
</a>
</g>
</g>
<!-- Node6&#45;&gt;Node11 -->
<g id="edge10_Node000006_Node000011" class="edge">
<title>Node6&#45;&gt;Node11</title>
<g id="a_edge10_Node000006_Node000011"><a xlink:title=" ">
<path fill="none" stroke="#63b8ff" d="M287.81,-114.88C300.41,-105.34 316.43,-93.21 327.05,-85.17"/>
<polygon fill="#63b8ff" stroke="#63b8ff" points="285.61,-112.16 279.75,-120.98 289.83,-117.74 285.61,-112.16"/>
</a>
</g>
</g>
<!-- Node8 -->
<g id="Node000008" class="node">
<title>Node8</title>
<g id="a_Node000008"><a xlink:href="moc__mainwindow_8cpp.html" target="_top" xlink:title=" ">
<polygon fill="white" stroke="#666666" points="163.5,-30 35.5,-30 35.5,0 163.5,0 163.5,-30"/>
<text text-anchor="start" x="43.5" y="-18" font-family="Helvetica,sans-Serif" font-size="10.00">build/Desktop&#45;Debug</text>
<text text-anchor="middle" x="99.5" y="-7" font-family="Helvetica,sans-Serif" font-size="10.00">/moc_mainwindow.cpp</text>
</a>
</g>
</g>
<!-- Node7&#45;&gt;Node8 -->
<g id="edge7_Node000007_Node000008" class="edge">
<title>Node7&#45;&gt;Node8</title>
<g id="a_edge7_Node000007_Node000008"><a xlink:title=" ">
<path fill="none" stroke="#63b8ff" d="M186.56,-61.07C168.67,-51.81 144.93,-39.52 126.76,-30.11"/>
<polygon fill="#63b8ff" stroke="#63b8ff" points="185.34,-64.38 195.83,-65.87 188.56,-58.16 185.34,-64.38"/>
</a>
</g>
</g>
<!-- Node9 -->
<g id="Node000009" class="node">
<title>Node9</title>
<g id="a_Node000009"><a xlink:href="main_8cpp.html" target="_top" xlink:title=" ">
<polygon fill="white" stroke="#666666" points="243.5,-24.5 181.5,-24.5 181.5,-5.5 243.5,-5.5 243.5,-24.5"/>
<text text-anchor="middle" x="212.5" y="-12.5" font-family="Helvetica,sans-Serif" font-size="10.00">main.cpp</text>
</a>
</g>
</g>
<!-- Node7&#45;&gt;Node9 -->
<g id="edge8_Node000007_Node000009" class="edge">
<title>Node7&#45;&gt;Node9</title>
<g id="a_edge8_Node000007_Node000009"><a xlink:title=" ">
<path fill="none" stroke="#63b8ff" d="M212.5,-55.66C212.5,-45.24 212.5,-32.8 212.5,-24.67"/>
<polygon fill="#63b8ff" stroke="#63b8ff" points="209,-55.87 212.5,-65.87 216,-55.87 209,-55.87"/>
</a>
</g>
</g>
<!-- Node10 -->
<g id="Node000010" class="node">
<title>Node10</title>
<g id="a_Node000010"><a xlink:href="mainwindow_8cpp.html" target="_top" xlink:title=" ">
<polygon fill="white" stroke="#666666" points="359.5,-24.5 261.5,-24.5 261.5,-5.5 359.5,-5.5 359.5,-24.5"/>
<text text-anchor="middle" x="310.5" y="-12.5" font-family="Helvetica,sans-Serif" font-size="10.00">mainwindow.cpp</text>
</a>
</g>
</g>
<!-- Node7&#45;&gt;Node10 -->
<g id="edge9_Node000007_Node000010" class="edge">
<title>Node7&#45;&gt;Node10</title>
<g id="a_edge9_Node000007_Node000010"><a xlink:title=" ">
<path fill="none" stroke="#63b8ff" d="M235.75,-60.62C254.44,-49.46 280.11,-34.14 295.98,-24.67"/>
<polygon fill="#63b8ff" stroke="#63b8ff" points="233.75,-57.74 226.96,-65.87 237.34,-63.75 233.75,-57.74"/>
</a>
</g>
</g>
</g>
</svg>
