<?xml version="1.0" encoding="UTF-8" standalone="no"?>
<!DOCTYPE svg PUBLIC "-//W3C//DTD SVG 1.1//EN"
 "http://www.w3.org/Graphics/SVG/1.1/DTD/svg11.dtd">
<!-- Generated by graphviz version 2.43.0 (0)
 -->
<!-- Title: supply.cpp Pages: 1 -->
<svg width="1073pt" height="401pt"
 viewBox="0.00 0.00 1072.50 401.00" xmlns="http://www.w3.org/2000/svg" xmlns:xlink="http://www.w3.org/1999/xlink">
<g id="graph0" class="graph" transform="scale(1 1) rotate(0) translate(4 397)">
<title>supply.cpp</title>
<!-- Node1 -->
<g id="Node000001" class="node">
<title>Node1</title>
<g id="a_Node000001"><a xlink:title=" ">
<polygon fill="#999999" stroke="#666666" points="744.5,-393 676.5,-393 676.5,-374 744.5,-374 744.5,-393"/>
<text text-anchor="middle" x="710.5" y="-381" font-family="Helvetica,sans-Serif" font-size="10.00">supply.cpp</text>
</a>
</g>
</g>
<!-- Node2 -->
<g id="Node000002" class="node">
<title>Node2</title>
<g id="a_Node000002"><a xlink:href="supply_8h.html" target="_top" xlink:title=" ">
<polygon fill="white" stroke="#666666" points="782.5,-332.5 726.5,-332.5 726.5,-313.5 782.5,-313.5 782.5,-332.5"/>
<text text-anchor="middle" x="754.5" y="-320.5" font-family="Helvetica,sans-Serif" font-size="10.00">supply.h</text>
</a>
</g>
</g>
<!-- Node1&#45;&gt;Node2 -->
<g id="edge1_Node000001_Node000002" class="edge">
<title>Node1&#45;&gt;Node2</title>
<g id="a_edge1_Node000001_Node000002"><a xlink:title=" ">
<path fill="none" stroke="#63b8ff" d="M716.99,-373.87C723.49,-365.23 733.66,-351.7 741.78,-340.92"/>
<polygon fill="#63b8ff" stroke="#63b8ff" points="744.77,-342.76 747.98,-332.67 739.17,-338.56 744.77,-342.76"/>
</a>
</g>
</g>
<!-- Node9 -->
<g id="Node000009" class="node">
<title>Node9</title>
<g id="a_Node000009"><a xlink:title=" ">
<polygon fill="#e0e0e0" stroke="#999999" points="1003,-79.5 938,-79.5 938,-60.5 1003,-60.5 1003,-79.5"/>
<text text-anchor="middle" x="970.5" y="-67.5" font-family="Helvetica,sans-Serif" font-size="10.00">stdexcept</text>
</a>
</g>
</g>
<!-- Node1&#45;&gt;Node9 -->
<g id="edge30_Node000001_Node000009" class="edge">
<title>Node1&#45;&gt;Node9</title>
<g id="a_edge30_Node000001_Node000009"><a xlink:title=" ">
<path fill="none" stroke="#63b8ff" d="M744.7,-382.01C817.35,-378.97 980.5,-360.72 980.5,-258 980.5,-258 980.5,-258 980.5,-190 980.5,-154.37 975.99,-112.94 973.03,-89.56"/>
<polygon fill="#63b8ff" stroke="#63b8ff" points="976.5,-89.1 971.73,-79.64 969.56,-90.01 976.5,-89.1"/>
</a>
</g>
</g>
<!-- Node11 -->
<g id="Node000011" class="node">
<title>Node11</title>
<g id="a_Node000011"><a xlink:href="InventoryException_8h.html" target="_top" xlink:title=" ">
<polygon fill="white" stroke="#666666" points="167,-272 0,-272 0,-242 167,-242 167,-272"/>
<text text-anchor="start" x="8" y="-260" font-family="Helvetica,sans-Serif" font-size="10.00">Exception/InventoryExceptions</text>
<text text-anchor="middle" x="83.5" y="-249" font-family="Helvetica,sans-Serif" font-size="10.00">/InventoryException.h</text>
</a>
</g>
</g>
<!-- Node1&#45;&gt;Node11 -->
<g id="edge13_Node000001_Node000011" class="edge">
<title>Node1&#45;&gt;Node11</title>
<g id="a_edge13_Node000001_Node000011"><a xlink:title=" ">
<path fill="none" stroke="#63b8ff" d="M676.34,-375.72C579.74,-356.54 302.59,-301.5 164.17,-274.02"/>
<polygon fill="#63b8ff" stroke="#63b8ff" points="164.54,-270.52 154.05,-272.01 163.18,-277.39 164.54,-270.52"/>
</a>
</g>
</g>
<!-- Node13 -->
<g id="Node000013" class="node">
<title>Node13</title>
<g id="a_Node000013"><a xlink:href="NegativeQuantityException_8h.html" target="_top" xlink:title=" ">
<polygon fill="white" stroke="#666666" points="236,-338 69,-338 69,-308 236,-308 236,-338"/>
<text text-anchor="start" x="77" y="-326" font-family="Helvetica,sans-Serif" font-size="10.00">Exception/InventoryExceptions</text>
<text text-anchor="middle" x="152.5" y="-315" font-family="Helvetica,sans-Serif" font-size="10.00">/NegativeQuantityException.h</text>
</a>
</g>
</g>
<!-- Node1&#45;&gt;Node13 -->
<g id="edge16_Node000001_Node000013" class="edge">
<title>Node1&#45;&gt;Node13</title>
<g id="a_edge16_Node000001_Node000013"><a xlink:title=" ">
<path fill="none" stroke="#63b8ff" d="M676.43,-378.93C592.4,-370.12 372.87,-347.1 246.24,-333.83"/>
<polygon fill="#63b8ff" stroke="#63b8ff" points="246.48,-330.33 236.16,-332.77 245.75,-337.3 246.48,-330.33"/>
</a>
</g>
</g>
<!-- Node14 -->
<g id="Node000014" class="node">
<title>Node14</title>
<g id="a_Node000014"><a xlink:href="safeinput_8h.html" target="_top" xlink:title=" ">
<polygon fill="white" stroke="#666666" points="618.5,-332.5 496.5,-332.5 496.5,-313.5 618.5,-313.5 618.5,-332.5"/>
<text text-anchor="middle" x="557.5" y="-320.5" font-family="Helvetica,sans-Serif" font-size="10.00">Exception/safeinput.h</text>
</a>
</g>
</g>
<!-- Node1&#45;&gt;Node14 -->
<g id="edge18_Node000001_Node000014" class="edge">
<title>Node1&#45;&gt;Node14</title>
<g id="a_edge18_Node000001_Node000014"><a xlink:title=" ">
<path fill="none" stroke="#63b8ff" d="M688.25,-373.99C662.19,-364.03 618.82,-347.45 589.23,-336.13"/>
<polygon fill="#63b8ff" stroke="#63b8ff" points="590.36,-332.82 579.77,-332.52 587.86,-339.36 590.36,-332.82"/>
</a>
</g>
</g>
<!-- Node20 -->
<g id="Node000020" class="node">
<title>Node20</title>
<g id="a_Node000020"><a xlink:title=" ">
<polygon fill="#e0e0e0" stroke="#999999" points="1064.5,-332.5 1008.5,-332.5 1008.5,-313.5 1064.5,-313.5 1064.5,-332.5"/>
<text text-anchor="middle" x="1036.5" y="-320.5" font-family="Helvetica,sans-Serif" font-size="10.00">sstream</text>
</a>
</g>
</g>
<!-- Node1&#45;&gt;Node20 -->
<g id="edge29_Node000001_Node000020" class="edge">
<title>Node1&#45;&gt;Node20</title>
<g id="a_edge29_Node000001_Node000020"><a xlink:title=" ">
<path fill="none" stroke="#63b8ff" d="M744.52,-379.02C798.18,-373.12 905.51,-359.64 994.5,-338 997.47,-337.28 1000.52,-336.44 1003.57,-335.55"/>
<polygon fill="#63b8ff" stroke="#63b8ff" points="1004.66,-338.88 1013.15,-332.55 1002.57,-332.2 1004.66,-338.88"/>
</a>
</g>
</g>
<!-- Node3 -->
<g id="Node000003" class="node">
<title>Node3</title>
<g id="a_Node000003"><a xlink:href="inventoryoperation_8h.html" target="_top" xlink:title=" ">
<polygon fill="white" stroke="#666666" points="890,-266.5 771,-266.5 771,-247.5 890,-247.5 890,-266.5"/>
<text text-anchor="middle" x="830.5" y="-254.5" font-family="Helvetica,sans-Serif" font-size="10.00">inventoryoperation.h</text>
</a>
</g>
</g>
<!-- Node2&#45;&gt;Node3 -->
<g id="edge2_Node000002_Node000003" class="edge">
<title>Node2&#45;&gt;Node3</title>
<g id="a_edge2_Node000002_Node000003"><a xlink:title=" ">
<path fill="none" stroke="#63b8ff" d="M764.75,-313.37C776.81,-303.21 797.06,-286.16 811.91,-273.65"/>
<polygon fill="#63b8ff" stroke="#63b8ff" points="814.53,-276.02 819.93,-266.91 810.02,-270.67 814.53,-276.02"/>
</a>
</g>
</g>
<!-- Node4 -->
<g id="Node000004" class="node">
<title>Node4</title>
<g id="a_Node000004"><a xlink:href="medicalproduct_8h.html" target="_top" xlink:title=" ">
<polygon fill="white" stroke="#666666" points="914,-200.5 813,-200.5 813,-181.5 914,-181.5 914,-200.5"/>
<text text-anchor="middle" x="863.5" y="-188.5" font-family="Helvetica,sans-Serif" font-size="10.00">medicalproduct.h</text>
</a>
</g>
</g>
<!-- Node3&#45;&gt;Node4 -->
<g id="edge3_Node000003_Node000004" class="edge">
<title>Node3&#45;&gt;Node4</title>
<g id="a_edge3_Node000003_Node000004"><a xlink:title=" ">
<path fill="none" stroke="#63b8ff" d="M834.95,-247.37C839.89,-237.78 848.01,-222.05 854.32,-209.8"/>
<polygon fill="#63b8ff" stroke="#63b8ff" points="857.44,-211.4 858.91,-200.91 851.21,-208.19 857.44,-211.4"/>
</a>
</g>
</g>
<!-- Node8 -->
<g id="Node000008" class="node">
<title>Node8</title>
<g id="a_Node000008"><a xlink:href="safedate_8h.html" target="_top" xlink:title=" ">
<polygon fill="white" stroke="#666666" points="952.5,-140 884.5,-140 884.5,-121 952.5,-121 952.5,-140"/>
<text text-anchor="middle" x="918.5" y="-128" font-family="Helvetica,sans-Serif" font-size="10.00">safedate.h</text>
</a>
</g>
</g>
<!-- Node3&#45;&gt;Node8 -->
<g id="edge11_Node000003_Node000008" class="edge">
<title>Node3&#45;&gt;Node8</title>
<g id="a_edge11_Node000003_Node000008"><a xlink:title=" ">
<path fill="none" stroke="#63b8ff" d="M864.21,-247.45C885.26,-240.17 910.71,-227.4 923.5,-206 933.66,-189 929.91,-165.77 925.24,-149.79"/>
<polygon fill="#63b8ff" stroke="#63b8ff" points="928.48,-148.44 922.02,-140.05 921.84,-150.64 928.48,-148.44"/>
</a>
</g>
</g>
<!-- Node10 -->
<g id="Node000010" class="node">
<title>Node10</title>
<g id="a_Node000010"><a xlink:title=" ">
<polygon fill="#e0e0e0" stroke="#999999" points="794.5,-200.5 736.5,-200.5 736.5,-181.5 794.5,-181.5 794.5,-200.5"/>
<text text-anchor="middle" x="765.5" y="-188.5" font-family="Helvetica,sans-Serif" font-size="10.00">memory</text>
</a>
</g>
</g>
<!-- Node3&#45;&gt;Node10 -->
<g id="edge12_Node000003_Node000010" class="edge">
<title>Node3&#45;&gt;Node10</title>
<g id="a_edge12_Node000003_Node000010"><a xlink:title=" ">
<path fill="none" stroke="#63b8ff" d="M821.73,-247.37C811.52,-237.31 794.42,-220.48 781.76,-208.01"/>
<polygon fill="#63b8ff" stroke="#63b8ff" points="784.13,-205.43 774.54,-200.91 779.21,-210.42 784.13,-205.43"/>
</a>
</g>
</g>
<!-- Node5 -->
<g id="Node000005" class="node">
<title>Node5</title>
<g id="a_Node000005"><a xlink:title=" ">
<polygon fill="#e0e0e0" stroke="#999999" points="700.5,-19 640.5,-19 640.5,0 700.5,0 700.5,-19"/>
<text text-anchor="middle" x="670.5" y="-7" font-family="Helvetica,sans-Serif" font-size="10.00">iostream</text>
</a>
</g>
</g>
<!-- Node4&#45;&gt;Node5 -->
<g id="edge4_Node000004_Node000005" class="edge">
<title>Node4&#45;&gt;Node5</title>
<g id="a_edge4_Node000004_Node000005"><a xlink:title=" ">
<path fill="none" stroke="#63b8ff" d="M861.83,-181.34C856.82,-157.62 839.7,-90.98 799.5,-55 774.85,-32.93 738.7,-21.7 710.94,-16.05"/>
<polygon fill="#63b8ff" stroke="#63b8ff" points="711.22,-12.54 700.75,-14.14 709.94,-19.42 711.22,-12.54"/>
</a>
</g>
</g>
<!-- Node6 -->
<g id="Node000006" class="node">
<title>Node6</title>
<g id="a_Node000006"><a xlink:title=" ">
<polygon fill="#e0e0e0" stroke="#999999" points="790.5,-79.5 746.5,-79.5 746.5,-60.5 790.5,-60.5 790.5,-79.5"/>
<text text-anchor="middle" x="768.5" y="-67.5" font-family="Helvetica,sans-Serif" font-size="10.00">string</text>
</a>
</g>
</g>
<!-- Node4&#45;&gt;Node6 -->
<g id="edge5_Node000004_Node000006" class="edge">
<title>Node4&#45;&gt;Node6</title>
<g id="a_edge5_Node000004_Node000006"><a xlink:title=" ">
<path fill="none" stroke="#63b8ff" d="M850.49,-181.26C837.61,-172.12 817.91,-156.78 804.5,-140 792.01,-124.37 781.92,-103.74 775.64,-89.12"/>
<polygon fill="#63b8ff" stroke="#63b8ff" points="778.8,-87.61 771.76,-79.7 772.33,-90.27 778.8,-87.61"/>
</a>
</g>
</g>
<!-- Node7 -->
<g id="Node000007" class="node">
<title>Node7</title>
<g id="a_Node000007"><a xlink:title=" ">
<polygon fill="#e0e0e0" stroke="#999999" points="909.5,-79.5 865.5,-79.5 865.5,-60.5 909.5,-60.5 909.5,-79.5"/>
<text text-anchor="middle" x="887.5" y="-67.5" font-family="Helvetica,sans-Serif" font-size="10.00">ctime</text>
</a>
</g>
</g>
<!-- Node4&#45;&gt;Node7 -->
<g id="edge6_Node000004_Node000007" class="edge">
<title>Node4&#45;&gt;Node7</title>
<g id="a_edge6_Node000004_Node000007"><a xlink:title=" ">
<path fill="none" stroke="#63b8ff" d="M864.81,-181.47C866.84,-168.4 871.02,-142.67 875.5,-121 877.66,-110.57 880.41,-99 882.73,-89.62"/>
<polygon fill="#63b8ff" stroke="#63b8ff" points="886.16,-90.37 885.21,-79.81 879.37,-88.65 886.16,-90.37"/>
</a>
</g>
</g>
<!-- Node4&#45;&gt;Node8 -->
<g id="edge7_Node000004_Node000008" class="edge">
<title>Node4&#45;&gt;Node8</title>
<g id="a_edge7_Node000004_Node000008"><a xlink:title=" ">
<path fill="none" stroke="#63b8ff" d="M871.62,-181.37C879.9,-172.55 892.97,-158.66 903.2,-147.77"/>
<polygon fill="#63b8ff" stroke="#63b8ff" points="906.05,-149.85 910.35,-140.17 900.95,-145.06 906.05,-149.85"/>
</a>
</g>
</g>
<!-- Node8&#45;&gt;Node6 -->
<g id="edge10_Node000008_Node000006" class="edge">
<title>Node8&#45;&gt;Node6</title>
<g id="a_edge10_Node000008_Node000006"><a xlink:title=" ">
<path fill="none" stroke="#63b8ff" d="M896.69,-120.99C871.25,-111.07 828.99,-94.59 799.99,-83.28"/>
<polygon fill="#63b8ff" stroke="#63b8ff" points="800.93,-79.89 790.34,-79.52 798.38,-86.41 800.93,-79.89"/>
</a>
</g>
</g>
<!-- Node8&#45;&gt;Node7 -->
<g id="edge8_Node000008_Node000007" class="edge">
<title>Node8&#45;&gt;Node7</title>
<g id="a_edge8_Node000008_Node000007"><a xlink:title=" ">
<path fill="none" stroke="#63b8ff" d="M913.93,-120.87C909.44,-112.4 902.47,-99.24 896.81,-88.57"/>
<polygon fill="#63b8ff" stroke="#63b8ff" points="899.87,-86.86 892.09,-79.67 893.68,-90.14 899.87,-86.86"/>
</a>
</g>
</g>
<!-- Node8&#45;&gt;Node9 -->
<g id="edge9_Node000008_Node000009" class="edge">
<title>Node8&#45;&gt;Node9</title>
<g id="a_edge9_Node000008_Node000009"><a xlink:title=" ">
<path fill="none" stroke="#63b8ff" d="M926.17,-120.87C934.01,-112.05 946.36,-98.16 956.04,-87.27"/>
<polygon fill="#63b8ff" stroke="#63b8ff" points="958.77,-89.47 962.8,-79.67 953.54,-84.82 958.77,-89.47"/>
</a>
</g>
</g>
<!-- Node12 -->
<g id="Node000012" class="node">
<title>Node12</title>
<g id="a_Node000012"><a xlink:href="PharmacyException_8h.html" target="_top" xlink:title=" ">
<polygon fill="white" stroke="#666666" points="392.5,-85 222.5,-85 222.5,-55 392.5,-55 392.5,-85"/>
<text text-anchor="start" x="230.5" y="-73" font-family="Helvetica,sans-Serif" font-size="10.00">Exception/PharmacyExceptions</text>
<text text-anchor="middle" x="307.5" y="-62" font-family="Helvetica,sans-Serif" font-size="10.00">/PharmacyException.h</text>
</a>
</g>
</g>
<!-- Node11&#45;&gt;Node12 -->
<g id="edge14_Node000011_Node000012" class="edge">
<title>Node11&#45;&gt;Node12</title>
<g id="a_edge14_Node000011_Node000012"><a xlink:title=" ">
<path fill="none" stroke="#63b8ff" d="M96.21,-241.92C119.9,-216.12 173.08,-160.32 224.5,-121 239.22,-109.74 256.63,-98.92 271.7,-90.24"/>
<polygon fill="#63b8ff" stroke="#63b8ff" points="273.76,-93.09 280.74,-85.12 270.31,-87 273.76,-93.09"/>
</a>
</g>
</g>
<!-- Node12&#45;&gt;Node5 -->
<g id="edge15_Node000012_Node000005" class="edge">
<title>Node12&#45;&gt;Node5</title>
<g id="a_edge15_Node000012_Node000005"><a xlink:title=" ">
<path fill="none" stroke="#63b8ff" d="M392.61,-55.28C467.57,-43.2 573.44,-26.14 630.44,-16.96"/>
<polygon fill="#63b8ff" stroke="#63b8ff" points="631.17,-20.38 640.49,-15.34 630.06,-13.47 631.17,-20.38"/>
</a>
</g>
</g>
<!-- Node13&#45;&gt;Node11 -->
<g id="edge17_Node000013_Node000011" class="edge">
<title>Node13&#45;&gt;Node11</title>
<g id="a_edge17_Node000013_Node000011"><a xlink:title=" ">
<path fill="none" stroke="#63b8ff" d="M137.19,-307.8C128.07,-299.34 116.34,-288.46 106.17,-279.03"/>
<polygon fill="#63b8ff" stroke="#63b8ff" points="108.48,-276.4 98.77,-272.16 103.72,-281.53 108.48,-276.4"/>
</a>
</g>
</g>
<!-- Node14&#45;&gt;Node5 -->
<g id="edge19_Node000014_Node000005" class="edge">
<title>Node14&#45;&gt;Node5</title>
<g id="a_edge19_Node000014_Node000005"><a xlink:title=" ">
<path fill="none" stroke="#63b8ff" d="M587.28,-313.44C608.29,-305.89 635.46,-292.77 651.5,-272 673.84,-243.08 670.5,-228.54 670.5,-192 670.5,-192 670.5,-192 670.5,-129.5 670.5,-94.15 670.5,-52.9 670.5,-29.42"/>
<polygon fill="#63b8ff" stroke="#63b8ff" points="674,-29.16 670.5,-19.16 667,-29.16 674,-29.16"/>
</a>
</g>
</g>
<!-- Node14&#45;&gt;Node6 -->
<g id="edge20_Node000014_Node000006" class="edge">
<title>Node14&#45;&gt;Node6</title>
<g id="a_edge20_Node000014_Node000006"><a xlink:title=" ">
<path fill="none" stroke="#63b8ff" d="M602.6,-313.5C629.34,-306.4 662.24,-293.8 684.5,-272 691.52,-265.13 742.48,-136.99 761.43,-88.97"/>
<polygon fill="#63b8ff" stroke="#63b8ff" points="764.74,-90.13 765.15,-79.54 758.23,-87.56 764.74,-90.13"/>
</a>
</g>
</g>
<!-- Node15 -->
<g id="Node000015" class="node">
<title>Node15</title>
<g id="a_Node000015"><a xlink:title=" ">
<polygon fill="#e0e0e0" stroke="#999999" points="454.5,-266.5 410.5,-266.5 410.5,-247.5 454.5,-247.5 454.5,-266.5"/>
<text text-anchor="middle" x="432.5" y="-254.5" font-family="Helvetica,sans-Serif" font-size="10.00">limits</text>
</a>
</g>
</g>
<!-- Node14&#45;&gt;Node15 -->
<g id="edge21_Node000014_Node000015" class="edge">
<title>Node14&#45;&gt;Node15</title>
<g id="a_edge21_Node000014_Node000015"><a xlink:title=" ">
<path fill="none" stroke="#63b8ff" d="M540.64,-313.37C519.58,-302.59 483.32,-284.02 458.64,-271.38"/>
<polygon fill="#63b8ff" stroke="#63b8ff" points="459.99,-268.14 449.49,-266.7 456.8,-274.37 459.99,-268.14"/>
</a>
</g>
</g>
<!-- Node16 -->
<g id="Node000016" class="node">
<title>Node16</title>
<g id="a_Node000016"><a xlink:href="InvalidProductDataException_8h.html" target="_top" xlink:title=" ">
<polygon fill="white" stroke="#666666" points="392.5,-206 222.5,-206 222.5,-176 392.5,-176 392.5,-206"/>
<text text-anchor="start" x="230.5" y="-194" font-family="Helvetica,sans-Serif" font-size="10.00">Exception/PharmacyExceptions</text>
<text text-anchor="middle" x="307.5" y="-183" font-family="Helvetica,sans-Serif" font-size="10.00">/InvalidProductDataException.h</text>
</a>
</g>
</g>
<!-- Node14&#45;&gt;Node16 -->
<g id="edge22_Node000014_Node000016" class="edge">
<title>Node14&#45;&gt;Node16</title>
<g id="a_edge22_Node000014_Node000016"><a xlink:title=" ">
<path fill="none" stroke="#63b8ff" d="M496.46,-315.21C400.12,-304.2 222.68,-282.61 213.5,-272 192.87,-248.15 227.02,-225.28 259.79,-210.15"/>
<polygon fill="#63b8ff" stroke="#63b8ff" points="261.22,-213.34 268.95,-206.09 258.39,-206.94 261.22,-213.34"/>
</a>
</g>
</g>
<!-- Node18 -->
<g id="Node000018" class="node">
<title>Node18</title>
<g id="a_Node000018"><a xlink:href="InvalidPriceException_8h.html" target="_top" xlink:title=" ">
<polygon fill="white" stroke="#666666" points="642.5,-272 472.5,-272 472.5,-242 642.5,-242 642.5,-272"/>
<text text-anchor="start" x="480.5" y="-260" font-family="Helvetica,sans-Serif" font-size="10.00">Exception/PharmacyExceptions</text>
<text text-anchor="middle" x="557.5" y="-249" font-family="Helvetica,sans-Serif" font-size="10.00">/InvalidPriceException.h</text>
</a>
</g>
</g>
<!-- Node14&#45;&gt;Node18 -->
<g id="edge25_Node000014_Node000018" class="edge">
<title>Node14&#45;&gt;Node18</title>
<g id="a_edge25_Node000014_Node000018"><a xlink:title=" ">
<path fill="none" stroke="#63b8ff" d="M557.5,-313.37C557.5,-305.49 557.5,-293.45 557.5,-282.6"/>
<polygon fill="#63b8ff" stroke="#63b8ff" points="561,-282.36 557.5,-272.36 554,-282.36 561,-282.36"/>
</a>
</g>
</g>
<!-- Node19 -->
<g id="Node000019" class="node">
<title>Node19</title>
<g id="a_Node000019"><a xlink:href="InvalidProductIdException_8h.html" target="_top" xlink:title=" ">
<polygon fill="white" stroke="#666666" points="392.5,-272 222.5,-272 222.5,-242 392.5,-242 392.5,-272"/>
<text text-anchor="start" x="230.5" y="-260" font-family="Helvetica,sans-Serif" font-size="10.00">Exception/PharmacyExceptions</text>
<text text-anchor="middle" x="307.5" y="-249" font-family="Helvetica,sans-Serif" font-size="10.00">/InvalidProductIdException.h</text>
</a>
</g>
</g>
<!-- Node14&#45;&gt;Node19 -->
<g id="edge27_Node000014_Node000019" class="edge">
<title>Node14&#45;&gt;Node19</title>
<g id="a_edge27_Node000014_Node000019"><a xlink:title=" ">
<path fill="none" stroke="#63b8ff" d="M524.04,-313.44C485.33,-303.52 420.69,-286.98 372.09,-274.53"/>
<polygon fill="#63b8ff" stroke="#63b8ff" points="372.84,-271.11 362.28,-272.02 371.1,-277.9 372.84,-271.11"/>
</a>
</g>
</g>
<!-- Node17 -->
<g id="Node000017" class="node">
<title>Node17</title>
<g id="a_Node000017"><a xlink:href="MedicalProductException_8h.html" target="_top" xlink:title=" ">
<polygon fill="white" stroke="#666666" points="382,-140 233,-140 233,-121 382,-121 382,-140"/>
<text text-anchor="middle" x="307.5" y="-128" font-family="Helvetica,sans-Serif" font-size="10.00">MedicalProductException.h</text>
</a>
</g>
</g>
<!-- Node16&#45;&gt;Node17 -->
<g id="edge23_Node000016_Node000017" class="edge">
<title>Node16&#45;&gt;Node17</title>
<g id="a_edge23_Node000016_Node000017"><a xlink:title=" ">
<path fill="none" stroke="#63b8ff" d="M307.5,-175.84C307.5,-168.21 307.5,-158.7 307.5,-150.45"/>
<polygon fill="#63b8ff" stroke="#63b8ff" points="311,-150.27 307.5,-140.27 304,-150.27 311,-150.27"/>
</a>
</g>
</g>
<!-- Node17&#45;&gt;Node12 -->
<g id="edge24_Node000017_Node000012" class="edge">
<title>Node17&#45;&gt;Node12</title>
<g id="a_edge24_Node000017_Node000012"><a xlink:title=" ">
<path fill="none" stroke="#63b8ff" d="M307.5,-120.87C307.5,-114.11 307.5,-104.35 307.5,-95.26"/>
<polygon fill="#63b8ff" stroke="#63b8ff" points="311,-95.11 307.5,-85.11 304,-95.11 311,-95.11"/>
</a>
</g>
</g>
<!-- Node18&#45;&gt;Node16 -->
<g id="edge26_Node000018_Node000016" class="edge">
<title>Node18&#45;&gt;Node16</title>
<g id="a_edge26_Node000018_Node000016"><a xlink:title=" ">
<path fill="none" stroke="#63b8ff" d="M502.64,-241.95C464.13,-232.1 412.49,-218.88 372.01,-208.51"/>
<polygon fill="#63b8ff" stroke="#63b8ff" points="372.79,-205.1 362.24,-206.01 371.06,-211.88 372.79,-205.1"/>
</a>
</g>
</g>
<!-- Node19&#45;&gt;Node16 -->
<g id="edge28_Node000019_Node000016" class="edge">
<title>Node19&#45;&gt;Node16</title>
<g id="a_edge28_Node000019_Node000016"><a xlink:title=" ">
<path fill="none" stroke="#63b8ff" d="M307.5,-241.8C307.5,-234.34 307.5,-224.99 307.5,-216.41"/>
<polygon fill="#63b8ff" stroke="#63b8ff" points="311,-216.16 307.5,-206.16 304,-216.16 311,-216.16"/>
</a>
</g>
</g>
</g>
</svg>
