<?xml version="1.0" encoding="UTF-8" standalone="no"?>
<!DOCTYPE svg PUBLIC "-//W3C//DTD SVG 1.1//EN"
 "http://www.w3.org/Graphics/SVG/1.1/DTD/svg11.dtd">
<!-- Generated by graphviz version 2.43.0 (0)
 -->
<!-- Title: syrup.cpp Pages: 1 -->
<svg width="901pt" height="379pt"
 viewBox="0.00 0.00 901.45 379.00" xmlns="http://www.w3.org/2000/svg" xmlns:xlink="http://www.w3.org/1999/xlink">
<g id="graph0" class="graph" transform="scale(1 1) rotate(0) translate(4 375)">
<title>syrup.cpp</title>
<!-- Node1 -->
<g id="Node000001" class="node">
<title>Node1</title>
<g id="a_Node000001"><a xlink:title=" ">
<polygon fill="#999999" stroke="#666666" points="557.95,-371 493.95,-371 493.95,-352 557.95,-352 557.95,-371"/>
<text text-anchor="middle" x="525.95" y="-359" font-family="Helvetica,sans-Serif" font-size="10.00">syrup.cpp</text>
</a>
</g>
</g>
<!-- Node2 -->
<g id="Node000002" class="node">
<title>Node2</title>
<g id="a_Node000002"><a xlink:href="syrup_8h.html" target="_top" xlink:title=" ">
<polygon fill="white" stroke="#666666" points="619.45,-316 566.45,-316 566.45,-297 619.45,-297 619.45,-316"/>
<text text-anchor="middle" x="592.95" y="-304" font-family="Helvetica,sans-Serif" font-size="10.00">syrup.h</text>
</a>
</g>
</g>
<!-- Node1&#45;&gt;Node2 -->
<g id="edge1_Node000001_Node000002" class="edge">
<title>Node1&#45;&gt;Node2</title>
<g id="a_edge1_Node000001_Node000002"><a xlink:title=" ">
<path fill="none" stroke="#63b8ff" d="M536.72,-351.98C546.72,-344.07 561.84,-332.11 573.88,-322.58"/>
<polygon fill="#63b8ff" stroke="#63b8ff" points="576.32,-325.12 581.99,-316.17 571.98,-319.63 576.32,-325.12"/>
</a>
</g>
</g>
<!-- Node9 -->
<g id="Node000009" class="node">
<title>Node9</title>
<g id="a_Node000009"><a xlink:title=" ">
<polygon fill="#e0e0e0" stroke="#999999" points="893.45,-74 828.45,-74 828.45,-55 893.45,-55 893.45,-74"/>
<text text-anchor="middle" x="860.95" y="-62" font-family="Helvetica,sans-Serif" font-size="10.00">stdexcept</text>
</a>
</g>
</g>
<!-- Node1&#45;&gt;Node9 -->
<g id="edge27_Node000001_Node000009" class="edge">
<title>Node1&#45;&gt;Node9</title>
<g id="a_edge27_Node000001_Node000009"><a xlink:title=" ">
<path fill="none" stroke="#63b8ff" d="M557.99,-357.18C645.13,-347.26 879.95,-314.28 879.95,-247 879.95,-247 879.95,-247 879.95,-179 879.95,-145.16 871.64,-106.41 866.01,-84.07"/>
<polygon fill="#63b8ff" stroke="#63b8ff" points="869.36,-83.03 863.44,-74.25 862.58,-84.81 869.36,-83.03"/>
</a>
</g>
</g>
<!-- Node12 -->
<g id="Node000012" class="node">
<title>Node12</title>
<g id="a_Node000012"><a xlink:href="safeinput_8h.html" target="_top" xlink:title=" ">
<polygon fill="white" stroke="#666666" points="452.95,-316 330.95,-316 330.95,-297 452.95,-297 452.95,-316"/>
<text text-anchor="middle" x="391.95" y="-304" font-family="Helvetica,sans-Serif" font-size="10.00">Exception/safeinput.h</text>
</a>
</g>
</g>
<!-- Node1&#45;&gt;Node12 -->
<g id="edge14_Node000001_Node000012" class="edge">
<title>Node1&#45;&gt;Node12</title>
<g id="a_edge14_Node000001_Node000012"><a xlink:title=" ">
<path fill="none" stroke="#63b8ff" d="M504.42,-351.98C482.48,-343.3 448.21,-329.75 423.27,-319.88"/>
<polygon fill="#63b8ff" stroke="#63b8ff" points="424.46,-316.59 413.88,-316.17 421.89,-323.1 424.46,-316.59"/>
</a>
</g>
</g>
<!-- Node14 -->
<g id="Node000014" class="node">
<title>Node14</title>
<g id="a_Node000014"><a xlink:href="InvalidProductDataException_8h.html" target="_top" xlink:title=" ">
<polygon fill="white" stroke="#666666" points="301.95,-195 131.95,-195 131.95,-165 301.95,-165 301.95,-195"/>
<text text-anchor="start" x="139.95" y="-183" font-family="Helvetica,sans-Serif" font-size="10.00">Exception/PharmacyExceptions</text>
<text text-anchor="middle" x="216.95" y="-172" font-family="Helvetica,sans-Serif" font-size="10.00">/InvalidProductDataException.h</text>
</a>
</g>
</g>
<!-- Node1&#45;&gt;Node14 -->
<g id="edge26_Node000001_Node000014" class="edge">
<title>Node1&#45;&gt;Node14</title>
<g id="a_edge26_Node000001_Node000014"><a xlink:title=" ">
<path fill="none" stroke="#63b8ff" d="M493.86,-359.42C390.92,-355.23 72.1,-336.28 9.95,-261 -26.93,-216.33 50.92,-196.53 121.45,-187.8"/>
<polygon fill="#63b8ff" stroke="#63b8ff" points="122.26,-191.23 131.79,-186.6 121.45,-184.28 122.26,-191.23"/>
</a>
</g>
</g>
<!-- Node3 -->
<g id="Node000003" class="node">
<title>Node3</title>
<g id="a_Node000003"><a xlink:href="medicine_8h.html" target="_top" xlink:title=" ">
<polygon fill="white" stroke="#666666" points="695.45,-255.5 624.45,-255.5 624.45,-236.5 695.45,-236.5 695.45,-255.5"/>
<text text-anchor="middle" x="659.95" y="-243.5" font-family="Helvetica,sans-Serif" font-size="10.00">medicine.h</text>
</a>
</g>
</g>
<!-- Node2&#45;&gt;Node3 -->
<g id="edge2_Node000002_Node000003" class="edge">
<title>Node2&#45;&gt;Node3</title>
<g id="a_edge2_Node000002_Node000003"><a xlink:title=" ">
<path fill="none" stroke="#63b8ff" d="M602.84,-296.87C613.23,-287.8 629.79,-273.34 642.41,-262.32"/>
<polygon fill="#63b8ff" stroke="#63b8ff" points="644.8,-264.88 650.03,-255.67 640.19,-259.61 644.8,-264.88"/>
</a>
</g>
</g>
<!-- Node4 -->
<g id="Node000004" class="node">
<title>Node4</title>
<g id="a_Node000004"><a xlink:href="medicalproduct_8h.html" target="_top" xlink:title=" ">
<polygon fill="white" stroke="#666666" points="710.45,-189.5 609.45,-189.5 609.45,-170.5 710.45,-170.5 710.45,-189.5"/>
<text text-anchor="middle" x="659.95" y="-177.5" font-family="Helvetica,sans-Serif" font-size="10.00">medicalproduct.h</text>
</a>
</g>
</g>
<!-- Node3&#45;&gt;Node4 -->
<g id="edge3_Node000003_Node000004" class="edge">
<title>Node3&#45;&gt;Node4</title>
<g id="a_edge3_Node000003_Node000004"><a xlink:title=" ">
<path fill="none" stroke="#63b8ff" d="M659.95,-236.37C659.95,-227.16 659.95,-212.29 659.95,-200.27"/>
<polygon fill="#63b8ff" stroke="#63b8ff" points="663.45,-199.91 659.95,-189.91 656.45,-199.91 663.45,-199.91"/>
</a>
</g>
</g>
<!-- Node6 -->
<g id="Node000006" class="node">
<title>Node6</title>
<g id="a_Node000006"><a xlink:title=" ">
<polygon fill="#e0e0e0" stroke="#999999" points="609.95,-74 565.95,-74 565.95,-55 609.95,-55 609.95,-74"/>
<text text-anchor="middle" x="587.95" y="-62" font-family="Helvetica,sans-Serif" font-size="10.00">string</text>
</a>
</g>
</g>
<!-- Node3&#45;&gt;Node6 -->
<g id="edge13_Node000003_Node000006" class="edge">
<title>Node3&#45;&gt;Node6</title>
<g id="a_edge13_Node000003_Node000006"><a xlink:title=" ">
<path fill="none" stroke="#63b8ff" d="M644.17,-236.4C630.22,-227.87 610.64,-213.42 600.95,-195 582.27,-159.46 583.26,-110.86 585.62,-84.46"/>
<polygon fill="#63b8ff" stroke="#63b8ff" points="589.12,-84.62 586.69,-74.31 582.16,-83.88 589.12,-84.62"/>
</a>
</g>
</g>
<!-- Node10 -->
<g id="Node000010" class="node">
<title>Node10</title>
<g id="a_Node000010"><a xlink:title=" ">
<polygon fill="#e0e0e0" stroke="#999999" points="775.45,-189.5 728.45,-189.5 728.45,-170.5 775.45,-170.5 775.45,-189.5"/>
<text text-anchor="middle" x="751.95" y="-177.5" font-family="Helvetica,sans-Serif" font-size="10.00">vector</text>
</a>
</g>
</g>
<!-- Node3&#45;&gt;Node10 -->
<g id="edge11_Node000003_Node000010" class="edge">
<title>Node3&#45;&gt;Node10</title>
<g id="a_edge11_Node000003_Node000010"><a xlink:title=" ">
<path fill="none" stroke="#63b8ff" d="M672.36,-236.37C687.31,-225.97 712.68,-208.32 730.75,-195.75"/>
<polygon fill="#63b8ff" stroke="#63b8ff" points="733.24,-198.28 739.45,-189.7 729.24,-192.54 733.24,-198.28"/>
</a>
</g>
</g>
<!-- Node11 -->
<g id="Node000011" class="node">
<title>Node11</title>
<g id="a_Node000011"><a xlink:title=" ">
<polygon fill="#e0e0e0" stroke="#999999" points="851.95,-189.5 793.95,-189.5 793.95,-170.5 851.95,-170.5 851.95,-189.5"/>
<text text-anchor="middle" x="822.95" y="-177.5" font-family="Helvetica,sans-Serif" font-size="10.00">memory</text>
</a>
</g>
</g>
<!-- Node3&#45;&gt;Node11 -->
<g id="edge12_Node000003_Node000011" class="edge">
<title>Node3&#45;&gt;Node11</title>
<g id="a_edge12_Node000003_Node000011"><a xlink:title=" ">
<path fill="none" stroke="#63b8ff" d="M681.94,-236.37C710.21,-225.27 759.49,-205.92 791.67,-193.28"/>
<polygon fill="#63b8ff" stroke="#63b8ff" points="793.03,-196.51 801.06,-189.6 790.47,-189.99 793.03,-196.51"/>
</a>
</g>
</g>
<!-- Node5 -->
<g id="Node000005" class="node">
<title>Node5</title>
<g id="a_Node000005"><a xlink:title=" ">
<polygon fill="#e0e0e0" stroke="#999999" points="534.95,-19 474.95,-19 474.95,0 534.95,0 534.95,-19"/>
<text text-anchor="middle" x="504.95" y="-7" font-family="Helvetica,sans-Serif" font-size="10.00">iostream</text>
</a>
</g>
</g>
<!-- Node4&#45;&gt;Node5 -->
<g id="edge4_Node000004_Node000005" class="edge">
<title>Node4&#45;&gt;Node5</title>
<g id="a_edge4_Node000004_Node000005"><a xlink:title=" ">
<path fill="none" stroke="#63b8ff" d="M698.19,-170.45C731.52,-160.74 772.96,-141.94 761.95,-110 732.95,-25.8 610.25,-11.44 545.45,-9.87"/>
<polygon fill="#63b8ff" stroke="#63b8ff" points="545.24,-6.37 535.19,-9.72 545.13,-13.37 545.24,-6.37"/>
</a>
</g>
</g>
<!-- Node4&#45;&gt;Node6 -->
<g id="edge5_Node000004_Node000006" class="edge">
<title>Node4&#45;&gt;Node6</title>
<g id="a_edge5_Node000004_Node000006"><a xlink:title=" ">
<path fill="none" stroke="#63b8ff" d="M654.54,-170.47C642.76,-151.9 614.6,-107.51 598.94,-82.82"/>
<polygon fill="#63b8ff" stroke="#63b8ff" points="601.74,-80.7 593.43,-74.13 595.83,-84.45 601.74,-80.7"/>
</a>
</g>
</g>
<!-- Node7 -->
<g id="Node000007" class="node">
<title>Node7</title>
<g id="a_Node000007"><a xlink:title=" ">
<polygon fill="#e0e0e0" stroke="#999999" points="709.95,-74 665.95,-74 665.95,-55 709.95,-55 709.95,-74"/>
<text text-anchor="middle" x="687.95" y="-62" font-family="Helvetica,sans-Serif" font-size="10.00">ctime</text>
</a>
</g>
</g>
<!-- Node4&#45;&gt;Node7 -->
<g id="edge6_Node000004_Node000007" class="edge">
<title>Node4&#45;&gt;Node7</title>
<g id="a_edge6_Node000004_Node000007"><a xlink:title=" ">
<path fill="none" stroke="#63b8ff" d="M661.83,-170.48C664.72,-157.43 670.51,-131.71 675.95,-110 678.12,-101.36 680.67,-91.81 682.87,-83.78"/>
<polygon fill="#63b8ff" stroke="#63b8ff" points="686.28,-84.58 685.56,-74.01 679.53,-82.72 686.28,-84.58"/>
</a>
</g>
</g>
<!-- Node8 -->
<g id="Node000008" class="node">
<title>Node8</title>
<g id="a_Node000008"><a xlink:href="safedate_8h.html" target="_top" xlink:title=" ">
<polygon fill="white" stroke="#666666" points="752.95,-129 684.95,-129 684.95,-110 752.95,-110 752.95,-129"/>
<text text-anchor="middle" x="718.95" y="-117" font-family="Helvetica,sans-Serif" font-size="10.00">safedate.h</text>
</a>
</g>
</g>
<!-- Node4&#45;&gt;Node8 -->
<g id="edge7_Node000004_Node000008" class="edge">
<title>Node4&#45;&gt;Node8</title>
<g id="a_edge7_Node000004_Node000008"><a xlink:title=" ">
<path fill="none" stroke="#63b8ff" d="M668.66,-170.37C677.64,-161.47 691.84,-147.39 702.86,-136.45"/>
<polygon fill="#63b8ff" stroke="#63b8ff" points="705.58,-138.69 710.21,-129.17 700.65,-133.72 705.58,-138.69"/>
</a>
</g>
</g>
<!-- Node8&#45;&gt;Node6 -->
<g id="edge10_Node000008_Node000006" class="edge">
<title>Node8&#45;&gt;Node6</title>
<g id="a_edge10_Node000008_Node000006"><a xlink:title=" ">
<path fill="none" stroke="#63b8ff" d="M697.91,-109.98C676.55,-101.34 643.25,-87.87 618.89,-78.02"/>
<polygon fill="#63b8ff" stroke="#63b8ff" points="619.97,-74.68 609.38,-74.17 617.34,-81.17 619.97,-74.68"/>
</a>
</g>
</g>
<!-- Node8&#45;&gt;Node7 -->
<g id="edge8_Node000008_Node000007" class="edge">
<title>Node8&#45;&gt;Node7</title>
<g id="a_edge8_Node000008_Node000007"><a xlink:title=" ">
<path fill="none" stroke="#63b8ff" d="M713.84,-109.75C709.59,-102.49 703.43,-91.95 698.18,-82.98"/>
<polygon fill="#63b8ff" stroke="#63b8ff" points="701.05,-80.95 692.98,-74.09 695.01,-84.49 701.05,-80.95"/>
</a>
</g>
</g>
<!-- Node8&#45;&gt;Node9 -->
<g id="edge9_Node000008_Node000009" class="edge">
<title>Node8&#45;&gt;Node9</title>
<g id="a_edge9_Node000008_Node000009"><a xlink:title=" ">
<path fill="none" stroke="#63b8ff" d="M741.77,-109.98C765.13,-101.27 801.66,-87.63 828.12,-77.75"/>
<polygon fill="#63b8ff" stroke="#63b8ff" points="829.58,-80.95 837.72,-74.17 827.13,-74.39 829.58,-80.95"/>
</a>
</g>
</g>
<!-- Node12&#45;&gt;Node5 -->
<g id="edge15_Node000012_Node000005" class="edge">
<title>Node12&#45;&gt;Node5</title>
<g id="a_edge15_Node000012_Node000005"><a xlink:title=" ">
<path fill="none" stroke="#63b8ff" d="M427.58,-296.87C447.54,-290.26 471.29,-279.1 485.95,-261 508.96,-232.6 504.95,-217.54 504.95,-181 504.95,-181 504.95,-181 504.95,-118.5 504.95,-87.19 504.95,-50.77 504.95,-29.23"/>
<polygon fill="#63b8ff" stroke="#63b8ff" points="508.45,-29.18 504.95,-19.18 501.45,-29.18 508.45,-29.18"/>
</a>
</g>
</g>
<!-- Node12&#45;&gt;Node6 -->
<g id="edge16_Node000012_Node000006" class="edge">
<title>Node12&#45;&gt;Node6</title>
<g id="a_edge16_Node000012_Node000006"><a xlink:title=" ">
<path fill="none" stroke="#63b8ff" d="M448.43,-296.98C472.85,-290.69 500.1,-279.81 518.95,-261 544.74,-235.28 572.88,-128.04 583.53,-84.25"/>
<polygon fill="#63b8ff" stroke="#63b8ff" points="586.98,-84.89 585.91,-74.35 580.17,-83.26 586.98,-84.89"/>
</a>
</g>
</g>
<!-- Node13 -->
<g id="Node000013" class="node">
<title>Node13</title>
<g id="a_Node000013"><a xlink:title=" ">
<polygon fill="#e0e0e0" stroke="#999999" points="288.95,-255.5 244.95,-255.5 244.95,-236.5 288.95,-236.5 288.95,-255.5"/>
<text text-anchor="middle" x="266.95" y="-243.5" font-family="Helvetica,sans-Serif" font-size="10.00">limits</text>
</a>
</g>
</g>
<!-- Node12&#45;&gt;Node13 -->
<g id="edge17_Node000012_Node000013" class="edge">
<title>Node12&#45;&gt;Node13</title>
<g id="a_edge17_Node000012_Node000013"><a xlink:title=" ">
<path fill="none" stroke="#63b8ff" d="M373.78,-296.99C352.95,-287.25 318.59,-271.16 294.47,-259.88"/>
<polygon fill="#63b8ff" stroke="#63b8ff" points="295.69,-256.59 285.15,-255.52 292.73,-262.93 295.69,-256.59"/>
</a>
</g>
</g>
<!-- Node12&#45;&gt;Node14 -->
<g id="edge18_Node000012_Node000014" class="edge">
<title>Node12&#45;&gt;Node14</title>
<g id="a_edge18_Node000012_Node000014"><a xlink:title=" ">
<path fill="none" stroke="#63b8ff" d="M330.71,-302.51C298.35,-297.74 260.38,-286.55 235.95,-261 221.82,-246.22 217.55,-222.93 216.54,-205.28"/>
<polygon fill="#63b8ff" stroke="#63b8ff" points="220.03,-205.05 216.27,-195.15 213.04,-205.24 220.03,-205.05"/>
</a>
</g>
</g>
<!-- Node17 -->
<g id="Node000017" class="node">
<title>Node17</title>
<g id="a_Node000017"><a xlink:href="InvalidPriceException_8h.html" target="_top" xlink:title=" ">
<polygon fill="white" stroke="#666666" points="476.95,-261 306.95,-261 306.95,-231 476.95,-231 476.95,-261"/>
<text text-anchor="start" x="314.95" y="-249" font-family="Helvetica,sans-Serif" font-size="10.00">Exception/PharmacyExceptions</text>
<text text-anchor="middle" x="391.95" y="-238" font-family="Helvetica,sans-Serif" font-size="10.00">/InvalidPriceException.h</text>
</a>
</g>
</g>
<!-- Node12&#45;&gt;Node17 -->
<g id="edge22_Node000012_Node000017" class="edge">
<title>Node12&#45;&gt;Node17</title>
<g id="a_edge22_Node000012_Node000017"><a xlink:title=" ">
<path fill="none" stroke="#63b8ff" d="M391.95,-296.87C391.95,-290.11 391.95,-280.35 391.95,-271.26"/>
<polygon fill="#63b8ff" stroke="#63b8ff" points="395.45,-271.11 391.95,-261.11 388.45,-271.11 395.45,-271.11"/>
</a>
</g>
</g>
<!-- Node18 -->
<g id="Node000018" class="node">
<title>Node18</title>
<g id="a_Node000018"><a xlink:href="InvalidProductIdException_8h.html" target="_top" xlink:title=" ">
<polygon fill="white" stroke="#666666" points="188.95,-261 18.95,-261 18.95,-231 188.95,-231 188.95,-261"/>
<text text-anchor="start" x="26.95" y="-249" font-family="Helvetica,sans-Serif" font-size="10.00">Exception/PharmacyExceptions</text>
<text text-anchor="middle" x="103.95" y="-238" font-family="Helvetica,sans-Serif" font-size="10.00">/InvalidProductIdException.h</text>
</a>
</g>
</g>
<!-- Node12&#45;&gt;Node18 -->
<g id="edge24_Node000012_Node000018" class="edge">
<title>Node12&#45;&gt;Node18</title>
<g id="a_edge24_Node000012_Node000018"><a xlink:title=" ">
<path fill="none" stroke="#63b8ff" d="M350.08,-296.99C306.38,-288.12 236.85,-273.99 182.81,-263.02"/>
<polygon fill="#63b8ff" stroke="#63b8ff" points="183.41,-259.57 172.92,-261.01 182.02,-266.43 183.41,-259.57"/>
</a>
</g>
</g>
<!-- Node15 -->
<g id="Node000015" class="node">
<title>Node15</title>
<g id="a_Node000015"><a xlink:href="MedicalProductException_8h.html" target="_top" xlink:title=" ">
<polygon fill="white" stroke="#666666" points="384.45,-129 235.45,-129 235.45,-110 384.45,-110 384.45,-129"/>
<text text-anchor="middle" x="309.95" y="-117" font-family="Helvetica,sans-Serif" font-size="10.00">MedicalProductException.h</text>
</a>
</g>
</g>
<!-- Node14&#45;&gt;Node15 -->
<g id="edge19_Node000014_Node000015" class="edge">
<title>Node14&#45;&gt;Node15</title>
<g id="a_edge19_Node000014_Node000015"><a xlink:title=" ">
<path fill="none" stroke="#63b8ff" d="M239.47,-164.84C254.02,-155.68 272.89,-143.82 287.44,-134.66"/>
<polygon fill="#63b8ff" stroke="#63b8ff" points="289.69,-137.38 296.29,-129.09 285.96,-131.46 289.69,-137.38"/>
</a>
</g>
</g>
<!-- Node16 -->
<g id="Node000016" class="node">
<title>Node16</title>
<g id="a_Node000016"><a xlink:href="PharmacyException_8h.html" target="_top" xlink:title=" ">
<polygon fill="white" stroke="#666666" points="470.95,-74 348.95,-74 348.95,-55 470.95,-55 470.95,-74"/>
<text text-anchor="middle" x="409.95" y="-62" font-family="Helvetica,sans-Serif" font-size="10.00">PharmacyException.h</text>
</a>
</g>
</g>
<!-- Node15&#45;&gt;Node16 -->
<g id="edge20_Node000015_Node000016" class="edge">
<title>Node15&#45;&gt;Node16</title>
<g id="a_edge20_Node000015_Node000016"><a xlink:title=" ">
<path fill="none" stroke="#63b8ff" d="M326.02,-109.98C341.82,-101.61 366.17,-88.7 384.58,-78.95"/>
<polygon fill="#63b8ff" stroke="#63b8ff" points="386.4,-81.95 393.59,-74.17 383.12,-75.76 386.4,-81.95"/>
</a>
</g>
</g>
<!-- Node16&#45;&gt;Node5 -->
<g id="edge21_Node000016_Node000005" class="edge">
<title>Node16&#45;&gt;Node5</title>
<g id="a_edge21_Node000016_Node000005"><a xlink:title=" ">
<path fill="none" stroke="#63b8ff" d="M425.22,-54.98C440.09,-46.69 462.94,-33.94 480.37,-24.22"/>
<polygon fill="#63b8ff" stroke="#63b8ff" points="482.39,-27.1 489.41,-19.17 478.97,-20.99 482.39,-27.1"/>
</a>
</g>
</g>
<!-- Node17&#45;&gt;Node14 -->
<g id="edge23_Node000017_Node000014" class="edge">
<title>Node17&#45;&gt;Node14</title>
<g id="a_edge23_Node000017_Node000014"><a xlink:title=" ">
<path fill="none" stroke="#63b8ff" d="M353.55,-230.95C327.45,-221.41 292.73,-208.71 264.83,-198.51"/>
<polygon fill="#63b8ff" stroke="#63b8ff" points="265.86,-195.16 255.27,-195.01 263.46,-201.73 265.86,-195.16"/>
</a>
</g>
</g>
<!-- Node18&#45;&gt;Node14 -->
<g id="edge25_Node000018_Node000014" class="edge">
<title>Node18&#45;&gt;Node14</title>
<g id="a_edge25_Node000018_Node000014"><a xlink:title=" ">
<path fill="none" stroke="#63b8ff" d="M128.75,-230.95C144.8,-221.87 165.88,-209.93 183.41,-200"/>
<polygon fill="#63b8ff" stroke="#63b8ff" points="185.24,-202.99 192.21,-195.01 181.79,-196.9 185.24,-202.99"/>
</a>
</g>
</g>
</g>
</svg>
