<?xml version="1.0" encoding="UTF-8" standalone="no"?>
<!DOCTYPE svg PUBLIC "-//W3C//DTD SVG 1.1//EN"
 "http://www.w3.org/Graphics/SVG/1.1/DTD/svg11.dtd">
<!-- Generated by graphviz version 2.43.0 (0)
 -->
<!-- Title: tablet.cpp Pages: 1 -->
<svg width="1074pt" height="379pt"
 viewBox="0.00 0.00 1074.00 379.00" xmlns="http://www.w3.org/2000/svg" xmlns:xlink="http://www.w3.org/1999/xlink">
<g id="graph0" class="graph" transform="scale(1 1) rotate(0) translate(4 375)">
<title>tablet.cpp</title>
<!-- Node1 -->
<g id="Node000001" class="node">
<title>Node1</title>
<g id="a_Node000001"><a xlink:title=" ">
<polygon fill="#999999" stroke="#666666" points="563.5,-371 498.5,-371 498.5,-352 563.5,-352 563.5,-371"/>
<text text-anchor="middle" x="531" y="-359" font-family="Helvetica,sans-Serif" font-size="10.00">tablet.cpp</text>
</a>
</g>
</g>
<!-- Node2 -->
<g id="Node000002" class="node">
<title>Node2</title>
<g id="a_Node000002"><a xlink:href="tablet_8h.html" target="_top" xlink:title=" ">
<polygon fill="white" stroke="#666666" points="166,-316 112,-316 112,-297 166,-297 166,-316"/>
<text text-anchor="middle" x="139" y="-304" font-family="Helvetica,sans-Serif" font-size="10.00">tablet.h</text>
</a>
</g>
</g>
<!-- Node1&#45;&gt;Node2 -->
<g id="edge1_Node000001_Node000002" class="edge">
<title>Node1&#45;&gt;Node2</title>
<g id="a_edge1_Node000001_Node000002"><a xlink:title=" ">
<path fill="none" stroke="#63b8ff" d="M498.25,-356.07C425.85,-346.28 252.54,-322.85 176.19,-312.53"/>
<polygon fill="#63b8ff" stroke="#63b8ff" points="176.46,-309.03 166.08,-311.16 175.52,-315.97 176.46,-309.03"/>
</a>
</g>
</g>
<!-- Node9 -->
<g id="Node000009" class="node">
<title>Node9</title>
<g id="a_Node000009"><a xlink:title=" ">
<polygon fill="#e0e0e0" stroke="#999999" points="425.5,-74 360.5,-74 360.5,-55 425.5,-55 425.5,-74"/>
<text text-anchor="middle" x="393" y="-62" font-family="Helvetica,sans-Serif" font-size="10.00">stdexcept</text>
</a>
</g>
</g>
<!-- Node1&#45;&gt;Node9 -->
<g id="edge28_Node000001_Node000009" class="edge">
<title>Node1&#45;&gt;Node9</title>
<g id="a_edge28_Node000001_Node000009"><a xlink:title=" ">
<path fill="none" stroke="#63b8ff" d="M511.57,-351.92C479.27,-336.18 418,-299.41 418,-247 418,-247 418,-247 418,-179 418,-144.67 406.96,-105.83 399.55,-83.65"/>
<polygon fill="#63b8ff" stroke="#63b8ff" points="402.85,-82.49 396.27,-74.19 396.24,-84.78 402.85,-82.49"/>
</a>
</g>
</g>
<!-- Node12 -->
<g id="Node000012" class="node">
<title>Node12</title>
<g id="a_Node000012"><a xlink:href="safeinput_8h.html" target="_top" xlink:title=" ">
<polygon fill="white" stroke="#666666" points="592,-316 470,-316 470,-297 592,-297 592,-316"/>
<text text-anchor="middle" x="531" y="-304" font-family="Helvetica,sans-Serif" font-size="10.00">Exception/safeinput.h</text>
</a>
</g>
</g>
<!-- Node1&#45;&gt;Node12 -->
<g id="edge15_Node000001_Node000012" class="edge">
<title>Node1&#45;&gt;Node12</title>
<g id="a_edge15_Node000001_Node000012"><a xlink:title=" ">
<path fill="none" stroke="#63b8ff" d="M531,-351.75C531,-344.8 531,-334.85 531,-326.13"/>
<polygon fill="#63b8ff" stroke="#63b8ff" points="534.5,-326.09 531,-316.09 527.5,-326.09 534.5,-326.09"/>
</a>
</g>
</g>
<!-- Node14 -->
<g id="Node000014" class="node">
<title>Node14</title>
<g id="a_Node000014"><a xlink:href="InvalidProductDataException_8h.html" target="_top" xlink:title=" ">
<polygon fill="white" stroke="#666666" points="766,-195 596,-195 596,-165 766,-165 766,-195"/>
<text text-anchor="start" x="604" y="-183" font-family="Helvetica,sans-Serif" font-size="10.00">Exception/PharmacyExceptions</text>
<text text-anchor="middle" x="681" y="-172" font-family="Helvetica,sans-Serif" font-size="10.00">/InvalidProductDataException.h</text>
</a>
</g>
</g>
<!-- Node1&#45;&gt;Node14 -->
<g id="edge27_Node000001_Node000014" class="edge">
<title>Node1&#45;&gt;Node14</title>
<g id="a_edge27_Node000001_Node000014"><a xlink:title=" ">
<path fill="none" stroke="#63b8ff" d="M563.61,-358.09C655.45,-350.55 912.8,-324.08 963,-261 971.3,-250.57 971.57,-241.22 963,-231 939.32,-202.75 848.47,-190.45 776.2,-185.1"/>
<polygon fill="#63b8ff" stroke="#63b8ff" points="776.35,-181.61 766.13,-184.39 775.86,-188.59 776.35,-181.61"/>
</a>
</g>
</g>
<!-- Node19 -->
<g id="Node000019" class="node">
<title>Node19</title>
<g id="a_Node000019"><a xlink:title=" ">
<polygon fill="#e0e0e0" stroke="#999999" points="1066,-316 1010,-316 1010,-297 1066,-297 1066,-316"/>
<text text-anchor="middle" x="1038" y="-304" font-family="Helvetica,sans-Serif" font-size="10.00">QDebug</text>
</a>
</g>
</g>
<!-- Node1&#45;&gt;Node19 -->
<g id="edge29_Node000001_Node000019" class="edge">
<title>Node1&#45;&gt;Node19</title>
<g id="a_edge29_Node000001_Node000019"><a xlink:title=" ">
<path fill="none" stroke="#63b8ff" d="M563.56,-358.56C639.58,-353.76 834.56,-339.99 996,-316 997.1,-315.84 998.22,-315.66 999.35,-315.48"/>
<polygon fill="#63b8ff" stroke="#63b8ff" points="1000.37,-318.85 1009.6,-313.66 999.15,-311.96 1000.37,-318.85"/>
</a>
</g>
</g>
<!-- Node3 -->
<g id="Node000003" class="node">
<title>Node3</title>
<g id="a_Node000003"><a xlink:href="medicine_8h.html" target="_top" xlink:title=" ">
<polygon fill="white" stroke="#666666" points="174.5,-255.5 103.5,-255.5 103.5,-236.5 174.5,-236.5 174.5,-255.5"/>
<text text-anchor="middle" x="139" y="-243.5" font-family="Helvetica,sans-Serif" font-size="10.00">medicine.h</text>
</a>
</g>
</g>
<!-- Node2&#45;&gt;Node3 -->
<g id="edge2_Node000002_Node000003" class="edge">
<title>Node2&#45;&gt;Node3</title>
<g id="a_edge2_Node000002_Node000003"><a xlink:title=" ">
<path fill="none" stroke="#63b8ff" d="M139,-296.87C139,-288.75 139,-276.31 139,-265.89"/>
<polygon fill="#63b8ff" stroke="#63b8ff" points="142.5,-265.67 139,-255.67 135.5,-265.67 142.5,-265.67"/>
</a>
</g>
</g>
<!-- Node5 -->
<g id="Node000005" class="node">
<title>Node5</title>
<g id="a_Node000005"><a xlink:title=" ">
<polygon fill="#e0e0e0" stroke="#999999" points="505,-19 445,-19 445,0 505,0 505,-19"/>
<text text-anchor="middle" x="475" y="-7" font-family="Helvetica,sans-Serif" font-size="10.00">iostream</text>
</a>
</g>
</g>
<!-- Node2&#45;&gt;Node5 -->
<g id="edge14_Node000002_Node000005" class="edge">
<title>Node2&#45;&gt;Node5</title>
<g id="a_edge14_Node000002_Node000005"><a xlink:title=" ">
<path fill="none" stroke="#63b8ff" d="M115.42,-296.96C75.76,-280.91 0,-242.23 0,-181 0,-181 0,-181 0,-118.5 0,-29.62 320.21,-13.89 434.81,-11.1"/>
<polygon fill="#63b8ff" stroke="#63b8ff" points="435.01,-14.6 444.93,-10.87 434.85,-7.6 435.01,-14.6"/>
</a>
</g>
</g>
<!-- Node4 -->
<g id="Node000004" class="node">
<title>Node4</title>
<g id="a_Node000004"><a xlink:href="medicalproduct_8h.html" target="_top" xlink:title=" ">
<polygon fill="white" stroke="#666666" points="368.5,-189.5 267.5,-189.5 267.5,-170.5 368.5,-170.5 368.5,-189.5"/>
<text text-anchor="middle" x="318" y="-177.5" font-family="Helvetica,sans-Serif" font-size="10.00">medicalproduct.h</text>
</a>
</g>
</g>
<!-- Node3&#45;&gt;Node4 -->
<g id="edge3_Node000003_Node000004" class="edge">
<title>Node3&#45;&gt;Node4</title>
<g id="a_edge3_Node000003_Node000004"><a xlink:title=" ">
<path fill="none" stroke="#63b8ff" d="M163.14,-236.37C194.32,-225.22 248.77,-205.75 284.1,-193.12"/>
<polygon fill="#63b8ff" stroke="#63b8ff" points="285.72,-196.26 293.96,-189.6 283.36,-189.67 285.72,-196.26"/>
</a>
</g>
</g>
<!-- Node6 -->
<g id="Node000006" class="node">
<title>Node6</title>
<g id="a_Node000006"><a xlink:title=" ">
<polygon fill="#e0e0e0" stroke="#999999" points="259,-74 215,-74 215,-55 259,-55 259,-74"/>
<text text-anchor="middle" x="237" y="-62" font-family="Helvetica,sans-Serif" font-size="10.00">string</text>
</a>
</g>
</g>
<!-- Node3&#45;&gt;Node6 -->
<g id="edge13_Node000003_Node000006" class="edge">
<title>Node3&#45;&gt;Node6</title>
<g id="a_edge13_Node000003_Node000006"><a xlink:title=" ">
<path fill="none" stroke="#63b8ff" d="M142.84,-236.5C154.52,-210.69 189.74,-133.6 204,-110 209.84,-100.33 217.27,-90.16 223.61,-81.99"/>
<polygon fill="#63b8ff" stroke="#63b8ff" points="226.45,-84.03 229.92,-74.02 220.96,-79.69 226.45,-84.03"/>
</a>
</g>
</g>
<!-- Node10 -->
<g id="Node000010" class="node">
<title>Node10</title>
<g id="a_Node000010"><a xlink:title=" ">
<polygon fill="#e0e0e0" stroke="#999999" points="75.5,-189.5 28.5,-189.5 28.5,-170.5 75.5,-170.5 75.5,-189.5"/>
<text text-anchor="middle" x="52" y="-177.5" font-family="Helvetica,sans-Serif" font-size="10.00">vector</text>
</a>
</g>
</g>
<!-- Node3&#45;&gt;Node10 -->
<g id="edge11_Node000003_Node000010" class="edge">
<title>Node3&#45;&gt;Node10</title>
<g id="a_edge11_Node000003_Node000010"><a xlink:title=" ">
<path fill="none" stroke="#63b8ff" d="M127.27,-236.37C113.13,-225.97 89.14,-208.32 72.05,-195.75"/>
<polygon fill="#63b8ff" stroke="#63b8ff" points="73.95,-192.81 63.83,-189.7 69.81,-198.44 73.95,-192.81"/>
</a>
</g>
</g>
<!-- Node11 -->
<g id="Node000011" class="node">
<title>Node11</title>
<g id="a_Node000011"><a xlink:title=" ">
<polygon fill="#e0e0e0" stroke="#999999" points="152,-189.5 94,-189.5 94,-170.5 152,-170.5 152,-189.5"/>
<text text-anchor="middle" x="123" y="-177.5" font-family="Helvetica,sans-Serif" font-size="10.00">memory</text>
</a>
</g>
</g>
<!-- Node3&#45;&gt;Node11 -->
<g id="edge12_Node000003_Node000011" class="edge">
<title>Node3&#45;&gt;Node11</title>
<g id="a_edge12_Node000003_Node000011"><a xlink:title=" ">
<path fill="none" stroke="#63b8ff" d="M136.84,-236.37C134.52,-227.07 130.74,-211.98 127.72,-199.9"/>
<polygon fill="#63b8ff" stroke="#63b8ff" points="131.05,-198.76 125.23,-189.91 124.26,-200.46 131.05,-198.76"/>
</a>
</g>
</g>
<!-- Node4&#45;&gt;Node5 -->
<g id="edge4_Node000004_Node000005" class="edge">
<title>Node4&#45;&gt;Node5</title>
<g id="a_edge4_Node000004_Node000005"><a xlink:title=" ">
<path fill="none" stroke="#63b8ff" d="M329.54,-170.38C351.59,-153.54 400.52,-114.35 434,-74 446.02,-59.51 457.44,-41.33 465.16,-28.13"/>
<polygon fill="#63b8ff" stroke="#63b8ff" points="468.37,-29.58 470.29,-19.16 462.29,-26.1 468.37,-29.58"/>
</a>
</g>
</g>
<!-- Node4&#45;&gt;Node6 -->
<g id="edge5_Node000004_Node000006" class="edge">
<title>Node4&#45;&gt;Node6</title>
<g id="a_edge5_Node000004_Node000006"><a xlink:title=" ">
<path fill="none" stroke="#63b8ff" d="M309.59,-170.17C300.54,-160.47 285.98,-144.23 275,-129 264.22,-114.05 253.59,-95.92 246.33,-82.86"/>
<polygon fill="#63b8ff" stroke="#63b8ff" points="249.35,-81.1 241.48,-74.01 243.21,-84.46 249.35,-81.1"/>
</a>
</g>
</g>
<!-- Node7 -->
<g id="Node000007" class="node">
<title>Node7</title>
<g id="a_Node000007"><a xlink:title=" ">
<polygon fill="#e0e0e0" stroke="#999999" points="341,-74 297,-74 297,-55 341,-55 341,-74"/>
<text text-anchor="middle" x="319" y="-62" font-family="Helvetica,sans-Serif" font-size="10.00">ctime</text>
</a>
</g>
</g>
<!-- Node4&#45;&gt;Node7 -->
<g id="edge6_Node000004_Node000007" class="edge">
<title>Node4&#45;&gt;Node7</title>
<g id="a_edge6_Node000004_Node000007"><a xlink:title=" ">
<path fill="none" stroke="#63b8ff" d="M328.92,-170.43C339.43,-161.41 354.63,-146.18 361,-129 367.72,-110.87 353.05,-92.73 339.23,-80.5"/>
<polygon fill="#63b8ff" stroke="#63b8ff" points="341.32,-77.68 331.37,-74.04 336.87,-83.09 341.32,-77.68"/>
</a>
</g>
</g>
<!-- Node8 -->
<g id="Node000008" class="node">
<title>Node8</title>
<g id="a_Node000008"><a xlink:href="safedate_8h.html" target="_top" xlink:title=" ">
<polygon fill="white" stroke="#666666" points="352,-129 284,-129 284,-110 352,-110 352,-129"/>
<text text-anchor="middle" x="318" y="-117" font-family="Helvetica,sans-Serif" font-size="10.00">safedate.h</text>
</a>
</g>
</g>
<!-- Node4&#45;&gt;Node8 -->
<g id="edge7_Node000004_Node000008" class="edge">
<title>Node4&#45;&gt;Node8</title>
<g id="a_edge7_Node000004_Node000008"><a xlink:title=" ">
<path fill="none" stroke="#63b8ff" d="M318,-170.37C318,-162.25 318,-149.81 318,-139.39"/>
<polygon fill="#63b8ff" stroke="#63b8ff" points="321.5,-139.17 318,-129.17 314.5,-139.17 321.5,-139.17"/>
</a>
</g>
</g>
<!-- Node8&#45;&gt;Node6 -->
<g id="edge10_Node000008_Node000006" class="edge">
<title>Node8&#45;&gt;Node6</title>
<g id="a_edge10_Node000008_Node000006"><a xlink:title=" ">
<path fill="none" stroke="#63b8ff" d="M304.99,-109.98C292.54,-101.84 273.54,-89.41 258.79,-79.76"/>
<polygon fill="#63b8ff" stroke="#63b8ff" points="260.54,-76.72 250.25,-74.17 256.7,-82.57 260.54,-76.72"/>
</a>
</g>
</g>
<!-- Node8&#45;&gt;Node7 -->
<g id="edge8_Node000008_Node000007" class="edge">
<title>Node8&#45;&gt;Node7</title>
<g id="a_edge8_Node000008_Node000007"><a xlink:title=" ">
<path fill="none" stroke="#63b8ff" d="M318.17,-109.75C318.3,-102.8 318.48,-92.85 318.65,-84.13"/>
<polygon fill="#63b8ff" stroke="#63b8ff" points="322.15,-84.15 318.84,-74.09 315.15,-84.02 322.15,-84.15"/>
</a>
</g>
</g>
<!-- Node8&#45;&gt;Node9 -->
<g id="edge9_Node000008_Node000009" class="edge">
<title>Node8&#45;&gt;Node9</title>
<g id="a_edge9_Node000008_Node000009"><a xlink:title=" ">
<path fill="none" stroke="#63b8ff" d="M330.05,-109.98C341.46,-101.92 358.83,-89.65 372.43,-80.03"/>
<polygon fill="#63b8ff" stroke="#63b8ff" points="374.58,-82.8 380.73,-74.17 370.54,-77.08 374.58,-82.8"/>
</a>
</g>
</g>
<!-- Node12&#45;&gt;Node5 -->
<g id="edge16_Node000012_Node000005" class="edge">
<title>Node12&#45;&gt;Node5</title>
<g id="a_edge16_Node000012_Node000005"><a xlink:title=" ">
<path fill="none" stroke="#63b8ff" d="M518.4,-296.92C507.91,-288.97 493.64,-276.12 487,-261 451.8,-180.86 464.49,-72.11 471.55,-29.1"/>
<polygon fill="#63b8ff" stroke="#63b8ff" points="475.01,-29.67 473.28,-19.21 468.11,-28.47 475.01,-29.67"/>
</a>
</g>
</g>
<!-- Node12&#45;&gt;Node6 -->
<g id="edge17_Node000012_Node000006" class="edge">
<title>Node12&#45;&gt;Node6</title>
<g id="a_edge17_Node000012_Node000006"><a xlink:title=" ">
<path fill="none" stroke="#63b8ff" d="M469.96,-298.19C406.74,-287.21 310.06,-260.25 258,-195 232.39,-162.91 232.44,-111.81 234.7,-84.38"/>
<polygon fill="#63b8ff" stroke="#63b8ff" points="238.21,-84.5 235.74,-74.19 231.24,-83.79 238.21,-84.5"/>
</a>
</g>
</g>
<!-- Node13 -->
<g id="Node000013" class="node">
<title>Node13</title>
<g id="a_Node000013"><a xlink:title=" ">
<polygon fill="#e0e0e0" stroke="#999999" points="540,-255.5 496,-255.5 496,-236.5 540,-236.5 540,-255.5"/>
<text text-anchor="middle" x="518" y="-243.5" font-family="Helvetica,sans-Serif" font-size="10.00">limits</text>
</a>
</g>
</g>
<!-- Node12&#45;&gt;Node13 -->
<g id="edge18_Node000012_Node000013" class="edge">
<title>Node12&#45;&gt;Node13</title>
<g id="a_edge18_Node000012_Node000013"><a xlink:title=" ">
<path fill="none" stroke="#63b8ff" d="M529.08,-296.87C527.26,-288.66 524.45,-276.04 522.12,-265.55"/>
<polygon fill="#63b8ff" stroke="#63b8ff" points="525.51,-264.67 519.93,-255.67 518.68,-266.19 525.51,-264.67"/>
</a>
</g>
</g>
<!-- Node12&#45;&gt;Node14 -->
<g id="edge19_Node000012_Node000014" class="edge">
<title>Node12&#45;&gt;Node14</title>
<g id="a_edge19_Node000012_Node000014"><a xlink:title=" ">
<path fill="none" stroke="#63b8ff" d="M535.86,-296.71C544.52,-281.68 563.88,-250.77 587,-231 601.82,-218.33 620.38,-207.61 637.09,-199.39"/>
<polygon fill="#63b8ff" stroke="#63b8ff" points="638.62,-202.54 646.14,-195.08 635.61,-196.22 638.62,-202.54"/>
</a>
</g>
</g>
<!-- Node17 -->
<g id="Node000017" class="node">
<title>Node17</title>
<g id="a_Node000017"><a xlink:href="InvalidPriceException_8h.html" target="_top" xlink:title=" ">
<polygon fill="white" stroke="#666666" points="766,-261 596,-261 596,-231 766,-231 766,-261"/>
<text text-anchor="start" x="604" y="-249" font-family="Helvetica,sans-Serif" font-size="10.00">Exception/PharmacyExceptions</text>
<text text-anchor="middle" x="681" y="-238" font-family="Helvetica,sans-Serif" font-size="10.00">/InvalidPriceException.h</text>
</a>
</g>
</g>
<!-- Node12&#45;&gt;Node17 -->
<g id="edge23_Node000012_Node000017" class="edge">
<title>Node12&#45;&gt;Node17</title>
<g id="a_edge23_Node000012_Node000017"><a xlink:title=" ">
<path fill="none" stroke="#63b8ff" d="M552.81,-296.99C574.4,-288.57 608.1,-275.43 635.53,-264.73"/>
<polygon fill="#63b8ff" stroke="#63b8ff" points="636.89,-267.96 644.94,-261.06 634.35,-261.44 636.89,-267.96"/>
</a>
</g>
</g>
<!-- Node18 -->
<g id="Node000018" class="node">
<title>Node18</title>
<g id="a_Node000018"><a xlink:href="InvalidProductIdException_8h.html" target="_top" xlink:title=" ">
<polygon fill="white" stroke="#666666" points="954,-261 784,-261 784,-231 954,-231 954,-261"/>
<text text-anchor="start" x="792" y="-249" font-family="Helvetica,sans-Serif" font-size="10.00">Exception/PharmacyExceptions</text>
<text text-anchor="middle" x="869" y="-238" font-family="Helvetica,sans-Serif" font-size="10.00">/InvalidProductIdException.h</text>
</a>
</g>
</g>
<!-- Node12&#45;&gt;Node18 -->
<g id="edge25_Node000012_Node000018" class="edge">
<title>Node12&#45;&gt;Node18</title>
<g id="a_edge25_Node000012_Node000018"><a xlink:title=" ">
<path fill="none" stroke="#63b8ff" d="M580.15,-296.99C631.85,-288.04 714.39,-273.76 778.02,-262.75"/>
<polygon fill="#63b8ff" stroke="#63b8ff" points="778.81,-266.16 788.07,-261.01 777.62,-259.26 778.81,-266.16"/>
</a>
</g>
</g>
<!-- Node15 -->
<g id="Node000015" class="node">
<title>Node15</title>
<g id="a_Node000015"><a xlink:href="MedicalProductException_8h.html" target="_top" xlink:title=" ">
<polygon fill="white" stroke="#666666" points="712.5,-129 563.5,-129 563.5,-110 712.5,-110 712.5,-129"/>
<text text-anchor="middle" x="638" y="-117" font-family="Helvetica,sans-Serif" font-size="10.00">MedicalProductException.h</text>
</a>
</g>
</g>
<!-- Node14&#45;&gt;Node15 -->
<g id="edge20_Node000014_Node000015" class="edge">
<title>Node14&#45;&gt;Node15</title>
<g id="a_edge20_Node000014_Node000015"><a xlink:title=" ">
<path fill="none" stroke="#63b8ff" d="M670.59,-164.84C664.54,-156.61 656.88,-146.18 650.5,-137.51"/>
<polygon fill="#63b8ff" stroke="#63b8ff" points="653.19,-135.25 644.44,-129.27 647.55,-139.4 653.19,-135.25"/>
</a>
</g>
</g>
<!-- Node16 -->
<g id="Node000016" class="node">
<title>Node16</title>
<g id="a_Node000016"><a xlink:href="PharmacyException_8h.html" target="_top" xlink:title=" ">
<polygon fill="white" stroke="#666666" points="671,-74 549,-74 549,-55 671,-55 671,-74"/>
<text text-anchor="middle" x="610" y="-62" font-family="Helvetica,sans-Serif" font-size="10.00">PharmacyException.h</text>
</a>
</g>
</g>
<!-- Node15&#45;&gt;Node16 -->
<g id="edge21_Node000015_Node000016" class="edge">
<title>Node15&#45;&gt;Node16</title>
<g id="a_edge21_Node000015_Node000016"><a xlink:title=" ">
<path fill="none" stroke="#63b8ff" d="M633.38,-109.75C629.54,-102.49 623.98,-91.95 619.24,-82.98"/>
<polygon fill="#63b8ff" stroke="#63b8ff" points="622.3,-81.3 614.54,-74.09 616.11,-84.57 622.3,-81.3"/>
</a>
</g>
</g>
<!-- Node16&#45;&gt;Node5 -->
<g id="edge22_Node000016_Node000005" class="edge">
<title>Node16&#45;&gt;Node5</title>
<g id="a_edge22_Node000016_Node000005"><a xlink:title=" ">
<path fill="none" stroke="#63b8ff" d="M588.31,-54.98C566.2,-46.3 531.68,-32.75 506.55,-22.88"/>
<polygon fill="#63b8ff" stroke="#63b8ff" points="507.67,-19.57 497.08,-19.17 505.11,-26.08 507.67,-19.57"/>
</a>
</g>
</g>
<!-- Node17&#45;&gt;Node14 -->
<g id="edge24_Node000017_Node000014" class="edge">
<title>Node17&#45;&gt;Node14</title>
<g id="a_edge24_Node000017_Node000014"><a xlink:title=" ">
<path fill="none" stroke="#63b8ff" d="M681,-230.8C681,-223.34 681,-213.99 681,-205.41"/>
<polygon fill="#63b8ff" stroke="#63b8ff" points="684.5,-205.16 681,-195.16 677.5,-205.16 684.5,-205.16"/>
</a>
</g>
</g>
<!-- Node18&#45;&gt;Node14 -->
<g id="edge26_Node000018_Node000014" class="edge">
<title>Node18&#45;&gt;Node14</title>
<g id="a_edge26_Node000018_Node000014"><a xlink:title=" ">
<path fill="none" stroke="#63b8ff" d="M827.74,-230.95C799.46,-221.33 761.75,-208.49 731.65,-198.24"/>
<polygon fill="#63b8ff" stroke="#63b8ff" points="732.76,-194.92 722.16,-195.01 730.5,-201.55 732.76,-194.92"/>
</a>
</g>
</g>
</g>
</svg>
