<?xml version="1.0" encoding="UTF-8" standalone="no"?>
<!DOCTYPE svg PUBLIC "-//W3C//DTD SVG 1.1//EN"
 "http://www.w3.org/Graphics/SVG/1.1/DTD/svg11.dtd">
<!-- Generated by graphviz version 2.43.0 (0)
 -->
<!-- Title: tablet.h Pages: 1 -->
<svg width="320pt" height="247pt"
 viewBox="0.00 0.00 320.08 247.00" xmlns="http://www.w3.org/2000/svg" xmlns:xlink="http://www.w3.org/1999/xlink">
<g id="graph0" class="graph" transform="scale(1 1) rotate(0) translate(4 243)">
<title>tablet.h</title>
<!-- Node1 -->
<g id="Node000001" class="node">
<title>Node1</title>
<g id="a_Node000001"><a xlink:title=" ">
<polygon fill="#999999" stroke="#666666" points="226.08,-239 172.08,-239 172.08,-220 226.08,-220 226.08,-239"/>
<text text-anchor="middle" x="199.08" y="-227" font-family="Helvetica,sans-Serif" font-size="10.00">tablet.h</text>
</a>
</g>
</g>
<!-- Node2 -->
<g id="Node000002" class="node">
<title>Node2</title>
<g id="a_Node000002"><a xlink:href="medicine_8h.html" target="_top" xlink:title=" ">
<polygon fill="white" stroke="#666666" points="146.58,-184 75.58,-184 75.58,-165 146.58,-165 146.58,-184"/>
<text text-anchor="middle" x="111.08" y="-172" font-family="Helvetica,sans-Serif" font-size="10.00">medicine.h</text>
</a>
</g>
</g>
<!-- Node1&#45;&gt;Node2 -->
<g id="edge1_Node000001_Node000002" class="edge">
<title>Node1&#45;&gt;Node2</title>
<g id="a_edge1_Node000001_Node000002"><a xlink:title=" ">
<path fill="none" stroke="#63b8ff" d="M184.94,-219.98C171.29,-211.77 150.39,-199.18 134.3,-189.49"/>
<polygon fill="#63b8ff" stroke="#63b8ff" points="135.84,-186.33 125.47,-184.17 132.23,-192.33 135.84,-186.33"/>
</a>
</g>
</g>
<!-- Node4 -->
<g id="Node000004" class="node">
<title>Node4</title>
<g id="a_Node000004"><a xlink:title=" ">
<polygon fill="#e0e0e0" stroke="#999999" points="312.08,-74 252.08,-74 252.08,-55 312.08,-55 312.08,-74"/>
<text text-anchor="middle" x="282.08" y="-62" font-family="Helvetica,sans-Serif" font-size="10.00">iostream</text>
</a>
</g>
</g>
<!-- Node1&#45;&gt;Node4 -->
<g id="edge13_Node000001_Node000004" class="edge">
<title>Node1&#45;&gt;Node4</title>
<g id="a_edge13_Node000001_Node000004"><a xlink:title=" ">
<path fill="none" stroke="#63b8ff" d="M207,-219.93C221.66,-203.58 253,-166.23 269.08,-129 275.28,-114.62 278.58,-97.1 280.3,-84.11"/>
<polygon fill="#63b8ff" stroke="#63b8ff" points="283.8,-84.38 281.44,-74.05 276.84,-83.59 283.8,-84.38"/>
</a>
</g>
</g>
<!-- Node3 -->
<g id="Node000003" class="node">
<title>Node3</title>
<g id="a_Node000003"><a xlink:href="medicalproduct_8h.html" target="_top" xlink:title=" ">
<polygon fill="white" stroke="#666666" points="259.58,-129 158.58,-129 158.58,-110 259.58,-110 259.58,-129"/>
<text text-anchor="middle" x="209.08" y="-117" font-family="Helvetica,sans-Serif" font-size="10.00">medicalproduct.h</text>
</a>
</g>
</g>
<!-- Node2&#45;&gt;Node3 -->
<g id="edge2_Node000002_Node000003" class="edge">
<title>Node2&#45;&gt;Node3</title>
<g id="a_edge2_Node000002_Node000003"><a xlink:title=" ">
<path fill="none" stroke="#63b8ff" d="M126.82,-164.98C142.3,-156.61 166.17,-143.7 184.21,-133.95"/>
<polygon fill="#63b8ff" stroke="#63b8ff" points="185.91,-137.01 193.04,-129.17 182.58,-130.85 185.91,-137.01"/>
</a>
</g>
</g>
<!-- Node5 -->
<g id="Node000005" class="node">
<title>Node5</title>
<g id="a_Node000005"><a xlink:title=" ">
<polygon fill="#e0e0e0" stroke="#999999" points="93.08,-19 49.08,-19 49.08,0 93.08,0 93.08,-19"/>
<text text-anchor="middle" x="71.08" y="-7" font-family="Helvetica,sans-Serif" font-size="10.00">string</text>
</a>
</g>
</g>
<!-- Node2&#45;&gt;Node5 -->
<g id="edge12_Node000002_Node000005" class="edge">
<title>Node2&#45;&gt;Node5</title>
<g id="a_edge12_Node000002_Node000005"><a xlink:title=" ">
<path fill="none" stroke="#63b8ff" d="M75.44,-168.45C51.69,-163.03 22.16,-151.87 7.08,-129 -16.28,-93.6 25.58,-48.88 51.98,-25.82"/>
<polygon fill="#63b8ff" stroke="#63b8ff" points="54.51,-28.25 59.9,-19.13 50,-22.9 54.51,-28.25"/>
</a>
</g>
</g>
<!-- Node9 -->
<g id="Node000009" class="node">
<title>Node9</title>
<g id="a_Node000009"><a xlink:title=" ">
<polygon fill="#e0e0e0" stroke="#999999" points="63.58,-129 16.58,-129 16.58,-110 63.58,-110 63.58,-129"/>
<text text-anchor="middle" x="40.08" y="-117" font-family="Helvetica,sans-Serif" font-size="10.00">vector</text>
</a>
</g>
</g>
<!-- Node2&#45;&gt;Node9 -->
<g id="edge10_Node000002_Node000009" class="edge">
<title>Node2&#45;&gt;Node9</title>
<g id="a_edge10_Node000002_Node000009"><a xlink:title=" ">
<path fill="none" stroke="#63b8ff" d="M99.67,-164.98C88.97,-157 72.73,-144.88 59.91,-135.31"/>
<polygon fill="#63b8ff" stroke="#63b8ff" points="61.8,-132.35 51.69,-129.17 57.61,-137.96 61.8,-132.35"/>
</a>
</g>
</g>
<!-- Node10 -->
<g id="Node000010" class="node">
<title>Node10</title>
<g id="a_Node000010"><a xlink:title=" ">
<polygon fill="#e0e0e0" stroke="#999999" points="140.08,-129 82.08,-129 82.08,-110 140.08,-110 140.08,-129"/>
<text text-anchor="middle" x="111.08" y="-117" font-family="Helvetica,sans-Serif" font-size="10.00">memory</text>
</a>
</g>
</g>
<!-- Node2&#45;&gt;Node10 -->
<g id="edge11_Node000002_Node000010" class="edge">
<title>Node2&#45;&gt;Node10</title>
<g id="a_edge11_Node000002_Node000010"><a xlink:title=" ">
<path fill="none" stroke="#63b8ff" d="M111.08,-164.75C111.08,-157.8 111.08,-147.85 111.08,-139.13"/>
<polygon fill="#63b8ff" stroke="#63b8ff" points="114.58,-139.09 111.08,-129.09 107.58,-139.09 114.58,-139.09"/>
</a>
</g>
</g>
<!-- Node3&#45;&gt;Node4 -->
<g id="edge3_Node000003_Node000004" class="edge">
<title>Node3&#45;&gt;Node4</title>
<g id="a_edge3_Node000003_Node000004"><a xlink:title=" ">
<path fill="none" stroke="#63b8ff" d="M220.8,-109.98C231.81,-102 248.5,-89.88 261.68,-80.31"/>
<polygon fill="#63b8ff" stroke="#63b8ff" points="264.1,-82.88 270.13,-74.17 259.98,-77.21 264.1,-82.88"/>
</a>
</g>
</g>
<!-- Node3&#45;&gt;Node5 -->
<g id="edge4_Node000003_Node000005" class="edge">
<title>Node3&#45;&gt;Node5</title>
<g id="a_edge4_Node000003_Node000005"><a xlink:title=" ">
<path fill="none" stroke="#63b8ff" d="M173.04,-109.93C151,-103.19 123.41,-91.88 104.08,-74 90.7,-61.63 81.82,-42.6 76.67,-28.6"/>
<polygon fill="#63b8ff" stroke="#63b8ff" points="79.97,-27.42 73.45,-19.06 73.34,-29.65 79.97,-27.42"/>
</a>
</g>
</g>
<!-- Node6 -->
<g id="Node000006" class="node">
<title>Node6</title>
<g id="a_Node000006"><a xlink:title=" ">
<polygon fill="#e0e0e0" stroke="#999999" points="239.08,-19 195.08,-19 195.08,0 239.08,0 239.08,-19"/>
<text text-anchor="middle" x="217.08" y="-7" font-family="Helvetica,sans-Serif" font-size="10.00">ctime</text>
</a>
</g>
</g>
<!-- Node3&#45;&gt;Node6 -->
<g id="edge5_Node000003_Node000006" class="edge">
<title>Node3&#45;&gt;Node6</title>
<g id="a_edge5_Node000003_Node000006"><a xlink:title=" ">
<path fill="none" stroke="#63b8ff" d="M209.73,-109.66C211.03,-92.17 213.94,-52.8 215.68,-29.27"/>
<polygon fill="#63b8ff" stroke="#63b8ff" points="219.19,-29.39 216.43,-19.16 212.2,-28.87 219.19,-29.39"/>
</a>
</g>
</g>
<!-- Node7 -->
<g id="Node000007" class="node">
<title>Node7</title>
<g id="a_Node000007"><a xlink:href="safedate_8h.html" target="_top" xlink:title=" ">
<polygon fill="white" stroke="#666666" points="181.08,-74 113.08,-74 113.08,-55 181.08,-55 181.08,-74"/>
<text text-anchor="middle" x="147.08" y="-62" font-family="Helvetica,sans-Serif" font-size="10.00">safedate.h</text>
</a>
</g>
</g>
<!-- Node3&#45;&gt;Node7 -->
<g id="edge6_Node000003_Node000007" class="edge">
<title>Node3&#45;&gt;Node7</title>
<g id="a_edge6_Node000003_Node000007"><a xlink:title=" ">
<path fill="none" stroke="#63b8ff" d="M199.11,-109.98C189.95,-102.15 176.14,-90.34 165.05,-80.86"/>
<polygon fill="#63b8ff" stroke="#63b8ff" points="167.09,-78.01 157.22,-74.17 162.54,-83.33 167.09,-78.01"/>
</a>
</g>
</g>
<!-- Node7&#45;&gt;Node5 -->
<g id="edge9_Node000007_Node000005" class="edge">
<title>Node7&#45;&gt;Node5</title>
<g id="a_edge9_Node000007_Node000005"><a xlink:title=" ">
<path fill="none" stroke="#63b8ff" d="M134.86,-54.98C123.3,-46.92 105.7,-34.65 91.91,-25.03"/>
<polygon fill="#63b8ff" stroke="#63b8ff" points="93.71,-22.02 83.51,-19.17 89.71,-27.76 93.71,-22.02"/>
</a>
</g>
</g>
<!-- Node7&#45;&gt;Node6 -->
<g id="edge7_Node000007_Node000006" class="edge">
<title>Node7&#45;&gt;Node6</title>
<g id="a_edge7_Node000007_Node000006"><a xlink:title=" ">
<path fill="none" stroke="#63b8ff" d="M158.32,-54.98C168.87,-47 184.88,-34.88 197.52,-25.31"/>
<polygon fill="#63b8ff" stroke="#63b8ff" points="199.76,-28 205.62,-19.17 195.54,-22.42 199.76,-28"/>
</a>
</g>
</g>
<!-- Node8 -->
<g id="Node000008" class="node">
<title>Node8</title>
<g id="a_Node000008"><a xlink:title=" ">
<polygon fill="#e0e0e0" stroke="#999999" points="176.58,-19 111.58,-19 111.58,0 176.58,0 176.58,-19"/>
<text text-anchor="middle" x="144.08" y="-7" font-family="Helvetica,sans-Serif" font-size="10.00">stdexcept</text>
</a>
</g>
</g>
<!-- Node7&#45;&gt;Node8 -->
<g id="edge8_Node000007_Node000008" class="edge">
<title>Node7&#45;&gt;Node8</title>
<g id="a_edge8_Node000007_Node000008"><a xlink:title=" ">
<path fill="none" stroke="#63b8ff" d="M146.58,-54.75C146.19,-47.8 145.62,-37.85 145.13,-29.13"/>
<polygon fill="#63b8ff" stroke="#63b8ff" points="148.62,-28.88 144.56,-19.09 141.63,-29.27 148.62,-28.88"/>
</a>
</g>
</g>
</g>
</svg>
