<?xml version="1.0" encoding="UTF-8" standalone="no"?>
<!DOCTYPE svg PUBLIC "-//W3C//DTD SVG 1.1//EN"
 "http://www.w3.org/Graphics/SVG/1.1/DTD/svg11.dtd">
<!-- Generated by graphviz version 2.43.0 (0)
 -->
<!-- Title: build/Desktop&#45;Debug/ui_mainwindow.h Pages: 1 -->
<svg width="828pt" height="93pt"
 viewBox="0.00 0.00 828.00 93.00" xmlns="http://www.w3.org/2000/svg" xmlns:xlink="http://www.w3.org/1999/xlink">
<g id="graph0" class="graph" transform="scale(1 1) rotate(0) translate(4 89)">
<title>build/Desktop&#45;Debug/ui_mainwindow.h</title>
<!-- Node1 -->
<g id="Node000001" class="node">
<title>Node1</title>
<g id="a_Node000001"><a xlink:title=" ">
<polygon fill="#999999" stroke="#666666" points="469,-85 350,-85 350,-55 469,-55 469,-85"/>
<text text-anchor="start" x="358" y="-73" font-family="Helvetica,sans-Serif" font-size="10.00">build/Desktop&#45;Debug</text>
<text text-anchor="middle" x="409.5" y="-62" font-family="Helvetica,sans-Serif" font-size="10.00">/ui_mainwindow.h</text>
</a>
</g>
</g>
<!-- Node2 -->
<g id="Node000002" class="node">
<title>Node2</title>
<g id="a_Node000002"><a xlink:title=" ">
<polygon fill="#e0e0e0" stroke="#999999" points="95,-19 0,-19 0,0 95,0 95,-19"/>
<text text-anchor="middle" x="47.5" y="-7" font-family="Helvetica,sans-Serif" font-size="10.00">QtCore/QVariant</text>
</a>
</g>
</g>
<!-- Node1&#45;&gt;Node2 -->
<g id="edge1_Node000001_Node000002" class="edge">
<title>Node1&#45;&gt;Node2</title>
<g id="a_edge1_Node000001_Node000002"><a xlink:title=" ">
<path fill="none" stroke="#63b8ff" d="M349.72,-59.34C281.91,-48.38 172.1,-30.63 105.17,-19.82"/>
<polygon fill="#63b8ff" stroke="#63b8ff" points="105.65,-16.35 95.21,-18.21 104.53,-23.26 105.65,-16.35"/>
</a>
</g>
</g>
<!-- Node3 -->
<g id="Node000003" class="node">
<title>Node3</title>
<g id="a_Node000003"><a xlink:title=" ">
<polygon fill="#e0e0e0" stroke="#999999" points="246,-19 113,-19 113,0 246,0 246,-19"/>
<text text-anchor="middle" x="179.5" y="-7" font-family="Helvetica,sans-Serif" font-size="10.00">QtWidgets/QApplication</text>
</a>
</g>
</g>
<!-- Node1&#45;&gt;Node3 -->
<g id="edge2_Node000001_Node000003" class="edge">
<title>Node1&#45;&gt;Node3</title>
<g id="a_edge2_Node000001_Node000003"><a xlink:title=" ">
<path fill="none" stroke="#63b8ff" d="M354.41,-54.99C314.2,-44.76 260.44,-31.09 223.18,-21.61"/>
<polygon fill="#63b8ff" stroke="#63b8ff" points="223.68,-18.13 213.13,-19.05 221.96,-24.91 223.68,-18.13"/>
</a>
</g>
</g>
<!-- Node4 -->
<g id="Node000004" class="node">
<title>Node4</title>
<g id="a_Node000004"><a xlink:title=" ">
<polygon fill="#e0e0e0" stroke="#999999" points="405,-19 264,-19 264,0 405,0 405,-19"/>
<text text-anchor="middle" x="334.5" y="-7" font-family="Helvetica,sans-Serif" font-size="10.00">QtWidgets/QMainWindow</text>
</a>
</g>
</g>
<!-- Node1&#45;&gt;Node4 -->
<g id="edge3_Node000001_Node000004" class="edge">
<title>Node1&#45;&gt;Node4</title>
<g id="a_edge3_Node000001_Node000004"><a xlink:title=" ">
<path fill="none" stroke="#63b8ff" d="M391.34,-54.84C380.01,-46 365.44,-34.63 353.88,-25.62"/>
<polygon fill="#63b8ff" stroke="#63b8ff" points="355.78,-22.66 345.74,-19.27 351.47,-28.18 355.78,-22.66"/>
</a>
</g>
</g>
<!-- Node5 -->
<g id="Node000005" class="node">
<title>Node5</title>
<g id="a_Node000005"><a xlink:title=" ">
<polygon fill="#e0e0e0" stroke="#999999" points="545.5,-19 423.5,-19 423.5,0 545.5,0 545.5,-19"/>
<text text-anchor="middle" x="484.5" y="-7" font-family="Helvetica,sans-Serif" font-size="10.00">QtWidgets/QMenuBar</text>
</a>
</g>
</g>
<!-- Node1&#45;&gt;Node5 -->
<g id="edge4_Node000001_Node000005" class="edge">
<title>Node1&#45;&gt;Node5</title>
<g id="a_edge4_Node000001_Node000005"><a xlink:title=" ">
<path fill="none" stroke="#63b8ff" d="M427.66,-54.84C438.99,-46 453.56,-34.63 465.12,-25.62"/>
<polygon fill="#63b8ff" stroke="#63b8ff" points="467.53,-28.18 473.26,-19.27 463.22,-22.66 467.53,-28.18"/>
</a>
</g>
</g>
<!-- Node6 -->
<g id="Node000006" class="node">
<title>Node6</title>
<g id="a_Node000006"><a xlink:title=" ">
<polygon fill="#e0e0e0" stroke="#999999" points="689,-19 564,-19 564,0 689,0 689,-19"/>
<text text-anchor="middle" x="626.5" y="-7" font-family="Helvetica,sans-Serif" font-size="10.00">QtWidgets/QStatusBar</text>
</a>
</g>
</g>
<!-- Node1&#45;&gt;Node6 -->
<g id="edge5_Node000001_Node000006" class="edge">
<title>Node1&#45;&gt;Node6</title>
<g id="a_edge5_Node000001_Node000006"><a xlink:title=" ">
<path fill="none" stroke="#63b8ff" d="M461.48,-54.99C499.25,-44.8 549.71,-31.2 584.84,-21.73"/>
<polygon fill="#63b8ff" stroke="#63b8ff" points="586.03,-25.04 594.77,-19.05 584.2,-18.28 586.03,-25.04"/>
</a>
</g>
</g>
<!-- Node7 -->
<g id="Node000007" class="node">
<title>Node7</title>
<g id="a_Node000007"><a xlink:title=" ">
<polygon fill="#e0e0e0" stroke="#999999" points="820,-19 707,-19 707,0 820,0 820,-19"/>
<text text-anchor="middle" x="763.5" y="-7" font-family="Helvetica,sans-Serif" font-size="10.00">QtWidgets/QWidget</text>
</a>
</g>
</g>
<!-- Node1&#45;&gt;Node7 -->
<g id="edge6_Node000001_Node000007" class="edge">
<title>Node1&#45;&gt;Node7</title>
<g id="a_edge6_Node000001_Node000007"><a xlink:title=" ">
<path fill="none" stroke="#63b8ff" d="M469.15,-59.14C533.77,-48.46 636.38,-31.51 701.79,-20.7"/>
<polygon fill="#63b8ff" stroke="#63b8ff" points="702.66,-24.1 711.96,-19.02 701.52,-17.19 702.66,-24.1"/>
</a>
</g>
</g>
</g>
</svg>
